<svg width="388" height="388" viewBox="0 0 388 388" fill="none" xmlns="http://www.w3.org/2000/svg">
<path d="M146.811 20.9731H136.324V31.4596H146.811V20.9731Z" fill="black"/>
<path d="M167.784 20.9731H157.297V31.4596H167.784V20.9731Z" fill="black"/>
<path d="M230.703 20.9731H220.216V31.4596H230.703V20.9731Z" fill="black"/>
<path d="M241.189 20.9731H230.703V31.4596H241.189V20.9731Z" fill="black"/>
<path d="M272.649 20.9731H262.162V31.4596H272.649V20.9731Z" fill="black"/>
<path d="M125.838 31.4595H115.351V41.946H125.838V31.4595Z" fill="black"/>
<path d="M146.811 31.4595H136.324V41.946H146.811V31.4595Z" fill="black"/>
<path d="M157.297 31.4595H146.811V41.946H157.297V31.4595Z" fill="black"/>
<path d="M167.784 31.4595H157.297V41.946H167.784V31.4595Z" fill="black"/>
<path d="M178.27 31.4595H167.784V41.946H178.27V31.4595Z" fill="black"/>
<path d="M188.757 31.4595H178.27V41.946H188.757V31.4595Z" fill="black"/>
<path d="M199.243 31.4595H188.757V41.946H199.243V31.4595Z" fill="black"/>
<path d="M220.216 31.4595H209.73V41.946H220.216V31.4595Z" fill="black"/>
<path d="M241.189 31.4595H230.703V41.946H241.189V31.4595Z" fill="black"/>
<path d="M262.162 31.4595H251.676V41.946H262.162V31.4595Z" fill="black"/>
<path d="M283.135 31.4595H272.649V41.946H283.135V31.4595Z" fill="black"/>
<path d="M115.351 41.9463H104.865V52.4328H115.351V41.9463Z" fill="black"/>
<path d="M178.27 41.9463H167.784V52.4328H178.27V41.9463Z" fill="black"/>
<path d="M188.757 41.9463H178.27V52.4328H188.757V41.9463Z" fill="black"/>
<path d="M220.216 41.9463H209.73V52.4328H220.216V41.9463Z" fill="black"/>
<path d="M241.189 41.9463H230.703V52.4328H241.189V41.9463Z" fill="black"/>
<path d="M251.676 41.9463H241.189V52.4328H251.676V41.9463Z" fill="black"/>
<path d="M283.135 41.9463H272.649V52.4328H283.135V41.9463Z" fill="black"/>
<path d="M115.351 52.4326H104.865V62.9191H115.351V52.4326Z" fill="black"/>
<path d="M157.297 52.4326H146.811V62.9191H157.297V52.4326Z" fill="black"/>
<path d="M167.784 52.4326H157.297V62.9191H167.784V52.4326Z" fill="black"/>
<path d="M178.27 52.4326H167.784V62.9191H178.27V52.4326Z" fill="black"/>
<path d="M188.757 52.4326H178.27V62.9191H188.757V52.4326Z" fill="black"/>
<path d="M209.73 52.4326H199.243V62.9191H209.73V52.4326Z" fill="black"/>
<path d="M262.162 52.4326H251.676V62.9191H262.162V52.4326Z" fill="black"/>
<path d="M283.135 52.4326H272.649V62.9191H283.135V52.4326Z" fill="black"/>
<path d="M115.351 62.9189H104.865V73.4054H115.351V62.9189Z" fill="black"/>
<path d="M125.838 62.9189H115.351V73.4054H125.838V62.9189Z" fill="black"/>
<path d="M136.324 62.9189H125.838V73.4054H136.324V62.9189Z" fill="black"/>
<path d="M146.811 62.9189H136.324V73.4054H146.811V62.9189Z" fill="black"/>
<path d="M199.243 62.9189H188.757V73.4054H199.243V62.9189Z" fill="black"/>
<path d="M220.216 62.9189H209.73V73.4054H220.216V62.9189Z" fill="black"/>
<path d="M241.189 62.9189H230.703V73.4054H241.189V62.9189Z" fill="black"/>
<path d="M251.676 62.9189H241.189V73.4054H251.676V62.9189Z" fill="black"/>
<path d="M262.162 62.9189H251.676V73.4054H262.162V62.9189Z" fill="black"/>
<path d="M272.649 62.9189H262.162V73.4054H272.649V62.9189Z" fill="black"/>
<path d="M115.351 73.4058H104.865V83.8922H115.351V73.4058Z" fill="black"/>
<path d="M136.324 73.4058H125.838V83.8922H136.324V73.4058Z" fill="black"/>
<path d="M188.757 73.4058H178.27V83.8922H188.757V73.4058Z" fill="black"/>
<path d="M199.243 73.4058H188.757V83.8922H199.243V73.4058Z" fill="black"/>
<path d="M241.189 73.4058H230.703V83.8922H241.189V73.4058Z" fill="black"/>
<path d="M251.676 73.4058H241.189V83.8922H251.676V73.4058Z" fill="black"/>
<path d="M262.162 73.4058H251.676V83.8922H262.162V73.4058Z" fill="black"/>
<path d="M115.351 83.8921H104.865V94.3786H115.351V83.8921Z" fill="black"/>
<path d="M136.324 83.8921H125.838V94.3786H136.324V83.8921Z" fill="black"/>
<path d="M157.297 83.8921H146.811V94.3786H157.297V83.8921Z" fill="black"/>
<path d="M178.27 83.8921H167.784V94.3786H178.27V83.8921Z" fill="black"/>
<path d="M199.243 83.8921H188.757V94.3786H199.243V83.8921Z" fill="black"/>
<path d="M220.216 83.8921H209.73V94.3786H220.216V83.8921Z" fill="black"/>
<path d="M241.189 83.8921H230.703V94.3786H241.189V83.8921Z" fill="black"/>
<path d="M262.162 83.8921H251.676V94.3786H262.162V83.8921Z" fill="black"/>
<path d="M283.135 83.8921H272.649V94.3786H283.135V83.8921Z" fill="black"/>
<path d="M115.351 94.3784H104.865V104.865H115.351V94.3784Z" fill="black"/>
<path d="M125.838 94.3784H115.351V104.865H125.838V94.3784Z" fill="black"/>
<path d="M136.324 94.3784H125.838V104.865H136.324V94.3784Z" fill="black"/>
<path d="M178.27 94.3784H167.784V104.865H178.27V94.3784Z" fill="black"/>
<path d="M220.216 94.3784H209.73V104.865H220.216V94.3784Z" fill="black"/>
<path d="M241.189 94.3784H230.703V104.865H241.189V94.3784Z" fill="black"/>
<path d="M251.676 94.3784H241.189V104.865H251.676V94.3784Z" fill="black"/>
<path d="M262.162 94.3784H251.676V104.865H262.162V94.3784Z" fill="black"/>
<path d="M283.135 94.3784H272.649V104.865H283.135V94.3784Z" fill="black"/>
<path d="M31.4595 104.865H20.973V115.352H31.4595V104.865Z" fill="black"/>
<path d="M52.4325 104.865H41.946V115.352H52.4325V104.865Z" fill="black"/>
<path d="M62.919 104.865H52.4325V115.352H62.919V104.865Z" fill="black"/>
<path d="M73.4054 104.865H62.9189V115.352H73.4054V104.865Z" fill="black"/>
<path d="M83.892 104.865H73.4055V115.352H83.892V104.865Z" fill="black"/>
<path d="M94.3785 104.865H83.892V115.352H94.3785V104.865Z" fill="black"/>
<path d="M125.838 104.865H115.351V115.352H125.838V104.865Z" fill="black"/>
<path d="M136.324 104.865H125.838V115.352H136.324V104.865Z" fill="black"/>
<path d="M146.811 104.865H136.324V115.352H146.811V104.865Z" fill="black"/>
<path d="M167.784 104.865H157.297V115.352H167.784V104.865Z" fill="black"/>
<path d="M188.757 104.865H178.27V115.352H188.757V104.865Z" fill="black"/>
<path d="M209.73 104.865H199.243V115.352H209.73V104.865Z" fill="black"/>
<path d="M220.216 104.865H209.73V115.352H220.216V104.865Z" fill="black"/>
<path d="M304.108 104.865H293.622V115.352H304.108V104.865Z" fill="black"/>
<path d="M314.595 104.865H304.108V115.352H314.595V104.865Z" fill="black"/>
<path d="M325.081 104.865H314.595V115.352H325.081V104.865Z" fill="black"/>
<path d="M335.568 104.865H325.081V115.352H335.568V104.865Z" fill="black"/>
<path d="M346.054 104.865H335.568V115.352H346.054V104.865Z" fill="black"/>
<path d="M31.4595 115.352H20.973V125.838H31.4595V115.352Z" fill="black"/>
<path d="M41.946 115.352H31.4595V125.838H41.946V115.352Z" fill="black"/>
<path d="M52.4325 115.352H41.946V125.838H52.4325V115.352Z" fill="black"/>
<path d="M62.919 115.352H52.4325V125.838H62.919V115.352Z" fill="black"/>
<path d="M73.4054 115.352H62.9189V125.838H73.4054V115.352Z" fill="black"/>
<path d="M83.892 115.352H73.4055V125.838H83.892V115.352Z" fill="black"/>
<path d="M104.865 115.352H94.3784V125.838H104.865V115.352Z" fill="black"/>
<path d="M115.351 115.352H104.865V125.838H115.351V115.352Z" fill="black"/>
<path d="M125.838 115.352H115.351V125.838H125.838V115.352Z" fill="black"/>
<path d="M136.324 115.352H125.838V125.838H136.324V115.352Z" fill="black"/>
<path d="M146.811 115.352H136.324V125.838H146.811V115.352Z" fill="black"/>
<path d="M157.297 115.352H146.811V125.838H157.297V115.352Z" fill="black"/>
<path d="M167.784 115.352H157.297V125.838H167.784V115.352Z" fill="black"/>
<path d="M220.216 115.352H209.73V125.838H220.216V115.352Z" fill="black"/>
<path d="M230.703 115.352H220.216V125.838H230.703V115.352Z" fill="black"/>
<path d="M241.189 115.352H230.703V125.838H241.189V115.352Z" fill="black"/>
<path d="M251.676 115.352H241.189V125.838H251.676V115.352Z" fill="black"/>
<path d="M272.649 115.352H262.162V125.838H272.649V115.352Z" fill="black"/>
<path d="M293.622 115.352H283.135V125.838H293.622V115.352Z" fill="black"/>
<path d="M304.108 115.352H293.622V125.838H304.108V115.352Z" fill="black"/>
<path d="M335.568 115.352H325.081V125.838H335.568V115.352Z" fill="black"/>
<path d="M346.054 115.352H335.568V125.838H346.054V115.352Z" fill="black"/>
<path d="M31.4595 125.838H20.973V136.324H31.4595V125.838Z" fill="black"/>
<path d="M73.4054 125.838H62.9189V136.324H73.4054V125.838Z" fill="black"/>
<path d="M83.892 125.838H73.4055V136.324H83.892V125.838Z" fill="black"/>
<path d="M94.3785 125.838H83.892V136.324H94.3785V125.838Z" fill="black"/>
<path d="M104.865 125.838H94.3784V136.324H104.865V125.838Z" fill="black"/>
<path d="M125.838 125.838H115.351V136.324H125.838V125.838Z" fill="black"/>
<path d="M136.324 125.838H125.838V136.324H136.324V125.838Z" fill="black"/>
<path d="M178.27 125.838H167.784V136.324H178.27V125.838Z" fill="black"/>
<path d="M188.757 125.838H178.27V136.324H188.757V125.838Z" fill="black"/>
<path d="M209.73 125.838H199.243V136.324H209.73V125.838Z" fill="black"/>
<path d="M241.189 125.838H230.703V136.324H241.189V125.838Z" fill="black"/>
<path d="M251.676 125.838H241.189V136.324H251.676V125.838Z" fill="black"/>
<path d="M262.162 125.838H251.676V136.324H262.162V125.838Z" fill="black"/>
<path d="M304.108 125.838H293.622V136.324H304.108V125.838Z" fill="black"/>
<path d="M325.081 125.838H314.595V136.324H325.081V125.838Z" fill="black"/>
<path d="M346.054 125.838H335.568V136.324H346.054V125.838Z" fill="black"/>
<path d="M356.541 125.838H346.054V136.324H356.541V125.838Z" fill="black"/>
<path d="M31.4595 136.325H20.973V146.811H31.4595V136.325Z" fill="black"/>
<path d="M52.4325 136.325H41.946V146.811H52.4325V136.325Z" fill="black"/>
<path d="M73.4054 136.325H62.9189V146.811H73.4054V136.325Z" fill="black"/>
<path d="M115.351 136.325H104.865V146.811H115.351V136.325Z" fill="black"/>
<path d="M157.297 136.325H146.811V146.811H157.297V136.325Z" fill="black"/>
<path d="M178.27 136.325H167.784V146.811H178.27V136.325Z" fill="black"/>
<path d="M188.757 136.325H178.27V146.811H188.757V136.325Z" fill="black"/>
<path d="M241.189 136.325H230.703V146.811H241.189V136.325Z" fill="black"/>
<path d="M251.676 136.325H241.189V146.811H251.676V136.325Z" fill="black"/>
<path d="M272.649 136.325H262.162V146.811H272.649V136.325Z" fill="black"/>
<path d="M304.108 136.325H293.622V146.811H304.108V136.325Z" fill="black"/>
<path d="M325.081 136.325H314.595V146.811H325.081V136.325Z" fill="black"/>
<path d="M346.054 136.325H335.568V146.811H346.054V136.325Z" fill="black"/>
<path d="M41.946 146.811H31.4595V157.298H41.946V146.811Z" fill="black"/>
<path d="M52.4325 146.811H41.946V157.298H52.4325V146.811Z" fill="black"/>
<path d="M62.919 146.811H52.4325V157.298H62.919V146.811Z" fill="black"/>
<path d="M73.4054 146.811H62.9189V157.298H73.4054V146.811Z" fill="black"/>
<path d="M83.892 146.811H73.4055V157.298H83.892V146.811Z" fill="black"/>
<path d="M94.3785 146.811H83.892V157.298H94.3785V146.811Z" fill="black"/>
<path d="M104.865 146.811H94.3784V157.298H104.865V146.811Z" fill="black"/>
<path d="M146.811 146.811H136.324V157.298H146.811V146.811Z" fill="black"/>
<path d="M188.757 146.811H178.27V157.298H188.757V146.811Z" fill="black"/>
<path d="M209.73 146.811H199.243V157.298H209.73V146.811Z" fill="black"/>
<path d="M241.189 146.811H230.703V157.298H241.189V146.811Z" fill="black"/>
<path d="M262.162 146.811H251.676V157.298H262.162V146.811Z" fill="black"/>
<path d="M272.649 146.811H262.162V157.298H272.649V146.811Z" fill="black"/>
<path d="M283.135 146.811H272.649V157.298H283.135V146.811Z" fill="black"/>
<path d="M325.081 146.811H314.595V157.298H325.081V146.811Z" fill="black"/>
<path d="M31.4595 157.297H20.973V167.784H31.4595V157.297Z" fill="black"/>
<path d="M41.946 157.297H31.4595V167.784H41.946V157.297Z" fill="black"/>
<path d="M52.4325 157.297H41.946V167.784H52.4325V157.297Z" fill="black"/>
<path d="M73.4054 157.297H62.9189V167.784H73.4054V157.297Z" fill="black"/>
<path d="M125.838 157.297H115.351V167.784H125.838V157.297Z" fill="black"/>
<path d="M199.243 157.297H188.757V167.784H199.243V157.297Z" fill="black"/>
<path d="M220.216 157.297H209.73V167.784H220.216V157.297Z" fill="black"/>
<path d="M230.703 157.297H220.216V167.784H230.703V157.297Z" fill="black"/>
<path d="M251.676 157.297H241.189V167.784H251.676V157.297Z" fill="black"/>
<path d="M272.649 157.297H262.162V167.784H272.649V157.297Z" fill="black"/>
<path d="M304.108 157.297H293.622V167.784H304.108V157.297Z" fill="black"/>
<path d="M314.595 157.297H304.108V167.784H314.595V157.297Z" fill="black"/>
<path d="M335.568 157.297H325.081V167.784H335.568V157.297Z" fill="black"/>
<path d="M346.054 157.297H335.568V167.784H346.054V157.297Z" fill="black"/>
<path d="M367.027 157.297H356.541V167.784H367.027V157.297Z" fill="black"/>
<path d="M31.4595 167.784H20.973V178.271H31.4595V167.784Z" fill="black"/>
<path d="M52.4325 167.784H41.946V178.271H52.4325V167.784Z" fill="black"/>
<path d="M94.3785 167.784H83.892V178.271H94.3785V167.784Z" fill="black"/>
<path d="M104.865 167.784H94.3784V178.271H104.865V167.784Z" fill="black"/>
<path d="M125.838 167.784H115.351V178.271H125.838V167.784Z" fill="black"/>
<path d="M136.324 167.784H125.838V178.271H136.324V167.784Z" fill="black"/>
<path d="M157.297 167.784H146.811V178.271H157.297V167.784Z" fill="black"/>
<path d="M167.784 167.784H157.297V178.271H167.784V167.784Z" fill="black"/>
<path d="M178.27 167.784H167.784V178.271H178.27V167.784Z" fill="black"/>
<path d="M188.757 167.784H178.27V178.271H188.757V167.784Z" fill="black"/>
<path d="M220.216 167.784H209.73V178.271H220.216V167.784Z" fill="black"/>
<path d="M241.189 167.784H230.703V178.271H241.189V167.784Z" fill="black"/>
<path d="M251.676 167.784H241.189V178.271H251.676V167.784Z" fill="black"/>
<path d="M283.135 167.784H272.649V178.271H283.135V167.784Z" fill="black"/>
<path d="M314.595 167.784H304.108V178.271H314.595V167.784Z" fill="black"/>
<path d="M335.568 167.784H325.081V178.271H335.568V167.784Z" fill="black"/>
<path d="M356.541 167.784H346.054V178.271H356.541V167.784Z" fill="black"/>
<path d="M62.919 178.271H52.4325V188.757H62.919V178.271Z" fill="black"/>
<path d="M83.892 178.271H73.4055V188.757H83.892V178.271Z" fill="black"/>
<path d="M115.351 178.271H104.865V188.757H115.351V178.271Z" fill="black"/>
<path d="M136.324 178.271H125.838V188.757H136.324V178.271Z" fill="black"/>
<path d="M157.297 178.271H146.811V188.757H157.297V178.271Z" fill="black"/>
<path d="M178.27 178.271H167.784V188.757H178.27V178.271Z" fill="black"/>
<path d="M199.243 178.271H188.757V188.757H199.243V178.271Z" fill="black"/>
<path d="M220.216 178.271H209.73V188.757H220.216V178.271Z" fill="black"/>
<path d="M241.189 178.271H230.703V188.757H241.189V178.271Z" fill="black"/>
<path d="M251.676 178.271H241.189V188.757H251.676V178.271Z" fill="black"/>
<path d="M272.649 178.271H262.162V188.757H272.649V178.271Z" fill="black"/>
<path d="M304.108 178.271H293.622V188.757H304.108V178.271Z" fill="black"/>
<path d="M325.081 178.271H314.595V188.757H325.081V178.271Z" fill="black"/>
<path d="M335.568 178.271H325.081V188.757H335.568V178.271Z" fill="black"/>
<path d="M346.054 178.271H335.568V188.757H346.054V178.271Z" fill="black"/>
<path d="M356.541 178.271H346.054V188.757H356.541V178.271Z" fill="black"/>
<path d="M31.4595 188.757H20.973V199.243H31.4595V188.757Z" fill="black"/>
<path d="M41.946 188.757H31.4595V199.243H41.946V188.757Z" fill="black"/>
<path d="M62.919 188.757H52.4325V199.243H62.919V188.757Z" fill="black"/>
<path d="M73.4054 188.757H62.9189V199.243H73.4054V188.757Z" fill="black"/>
<path d="M83.892 188.757H73.4055V199.243H83.892V188.757Z" fill="black"/>
<path d="M94.3785 188.757H83.892V199.243H94.3785V188.757Z" fill="black"/>
<path d="M104.865 188.757H94.3784V199.243H104.865V188.757Z" fill="black"/>
<path d="M125.838 188.757H115.351V199.243H125.838V188.757Z" fill="black"/>
<path d="M146.811 188.757H136.324V199.243H146.811V188.757Z" fill="black"/>
<path d="M178.27 188.757H167.784V199.243H178.27V188.757Z" fill="black"/>
<path d="M209.73 188.757H199.243V199.243H209.73V188.757Z" fill="black"/>
<path d="M262.162 188.757H251.676V199.243H262.162V188.757Z" fill="black"/>
<path d="M272.649 188.757H262.162V199.243H272.649V188.757Z" fill="black"/>
<path d="M283.135 188.757H272.649V199.243H283.135V188.757Z" fill="black"/>
<path d="M314.595 188.757H304.108V199.243H314.595V188.757Z" fill="black"/>
<path d="M325.081 188.757H314.595V199.243H325.081V188.757Z" fill="black"/>
<path d="M356.541 188.757H346.054V199.243H356.541V188.757Z" fill="black"/>
<path d="M367.027 188.757H356.541V199.243H367.027V188.757Z" fill="black"/>
<path d="M62.919 199.243H52.4325V209.73H62.919V199.243Z" fill="black"/>
<path d="M136.324 199.243H125.838V209.73H136.324V199.243Z" fill="black"/>
<path d="M157.297 199.243H146.811V209.73H157.297V199.243Z" fill="black"/>
<path d="M167.784 199.243H157.297V209.73H167.784V199.243Z" fill="black"/>
<path d="M209.73 199.243H199.243V209.73H209.73V199.243Z" fill="black"/>
<path d="M230.703 199.243H220.216V209.73H230.703V199.243Z" fill="black"/>
<path d="M241.189 199.243H230.703V209.73H241.189V199.243Z" fill="black"/>
<path d="M262.162 199.243H251.676V209.73H262.162V199.243Z" fill="black"/>
<path d="M272.649 199.243H262.162V209.73H272.649V199.243Z" fill="black"/>
<path d="M293.622 199.243H283.135V209.73H293.622V199.243Z" fill="black"/>
<path d="M304.108 199.243H293.622V209.73H304.108V199.243Z" fill="black"/>
<path d="M346.054 199.243H335.568V209.73H346.054V199.243Z" fill="black"/>
<path d="M367.027 199.243H356.541V209.73H367.027V199.243Z" fill="black"/>
<path d="M31.4595 209.73H20.973V220.216H31.4595V209.73Z" fill="black"/>
<path d="M94.3785 209.73H83.892V220.216H94.3785V209.73Z" fill="black"/>
<path d="M104.865 209.73H94.3784V220.216H104.865V209.73Z" fill="black"/>
<path d="M115.351 209.73H104.865V220.216H115.351V209.73Z" fill="black"/>
<path d="M125.838 209.73H115.351V220.216H125.838V209.73Z" fill="black"/>
<path d="M136.324 209.73H125.838V220.216H136.324V209.73Z" fill="black"/>
<path d="M157.297 209.73H146.811V220.216H157.297V209.73Z" fill="black"/>
<path d="M167.784 209.73H157.297V220.216H167.784V209.73Z" fill="black"/>
<path d="M178.27 209.73H167.784V220.216H178.27V209.73Z" fill="black"/>
<path d="M188.757 209.73H178.27V220.216H188.757V209.73Z" fill="black"/>
<path d="M241.189 209.73H230.703V220.216H241.189V209.73Z" fill="black"/>
<path d="M262.162 209.73H251.676V220.216H262.162V209.73Z" fill="black"/>
<path d="M283.135 209.73H272.649V220.216H283.135V209.73Z" fill="black"/>
<path d="M314.595 209.73H304.108V220.216H314.595V209.73Z" fill="black"/>
<path d="M346.054 209.73H335.568V220.216H346.054V209.73Z" fill="black"/>
<path d="M31.4595 220.216H20.973V230.703H31.4595V220.216Z" fill="black"/>
<path d="M41.946 220.216H31.4595V230.703H41.946V220.216Z" fill="black"/>
<path d="M52.4325 220.216H41.946V230.703H52.4325V220.216Z" fill="black"/>
<path d="M73.4054 220.216H62.9189V230.703H73.4054V220.216Z" fill="black"/>
<path d="M83.892 220.216H73.4055V230.703H83.892V220.216Z" fill="black"/>
<path d="M125.838 220.216H115.351V230.703H125.838V220.216Z" fill="black"/>
<path d="M157.297 220.216H146.811V230.703H157.297V220.216Z" fill="black"/>
<path d="M167.784 220.216H157.297V230.703H167.784V220.216Z" fill="black"/>
<path d="M199.243 220.216H188.757V230.703H199.243V220.216Z" fill="black"/>
<path d="M241.189 220.216H230.703V230.703H241.189V220.216Z" fill="black"/>
<path d="M251.676 220.216H241.189V230.703H251.676V220.216Z" fill="black"/>
<path d="M262.162 220.216H251.676V230.703H262.162V220.216Z" fill="black"/>
<path d="M283.135 220.216H272.649V230.703H283.135V220.216Z" fill="black"/>
<path d="M335.568 220.216H325.081V230.703H335.568V220.216Z" fill="black"/>
<path d="M346.054 220.216H335.568V230.703H346.054V220.216Z" fill="black"/>
<path d="M62.919 230.703H52.4325V241.19H62.919V230.703Z" fill="black"/>
<path d="M94.3785 230.703H83.892V241.19H94.3785V230.703Z" fill="black"/>
<path d="M167.784 230.703H157.297V241.19H167.784V230.703Z" fill="black"/>
<path d="M209.73 230.703H199.243V241.19H209.73V230.703Z" fill="black"/>
<path d="M230.703 230.703H220.216V241.19H230.703V230.703Z" fill="black"/>
<path d="M241.189 230.703H230.703V241.19H241.189V230.703Z" fill="black"/>
<path d="M262.162 230.703H251.676V241.19H262.162V230.703Z" fill="black"/>
<path d="M272.649 230.703H262.162V241.19H272.649V230.703Z" fill="black"/>
<path d="M283.135 230.703H272.649V241.19H283.135V230.703Z" fill="black"/>
<path d="M293.622 230.703H283.135V241.19H293.622V230.703Z" fill="black"/>
<path d="M314.595 230.703H304.108V241.19H314.595V230.703Z" fill="black"/>
<path d="M325.081 230.703H314.595V241.19H325.081V230.703Z" fill="black"/>
<path d="M346.054 230.703H335.568V241.19H346.054V230.703Z" fill="black"/>
<path d="M31.4595 241.189H20.973V251.676H31.4595V241.189Z" fill="black"/>
<path d="M41.946 241.189H31.4595V251.676H41.946V241.189Z" fill="black"/>
<path d="M73.4054 241.189H62.9189V251.676H73.4054V241.189Z" fill="black"/>
<path d="M83.892 241.189H73.4055V251.676H83.892V241.189Z" fill="black"/>
<path d="M115.351 241.189H104.865V251.676H115.351V241.189Z" fill="black"/>
<path d="M146.811 241.189H136.324V251.676H146.811V241.189Z" fill="black"/>
<path d="M157.297 241.189H146.811V251.676H157.297V241.189Z" fill="black"/>
<path d="M167.784 241.189H157.297V251.676H167.784V241.189Z" fill="black"/>
<path d="M220.216 241.189H209.73V251.676H220.216V241.189Z" fill="black"/>
<path d="M230.703 241.189H220.216V251.676H230.703V241.189Z" fill="black"/>
<path d="M251.676 241.189H241.189V251.676H251.676V241.189Z" fill="black"/>
<path d="M262.162 241.189H251.676V251.676H262.162V241.189Z" fill="black"/>
<path d="M272.649 241.189H262.162V251.676H272.649V241.189Z" fill="black"/>
<path d="M283.135 241.189H272.649V251.676H283.135V241.189Z" fill="black"/>
<path d="M304.108 241.189H293.622V251.676H304.108V241.189Z" fill="black"/>
<path d="M335.568 241.189H325.081V251.676H335.568V241.189Z" fill="black"/>
<path d="M31.4595 251.676H20.973V262.162H31.4595V251.676Z" fill="black"/>
<path d="M62.919 251.676H52.4325V262.162H62.919V251.676Z" fill="black"/>
<path d="M73.4054 251.676H62.9189V262.162H73.4054V251.676Z" fill="black"/>
<path d="M94.3785 251.676H83.892V262.162H94.3785V251.676Z" fill="black"/>
<path d="M157.297 251.676H146.811V262.162H157.297V251.676Z" fill="black"/>
<path d="M178.27 251.676H167.784V262.162H178.27V251.676Z" fill="black"/>
<path d="M188.757 251.676H178.27V262.162H188.757V251.676Z" fill="black"/>
<path d="M209.73 251.676H199.243V262.162H209.73V251.676Z" fill="black"/>
<path d="M220.216 251.676H209.73V262.162H220.216V251.676Z" fill="black"/>
<path d="M241.189 251.676H230.703V262.162H241.189V251.676Z" fill="black"/>
<path d="M262.162 251.676H251.676V262.162H262.162V251.676Z" fill="black"/>
<path d="M283.135 251.676H272.649V262.162H283.135V251.676Z" fill="black"/>
<path d="M304.108 251.676H293.622V262.162H304.108V251.676Z" fill="black"/>
<path d="M335.568 251.676H325.081V262.162H335.568V251.676Z" fill="black"/>
<path d="M346.054 251.676H335.568V262.162H346.054V251.676Z" fill="black"/>
<path d="M356.541 251.676H346.054V262.162H356.541V251.676Z" fill="black"/>
<path d="M31.4595 262.162H20.973V272.649H31.4595V262.162Z" fill="black"/>
<path d="M83.892 262.162H73.4055V272.649H83.892V262.162Z" fill="black"/>
<path d="M104.865 262.162H94.3784V272.649H104.865V262.162Z" fill="black"/>
<path d="M115.351 262.162H104.865V272.649H115.351V262.162Z" fill="black"/>
<path d="M136.324 262.162H125.838V272.649H136.324V262.162Z" fill="black"/>
<path d="M146.811 262.162H136.324V272.649H146.811V262.162Z" fill="black"/>
<path d="M188.757 262.162H178.27V272.649H188.757V262.162Z" fill="black"/>
<path d="M199.243 262.162H188.757V272.649H199.243V262.162Z" fill="black"/>
<path d="M251.676 262.162H241.189V272.649H251.676V262.162Z" fill="black"/>
<path d="M262.162 262.162H251.676V272.649H262.162V262.162Z" fill="black"/>
<path d="M304.108 262.162H293.622V272.649H304.108V262.162Z" fill="black"/>
<path d="M314.595 262.162H304.108V272.649H314.595V262.162Z" fill="black"/>
<path d="M325.081 262.162H314.595V272.649H325.081V262.162Z" fill="black"/>
<path d="M335.568 262.162H325.081V272.649H335.568V262.162Z" fill="black"/>
<path d="M346.054 262.162H335.568V272.649H346.054V262.162Z" fill="black"/>
<path d="M367.027 262.162H356.541V272.649H367.027V262.162Z" fill="black"/>
<path d="M31.4595 272.649H20.973V283.135H31.4595V272.649Z" fill="black"/>
<path d="M52.4325 272.649H41.946V283.135H52.4325V272.649Z" fill="black"/>
<path d="M73.4054 272.649H62.9189V283.135H73.4054V272.649Z" fill="black"/>
<path d="M83.892 272.649H73.4055V283.135H83.892V272.649Z" fill="black"/>
<path d="M94.3785 272.649H83.892V283.135H94.3785V272.649Z" fill="black"/>
<path d="M115.351 272.649H104.865V283.135H115.351V272.649Z" fill="black"/>
<path d="M125.838 272.649H115.351V283.135H125.838V272.649Z" fill="black"/>
<path d="M157.297 272.649H146.811V283.135H157.297V272.649Z" fill="black"/>
<path d="M167.784 272.649H157.297V283.135H167.784V272.649Z" fill="black"/>
<path d="M209.73 272.649H199.243V283.135H209.73V272.649Z" fill="black"/>
<path d="M262.162 272.649H251.676V283.135H262.162V272.649Z" fill="black"/>
<path d="M283.135 272.649H272.649V283.135H283.135V272.649Z" fill="black"/>
<path d="M293.622 272.649H283.135V283.135H293.622V272.649Z" fill="black"/>
<path d="M304.108 272.649H293.622V283.135H304.108V272.649Z" fill="black"/>
<path d="M314.595 272.649H304.108V283.135H314.595V272.649Z" fill="black"/>
<path d="M325.081 272.649H314.595V283.135H325.081V272.649Z" fill="black"/>
<path d="M356.541 272.649H346.054V283.135H356.541V272.649Z" fill="black"/>
<path d="M367.027 272.649H356.541V283.135H367.027V272.649Z" fill="black"/>
<path d="M115.351 283.135H104.865V293.622H115.351V283.135Z" fill="black"/>
<path d="M125.838 283.135H115.351V293.622H125.838V283.135Z" fill="black"/>
<path d="M146.811 283.135H136.324V293.622H146.811V283.135Z" fill="black"/>
<path d="M157.297 283.135H146.811V293.622H157.297V283.135Z" fill="black"/>
<path d="M199.243 283.135H188.757V293.622H199.243V283.135Z" fill="black"/>
<path d="M220.216 283.135H209.73V293.622H220.216V283.135Z" fill="black"/>
<path d="M230.703 283.135H220.216V293.622H230.703V283.135Z" fill="black"/>
<path d="M241.189 283.135H230.703V293.622H241.189V283.135Z" fill="black"/>
<path d="M251.676 283.135H241.189V293.622H251.676V283.135Z" fill="black"/>
<path d="M283.135 283.135H272.649V293.622H283.135V283.135Z" fill="black"/>
<path d="M325.081 283.135H314.595V293.622H325.081V283.135Z" fill="black"/>
<path d="M346.054 283.135H335.568V293.622H346.054V283.135Z" fill="black"/>
<path d="M367.027 283.135H356.541V293.622H367.027V283.135Z" fill="black"/>
<path d="M125.838 293.622H115.351V304.108H125.838V293.622Z" fill="black"/>
<path d="M136.324 293.622H125.838V304.108H136.324V293.622Z" fill="black"/>
<path d="M157.297 293.622H146.811V304.108H157.297V293.622Z" fill="black"/>
<path d="M178.27 293.622H167.784V304.108H178.27V293.622Z" fill="black"/>
<path d="M188.757 293.622H178.27V304.108H188.757V293.622Z" fill="black"/>
<path d="M199.243 293.622H188.757V304.108H199.243V293.622Z" fill="black"/>
<path d="M220.216 293.622H209.73V304.108H220.216V293.622Z" fill="black"/>
<path d="M283.135 293.622H272.649V304.108H283.135V293.622Z" fill="black"/>
<path d="M304.108 293.622H293.622V304.108H304.108V293.622Z" fill="black"/>
<path d="M325.081 293.622H314.595V304.108H325.081V293.622Z" fill="black"/>
<path d="M335.568 293.622H325.081V304.108H335.568V293.622Z" fill="black"/>
<path d="M346.054 293.622H335.568V304.108H346.054V293.622Z" fill="black"/>
<path d="M115.351 304.108H104.865V314.595H115.351V304.108Z" fill="black"/>
<path d="M125.838 304.108H115.351V314.595H125.838V304.108Z" fill="black"/>
<path d="M146.811 304.108H136.324V314.595H146.811V304.108Z" fill="black"/>
<path d="M167.784 304.108H157.297V314.595H167.784V304.108Z" fill="black"/>
<path d="M178.27 304.108H167.784V314.595H178.27V304.108Z" fill="black"/>
<path d="M199.243 304.108H188.757V314.595H199.243V304.108Z" fill="black"/>
<path d="M251.676 304.108H241.189V314.595H251.676V304.108Z" fill="black"/>
<path d="M272.649 304.108H262.162V314.595H272.649V304.108Z" fill="black"/>
<path d="M283.135 304.108H272.649V314.595H283.135V304.108Z" fill="black"/>
<path d="M325.081 304.108H314.595V314.595H325.081V304.108Z" fill="black"/>
<path d="M335.568 304.108H325.081V314.595H335.568V304.108Z" fill="black"/>
<path d="M346.054 304.108H335.568V314.595H346.054V304.108Z" fill="black"/>
<path d="M356.541 304.108H346.054V314.595H356.541V304.108Z" fill="black"/>
<path d="M115.351 314.595H104.865V325.081H115.351V314.595Z" fill="black"/>
<path d="M146.811 314.595H136.324V325.081H146.811V314.595Z" fill="black"/>
<path d="M167.784 314.595H157.297V325.081H167.784V314.595Z" fill="black"/>
<path d="M178.27 314.595H167.784V325.081H178.27V314.595Z" fill="black"/>
<path d="M209.73 314.595H199.243V325.081H209.73V314.595Z" fill="black"/>
<path d="M241.189 314.595H230.703V325.081H241.189V314.595Z" fill="black"/>
<path d="M283.135 314.595H272.649V325.081H283.135V314.595Z" fill="black"/>
<path d="M293.622 314.595H283.135V325.081H293.622V314.595Z" fill="black"/>
<path d="M304.108 314.595H293.622V325.081H304.108V314.595Z" fill="black"/>
<path d="M314.595 314.595H304.108V325.081H314.595V314.595Z" fill="black"/>
<path d="M325.081 314.595H314.595V325.081H325.081V314.595Z" fill="black"/>
<path d="M115.351 325.081H104.865V335.568H115.351V325.081Z" fill="black"/>
<path d="M146.811 325.081H136.324V335.568H146.811V325.081Z" fill="black"/>
<path d="M199.243 325.081H188.757V335.568H199.243V325.081Z" fill="black"/>
<path d="M209.73 325.081H199.243V335.568H209.73V325.081Z" fill="black"/>
<path d="M220.216 325.081H209.73V335.568H220.216V325.081Z" fill="black"/>
<path d="M230.703 325.081H220.216V335.568H230.703V325.081Z" fill="black"/>
<path d="M251.676 325.081H241.189V335.568H251.676V325.081Z" fill="black"/>
<path d="M262.162 325.081H251.676V335.568H262.162V325.081Z" fill="black"/>
<path d="M283.135 325.081H272.649V335.568H283.135V325.081Z" fill="black"/>
<path d="M325.081 325.081H314.595V335.568H325.081V325.081Z" fill="black"/>
<path d="M346.054 325.081H335.568V335.568H346.054V325.081Z" fill="black"/>
<path d="M356.541 325.081H346.054V335.568H356.541V325.081Z" fill="black"/>
<path d="M367.027 325.081H356.541V335.568H367.027V325.081Z" fill="black"/>
<path d="M115.351 335.568H104.865V346.054H115.351V335.568Z" fill="black"/>
<path d="M125.838 335.568H115.351V346.054H125.838V335.568Z" fill="black"/>
<path d="M157.297 335.568H146.811V346.054H157.297V335.568Z" fill="black"/>
<path d="M178.27 335.568H167.784V346.054H178.27V335.568Z" fill="black"/>
<path d="M188.757 335.568H178.27V346.054H188.757V335.568Z" fill="black"/>
<path d="M199.243 335.568H188.757V346.054H199.243V335.568Z" fill="black"/>
<path d="M209.73 335.568H199.243V346.054H209.73V335.568Z" fill="black"/>
<path d="M241.189 335.568H230.703V346.054H241.189V335.568Z" fill="black"/>
<path d="M251.676 335.568H241.189V346.054H251.676V335.568Z" fill="black"/>
<path d="M262.162 335.568H251.676V346.054H262.162V335.568Z" fill="black"/>
<path d="M283.135 335.568H272.649V346.054H283.135V335.568Z" fill="black"/>
<path d="M304.108 335.568H293.622V346.054H304.108V335.568Z" fill="black"/>
<path d="M335.568 335.568H325.081V346.054H335.568V335.568Z" fill="black"/>
<path d="M346.054 335.568H335.568V346.054H346.054V335.568Z" fill="black"/>
<path d="M125.838 346.054H115.351V356.541H125.838V346.054Z" fill="black"/>
<path d="M136.324 346.054H125.838V356.541H136.324V346.054Z" fill="black"/>
<path d="M157.297 346.054H146.811V356.541H157.297V346.054Z" fill="black"/>
<path d="M188.757 346.054H178.27V356.541H188.757V346.054Z" fill="black"/>
<path d="M251.676 346.054H241.189V356.541H251.676V346.054Z" fill="black"/>
<path d="M262.162 346.054H251.676V356.541H262.162V346.054Z" fill="black"/>
<path d="M293.622 346.054H283.135V356.541H293.622V346.054Z" fill="black"/>
<path d="M304.108 346.054H293.622V356.541H304.108V346.054Z" fill="black"/>
<path d="M314.595 346.054H304.108V356.541H314.595V346.054Z" fill="black"/>
<path d="M325.081 346.054H314.595V356.541H325.081V346.054Z" fill="black"/>
<path d="M335.568 346.054H325.081V356.541H335.568V346.054Z" fill="black"/>
<path d="M346.054 346.054H335.568V356.541H346.054V346.054Z" fill="black"/>
<path d="M115.351 356.541H104.865V367.027H115.351V356.541Z" fill="black"/>
<path d="M125.838 356.541H115.351V367.027H125.838V356.541Z" fill="black"/>
<path d="M146.811 356.541H136.324V367.027H146.811V356.541Z" fill="black"/>
<path d="M157.297 356.541H146.811V367.027H157.297V356.541Z" fill="black"/>
<path d="M167.784 356.541H157.297V367.027H167.784V356.541Z" fill="black"/>
<path d="M209.73 356.541H199.243V367.027H209.73V356.541Z" fill="black"/>
<path d="M272.649 356.541H262.162V367.027H272.649V356.541Z" fill="black"/>
<path d="M283.135 356.541H272.649V367.027H283.135V356.541Z" fill="black"/>
<path d="M293.622 356.541H283.135V367.027H293.622V356.541Z" fill="black"/>
<path d="M325.081 356.541H314.595V367.027H325.081V356.541Z" fill="black"/>
<path d="M356.541 356.541H346.054V367.027H356.541V356.541Z" fill="black"/>
<path d="M83.3676 20.9731H31.9838H20.973V31.984V83.3677V94.3785H31.9838H83.3676H94.3784V83.3677V31.984V20.9731H83.3676ZM83.3676 83.3677H31.9838V31.984H83.3676V83.3677Z" fill="black"/>
<path d="M356.016 20.9731H304.632H293.622V31.984V83.3677V94.3785H304.632H356.016H367.027V83.3677V31.984V20.9731H356.016ZM356.016 83.3677H304.632V31.984H356.016V83.3677Z" fill="black"/>
<path d="M83.3676 293.622H31.9838H20.973V304.632V356.016V367.027H31.9838H83.3676H94.3784V356.016V304.632V293.622H83.3676ZM83.3676 356.016H31.9838V304.632H83.3676V356.016Z" fill="black"/>
<path d="M73.4055 41.9463H41.946V73.4057H73.4055V41.9463Z" fill="black"/>
<path d="M346.054 41.9463H314.595V73.4057H346.054V41.9463Z" fill="black"/>
<path d="M73.4055 314.595H41.946V346.054H73.4055V314.595Z" fill="black"/>
</svg>
