<svg width="1419" height="216" viewBox="0 0 1419 216" fill="none" xmlns="http://www.w3.org/2000/svg">
<path d="M267.3 64.8H254.4C254.4 65 254.3 65.2 254.1 65.4C254.1 65.6 254.1 65.9 254.1 66.3H258.3V66.6L258 67.8H256.2L254.1 73.8H255.9L255.3 75.3H248.1L246 81.3H247.5L247.2 82.8H241.8L241.2 84.3H248.4L247.5 87.3H242.1L240.3 93.3H249L247.2 99.3H245.4L243.9 103.8H243.6L242.7 106.8H235.8L235.5 108.3H254.7L254.4 109.8H260.1L258.3 115.8H240L239.4 117.3H242.1L241.2 120.3H238.5L236.7 126.3H229.8L228.9 129.3L228.3 130.8H208.2L206.7 135.3H203.4L201.3 141.3H198.3L196.5 147.3H235.2L233.4 153.3H204.9L204 156.3H231.3L229.5 162.3H227.7L226.5 166.8H223.5L221.7 172.8H222.3L221.4 175.8H222.3L221.1 178.8H218.1L217.2 181.8H227.7L225.9 187.8H214.2L212.7 192.3H209.1L207.6 196.8H209.7L208.5 201.3H216L215.4 202.8H211.5L210.6 205.5C210.4 205.7 210.3 206 210.3 206.4C210.3 206.6 210.2 206.9 210 207.3H222.3C221.7 208.5 221 209.5 220.2 210.3H211.8C211 211.1 210.3 211.6 209.7 211.8H204C202.4 212.6 200.7 213 198.9 213H158.7C157.9 213 157 212.9 156 212.7C155.2 212.3 154.4 212 153.6 211.8H159.6C159 211.6 158.3 211.1 157.5 210.3H165.9C165.1 209.5 164.4 208.5 163.8 207.3H151.5L150.6 205.5L149.7 202.8H153.6L153.3 201.3H145.5L144 196.8H141.9L140.4 192.3H143.7L142.2 187.8H154.2L152.1 181.8H141.3L140.4 178.8H143.4L142.5 175.8H141.6L140.4 172.8H139.8L137.7 166.8H140.7L138.9 162.3H140.7L138.6 156.3H123.3L121.2 162.3H124.2L122.7 166.8H123.3L121.2 172.8H120.6L119.4 175.8H119.1L118.2 178.8H126L124.8 181.8H129L126.9 187.8H112.2L110.7 192.3H121.8L120.3 196.8H110.7L109.2 201.3H114.3L113.7 202.8H112.2L111.3 205.5C111.1 205.7 111 206 111 206.4C111 206.6 110.9 206.9 110.7 207.3H125.1C124.5 208.5 123.8 209.5 123 210.3H106.2C105.6 210.9 104.9 211.4 104.1 211.8H96.3C94.7 212.6 93 213 91.2 213H51C50.2 213 49.3 212.9 48.3 212.7C47.5 212.3 46.7 212 45.9 211.8H53.7C52.9 211.4 52.2 210.9 51.6 210.3H68.7C68.3 209.9 67.9 209.5 67.5 209.1C67.1 208.5 66.8 207.9 66.6 207.3H52.2L51.3 205.5L50.4 202.8H51.9L51.3 201.3H46.2L44.7 196.8H54.3L53.1 192.3H41.7L40.2 187.8H55.2L53.1 181.8H48.9L48 178.8H40.2L39.3 175.8H39.6L38.7 172.8H39.3L37.2 166.8H36.6L35.1 162.3H32.1L30.3 156.3H40.5L39.6 153.3H37.5L35.7 147.3H-3L-5.1 141.3H-2.1L-3.9 135.3H-0.3L-1.8 130.8H18.3L18 129.3L17.1 126.3H24.9L22.8 120.3H21.9L21 117.3H18.9L18.6 115.8H35.4L33.3 109.8H8.7L8.4 108.3H49.8L49.2 106.8H17.1L16.2 103.8H12.9L11.7 99.3H13.2L11.4 93.3H10.8L9 87.3H5.7L4.8 84.3H5.1L4.5 82.8H6L5.4 81.3H15.6L13.8 75.3H3.3L3 73.8H8.7L6.6 67.8H5.4L5.1 66.6V66.3H4.8V64.8H21.3V64.2C21.3 63.2 21.4 62.4 21.6 61.8H4.8C6.2 58.6 8.5 57 11.7 57H57.9C60.1 57 61.9 57.5 63.3 58.5C64.9 59.5 66.1 60.6 66.9 61.8H83.7C84.3 62.6 84.7 63.4 84.9 64.2V64.8H68.4L69.6 67.8H70.8L72.6 73.8H66.9L67.2 75.3H77.4L79.2 81.3H69.3L69.6 82.8H68.1L68.7 84.3H68.4L69.3 87.3H72.6L74.1 93.3H75L76.5 99.3H74.7L76.2 103.8H79.2L80.1 106.8H97.8L98.7 103.8H94.5L96 99.3H94.8L96.6 93.3H97.2L99 87.3H94.2L95.1 84.3H90.3L90.6 82.8H106.5L107.1 81.3H102.6L104.7 75.3H102.6L103.2 73.8L105.3 67.8H111.6L111.9 66.3H105.9L106.5 64.8H106.8V64.2C107 63.4 107.4 62.6 108 61.8H108.3C109.3 60.6 110.5 59.5 111.9 58.5C113.5 57.5 115.4 57 117.6 57H145.5C147.7 57 149.5 57.5 150.9 58.5C152.5 59.5 153.7 60.6 154.5 61.8H154.2L155.1 64.2L155.4 64.8H155.1L155.7 66.3H161.7L162 67.8H155.7L157.5 73.8L158.1 75.3H159.9L161.7 81.3H165.9L166.5 82.8H150.6L151.2 84.3H156L156.9 87.3H161.7L163.5 93.3H162.9L165 99.3H166.2L167.7 103.8H171.6L172.5 106.8H179.7L180.6 103.8L182.1 99.3H183.9L185.7 93.3H177L178.5 87.3H183.9L184.8 84.3H177.6L178.2 82.8H183.6L183.9 81.3H182.4L184.2 75.3H191.7L192 73.8H190.5L192 67.8H194.1L194.4 66.3H190.2L190.5 64.8H203.4L203.7 64.2C203.7 63.8 203.8 63.4 204 63C204.2 62.6 204.4 62.2 204.6 61.8H191.7C192.5 60.6 193.6 59.5 195 58.5C196.6 57.5 198.5 57 200.7 57H246.9C250.5 57 252.8 58.6 253.8 61.8H266.7C266.9 62.2 267 62.6 267 63C267.2 63.4 267.3 63.8 267.3 64.2V64.8ZM71.4 108.3L71.7 109.8H82.8L83.4 108.3H71.4ZM197.1 109.8H191.4L191.7 108.3H159.3L159.6 109.8H174.3L176.4 115.8H195.3L197.1 109.8ZM84 117.3L84.9 120.3H85.8L87 124.2L88.2 120.3H90L91.2 117.3H96.3L96.6 115.8H81.3L81.9 117.3H84ZM178.5 120.3L179.4 117.3H172.5L173.4 120.3H171.6L173.7 126.3H174L175.8 120.3H178.5ZM96.9 144.9L96 147.3H97.8L96.9 144.9ZM138.6 153.3L136.5 147.3H134.7L132.6 153.3H138.6ZM421.962 130.8V133.8H460.062V136.8H436.962V139.8H426.162V142.8H435.462V144.6C435.462 145.8 435.362 146.7 435.162 147.3H439.362C437.962 150.9 435.362 152.7 431.562 152.7H342.162V153.3H354.162V154.2C354.162 155 354.162 155.9 354.162 156.9C354.162 157.7 354.262 158.5 354.462 159.3H338.262C338.262 159.9 338.262 160.5 338.262 161.1C338.462 161.5 338.562 161.9 338.562 162.3H336.762C336.762 163.1 336.962 164.1 337.362 165.3H338.562C339.562 168.1 341.162 170.1 343.362 171.3H335.262C336.662 172.1 338.562 172.5 340.962 172.5C342.562 172.5 343.862 172.1 344.862 171.3H358.962C359.762 170.9 360.462 170.3 361.062 169.5C361.862 168.7 362.762 167.9 363.762 167.1L365.562 165.3H359.862C361.662 163.7 364.362 162.9 367.962 162.9H424.662C427.062 162.9 428.862 163.7 430.062 165.3H435.462C436.462 166.7 436.962 168.1 436.962 169.5C436.762 169.9 436.662 170.5 436.662 171.3H422.562C422.162 173.3 421.562 175.3 420.762 177.3H406.062C405.462 178.3 404.962 179.3 404.562 180.3H441.762C441.362 181.3 440.762 182.3 439.962 183.3C439.362 184.3 438.662 185.3 437.862 186.3H428.862C428.062 187.5 427.262 188.5 426.462 189.3H428.562C428.362 189.5 428.162 189.7 427.962 189.9C427.762 190.1 427.562 190.4 427.362 190.8H410.562L409.062 192.3H414.162C413.962 192.5 413.662 192.7 413.262 192.9C413.062 193.1 412.862 193.4 412.662 193.8H421.962C420.562 195.2 418.762 196.7 416.562 198.3H412.062C411.862 198.5 411.562 198.7 411.162 198.9C410.762 199.1 410.362 199.4 409.962 199.8H406.662C403.462 202 399.962 204 396.162 205.8H392.262C389.862 207 387.262 208.1 384.462 209.1C381.862 210.1 379.062 211 376.062 211.8H371.262C369.062 212.4 366.762 212.9 364.362 213.3C361.962 213.9 359.362 214.4 356.562 214.8H369.162C366.362 215.2 363.462 215.5 360.462 215.7C357.462 215.9 354.262 216 350.862 216C347.662 216 344.462 215.9 341.262 215.7C338.062 215.5 334.962 215.2 331.962 214.8H319.362C316.762 214.4 314.262 213.9 311.862 213.3C309.462 212.9 307.062 212.4 304.662 211.8H309.462C304.062 210.4 298.962 208.4 294.162 205.8H298.062C294.462 203.8 291.362 201.8 288.762 199.8H292.062C291.662 199.4 291.262 199.1 290.862 198.9C290.662 198.7 290.362 198.5 289.962 198.3H294.462C293.662 197.5 292.862 196.8 292.062 196.2C291.262 195.4 290.462 194.6 289.662 193.8H280.062L278.562 192.3H273.462C273.262 191.9 273.062 191.6 272.862 191.4C272.662 191.2 272.462 191 272.262 190.8H288.762C288.562 190.4 288.162 189.9 287.562 189.3H285.462C285.062 188.9 284.662 188.4 284.262 187.8C283.862 187.2 283.462 186.7 283.062 186.3H292.062C291.462 185.3 290.862 184.3 290.262 183.3C289.662 182.3 289.062 181.3 288.462 180.3H250.962C250.362 179.3 249.862 178.3 249.462 177.3H264.162L261.462 171.3H269.562C269.162 170.3 268.762 169.3 268.362 168.3C268.162 167.3 267.862 166.3 267.462 165.3H266.562L265.662 162.3H267.762L266.862 159.3H283.062C282.862 158.3 282.662 157.3 282.462 156.3C282.262 155.3 282.062 154.3 281.862 153.3H269.862L269.262 147.3H265.062C265.062 146.5 264.962 145.8 264.762 145.2C264.762 144.4 264.762 143.6 264.762 142.8H255.462V139.8H265.962V136.8H289.062V133.8H250.962V133.2C250.962 132.2 251.062 131.4 251.262 130.8H303.162C303.162 130 303.162 129.3 303.162 128.7C303.362 127.9 303.462 127.1 303.462 126.3H255.762C255.762 125.9 255.762 125.6 255.762 125.4C255.962 125.2 256.062 125 256.062 124.8H275.862C275.862 124.2 275.962 123.7 276.162 123.3H298.362V121.8H256.062C256.262 120.8 256.462 119.8 256.662 118.8C256.862 117.8 257.062 116.8 257.262 115.8H268.662C268.662 115 268.862 114 269.262 112.8H259.362C259.362 112.4 259.362 112.1 259.362 111.9C259.562 111.7 259.662 111.5 259.662 111.3H266.862C266.862 110.9 266.862 110.6 266.862 110.4C267.062 110.2 267.162 110 267.162 109.8H259.662L260.262 108.3H267.462L268.362 105.3H274.062L275.862 100.8H270.462C270.862 99.8 271.262 98.8 271.662 97.8C272.062 96.6 272.562 95.6 273.162 94.8H272.262L272.862 93.3H265.362C265.762 92.5 265.962 92 265.962 91.8H259.062L260.862 88.8H275.562C275.762 88.4 276.162 87.9 276.762 87.3H282.162C282.962 86.3 283.662 85.3 284.262 84.3C285.062 83.1 285.862 82.1 286.662 81.3H281.262C281.862 80.5 282.462 79.8 283.062 79.2C283.862 78.4 284.662 77.6 285.462 76.8H297.162L300.162 73.8H282.462C285.062 71.6 287.662 69.6 290.262 67.8H306.762L309.162 66.3H303.762C305.362 65.3 307.262 64.3 309.462 63.3H321.162C326.562 60.7 332.162 58.7 337.962 57.3H321.162C325.562 56.3 330.162 55.5 334.962 54.9C339.762 54.3 344.762 54 349.962 54C355.162 54 360.062 54.3 364.662 54.9C369.262 55.5 373.662 56.3 377.862 57.3H394.362C397.362 58.1 400.162 59 402.762 60C405.562 61 408.262 62.1 410.862 63.3H399.162C400.162 63.7 401.062 64.2 401.862 64.8C402.862 65.2 403.762 65.7 404.562 66.3H409.962C410.362 66.5 410.762 66.7 411.162 66.9C411.562 67.1 411.962 67.4 412.362 67.8H395.862C398.462 69.6 401.062 71.6 403.662 73.8H421.662L424.662 76.8H412.962C413.762 77.6 414.462 78.4 415.062 79.2C415.862 79.8 416.562 80.5 417.162 81.3H422.562C423.362 82.1 424.062 83.1 424.662 84.3C425.462 85.3 426.262 86.3 427.062 87.3H421.362C421.562 87.7 421.962 88.2 422.562 88.8H407.562L409.362 91.8H416.262L417.162 93.3H424.962C424.962 93.5 425.162 94 425.562 94.8H426.462L429.162 100.8L430.962 105.3H431.262L432.162 108.3H428.562L429.162 109.8H431.862L432.462 111.3H437.262C437.262 111.5 437.262 111.7 437.262 111.9C437.462 112.1 437.562 112.4 437.562 112.8H435.162L436.062 115.8H424.662L425.562 121.8H467.862V123.3H445.662C445.662 123.5 445.662 123.7 445.662 123.9C445.862 124.1 445.962 124.4 445.962 124.8H425.862C426.062 125.2 426.162 125.7 426.162 126.3H473.862C473.862 127.1 473.862 127.9 473.862 128.7C473.862 129.3 473.962 130 474.162 130.8H421.962ZM330.762 111.3V112.8H340.362V115.2H364.362V112.8H366.462V111.3H361.662V109.8H358.662C358.662 109.2 358.562 108.7 358.362 108.3H361.962C361.962 107.5 361.762 106.5 361.362 105.3H361.062C360.862 103.5 360.262 102 359.262 100.8C357.262 97.6 354.162 96 349.962 96C345.962 96 342.962 97.6 340.962 100.8H346.362C345.562 102 344.962 103.5 344.562 105.3H338.562C338.562 105.7 338.462 106.2 338.262 106.8C338.262 107.2 338.162 107.7 337.962 108.3H330.762C330.762 108.9 330.662 109.4 330.462 109.8H337.962V111.3H330.762ZM556.676 96.3H532.076V97.8H533.876V103.8H541.676V106.8H521.576V111.3H526.376V112.8H526.676V117.3H528.176V118.8H524.876V120.3H528.476V121.8H526.076V124.8H524.276V129.3H525.776V130.8H526.976V132.3H518.876V135.3H515.576V136.8H512.876V141.3H519.776V142.8H514.676V145.8H529.976V151.8H515.876V157.8H528.476V163.8H526.376V165.3H529.376V171.3H518.876V174.3H539.276V180.3H521.576V181.8H529.676V186.3H525.776V192.3H524.576V198.3H526.076V202.8H522.776V204.9C522.776 205.9 522.676 206.7 522.476 207.3H530.576C529.776 209.5 528.576 211 526.976 211.8H517.076C516.076 212.6 514.676 213 512.876 213H459.176C457.376 213 455.976 212.6 454.976 211.8H464.876C463.276 211 462.076 209.5 461.276 207.3H453.176C452.976 206.7 452.876 205.9 452.876 204.9V202.8H456.176V198.3H454.676V192.3H455.876V186.3H459.776V181.8H451.676V180.3H469.376V174.3H448.976V171.3H459.476V165.3H456.476V163.8H458.576V157.8H445.976V151.8H460.076V145.8H444.776V142.8H449.876V141.3H442.976V136.8H445.676V135.3H448.976V132.3H457.076V130.8H455.876V129.3H454.376V124.8H456.176V121.8H458.576V120.3H454.976V118.8H458.276V117.3H456.776V112.8H456.476V111.3H451.676V106.8H471.776V103.8H463.976V97.8H462.176V96.3H486.776V94.8H460.676V90.3H475.976V85.8H463.676V84.3H451.676V78.3H460.076V76.8H456.176V75.3H451.976V70.8H453.476V69.3H458.276V63.3H456.176V60.3H460.376V49.8H472.976V48.3H464.576V43.8H453.176V42.3H452.576V39.3H455.276V36.3H455.876V34.8H456.176V30.3H455.576V28.8H456.176V27.3H457.076V22.8H454.976V18.3H457.076V16.8H456.476V10.8H456.176V9.29999H455.876V8.09999C455.876 7.09999 456.076 5.99999 456.476 4.8H456.776C458.176 1.59999 460.676 -1.14441e-05 464.276 -1.14441e-05H517.976C521.176 -1.14441e-05 523.676 1.59999 525.476 4.8H525.176C525.576 5.99999 525.776 7.09999 525.776 8.09999V9.29999H526.076V10.8H526.376V16.8H526.976V18.3H524.876V22.8H526.976V27.3H526.076V28.8H525.476V30.3H526.076V34.8H525.776V36.3H525.176V39.3H522.476V42.3H523.076V43.8H534.476V48.3H542.876V49.8H530.276V60.3H526.076V63.3H528.176V69.3H523.376V70.8H521.876V75.3H526.076V76.8H529.976V78.3H521.576V84.3H533.576V85.8H545.876V90.3H530.576V94.8H556.676V96.3ZM720.548 115.8H740.948C740.948 116 740.848 116.2 740.648 116.4C740.448 116.6 740.248 116.9 740.048 117.3H733.148C731.548 119.3 729.348 120.3 726.548 120.3H668.048C665.248 120.3 663.048 119.3 661.448 117.3H668.348L667.448 115.8H646.748L645.848 114.3C645.648 113.5 645.148 112.5 644.348 111.3H639.248C638.048 109.1 636.748 107.6 635.348 106.8H642.848C641.248 105.8 639.348 105.3 637.148 105.3C634.748 105.3 632.748 105.8 631.148 106.8H624.848C623.248 107.6 621.948 109.1 620.948 111.3H618.248C617.848 112.1 617.448 113.1 617.048 114.3H633.248C633.048 114.7 632.948 115.2 632.948 115.8H641.048C640.848 116.2 640.748 116.7 640.748 117.3H650.648C650.448 117.7 650.348 118.2 650.348 118.8C650.348 119.4 650.248 119.9 650.048 120.3H651.248V121.8H639.548V124.8H602.048V126.3H659.648C659.448 127.3 659.348 128.3 659.348 129.3C659.348 130.3 659.348 131.3 659.348 132.3H606.248V133.8H627.548V135.3H621.848V141.3H605.648C605.648 142.1 605.648 142.9 605.648 143.7C605.648 144.3 605.748 145 605.948 145.8V148.8H623.948C623.948 150.2 624.048 151.2 624.248 151.8H607.748C608.148 154.4 608.548 156.4 608.948 157.8H605.648C606.848 160.6 608.548 162.6 610.748 163.8H620.648C622.248 164.4 623.948 164.7 625.748 164.7C627.948 164.7 629.748 164.4 631.148 163.8H635.348C637.148 162.8 638.848 160.8 640.448 157.8H632.348L633.248 155.7C633.648 154.9 634.048 154.2 634.448 153.6C635.048 152.8 635.548 152.2 635.948 151.8H656.948C658.748 150.4 660.748 149.7 662.948 149.7H721.448C723.448 149.7 725.348 150.4 727.148 151.8H706.148C708.148 153.4 708.948 155.4 708.548 157.8H716.648C716.448 158.6 716.248 159.5 716.048 160.5C716.048 161.5 715.848 162.6 715.448 163.8H710.948L710.048 166.8H729.248L728.648 168.3H722.348L721.748 169.8H688.448L687.548 171.3H723.848L720.548 177.3H723.548L722.648 178.8H700.148C699.548 179.8 698.848 180.8 698.048 181.8C697.448 182.8 696.748 183.8 695.948 184.8H690.548C690.348 185 690.148 185.2 689.948 185.4C689.748 185.6 689.548 185.9 689.348 186.3H710.048C709.848 186.5 709.648 186.7 709.448 186.9C709.248 187.1 709.048 187.4 708.848 187.8H693.848C693.648 188 693.448 188.2 693.248 188.4C693.048 188.6 692.748 188.9 692.348 189.3H704.948L701.948 192.3H700.448L698.948 193.8H702.548L698.948 196.8H704.348C703.348 197.6 702.248 198.4 701.048 199.2C700.048 199.8 698.948 200.5 697.748 201.3H703.748L701.348 202.8H694.748L689.348 205.8H691.148C687.948 207.6 684.348 209.1 680.348 210.3H675.248C673.448 210.9 671.648 211.5 669.848 212.1C668.048 212.5 666.248 212.9 664.448 213.3H661.748C660.348 213.5 658.948 213.7 657.548 213.9C656.148 214.3 654.748 214.6 653.348 214.8H659.348C656.548 215.2 653.648 215.5 650.648 215.7C647.648 215.9 644.548 216 641.348 216C638.348 216 635.448 215.9 632.648 215.7C629.848 215.5 627.048 215.2 624.248 214.8H617.948C616.548 214.6 615.148 214.3 613.748 213.9C612.548 213.7 611.248 213.5 609.848 213.3H612.548C610.748 212.9 608.948 212.5 607.148 212.1C605.348 211.5 603.648 210.9 602.048 210.3H607.148C603.348 209.1 599.848 207.6 596.648 205.8H594.548C593.748 205.4 592.848 205 591.848 204.6C591.048 204 590.248 203.4 589.448 202.8H595.748L593.348 201.3H587.348L581.348 196.8H576.248C575.648 196.4 575.048 195.9 574.448 195.3C573.848 194.7 573.348 194.2 572.948 193.8H569.048L567.548 192.3H569.048L566.048 189.3H553.748C553.148 188.7 552.748 188.2 552.548 187.8H567.548C566.948 187.2 566.548 186.7 566.348 186.3H545.348C545.148 185.9 544.748 185.4 544.148 184.8H549.548C548.748 183.8 548.048 182.8 547.448 181.8C546.848 180.8 546.248 179.8 545.648 178.8H568.148L567.248 177.3H564.248C563.648 176.3 563.048 175.3 562.448 174.3C562.048 173.3 561.648 172.3 561.248 171.3H525.248L524.648 169.8H557.948L557.348 168.3H563.648L563.048 166.8H543.848L542.948 163.8H533.048C532.848 162.8 532.648 161.8 532.448 160.8C532.248 159.8 532.048 158.8 531.848 157.8H534.848L533.948 151.8H550.448V148.8H532.448V147.3C532.248 146.3 532.148 145.3 532.148 144.3C532.148 143.3 532.148 142.3 532.148 141.3H548.348V135.3H554.048V133.8H532.748V132.3H585.848V126.3H528.548V124.8H566.048V121.8H577.748V120.3H576.548C576.748 119.9 576.848 119.4 576.848 118.8C576.848 118.2 576.848 117.7 576.848 117.3H567.248V115.8H559.148C559.148 115.2 559.248 114.7 559.448 114.3H543.248C543.648 113.1 543.848 112.1 543.848 111.3H546.848L547.748 106.8H554.048L555.848 100.8H556.448C556.648 100 556.948 99.3 557.348 98.7C557.748 97.9 558.048 97.1 558.248 96.3H556.748C557.148 95.3 557.548 94.3 557.948 93.3C558.548 92.1 559.148 91.1 559.748 90.3H557.948C558.348 89.5 558.748 88.8 559.148 88.2C559.748 87.4 560.348 86.6 560.948 85.8H561.248C562.048 84.8 562.848 83.8 563.648 82.8C564.448 81.6 565.248 80.6 566.048 79.8H566.348C567.548 78.2 569.048 76.7 570.848 75.3H569.348L571.148 73.8H570.548L572.348 72.3H583.448C583.848 71.9 584.248 71.6 584.648 71.4C585.048 71.2 585.348 71 585.548 70.8H578.948C579.348 70.4 579.748 70.1 580.148 69.9C580.548 69.7 580.848 69.5 581.048 69.3H578.648C582.248 66.9 585.748 64.9 589.148 63.3H595.148C596.348 62.7 597.548 62.2 598.748 61.8C599.948 61.2 601.148 60.7 602.348 60.3H595.448C596.248 59.9 596.948 59.6 597.548 59.4C598.348 59.2 599.148 59 599.948 58.8H599.648C600.648 58.4 601.548 58.1 602.348 57.9C603.348 57.7 604.248 57.5 605.048 57.3H604.148C612.948 55.1 622.148 54 631.748 54C637.148 54 642.248 54.3 647.048 54.9C651.848 55.5 656.348 56.3 660.548 57.3H661.448C662.448 57.5 663.348 57.7 664.148 57.9C665.148 58.1 666.048 58.4 666.848 58.8H667.148C667.948 59 668.648 59.2 669.248 59.4C670.048 59.6 670.848 59.9 671.648 60.3H678.548C681.548 61.3 684.048 62.3 686.048 63.3H679.748C681.748 64.1 683.648 65.1 685.448 66.3C687.248 67.3 689.048 68.3 690.848 69.3H693.248C693.648 69.5 694.048 69.7 694.448 69.9C694.848 70.1 695.148 70.4 695.348 70.8H701.948C702.348 71 702.648 71.2 702.848 71.4C703.248 71.6 703.648 71.9 704.048 72.3H692.948L694.748 73.8H695.348L697.148 75.3H698.348C699.348 76.1 700.248 76.9 701.048 77.7C701.848 78.3 702.648 79 703.448 79.8H703.148C704.148 80.8 705.048 81.8 705.848 82.8C706.848 83.8 707.748 84.8 708.548 85.8H708.248C708.848 86.6 709.448 87.4 710.048 88.2C710.648 88.8 711.148 89.5 711.548 90.3H713.348C714.148 91.3 714.848 92.3 715.448 93.3C716.048 94.3 716.548 95.3 716.948 96.3H718.748C719.148 97.1 719.548 97.9 719.948 98.7C720.348 99.3 720.648 100 720.848 100.8H720.548C720.948 101.8 721.348 102.8 721.748 103.8C722.148 104.8 722.448 105.8 722.648 106.8H715.148L716.048 111.3H721.148V114.3L720.548 115.8ZM934.47 126.3C934.67 127.3 934.77 128.3 934.77 129.3C934.77 130.3 934.77 131.3 934.77 132.3H913.47V135.3H901.17V138.3H912.87V139.8H899.37V144.3H891.87V145.8H908.67C908.67 146.4 908.57 146.9 908.37 147.3H907.47V148.8H910.17V149.1C910.17 149.9 910.07 150.8 909.87 151.8C909.87 152.8 909.77 153.8 909.57 154.8H907.47L906.57 160.8H911.07C911.07 161.6 910.87 162.6 910.47 163.8H909.57C909.37 164.6 909.17 165.4 908.97 166.2C908.77 166.8 908.57 167.5 908.37 168.3H910.77C910.57 169.3 910.27 170.3 909.87 171.3C909.47 172.3 909.07 173.3 908.67 174.3H904.17L902.97 177.3H903.57C903.17 178.1 902.97 178.6 902.97 178.8H901.77C900.97 180.8 899.87 182.8 898.47 184.8H899.07C898.87 185.2 898.57 185.7 898.17 186.3C897.77 186.9 897.37 187.4 896.97 187.8H896.67L893.07 192.3C892.87 192.5 892.67 192.7 892.47 192.9C892.27 193.1 891.97 193.4 891.57 193.8H890.07C889.27 194.6 888.47 195.4 887.67 196.2C886.87 196.8 885.97 197.5 884.97 198.3H875.97L869.67 202.8H870.87C870.47 203 870.07 203.2 869.67 203.4C869.27 203.6 868.87 203.9 868.47 204.3H866.37C865.97 204.5 865.47 204.7 864.87 204.9C864.27 205.1 863.77 205.4 863.37 205.8H879.57C878.57 206.4 877.47 207 876.27 207.6C875.07 208 873.87 208.4 872.67 208.8H867.57C866.17 209.4 864.67 210 863.07 210.6C861.47 211 859.87 211.4 858.27 211.8H859.47C857.07 212.4 854.57 212.9 851.97 213.3C849.37 213.9 846.67 214.4 843.87 214.8H853.17C849.97 215.2 846.67 215.5 843.27 215.7C839.87 215.9 836.37 216 832.77 216C828.97 216 825.37 215.9 821.97 215.7C818.77 215.5 815.47 215.2 812.07 214.8H802.47C799.87 214.4 797.17 213.9 794.37 213.3C791.77 212.9 789.27 212.4 786.87 211.8H785.97C784.37 211.4 782.77 211 781.17 210.6C779.77 210 778.27 209.4 776.67 208.8H781.47C780.47 208.4 779.37 208 778.17 207.6C776.97 207 775.87 206.4 774.87 205.8H758.67L755.97 204.3H758.07L755.37 202.8H754.17C751.77 201.2 749.67 199.7 747.87 198.3H756.87C756.07 197.5 755.27 196.8 754.47 196.2C753.67 195.4 752.87 194.6 752.07 193.8H753.57C753.37 193.4 753.17 193.1 752.97 192.9C752.77 192.7 752.47 192.5 752.07 192.3L748.47 187.8H748.77L746.67 184.8H746.07C744.67 182.8 743.57 180.8 742.77 178.8H743.67C743.27 178 743.07 177.5 743.07 177.3H742.17L740.97 174.3H745.47C745.27 173.3 744.97 172.3 744.57 171.3C744.17 170.3 743.77 169.3 743.37 168.3H740.97C740.77 167.5 740.57 166.8 740.37 166.2C740.17 165.4 739.97 164.6 739.77 163.8H737.97L737.07 160.8H734.07L733.17 154.8H736.17C735.97 153.8 735.77 152.8 735.57 151.8C735.57 150.8 735.57 149.9 735.57 149.1V148.8H730.17V147.3H728.67C728.67 146.9 728.57 146.6 728.37 146.4C728.37 146.2 728.37 146 728.37 145.8H745.17C745.17 145.2 745.07 144.7 744.87 144.3H728.07V139.8H735.27V138.3H738.87V135.3H745.17V132.3H726.87C726.87 131.3 726.87 130.3 726.87 129.3C726.87 128.3 726.97 127.3 727.17 126.3H723.27V123.3H752.97C753.17 122.7 753.27 121.9 753.27 120.9V118.8H745.17C745.17 118 745.17 117.3 745.17 116.7C745.37 115.9 745.47 115.1 745.47 114.3H748.47L749.37 108.3H739.47C739.67 107.5 739.87 106.8 740.07 106.2C740.27 105.4 740.47 104.6 740.67 103.8H738.57C738.97 102.8 739.27 101.8 739.47 100.8C739.87 99.6 740.27 98.6 740.67 97.8H740.97C741.17 97.4 741.37 96.9 741.57 96.3C741.77 95.7 741.97 95.2 742.17 94.8H741.87C741.87 94.6 742.07 94.1 742.47 93.3H743.97C744.77 91.3 745.87 89.3 747.27 87.3H741.27L743.07 84.3H754.17C754.37 83.9 754.77 83.4 755.37 82.8H733.47C733.87 82 734.37 81.3 734.97 80.7C735.77 79.9 736.47 79.1 737.07 78.3H743.97C744.97 77.3 745.97 76.3 746.97 75.3C748.17 74.1 749.27 73.1 750.27 72.3H764.07C765.87 70.7 767.97 69.2 770.37 67.8H776.07C776.87 67.2 777.67 66.7 778.47 66.3C779.47 65.7 780.37 65.2 781.17 64.8H763.47C765.27 63.8 767.47 62.8 770.07 61.8H778.17C782.77 60 787.57 58.5 792.57 57.3H783.57C793.37 55.1 803.77 54 814.77 54C825.77 54 836.17 55.1 845.97 57.3H855.27C860.27 58.5 864.97 60 869.37 61.8H860.97C863.57 62.8 865.77 63.8 867.57 64.8H885.27C886.27 65.2 887.17 65.7 887.97 66.3C888.97 66.7 889.87 67.2 890.67 67.8H884.97L891.27 72.3H877.47C878.67 73.1 879.77 74.1 880.77 75.3C881.97 76.3 883.07 77.3 884.07 78.3H877.17C877.77 79.1 878.37 79.9 878.97 80.7C879.77 81.3 880.37 82 880.77 82.8H902.97L903.87 84.3H893.07L894.87 87.3H900.87C902.27 89.3 903.37 91.3 904.17 93.3H902.67C903.07 94.1 903.27 94.6 903.27 94.8H903.87L905.07 97.8H904.77C905.17 98.6 905.57 99.6 905.97 100.8C906.37 101.8 906.67 102.8 906.87 103.8H909.87L910.77 108.3H908.97C909.37 109.1 909.57 110.1 909.57 111.3C909.77 112.3 909.97 113.3 910.17 114.3H912.57C912.77 115.1 912.87 115.9 912.87 116.7C912.87 117.3 912.97 118 913.17 118.8H901.47V120.9C901.47 121.9 901.57 122.7 901.77 123.3H895.77V126.3H934.47ZM819.27 114.3C819.07 115.1 818.87 115.9 818.67 116.7C818.67 117.3 818.67 118 818.67 118.8H827.07C826.87 119.4 826.77 120 826.77 120.6C826.77 121.2 826.77 121.8 826.77 122.4V123.3H827.97V122.4C827.97 121.8 827.87 121.2 827.67 120.6C827.67 120 827.67 119.4 827.67 118.8H839.37C839.37 118 839.27 117.3 839.07 116.7C839.07 115.9 839.07 115.1 839.07 114.3H836.67C836.47 113.1 836.17 112 835.77 111C835.57 110 835.27 109.1 834.87 108.3H836.97C836.17 106.5 834.97 105 833.37 103.8H830.37C828.37 102.6 825.77 102 822.57 102C819.37 102 816.87 102.6 815.07 103.8H817.17C816.37 104.4 815.67 105.1 815.07 105.9C814.47 106.5 813.97 107.3 813.57 108.3H823.47C823.27 109.1 822.97 110 822.57 111C822.37 112 822.17 113.1 821.97 114.3H819.27ZM839.67 132.3H860.97V126.3H822.27C822.07 125.5 821.97 124.5 821.97 123.3H797.07C797.07 124.5 796.97 125.5 796.77 126.3H800.67V132.3H818.97V135.3H812.37V138.3H808.77V139.8H801.57C801.57 140.6 801.57 141.4 801.57 142.2C801.77 142.8 801.87 143.5 801.87 144.3H825.57V139.8H839.07V138.3H827.37V135.3H839.67V132.3ZM834.87 147.3V145.8H802.17V147.3H803.67V147.6C803.67 147.8 803.67 148 803.67 148.2C803.87 148.4 803.97 148.6 803.97 148.8H809.07C809.27 149.8 809.37 150.8 809.37 151.8C809.37 152.8 809.47 153.8 809.67 154.8H806.67C807.07 157.4 807.47 159.4 807.87 160.8H811.17C811.57 162 811.97 163 812.37 163.8H814.47C816.27 166.6 819.67 168 824.67 168C829.67 168 833.07 166.6 834.87 163.8H836.07C836.27 163.4 836.47 163 836.67 162.6C836.87 162 837.07 161.4 837.27 160.8H832.77C832.97 159.8 833.17 158.9 833.37 158.1C833.57 157.1 833.77 156 833.97 154.8H836.07C836.27 153.8 836.37 152.8 836.37 151.8C836.37 150.8 836.47 149.8 836.67 148.8H833.97V147.3H834.87ZM1194.15 142.8H1188.45V144.3H1192.65V147.3H1181.55V148.8H1190.25V153.3H1186.35V157.8H1188.75V159.3H1186.95V162.3H1188.15V166.8H1188.75V169.8H1187.85V172.8H1187.55V178.8H1189.05V184.8H1185.45V190.8H1184.25V193.8H1188.75V199.8H1182.75V205.8H1188.15L1187.25 208.8H1192.35C1191.55 210.2 1190.65 211.2 1189.65 211.8H1188.75C1187.75 212.6 1186.35 213 1184.55 213H1131.75C1129.95 213 1128.55 212.6 1127.55 211.8H1128.15C1127.15 211.2 1126.25 210.2 1125.45 208.8H1120.05L1119.15 205.8H1113.75V199.8H1119.75V193.8H1115.25V190.8H1116.45V184.8H1120.05V178.8H1118.55V172.8H1118.85V169.8H1119.75V166.8H1119.15V162.3H1117.95V159.3H1119.75V157.8H1117.35V153.3H1121.25V148.8H1112.55V147.3H1091.55V148.8H1095.45V153.3H1094.85V157.8H1097.55V159.3H1096.05V162.3H1095.45V166.8H1095.15V169.8H1095.45V172.8H1096.65V178.8H1084.05V184.8H1100.55V190.8H1095.75V193.8H1095.45V199.8H1093.65V205.8H1095.45C1095.45 206.4 1095.35 207 1095.15 207.6C1094.95 208 1094.75 208.4 1094.55 208.8H1101.15C1100.75 209.4 1100.25 210 1099.65 210.6C1099.25 211 1098.75 211.4 1098.15 211.8H1080.75C1079.75 212.6 1078.35 213 1076.55 213H1023.75C1021.95 213 1020.55 212.6 1019.55 211.8H1036.95C1035.55 211.2 1034.55 210.2 1033.95 208.8H1027.35L1026.45 205.8H1024.65V199.8H1026.45V193.8H1026.75V190.8H1031.55V184.8H1015.05V178.8H1027.65V172.8H1026.45V169.8H1026.15V166.8H1026.45V162.3H1027.05V159.3H1028.55V157.8H1025.85V153.3H1026.45V148.8H1022.55V147.3H1045.05V144.3H1031.55V142.8H1033.95V136.8H1026.45V130.8H1027.05V129.3H1024.95V124.8H1028.55V123.3H1026.75V122.4C1026.75 121.4 1026.65 120.5 1026.45 119.7C1026.45 118.9 1026.35 118.1 1026.15 117.3H1027.95C1027.95 116.1 1027.65 115.1 1027.05 114.3H1024.65C1023.85 112.5 1022.65 111 1021.05 109.8H1022.55C1020.95 108.4 1018.65 107.7 1015.65 107.7C1012.85 107.7 1010.45 108.4 1008.45 109.8C1007.05 111 1005.85 112.5 1004.85 114.3H1003.95L1003.05 117.3H1004.85C1004.65 118.1 1004.55 118.9 1004.55 119.7C1004.55 120.5 1004.55 121.4 1004.55 122.4V123.3H1000.35V124.8H1003.05V129.3H1002.45V130.8H1001.25V136.8H996.75V142.8H995.85V144.3H1012.65V147.3H1008.15V148.8H1002.45V153.3H1001.85V157.8H1003.95V159.3H1003.35V162.3H1002.75V165.3H1001.55V166.8H1000.65V169.8H1003.05V178.8H992.25V184.8H1003.35V190.8H1002.15V193.8H1004.25V199.8H1003.35V204.9C1003.35 205.1 1003.25 205.3 1003.05 205.5C1003.05 205.5 1003.05 205.6 1003.05 205.8H1004.55L1003.65 208.8H997.05C996.45 210.2 995.45 211.2 994.05 211.8H1015.65C1014.65 212.6 1013.25 213 1011.45 213H957.45C955.65 213 954.25 212.6 953.25 211.8H931.65C930.65 211.2 929.75 210.2 928.95 208.8H935.25C935.05 208.4 934.85 208 934.65 207.6C934.45 207 934.35 206.4 934.35 205.8H933.15V199.8H934.05V193.8H931.95V190.8H933.15V184.8H922.05V178.8H932.85V169.8H930.45V166.8H931.35V165.3H932.55V162.3H933.15V159.3H933.75V157.8H931.65V153.3H932.25V148.8H937.95V147.3H942.45V144.3H925.65V142.8H926.55V136.8H931.05V130.8H932.25V129.3H932.85V124.8H930.15V123.3H934.35V117.3H932.25V114.3H933.15V109.8H933.45V106.8H931.65V105.3H932.85V100.8H930.15V96.3H932.25V91.8H931.95V85.8H932.55V84.3H930.15V81.3H933.75V75.3H930.45V73.8H928.65V72.3H916.35V67.8H894.15V66.3H920.25V65.1C920.25 63.3 920.75 61.7 921.75 60.3H938.55C938.95 59.7 939.45 59.2 940.05 58.8H926.85C928.05 57.6 929.75 57 931.95 57H981.45C983.45 57 985.15 57.6 986.55 58.8H999.75C1000.15 59 1000.45 59.2 1000.65 59.4C1000.85 59.6 1001.05 59.9 1001.25 60.3H984.45C985.45 61.7 985.95 63.3 985.95 65.1V66.3H959.85V67.8H982.05V72.3H994.35V73.8H996.15V75L997.05 73.8H996.75C996.95 73.4 997.35 72.9 997.95 72.3H1009.65C1010.85 70.7 1012.35 69.2 1014.15 67.8H1021.65L1023.45 66.3H1003.95C1005.35 65.3 1006.75 64.3 1008.15 63.3C1009.75 62.1 1011.45 61.1 1013.25 60.3H1016.25C1016.65 59.9 1017.05 59.6 1017.45 59.4C1018.05 59.2 1018.65 59 1019.25 58.8H1032.75C1035.75 57.4 1038.95 56.3 1042.35 55.5C1045.75 54.7 1049.35 54.2 1053.15 54C1064.75 53.6 1074.15 55.2 1081.35 58.8H1067.85C1068.25 59 1068.75 59.2 1069.35 59.4C1069.95 59.6 1070.45 59.9 1070.85 60.3H1067.85C1070.85 62.1 1073.45 64.1 1075.65 66.3H1107.45C1109.05 65.1 1110.55 64 1111.95 63C1113.55 62 1115.15 61.1 1116.75 60.3H1103.55L1106.85 58.8H1111.95C1115.35 57.2 1118.85 56 1122.45 55.2C1126.05 54.4 1129.75 54 1133.55 54C1142.35 54 1150.25 55.6 1157.25 58.8H1152.15L1155.45 60.3H1168.65C1170.25 61.1 1171.65 62 1172.85 63C1174.25 64 1175.65 65.1 1177.05 66.3H1138.65C1139.05 66.5 1139.35 66.7 1139.55 66.9C1139.75 67.1 1139.95 67.4 1140.15 67.8H1187.85L1191.75 72.3H1143.45C1143.65 72.7 1144.05 73.2 1144.65 73.8H1175.25C1175.85 74.4 1176.25 74.9 1176.45 75.3H1177.95C1178.55 76.1 1179.15 77.1 1179.75 78.3C1180.35 79.3 1180.95 80.3 1181.55 81.3H1177.95C1178.35 81.7 1178.65 82.2 1178.85 82.8C1179.05 83.4 1179.25 83.9 1179.45 84.3H1181.55C1181.95 85.1 1182.15 85.6 1182.15 85.8H1181.85C1182.25 86.6 1182.65 87.6 1183.05 88.8C1183.45 89.8 1183.75 90.8 1183.95 91.8H1184.25C1184.45 92.6 1184.65 93.4 1184.85 94.2C1185.05 94.8 1185.25 95.5 1185.45 96.3H1183.35L1184.25 100.8H1186.95C1187.15 101.6 1187.25 102.4 1187.25 103.2C1187.25 103.8 1187.35 104.5 1187.55 105.3H1186.65V106.8H1188.45L1188.75 109.8H1189.35C1189.55 110.6 1189.65 111.4 1189.65 112.2C1189.65 112.8 1189.65 113.5 1189.65 114.3H1188.75V117.3H1186.35V123.3H1193.25V124.8H1188.75V129.3H1188.15V136.8H1194.15V142.8ZM1089.45 67.8C1090.05 68.6 1090.65 69.4 1091.25 70.2C1091.85 70.8 1092.35 71.5 1092.75 72.3H1109.85C1110.65 71.5 1111.45 70.8 1112.25 70.2C1113.05 69.4 1113.85 68.6 1114.65 67.8H1089.45ZM1082.55 73.8L1083.45 75.3H1087.05L1088.55 78.6C1088.95 78 1089.35 77.5 1089.75 77.1C1090.15 76.5 1090.55 75.9 1090.95 75.3H1089.45L1090.95 73.8H1082.55ZM1123.65 144.3H1119.45V142.8H1125.15V136.8H1119.15V129.3H1119.75V124.8H1124.25V123.3H1117.35V122.4C1117.35 121.4 1117.35 120.5 1117.35 119.7C1117.35 118.9 1117.25 118.1 1117.05 117.3H1119.45L1118.55 114.3H1119.45C1118.65 112.5 1117.45 111 1115.85 109.8H1115.25C1113.65 108.4 1111.35 107.7 1108.35 107.7C1105.55 107.7 1103.15 108.4 1101.15 109.8H1099.65C1098.45 110.8 1097.35 112.3 1096.35 114.3H1099.05C1098.45 115.1 1098.15 116.1 1098.15 117.3H1096.05C1095.85 118.1 1095.75 118.9 1095.75 119.7C1095.75 120.5 1095.75 121.4 1095.75 122.4V123.3H1097.55V124.8H1093.95V129.3H1096.05V130.8H1095.45V136.8H1102.95V142.8H1100.55V144.3H1114.05V147.3H1123.65V144.3ZM1366.49 130.8V133.8H1404.59V136.8H1381.49V139.8H1370.69V142.8H1379.99V144.6C1379.99 145.8 1379.89 146.7 1379.69 147.3H1383.89C1382.49 150.9 1379.89 152.7 1376.09 152.7H1286.69V153.3H1298.69V154.2C1298.69 155 1298.69 155.9 1298.69 156.9C1298.69 157.7 1298.79 158.5 1298.99 159.3H1282.79C1282.79 159.9 1282.79 160.5 1282.79 161.1C1282.99 161.5 1283.09 161.9 1283.09 162.3H1281.29C1281.29 163.1 1281.49 164.1 1281.89 165.3H1283.09C1284.09 168.1 1285.69 170.1 1287.89 171.3H1279.79C1281.19 172.1 1283.09 172.5 1285.49 172.5C1287.09 172.5 1288.39 172.1 1289.39 171.3H1303.49C1304.29 170.9 1304.99 170.3 1305.59 169.5C1306.39 168.7 1307.29 167.9 1308.29 167.1L1310.09 165.3H1304.39C1306.19 163.7 1308.89 162.9 1312.49 162.9H1369.19C1371.59 162.9 1373.39 163.7 1374.59 165.3H1379.99C1380.99 166.7 1381.49 168.1 1381.49 169.5C1381.29 169.9 1381.19 170.5 1381.19 171.3H1367.09C1366.69 173.3 1366.09 175.3 1365.29 177.3H1350.59C1349.99 178.3 1349.49 179.3 1349.09 180.3H1386.29C1385.89 181.3 1385.29 182.3 1384.49 183.3C1383.89 184.3 1383.19 185.3 1382.39 186.3H1373.39C1372.59 187.5 1371.79 188.5 1370.99 189.3H1373.09C1372.89 189.5 1372.69 189.7 1372.49 189.9C1372.29 190.1 1372.09 190.4 1371.89 190.8H1355.09L1353.59 192.3H1358.69C1358.49 192.5 1358.19 192.7 1357.79 192.9C1357.59 193.1 1357.39 193.4 1357.19 193.8H1366.49C1365.09 195.2 1363.29 196.7 1361.09 198.3H1356.59C1356.39 198.5 1356.09 198.7 1355.69 198.9C1355.29 199.1 1354.89 199.4 1354.49 199.8H1351.19C1347.99 202 1344.49 204 1340.69 205.8H1336.79C1334.39 207 1331.79 208.1 1328.99 209.1C1326.39 210.1 1323.59 211 1320.59 211.8H1315.79C1313.59 212.4 1311.29 212.9 1308.89 213.3C1306.49 213.9 1303.89 214.4 1301.09 214.8H1313.69C1310.89 215.2 1307.99 215.5 1304.99 215.7C1301.99 215.9 1298.79 216 1295.39 216C1292.19 216 1288.99 215.9 1285.79 215.7C1282.59 215.5 1279.49 215.2 1276.49 214.8H1263.89C1261.29 214.4 1258.79 213.9 1256.39 213.3C1253.99 212.9 1251.59 212.4 1249.19 211.8H1253.99C1248.59 210.4 1243.49 208.4 1238.69 205.8H1242.59C1238.99 203.8 1235.89 201.8 1233.29 199.8H1236.59C1236.19 199.4 1235.79 199.1 1235.39 198.9C1235.19 198.7 1234.89 198.5 1234.49 198.3H1238.99C1238.19 197.5 1237.39 196.8 1236.59 196.2C1235.79 195.4 1234.99 194.6 1234.19 193.8H1224.59L1223.09 192.3H1217.99C1217.79 191.9 1217.59 191.6 1217.39 191.4C1217.19 191.2 1216.99 191 1216.79 190.8H1233.29C1233.09 190.4 1232.69 189.9 1232.09 189.3H1229.99C1229.59 188.9 1229.19 188.4 1228.79 187.8C1228.39 187.2 1227.99 186.7 1227.59 186.3H1236.59C1235.99 185.3 1235.39 184.3 1234.79 183.3C1234.19 182.3 1233.59 181.3 1232.99 180.3H1195.49C1194.89 179.3 1194.39 178.3 1193.99 177.3H1208.69L1205.99 171.3H1214.09C1213.69 170.3 1213.29 169.3 1212.89 168.3C1212.69 167.3 1212.39 166.3 1211.99 165.3H1211.09L1210.19 162.3H1212.29L1211.39 159.3H1227.59C1227.39 158.3 1227.19 157.3 1226.99 156.3C1226.79 155.3 1226.59 154.3 1226.39 153.3H1214.39L1213.79 147.3H1209.59C1209.59 146.5 1209.49 145.8 1209.29 145.2C1209.29 144.4 1209.29 143.6 1209.29 142.8H1199.99V139.8H1210.49V136.8H1233.59V133.8H1195.49V133.2C1195.49 132.2 1195.59 131.4 1195.79 130.8H1247.69C1247.69 130 1247.69 129.3 1247.69 128.7C1247.89 127.9 1247.99 127.1 1247.99 126.3H1200.29C1200.29 125.9 1200.29 125.6 1200.29 125.4C1200.49 125.2 1200.59 125 1200.59 124.8H1220.39C1220.39 124.2 1220.49 123.7 1220.69 123.3H1242.89V121.8H1200.59C1200.79 120.8 1200.99 119.8 1201.19 118.8C1201.39 117.8 1201.59 116.8 1201.79 115.8H1213.19C1213.19 115 1213.39 114 1213.79 112.8H1203.89C1203.89 112.4 1203.89 112.1 1203.89 111.9C1204.09 111.7 1204.19 111.5 1204.19 111.3H1211.39C1211.39 110.9 1211.39 110.6 1211.39 110.4C1211.59 110.2 1211.69 110 1211.69 109.8H1204.19L1204.79 108.3H1211.99L1212.89 105.3H1218.59L1220.39 100.8H1214.99C1215.39 99.8 1215.79 98.8 1216.19 97.8C1216.59 96.6 1217.09 95.6 1217.69 94.8H1216.79L1217.39 93.3H1209.89C1210.29 92.5 1210.49 92 1210.49 91.8H1203.59L1205.39 88.8H1220.09C1220.29 88.4 1220.69 87.9 1221.29 87.3H1226.69C1227.49 86.3 1228.19 85.3 1228.79 84.3C1229.59 83.1 1230.39 82.1 1231.19 81.3H1225.79C1226.39 80.5 1226.99 79.8 1227.59 79.2C1228.39 78.4 1229.19 77.6 1229.99 76.8H1241.69L1244.69 73.8H1226.99C1229.59 71.6 1232.19 69.6 1234.79 67.8H1251.29L1253.69 66.3H1248.29C1249.89 65.3 1251.79 64.3 1253.99 63.3H1265.69C1271.09 60.7 1276.69 58.7 1282.49 57.3H1265.69C1270.09 56.3 1274.69 55.5 1279.49 54.9C1284.29 54.3 1289.29 54 1294.49 54C1299.69 54 1304.59 54.3 1309.19 54.9C1313.79 55.5 1318.19 56.3 1322.39 57.3H1338.89C1341.89 58.1 1344.69 59 1347.29 60C1350.09 61 1352.79 62.1 1355.39 63.3H1343.69C1344.69 63.7 1345.59 64.2 1346.39 64.8C1347.39 65.2 1348.29 65.7 1349.09 66.3H1354.49C1354.89 66.5 1355.29 66.7 1355.69 66.9C1356.09 67.1 1356.49 67.4 1356.89 67.8H1340.39C1342.99 69.6 1345.59 71.6 1348.19 73.8H1366.19L1369.19 76.8H1357.49C1358.29 77.6 1358.99 78.4 1359.59 79.2C1360.39 79.8 1361.09 80.5 1361.69 81.3H1367.09C1367.89 82.1 1368.59 83.1 1369.19 84.3C1369.99 85.3 1370.79 86.3 1371.59 87.3H1365.89C1366.09 87.7 1366.49 88.2 1367.09 88.8H1352.09L1353.89 91.8H1360.79L1361.69 93.3H1369.49C1369.49 93.5 1369.69 94 1370.09 94.8H1370.99L1373.69 100.8L1375.49 105.3H1375.79L1376.69 108.3H1373.09L1373.69 109.8H1376.39L1376.99 111.3H1381.79C1381.79 111.5 1381.79 111.7 1381.79 111.9C1381.99 112.1 1382.09 112.4 1382.09 112.8H1379.69L1380.59 115.8H1369.19L1370.09 121.8H1412.39V123.3H1390.19C1390.19 123.5 1390.19 123.7 1390.19 123.9C1390.39 124.1 1390.49 124.4 1390.49 124.8H1370.39C1370.59 125.2 1370.69 125.7 1370.69 126.3H1418.39C1418.39 127.1 1418.39 127.9 1418.39 128.7C1418.39 129.3 1418.49 130 1418.69 130.8H1366.49ZM1275.29 111.3V112.8H1284.89V115.2H1308.89V112.8H1310.99V111.3H1306.19V109.8H1303.19C1303.19 109.2 1303.09 108.7 1302.89 108.3H1306.49C1306.49 107.5 1306.29 106.5 1305.89 105.3H1305.59C1305.39 103.5 1304.79 102 1303.79 100.8C1301.79 97.6 1298.69 96 1294.49 96C1290.49 96 1287.49 97.6 1285.49 100.8H1290.89C1290.09 102 1289.49 103.5 1289.09 105.3H1283.09C1283.09 105.7 1282.99 106.2 1282.79 106.8C1282.79 107.2 1282.69 107.7 1282.49 108.3H1275.29C1275.29 108.9 1275.19 109.4 1274.99 109.8H1282.49V111.3H1275.29Z" fill="black"/>
</svg>
