<svg width="86" height="75" viewBox="0 0 86 75" fill="none" xmlns="http://www.w3.org/2000/svg">
<g filter="url(#filter0_d_203_93)">
<path d="M54.4734 40.627C57.189 40.627 59.6928 39.7089 61.696 38.1695L2.4574 38.1695L2.4574 40.627L54.4734 40.627Z" fill="#BD1515"/>
<path d="M2.4574 35.7119L64.0875 35.7119C64.6374 34.9547 65.1003 34.1311 65.4611 33.2545H57.3371C56.6584 33.2545 56.1084 32.7043 56.1084 32.0257C56.1084 32.0256 53.6509 32.0256 53.6509 32.0256C53.6509 32.7043 53.101 33.2545 52.4222 33.2545L2.4574 33.2545L2.4574 35.7119Z" fill="#6DA8D6"/>
<path d="M57.3369 30.7968L66.1706 30.7968C66.2868 30.131 66.351 29.4475 66.351 28.749C66.351 22.1995 61.0228 16.8713 54.4734 16.8713L2.4574 16.8713L2.4574 30.7968L52.422 30.7968C53.1008 30.7968 53.6506 31.3468 53.6508 32.0254H56.1082C56.1084 31.3468 56.6584 30.7968 57.3369 30.7968ZM29.8591 24.1209C29.8201 23.4428 30.3304 22.8599 31.0077 22.817C31.085 22.8121 31.1609 22.8154 31.2351 22.8244C31.2973 22.6322 31.3753 22.4469 31.4705 22.2721C31.8683 21.54 32.5375 20.9779 33.3426 20.7174C33.3333 20.6432 33.33 20.5675 33.3346 20.4901C33.3776 19.8129 33.9614 19.2988 34.6386 19.3417C37.004 19.4916 38.8569 21.4648 38.8569 23.8339C38.8569 26.3182 36.8358 28.3392 34.3516 28.3392C31.9823 28.3392 30.009 26.4863 29.8591 24.1209Z" fill="#98D9D5"/>
<path d="M56.3441 3.09871C44.1142 14.3343 25.4345 14.9505 12.5072 4.54386L2.4574 4.87528L2.4574 14.4141L54.4734 14.4141C62.3778 14.4141 68.8085 20.8448 68.8085 28.7492C68.8085 29.9612 68.6566 31.1383 68.3722 32.263C68.3627 32.3109 68.3506 32.3577 68.3357 32.4034C67.8266 34.3332 66.9246 36.105 65.7201 37.6275C65.6844 37.6802 65.6439 37.7291 65.6007 37.7756C62.9701 41.0122 58.9593 43.0842 54.4732 43.0842L2.4574 43.0842L2.4574 55.7421L12.5072 56.0734C25.4345 45.6668 44.1142 46.2829 56.3441 57.5185L74.5425 58.1187L74.5425 2.49893L56.3441 3.09871Z" fill="#F2484B"/>
<path d="M55.803 0.657765C55.5034 0.667758 55.2178 0.786699 55 0.992469C43.5658 11.7913 25.8153 12.3768 13.7111 2.35422C13.4799 2.16287 13.1868 2.06277 12.887 2.0726L1.18842 2.45825C0.52573 2.48004 0 3.02347 0 3.68632L0 56.931C0 57.5939 0.52573 58.1373 1.18826 58.1591L12.8869 58.5447C13.1867 58.5546 13.4798 58.4545 13.7109 58.2631C25.8153 48.2405 43.5656 48.826 54.9998 59.6249C55.2177 59.8306 55.5032 59.9497 55.8029 59.9596L75.7306 60.6165C76.0634 60.6275 76.3863 60.503 76.6255 60.2715C76.8648 60.04 76.9998 59.7214 76.9998 59.3885L76.9998 1.22887C76.9998 0.895972 76.8648 0.577321 76.6255 0.345829C76.3863 0.114338 76.0634 -0.0101709 75.7306 0.000805691L55.803 0.657765ZM56.3442 57.5187C44.1143 46.2831 25.4346 45.6669 12.5073 56.0735L2.45745 55.7421L2.45745 43.0843L54.4734 43.0843C58.9596 43.0843 62.9703 41.0123 65.6009 37.7757C65.6441 37.7292 65.6846 37.6803 65.7203 37.6276C66.9248 36.1051 67.8267 34.3333 68.3359 32.4036C68.3508 32.3578 68.3629 32.311 68.3724 32.2632C68.6568 31.1383 68.8087 29.9612 68.8087 28.7493C68.8087 20.8449 62.378 14.4142 54.4736 14.4142L2.45745 14.4142L2.45745 4.8754L12.5073 4.54413C25.4346 14.9508 44.1143 14.3346 56.3442 3.09899L74.5426 2.49872L74.5426 58.1186L56.3442 57.5187ZM53.6508 32.0258C53.6507 31.347 53.1008 30.797 52.4221 30.797L2.45745 30.797L2.45745 16.8715L54.4734 16.8715C61.0228 16.8715 66.3511 22.1997 66.3511 28.7492C66.3511 29.4477 66.2868 30.1312 66.1707 30.797L57.337 30.797C56.6582 30.797 56.1084 31.347 56.1083 32.0256C56.1083 32.7043 56.6582 33.2545 57.337 33.2545H65.461C65.1002 34.1311 64.6374 34.9547 64.0874 35.7119L2.45745 35.7119L2.45745 33.2545L52.4221 33.2545C53.1008 33.2545 53.6508 32.7043 53.6508 32.0258ZM61.696 38.1694C59.6929 39.7087 57.189 40.6268 54.4734 40.6268L2.45745 40.6268L2.45745 38.1694L61.696 38.1694Z" fill="#082947"/>
<path d="M32.3118 23.966C32.3798 25.0406 33.276 25.8823 34.3515 25.8823C35.4808 25.8823 36.3994 24.9636 36.3994 23.8345C36.3994 22.7589 35.5576 21.8629 34.4831 21.7948C33.883 21.7568 33.4136 21.2944 33.3425 20.7179C32.5374 20.9784 31.8682 21.5405 31.4704 22.2727C31.3754 22.4475 31.2972 22.6326 31.235 22.8249C31.811 22.8949 32.2737 23.3661 32.3118 23.966Z" fill="#6DA8D6"/>
<path d="M38.8568 23.8339C38.8568 21.4649 37.0039 19.4916 34.6386 19.3417C33.9613 19.2987 33.3776 19.8128 33.3345 20.4901C33.3299 20.5674 33.3332 20.6431 33.3425 20.7173C33.4136 21.2939 33.883 21.7562 34.4831 21.7942C35.5578 21.8623 36.3994 22.7583 36.3994 23.8339C36.3994 24.9632 35.4808 25.8817 34.3515 25.8817C33.276 25.8817 32.3798 25.04 32.3118 23.9654C32.2738 23.3655 31.811 22.8943 31.2352 22.8244C31.1609 22.8153 31.0851 22.8121 31.0078 22.817C30.3305 22.8599 29.8202 23.4428 29.8591 24.1209C30.0091 26.4863 31.9824 28.3392 34.3515 28.3394C36.8357 28.3394 38.8568 26.3182 38.8568 23.8339Z" fill="#082947"/>
</g>
<defs>
<filter id="filter0_d_203_93" x="0" y="0" width="85.9999" height="74.6172" filterUnits="userSpaceOnUse" color-interpolation-filters="sRGB">
<feFlood flood-opacity="0" result="BackgroundImageFix"/>
<feColorMatrix in="SourceAlpha" type="matrix" values="0 0 0 0 0 0 0 0 0 0 0 0 0 0 0 0 0 0 127 0" result="hardAlpha"/>
<feOffset dx="5" dy="10"/>
<feGaussianBlur stdDeviation="2"/>
<feComposite in2="hardAlpha" operator="out"/>
<feColorMatrix type="matrix" values="0 0 0 0 0 0 0 0 0 0 0 0 0 0 0 0 0 0 0.25 0"/>
<feBlend mode="normal" in2="BackgroundImageFix" result="effect1_dropShadow_203_93"/>
<feBlend mode="normal" in="SourceGraphic" in2="effect1_dropShadow_203_93" result="shape"/>
</filter>
</defs>
</svg>
