<svg width="19" height="7" viewBox="0 0 19 7" fill="none" xmlns="http://www.w3.org/2000/svg">
<path fill-rule="evenodd" clip-rule="evenodd" d="M18.7997 1.48414C18.7806 1.51767 18.7615 1.55119 18.6852 1.57355C18.6852 1.57355 18.6788 1.57727 18.6661 1.58472C18.6088 1.60707 18.5515 1.62943 18.4751 1.62943C18.3415 1.66296 18.1888 1.69649 18.036 1.73002C18.036 1.73002 18.0297 1.73374 18.0169 1.74119C17.005 2.14355 16.375 2.49002 15.8595 3.12708C15.554 3.4959 15.2486 3.85355 14.6758 4.13296C13.5684 4.66943 11.9838 4.9712 10.4755 5.00472C8.7572 5.03825 6.8098 4.81472 5.28242 4.39002C3.67867 3.95414 3.25864 2.84766 1.97946 2.19943C1.23487 2.18825 0.738471 2.06531 0.452087 1.61826C0.681194 1.79708 1.08213 1.88649 1.54034 1.90884C1.80763 1.9759 2.11311 1.98708 2.53314 1.96472C3.54503 1.90884 4.51873 1.77472 5.51153 1.65178C5.67699 1.64433 5.84246 1.63688 6.00792 1.62943C7.87896 1.41708 9.84546 1.74119 11.7165 1.75237C13.053 1.76354 14.3894 1.77472 15.7068 1.69649C16.3177 1.65178 16.9669 1.62943 17.5778 1.54002C17.7878 1.52884 17.9978 1.50649 18.2079 1.48414C18.7233 1.4059 18.6852 1.13767 18.5515 0.891785C18.857 1.03708 18.9906 1.29414 18.7997 1.48414V1.48414ZM16.9287 1.89767C15.4968 2.04296 13.8357 1.99825 12.5756 1.96472C11.1437 1.93119 9.63544 1.71884 8.16534 1.6406C8.16534 1.64805 8.15898 1.65551 8.14625 1.66296C6.23703 1.68531 4.46145 2.11002 2.59042 2.18825C2.45041 2.1957 2.31676 2.19943 2.18948 2.19943C3.58321 2.79178 4.04143 3.88708 5.75972 4.2559C7.34438 4.58002 9.31088 4.8259 11.0292 4.73649C13.1866 4.62472 14.6376 4.11061 15.4968 3.04884C15.8404 2.63531 16.2604 2.1659 16.9287 1.89767V1.89767Z" fill="#9E4C0B"/>
<g style="mix-blend-mode:multiply">
<path d="M15.4968 3.04886C14.6376 4.11063 13.1866 4.62474 11.0292 4.73651C9.31088 4.82592 7.34438 4.58004 5.75973 4.25592C4.04143 3.8871 3.58322 2.7918 2.18948 2.19945C2.31677 2.19945 2.45041 2.19573 2.59042 2.18827C4.46146 2.11004 6.23703 1.68533 8.14626 1.66298C8.15898 1.65553 8.16535 1.64808 8.16535 1.64062C9.63545 1.71886 11.1437 1.93122 12.5757 1.96475C13.8357 1.99827 15.4968 2.04298 16.9287 1.89769C16.2414 2.16592 15.8404 2.63533 15.4968 3.04886V3.04886Z" fill="#8C0C00"/>
</g>
<path d="M12.9766 3.1271C11.7165 3.2724 10.4182 3.32828 9.08178 3.29475C7.97443 3.26122 6.92436 3.11592 5.8361 2.9818C4.72875 2.84768 4.30872 2.51239 3.92688 2.08768C5.32061 1.93121 6.69525 1.67416 8.14626 1.66298C8.15899 1.65553 8.16535 1.64808 8.16535 1.64062C9.63545 1.71886 11.1437 1.93122 12.5757 1.96475C13.5112 1.99827 14.6758 2.02062 15.7831 1.97592C15.554 2.18455 15.3058 2.382 15.0386 2.56828C14.4467 2.83651 13.7403 3.00416 12.9766 3.1271V3.1271Z" fill="white"/>
<g style="mix-blend-mode:multiply" opacity="0.6">
<path d="M13.7403 2.32239C11.9838 2.1771 10.2464 2.02063 8.47083 1.97592C6.96254 1.93121 5.53063 2.13239 4.04143 2.19945C4.00325 2.16219 3.96506 2.12494 3.92688 2.08768C5.32061 1.93121 6.69525 1.67416 8.14626 1.66298C8.15899 1.65553 8.16535 1.64808 8.16535 1.64062C9.63545 1.71886 11.1437 1.93122 12.5757 1.96475C13.5112 1.99827 14.6758 2.02063 15.7831 1.97592C15.554 2.18455 15.3058 2.382 15.0386 2.56828C14.504 2.81416 13.8739 2.97063 13.2057 3.09357C13.5303 2.92592 13.7976 2.73592 13.9503 2.50121C14.0076 2.4118 13.9121 2.33357 13.7403 2.32239V2.32239Z" fill="#B8A997"/>
</g>
<path d="M13.0911 4.4571C12.4802 4.6024 11.7929 4.69181 11.0292 4.73651C9.40634 4.81475 7.59258 4.61357 6.04611 4.31181C7.38257 3.95416 8.73811 3.79769 10.4182 3.90946C11.411 3.96534 12.2893 4.17769 13.0911 4.4571Z" fill="#FF7858"/>
<path d="M12.1174 5.98829C12.0983 6.02181 12.0602 6.05535 12.0029 6.08888C10.5519 6.72594 8.06988 6.71476 6.67615 5.97711C8.43263 6.34594 10.2655 6.23417 12.1174 5.98829Z" fill="#9E4C0B"/>
</svg>
