<svg width="102" height="52" viewBox="0 0 102 52" fill="none" xmlns="http://www.w3.org/2000/svg">
<g filter="url(#filter0_d_1_74)">
<path d="M97.1393 20.3838C87.6346 20.3522 78.2614 25.1662 73.0272 32.776C71.0124 35.698 69.5013 39.0615 66.6324 41.2162C62.3947 44.401 56.4379 44.0751 51.0833 43.5811C43.3526 42.8559 28.9532 40.9744 20.7735 35.0043C20.456 37.9473 20.4231 40.9219 20.6859 43.8649C18.3536 42.036 15.9774 40.2177 13.2508 38.9879C10.5352 37.7581 7.40349 37.159 4.49077 37.8737C7.62249 34.4262 11.5974 31.5883 15.8898 29.5071C14.7729 27.2789 14.3568 24.7037 14.8714 21.7291C17.3461 7.42393 37.7899 -1.21596 51.1928 0.150449C48.9918 1.62196 47.3603 3.82923 46.6157 6.28876C47.0756 5.20615 48.4881 4.59652 49.7584 4.64908C51.2038 4.71214 52.5287 5.37432 53.8975 5.8368C57.8833 7.16116 62.4823 6.66715 66.052 4.52295C65.1979 7.19269 63.5226 9.62069 61.2778 11.4075C73.7609 8.26479 87.8427 11.7859 97.1393 20.3838V20.3838Z" fill="#4D3217"/>
</g>
<defs>
<filter id="filter0_d_1_74" x="0.490768" y="0.00909424" width="100.649" height="51.8862" filterUnits="userSpaceOnUse" color-interpolation-filters="sRGB">
<feFlood flood-opacity="0" result="BackgroundImageFix"/>
<feColorMatrix in="SourceAlpha" type="matrix" values="0 0 0 0 0 0 0 0 0 0 0 0 0 0 0 0 0 0 127 0" result="hardAlpha"/>
<feOffset dy="4"/>
<feGaussianBlur stdDeviation="2"/>
<feComposite in2="hardAlpha" operator="out"/>
<feColorMatrix type="matrix" values="0 0 0 0 0 0 0 0 0 0 0 0 0 0 0 0 0 0 0.25 0"/>
<feBlend mode="normal" in2="BackgroundImageFix" result="effect1_dropShadow_1_74"/>
<feBlend mode="normal" in="SourceGraphic" in2="effect1_dropShadow_1_74" result="shape"/>
</filter>
</defs>
</svg>
