<svg width="13" height="36" viewBox="0 0 13 36" fill="none" xmlns="http://www.w3.org/2000/svg">
<path d="M12.0889 2.99295V29.6115C12.0889 31.2639 9.73461 32.6045 6.83284 32.6045H5.25603C2.35426 32.6045 0 31.2639 0 29.6115V2.99295C0 1.34059 2.35426 0 5.25603 0H6.83284C9.73461 0 12.0889 1.34059 12.0889 2.99295V2.99295Z" fill="#FF2D08"/>
<path d="M12.0889 17.3654V22.6093H0V17.3654H12.0889Z" fill="white"/>
<path d="M12.0889 6.22285V11.4668H0V6.22285H12.0889Z" fill="white"/>
<path d="M2.08051 34.5686C1.80676 34.5686 1.57681 34.4439 1.57681 34.2818V29.6115C1.57681 29.4556 1.80676 29.3247 2.08051 29.3247C2.36521 29.3247 2.58423 29.4556 2.58423 29.6115V34.2818C2.58423 34.4439 2.36521 34.5686 2.08051 34.5686Z" fill="#FF2D08"/>
<path d="M4.09534 35.2233C3.82159 35.2233 3.59164 35.0986 3.59164 34.9365V30.2725C3.59164 30.1104 3.82159 29.9857 4.09534 29.9857C4.38005 29.9857 4.59905 30.1104 4.59905 30.2725V34.9365C4.59905 35.0986 4.38005 35.2233 4.09534 35.2233Z" fill="#FF2D08"/>
<path d="M6.11015 35.2233C5.83639 35.2233 5.60645 35.0986 5.60645 34.9365V30.2725C5.60645 30.1104 5.83639 29.9857 6.11015 29.9857C6.39485 29.9857 6.61385 30.1104 6.61385 30.2725V34.9365C6.61385 35.0986 6.39485 35.2233 6.11015 35.2233Z" fill="#FF2D08"/>
<path d="M8.12495 35.2233C7.8512 35.2233 7.62125 35.0986 7.62125 34.9365V30.2725C7.62125 30.1104 7.8512 29.9857 8.12495 29.9857C8.40965 29.9857 8.62865 30.1104 8.62865 30.2725V34.9365C8.62865 35.0986 8.40965 35.2233 8.12495 35.2233Z" fill="#FF2D08"/>
<path d="M10.1398 34.5686C9.86604 34.5686 9.63608 34.4439 9.63608 34.2818V29.6115C9.63608 29.4556 9.86604 29.3247 10.1398 29.3247C10.4245 29.3247 10.6435 29.4556 10.6435 29.6115V34.2818C10.6435 34.4439 10.4245 34.5686 10.1398 34.5686Z" fill="#FF2D08"/>
</svg>
