<svg version="1.2" xmlns="http://www.w3.org/2000/svg" viewBox="0 0 16 16" width="33" height="33"><defs><linearGradient id="P" gradientUnits="userSpaceOnUse"/><radialGradient id="g1" cx="8" cy="14.5" r="8" href="#P"><stop/><stop offset="1" stop-opacity="0"/></radialGradient><radialGradient id="g2" cx="11" cy="12" r="11.7" href="#P"><stop stop-color="#fce94f"/><stop offset="1" stop-color="#edd400"/></radialGradient><radialGradient id="g3" cx="1.3" cy="0" r="19.4" href="#P"><stop stop-color="#fff"/><stop offset="1" stop-color="#fce94f"/></radialGradient></defs><style>.a{opacity:.4;fill:url(#g1)}.b{fill:url(#g2);stroke:#c4a000;stroke-linecap:round}.c{fill:none;stroke:url(#g3);stroke-linecap:round}.d{fill:#c4a000}.e{fill:#fce94f}.f{fill:#888a85}</style><path fill-rule="evenodd" class="a" d="m16 14.5c0 0.8-3.6 1.5-8 1.5-4.4 0-8-0.7-8-1.5 0-0.8 3.6-1.5 8-1.5 4.4 0 8 0.7 8 1.5z"/><path class="b" d="m1.5 1.5h13v13h-13z"/><path class="c" d="m2.5 2.5h11v11h-11z"/><path  d="m3 5h4v3h-4z"/><path  d="m6 11h4v1h-4z"/><path  d="m9 5h4v3h-4z"/><path  d="m10 10h1v1h-1z"/><path  d="m5 10h1v1h-1z"/><path class="d" d="m4 8h3v1h-3z"/><path class="e" d="m6 12h4v1h-4z"/><path class="d" d="m9 8h3v1h-3z"/><path class="e" d="m10 11h1v1h-1z"/><path class="e" d="m5 11h1v1h-1z"/><path class="f" d="m9 5h3v1h-3z"/><path class="f" d="m4 5h3v1h-3z"/><path  d="m7 6h2v1h-2z"/><path class="d" d="m7 7h2v1h-2z"/><path  d="m12 6h1v1h-1z"/><path class="d" d="m12 7h1v1h-1z"/><path  d="m3 6h1v1h-1z"/><path class="d" d="m3 7h1v1h-1z"/></svg>