<svg width="314" height="49" viewBox="0 0 314 49" fill="none" xmlns="http://www.w3.org/2000/svg">
<path d="M28.92 22.025C29.5067 22.025 29.965 22.2083 30.295 22.575C30.6617 22.905 31.1017 23.5833 31.615 24.61L36.675 34.73C36.8583 35.0967 37.0783 35.3167 37.335 35.39C37.6283 35.4633 37.9033 35.5 38.16 35.5H38.435C38.7283 35.5 39.0033 35.39 39.26 35.17C39.5167 34.9133 39.6633 34.6383 39.7 34.345L41.075 28.075C41.2217 27.3783 41.295 26.48 41.295 25.38C41.3317 24.28 41.35 23.3267 41.35 22.52V6.35H41.9V22.575C41.9 23.3817 41.8817 24.335 41.845 25.435C41.845 26.535 41.7717 27.4333 41.625 28.13L40.25 34.345C40.1033 34.9317 39.865 35.3717 39.535 35.665C39.2417 35.9217 38.875 36.05 38.435 36.05H38.05C37.72 36.05 37.3717 35.995 37.005 35.885C36.675 35.7383 36.4183 35.4817 36.235 35.115L31.175 24.885C30.6983 23.9317 30.3133 23.3083 30.02 23.015C29.7267 22.7217 29.36 22.575 28.92 22.575H27.545C27.105 22.575 26.7383 22.7217 26.445 23.015C26.1517 23.3083 25.7667 23.9317 25.29 24.885L20.23 35.115C20.0467 35.4817 19.7717 35.7383 19.405 35.885C19.075 35.995 18.745 36.05 18.415 36.05H18.03C17.59 36.05 17.205 35.9217 16.875 35.665C16.5817 35.3717 16.3617 34.9317 16.215 34.345L14.84 28.13C14.6933 27.4333 14.6017 26.535 14.565 25.435C14.565 24.335 14.565 23.3817 14.565 22.575V6.35H15.115V22.52C15.115 23.3267 15.115 24.28 15.115 25.38C15.1517 26.48 15.2433 27.3783 15.39 28.075L16.765 34.345C16.8017 34.6383 16.9483 34.9133 17.205 35.17C17.4617 35.39 17.7367 35.5 18.03 35.5H18.305C18.5617 35.5 18.8183 35.4633 19.075 35.39C19.3683 35.3167 19.6067 35.0967 19.79 34.73L24.85 24.61C25.3633 23.5833 25.785 22.905 26.115 22.575C26.4817 22.2083 26.9583 22.025 27.545 22.025H28.92ZM37.555 1.4C36.8583 1.4 36.345 1.565 36.015 1.895C35.7217 2.18833 35.575 2.68333 35.575 3.38V23.62L32.385 16.69C32.0917 16.0667 31.7067 15.6267 31.23 15.37C30.7533 15.1133 30.1667 14.985 29.47 14.985H27.16C26.4633 14.985 25.8767 15.1133 25.4 15.37C24.9233 15.6267 24.5383 16.0667 24.245 16.69L21.055 23.62V3.38C21.055 2.68333 20.89 2.18833 20.56 1.895C20.2667 1.565 19.7717 1.4 19.075 1.4H10.605C9.90833 1.4 9.395 1.565 9.065 1.895C8.77167 2.18833 8.625 2.68333 8.625 3.38V24.61C8.625 25.7833 8.66167 26.8833 8.735 27.91C8.845 28.9 9.13833 30.0733 9.615 31.43L12.365 39.02C12.5483 39.6067 12.8417 40.0833 13.245 40.45C13.685 40.8167 14.1983 41 14.785 41H22.045C22.6317 41 23.1267 40.8717 23.53 40.615C23.9333 40.3217 24.2083 39.9 24.355 39.35L26.94 30.385C27.05 30.0183 27.1783 29.78 27.325 29.67C27.5083 29.5233 27.71 29.45 27.93 29.45H28.425C28.645 29.45 28.8283 29.5233 28.975 29.67C29.1583 29.78 29.305 30.0183 29.415 30.385L31.945 39.35C32.0917 39.9367 32.4033 40.3583 32.88 40.615C33.3567 40.8717 33.8883 41 34.475 41H41.79C42.3767 41 42.835 40.8167 43.165 40.45C43.5317 40.0467 43.8067 39.57 43.99 39.02L46.74 31.54C47.2167 30.1833 47.4917 29.01 47.565 28.02C47.675 26.9933 47.73 25.8933 47.73 24.72V3.38C47.73 2.68333 47.565 2.18833 47.235 1.895C46.9417 1.565 46.4467 1.4 45.75 1.4H37.555ZM16.875 46.885C16.6183 47.0683 16.325 47.215 15.995 47.325C15.665 47.4717 15.3167 47.545 14.95 47.545H7.69C6.99333 47.545 6.38833 47.325 5.875 46.885C5.36167 46.445 4.995 45.8767 4.775 45.18L2.025 37.59C1.51167 36.2333 1.2 35.0417 1.09 34.015C1.01667 32.9517 0.98 31.815 0.98 30.605V9.375C0.98 8.89833 1.035 8.495 1.145 8.165C1.29167 7.835 1.49333 7.56 1.75 7.34L8.845 1.345C9.02833 1.19833 9.26667 1.08833 9.56 1.015C9.89 0.904998 10.2383 0.849999 10.605 0.849999H19.075C19.955 0.849999 20.5967 1.05167 21 1.455C21.4033 1.85833 21.605 2.5 21.605 3.38V17.735L24.685 15.15C24.9783 14.8933 25.3267 14.71 25.73 14.6C26.17 14.49 26.6467 14.435 27.16 14.435H27.93V9.375C27.93 8.89833 27.985 8.495 28.095 8.165C28.205 7.835 28.37 7.57833 28.59 7.395L28.645 7.34L35.795 1.345C35.9783 1.19833 36.2167 1.08833 36.51 1.015C36.8033 0.904998 37.1517 0.849999 37.555 0.849999H45.75C46.63 0.849999 47.2717 1.05167 47.675 1.455C48.0783 1.85833 48.28 2.5 48.28 3.38V24.72C48.28 25.93 48.225 27.0667 48.115 28.13C48.0417 29.1567 47.7483 30.3483 47.235 31.705L44.485 39.185C44.375 39.5517 44.2283 39.8817 44.045 40.175C43.8617 40.4683 43.6417 40.7433 43.385 41L36.29 46.885C36.07 47.105 35.8317 47.27 35.575 47.38C35.3183 47.49 35.025 47.545 34.695 47.545H27.38C26.6467 47.545 26.005 47.38 25.455 47.05C24.905 46.72 24.52 46.2067 24.3 45.51L23.2 41.605L16.875 46.885ZM80.7115 47.545H55.1915C54.3115 47.545 53.6699 47.3433 53.2665 46.94C52.8632 46.5367 52.6615 45.895 52.6615 45.015V9.375C52.6615 8.89833 52.7165 8.495 52.8265 8.165C52.9732 7.835 53.1749 7.56 53.4315 7.34L60.5265 1.345C60.7099 1.19833 60.9482 1.08833 61.2415 1.015C61.5715 0.904998 61.9199 0.849999 62.2865 0.849999H87.8065C88.6865 0.849999 89.3282 1.05167 89.7315 1.455C90.1349 1.85833 90.3365 2.5 90.3365 3.38V9.815C90.3365 10.2917 90.2632 10.695 90.1165 11.025C90.0065 11.355 89.8232 11.63 89.5665 11.85L84.8365 15.755C85.2032 15.9383 85.4599 16.2133 85.6065 16.58C85.7899 16.9467 85.8815 17.4233 85.8815 18.01V23.895C85.8815 24.3717 85.8082 24.775 85.6615 25.105C85.5515 25.435 85.3682 25.71 85.1115 25.93L80.2165 30.055H87.8065C88.6865 30.055 89.3282 30.2567 89.7315 30.66C90.1349 31.0633 90.3365 31.705 90.3365 32.585V39.02C90.3365 39.4967 90.2632 39.9 90.1165 40.23C90.0065 40.56 89.8232 40.835 89.5665 41.055L82.4165 46.995C82.2699 47.1417 82.0315 47.27 81.7015 47.38C81.4082 47.49 81.0782 47.545 80.7115 47.545ZM87.8065 41C88.5032 41 88.9982 40.8533 89.2915 40.56C89.6215 40.23 89.7865 39.7167 89.7865 39.02V32.585C89.7865 31.8883 89.6215 31.3933 89.2915 31.1C88.9982 30.77 88.5032 30.605 87.8065 30.605H72.6265V25.875H83.3515C84.0482 25.875 84.5432 25.7283 84.8365 25.435C85.1665 25.105 85.3315 24.5917 85.3315 23.895V18.01C85.3315 17.3133 85.1665 16.8183 84.8365 16.525C84.5432 16.195 84.0482 16.03 83.3515 16.03H72.6265V11.795H87.8065C88.5032 11.795 88.9982 11.6483 89.2915 11.355C89.6215 11.025 89.7865 10.5117 89.7865 9.815V3.38C89.7865 2.68333 89.6215 2.18833 89.2915 1.895C88.9982 1.565 88.5032 1.4 87.8065 1.4H62.2865C61.5899 1.4 61.0765 1.565 60.7465 1.895C60.4532 2.18833 60.3065 2.68333 60.3065 3.38V39.02C60.3065 39.7167 60.4532 40.23 60.7465 40.56C61.0765 40.8533 61.5899 41 62.2865 41H87.8065ZM84.8365 35.5V36.05H66.3015V6.35H84.8365V6.9H66.8515V20.705H80.3815V21.255H66.8515V35.5H84.8365ZM124.651 47.545H96.6564C95.7764 47.545 95.1347 47.3433 94.7314 46.94C94.328 46.5367 94.1264 45.895 94.1264 45.015V9.375C94.1264 8.89833 94.1814 8.495 94.2914 8.165C94.438 7.835 94.6397 7.56 94.8964 7.34L101.991 1.345C102.175 1.19833 102.413 1.08833 102.706 1.015C103.036 0.904998 103.385 0.849999 103.751 0.849999H112.276C113.156 0.849999 113.798 1.05167 114.201 1.455C114.605 1.85833 114.806 2.5 114.806 3.38V25.765L114.916 25.655L122.011 19.66C122.195 19.5133 122.433 19.4033 122.726 19.33C123.056 19.22 123.405 19.165 123.771 19.165H131.746C132.626 19.165 133.268 19.3667 133.671 19.77C134.075 20.1733 134.276 20.815 134.276 21.695V39.02C134.276 39.4967 134.203 39.9 134.056 40.23C133.946 40.56 133.763 40.835 133.506 41.055L126.356 46.995C126.21 47.1417 125.971 47.27 125.641 47.38C125.348 47.49 125.018 47.545 124.651 47.545ZM131.746 41C132.443 41 132.938 40.8533 133.231 40.56C133.561 40.23 133.726 39.7167 133.726 39.02V21.695C133.726 20.9983 133.561 20.5033 133.231 20.21C132.938 19.88 132.443 19.715 131.746 19.715H123.771C123.075 19.715 122.561 19.88 122.231 20.21C121.938 20.5033 121.791 20.9983 121.791 21.695V30.605H114.256V3.38C114.256 2.68333 114.091 2.18833 113.761 1.895C113.468 1.565 112.973 1.4 112.276 1.4H103.751C103.055 1.4 102.541 1.565 102.211 1.895C101.918 2.18833 101.771 2.68333 101.771 3.38V39.02C101.771 39.7167 101.918 40.23 102.211 40.56C102.541 40.8533 103.055 41 103.751 41H131.746ZM107.766 36.05V6.35H108.316V35.5H127.456V24.665H128.006V36.05H107.766ZM164.742 47.545H151.322C146.519 47.545 142.962 46.2983 140.652 43.805C138.379 41.3117 137.242 38.085 137.242 34.125V18.67C137.242 16.6533 137.535 14.9117 138.122 13.445C138.709 11.9417 139.57 10.695 140.707 9.705L147.857 3.71C148.994 2.75666 150.442 2.04166 152.202 1.565C153.962 1.08833 156.034 0.849999 158.417 0.849999H171.837C172.717 0.849999 173.359 1.05167 173.762 1.455C174.165 1.85833 174.367 2.5 174.367 3.38V10.035C174.367 10.5117 174.294 10.915 174.147 11.245C174.037 11.575 173.854 11.85 173.597 12.07L166.447 18.01C166.3 18.1567 166.062 18.285 165.732 18.395C165.439 18.505 165.109 18.56 164.742 18.56H157.977V27.855C157.977 28.625 158.215 29.175 158.692 29.505C159.169 29.7983 159.865 29.945 160.782 29.945H171.837C172.717 29.945 173.359 30.1467 173.762 30.55C174.165 30.9533 174.367 31.595 174.367 32.475V39.02C174.367 39.4967 174.294 39.9 174.147 40.23C174.037 40.56 173.854 40.835 173.597 41.055L166.447 46.995C166.3 47.1417 166.062 47.27 165.732 47.38C165.439 47.49 165.109 47.545 164.742 47.545ZM171.837 41C172.534 41 173.029 40.8533 173.322 40.56C173.652 40.23 173.817 39.7167 173.817 39.02V32.475C173.817 31.7783 173.652 31.2833 173.322 30.99C173.029 30.66 172.534 30.495 171.837 30.495H160.782C159.645 30.495 158.802 30.2933 158.252 29.89C157.702 29.45 157.427 28.7717 157.427 27.855V14.765C157.427 13.8483 157.702 13.17 158.252 12.73C158.802 12.2533 159.645 12.015 160.782 12.015H171.837C172.534 12.015 173.029 11.8683 173.322 11.575C173.652 11.245 173.817 10.7317 173.817 10.035V3.38C173.817 2.68333 173.652 2.18833 173.322 1.895C173.029 1.565 172.534 1.4 171.837 1.4H158.417C153.834 1.4 150.424 2.335 148.187 4.205C145.987 6.03833 144.887 8.86167 144.887 12.675V29.78C144.887 33.5933 145.987 36.4167 148.187 38.25C150.424 40.0833 153.834 41 158.417 41H171.837ZM168.812 35.5V36.05H159.627C156.07 36.05 153.705 35.5 152.532 34.4C151.395 33.3 150.827 31.485 150.827 28.955V13.555C150.827 10.9517 151.414 9.1 152.587 8C153.76 6.9 156.107 6.35 159.627 6.35H168.812V6.9H159.627C156.4 6.9 154.219 7.41333 153.082 8.44C151.945 9.43 151.377 11.135 151.377 13.555V28.955C151.377 31.3383 151.927 33.025 153.027 34.015C154.127 35.005 156.327 35.5 159.627 35.5H168.812ZM208.943 44.905C207.66 46.005 205.863 46.8483 203.553 47.435C201.243 48.0583 198.273 48.37 194.643 48.37C191.05 48.37 188.098 47.985 185.788 47.215C183.515 46.4817 181.718 45.4917 180.398 44.245C179.115 42.9983 178.216 41.5683 177.703 39.955C177.226 38.3417 176.988 36.6733 176.988 34.95V17.845C176.988 16.1583 177.226 14.6 177.703 13.17C178.18 11.7033 179.041 10.4567 180.288 9.43L187.438 3.49C188.721 2.39 190.5 1.54667 192.773 0.959998C195.083 0.336663 198.071 0.0249965 201.738 0.0249965C205.331 0.0249965 208.265 0.31833 210.538 0.904998C212.848 1.49166 214.645 2.31666 215.928 3.38C217.248 4.40667 218.146 5.65333 218.623 7.12C219.1 8.55 219.338 10.1267 219.338 11.85V30.605C219.338 32.2917 219.1 33.85 218.623 35.28C218.146 36.71 217.285 37.9383 216.038 38.965L208.943 44.905ZM218.788 30.605V11.85C218.788 10.1633 218.531 8.64166 218.018 7.285C217.541 5.89167 216.661 4.7 215.378 3.71C214.131 2.72 212.39 1.95 210.153 1.4C207.953 0.849999 205.148 0.574999 201.738 0.574999C198.328 0.574999 195.505 0.849999 193.268 1.4C191.031 1.95 189.271 2.72 187.988 3.71C186.741 4.7 185.861 5.89167 185.348 7.285C184.871 8.64166 184.633 10.1633 184.633 11.85V30.605C184.633 32.2917 184.871 33.8317 185.348 35.225C185.861 36.5817 186.741 37.755 187.988 38.745C189.271 39.6983 191.031 40.45 193.268 41C195.505 41.55 198.328 41.825 201.738 41.825C205.148 41.825 207.953 41.55 210.153 41C212.39 40.45 214.131 39.6983 215.378 38.745C216.661 37.755 217.541 36.5817 218.018 35.225C218.531 33.8317 218.788 32.2917 218.788 30.605ZM212.793 29.34C212.793 31.54 212.005 33.3367 210.428 34.73C208.851 36.0867 205.918 36.765 201.628 36.765C197.338 36.765 194.423 36.0867 192.883 34.73C191.343 33.3367 190.573 31.54 190.573 29.34V13.115C190.573 10.915 191.343 9.13666 192.883 7.78C194.423 6.38667 197.338 5.69 201.628 5.69C205.918 5.69 208.851 6.38667 210.428 7.78C212.005 9.13666 212.793 10.915 212.793 13.115V29.34ZM191.123 29.34C191.123 31.3933 191.856 33.0617 193.323 34.345C194.79 35.5917 197.558 36.215 201.628 36.215C205.698 36.215 208.485 35.5917 209.988 34.345C211.491 33.0617 212.243 31.3933 212.243 29.34V13.115C212.243 11.0617 211.491 9.41167 209.988 8.165C208.485 6.88167 205.698 6.24 201.628 6.24C197.558 6.24 194.79 6.88167 193.323 8.165C191.856 9.41167 191.123 11.0617 191.123 13.115V29.34ZM197.118 28.625V13.83C197.118 13.1333 197.393 12.5467 197.943 12.07C198.493 11.5567 199.758 11.3 201.738 11.3C203.718 11.3 204.983 11.5567 205.533 12.07C206.083 12.5467 206.358 13.1333 206.358 13.83V28.625C206.358 29.3583 206.083 29.9817 205.533 30.495C204.983 30.9717 203.718 31.21 201.738 31.21C199.758 31.21 198.493 30.9717 197.943 30.495C197.393 29.9817 197.118 29.3583 197.118 28.625ZM197.668 28.625C197.668 28.9917 197.741 29.3217 197.888 29.615C198.035 29.8717 198.31 30.0917 198.713 30.275V19.825C198.713 19.4583 198.64 19.1467 198.493 18.89C198.346 18.5967 198.071 18.3767 197.668 18.23V28.625ZM250.628 19.825C251.288 19.825 251.765 19.6783 252.058 19.385C252.352 19.0917 252.81 18.4683 253.433 17.515L260.143 7.285C260.363 6.91833 260.602 6.68 260.858 6.57C261.152 6.42333 261.445 6.35 261.738 6.35H262.673C263.187 6.35 263.553 6.49666 263.773 6.79C264.03 7.04667 264.158 7.46833 264.158 8.055V36.05H263.608V8.055C263.608 7.76166 263.535 7.505 263.388 7.285C263.278 7.02833 263.04 6.9 262.673 6.9H261.848C261.592 6.9 261.372 6.93667 261.188 7.01C261.005 7.08333 260.803 7.30333 260.583 7.67L253.873 17.79C253.213 18.78 252.7 19.4583 252.333 19.825C252.003 20.1917 251.435 20.375 250.628 20.375C249.822 20.375 249.235 20.1917 248.868 19.825C248.538 19.4583 248.043 18.78 247.383 17.79L240.673 7.67C240.453 7.30333 240.233 7.08333 240.013 7.01C239.83 6.93667 239.61 6.9 239.353 6.9H238.528C238.162 6.9 237.923 7.02833 237.813 7.285C237.703 7.505 237.648 7.76166 237.648 8.055V36.05H237.098V8.055C237.098 7.46833 237.208 7.04667 237.428 6.79C237.685 6.49666 238.052 6.35 238.528 6.35H239.463C239.757 6.35 240.05 6.42333 240.343 6.57C240.637 6.68 240.893 6.91833 241.113 7.285L247.823 17.515C248.447 18.4683 248.905 19.0917 249.198 19.385C249.492 19.6783 249.968 19.825 250.628 19.825ZM241.443 41C242.14 41 242.635 40.8533 242.928 40.56C243.258 40.23 243.423 39.7167 243.423 39.02V19.66L246.668 25.655C246.998 26.2783 247.383 26.7367 247.823 27.03C248.3 27.2867 248.887 27.415 249.583 27.415H251.783C252.48 27.415 253.048 27.2867 253.488 27.03C253.965 26.7367 254.368 26.2783 254.698 25.655L257.943 19.66V39.02C257.943 39.7167 258.09 40.23 258.383 40.56C258.713 40.8533 259.227 41 259.923 41H268.393C269.09 41 269.585 40.8533 269.878 40.56C270.208 40.23 270.373 39.7167 270.373 39.02V3.38C270.373 2.68333 270.208 2.18833 269.878 1.895C269.585 1.565 269.09 1.4 268.393 1.4H259.483C258.897 1.4 258.402 1.52833 257.998 1.785C257.632 2.04166 257.283 2.46333 256.953 3.05L252.058 12.015C251.875 12.345 251.71 12.5833 251.563 12.73C251.453 12.8767 251.288 12.95 251.068 12.95H250.573C250.353 12.95 250.17 12.8767 250.023 12.73C249.913 12.5833 249.767 12.345 249.583 12.015L244.633 3.05C244.303 2.46333 243.937 2.04166 243.533 1.785C243.167 1.52833 242.69 1.4 242.103 1.4H233.248C232.552 1.4 232.038 1.565 231.708 1.895C231.415 2.18833 231.268 2.68333 231.268 3.38V39.02C231.268 39.7167 231.415 40.23 231.708 40.56C232.038 40.8533 232.552 41 233.248 41H241.443ZM243.203 41.055L236.053 46.995C235.907 47.1417 235.668 47.27 235.338 47.38C235.045 47.49 234.715 47.545 234.348 47.545H226.153C225.273 47.545 224.632 47.3433 224.228 46.94C223.825 46.5367 223.623 45.895 223.623 45.015V9.375C223.623 8.89833 223.678 8.495 223.788 8.165C223.935 7.835 224.137 7.56 224.393 7.34L231.488 1.345C231.672 1.19833 231.91 1.08833 232.203 1.015C232.533 0.904998 232.882 0.849999 233.248 0.849999H242.103C242.8 0.849999 243.368 0.996665 243.808 1.29C244.285 1.58333 244.725 2.07833 245.128 2.775L248.868 9.65L249.363 8.77C249.51 8.51333 249.657 8.275 249.803 8.055C249.987 7.79833 250.17 7.59667 250.353 7.45L257.448 1.51C257.742 1.29 258.035 1.125 258.328 1.015C258.658 0.904998 259.043 0.849999 259.483 0.849999H268.393C269.273 0.849999 269.915 1.05167 270.318 1.455C270.722 1.85833 270.923 2.5 270.923 3.38V39.02C270.923 39.4967 270.85 39.9 270.703 40.23C270.593 40.56 270.41 40.835 270.153 41.055L263.003 46.995C262.857 47.1417 262.618 47.27 262.288 47.38C261.995 47.49 261.665 47.545 261.298 47.545H252.828C251.912 47.545 251.252 47.3433 250.848 46.94C250.482 46.5367 250.298 45.895 250.298 45.015V30.495L247.053 33.19C246.76 33.4467 246.412 33.6483 246.008 33.795C245.642 33.905 245.202 33.96 244.688 33.96H243.973V39.02C243.973 39.4967 243.9 39.9 243.753 40.23C243.643 40.56 243.46 40.835 243.203 41.055ZM303.88 47.545H278.36C277.48 47.545 276.839 47.3433 276.435 46.94C276.032 46.5367 275.83 45.895 275.83 45.015V9.375C275.83 8.89833 275.885 8.495 275.995 8.165C276.142 7.835 276.344 7.56 276.6 7.34L283.695 1.345C283.879 1.19833 284.117 1.08833 284.41 1.015C284.74 0.904998 285.089 0.849999 285.455 0.849999H310.975C311.855 0.849999 312.497 1.05167 312.9 1.455C313.304 1.85833 313.505 2.5 313.505 3.38V9.815C313.505 10.2917 313.432 10.695 313.285 11.025C313.175 11.355 312.992 11.63 312.735 11.85L308.005 15.755C308.372 15.9383 308.629 16.2133 308.775 16.58C308.959 16.9467 309.05 17.4233 309.05 18.01V23.895C309.05 24.3717 308.977 24.775 308.83 25.105C308.72 25.435 308.537 25.71 308.28 25.93L303.385 30.055H310.975C311.855 30.055 312.497 30.2567 312.9 30.66C313.304 31.0633 313.505 31.705 313.505 32.585V39.02C313.505 39.4967 313.432 39.9 313.285 40.23C313.175 40.56 312.992 40.835 312.735 41.055L305.585 46.995C305.439 47.1417 305.2 47.27 304.87 47.38C304.577 47.49 304.247 47.545 303.88 47.545ZM310.975 41C311.672 41 312.167 40.8533 312.46 40.56C312.79 40.23 312.955 39.7167 312.955 39.02V32.585C312.955 31.8883 312.79 31.3933 312.46 31.1C312.167 30.77 311.672 30.605 310.975 30.605H295.795V25.875H306.52C307.217 25.875 307.712 25.7283 308.005 25.435C308.335 25.105 308.5 24.5917 308.5 23.895V18.01C308.5 17.3133 308.335 16.8183 308.005 16.525C307.712 16.195 307.217 16.03 306.52 16.03H295.795V11.795H310.975C311.672 11.795 312.167 11.6483 312.46 11.355C312.79 11.025 312.955 10.5117 312.955 9.815V3.38C312.955 2.68333 312.79 2.18833 312.46 1.895C312.167 1.565 311.672 1.4 310.975 1.4H285.455C284.759 1.4 284.245 1.565 283.915 1.895C283.622 2.18833 283.475 2.68333 283.475 3.38V39.02C283.475 39.7167 283.622 40.23 283.915 40.56C284.245 40.8533 284.759 41 285.455 41H310.975ZM308.005 35.5V36.05H289.47V6.35H308.005V6.9H290.02V20.705H303.55V21.255H290.02V35.5H308.005Z" fill="black"/>
</svg>
