<svg width="956" height="150" viewBox="0 0 956 150" fill="none" xmlns="http://www.w3.org/2000/svg">
<path d="M227 34C227 38.8 225.867 43 223.6 46.6C221.333 50.0667 218.467 52.7333 215 54.6C211.667 56.3333 208.4 57.2 205.2 57.2C202.133 57.2 199.2 56.4667 196.4 55C193.733 53.4 192 51.6 191.2 49.6L142.6 130.8C138.867 137.067 135.467 141.533 132.4 144.2C129.467 146.733 126.067 148 122.2 148C113.267 148 108.2 142.267 107 130.8L100.6 72L60.2 130.8C55.5333 137.6 51.7333 142.2 48.8 144.6C46 146.867 42.7333 148 39 148C30.8667 148 25.9333 141.6 24.2 128.8L11.4 38.4C11 35.7333 10.2 33.6 9 32C7.93333 30.4 6.53333 28.8667 4.8 27.4C3.6 26.3333 2.73333 25.4667 2.2 24.8C1.66667 24 1.4 23.1333 1.4 22.2C0.733335 17.2667 3.66667 14.8 10.2 14.8H60C63.0667 14.8 65.3333 15.4667 66.8 16.8C68.4 18 69.1333 19.6667 69 21.8C69 22.8667 68.6667 23.9333 68 25C67.4667 25.9333 66.8667 26.8 66.2 27.6C64.7333 29.2 63.6667 30.7333 63 32.2C62.3333 33.6667 62.1333 35.6 62.4 38L67.6 86.2L97.6 43.2L97 38.4C96.7333 35.8667 96.0667 33.8 95 32.2C93.9333 30.6 92.4667 29.0667 90.6 27.6C89.2667 26.4 88.3333 25.4667 87.8 24.8C87.2667 24 87 23.1333 87 22.2C86.3333 17.2667 89.2667 14.8 95.8 14.8H145.8C148.867 14.8 151.2 15.4667 152.8 16.8C154.4 18 155.133 19.6667 155 21.8C155 23.5333 154.067 25.4667 152.2 27.6C150.867 29.2 149.867 30.7333 149.2 32.2C148.533 33.6667 148.267 35.6 148.4 38L150.8 81.6L177.8 34.4C182.2 26.8 186.467 21.5333 190.6 18.6C194.733 15.5333 200.133 14 206.8 14C212.8 14 217.667 15.8 221.4 19.4C225.133 23 227 27.8667 227 34ZM272.511 41.2C289.444 41.2 301.711 43.9333 309.311 49.4C316.911 54.7333 320.711 61.6 320.711 70C320.711 72.5333 320.444 74.8667 319.911 77C317.911 85.8 312.311 92.1333 303.111 96C294.044 99.7333 283.311 101.6 270.911 101.6C264.644 101.6 258.778 101.2 253.311 100.4C253.178 107.333 255.044 112.2 258.911 115C262.778 117.8 268.178 119.2 275.111 119.2C278.311 119.2 281.378 118.867 284.311 118.2C287.244 117.4 290.978 116.267 295.511 114.8C299.244 113.467 301.778 112.8 303.111 112.8C304.578 112.8 305.311 113.667 305.311 115.4C305.444 120.067 303.711 125 300.111 130.2C296.511 135.267 291.178 139.6 284.111 143.2C277.044 146.8 268.511 148.6 258.511 148.6C243.711 148.6 231.578 144.867 222.111 137.4C212.644 129.933 207.911 119.067 207.911 104.8C207.911 100.8 208.444 96.1333 209.511 90.8C212.844 74.4 220.111 62.0667 231.311 53.8C242.644 45.4 256.378 41.2 272.511 41.2ZM254.711 88.4C255.244 88.5333 255.978 88.6 256.911 88.6C262.511 88.6 266.778 86 269.711 80.8C272.644 75.6 274.044 69.8 273.911 63.4C273.778 59.6667 272.711 57.8 270.711 57.8C269.244 57.8 267.511 59 265.511 61.4C263.511 63.6667 261.511 67.1333 259.511 71.8C257.644 76.4667 256.044 82 254.711 88.4ZM380.425 0.199996C388.158 0.199996 393.825 1.66666 397.425 4.6C401.158 7.53333 403.025 11.5333 403.025 16.6C403.025 19.5333 402.558 22.4 401.625 25.2L370.225 127.2C369.825 128.8 369.625 130.2 369.625 131.4C369.625 133.133 369.958 134.533 370.625 135.6C371.292 136.533 372.225 137.467 373.425 138.4C374.358 139.333 375.025 140.133 375.425 140.8C375.825 141.333 375.892 142.067 375.625 143C374.958 144.733 373.625 146 371.625 146.8C369.625 147.6 366.558 148 362.425 148H316.825C313.358 148 310.825 147.467 309.225 146.4C307.625 145.2 307.092 143.667 307.625 141.8C308.158 140.2 309.558 138.8 311.825 137.6C313.825 136.533 315.492 135.267 316.825 133.8C318.158 132.333 319.292 130 320.225 126.8L350.625 27C351.025 25.8 351.225 24.8 351.225 24C351.225 22.5333 350.825 21.3333 350.025 20.4C349.358 19.4667 348.425 18.5333 347.225 17.6C345.892 16.5333 344.892 15.6 344.225 14.8C343.692 14 343.625 12.9333 344.025 11.6C344.825 8.53332 349.025 5.86666 356.625 3.59999C364.225 1.33333 372.158 0.199996 380.425 0.199996ZM462.467 41.2C470.601 41.2 477.734 42.4 483.867 44.8C490.001 47.0667 494.734 50.2667 498.067 54.4C501.534 58.4 503.267 62.8667 503.267 67.8C503.267 73.1333 501.401 77.5333 497.667 81C494.067 84.4667 489.134 86.2 482.867 86.2C476.467 86.2 471.467 84.6 467.867 81.4C464.267 78.0667 462.467 73.6 462.467 68C462.467 65.3333 462.867 62.5333 463.667 59.6C458.067 61.0667 453.067 64 448.667 68.4C444.401 72.6667 441.534 78.3333 440.067 85.4C439.267 89.4 438.867 93 438.867 96.2C438.867 103.4 440.867 108.867 444.867 112.6C448.867 116.333 454.601 118.2 462.067 118.2C466.334 118.2 470.001 117.8 473.067 117C476.134 116.067 479.267 114.867 482.467 113.4C485.134 112.067 487.067 111.4 488.267 111.4C489.067 111.4 489.601 111.6 489.867 112C490.134 112.267 490.267 112.933 490.267 114C490.401 118.933 488.334 124.133 484.067 129.6C479.934 134.933 474.134 139.467 466.667 143.2C459.334 146.8 451.067 148.6 441.867 148.6C432.267 148.6 423.734 146.867 416.267 143.4C408.934 139.8 403.201 134.733 399.067 128.2C395.067 121.533 393.067 113.8 393.067 105C393.067 100.867 393.601 96.2667 394.667 91.2C398.267 74.6667 406.201 62.2 418.467 53.8C430.867 45.4 445.534 41.2 462.467 41.2ZM575.666 42.2C593.799 42.2 607.132 45.8667 615.666 53.2C624.332 60.5333 628.666 70.1333 628.666 82C628.666 86 628.132 90.4667 627.066 95.4C624.532 106.333 619.799 115.933 612.866 124.2C605.932 132.333 597.399 138.667 587.266 143.2C577.266 147.6 566.399 149.8 554.666 149.8C536.132 149.8 522.399 146.133 513.466 138.8C504.666 131.333 500.266 121.467 500.266 109.2C500.266 105.067 500.799 100.467 501.866 95.4C504.399 85 509.199 75.8 516.266 67.8C523.466 59.6667 532.199 53.4 542.466 49C552.866 44.4667 563.932 42.2 575.666 42.2ZM575.066 60C572.266 60 569.266 62.5333 566.066 67.6C562.999 72.5333 559.332 81.9333 555.066 95.8C550.799 109.667 548.666 119.4 548.666 125C548.666 127.933 549.132 129.933 550.066 131C550.999 131.933 552.266 132.4 553.866 132.4C556.666 132.667 559.532 130.267 562.466 125.2C565.532 120.133 569.332 110.267 573.866 95.6C577.999 82.6667 580.066 73.2667 580.066 67.4C580.066 64.6 579.599 62.6667 578.666 61.6C577.866 60.5333 576.666 60 575.066 60ZM819.716 120.4C819.449 120.933 819.316 121.733 819.316 122.8C819.316 123.733 819.516 124.467 819.916 125C820.449 125.533 821.116 125.8 821.916 125.8C823.516 125.8 824.849 125.133 825.916 123.8C827.116 122.333 827.916 121.6 828.316 121.6C828.982 121.6 829.516 122.067 829.916 123C830.316 123.8 830.516 124.8 830.516 126C830.649 129.867 829.382 133.667 826.716 137.4C824.049 141 820.116 144 814.916 146.4C809.849 148.667 803.716 149.8 796.516 149.8C787.716 149.8 780.716 147.8 775.516 143.8C770.316 139.667 767.649 134.2 767.516 127.4C767.516 122.467 768.716 116.933 771.116 110.8L782.116 82C782.782 80.2667 783.116 78.8667 783.116 77.8C783.116 76.0667 782.516 74.7333 781.316 73.8C780.249 72.7333 778.916 72.2 777.316 72.2C775.049 72.2 772.716 73.2 770.316 75.2C767.916 77.2 765.782 80.3333 763.916 84.6L752.916 120.4C752.649 120.933 752.516 121.733 752.516 122.8C752.516 123.733 752.716 124.467 753.116 125C753.649 125.533 754.316 125.8 755.116 125.8C756.716 125.8 758.049 125.133 759.116 123.8C760.316 122.333 761.116 121.6 761.516 121.6C762.182 121.6 762.716 122.067 763.116 123C763.516 123.8 763.716 124.8 763.716 126C763.849 129.867 762.582 133.667 759.916 137.4C757.249 141 753.316 144 748.116 146.4C743.049 148.667 736.916 149.8 729.716 149.8C720.916 149.8 713.916 147.8 708.716 143.8C703.516 139.667 700.849 134.2 700.716 127.4C700.716 122.467 701.916 116.933 704.316 110.8L715.316 82C715.982 80.2667 716.316 78.8667 716.316 77.8C716.316 76.0667 715.716 74.7333 714.516 73.8C713.449 72.7333 712.116 72.2 710.516 72.2C708.249 72.2 705.916 73.2 703.516 75.2C701.116 77.0667 699.116 80.1333 697.516 84.4L684.316 127.2C683.782 128.667 683.516 130.067 683.516 131.4C683.516 133 683.849 134.333 684.516 135.4C685.182 136.333 686.116 137.333 687.316 138.4C688.249 139.2 688.916 139.933 689.316 140.6C689.716 141.267 689.782 142.067 689.516 143C688.982 144.733 687.716 146 685.716 146.8C683.716 147.6 680.582 148 676.316 148H630.716C627.249 148 624.782 147.467 623.316 146.4C621.716 145.2 621.116 143.667 621.516 141.8C622.049 140.2 623.449 138.8 625.716 137.6C627.716 136.533 629.382 135.267 630.716 133.8C632.049 132.333 633.182 130 634.116 126.8L651.916 69C652.182 68.3333 652.316 67.4 652.316 66.2C652.316 64.7333 651.982 63.6 651.316 62.8C650.782 62 649.849 61 648.516 59.8C647.182 58.7333 646.249 57.8 645.716 57C645.182 56.2 645.116 55.1333 645.516 53.8C646.316 50.7333 650.516 48.0667 658.116 45.8C665.716 43.4 673.649 42.2 681.916 42.2C688.449 42.2 693.582 44 697.316 47.6C701.182 51.2 703.049 56.1333 702.916 62.4C708.382 54.8 714.116 49.5333 720.116 46.6C726.249 43.6667 732.849 42.2 739.916 42.2C747.649 42.2 753.916 44.4667 758.716 49C763.649 53.4 766.382 59.2 766.916 66.4C772.649 57.3333 778.782 51.0667 785.316 47.6C791.849 44 798.982 42.2 806.716 42.2C814.849 42.2 821.382 44.6667 826.316 49.6C831.382 54.5333 833.916 60.9333 833.916 68.8C833.916 72.9333 833.249 77 831.916 81L819.716 120.4ZM906.886 41.2C923.819 41.2 936.086 43.9333 943.686 49.4C951.286 54.7333 955.086 61.6 955.086 70C955.086 72.5333 954.819 74.8667 954.286 77C952.286 85.8 946.686 92.1333 937.486 96C928.419 99.7333 917.686 101.6 905.286 101.6C899.019 101.6 893.153 101.2 887.686 100.4C887.553 107.333 889.419 112.2 893.286 115C897.153 117.8 902.553 119.2 909.486 119.2C912.686 119.2 915.753 118.867 918.686 118.2C921.619 117.4 925.353 116.267 929.886 114.8C933.619 113.467 936.153 112.8 937.486 112.8C938.953 112.8 939.686 113.667 939.686 115.4C939.819 120.067 938.086 125 934.486 130.2C930.886 135.267 925.553 139.6 918.486 143.2C911.419 146.8 902.886 148.6 892.886 148.6C878.086 148.6 865.953 144.867 856.486 137.4C847.019 129.933 842.286 119.067 842.286 104.8C842.286 100.8 842.819 96.1333 843.886 90.8C847.219 74.4 854.486 62.0667 865.686 53.8C877.019 45.4 890.753 41.2 906.886 41.2ZM889.086 88.4C889.619 88.5333 890.353 88.6 891.286 88.6C896.886 88.6 901.153 86 904.086 80.8C907.019 75.6 908.419 69.8 908.286 63.4C908.153 59.6667 907.086 57.8 905.086 57.8C903.619 57.8 901.886 59 899.886 61.4C897.886 63.6667 895.886 67.1333 893.886 71.8C892.019 76.4667 890.419 82 889.086 88.4Z" fill="black"/>
</svg>
