<?xml version="1.0" standalone="no"?>
<!DOCTYPE svg PUBLIC "-//W3C//DTD SVG 1.1//EN"
   "http://www.w3.org/Graphics/SVG/1.1/DTD/svg11.dtd">
<svg width="444" height="118" version="1.1"
   xmlns="http://www.w3.org/2000/svg">
   <desc>Hope we meet soon
   </desc>

   <g id="barcode" fill="#000000">
      <rect x="0" y="0" width="444" height="118" fill="#FFFFFF" />
      <rect x="0.00" y="0.00" width="4.00" height="100.00" />
      <rect x="6.00" y="0.00" width="2.00" height="100.00" />
      <rect x="12.00" y="0.00" width="2.00" height="100.00" />
      <rect x="22.00" y="0.00" width="4.00" height="100.00" />
      <rect x="32.00" y="0.00" width="2.00" height="100.00" />
      <rect x="36.00" y="0.00" width="2.00" height="100.00" />
      <rect x="44.00" y="0.00" width="2.00" height="100.00" />
      <rect x="52.00" y="0.00" width="8.00" height="100.00" />
      <rect x="62.00" y="0.00" width="2.00" height="100.00" />
      <rect x="66.00" y="0.00" width="2.00" height="100.00" />
      <rect x="70.00" y="0.00" width="2.00" height="100.00" />
      <rect x="76.00" y="0.00" width="8.00" height="100.00" />
      <rect x="88.00" y="0.00" width="2.00" height="100.00" />
      <rect x="92.00" y="0.00" width="4.00" height="100.00" />
      <rect x="100.00" y="0.00" width="2.00" height="100.00" />
      <rect x="110.00" y="0.00" width="4.00" height="100.00" />
      <rect x="116.00" y="0.00" width="4.00" height="100.00" />
      <rect x="124.00" y="0.00" width="4.00" height="100.00" />
      <rect x="132.00" y="0.00" width="8.00" height="100.00" />
      <rect x="144.00" y="0.00" width="2.00" height="100.00" />
      <rect x="148.00" y="0.00" width="2.00" height="100.00" />
      <rect x="154.00" y="0.00" width="2.00" height="100.00" />
      <rect x="158.00" y="0.00" width="4.00" height="100.00" />
      <rect x="166.00" y="0.00" width="2.00" height="100.00" />
      <rect x="176.00" y="0.00" width="4.00" height="100.00" />
      <rect x="182.00" y="0.00" width="4.00" height="100.00" />
      <rect x="190.00" y="0.00" width="4.00" height="100.00" />
      <rect x="198.00" y="0.00" width="8.00" height="100.00" />
      <rect x="208.00" y="0.00" width="6.00" height="100.00" />
      <rect x="216.00" y="0.00" width="2.00" height="100.00" />
      <rect x="220.00" y="0.00" width="2.00" height="100.00" />
      <rect x="224.00" y="0.00" width="4.00" height="100.00" />
      <rect x="232.00" y="0.00" width="2.00" height="100.00" />
      <rect x="242.00" y="0.00" width="2.00" height="100.00" />
      <rect x="246.00" y="0.00" width="4.00" height="100.00" />
      <rect x="254.00" y="0.00" width="2.00" height="100.00" />
      <rect x="264.00" y="0.00" width="2.00" height="100.00" />
      <rect x="270.00" y="0.00" width="8.00" height="100.00" />
      <rect x="280.00" y="0.00" width="2.00" height="100.00" />
      <rect x="286.00" y="0.00" width="4.00" height="100.00" />
      <rect x="292.00" y="0.00" width="4.00" height="100.00" />
      <rect x="300.00" y="0.00" width="4.00" height="100.00" />
      <rect x="308.00" y="0.00" width="2.00" height="100.00" />
      <rect x="312.00" y="0.00" width="8.00" height="100.00" />
      <rect x="324.00" y="0.00" width="2.00" height="100.00" />
      <rect x="330.00" y="0.00" width="2.00" height="100.00" />
      <rect x="338.00" y="0.00" width="8.00" height="100.00" />
      <rect x="348.00" y="0.00" width="2.00" height="100.00" />
      <rect x="352.00" y="0.00" width="2.00" height="100.00" />
      <rect x="360.00" y="0.00" width="8.00" height="100.00" />
      <rect x="370.00" y="0.00" width="2.00" height="100.00" />
      <rect x="374.00" y="0.00" width="4.00" height="100.00" />
      <rect x="386.00" y="0.00" width="2.00" height="100.00" />
      <rect x="390.00" y="0.00" width="2.00" height="100.00" />
      <rect x="396.00" y="0.00" width="4.00" height="100.00" />
      <rect x="404.00" y="0.00" width="6.00" height="100.00" />
      <rect x="412.00" y="0.00" width="2.00" height="100.00" />
      <rect x="418.00" y="0.00" width="4.00" height="100.00" />
      <rect x="428.00" y="0.00" width="6.00" height="100.00" />
      <rect x="436.00" y="0.00" width="2.00" height="100.00" />
      <rect x="440.00" y="0.00" width="4.00" height="100.00" />
      <text x="222.00" y="118.00" text-anchor="middle"
         font-family="Helvetica" font-size="16.0" fill="#000000" >
         Hope we meet soon
      </text>
   </g>
</svg>
