<svg width="999" height="292" viewBox="0 0 999 292" fill="none" xmlns="http://www.w3.org/2000/svg">
<path d="M9 0H0V232.075H9V0Z" fill="black"/>
<path d="M18 0H13.5V232.075H18V0Z" fill="black"/>
<path d="M31.5 0H27V232.075H31.5V0Z" fill="black"/>
<path d="M58.5 0H49.5V232.075H58.5V0Z" fill="black"/>
<path d="M76.5 0H72V232.075H76.5V0Z" fill="black"/>
<path d="M85.5 0H81V232.075H85.5V0Z" fill="black"/>
<path d="M103.5 0H99V232.075H103.5V0Z" fill="black"/>
<path d="M135 0H117V232.075H135V0Z" fill="black"/>
<path d="M144 0H139.5V232.075H144V0Z" fill="black"/>
<path d="M153 0H148.5V232.075H153V0Z" fill="black"/>
<path d="M162 0H157.5V232.075H162V0Z" fill="black"/>
<path d="M189 0H171V232.075H189V0Z" fill="black"/>
<path d="M202.5 0H198V232.075H202.5V0Z" fill="black"/>
<path d="M216 0H207V232.075H216V0Z" fill="black"/>
<path d="M229.5 0H225V232.075H229.5V0Z" fill="black"/>
<path d="M256.5 0H247.5V232.075H256.5V0Z" fill="black"/>
<path d="M270 0H261V232.075H270V0Z" fill="black"/>
<path d="M288 0H279V232.075H288V0Z" fill="black"/>
<path d="M315 0H297V232.075H315V0Z" fill="black"/>
<path d="M328.5 0H324V232.075H328.5V0Z" fill="black"/>
<path d="M337.5 0H333V232.075H337.5V0Z" fill="black"/>
<path d="M351 0H346.5V232.075H351V0Z" fill="black"/>
<path d="M364.5 0H355.5V232.075H364.5V0Z" fill="black"/>
<path d="M378 0H373.5V232.075H378V0Z" fill="black"/>
<path d="M405 0H396V232.075H405V0Z" fill="black"/>
<path d="M418.5 0H409.5V232.075H418.5V0Z" fill="black"/>
<path d="M436.5 0H427.5V232.075H436.5V0Z" fill="black"/>
<path d="M463.5 0H445.5V232.075H463.5V0Z" fill="black"/>
<path d="M481.5 0H468V232.075H481.5V0Z" fill="black"/>
<path d="M490.5 0H486V232.075H490.5V0Z" fill="black"/>
<path d="M499.5 0H495V232.075H499.5V0Z" fill="black"/>
<path d="M513 0H504V232.075H513V0Z" fill="black"/>
<path d="M526.5 0H522V232.075H526.5V0Z" fill="black"/>
<path d="M549 0H544.5V232.075H549V0Z" fill="black"/>
<path d="M562.5 0H553.5V232.075H562.5V0Z" fill="black"/>
<path d="M576 0H571.5V232.075H576V0Z" fill="black"/>
<path d="M598.5 0H594V232.075H598.5V0Z" fill="black"/>
<path d="M625.5 0H607.5V232.075H625.5V0Z" fill="black"/>
<path d="M634.5 0H630V232.075H634.5V0Z" fill="black"/>
<path d="M652.5 0H643.5V232.075H652.5V0Z" fill="black"/>
<path d="M666 0H657V232.075H666V0Z" fill="black"/>
<path d="M684 0H675V232.075H684V0Z" fill="black"/>
<path d="M697.5 0H693V232.075H697.5V0Z" fill="black"/>
<path d="M720 0H702V232.075H720V0Z" fill="black"/>
<path d="M733.5 0H729V232.075H733.5V0Z" fill="black"/>
<path d="M747 0H742.5V232.075H747V0Z" fill="black"/>
<path d="M778.5 0H760.5V232.075H778.5V0Z" fill="black"/>
<path d="M787.5 0H783V232.075H787.5V0Z" fill="black"/>
<path d="M796.5 0H792V232.075H796.5V0Z" fill="black"/>
<path d="M828 0H810V232.075H828V0Z" fill="black"/>
<path d="M837 0H832.5V232.075H837V0Z" fill="black"/>
<path d="M850.5 0H841.5V232.075H850.5V0Z" fill="black"/>
<path d="M873 0H868.5V232.075H873V0Z" fill="black"/>
<path d="M882 0H877.5V232.075H882V0Z" fill="black"/>
<path d="M900 0H891V232.075H900V0Z" fill="black"/>
<path d="M922.5 0H909V232.075H922.5V0Z" fill="black"/>
<path d="M931.5 0H927V232.075H931.5V0Z" fill="black"/>
<path d="M949.5 0H940.5V232.075H949.5V0Z" fill="black"/>
<path d="M976.5 0H963V232.075H976.5V0Z" fill="black"/>
<path d="M985.5 0H981V232.075H985.5V0Z" fill="black"/>
<path d="M999 0H990V232.075H999V0Z" fill="black"/>
<path d="M459.703 274V264.545H460.848V268.756H465.89V264.545H467.034V274H465.89V269.771H460.848V274H459.703ZM472.059 274.148C471.419 274.148 470.858 273.995 470.374 273.691C469.894 273.386 469.519 272.96 469.248 272.412C468.98 271.864 468.846 271.224 468.846 270.491C468.846 269.753 468.98 269.108 469.248 268.557C469.519 268.006 469.894 267.578 470.374 267.274C470.858 266.969 471.419 266.817 472.059 266.817C472.7 266.817 473.26 266.969 473.74 267.274C474.223 267.578 474.599 268.006 474.866 268.557C475.137 269.108 475.273 269.753 475.273 270.491C475.273 271.224 475.137 271.864 474.866 272.412C474.599 272.96 474.223 273.386 473.74 273.691C473.26 273.995 472.7 274.148 472.059 274.148ZM472.059 273.169C472.546 273.169 472.946 273.044 473.26 272.795C473.574 272.546 473.806 272.218 473.957 271.812C474.108 271.406 474.183 270.965 474.183 270.491C474.183 270.018 474.108 269.576 473.957 269.167C473.806 268.757 473.574 268.426 473.26 268.174C472.946 267.922 472.546 267.795 472.059 267.795C471.573 267.795 471.173 267.922 470.859 268.174C470.545 268.426 470.313 268.757 470.162 269.167C470.011 269.576 469.936 270.018 469.936 270.491C469.936 270.965 470.011 271.406 470.162 271.812C470.313 272.218 470.545 272.546 470.859 272.795C471.173 273.044 471.573 273.169 472.059 273.169ZM476.936 276.659V266.909H477.988V268.036H478.117C478.197 267.912 478.308 267.755 478.45 267.565C478.594 267.371 478.801 267.198 479.068 267.048C479.339 266.894 479.706 266.817 480.167 266.817C480.764 266.817 481.291 266.966 481.746 267.265C482.201 267.563 482.557 267.986 482.812 268.534C483.068 269.082 483.196 269.728 483.196 270.473C483.196 271.224 483.068 271.875 482.812 272.426C482.557 272.974 482.203 273.398 481.751 273.7C481.298 273.998 480.777 274.148 480.186 274.148C479.73 274.148 479.365 274.072 479.092 273.922C478.818 273.768 478.607 273.594 478.459 273.4C478.311 273.203 478.197 273.04 478.117 272.911H478.025V276.659H476.936ZM478.007 270.455C478.007 270.99 478.085 271.462 478.242 271.872C478.399 272.278 478.628 272.597 478.93 272.827C479.232 273.055 479.601 273.169 480.038 273.169C480.493 273.169 480.873 273.049 481.178 272.809C481.486 272.566 481.717 272.24 481.871 271.83C482.028 271.418 482.106 270.959 482.106 270.455C482.106 269.956 482.029 269.507 481.875 269.107C481.724 268.703 481.495 268.385 481.187 268.151C480.883 267.914 480.5 267.795 480.038 267.795C479.595 267.795 479.222 267.908 478.921 268.132C478.619 268.354 478.391 268.665 478.237 269.065C478.084 269.462 478.007 269.925 478.007 270.455ZM487.831 274.148C487.147 274.148 486.558 273.997 486.062 273.695C485.57 273.391 485.19 272.966 484.922 272.421C484.657 271.873 484.525 271.236 484.525 270.51C484.525 269.784 484.657 269.143 484.922 268.589C485.19 268.032 485.562 267.598 486.039 267.288C486.519 266.974 487.08 266.817 487.72 266.817C488.089 266.817 488.454 266.878 488.814 267.001C489.174 267.125 489.502 267.325 489.797 267.602C490.093 267.875 490.328 268.239 490.503 268.691C490.679 269.143 490.767 269.701 490.767 270.362V270.824H485.301V269.882H489.659C489.659 269.482 489.579 269.125 489.419 268.811C489.262 268.497 489.037 268.249 488.745 268.068C488.455 267.886 488.114 267.795 487.72 267.795C487.286 267.795 486.91 267.903 486.593 268.119C486.279 268.331 486.038 268.608 485.869 268.95C485.699 269.291 485.615 269.657 485.615 270.048V270.676C485.615 271.212 485.707 271.666 485.892 272.038C486.079 272.407 486.339 272.689 486.672 272.883C487.004 273.074 487.39 273.169 487.831 273.169C488.117 273.169 488.375 273.129 488.606 273.049C488.84 272.966 489.042 272.843 489.211 272.68C489.38 272.513 489.511 272.307 489.603 272.061L490.656 272.357C490.545 272.714 490.359 273.027 490.097 273.298C489.836 273.566 489.512 273.775 489.128 273.926C488.743 274.074 488.311 274.148 487.831 274.148ZM497.687 274L495.526 266.909H496.671L498.204 272.338H498.278L499.792 266.909H500.955L502.451 272.32H502.525L504.057 266.909H505.202L503.042 274H501.971L500.42 268.553H500.309L498.758 274H497.687ZM509.374 274.148C508.691 274.148 508.102 273.997 507.606 273.695C507.114 273.391 506.734 272.966 506.466 272.421C506.201 271.873 506.069 271.236 506.069 270.51C506.069 269.784 506.201 269.143 506.466 268.589C506.734 268.032 507.106 267.598 507.583 267.288C508.063 266.974 508.624 266.817 509.264 266.817C509.633 266.817 509.998 266.878 510.358 267.001C510.718 267.125 511.046 267.325 511.341 267.602C511.637 267.875 511.872 268.239 512.047 268.691C512.223 269.143 512.311 269.701 512.311 270.362V270.824H506.845V269.882H511.203C511.203 269.482 511.123 269.125 510.963 268.811C510.806 268.497 510.581 268.249 510.289 268.068C509.999 267.886 509.658 267.795 509.264 267.795C508.83 267.795 508.454 267.903 508.137 268.119C507.823 268.331 507.582 268.608 507.412 268.95C507.243 269.291 507.159 269.657 507.159 270.048V270.676C507.159 271.212 507.251 271.666 507.436 272.038C507.623 272.407 507.883 272.689 508.216 272.883C508.548 273.074 508.934 273.169 509.374 273.169C509.661 273.169 509.919 273.129 510.15 273.049C510.384 272.966 510.586 272.843 510.755 272.68C510.924 272.513 511.055 272.307 511.147 272.061L512.2 272.357C512.089 272.714 511.903 273.027 511.641 273.298C511.38 273.566 511.056 273.775 510.672 273.926C510.287 274.074 509.855 274.148 509.374 274.148ZM517.624 274V266.909H518.677V268.017H518.769C518.917 267.638 519.155 267.345 519.485 267.135C519.814 266.923 520.209 266.817 520.671 266.817C521.139 266.817 521.528 266.923 521.839 267.135C522.153 267.345 522.398 267.638 522.573 268.017H522.647C522.828 267.651 523.101 267.36 523.464 267.145C523.827 266.926 524.263 266.817 524.77 266.817C525.404 266.817 525.923 267.015 526.326 267.412C526.729 267.806 526.931 268.42 526.931 269.254V274H525.841V269.254C525.841 268.731 525.698 268.357 525.412 268.132C525.126 267.908 524.789 267.795 524.401 267.795C523.903 267.795 523.516 267.946 523.242 268.248C522.968 268.546 522.831 268.925 522.831 269.384V274H521.724V269.143C521.724 268.74 521.593 268.416 521.331 268.169C521.07 267.92 520.733 267.795 520.32 267.795C520.037 267.795 519.772 267.871 519.526 268.022C519.283 268.172 519.086 268.382 518.935 268.65C518.787 268.914 518.714 269.22 518.714 269.568V274H517.624ZM531.896 274.148C531.213 274.148 530.623 273.997 530.128 273.695C529.635 273.391 529.255 272.966 528.988 272.421C528.723 271.873 528.591 271.236 528.591 270.51C528.591 269.784 528.723 269.143 528.988 268.589C529.255 268.032 529.628 267.598 530.105 267.288C530.585 266.974 531.145 266.817 531.785 266.817C532.154 266.817 532.519 266.878 532.879 267.001C533.239 267.125 533.567 267.325 533.863 267.602C534.158 267.875 534.393 268.239 534.569 268.691C534.744 269.143 534.832 269.701 534.832 270.362V270.824H529.366V269.882H533.724C533.724 269.482 533.644 269.125 533.484 268.811C533.327 268.497 533.102 268.249 532.81 268.068C532.521 267.886 532.179 267.795 531.785 267.795C531.351 267.795 530.976 267.903 530.659 268.119C530.345 268.331 530.103 268.608 529.934 268.95C529.765 269.291 529.68 269.657 529.68 270.048V270.676C529.68 271.212 529.772 271.666 529.957 272.038C530.145 272.407 530.405 272.689 530.737 272.883C531.07 273.074 531.456 273.169 531.896 273.169C532.182 273.169 532.441 273.129 532.672 273.049C532.905 272.966 533.107 272.843 533.276 272.68C533.446 272.513 533.576 272.307 533.669 272.061L534.721 272.357C534.61 272.714 534.424 273.027 534.163 273.298C533.901 273.566 533.578 273.775 533.193 273.926C532.808 274.074 532.376 274.148 531.896 274.148ZM539.462 274.148C538.779 274.148 538.19 273.997 537.694 273.695C537.202 273.391 536.822 272.966 536.554 272.421C536.289 271.873 536.157 271.236 536.157 270.51C536.157 269.784 536.289 269.143 536.554 268.589C536.822 268.032 537.194 267.598 537.671 267.288C538.151 266.974 538.711 266.817 539.352 266.817C539.721 266.817 540.086 266.878 540.446 267.001C540.806 267.125 541.134 267.325 541.429 267.602C541.724 267.875 541.96 268.239 542.135 268.691C542.311 269.143 542.398 269.701 542.398 270.362V270.824H536.933V269.882H541.29C541.29 269.482 541.21 269.125 541.05 268.811C540.893 268.497 540.669 268.249 540.376 268.068C540.087 267.886 539.746 267.795 539.352 267.795C538.918 267.795 538.542 267.903 538.225 268.119C537.911 268.331 537.67 268.608 537.5 268.95C537.331 269.291 537.246 269.657 537.246 270.048V270.676C537.246 271.212 537.339 271.666 537.523 272.038C537.711 272.407 537.971 272.689 538.304 272.883C538.636 273.074 539.022 273.169 539.462 273.169C539.749 273.169 540.007 273.129 540.238 273.049C540.472 272.966 540.673 272.843 540.843 272.68C541.012 272.513 541.143 272.307 541.235 272.061L542.288 272.357C542.177 272.714 541.991 273.027 541.729 273.298C541.467 273.566 541.144 273.775 540.76 273.926C540.375 274.074 539.942 274.148 539.462 274.148ZM547.14 266.909V267.832H543.465V266.909H547.14ZM544.536 265.21H545.625V271.969C545.625 272.277 545.67 272.507 545.759 272.661C545.852 272.812 545.969 272.914 546.11 272.966C546.255 273.015 546.407 273.04 546.567 273.04C546.687 273.04 546.786 273.034 546.863 273.021C546.94 273.006 547.001 272.994 547.047 272.984L547.269 273.963C547.195 273.991 547.092 274.018 546.96 274.046C546.827 274.077 546.659 274.092 546.456 274.092C546.149 274.092 545.847 274.026 545.551 273.894C545.259 273.761 545.016 273.56 544.822 273.289C544.631 273.018 544.536 272.677 544.536 272.264V265.21ZM557.457 268.497L556.479 268.774C556.417 268.611 556.326 268.453 556.206 268.299C556.089 268.142 555.929 268.012 555.726 267.911C555.523 267.809 555.263 267.759 554.946 267.759C554.512 267.759 554.15 267.859 553.861 268.059C553.575 268.256 553.432 268.506 553.432 268.811C553.432 269.082 553.53 269.296 553.727 269.453C553.924 269.61 554.232 269.741 554.651 269.845L555.703 270.104C556.337 270.258 556.81 270.493 557.12 270.81C557.431 271.124 557.587 271.529 557.587 272.024C557.587 272.43 557.47 272.794 557.236 273.114C557.005 273.434 556.682 273.686 556.266 273.871C555.851 274.055 555.368 274.148 554.817 274.148C554.094 274.148 553.495 273.991 553.021 273.677C552.547 273.363 552.247 272.904 552.121 272.301L553.155 272.043C553.253 272.424 553.44 272.71 553.713 272.901C553.99 273.092 554.352 273.188 554.798 273.188C555.306 273.188 555.709 273.08 556.008 272.864C556.309 272.646 556.46 272.384 556.46 272.08C556.46 271.833 556.374 271.627 556.202 271.461C556.029 271.292 555.765 271.165 555.408 271.082L554.226 270.805C553.576 270.652 553.099 270.413 552.795 270.09C552.493 269.764 552.342 269.356 552.342 268.866C552.342 268.466 552.455 268.112 552.679 267.805C552.907 267.497 553.216 267.255 553.607 267.08C554.001 266.904 554.447 266.817 554.946 266.817C555.648 266.817 556.199 266.971 556.599 267.278C557.002 267.586 557.288 267.992 557.457 268.497ZM562.107 274.148C561.467 274.148 560.906 273.995 560.422 273.691C559.942 273.386 559.567 272.96 559.296 272.412C559.028 271.864 558.894 271.224 558.894 270.491C558.894 269.753 559.028 269.108 559.296 268.557C559.567 268.006 559.942 267.578 560.422 267.274C560.906 266.969 561.467 266.817 562.107 266.817C562.747 266.817 563.308 266.969 563.788 267.274C564.271 267.578 564.646 268.006 564.914 268.557C565.185 269.108 565.32 269.753 565.32 270.491C565.32 271.224 565.185 271.864 564.914 272.412C564.646 272.96 564.271 273.386 563.788 273.691C563.308 273.995 562.747 274.148 562.107 274.148ZM562.107 273.169C562.594 273.169 562.994 273.044 563.308 272.795C563.622 272.546 563.854 272.218 564.005 271.812C564.156 271.406 564.231 270.965 564.231 270.491C564.231 270.018 564.156 269.576 564.005 269.167C563.854 268.757 563.622 268.426 563.308 268.174C562.994 267.922 562.594 267.795 562.107 267.795C561.621 267.795 561.221 267.922 560.907 268.174C560.593 268.426 560.361 268.757 560.21 269.167C560.059 269.576 559.984 270.018 559.984 270.491C559.984 270.965 560.059 271.406 560.21 271.812C560.361 272.218 560.593 272.546 560.907 272.795C561.221 273.044 561.621 273.169 562.107 273.169ZM569.864 274.148C569.224 274.148 568.662 273.995 568.179 273.691C567.699 273.386 567.324 272.96 567.053 272.412C566.785 271.864 566.651 271.224 566.651 270.491C566.651 269.753 566.785 269.108 567.053 268.557C567.324 268.006 567.699 267.578 568.179 267.274C568.662 266.969 569.224 266.817 569.864 266.817C570.504 266.817 571.064 266.969 571.545 267.274C572.028 267.578 572.403 268.006 572.671 268.557C572.942 269.108 573.077 269.753 573.077 270.491C573.077 271.224 572.942 271.864 572.671 272.412C572.403 272.96 572.028 273.386 571.545 273.691C571.064 273.995 570.504 274.148 569.864 274.148ZM569.864 273.169C570.35 273.169 570.751 273.044 571.064 272.795C571.378 272.546 571.611 272.218 571.762 271.812C571.912 271.406 571.988 270.965 571.988 270.491C571.988 270.018 571.912 269.576 571.762 269.167C571.611 268.757 571.378 268.426 571.064 268.174C570.751 267.922 570.35 267.795 569.864 267.795C569.378 267.795 568.978 267.922 568.664 268.174C568.35 268.426 568.118 268.757 567.967 269.167C567.816 269.576 567.741 270.018 567.741 270.491C567.741 270.965 567.816 271.406 567.967 271.812C568.118 272.218 568.35 272.546 568.664 272.795C568.978 273.044 569.378 273.169 569.864 273.169ZM575.83 269.734V274H574.74V266.909H575.793V268.017H575.885C576.051 267.657 576.304 267.368 576.642 267.149C576.981 266.928 577.418 266.817 577.953 266.817C578.434 266.817 578.854 266.915 579.214 267.112C579.574 267.306 579.854 267.602 580.054 267.999C580.254 268.393 580.354 268.891 580.354 269.494V274H579.264V269.568C579.264 269.011 579.12 268.577 578.831 268.266C578.541 267.952 578.144 267.795 577.639 267.795C577.292 267.795 576.981 267.871 576.707 268.022C576.436 268.172 576.222 268.393 576.065 268.682C575.908 268.971 575.83 269.322 575.83 269.734Z" fill="black"/>
</svg>
