<svg width="302" height="54" viewBox="0 0 302 54" fill="none" xmlns="http://www.w3.org/2000/svg">
<path d="M31.56 7.92C31.816 8.944 31.944 10.224 31.944 11.76C31.944 13.232 31.816 14.512 31.56 15.6C31.816 16.624 31.944 17.904 31.944 19.44C31.944 20.912 31.816 22.192 31.56 23.28C31.816 24.304 31.944 25.584 31.944 27.12C31.944 28.592 31.816 29.872 31.56 30.96C31.816 31.984 31.944 33.264 31.944 34.8C31.944 36.272 31.816 37.552 31.56 38.64C31.816 39.664 31.944 40.944 31.944 42.48C31.944 43.952 31.816 45.232 31.56 46.32C31.816 47.344 31.944 48.624 31.944 50.16C31.944 51.632 31.816 52.912 31.56 54H23.88C23.624 52.912 23.496 51.632 23.496 50.16C23.496 48.624 23.624 47.344 23.88 46.32C23.624 45.232 23.496 43.952 23.496 42.48C23.496 40.944 23.624 39.664 23.88 38.64C23.624 37.552 23.496 36.272 23.496 34.8C23.496 33.264 23.624 31.984 23.88 30.96C23.624 29.872 23.496 28.592 23.496 27.12C23.496 25.584 23.624 24.304 23.88 23.28C23.624 22.192 23.496 20.912 23.496 19.44C23.496 17.904 23.624 16.624 23.88 15.6H21C21.256 16.624 21.384 17.904 21.384 19.44C21.384 20.912 21.256 22.192 21 23.28C21.256 24.304 21.384 25.584 21.384 27.12C21.384 28.592 21.256 29.872 21 30.96H19.08C19.336 31.984 19.464 33.264 19.464 34.8C19.464 36.272 19.336 37.552 19.08 38.64C19.336 39.664 19.464 40.944 19.464 42.48C19.464 43.952 19.336 45.232 19.08 46.32H13.32C13.064 45.232 12.936 43.952 12.936 42.48C12.936 40.944 13.064 39.664 13.32 38.64C13.064 37.552 12.936 36.272 12.936 34.8C12.936 33.264 13.064 31.984 13.32 30.96H11.4C11.144 29.872 11.016 28.592 11.016 27.12C11.016 25.584 11.144 24.304 11.4 23.28C11.144 22.192 11.016 20.912 11.016 19.44C11.016 17.904 11.144 16.624 11.4 15.6H8.52C8.776 16.624 8.904 17.904 8.904 19.44C8.904 20.912 8.776 22.192 8.52 23.28C8.776 24.304 8.904 25.584 8.904 27.12C8.904 28.592 8.776 29.872 8.52 30.96C8.776 31.984 8.904 33.264 8.904 34.8C8.904 36.272 8.776 37.552 8.52 38.64C8.776 39.664 8.904 40.944 8.904 42.48C8.904 43.952 8.776 45.232 8.52 46.32C8.776 47.344 8.904 48.624 8.904 50.16C8.904 51.632 8.776 52.912 8.52 54H0.84C0.584 52.912 0.456 51.632 0.456 50.16C0.456 48.624 0.584 47.344 0.84 46.32C0.584 45.232 0.456 43.952 0.456 42.48C0.456 40.944 0.584 39.664 0.84 38.64C0.584 37.552 0.456 36.272 0.456 34.8C0.456 33.264 0.584 31.984 0.84 30.96C0.584 29.872 0.456 28.592 0.456 27.12C0.456 25.584 0.584 24.304 0.84 23.28C0.584 22.192 0.456 20.912 0.456 19.44C0.456 17.904 0.584 16.624 0.84 15.6C0.584 14.512 0.456 13.232 0.456 11.76C0.456 10.224 0.584 8.944 0.84 7.92C0.584 6.832 0.456 5.552 0.456 4.08C0.456 2.544 0.584 1.264 0.84 0.24H10.44C10.696 1.264 10.824 2.544 10.824 4.08C10.824 5.552 10.696 6.832 10.44 7.92H13.32C13.576 8.944 13.704 10.224 13.704 11.76C13.704 13.232 13.576 14.512 13.32 15.6H14.76C15.016 16.624 15.144 17.904 15.144 19.44C15.144 20.912 15.016 22.192 14.76 23.28H17.64C17.384 22.192 17.256 20.912 17.256 19.44C17.256 17.904 17.384 16.624 17.64 15.6H19.08C18.824 14.512 18.696 13.232 18.696 11.76C18.696 10.224 18.824 8.944 19.08 7.92H21.96C21.704 6.832 21.576 5.552 21.576 4.08C21.576 2.544 21.704 1.264 21.96 0.24H31.56C31.816 1.264 31.944 2.544 31.944 4.08C31.944 5.552 31.816 6.832 31.56 7.92ZM69.9975 23.28C70.2535 24.304 70.3815 25.584 70.3815 27.12C70.3815 28.592 70.2535 29.872 69.9975 30.96C70.2535 31.984 70.3815 33.264 70.3815 34.8C70.3815 36.272 70.2535 37.552 69.9975 38.64H66.1575C66.4135 39.664 66.5415 40.944 66.5415 42.48C66.5415 43.952 66.4135 45.232 66.1575 46.32H62.3175C62.5735 47.344 62.7015 48.624 62.7015 50.16C62.7015 51.632 62.5735 52.912 62.3175 54H39.2775C39.0215 52.912 38.8935 51.632 38.8935 50.16C38.8935 48.624 39.0215 47.344 39.2775 46.32C39.0215 45.232 38.8935 43.952 38.8935 42.48C38.8935 40.944 39.0215 39.664 39.2775 38.64C39.0215 37.552 38.8935 36.272 38.8935 34.8C38.8935 33.264 39.0215 31.984 39.2775 30.96C39.0215 29.872 38.8935 28.592 38.8935 27.12C38.8935 25.584 39.0215 24.304 39.2775 23.28C39.0215 22.192 38.8935 20.912 38.8935 19.44C38.8935 17.904 39.0215 16.624 39.2775 15.6C39.0215 14.512 38.8935 13.232 38.8935 11.76C38.8935 10.224 39.0215 8.944 39.2775 7.92C39.0215 6.832 38.8935 5.552 38.8935 4.08C38.8935 2.544 39.0215 1.264 39.2775 0.24H62.3175C62.5735 1.264 62.7015 2.544 62.7015 4.08C62.7015 5.552 62.5735 6.832 62.3175 7.92H66.1575C66.4135 8.944 66.5415 10.224 66.5415 11.76C66.5415 13.232 66.4135 14.512 66.1575 15.6H69.9975C70.2535 16.624 70.3815 17.904 70.3815 19.44C70.3815 20.912 70.2535 22.192 69.9975 23.28ZM62.3175 38.64C62.0615 37.552 61.9335 36.272 61.9335 34.8C61.9335 33.264 62.0615 31.984 62.3175 30.96C62.0615 29.872 61.9335 28.592 61.9335 27.12C61.9335 25.584 62.0615 24.304 62.3175 23.28C62.0615 22.192 61.9335 20.912 61.9335 19.44C61.9335 17.904 62.0615 16.624 62.3175 15.6H58.4775C58.2215 14.512 58.0935 13.232 58.0935 11.76C58.0935 10.224 58.2215 8.944 58.4775 7.92H46.9575C47.2135 8.944 47.3415 10.224 47.3415 11.76C47.3415 13.232 47.2135 14.512 46.9575 15.6C47.2135 16.624 47.3415 17.904 47.3415 19.44C47.3415 20.912 47.2135 22.192 46.9575 23.28C47.2135 24.304 47.3415 25.584 47.3415 27.12C47.3415 28.592 47.2135 29.872 46.9575 30.96C47.2135 31.984 47.3415 33.264 47.3415 34.8C47.3415 36.272 47.2135 37.552 46.9575 38.64C47.2135 39.664 47.3415 40.944 47.3415 42.48C47.3415 43.952 47.2135 45.232 46.9575 46.32H58.4775C58.2215 45.232 58.0935 43.952 58.0935 42.48C58.0935 40.944 58.2215 39.664 58.4775 38.64H62.3175ZM102.675 23.28C102.931 24.304 103.059 25.584 103.059 27.12C103.059 28.592 102.931 29.872 102.675 30.96H83.475C83.219 29.872 83.091 28.592 83.091 27.12C83.091 25.584 83.219 24.304 83.475 23.28H102.675ZM147.257 42.48C147.257 43.952 147.129 45.232 146.873 46.32C147.129 47.344 147.257 48.624 147.257 50.16C147.257 51.632 147.129 52.912 146.873 54H139.193C138.937 52.912 138.809 51.632 138.809 50.16C138.809 48.624 138.937 47.344 139.193 46.32C138.937 45.232 138.809 43.952 138.809 42.48C138.809 40.944 138.937 39.664 139.193 38.64H123.833C124.089 39.664 124.217 40.944 124.217 42.48C124.217 43.952 124.089 45.232 123.833 46.32C124.089 47.344 124.217 48.624 124.217 50.16C124.217 51.632 124.089 52.912 123.833 54H116.153C115.897 52.912 115.769 51.632 115.769 50.16C115.769 48.624 115.897 47.344 116.153 46.32C115.897 45.232 115.769 43.952 115.769 42.48C115.769 40.944 115.897 39.664 116.153 38.64H119.033C118.776 37.552 118.648 36.272 118.648 34.8C118.648 33.264 118.776 31.984 119.033 30.96C118.776 29.872 118.648 28.592 118.648 27.12C118.648 25.584 118.776 24.304 119.033 23.28H120.953C120.697 22.192 120.569 20.912 120.569 19.44C120.569 17.904 120.697 16.624 120.953 15.6H123.833C123.577 14.512 123.449 13.232 123.449 11.76C123.449 10.224 123.577 8.944 123.833 7.92H125.753C125.497 6.832 125.369 5.552 125.369 4.08C125.369 2.544 125.497 1.264 125.753 0.24H137.273C137.529 1.264 137.656 2.544 137.656 4.08C137.656 5.552 137.529 6.832 137.273 7.92H139.193C139.449 8.944 139.577 10.224 139.577 11.76C139.577 13.232 139.449 14.512 139.193 15.6H142.073C142.329 16.624 142.457 17.904 142.457 19.44C142.457 20.912 142.329 22.192 142.073 23.28H143.993C144.249 24.304 144.377 25.584 144.377 27.12C144.377 28.592 144.249 29.872 143.993 30.96C144.249 31.984 144.377 33.264 144.377 34.8C144.377 36.272 144.249 37.552 143.993 38.64H146.873C147.129 39.664 147.257 40.944 147.257 42.48ZM136.312 30.96C136.057 29.872 135.929 28.592 135.929 27.12C135.929 25.584 136.057 24.304 136.312 23.28H134.393C134.137 22.192 134.009 20.912 134.009 19.44C134.009 17.904 134.137 16.624 134.393 15.6H128.633C128.889 16.624 129.017 17.904 129.017 19.44C129.017 20.912 128.889 22.192 128.633 23.28H126.713C126.969 24.304 127.097 25.584 127.097 27.12C127.097 28.592 126.969 29.872 126.713 30.96H136.312ZM185.31 7.92C185.566 8.944 185.694 10.224 185.694 11.76C185.694 13.232 185.566 14.512 185.31 15.6C185.566 16.624 185.694 17.904 185.694 19.44C185.694 20.912 185.566 22.192 185.31 23.28C185.566 24.304 185.694 25.584 185.694 27.12C185.694 28.592 185.566 29.872 185.31 30.96C185.566 31.984 185.694 33.264 185.694 34.8C185.694 36.272 185.566 37.552 185.31 38.64C185.566 39.664 185.694 40.944 185.694 42.48C185.694 43.952 185.566 45.232 185.31 46.32C185.566 47.344 185.694 48.624 185.694 50.16C185.694 51.632 185.566 52.912 185.31 54H177.63C177.374 52.912 177.246 51.632 177.246 50.16C177.246 48.624 177.374 47.344 177.63 46.32H172.83C172.574 45.232 172.446 43.952 172.446 42.48C172.446 40.944 172.574 39.664 172.83 38.64H169.95C169.694 37.552 169.566 36.272 169.566 34.8C169.566 33.264 169.694 31.984 169.95 30.96H166.11C165.854 29.872 165.726 28.592 165.726 27.12C165.726 25.584 165.854 24.304 166.11 23.28H162.27C162.526 24.304 162.654 25.584 162.654 27.12C162.654 28.592 162.526 29.872 162.27 30.96C162.526 31.984 162.654 33.264 162.654 34.8C162.654 36.272 162.526 37.552 162.27 38.64C162.526 39.664 162.654 40.944 162.654 42.48C162.654 43.952 162.526 45.232 162.27 46.32C162.526 47.344 162.654 48.624 162.654 50.16C162.654 51.632 162.526 52.912 162.27 54H154.59C154.334 52.912 154.206 51.632 154.206 50.16C154.206 48.624 154.334 47.344 154.59 46.32C154.334 45.232 154.206 43.952 154.206 42.48C154.206 40.944 154.334 39.664 154.59 38.64C154.334 37.552 154.206 36.272 154.206 34.8C154.206 33.264 154.334 31.984 154.59 30.96C154.334 29.872 154.206 28.592 154.206 27.12C154.206 25.584 154.334 24.304 154.59 23.28C154.334 22.192 154.206 20.912 154.206 19.44C154.206 17.904 154.334 16.624 154.59 15.6C154.334 14.512 154.206 13.232 154.206 11.76C154.206 10.224 154.334 8.944 154.59 7.92C154.334 6.832 154.206 5.552 154.206 4.08C154.206 2.544 154.334 1.264 154.59 0.24H164.19C164.446 1.264 164.574 2.544 164.574 4.08C164.574 5.552 164.446 6.832 164.19 7.92H167.07C167.326 8.944 167.454 10.224 167.454 11.76C167.454 13.232 167.326 14.512 167.07 15.6H169.95C170.206 16.624 170.334 17.904 170.334 19.44C170.334 20.912 170.206 22.192 169.95 23.28H173.79C174.046 24.304 174.174 25.584 174.174 27.12C174.174 28.592 174.046 29.872 173.79 30.96H177.63C177.374 29.872 177.246 28.592 177.246 27.12C177.246 25.584 177.374 24.304 177.63 23.28C177.374 22.192 177.246 20.912 177.246 19.44C177.246 17.904 177.374 16.624 177.63 15.6C177.374 14.512 177.246 13.232 177.246 11.76C177.246 10.224 177.374 8.944 177.63 7.92C177.374 6.832 177.246 5.552 177.246 4.08C177.246 2.544 177.374 1.264 177.63 0.24H185.31C185.566 1.264 185.694 2.544 185.694 4.08C185.694 5.552 185.566 6.832 185.31 7.92ZM224.132 4.08C224.132 5.552 224.004 6.832 223.748 7.92H212.228C212.484 8.944 212.612 10.224 212.612 11.76C212.612 13.232 212.484 14.512 212.228 15.6C212.484 16.624 212.612 17.904 212.612 19.44C212.612 20.912 212.484 22.192 212.228 23.28C212.484 24.304 212.612 25.584 212.612 27.12C212.612 28.592 212.484 29.872 212.228 30.96C212.484 31.984 212.612 33.264 212.612 34.8C212.612 36.272 212.484 37.552 212.228 38.64C212.484 39.664 212.612 40.944 212.612 42.48C212.612 43.952 212.484 45.232 212.228 46.32C212.484 47.344 212.612 48.624 212.612 50.16C212.612 51.632 212.484 52.912 212.228 54H204.548C204.292 52.912 204.164 51.632 204.164 50.16C204.164 48.624 204.292 47.344 204.548 46.32C204.292 45.232 204.164 43.952 204.164 42.48C204.164 40.944 204.292 39.664 204.548 38.64C204.292 37.552 204.164 36.272 204.164 34.8C204.164 33.264 204.292 31.984 204.548 30.96C204.292 29.872 204.164 28.592 204.164 27.12C204.164 25.584 204.292 24.304 204.548 23.28C204.292 22.192 204.164 20.912 204.164 19.44C204.164 17.904 204.292 16.624 204.548 15.6C204.292 14.512 204.164 13.232 204.164 11.76C204.164 10.224 204.292 8.944 204.548 7.92H193.028C192.772 6.832 192.644 5.552 192.644 4.08C192.644 2.544 192.772 1.264 193.028 0.24H223.748C224.004 1.264 224.132 2.544 224.132 4.08ZM262.185 23.28C262.441 24.304 262.569 25.584 262.569 27.12C262.569 28.592 262.441 29.872 262.185 30.96C262.441 31.984 262.569 33.264 262.569 34.8C262.569 36.272 262.441 37.552 262.185 38.64H259.305C259.561 39.664 259.689 40.944 259.689 42.48C259.689 43.952 259.561 45.232 259.305 46.32H254.505C254.761 47.344 254.889 48.624 254.889 50.16C254.889 51.632 254.761 52.912 254.505 54H239.145C238.889 52.912 238.761 51.632 238.761 50.16C238.761 48.624 238.889 47.344 239.145 46.32H234.345C234.089 45.232 233.961 43.952 233.961 42.48C233.961 40.944 234.089 39.664 234.345 38.64H231.465C231.209 37.552 231.081 36.272 231.081 34.8C231.081 33.264 231.209 31.984 231.465 30.96C231.209 29.872 231.081 28.592 231.081 27.12C231.081 25.584 231.209 24.304 231.465 23.28C231.209 22.192 231.081 20.912 231.081 19.44C231.081 17.904 231.209 16.624 231.465 15.6H234.345C234.089 14.512 233.961 13.232 233.961 11.76C233.961 10.224 234.089 8.944 234.345 7.92H239.145C238.889 6.832 238.761 5.552 238.761 4.08C238.761 2.544 238.889 1.264 239.145 0.24H254.505C254.761 1.264 254.889 2.544 254.889 4.08C254.889 5.552 254.761 6.832 254.505 7.92H259.305C259.561 8.944 259.689 10.224 259.689 11.76C259.689 13.232 259.561 14.512 259.305 15.6H262.185C262.441 16.624 262.569 17.904 262.569 19.44C262.569 20.912 262.441 22.192 262.185 23.28ZM254.505 38.64C254.249 37.552 254.121 36.272 254.121 34.8C254.121 33.264 254.249 31.984 254.505 30.96C254.249 29.872 254.121 28.592 254.121 27.12C254.121 25.584 254.249 24.304 254.505 23.28C254.249 22.192 254.121 20.912 254.121 19.44C254.121 17.904 254.249 16.624 254.505 15.6H251.625C251.369 14.512 251.241 13.232 251.241 11.76C251.241 10.224 251.369 8.944 251.625 7.92H242.025C242.281 8.944 242.409 10.224 242.409 11.76C242.409 13.232 242.281 14.512 242.025 15.6H239.145C239.401 16.624 239.529 17.904 239.529 19.44C239.529 20.912 239.401 22.192 239.145 23.28C239.401 24.304 239.529 25.584 239.529 27.12C239.529 28.592 239.401 29.872 239.145 30.96C239.401 31.984 239.529 33.264 239.529 34.8C239.529 36.272 239.401 37.552 239.145 38.64H242.025C242.281 39.664 242.409 40.944 242.409 42.48C242.409 43.952 242.281 45.232 242.025 46.32H251.625C251.369 45.232 251.241 43.952 251.241 42.48C251.241 40.944 251.369 39.664 251.625 38.64H254.505ZM300.623 46.32C300.879 47.344 301.007 48.624 301.007 50.16C301.007 51.632 300.879 52.912 300.623 54H292.943C292.687 52.912 292.559 51.632 292.559 50.16C292.559 48.624 292.687 47.344 292.943 46.32H290.062C289.807 45.232 289.679 43.952 289.679 42.48C289.679 40.944 289.807 39.664 290.062 38.64H287.183C286.927 37.552 286.799 36.272 286.799 34.8C286.799 33.264 286.927 31.984 287.183 30.96H277.583C277.839 31.984 277.967 33.264 277.967 34.8C277.967 36.272 277.839 37.552 277.583 38.64C277.839 39.664 277.967 40.944 277.967 42.48C277.967 43.952 277.839 45.232 277.583 46.32C277.839 47.344 277.967 48.624 277.967 50.16C277.967 51.632 277.839 52.912 277.583 54H269.903C269.647 52.912 269.519 51.632 269.519 50.16C269.519 48.624 269.647 47.344 269.903 46.32C269.647 45.232 269.519 43.952 269.519 42.48C269.519 40.944 269.647 39.664 269.903 38.64C269.647 37.552 269.519 36.272 269.519 34.8C269.519 33.264 269.647 31.984 269.903 30.96C269.647 29.872 269.519 28.592 269.519 27.12C269.519 25.584 269.647 24.304 269.903 23.28C269.647 22.192 269.519 20.912 269.519 19.44C269.519 17.904 269.647 16.624 269.903 15.6C269.647 14.512 269.519 13.232 269.519 11.76C269.519 10.224 269.647 8.944 269.903 7.92C269.647 6.832 269.519 5.552 269.519 4.08C269.519 2.544 269.647 1.264 269.903 0.24H296.783C297.039 1.264 297.167 2.544 297.167 4.08C297.167 5.552 297.039 6.832 296.783 7.92H300.623C300.879 8.944 301.007 10.224 301.007 11.76C301.007 13.232 300.879 14.512 300.623 15.6H298.703C298.959 16.624 299.087 17.904 299.087 19.44C299.087 20.912 298.959 22.192 298.703 23.28H292.943C293.199 24.304 293.327 25.584 293.327 27.12C293.327 28.592 293.199 29.872 292.943 30.96H294.863C295.119 31.984 295.247 33.264 295.247 34.8C295.247 36.272 295.119 37.552 294.863 38.64H297.743C297.999 39.664 298.127 40.944 298.127 42.48C298.127 43.952 297.999 45.232 297.743 46.32H300.623ZM291.023 23.28C290.767 22.192 290.639 20.912 290.639 19.44C290.639 17.904 290.767 16.624 291.023 15.6C290.767 14.512 290.639 13.232 290.639 11.76C290.639 10.224 290.767 8.944 291.023 7.92H277.583C277.839 8.944 277.967 10.224 277.967 11.76C277.967 13.232 277.839 14.512 277.583 15.6C277.839 16.624 277.967 17.904 277.967 19.44C277.967 20.912 277.839 22.192 277.583 23.28H291.023Z" fill="black"/>
</svg>
