<svg width="340" height="49" viewBox="0 0 340 49" fill="none" xmlns="http://www.w3.org/2000/svg">
<path d="M32.5093 30.7793L34.4429 27.127V47H32.5093V30.7793ZM36.3765 23.3672L38.3101 19.7148V47H36.3765V23.3672ZM40.2437 16.0625L42.1772 12.3833V47H40.2437V16.0625ZM27.2725 29.8662L26.1714 27.8521L39.4917 2.52734H41.667L27.2725 29.8662ZM25.0435 25.6499L23.9155 23.6089L35.0874 2.52734H37.2896L25.0435 25.6499ZM12.0991 27.3418L14.0327 30.9941V47H12.0991V27.3418ZM8.23193 19.9834L10.1655 23.6357V47H8.23193V19.9834ZM4.36475 12.625L6.29834 16.3042V47H4.36475V12.625ZM19.9946 35.3984H17.8193L2.43115 6.20654V47H0.497559V2.52734H2.67285L19.9946 35.3984ZM24.3721 35.3984H22.1699L4.875 2.52734H7.07715L24.3721 35.3984ZM44.1108 6.20654L28.7227 35.3984H26.5205L9.25244 2.52734H11.4277L27.6484 33.3574L43.8423 2.52734H46.0444V47H44.1108V6.20654ZM62.7485 35.3984V14.1289C62.7485 14.1289 67.1439 14.1289 75.9346 14.1289C78.0651 14.1289 79.8913 15.1763 81.4131 17.271C82.9528 19.3478 83.7227 21.8454 83.7227 24.7637C83.7227 27.6999 82.9528 30.2064 81.4131 32.2832C79.8913 34.36 78.0651 35.3984 75.9346 35.3984H62.7485ZM64.6821 33.4648H75.9346C77.528 33.4648 78.8887 32.6144 80.0166 30.9136C81.1624 29.2127 81.7354 27.1628 81.7354 24.7637C81.7354 22.3467 81.1624 20.2967 80.0166 18.6138C78.8887 16.9129 77.528 16.0625 75.9346 16.0625H64.6821V33.4648ZM60.8149 37.332H75.9346C78.6022 37.332 80.8939 36.1056 82.8096 33.6528C84.7432 31.1821 85.71 28.2191 85.71 24.7637C85.71 22.4899 85.2624 20.3862 84.3672 18.4526C83.4899 16.519 82.2993 14.9972 80.7954 13.8872C79.3094 12.7593 77.6891 12.1953 75.9346 12.1953H60.8149V37.332ZM58.8813 39.2656V10.2617H75.9346C78.0293 10.2617 79.9808 10.9062 81.7891 12.1953C83.5973 13.4844 85.0296 15.2479 86.0859 17.4858C87.1602 19.7059 87.6973 22.1318 87.6973 24.7637C87.6973 27.3776 87.1602 29.8035 86.0859 32.0415C85.0296 34.2795 83.5973 36.043 81.7891 37.332C79.9808 38.6211 78.0293 39.2656 75.9346 39.2656H58.8813ZM56.9478 41.1992H75.9346C78.3874 41.1992 80.6611 40.4652 82.7559 38.9971C84.8685 37.529 86.5514 35.5327 87.8047 33.0083C89.0579 30.4839 89.6846 27.7357 89.6846 24.7637C89.6846 21.8096 89.0579 19.0703 87.8047 16.5459C86.5514 14.0036 84.8685 11.9984 82.7559 10.5303C80.6432 9.06217 78.3695 8.32812 75.9346 8.32812H56.9478V41.1992ZM55.0142 43.1328V6.39453H75.9346C78.7275 6.39453 81.3325 7.2181 83.7495 8.86523C86.1665 10.4945 88.0911 12.7235 89.5234 15.5522C90.9557 18.381 91.6719 21.4515 91.6719 24.7637C91.6719 28.0758 90.9557 31.1463 89.5234 33.9751C88.0911 36.8039 86.1665 39.0418 83.7495 40.689C81.3325 42.3182 78.7275 43.1328 75.9346 43.1328H55.0142ZM53.0806 45.0664H75.9346C78.2799 45.0664 80.5448 44.5293 82.729 43.4551C84.9132 42.3809 86.8021 40.9396 88.3955 39.1313C89.9889 37.3231 91.2601 35.1657 92.209 32.6592C93.1758 30.1348 93.6592 27.5029 93.6592 24.7637C93.6592 22.0244 93.1758 19.4015 92.209 16.895C91.2601 14.3885 89.9889 12.2311 88.3955 10.4229C86.8021 8.59668 84.9132 7.14648 82.729 6.07227C80.5448 4.99805 78.2799 4.46094 75.9346 4.46094H53.0806V45.0664ZM75.9346 47H51.147V2.52734H75.9346C79.4258 2.52734 82.6842 3.521 85.71 5.5083C88.7357 7.49561 91.1437 10.1991 92.9341 13.6187C94.7424 17.0382 95.6465 20.7533 95.6465 24.7637C95.6465 27.7715 95.1094 30.654 94.0352 33.4111C92.9788 36.1504 91.5645 38.5137 89.792 40.501C88.0195 42.4883 85.9159 44.0728 83.481 45.2544C81.064 46.4181 78.5485 47 75.9346 47ZM99.5942 39.2656V37.332H109.262V39.2656H99.5942ZM99.5942 43.1328V41.1992H109.262V43.1328H99.5942ZM99.5942 47V45.0664H109.262V47H99.5942ZM133.19 33.9482L133.969 32.0146H140.576L141.354 33.9482H133.19ZM131.687 37.8154L132.438 35.8818H142.08L142.912 37.8154H131.687ZM130.183 41.6826L130.935 39.749H143.61L144.416 41.6826H130.183ZM114.472 47H112.377L129.968 2.52734H132.062L149.626 47H147.558L131.015 5.13232L114.472 47ZM131.257 9.72461L132.358 12.1953L118.608 47H116.54L131.257 9.72461ZM133.405 14.8271L134.426 17.4858L122.797 47H120.703L133.405 14.8271ZM135.446 20.1445L136.467 22.8569L126.933 47H124.865L135.446 20.1445ZM162.114 47H160.019L142.456 2.52734H144.523L162.114 47ZM140.361 2.52734L157.951 47H155.883L138.293 2.52734H140.361ZM136.198 2.52734L153.789 47H151.694L134.13 2.52734H136.198ZM197.08 25.5962L195.146 22.4004V2.52734H197.08V25.5962ZM200.947 31.9341L199.013 28.6846V2.52734H200.947V31.9341ZM204.814 38.3525L202.88 35.0762V2.52734H204.814V38.3525ZM177.099 23.9312L179.033 27.127V47H177.099V23.9312ZM173.232 17.5933L175.166 20.8428V47H173.232V17.5933ZM169.365 11.1748L171.298 14.4512V47H169.365V11.1748ZM170.036 2.52734H172.292L199.631 47H197.375L170.036 2.52734ZM174.602 2.52734H176.884L204.196 47H201.887L174.602 2.52734ZM179.14 2.52734H181.396L206.748 43.8579V2.52734H208.681V47C208.681 47 207.92 47 206.398 47L179.14 2.52734ZM167.431 5.66943V47H165.498V2.52734C165.498 2.52734 166.267 2.52734 167.807 2.52734L195.065 47H192.836L167.431 5.66943ZM212.924 4.46094V2.52734H241.928V4.46094H212.924ZM212.924 8.32812V6.39453H241.928V8.32812H212.924ZM212.924 12.1953V10.2617H241.928V12.1953H234.194V47H232.26V12.1953H230.327V47H228.393V12.1953H226.459V47H224.526V12.1953H222.592V47H220.659V12.1953H212.924ZM261.989 17.2441C259.912 19.321 258.874 21.8275 258.874 24.7637C258.874 27.6999 259.912 30.2064 261.989 32.2832C264.066 34.36 266.573 35.3984 269.509 35.3984C272.445 35.3984 274.951 34.36 277.028 32.2832C279.105 30.2064 280.144 27.6999 280.144 24.7637C280.144 21.8275 279.105 19.321 277.028 17.2441C274.951 15.1673 272.445 14.1289 269.509 14.1289C266.573 14.1289 264.066 15.1673 261.989 17.2441ZM257.934 29.6514C257.272 28.0938 256.94 26.4645 256.94 24.7637C256.94 23.0628 257.272 21.4425 257.934 19.9028C258.597 18.3452 259.492 17.0024 260.62 15.8745C261.748 14.7466 263.081 13.8514 264.621 13.189C266.179 12.5265 267.808 12.1953 269.509 12.1953C271.21 12.1953 272.83 12.5265 274.37 13.189C275.927 13.8514 277.27 14.7466 278.398 15.8745C279.526 17.0024 280.421 18.3452 281.083 19.9028C281.746 21.4425 282.077 23.0628 282.077 24.7637C282.077 26.4645 281.746 28.0938 281.083 29.6514C280.421 31.1911 279.526 32.5249 278.398 33.6528C277.27 34.7808 275.927 35.6759 274.37 36.3384C272.83 37.0008 271.21 37.332 269.509 37.332C267.808 37.332 266.179 37.0008 264.621 36.3384C263.081 35.6759 261.748 34.7808 260.62 33.6528C259.492 32.5249 258.597 31.1911 257.934 29.6514ZM256.94 17.4858C255.651 19.7059 255.007 22.1318 255.007 24.7637C255.007 27.3955 255.651 29.8215 256.94 32.0415C258.247 34.2616 260.011 36.0251 262.231 37.332C264.451 38.6211 266.877 39.2656 269.509 39.2656C272.141 39.2656 274.567 38.6211 276.787 37.332C279.007 36.0251 280.761 34.2616 282.05 32.0415C283.357 29.8215 284.011 27.3955 284.011 24.7637C284.011 22.1318 283.357 19.7059 282.05 17.4858C280.761 15.2658 279.007 13.5112 276.787 12.2222C274.567 10.9152 272.141 10.2617 269.509 10.2617C266.877 10.2617 264.451 10.9152 262.231 12.2222C260.011 13.5112 258.247 15.2658 256.94 17.4858ZM255.275 33.0083C253.807 30.4839 253.073 27.7357 253.073 24.7637C253.073 21.7917 253.807 19.0435 255.275 16.519C256.743 13.9946 258.74 11.9984 261.264 10.5303C263.789 9.06217 266.537 8.32812 269.509 8.32812C272.481 8.32812 275.229 9.06217 277.753 10.5303C280.278 11.9984 282.274 13.9946 283.742 16.519C285.21 19.0435 285.944 21.7917 285.944 24.7637C285.944 27.7357 285.21 30.4839 283.742 33.0083C282.274 35.5327 280.278 37.529 277.753 38.9971C275.229 40.4652 272.481 41.1992 269.509 41.1992C266.537 41.1992 263.789 40.4652 261.264 38.9971C258.74 37.529 256.743 35.5327 255.275 33.0083ZM252.59 17.6201C251.623 19.8939 251.14 22.2751 251.14 24.7637C251.14 27.2523 251.623 29.6335 252.59 31.9072C253.557 34.181 254.855 36.1414 256.484 37.7886C258.131 39.4178 260.091 40.7158 262.365 41.6826C264.639 42.6494 267.02 43.1328 269.509 43.1328C271.997 43.1328 274.379 42.6494 276.652 41.6826C278.926 40.7158 280.878 39.4178 282.507 37.7886C284.154 36.1414 285.461 34.181 286.428 31.9072C287.395 29.6335 287.878 27.2523 287.878 24.7637C287.878 22.2751 287.395 19.8939 286.428 17.6201C285.461 15.3464 284.154 13.3949 282.507 11.7656C280.878 10.1185 278.926 8.81152 276.652 7.84473C274.379 6.87793 271.997 6.39453 269.509 6.39453C267.02 6.39453 264.639 6.87793 262.365 7.84473C260.091 8.81152 258.131 10.1185 256.484 11.7656C254.855 13.3949 253.557 15.3464 252.59 17.6201ZM251.918 34.9419C250.11 31.8267 249.206 28.4339 249.206 24.7637C249.206 21.0934 250.11 17.7007 251.918 14.5854C253.745 11.4702 256.215 9.00846 259.331 7.2002C262.446 5.37402 265.839 4.46094 269.509 4.46094C273.179 4.46094 276.572 5.37402 279.687 7.2002C282.802 9.00846 285.264 11.4702 287.072 14.5854C288.898 17.7007 289.812 21.0934 289.812 24.7637C289.812 28.4339 288.898 31.8267 287.072 34.9419C285.264 38.0571 282.802 40.5278 279.687 42.354C276.572 44.1623 273.179 45.0664 269.509 45.0664C265.839 45.0664 262.446 44.1623 259.331 42.354C256.215 40.5278 253.745 38.0571 251.918 34.9419ZM249.018 16.1431C247.854 18.8823 247.272 21.7559 247.272 24.7637C247.272 27.7715 247.854 30.654 249.018 33.4111C250.2 36.1504 251.784 38.5137 253.771 40.501C255.759 42.4883 258.122 44.0728 260.861 45.2544C263.618 46.4181 266.501 47 269.509 47C272.517 47 275.39 46.4181 278.129 45.2544C280.887 44.0728 283.259 42.4883 285.246 40.501C287.233 38.5137 288.809 36.1504 289.973 33.4111C291.154 30.654 291.745 27.7715 291.745 24.7637C291.745 21.7559 291.154 18.8823 289.973 16.1431C288.809 13.3859 287.233 11.0137 285.246 9.02637C283.259 7.03906 280.887 5.46354 278.129 4.2998C275.39 3.11816 272.517 2.52734 269.509 2.52734C266.501 2.52734 263.618 3.11816 260.861 4.2998C258.122 5.46354 255.759 7.03906 253.771 9.02637C251.784 11.0137 250.2 13.3859 249.018 16.1431ZM247.246 34.1631C245.974 31.1732 245.339 28.04 245.339 24.7637C245.339 21.4873 245.974 18.3631 247.246 15.3911C248.535 12.4012 250.253 9.83203 252.402 7.68359C254.568 5.51725 257.137 3.7985 260.109 2.52734C263.099 1.23828 266.232 0.59375 269.509 0.59375C272.785 0.59375 275.909 1.23828 278.881 2.52734C281.871 3.7985 284.44 5.51725 286.589 7.68359C288.755 9.83203 290.474 12.4012 291.745 15.3911C293.034 18.3631 293.679 21.4873 293.679 24.7637C293.679 28.04 293.034 31.1732 291.745 34.1631C290.474 37.1351 288.755 39.7043 286.589 41.8706C284.44 44.019 281.871 45.7288 278.881 47C275.909 48.2891 272.785 48.9336 269.509 48.9336C266.232 48.9336 263.099 48.2891 260.109 47C257.137 45.7288 254.568 44.019 252.402 41.8706C250.253 39.7043 248.535 37.1351 247.246 34.1631ZM312.29 24.8711H323.945C325.717 24.8711 327.212 24.2982 328.43 23.1523C329.665 22.0065 330.283 20.3773 330.283 18.2646C330.283 16.707 329.638 15.3105 328.349 14.0752C327.06 12.8219 325.592 12.1953 323.945 12.1953H307.348V47H305.415V10.2617H323.945C326.129 10.2617 328.054 11.0763 329.719 12.7056C331.384 14.3169 332.216 16.1699 332.216 18.2646C332.216 20.8428 331.411 22.9106 329.799 24.4683C328.188 26.0259 326.236 26.8047 323.945 26.8047H312.29V24.8711ZM312.29 28.7383H323.945C326.738 28.7383 329.137 27.7625 331.142 25.811C333.147 23.8416 334.15 21.3262 334.15 18.2646C334.15 15.6328 333.12 13.3232 331.062 11.3359C329.021 9.33073 326.648 8.32812 323.945 8.32812H303.481V47H301.547V6.39453H323.945C326.075 6.39453 328.072 6.94059 329.934 8.03271C331.813 9.12484 333.308 10.5929 334.418 12.437C335.528 14.2632 336.083 16.2057 336.083 18.2646C336.083 21.7917 334.884 24.7458 332.485 27.127C330.104 29.4902 327.257 30.6719 323.945 30.6719H312.29V28.7383ZM312.29 32.6055H323.945C326.451 32.6055 328.779 31.9878 330.927 30.7524C333.076 29.5171 334.794 27.7983 336.083 25.5962C337.373 23.3761 338.017 20.9323 338.017 18.2646C338.017 15.8477 337.373 13.5828 336.083 11.4702C334.812 9.33968 333.094 7.63883 330.927 6.36768C328.761 5.09652 326.433 4.46094 323.945 4.46094H299.614V47H297.68V2.52734H323.945C326.756 2.52734 329.396 3.25244 331.867 4.70264C334.338 6.13493 336.298 8.06852 337.749 10.5034C339.217 12.9204 339.951 15.5075 339.951 18.2646C339.951 21.4515 339.261 24.2534 337.883 26.6704C336.522 29.0874 334.669 30.9762 332.324 32.3369L337.319 47H335.278L330.498 33.25C329.781 33.5365 329.235 33.7334 328.859 33.8408L333.344 47H331.303L326.926 34.2974C326.765 34.3332 326.192 34.3958 325.207 34.4854L329.37 47H327.329L323.22 34.5391H321.474L325.395 47H323.354L319.406 34.5391H312.29V32.6055ZM311.215 47H309.282V14.1289H323.945C325.144 14.1289 326.174 14.5407 327.033 15.3643C327.91 16.1699 328.349 17.1367 328.349 18.2646C328.349 21.3799 326.881 22.9375 323.945 22.9375H312.29V21.0039H323.945C324.715 21.0039 325.314 20.807 325.744 20.4131C326.192 20.0013 326.416 19.2852 326.416 18.2646C326.416 17.638 326.174 17.1188 325.69 16.707C325.225 16.2773 324.643 16.0625 323.945 16.0625H311.215V47Z" fill="black"/>
</svg>
