<svg width="431" height="385" viewBox="0 0 431 385" fill="none" xmlns="http://www.w3.org/2000/svg">
<path d="M133.636 0H118.788V13.2727H133.636V0Z" fill="black"/>
<path d="M163.333 0H148.485V13.2727H163.333V0Z" fill="black"/>
<path d="M178.182 0H163.333V13.2727H178.182V0Z" fill="black"/>
<path d="M237.576 0H222.727V13.2727H237.576V0Z" fill="black"/>
<path d="M252.424 0H237.576V13.2727H252.424V0Z" fill="black"/>
<path d="M296.97 0H282.121V13.2727H296.97V0Z" fill="black"/>
<path d="M133.636 13.2729H118.788V26.5457H133.636V13.2729Z" fill="black"/>
<path d="M222.727 13.2729H207.879V26.5457H222.727V13.2729Z" fill="black"/>
<path d="M237.576 13.2729H222.727V26.5457H237.576V13.2729Z" fill="black"/>
<path d="M267.273 13.2729H252.424V26.5457H267.273V13.2729Z" fill="black"/>
<path d="M311.818 13.2729H296.97V26.5457H311.818V13.2729Z" fill="black"/>
<path d="M148.485 26.5454H133.636V39.8181H148.485V26.5454Z" fill="black"/>
<path d="M207.879 26.5454H193.03V39.8181H207.879V26.5454Z" fill="black"/>
<path d="M222.727 26.5454H207.879V39.8181H222.727V26.5454Z" fill="black"/>
<path d="M237.576 26.5454H222.727V39.8181H237.576V26.5454Z" fill="black"/>
<path d="M296.97 26.5454H282.121V39.8181H296.97V26.5454Z" fill="black"/>
<path d="M133.636 39.8184H118.788V53.0911H133.636V39.8184Z" fill="black"/>
<path d="M148.485 39.8184H133.636V53.0911H148.485V39.8184Z" fill="black"/>
<path d="M163.333 39.8184H148.485V53.0911H163.333V39.8184Z" fill="black"/>
<path d="M252.424 39.8184H237.576V53.0911H252.424V39.8184Z" fill="black"/>
<path d="M267.273 39.8184H252.424V53.0911H267.273V39.8184Z" fill="black"/>
<path d="M282.121 39.8184H267.273V53.0911H282.121V39.8184Z" fill="black"/>
<path d="M296.97 39.8184H282.121V53.0911H296.97V39.8184Z" fill="black"/>
<path d="M311.818 39.8184H296.97V53.0911H311.818V39.8184Z" fill="black"/>
<path d="M148.485 53.0908H133.636V66.3635H148.485V53.0908Z" fill="black"/>
<path d="M207.879 53.0908H193.03V66.3635H207.879V53.0908Z" fill="black"/>
<path d="M267.273 53.0908H252.424V66.3635H267.273V53.0908Z" fill="black"/>
<path d="M282.121 53.0908H267.273V66.3635H282.121V53.0908Z" fill="black"/>
<path d="M296.97 53.0908H282.121V66.3635H296.97V53.0908Z" fill="black"/>
<path d="M311.818 53.0908H296.97V66.3635H311.818V53.0908Z" fill="black"/>
<path d="M163.333 66.3638H148.485V79.6365H163.333V66.3638Z" fill="black"/>
<path d="M178.182 66.3638H163.333V79.6365H178.182V66.3638Z" fill="black"/>
<path d="M222.727 66.3638H207.879V79.6365H222.727V66.3638Z" fill="black"/>
<path d="M296.97 66.3638H282.121V79.6365H296.97V66.3638Z" fill="black"/>
<path d="M133.636 79.6362H118.788V92.909H133.636V79.6362Z" fill="black"/>
<path d="M163.333 79.6362H148.485V92.909H163.333V79.6362Z" fill="black"/>
<path d="M193.03 79.6362H178.182V92.909H193.03V79.6362Z" fill="black"/>
<path d="M222.727 79.6362H207.879V92.909H222.727V79.6362Z" fill="black"/>
<path d="M252.424 79.6362H237.576V92.909H252.424V79.6362Z" fill="black"/>
<path d="M282.121 79.6362H267.273V92.909H282.121V79.6362Z" fill="black"/>
<path d="M311.818 79.6362H296.97V92.909H311.818V79.6362Z" fill="black"/>
<path d="M133.636 92.9092H118.788V106.182H133.636V92.9092Z" fill="black"/>
<path d="M148.485 92.9092H133.636V106.182H148.485V92.9092Z" fill="black"/>
<path d="M178.182 92.9092H163.333V106.182H178.182V92.9092Z" fill="black"/>
<path d="M207.879 92.9092H193.03V106.182H207.879V92.9092Z" fill="black"/>
<path d="M222.727 92.9092H207.879V106.182H222.727V92.9092Z" fill="black"/>
<path d="M267.273 92.9092H252.424V106.182H267.273V92.9092Z" fill="black"/>
<path d="M282.121 92.9092H267.273V106.182H282.121V92.9092Z" fill="black"/>
<path d="M311.818 92.9092H296.97V106.182H311.818V92.9092Z" fill="black"/>
<path d="M14.8485 106.182H0V119.454H14.8485V106.182Z" fill="black"/>
<path d="M44.5455 106.182H29.697V119.454H44.5455V106.182Z" fill="black"/>
<path d="M59.3939 106.182H44.5454V119.454H59.3939V106.182Z" fill="black"/>
<path d="M89.0909 106.182H74.2424V119.454H89.0909V106.182Z" fill="black"/>
<path d="M103.939 106.182H89.0909V119.454H103.939V106.182Z" fill="black"/>
<path d="M118.788 106.182H103.939V119.454H118.788V106.182Z" fill="black"/>
<path d="M163.333 106.182H148.485V119.454H163.333V106.182Z" fill="black"/>
<path d="M178.182 106.182H163.333V119.454H178.182V106.182Z" fill="black"/>
<path d="M193.03 106.182H178.182V119.454H193.03V106.182Z" fill="black"/>
<path d="M207.879 106.182H193.03V119.454H207.879V106.182Z" fill="black"/>
<path d="M222.727 106.182H207.879V119.454H222.727V106.182Z" fill="black"/>
<path d="M252.424 106.182H237.576V119.454H252.424V106.182Z" fill="black"/>
<path d="M267.273 106.182H252.424V119.454H267.273V106.182Z" fill="black"/>
<path d="M311.818 106.182H296.97V119.454H311.818V106.182Z" fill="black"/>
<path d="M341.515 106.182H326.667V119.454H341.515V106.182Z" fill="black"/>
<path d="M386.061 106.182H371.212V119.454H386.061V106.182Z" fill="black"/>
<path d="M415.758 106.182H400.909V119.454H415.758V106.182Z" fill="black"/>
<path d="M430.606 106.182H415.758V119.454H430.606V106.182Z" fill="black"/>
<path d="M14.8485 119.455H0V132.727H14.8485V119.455Z" fill="black"/>
<path d="M29.697 119.455H14.8485V132.727H29.697V119.455Z" fill="black"/>
<path d="M74.2424 119.455H59.3939V132.727H74.2424V119.455Z" fill="black"/>
<path d="M89.0909 119.455H74.2424V132.727H89.0909V119.455Z" fill="black"/>
<path d="M133.636 119.455H118.788V132.727H133.636V119.455Z" fill="black"/>
<path d="M148.485 119.455H133.636V132.727H148.485V119.455Z" fill="black"/>
<path d="M193.03 119.455H178.182V132.727H193.03V119.455Z" fill="black"/>
<path d="M237.576 119.455H222.727V132.727H237.576V119.455Z" fill="black"/>
<path d="M252.424 119.455H237.576V132.727H252.424V119.455Z" fill="black"/>
<path d="M296.97 119.455H282.121V132.727H296.97V119.455Z" fill="black"/>
<path d="M326.667 119.455H311.818V132.727H326.667V119.455Z" fill="black"/>
<path d="M341.515 119.455H326.667V132.727H341.515V119.455Z" fill="black"/>
<path d="M371.212 119.455H356.364V132.727H371.212V119.455Z" fill="black"/>
<path d="M386.061 119.455H371.212V132.727H386.061V119.455Z" fill="black"/>
<path d="M415.758 119.455H400.909V132.727H415.758V119.455Z" fill="black"/>
<path d="M430.606 119.455H415.758V132.727H430.606V119.455Z" fill="black"/>
<path d="M59.3939 132.727H44.5454V146H59.3939V132.727Z" fill="black"/>
<path d="M103.939 132.727H89.0909V146H103.939V132.727Z" fill="black"/>
<path d="M133.636 132.727H118.788V146H133.636V132.727Z" fill="black"/>
<path d="M148.485 132.727H133.636V146H148.485V132.727Z" fill="black"/>
<path d="M163.333 132.727H148.485V146H163.333V132.727Z" fill="black"/>
<path d="M222.727 132.727H207.879V146H222.727V132.727Z" fill="black"/>
<path d="M237.576 132.727H222.727V146H237.576V132.727Z" fill="black"/>
<path d="M356.364 132.727H341.515V146H356.364V132.727Z" fill="black"/>
<path d="M386.061 132.727H371.212V146H386.061V132.727Z" fill="black"/>
<path d="M400.909 132.727H386.061V146H400.909V132.727Z" fill="black"/>
<path d="M415.758 132.727H400.909V146H415.758V132.727Z" fill="black"/>
<path d="M14.8485 146H0V159.273H14.8485V146Z" fill="black"/>
<path d="M29.697 146H14.8485V159.273H29.697V146Z" fill="black"/>
<path d="M118.788 146H103.939V159.273H118.788V146Z" fill="black"/>
<path d="M133.636 146H118.788V159.273H133.636V146Z" fill="black"/>
<path d="M148.485 146H133.636V159.273H148.485V146Z" fill="black"/>
<path d="M178.182 146H163.333V159.273H178.182V146Z" fill="black"/>
<path d="M193.03 146H178.182V159.273H193.03V146Z" fill="black"/>
<path d="M207.879 146H193.03V159.273H207.879V146Z" fill="black"/>
<path d="M222.727 146H207.879V159.273H222.727V146Z" fill="black"/>
<path d="M237.576 146H222.727V159.273H237.576V146Z" fill="black"/>
<path d="M282.121 146H267.273V159.273H282.121V146Z" fill="black"/>
<path d="M341.515 146H326.667V159.273H341.515V146Z" fill="black"/>
<path d="M356.364 146H341.515V159.273H356.364V146Z" fill="black"/>
<path d="M386.061 146H371.212V159.273H386.061V146Z" fill="black"/>
<path d="M430.606 146H415.758V159.273H430.606V146Z" fill="black"/>
<path d="M44.5455 159.273H29.697V172.546H44.5455V159.273Z" fill="black"/>
<path d="M59.3939 159.273H44.5454V172.546H59.3939V159.273Z" fill="black"/>
<path d="M74.2424 159.273H59.3939V172.546H74.2424V159.273Z" fill="black"/>
<path d="M89.0909 159.273H74.2424V172.546H89.0909V159.273Z" fill="black"/>
<path d="M103.939 159.273H89.0909V172.546H103.939V159.273Z" fill="black"/>
<path d="M118.788 159.273H103.939V172.546H118.788V159.273Z" fill="black"/>
<path d="M133.636 159.273H118.788V172.546H133.636V159.273Z" fill="black"/>
<path d="M148.485 159.273H133.636V172.546H148.485V159.273Z" fill="black"/>
<path d="M267.273 159.273H252.424V172.546H267.273V159.273Z" fill="black"/>
<path d="M282.121 159.273H267.273V172.546H282.121V159.273Z" fill="black"/>
<path d="M296.97 159.273H282.121V172.546H296.97V159.273Z" fill="black"/>
<path d="M356.364 159.273H341.515V172.546H356.364V159.273Z" fill="black"/>
<path d="M400.909 159.273H386.061V172.546H400.909V159.273Z" fill="black"/>
<path d="M415.758 159.273H400.909V172.546H415.758V159.273Z" fill="black"/>
<path d="M29.697 172.545H14.8485V185.818H29.697V172.545Z" fill="black"/>
<path d="M59.3939 172.545H44.5454V185.818H59.3939V172.545Z" fill="black"/>
<path d="M89.0909 172.545H74.2424V185.818H89.0909V172.545Z" fill="black"/>
<path d="M148.485 172.545H133.636V185.818H148.485V172.545Z" fill="black"/>
<path d="M193.03 172.545H178.182V185.818H193.03V172.545Z" fill="black"/>
<path d="M207.879 172.545H193.03V185.818H207.879V172.545Z" fill="black"/>
<path d="M267.273 172.545H252.424V185.818H267.273V172.545Z" fill="black"/>
<path d="M282.121 172.545H267.273V185.818H282.121V172.545Z" fill="black"/>
<path d="M296.97 172.545H282.121V185.818H296.97V172.545Z" fill="black"/>
<path d="M311.818 172.545H296.97V185.818H311.818V172.545Z" fill="black"/>
<path d="M326.667 172.545H311.818V185.818H326.667V172.545Z" fill="black"/>
<path d="M341.515 172.545H326.667V185.818H341.515V172.545Z" fill="black"/>
<path d="M400.909 172.545H386.061V185.818H400.909V172.545Z" fill="black"/>
<path d="M415.758 172.545H400.909V185.818H415.758V172.545Z" fill="black"/>
<path d="M430.606 172.545H415.758V185.818H430.606V172.545Z" fill="black"/>
<path d="M29.697 185.818H14.8485V199.091H29.697V185.818Z" fill="black"/>
<path d="M44.5455 185.818H29.697V199.091H44.5455V185.818Z" fill="black"/>
<path d="M59.3939 185.818H44.5454V199.091H59.3939V185.818Z" fill="black"/>
<path d="M74.2424 185.818H59.3939V199.091H74.2424V185.818Z" fill="black"/>
<path d="M89.0909 185.818H74.2424V199.091H89.0909V185.818Z" fill="black"/>
<path d="M103.939 185.818H89.0909V199.091H103.939V185.818Z" fill="black"/>
<path d="M148.485 185.818H133.636V199.091H148.485V185.818Z" fill="black"/>
<path d="M163.333 185.818H148.485V199.091H163.333V185.818Z" fill="black"/>
<path d="M222.727 185.818H207.879V199.091H222.727V185.818Z" fill="black"/>
<path d="M267.273 185.818H252.424V199.091H267.273V185.818Z" fill="black"/>
<path d="M296.97 185.818H282.121V199.091H296.97V185.818Z" fill="black"/>
<path d="M341.515 185.818H326.667V199.091H341.515V185.818Z" fill="black"/>
<path d="M356.364 185.818H341.515V199.091H356.364V185.818Z" fill="black"/>
<path d="M386.061 185.818H371.212V199.091H386.061V185.818Z" fill="black"/>
<path d="M415.758 185.818H400.909V199.091H415.758V185.818Z" fill="black"/>
<path d="M430.606 185.818H415.758V199.091H430.606V185.818Z" fill="black"/>
<path d="M14.8485 199.091H0V212.364H14.8485V199.091Z" fill="black"/>
<path d="M29.697 199.091H14.8485V212.364H29.697V199.091Z" fill="black"/>
<path d="M59.3939 199.091H44.5454V212.364H59.3939V199.091Z" fill="black"/>
<path d="M89.0909 199.091H74.2424V212.364H89.0909V199.091Z" fill="black"/>
<path d="M118.788 199.091H103.939V212.364H118.788V199.091Z" fill="black"/>
<path d="M133.636 199.091H118.788V212.364H133.636V199.091Z" fill="black"/>
<path d="M163.333 199.091H148.485V212.364H163.333V199.091Z" fill="black"/>
<path d="M178.182 199.091H163.333V212.364H178.182V199.091Z" fill="black"/>
<path d="M207.879 199.091H193.03V212.364H207.879V199.091Z" fill="black"/>
<path d="M237.576 199.091H222.727V212.364H237.576V199.091Z" fill="black"/>
<path d="M252.424 199.091H237.576V212.364H252.424V199.091Z" fill="black"/>
<path d="M282.121 199.091H267.273V212.364H282.121V199.091Z" fill="black"/>
<path d="M341.515 199.091H326.667V212.364H341.515V199.091Z" fill="black"/>
<path d="M356.364 199.091H341.515V212.364H356.364V199.091Z" fill="black"/>
<path d="M371.212 199.091H356.364V212.364H371.212V199.091Z" fill="black"/>
<path d="M386.061 199.091H371.212V212.364H386.061V199.091Z" fill="black"/>
<path d="M430.606 199.091H415.758V212.364H430.606V199.091Z" fill="black"/>
<path d="M44.5455 212.364H29.697V225.636H44.5455V212.364Z" fill="black"/>
<path d="M74.2424 212.364H59.3939V225.636H74.2424V212.364Z" fill="black"/>
<path d="M89.0909 212.364H74.2424V225.636H89.0909V212.364Z" fill="black"/>
<path d="M103.939 212.364H89.0909V225.636H103.939V212.364Z" fill="black"/>
<path d="M118.788 212.364H103.939V225.636H118.788V212.364Z" fill="black"/>
<path d="M148.485 212.364H133.636V225.636H148.485V212.364Z" fill="black"/>
<path d="M178.182 212.364H163.333V225.636H178.182V212.364Z" fill="black"/>
<path d="M193.03 212.364H178.182V225.636H193.03V212.364Z" fill="black"/>
<path d="M252.424 212.364H237.576V225.636H252.424V212.364Z" fill="black"/>
<path d="M311.818 212.364H296.97V225.636H311.818V212.364Z" fill="black"/>
<path d="M326.667 212.364H311.818V225.636H326.667V212.364Z" fill="black"/>
<path d="M356.364 212.364H341.515V225.636H356.364V212.364Z" fill="black"/>
<path d="M371.212 212.364H356.364V225.636H371.212V212.364Z" fill="black"/>
<path d="M386.061 212.364H371.212V225.636H386.061V212.364Z" fill="black"/>
<path d="M415.758 212.364H400.909V225.636H415.758V212.364Z" fill="black"/>
<path d="M430.606 212.364H415.758V225.636H430.606V212.364Z" fill="black"/>
<path d="M59.3939 225.636H44.5454V238.909H59.3939V225.636Z" fill="black"/>
<path d="M89.0909 225.636H74.2424V238.909H89.0909V225.636Z" fill="black"/>
<path d="M133.636 225.636H118.788V238.909H133.636V225.636Z" fill="black"/>
<path d="M148.485 225.636H133.636V238.909H148.485V225.636Z" fill="black"/>
<path d="M163.333 225.636H148.485V238.909H163.333V225.636Z" fill="black"/>
<path d="M193.03 225.636H178.182V238.909H193.03V225.636Z" fill="black"/>
<path d="M207.879 225.636H193.03V238.909H207.879V225.636Z" fill="black"/>
<path d="M237.576 225.636H222.727V238.909H237.576V225.636Z" fill="black"/>
<path d="M252.424 225.636H237.576V238.909H252.424V225.636Z" fill="black"/>
<path d="M282.121 225.636H267.273V238.909H282.121V225.636Z" fill="black"/>
<path d="M356.364 225.636H341.515V238.909H356.364V225.636Z" fill="black"/>
<path d="M14.8485 238.909H0V252.182H14.8485V238.909Z" fill="black"/>
<path d="M89.0909 238.909H74.2424V252.182H89.0909V238.909Z" fill="black"/>
<path d="M103.939 238.909H89.0909V252.182H103.939V238.909Z" fill="black"/>
<path d="M148.485 238.909H133.636V252.182H148.485V238.909Z" fill="black"/>
<path d="M237.576 238.909H222.727V252.182H237.576V238.909Z" fill="black"/>
<path d="M252.424 238.909H237.576V252.182H252.424V238.909Z" fill="black"/>
<path d="M341.515 238.909H326.667V252.182H341.515V238.909Z" fill="black"/>
<path d="M356.364 238.909H341.515V252.182H356.364V238.909Z" fill="black"/>
<path d="M371.212 238.909H356.364V252.182H371.212V238.909Z" fill="black"/>
<path d="M386.061 238.909H371.212V252.182H386.061V238.909Z" fill="black"/>
<path d="M400.909 238.909H386.061V252.182H400.909V238.909Z" fill="black"/>
<path d="M44.5455 252.182H29.697V265.454H44.5455V252.182Z" fill="black"/>
<path d="M59.3939 252.182H44.5454V265.454H59.3939V252.182Z" fill="black"/>
<path d="M118.788 252.182H103.939V265.454H118.788V252.182Z" fill="black"/>
<path d="M133.636 252.182H118.788V265.454H133.636V252.182Z" fill="black"/>
<path d="M163.333 252.182H148.485V265.454H163.333V252.182Z" fill="black"/>
<path d="M178.182 252.182H163.333V265.454H178.182V252.182Z" fill="black"/>
<path d="M193.03 252.182H178.182V265.454H193.03V252.182Z" fill="black"/>
<path d="M267.273 252.182H252.424V265.454H267.273V252.182Z" fill="black"/>
<path d="M282.121 252.182H267.273V265.454H282.121V252.182Z" fill="black"/>
<path d="M296.97 252.182H282.121V265.454H296.97V252.182Z" fill="black"/>
<path d="M311.818 252.182H296.97V265.454H311.818V252.182Z" fill="black"/>
<path d="M326.667 252.182H311.818V265.454H326.667V252.182Z" fill="black"/>
<path d="M341.515 252.182H326.667V265.454H341.515V252.182Z" fill="black"/>
<path d="M386.061 252.182H371.212V265.454H386.061V252.182Z" fill="black"/>
<path d="M400.909 252.182H386.061V265.454H400.909V252.182Z" fill="black"/>
<path d="M29.697 265.455H14.8485V278.727H29.697V265.455Z" fill="black"/>
<path d="M44.5455 265.455H29.697V278.727H44.5455V265.455Z" fill="black"/>
<path d="M59.3939 265.455H44.5454V278.727H59.3939V265.455Z" fill="black"/>
<path d="M74.2424 265.455H59.3939V278.727H74.2424V265.455Z" fill="black"/>
<path d="M89.0909 265.455H74.2424V278.727H89.0909V265.455Z" fill="black"/>
<path d="M103.939 265.455H89.0909V278.727H103.939V265.455Z" fill="black"/>
<path d="M193.03 265.455H178.182V278.727H193.03V265.455Z" fill="black"/>
<path d="M207.879 265.455H193.03V278.727H207.879V265.455Z" fill="black"/>
<path d="M267.273 265.455H252.424V278.727H267.273V265.455Z" fill="black"/>
<path d="M311.818 265.455H296.97V278.727H311.818V265.455Z" fill="black"/>
<path d="M326.667 265.455H311.818V278.727H326.667V265.455Z" fill="black"/>
<path d="M341.515 265.455H326.667V278.727H341.515V265.455Z" fill="black"/>
<path d="M356.364 265.455H341.515V278.727H356.364V265.455Z" fill="black"/>
<path d="M371.212 265.455H356.364V278.727H371.212V265.455Z" fill="black"/>
<path d="M386.061 265.455H371.212V278.727H386.061V265.455Z" fill="black"/>
<path d="M400.909 265.455H386.061V278.727H400.909V265.455Z" fill="black"/>
<path d="M133.636 278.727H118.788V292H133.636V278.727Z" fill="black"/>
<path d="M148.485 278.727H133.636V292H148.485V278.727Z" fill="black"/>
<path d="M163.333 278.727H148.485V292H163.333V278.727Z" fill="black"/>
<path d="M178.182 278.727H163.333V292H178.182V278.727Z" fill="black"/>
<path d="M193.03 278.727H178.182V292H193.03V278.727Z" fill="black"/>
<path d="M207.879 278.727H193.03V292H207.879V278.727Z" fill="black"/>
<path d="M222.727 278.727H207.879V292H222.727V278.727Z" fill="black"/>
<path d="M296.97 278.727H282.121V292H296.97V278.727Z" fill="black"/>
<path d="M311.818 278.727H296.97V292H311.818V278.727Z" fill="black"/>
<path d="M371.212 278.727H356.364V292H371.212V278.727Z" fill="black"/>
<path d="M386.061 278.727H371.212V292H386.061V278.727Z" fill="black"/>
<path d="M415.758 278.727H400.909V292H415.758V278.727Z" fill="black"/>
<path d="M133.636 292H118.788V305.273H133.636V292Z" fill="black"/>
<path d="M178.182 292H163.333V305.273H178.182V292Z" fill="black"/>
<path d="M207.879 292H193.03V305.273H207.879V292Z" fill="black"/>
<path d="M267.273 292H252.424V305.273H267.273V292Z" fill="black"/>
<path d="M282.121 292H267.273V305.273H282.121V292Z" fill="black"/>
<path d="M296.97 292H282.121V305.273H296.97V292Z" fill="black"/>
<path d="M311.818 292H296.97V305.273H311.818V292Z" fill="black"/>
<path d="M341.515 292H326.667V305.273H341.515V292Z" fill="black"/>
<path d="M371.212 292H356.364V305.273H371.212V292Z" fill="black"/>
<path d="M386.061 292H371.212V305.273H386.061V292Z" fill="black"/>
<path d="M400.909 292H386.061V305.273H400.909V292Z" fill="black"/>
<path d="M415.758 292H400.909V305.273H415.758V292Z" fill="black"/>
<path d="M133.636 305.273H118.788V318.546H133.636V305.273Z" fill="black"/>
<path d="M163.333 305.273H148.485V318.546H163.333V305.273Z" fill="black"/>
<path d="M252.424 305.273H237.576V318.546H252.424V305.273Z" fill="black"/>
<path d="M296.97 305.273H282.121V318.546H296.97V305.273Z" fill="black"/>
<path d="M311.818 305.273H296.97V318.546H311.818V305.273Z" fill="black"/>
<path d="M371.212 305.273H356.364V318.546H371.212V305.273Z" fill="black"/>
<path d="M386.061 305.273H371.212V318.546H386.061V305.273Z" fill="black"/>
<path d="M415.758 305.273H400.909V318.546H415.758V305.273Z" fill="black"/>
<path d="M430.606 305.273H415.758V318.546H430.606V305.273Z" fill="black"/>
<path d="M148.485 318.545H133.636V331.818H148.485V318.545Z" fill="black"/>
<path d="M178.182 318.545H163.333V331.818H178.182V318.545Z" fill="black"/>
<path d="M193.03 318.545H178.182V331.818H193.03V318.545Z" fill="black"/>
<path d="M222.727 318.545H207.879V331.818H222.727V318.545Z" fill="black"/>
<path d="M237.576 318.545H222.727V331.818H237.576V318.545Z" fill="black"/>
<path d="M252.424 318.545H237.576V331.818H252.424V318.545Z" fill="black"/>
<path d="M267.273 318.545H252.424V331.818H267.273V318.545Z" fill="black"/>
<path d="M282.121 318.545H267.273V331.818H282.121V318.545Z" fill="black"/>
<path d="M311.818 318.545H296.97V331.818H311.818V318.545Z" fill="black"/>
<path d="M326.667 318.545H311.818V331.818H326.667V318.545Z" fill="black"/>
<path d="M341.515 318.545H326.667V331.818H341.515V318.545Z" fill="black"/>
<path d="M356.364 318.545H341.515V331.818H356.364V318.545Z" fill="black"/>
<path d="M371.212 318.545H356.364V331.818H371.212V318.545Z" fill="black"/>
<path d="M400.909 318.545H386.061V331.818H400.909V318.545Z" fill="black"/>
<path d="M415.758 318.545H400.909V331.818H415.758V318.545Z" fill="black"/>
<path d="M133.636 331.818H118.788V345.091H133.636V331.818Z" fill="black"/>
<path d="M148.485 331.818H133.636V345.091H148.485V331.818Z" fill="black"/>
<path d="M163.333 331.818H148.485V345.091H163.333V331.818Z" fill="black"/>
<path d="M178.182 331.818H163.333V345.091H178.182V331.818Z" fill="black"/>
<path d="M193.03 331.818H178.182V345.091H193.03V331.818Z" fill="black"/>
<path d="M222.727 331.818H207.879V345.091H222.727V331.818Z" fill="black"/>
<path d="M237.576 331.818H222.727V345.091H237.576V331.818Z" fill="black"/>
<path d="M267.273 331.818H252.424V345.091H267.273V331.818Z" fill="black"/>
<path d="M282.121 331.818H267.273V345.091H282.121V331.818Z" fill="black"/>
<path d="M326.667 331.818H311.818V345.091H326.667V331.818Z" fill="black"/>
<path d="M356.364 331.818H341.515V345.091H356.364V331.818Z" fill="black"/>
<path d="M371.212 331.818H356.364V345.091H371.212V331.818Z" fill="black"/>
<path d="M400.909 331.818H386.061V345.091H400.909V331.818Z" fill="black"/>
<path d="M430.606 331.818H415.758V345.091H430.606V331.818Z" fill="black"/>
<path d="M133.636 345.091H118.788V358.364H133.636V345.091Z" fill="black"/>
<path d="M148.485 345.091H133.636V358.364H148.485V345.091Z" fill="black"/>
<path d="M178.182 345.091H163.333V358.364H178.182V345.091Z" fill="black"/>
<path d="M193.03 345.091H178.182V358.364H193.03V345.091Z" fill="black"/>
<path d="M207.879 345.091H193.03V358.364H207.879V345.091Z" fill="black"/>
<path d="M222.727 345.091H207.879V358.364H222.727V345.091Z" fill="black"/>
<path d="M311.818 345.091H296.97V358.364H311.818V345.091Z" fill="black"/>
<path d="M356.364 345.091H341.515V358.364H356.364V345.091Z" fill="black"/>
<path d="M386.061 345.091H371.212V358.364H386.061V345.091Z" fill="black"/>
<path d="M430.606 345.091H415.758V358.364H430.606V345.091Z" fill="black"/>
<path d="M148.485 358.364H133.636V371.636H148.485V358.364Z" fill="black"/>
<path d="M163.333 358.364H148.485V371.636H163.333V358.364Z" fill="black"/>
<path d="M178.182 358.364H163.333V371.636H178.182V358.364Z" fill="black"/>
<path d="M222.727 358.364H207.879V371.636H222.727V358.364Z" fill="black"/>
<path d="M252.424 358.364H237.576V371.636H252.424V358.364Z" fill="black"/>
<path d="M282.121 358.364H267.273V371.636H282.121V358.364Z" fill="black"/>
<path d="M311.818 358.364H296.97V371.636H311.818V358.364Z" fill="black"/>
<path d="M341.515 358.364H326.667V371.636H341.515V358.364Z" fill="black"/>
<path d="M356.364 358.364H341.515V371.636H356.364V358.364Z" fill="black"/>
<path d="M371.212 358.364H356.364V371.636H371.212V358.364Z" fill="black"/>
<path d="M386.061 358.364H371.212V371.636H386.061V358.364Z" fill="black"/>
<path d="M415.758 358.364H400.909V371.636H415.758V358.364Z" fill="black"/>
<path d="M133.636 371.636H118.788V384.909H133.636V371.636Z" fill="black"/>
<path d="M163.333 371.636H148.485V384.909H163.333V371.636Z" fill="black"/>
<path d="M207.879 371.636H193.03V384.909H207.879V371.636Z" fill="black"/>
<path d="M222.727 371.636H207.879V384.909H222.727V371.636Z" fill="black"/>
<path d="M252.424 371.636H237.576V384.909H252.424V371.636Z" fill="black"/>
<path d="M296.97 371.636H282.121V384.909H296.97V371.636Z" fill="black"/>
<path d="M311.818 371.636H296.97V384.909H311.818V371.636Z" fill="black"/>
<path d="M326.667 371.636H311.818V384.909H326.667V371.636Z" fill="black"/>
<path d="M341.515 371.636H326.667V384.909H341.515V371.636Z" fill="black"/>
<path d="M371.212 371.636H356.364V384.909H371.212V371.636Z" fill="black"/>
<path d="M415.758 371.636H400.909V384.909H415.758V371.636Z" fill="black"/>
<path d="M88.3485 0H15.5909H0V13.9364V78.9727V92.9091H15.5909H88.3485H103.939V78.9727V13.9364V0H88.3485ZM88.3485 78.9727H15.5909V13.9364H88.3485V78.9727Z" fill="black"/>
<path d="M415.015 0H342.258H326.667V13.9364V78.9727V92.9091H342.258H415.015H430.606V78.9727V13.9364V0H415.015ZM415.015 78.9727H342.258V13.9364H415.015V78.9727Z" fill="black"/>
<path d="M88.3485 292H15.5909H0V305.936V370.973V384.909H15.5909H88.3485H103.939V370.973V305.936V292H88.3485ZM88.3485 370.973H15.5909V305.936H88.3485V370.973Z" fill="black"/>
<path d="M74.2425 26.5454H29.697V66.3636H74.2425V26.5454Z" fill="black"/>
<path d="M400.909 26.5454H356.364V66.3636H400.909V26.5454Z" fill="black"/>
<path d="M74.2425 318.545H29.697V358.364H74.2425V318.545Z" fill="black"/>
</svg>
