<svg width="315" height="43" viewBox="0 0 315 43" fill="none" xmlns="http://www.w3.org/2000/svg">
<path d="M38.6323 28.5659C39.0083 28.5838 39.4648 28.5928 40.002 28.5928C40.5391 28.5928 40.9867 28.5838 41.3447 28.5659C41.7207 28.5301 42.1056 28.4585 42.4995 28.3511C42.8934 28.2257 43.2067 28.0646 43.4395 27.8677C43.6722 27.6707 43.8602 27.3932 44.0034 27.0352C44.1646 26.6592 44.2451 26.2116 44.2451 25.6924V2.32812H46.1787V25.6924C46.1787 28.915 44.1198 30.5264 40.002 30.5264C37.9251 30.5264 36.3854 30.1325 35.3828 29.3447C35.2396 30.043 35.0695 30.6606 34.8726 31.1978C36.2332 32.0392 37.943 32.46 40.002 32.46C42.401 32.46 44.3525 31.9049 45.8564 30.7949C47.3604 29.667 48.1123 27.9661 48.1123 25.6924V2.32812H50.0459V25.6924C50.0459 28.5033 49.097 30.6606 47.1992 32.1646C45.3193 33.6506 42.9202 34.3936 40.002 34.3936C37.7282 34.3936 35.7767 33.9281 34.1475 32.9971C33.8789 33.57 33.5656 34.116 33.2075 34.6353C35.159 35.7632 37.4238 36.3271 40.002 36.3271C41.667 36.3271 43.2157 36.0944 44.6479 35.6289C46.0981 35.1634 47.3693 34.492 48.4614 33.6147C49.5535 32.7375 50.4129 31.6185 51.0396 30.2578C51.6662 28.8971 51.9795 27.3753 51.9795 25.6924V2.32812H53.9131V25.6924C53.9131 28.2705 53.2775 30.5264 52.0063 32.46C50.7531 34.3936 49.0791 35.8438 46.9844 36.8105C44.9076 37.7773 42.5801 38.2607 40.002 38.2607C36.9941 38.2607 34.3444 37.5715 32.0527 36.1929C31.5514 36.7658 31.0949 37.2313 30.6831 37.5894C33.3507 39.326 36.457 40.1943 40.002 40.1943C42.9202 40.1943 45.57 39.6214 47.9512 38.4756C50.3324 37.3298 52.2391 35.6468 53.6714 33.4268C55.1216 31.1888 55.8467 28.6107 55.8467 25.6924V2.32812H57.7803V25.6924C57.7803 28.1631 57.3058 30.4368 56.3569 32.5137C55.4259 34.5905 54.1548 36.3271 52.5435 37.7236C50.95 39.1201 49.0701 40.2033 46.9038 40.9731C44.7375 41.743 42.4368 42.1279 40.002 42.1279C35.7409 42.1279 32.0975 41.0358 29.0718 38.8516C25.9386 41.0358 22.2415 42.1279 17.9805 42.1279C15.5456 42.1279 13.245 41.743 11.0786 40.9731C8.91227 40.2033 7.02344 39.1201 5.41211 37.7236C3.81868 36.3271 2.54753 34.5905 1.59863 32.5137C0.667643 30.4368 0.202148 28.1631 0.202148 25.6924V2.32812H2.13574V25.6924C2.13574 27.8945 2.54753 29.9176 3.37109 31.7617C4.21257 33.6058 5.34945 35.1366 6.78174 36.354C8.21403 37.5715 9.88802 38.5203 11.8037 39.2007C13.7373 39.8631 15.7962 40.1943 17.9805 40.1943C20.8271 40.1943 23.4679 39.5498 25.9028 38.2607C28.3377 36.9538 30.2624 35.1903 31.6768 32.9702C33.109 30.7323 33.8252 28.3063 33.8252 25.6924V2.32812H35.7588V25.6924C35.7588 26.2116 35.8304 26.6592 35.9736 27.0352C36.1348 27.3932 36.3317 27.6707 36.5645 27.8677C36.7972 28.0646 37.1105 28.2257 37.5044 28.3511C37.8983 28.4585 38.2743 28.5301 38.6323 28.5659ZM24.1572 2.32812V25.6924C24.1572 28.915 22.0983 30.5264 17.9805 30.5264C13.8626 30.5264 11.8037 28.915 11.8037 25.6924V2.32812H13.7373V25.6924C13.7373 26.2116 13.8089 26.6592 13.9521 27.0352C14.1133 27.3932 14.3102 27.6707 14.543 27.8677C14.7757 28.0646 15.089 28.2257 15.4829 28.3511C15.8768 28.4585 16.2528 28.5301 16.6108 28.5659C16.9868 28.5838 17.4434 28.5928 17.9805 28.5928C18.5176 28.5928 18.9652 28.5838 19.3232 28.5659C19.6992 28.5301 20.0841 28.4585 20.478 28.3511C20.8719 28.2257 21.1852 28.0646 21.418 27.8677C21.6507 27.6707 21.8387 27.3932 21.9819 27.0352C22.1431 26.6592 22.2236 26.2116 22.2236 25.6924V2.32812H24.1572ZM28.0244 2.32812V25.6924C28.0244 28.5033 27.0755 30.6606 25.1777 32.1646C23.2979 33.6506 20.8988 34.3936 17.9805 34.3936C15.0622 34.3936 12.6541 33.6506 10.7563 32.1646C8.87646 30.6606 7.93652 28.5033 7.93652 25.6924V2.32812H9.87012V25.6924C9.87012 27.9661 10.6221 29.667 12.126 30.7949C13.6299 31.9049 15.5814 32.46 17.9805 32.46C20.3796 32.46 22.3311 31.9049 23.835 30.7949C25.3389 29.667 26.0908 27.9661 26.0908 25.6924V2.32812H28.0244ZM31.8916 2.32812V25.6924C31.8916 28.2705 31.256 30.5264 29.9849 32.46C28.7316 34.3936 27.0576 35.8438 24.9629 36.8105C22.8861 37.7773 20.5586 38.2607 17.9805 38.2607C15.4023 38.2607 13.0659 37.7773 10.9712 36.8105C8.89437 35.8438 7.22038 34.3936 5.94922 32.46C4.69596 30.5264 4.06934 28.2705 4.06934 25.6924V2.32812H6.00293V25.6924C6.00293 27.3753 6.31624 28.8971 6.94287 30.2578C7.5695 31.6185 8.42887 32.7375 9.521 33.6147C10.6131 34.492 11.8753 35.1634 13.3076 35.6289C14.7578 36.0944 16.3154 36.3271 17.9805 36.3271C19.6455 36.3271 21.1942 36.0944 22.6265 35.6289C24.0767 35.1634 25.3478 34.492 26.4399 33.6147C27.5321 32.7375 28.3914 31.6185 29.0181 30.2578C29.6447 28.8971 29.958 27.3753 29.958 25.6924V2.32812H31.8916ZM72.3091 41H70.3755V2.32812H72.3091V41ZM68.4419 41H66.5083V2.32812H68.4419V41ZM64.5747 41H62.6411V2.32812H64.5747V41ZM76.1763 31.332H94.6797V33.2656H76.1763V35.1992H94.6797V37.1328H76.1763V39.0664H94.6797V41H74.2427V2.32812H94.6797V4.26172H76.1763V6.19531H94.6797V8.12891H76.1763V10.0625H94.6797V11.9961H76.1763V16.8032H93.6055V18.7368H76.1763V20.6704H93.6055V22.604H76.1763V24.5376H93.6055V26.4712H76.1763V31.332ZM99.3257 2.32812H101.259V41H99.3257V2.32812ZM110.927 2.32812H112.861V31.332H127.121V33.2656H112.861V35.1992H127.121V37.1328H112.861V39.0664H127.121V41H110.927V2.32812ZM107.06 2.32812H108.994V41H107.06V2.32812ZM103.193 2.32812H105.126V41H103.193V2.32812ZM159.213 15.6484L157.656 16.8301C156.098 14.8965 154.093 13.9297 151.64 13.9297C149.51 13.9297 147.683 14.6906 146.162 16.2124C144.658 17.7163 143.906 19.5335 143.906 21.6641C143.906 23.7946 144.658 25.6208 146.162 27.1426C147.683 28.6465 149.51 29.3984 151.64 29.3984C152.84 29.3984 153.959 29.1388 154.997 28.6196C156.053 28.1004 156.949 27.3843 157.683 26.4712L159.187 27.7334C158.291 28.8613 157.181 29.7476 155.856 30.3921C154.532 31.0187 153.126 31.332 151.64 31.332C148.972 31.332 146.69 30.3921 144.792 28.5122C142.912 26.6144 141.972 24.3317 141.972 21.6641C141.972 18.9964 142.912 16.7227 144.792 14.8428C146.69 12.945 148.972 11.9961 151.64 11.9961C153.144 11.9961 154.558 12.3273 155.883 12.9897C157.208 13.6343 158.318 14.5205 159.213 15.6484ZM162.221 13.2314L160.69 14.4131C159.616 13.0524 158.282 11.9871 156.689 11.2173C155.113 10.4474 153.431 10.0625 151.64 10.0625C148.435 10.0625 145.696 11.1994 143.422 13.4731C141.167 15.7469 140.039 18.4772 140.039 21.6641C140.039 24.8509 141.167 27.5812 143.422 29.855C145.696 32.1287 148.435 33.2656 151.64 33.2656C153.431 33.2656 155.122 32.8807 156.716 32.1108C158.309 31.3231 159.643 30.2489 160.717 28.8882L162.194 30.1235C160.941 31.6991 159.392 32.9434 157.548 33.8564C155.704 34.7516 153.735 35.1992 151.64 35.1992C149.187 35.1992 146.923 34.5994 144.846 33.3999C142.769 32.1825 141.122 30.5353 139.904 28.4585C138.705 26.3817 138.105 24.1169 138.105 21.6641C138.105 19.2113 138.705 16.9465 139.904 14.8696C141.122 12.7928 142.769 11.1546 144.846 9.95508C146.923 8.73763 149.187 8.12891 151.64 8.12891C153.735 8.12891 155.704 8.58545 157.548 9.49854C159.41 10.3937 160.968 11.638 162.221 13.2314ZM165.256 10.8145L163.752 12.0229C162.302 10.2147 160.52 8.79134 158.408 7.75293C156.295 6.71452 154.039 6.19531 151.64 6.19531C149.545 6.19531 147.54 6.6071 145.625 7.43066C143.727 8.23633 142.08 9.3374 140.683 10.7339C139.305 12.1125 138.203 13.7596 137.38 15.6753C136.574 17.5731 136.171 19.5693 136.171 21.6641C136.171 23.7588 136.574 25.764 137.38 27.6797C138.203 29.5775 139.305 31.2246 140.683 32.6211C142.08 33.9997 143.727 35.1007 145.625 35.9243C147.54 36.73 149.545 37.1328 151.64 37.1328C154.039 37.1328 156.295 36.6136 158.408 35.5752C160.52 34.5368 162.302 33.1134 163.752 31.3052L165.202 32.5674C163.573 34.5905 161.577 36.1839 159.213 37.3477C156.85 38.4935 154.326 39.0664 151.64 39.0664C149.277 39.0664 147.021 38.6099 144.873 37.6968C142.724 36.7658 140.871 35.5304 139.313 33.9907C137.774 32.4331 136.538 30.5801 135.607 28.4316C134.694 26.2832 134.238 24.0273 134.238 21.6641C134.238 19.3008 134.694 17.0449 135.607 14.8965C136.538 12.748 137.774 10.904 139.313 9.36426C140.871 7.80664 142.724 6.57129 144.873 5.6582C147.021 4.72721 149.277 4.26172 151.64 4.26172C154.344 4.26172 156.877 4.84359 159.24 6.00732C161.621 7.17106 163.627 8.77344 165.256 10.8145ZM168.264 8.39746L166.706 9.55225C164.898 7.31429 162.678 5.55078 160.046 4.26172C157.432 2.97266 154.63 2.32812 151.64 2.32812C149.026 2.32812 146.52 2.83838 144.121 3.85889C141.739 4.87939 139.681 6.25798 137.944 7.99463C136.225 9.71338 134.855 11.7723 133.835 14.1714C132.814 16.5526 132.304 19.0501 132.304 21.6641C132.304 24.278 132.814 26.7845 133.835 29.1836C134.855 31.5648 136.225 33.6237 137.944 35.3604C139.681 37.0791 141.739 38.4487 144.121 39.4692C146.52 40.4897 149.026 41 151.64 41C154.63 41 157.432 40.3555 160.046 39.0664C162.678 37.7773 164.898 36.0138 166.706 33.7759L168.237 34.9575C166.25 37.4282 163.806 39.3797 160.905 40.812C158.023 42.2264 154.934 42.9336 151.64 42.9336C148.758 42.9336 146 42.3696 143.369 41.2417C140.755 40.1138 138.499 38.6009 136.601 36.7031C134.703 34.8053 133.19 32.5495 132.062 29.9355C130.935 27.3037 130.371 24.5465 130.371 21.6641C130.371 18.7816 130.935 16.0334 132.062 13.4194C133.19 10.7876 134.703 8.52279 136.601 6.625C138.499 4.72721 140.755 3.21436 143.369 2.08643C146 0.958496 148.758 0.394531 151.64 0.394531C154.934 0.394531 158.032 1.11068 160.932 2.54297C163.833 3.95736 166.276 5.90885 168.264 8.39746ZM186.713 16.2124C185.209 17.7163 184.458 19.5335 184.458 21.6641C184.458 23.7946 185.209 25.6208 186.713 27.1426C188.235 28.6465 190.061 29.3984 192.192 29.3984C194.322 29.3984 196.14 28.6465 197.644 27.1426C199.165 25.6208 199.926 23.7946 199.926 21.6641C199.926 19.5335 199.165 17.7163 197.644 16.2124C196.14 14.6906 194.322 13.9297 192.192 13.9297C190.061 13.9297 188.235 14.6906 186.713 16.2124ZM185.344 28.5122C183.464 26.6144 182.524 24.3317 182.524 21.6641C182.524 18.9964 183.464 16.7227 185.344 14.8428C187.242 12.945 189.524 11.9961 192.192 11.9961C194.86 11.9961 197.133 12.945 199.013 14.8428C200.911 16.7227 201.86 18.9964 201.86 21.6641C201.86 24.3317 200.911 26.6144 199.013 28.5122C197.133 30.3921 194.86 31.332 192.192 31.332C189.524 31.332 187.242 30.3921 185.344 28.5122ZM183.974 13.4731C181.718 15.7469 180.59 18.4772 180.59 21.6641C180.59 24.8509 181.718 27.5812 183.974 29.855C186.248 32.1287 188.987 33.2656 192.192 33.2656C195.397 33.2656 198.127 32.1287 200.383 29.855C202.657 27.5812 203.793 24.8509 203.793 21.6641C203.793 18.4772 202.657 15.7469 200.383 13.4731C198.127 11.1994 195.397 10.0625 192.192 10.0625C188.987 10.0625 186.248 11.1994 183.974 13.4731ZM180.456 28.4585C179.257 26.3817 178.657 24.1169 178.657 21.6641C178.657 19.2113 179.257 16.9465 180.456 14.8696C181.674 12.7928 183.321 11.1546 185.397 9.95508C187.474 8.73763 189.739 8.12891 192.192 8.12891C194.645 8.12891 196.91 8.73763 198.986 9.95508C201.063 11.1546 202.701 12.7928 203.901 14.8696C205.118 16.9465 205.727 19.2113 205.727 21.6641C205.727 24.1169 205.118 26.3817 203.901 28.4585C202.701 30.5353 201.063 32.1825 198.986 33.3999C196.91 34.5994 194.645 35.1992 192.192 35.1992C189.739 35.1992 187.474 34.5994 185.397 33.3999C183.321 32.1825 181.674 30.5353 180.456 28.4585ZM177.932 15.6753C177.126 17.5731 176.723 19.5693 176.723 21.6641C176.723 23.7588 177.126 25.764 177.932 27.6797C178.755 29.5775 179.856 31.2246 181.235 32.6211C182.631 33.9997 184.278 35.1007 186.176 35.9243C188.092 36.73 190.097 37.1328 192.192 37.1328C194.287 37.1328 196.283 36.73 198.181 35.9243C200.096 35.1007 201.743 33.9997 203.122 32.6211C204.519 31.2246 205.62 29.5775 206.425 27.6797C207.249 25.764 207.661 23.7588 207.661 21.6641C207.661 19.5693 207.249 17.5731 206.425 15.6753C205.62 13.7596 204.519 12.1125 203.122 10.7339C201.743 9.3374 200.096 8.23633 198.181 7.43066C196.283 6.6071 194.287 6.19531 192.192 6.19531C190.097 6.19531 188.092 6.6071 186.176 7.43066C184.278 8.23633 182.631 9.3374 181.235 10.7339C179.856 12.1125 178.755 13.7596 177.932 15.6753ZM176.159 28.4316C175.246 26.2832 174.79 24.0273 174.79 21.6641C174.79 19.3008 175.246 17.0449 176.159 14.8965C177.09 12.748 178.326 10.904 179.865 9.36426C181.423 7.80664 183.276 6.57129 185.424 5.6582C187.573 4.72721 189.829 4.26172 192.192 4.26172C194.555 4.26172 196.811 4.72721 198.959 5.6582C201.108 6.57129 202.952 7.80664 204.492 9.36426C206.049 10.904 207.285 12.748 208.198 14.8965C209.129 17.0449 209.594 19.3008 209.594 21.6641C209.594 24.0273 209.129 26.2832 208.198 28.4316C207.285 30.5801 206.049 32.4331 204.492 33.9907C202.952 35.5304 201.108 36.7658 198.959 37.6968C196.811 38.6099 194.555 39.0664 192.192 39.0664C189.829 39.0664 187.573 38.6099 185.424 37.6968C183.276 36.7658 181.423 35.5304 179.865 33.9907C178.326 32.4331 177.09 30.5801 176.159 28.4316ZM174.387 14.1714C173.366 16.5526 172.856 19.0501 172.856 21.6641C172.856 24.278 173.366 26.7845 174.387 29.1836C175.407 31.5648 176.777 33.6237 178.496 35.3604C180.232 37.0791 182.291 38.4487 184.672 39.4692C187.071 40.4897 189.578 41 192.192 41C194.806 41 197.303 40.4897 199.685 39.4692C202.084 38.4487 204.143 37.0791 205.861 35.3604C207.598 33.6237 208.977 31.5648 209.997 29.1836C211.018 26.7845 211.528 24.278 211.528 21.6641C211.528 19.0501 211.018 16.5526 209.997 14.1714C208.977 11.7723 207.598 9.71338 205.861 7.99463C204.143 6.25798 202.084 4.87939 199.685 3.85889C197.303 2.83838 194.806 2.32812 192.192 2.32812C189.578 2.32812 187.071 2.83838 184.672 3.85889C182.291 4.87939 180.232 6.25798 178.496 7.99463C176.777 9.71338 175.407 11.7723 174.387 14.1714ZM172.614 29.9355C171.486 27.3037 170.922 24.5465 170.922 21.6641C170.922 18.7816 171.486 16.0334 172.614 13.4194C173.742 10.7876 175.255 8.52279 177.153 6.625C179.051 4.72721 181.306 3.21436 183.92 2.08643C186.552 0.958496 189.309 0.394531 192.192 0.394531C195.074 0.394531 197.823 0.958496 200.437 2.08643C203.068 3.21436 205.333 4.72721 207.231 6.625C209.129 8.52279 210.642 10.7876 211.77 13.4194C212.897 16.0334 213.461 18.7816 213.461 21.6641C213.461 24.5465 212.897 27.3037 211.77 29.9355C210.642 32.5495 209.129 34.8053 207.231 36.7031C205.333 38.6009 203.068 40.1138 200.437 41.2417C197.823 42.3696 195.074 42.9336 192.192 42.9336C189.309 42.9336 186.552 42.3696 183.92 41.2417C181.306 40.1138 179.051 38.6009 177.153 36.7031C175.255 34.8053 173.742 32.5495 172.614 29.9355ZM242.519 16.8301V41H240.585V16.8301C240.585 16.3109 240.496 15.8722 240.317 15.5142C240.156 15.1382 239.941 14.8517 239.672 14.6548C239.404 14.4578 239.046 14.3057 238.598 14.1982C238.168 14.0729 237.748 14.0013 237.336 13.9834C236.924 13.9476 236.414 13.9297 235.805 13.9297C235.196 13.9297 234.686 13.9476 234.274 13.9834C233.863 14.0013 233.433 14.0729 232.985 14.1982C232.556 14.3057 232.207 14.4578 231.938 14.6548C231.669 14.8517 231.446 15.1382 231.267 15.5142C231.105 15.8722 231.025 16.3109 231.025 16.8301V41H229.091V16.8301C229.091 13.6074 231.329 11.9961 235.805 11.9961C240.281 11.9961 242.519 13.6074 242.519 16.8301ZM246.386 16.8301V41H244.453V16.8301C244.453 14.5563 243.647 12.8644 242.036 11.7544C240.442 10.6265 238.365 10.0625 235.805 10.0625C233.245 10.0625 231.159 10.6265 229.548 11.7544C227.954 12.8644 227.158 14.5563 227.158 16.8301V41H225.224V16.8301C225.224 14.9502 225.708 13.3389 226.674 11.9961C227.641 10.6533 228.903 9.67757 230.461 9.06885C232.036 8.44222 233.818 8.12891 235.805 8.12891C237.792 8.12891 239.565 8.44222 241.123 9.06885C242.698 9.67757 243.969 10.6533 244.936 11.9961C245.903 13.3389 246.386 14.9502 246.386 16.8301ZM250.253 16.8301V41H248.32V16.8301C248.32 15.1471 247.989 13.6253 247.326 12.2646C246.682 10.904 245.786 9.78499 244.641 8.90771C243.495 8.03044 242.17 7.35905 240.666 6.89355C239.162 6.42806 237.542 6.19531 235.805 6.19531C234.069 6.19531 232.448 6.42806 230.944 6.89355C229.44 7.35905 228.116 8.03044 226.97 8.90771C225.824 9.78499 224.92 10.904 224.257 12.2646C223.613 13.6253 223.291 15.1471 223.291 16.8301V41H221.357V16.8301C221.357 14.8786 221.733 13.1061 222.485 11.5127C223.255 9.91927 224.293 8.60335 225.6 7.56494C226.907 6.50863 228.438 5.69401 230.192 5.12109C231.947 4.54818 233.818 4.26172 235.805 4.26172C237.792 4.26172 239.663 4.54818 241.418 5.12109C243.173 5.69401 244.703 6.50863 246.01 7.56494C247.317 8.60335 248.347 9.91927 249.099 11.5127C249.868 13.1061 250.253 14.8786 250.253 16.8301ZM254.121 41H252.187V16.8301C252.187 14.8786 251.748 13.0076 250.871 11.2173C250.012 9.42692 248.848 7.88721 247.38 6.59814C245.912 5.29118 244.166 4.25277 242.143 3.48291C240.12 2.71305 238.007 2.32812 235.805 2.32812C232.779 2.32812 230.031 2.90104 227.561 4.04688C225.108 5.1748 223.138 6.85775 221.652 9.0957C220.166 11.3158 219.423 13.8939 219.423 16.8301V41H217.49V16.8301C217.49 14.3594 217.973 12.0856 218.94 10.0088C219.907 7.93197 221.214 6.19531 222.861 4.79883C224.526 3.40234 226.468 2.31917 228.688 1.54932C230.926 0.77946 233.299 0.394531 235.805 0.394531C240.245 0.394531 244.095 1.51351 247.353 3.75146C250.611 1.51351 254.461 0.394531 258.901 0.394531C261.407 0.394531 263.771 0.77946 265.991 1.54932C268.229 2.31917 270.171 3.40234 271.818 4.79883C273.483 6.19531 274.799 7.93197 275.766 10.0088C276.733 12.0856 277.216 14.3594 277.216 16.8301V41H275.283V16.8301C275.283 13.9118 274.54 11.3426 273.054 9.12256C271.568 6.8846 269.589 5.19271 267.119 4.04688C264.666 2.90104 261.927 2.32812 258.901 2.32812C255.105 2.32812 251.793 3.22331 248.964 5.01367C249.376 5.37174 249.833 5.83724 250.334 6.41016C252.787 4.97786 255.642 4.26172 258.901 4.26172C260.888 4.26172 262.759 4.54818 264.514 5.12109C266.268 5.69401 267.799 6.50863 269.106 7.56494C270.413 8.60335 271.442 9.91927 272.194 11.5127C272.964 13.1061 273.349 14.8786 273.349 16.8301V41H271.416V16.8301C271.416 15.1471 271.084 13.6253 270.422 12.2646C269.777 10.904 268.882 9.78499 267.736 8.90771C266.59 8.03044 265.266 7.35905 263.762 6.89355C262.258 6.42806 260.638 6.19531 258.901 6.19531C256.054 6.19531 253.592 6.77718 251.516 7.94092C251.838 8.44222 252.16 8.99723 252.482 9.60596C254.237 8.62126 256.376 8.12891 258.901 8.12891C260.888 8.12891 262.661 8.44222 264.218 9.06885C265.794 9.67757 267.065 10.6533 268.032 11.9961C268.999 13.3389 269.482 14.9502 269.482 16.8301V41H267.548V16.8301C267.548 14.5563 266.743 12.8644 265.131 11.7544C263.538 10.6265 261.461 10.0625 258.901 10.0625C256.573 10.0625 254.685 10.4922 253.234 11.3516C253.467 12.0319 253.646 12.6764 253.771 13.2852C254.899 12.4258 256.609 11.9961 258.901 11.9961C263.377 11.9961 265.615 13.6074 265.615 16.8301V41H263.681V16.8301C263.681 16.3109 263.592 15.8722 263.413 15.5142C263.251 15.1382 263.037 14.8517 262.768 14.6548C262.5 14.4578 262.141 14.3057 261.694 14.1982C261.264 14.0729 260.843 14.0013 260.432 13.9834C260.02 13.9476 259.51 13.9297 258.901 13.9297C258.292 13.9297 257.782 13.9476 257.37 13.9834C256.958 14.0013 256.529 14.0729 256.081 14.1982C255.651 14.3057 255.302 14.4578 255.034 14.6548C254.765 14.8517 254.541 15.1382 254.362 15.5142C254.201 15.8722 254.121 16.3109 254.121 16.8301V41ZM291.718 41H289.785V2.32812H291.718V41ZM287.851 41H285.917V2.32812H287.851V41ZM283.984 41H282.05V2.32812H283.984V41ZM295.585 31.332H314.089V33.2656H295.585V35.1992H314.089V37.1328H295.585V39.0664H314.089V41H293.652V2.32812H314.089V4.26172H295.585V6.19531H314.089V8.12891H295.585V10.0625H314.089V11.9961H295.585V16.8032H313.015V18.7368H295.585V20.6704H313.015V22.604H295.585V24.5376H313.015V26.4712H295.585V31.332Z" fill="black"/>
</svg>
