<svg width="84" height="28" viewBox="0 0 84 28" fill="none" xmlns="http://www.w3.org/2000/svg">
<rect x="3.7959" y="8.95923" width="7.95918" height="14.3265" fill="#2D2A2A"/>
<rect x="11" y="15" width="8" height="8" fill="#2D2A2A"/>
<rect x="65" y="15" width="8" height="8" fill="#2D2A2A"/>
<rect x="73.0408" y="9.75513" width="7.95918" height="14.3265" fill="#2D2A2A"/>
<line x1="8.25513" y1="8.95923" x2="8.25513" y2="1.00004" stroke="#2F2C2C" stroke-width="7"/>
<line x1="74.3164" y1="8.95923" x2="74.3164" y2="1.00004" stroke="#2F2C2C" stroke-width="7"/>
<rect x="5" width="73" height="5" rx="1" fill="#100F0F"/>
<path d="M9.7551 8.56128H5C3.89543 8.56128 3 9.45671 3 10.5613V22.8776C3 23.9822 3.89543 24.8776 5 24.8776H79C80.1046 24.8776 81 23.9822 81 22.8776V10.5613C81 9.45671 80.1046 8.56128 79 8.56128H73.8469C72.7424 8.56128 71.8469 9.45671 71.8469 10.5613V12.9286C71.8469 14.0332 70.9515 14.9286 69.8469 14.9286H13.7551C12.6505 14.9286 11.7551 14.0332 11.7551 12.9286V10.5613C11.7551 9.45671 10.8597 8.56128 9.7551 8.56128Z" stroke="#A0A0A0" stroke-width="5"/>
</svg>
