<svg width="79" height="77" viewBox="0 0 79 77" fill="none" xmlns="http://www.w3.org/2000/svg">
<path d="M72.6969 17.2021H65.9701C66.7633 18.2295 67.2341 19.5063 67.2341 20.8883V51.1968C67.2341 51.8756 66.6698 52.4256 65.9735 52.4256V54.883C66.6698 54.883 67.2341 55.433 67.2341 56.1117C67.2341 57.4938 66.7633 58.7705 65.9701 59.7979H72.6969C74.7821 59.7979 76.4788 58.1442 76.4788 56.1117V20.8883C76.4788 18.8558 74.7821 17.2021 72.6969 17.2021Z" fill="#185F8D"/>
<path d="M64.7128 51.1968V20.8883C64.7128 18.8558 63.0162 17.2021 60.9309 17.2021H40.3405V46.2819C40.3405 46.9607 39.7762 47.5107 39.0798 47.5107V49.9681C39.7762 49.9681 40.3405 50.5181 40.3405 51.1968V59.7979H60.9309C63.0162 59.7979 64.7128 58.1442 64.7128 56.1117C64.7128 55.433 65.2771 54.883 65.9735 54.883V52.4256C65.2771 52.4256 64.7128 51.8756 64.7128 51.1968Z" fill="#6DA8D6"/>
<path d="M37.8191 46.2819V17.2021H6.30316C4.21789 17.2021 2.52124 18.8558 2.52124 20.8883V56.1117C2.52124 58.1442 4.21789 59.7979 6.30316 59.7979H37.8191V51.1968C37.8191 50.5181 38.3834 49.9681 39.0798 49.9681V47.5107C38.3834 47.5107 37.8191 46.9607 37.8191 46.2819ZM8.98445 49.8901C8.63618 49.8901 8.32102 49.7525 8.09276 49.53C7.8645 49.3079 7.72331 49.0007 7.72331 48.6606C7.72331 47.9823 8.28807 47.4319 8.98394 47.4319C9.37558 47.4319 9.7257 47.6063 9.95699 47.8798C9.98489 47.9135 10.0079 47.9432 10.0293 47.9738C10.1654 48.1701 10.2449 48.4066 10.2449 48.6612C10.2451 49.3401 9.68066 49.8901 8.98445 49.8901ZM14.027 54.805C13.6787 54.805 13.3636 54.6674 13.1355 54.4449C12.9072 54.2228 12.766 53.9156 12.766 53.5755C12.766 52.8972 13.3308 52.3468 14.0267 52.3468C14.4183 52.3468 14.7684 52.5212 14.9997 52.7947C15.0044 52.8002 15.0086 52.8065 15.0133 52.8122C15.0337 52.8371 15.0537 52.8623 15.072 52.8887C15.2081 53.085 15.2876 53.3215 15.2876 53.5761C15.2876 54.255 14.7232 54.805 14.027 54.805ZM32.0202 23.4244C32.0202 24.1027 31.4554 24.6531 30.7595 24.6531C30.0637 24.6531 29.4989 24.1027 29.4989 23.4244C29.4989 22.745 30.0633 22.1949 30.7595 22.1949C31.4557 22.1949 32.0202 22.745 32.0202 23.4244Z" fill="#F2484B"/>
<path d="M15.0133 52.8123C15.0086 52.8065 15.0046 52.8003 14.9997 52.7947C14.7684 52.5216 14.4186 52.3477 14.027 52.3477C13.3308 52.3477 12.7664 52.8978 12.7664 53.5764C12.7664 53.9155 12.9074 54.2225 13.1355 54.445C13.3636 54.6675 13.6789 54.8051 14.027 54.8051C14.7232 54.8051 15.2876 54.2551 15.2876 53.5764C15.2876 53.3216 15.2081 53.0852 15.072 52.889C15.0537 52.8624 15.0337 52.8373 15.0133 52.8123Z" fill="#082947"/>
<path d="M9.96109 47.885C9.72594 47.6068 9.37615 47.4326 8.98452 47.4326C8.28831 47.4326 7.72388 47.9828 7.72388 48.6613C7.72388 49.0005 7.8649 49.3075 8.09282 49.53C8.32092 49.7524 8.63624 49.8901 8.98452 49.8901C9.68072 49.8901 10.2452 49.3401 10.2452 48.6613C10.2452 48.4066 10.1656 48.1702 10.0295 47.9739C10.0082 47.9433 9.98529 47.9136 9.96109 47.885Z" fill="#082947"/>
<path d="M72.6968 14.7446H6.30319C2.82753 14.7446 0 17.5006 0 20.8882V56.1117C0 59.4993 2.82753 62.2553 6.30319 62.2553H72.6968C76.1725 62.2553 79 59.4993 79 56.1117V20.8882C79 17.5006 76.1725 14.7446 72.6968 14.7446ZM76.4787 56.1117C76.4787 58.1441 74.7821 59.7978 72.6968 59.7978H65.97C66.7632 58.7704 67.234 57.4937 67.234 56.1117C67.234 55.4329 66.6698 54.8829 65.9734 54.8829C65.277 54.8829 64.7128 55.4329 64.7128 56.1117C64.7128 58.1441 63.0161 59.7978 60.9309 59.7978H40.3404V51.1968C40.3404 50.518 39.7762 49.968 39.0798 49.968C38.3834 49.968 37.8192 50.518 37.8192 51.1968V59.7978H6.30319C4.21793 59.7978 2.52128 58.1441 2.52128 56.1117V20.8882C2.52128 18.8558 4.21793 17.2021 6.30319 17.2021H37.8192V46.2819C37.8192 46.9606 38.3834 47.5106 39.0798 47.5106C39.7762 47.5106 40.3404 46.9606 40.3404 46.2819V17.2021H60.9309C63.0161 17.2021 64.7128 18.8558 64.7128 20.8882V51.1968C64.7128 51.8755 65.277 52.4255 65.9734 52.4255C66.6698 52.4255 67.234 51.8755 67.234 51.1968V20.8882C67.234 19.5062 66.7632 18.2295 65.97 17.2021H72.6968C74.7821 17.2021 76.4787 18.8558 76.4787 20.8882V56.1117Z" fill="#082947"/>
<path d="M30.7595 24.6523C31.4558 24.6523 32.0202 24.1022 32.0202 23.4235C32.0202 22.7449 31.4558 22.1948 30.7595 22.1948C30.0633 22.1948 29.4989 22.7449 29.4989 23.4235C29.4989 24.1022 30.0633 24.6523 30.7595 24.6523Z" fill="#082947"/>
</svg>
