<svg xmlns="http://www.w3.org/2000/svg"  viewBox="0 0 100 100" width="100px" height="100px"><circle cx="52" cy="52" r="44" opacity=".35"/><circle cx="50" cy="50" r="44" fill="#f2f2f2"/><circle cx="50" cy="50" r="37.5" fill="#70bfff"/><path fill="#40396e" d="M50,89c-21.505,0-39-17.495-39-39s17.495-39,39-39s39,17.495,39,39S71.505,89,50,89z M50,14 c-19.851,0-36,16.149-36,36s16.149,36,36,36s36-16.149,36-36S69.851,14,50,14z"/><g><rect width="8.063" height="26.876" x="33.191" y="40.793" fill="#f2f2f2"/><path fill="#f2f2f2" d="M37.208,38.106h-0.044c-2.32,0-3.821-1.729-3.821-3.889c0-2.207,1.547-3.886,3.909-3.886 c2.365,0,3.822,1.679,3.866,3.886C41.119,36.375,39.618,38.106,37.208,38.106z"/><path fill="#f2f2f2" d="M70.809,67.67h-7.82V53.114c0-3.438-1.916-5.784-4.992-5.784c-2.348,0-3.618,1.583-4.234,3.112 c-0.225,0.547-0.158,2.061-0.158,2.826V67.67h-7.82V40.756h7.82v4.092c1.128-1.745,2.894-4.092,7.41-4.092 c5.596,0,9.793,3.519,9.793,11.377L70.809,67.67L70.809,67.67z"/></g></svg>