<svg width="63" height="91" viewBox="0 0 63 91" fill="none" xmlns="http://www.w3.org/2000/svg">
<path d="M61 12.5C61 13.4927 60.5012 14.6451 59.1561 15.907C57.8076 17.1722 55.7479 18.4038 53.0362 19.4799C47.6242 21.6275 40.0108 23 31.5 23C22.9892 23 15.3758 21.6275 9.96383 19.4799C7.25207 18.4038 5.19243 17.1722 3.84385 15.907C2.49883 14.6451 2 13.4927 2 12.5C2 11.5073 2.49883 10.3549 3.84385 9.093C5.19243 7.82776 7.25207 6.59624 9.96383 5.52015C15.3758 3.37254 22.9892 2 31.5 2C40.0108 2 47.6242 3.37254 53.0362 5.52015C55.7479 6.59624 57.8076 7.82776 59.1561 9.093C60.5012 10.3549 61 11.5073 61 12.5Z" fill="#948E8E" fill-opacity="0.37" stroke="black" stroke-width="4"/>
<g filter="url(#filter0_d_233_147)">
<ellipse cx="32.104" cy="72.5497" rx="26.8762" ry="11.1733" fill="#130C0C"/>
<path d="M32.104 84.223C39.5751 84.223 46.3623 82.965 51.3003 80.9121C53.7682 79.8861 55.7981 78.6517 57.2187 77.2555C58.641 75.8575 59.4803 74.267 59.4803 72.5497C59.4803 70.8324 58.641 69.242 57.2187 67.844C55.7981 66.4477 53.7682 65.2133 51.3003 64.1873C46.3623 62.1345 39.5751 60.8765 32.104 60.8765C24.633 60.8765 17.8458 62.1345 12.9077 64.1873C10.4398 65.2133 8.40993 66.4477 6.98936 67.844C5.56707 69.242 4.72778 70.8324 4.72778 72.5497C4.72778 74.267 5.56707 75.8575 6.98936 77.2555C8.40993 78.6517 10.4398 79.8861 12.9077 80.9121C17.8458 82.965 24.633 84.223 32.104 84.223Z" stroke="black"/>
</g>
<defs>
<filter id="filter0_d_233_147" x="1.22778" y="60.3765" width="59.7524" height="30.3467" filterUnits="userSpaceOnUse" color-interpolation-filters="sRGB">
<feFlood flood-opacity="0" result="BackgroundImageFix"/>
<feColorMatrix in="SourceAlpha" type="matrix" values="0 0 0 0 0 0 0 0 0 0 0 0 0 0 0 0 0 0 127 0" result="hardAlpha"/>
<feOffset dx="-1" dy="4"/>
<feGaussianBlur stdDeviation="1"/>
<feComposite in2="hardAlpha" operator="out"/>
<feColorMatrix type="matrix" values="0 0 0 0 0.333333 0 0 0 0 0.286278 0 0 0 0 0.165278 0 0 0 1 0"/>
<feBlend mode="normal" in2="BackgroundImageFix" result="effect1_dropShadow_233_147"/>
<feBlend mode="normal" in="SourceGraphic" in2="effect1_dropShadow_233_147" result="shape"/>
</filter>
</defs>
</svg>
