<svg width="63" height="84" viewBox="0 0 63 84" fill="none" xmlns="http://www.w3.org/2000/svg">
<path d="M5.18823 18.8277C22.7071 30.673 54.9894 22.9372 58.0348 18.8276C61.0802 14.7181 58.9407 72.5803 58.9407 72.5803C47.4655 83.4516 19.9853 84.0554 6.39615 73.1841L5.18823 18.8277Z" fill="#938E8E" fill-opacity="0.42"/>
<g filter="url(#filter0_d_229_64)">
<path d="M8.03023 35.7638C7.92863 35.1176 7.82456 34.4738 7.71802 33.8325C11.2911 34.5509 14.9372 35.2195 18.6565 35.8384C18.6713 36.4822 18.6874 37.1297 18.7048 37.7809C17.1586 37.5398 15.6186 37.2875 14.0848 37.024C14.2211 42.7558 14.1406 48.7523 13.8432 55.0135C13.2312 54.9041 12.618 54.7935 12.0034 54.6817C12.4123 48.423 12.5288 42.4302 12.3528 36.7034C10.8859 36.4026 9.44507 36.0894 8.03023 35.7638Z" fill="#FFFAFA"/>
<path d="M24.462 56.9262C23.3953 56.7994 22.4624 56.3184 21.6559 55.4982C20.8642 54.678 20.2509 53.6079 19.8198 52.303C19.3961 51.0055 19.1991 49.5551 19.2103 47.9482C19.214 46.3599 19.411 45.0214 19.8235 43.929C20.2324 42.8403 20.8047 42.0424 21.5518 41.5279C22.2952 41.0059 23.1649 40.8009 24.1721 40.9015C25.1719 40.991 26.0417 41.3639 26.7925 42.0201C27.5395 42.6688 28.1231 43.5636 28.543 44.7157C28.9816 45.879 29.2195 47.2622 29.2641 48.8691C29.3236 50.5022 29.1749 51.9413 28.8069 53.1941C28.4501 54.4543 27.9075 55.4348 27.1641 56.1059C26.4171 56.7696 25.5176 57.0455 24.462 56.9262ZM24.384 54.5997C25.1682 54.678 25.8038 54.4543 26.2907 53.9136C26.7702 53.3656 27.1121 52.6348 27.3165 51.7176C27.5135 50.8116 27.599 49.8273 27.5693 48.7834C27.5432 47.7469 27.4057 46.7924 27.1604 45.905C26.9151 45.0363 26.5434 44.3354 26.0491 43.7799C25.5585 43.2281 24.9341 42.9186 24.1796 42.8515C23.4213 42.7807 22.7969 42.9745 22.3138 43.4369C21.8269 43.9029 21.4738 44.5405 21.2433 45.3756C21.024 46.2108 20.9088 47.1429 20.9125 48.1719C20.9162 49.2047 21.0389 50.1964 21.2731 51.1323C21.5221 52.0793 21.8975 52.8734 22.4141 53.5147C22.9345 54.1523 23.5923 54.5102 24.384 54.5997Z" fill="#FFFAFA"/>
<path d="M36.7831 57.381C35.8205 57.437 34.9285 57.0977 34.1219 56.3632C33.3191 55.6287 32.6649 54.5997 32.1595 53.3022C31.6763 52.0196 31.3938 50.5618 31.3269 48.925C31.2712 47.3144 31.4458 45.9423 31.8287 44.8014C32.2264 43.6643 32.7913 42.803 33.5198 42.1953C34.2446 41.5764 35.092 41.2446 36.0398 41.1998C36.9875 41.1402 37.8089 41.3788 38.5151 41.9269C39.2213 42.4712 39.7751 43.2914 40.1914 44.3988C40.6151 45.5098 40.8641 46.8707 40.9347 48.4814C41.0239 50.1107 40.9162 51.5722 40.6077 52.8771C40.3029 54.1895 39.8346 55.2559 39.1879 56.0575C38.5374 56.8628 37.742 57.3102 36.7831 57.381ZM36.5824 54.9949C37.3146 54.9501 37.8833 54.6183 38.3033 53.9919C38.727 53.3618 39.0169 52.5714 39.1767 51.6207C39.344 50.6774 39.3997 49.6782 39.3477 48.6305C39.2994 47.5903 39.1507 46.647 38.898 45.7932C38.6526 44.9506 38.2958 44.2944 37.8238 43.806C37.3555 43.3213 36.7683 43.1013 36.0435 43.1423C35.3187 43.1759 34.7203 43.4555 34.2557 43.9849C33.7874 44.5144 33.4566 45.2004 33.2448 46.0616C33.0403 46.9341 32.9548 47.8886 32.992 48.9288C33.0403 49.9802 33.2039 50.9719 33.4863 51.9003C33.7763 52.8399 34.1739 53.6004 34.6943 54.1895C35.2184 54.7674 35.8465 55.0359 36.5824 54.9949Z" fill="#FFFAFA"/>
<path d="M44.7184 35.7974C44.7432 42.1605 44.9885 48.8865 45.4543 55.9754C44.934 56.0575 44.4149 56.137 43.897 56.2141C43.4411 49.1102 43.202 42.3917 43.1797 36.0584C43.6901 35.9739 44.203 35.8869 44.7184 35.7974Z" fill="#FFFAFA"/>
<path d="M54.0809 41.6584C53.6771 41.9766 53.2719 42.2898 52.8656 42.598C52.7801 42.2773 52.6574 41.9791 52.4976 41.692C52.3378 41.4049 52.1334 41.1924 51.8657 41.0544C51.6019 40.9015 51.2599 40.8866 50.8362 40.9873C50.2601 41.1178 49.7769 41.4347 49.3978 41.9231C49.0187 42.4265 48.8403 42.9857 48.8589 43.6307C48.8775 44.2049 49.0261 44.6374 49.3049 44.917C49.5911 45.2004 50.0111 45.3943 50.5835 45.4949C51.0567 45.5695 51.5275 45.6465 51.9958 45.7261C52.8358 45.8454 53.4677 46.1996 53.9137 46.7999C54.3708 47.3889 54.6533 48.2428 54.776 49.3836C54.88 50.3232 54.8243 51.2068 54.6124 52.0383C54.3931 52.8585 54.0401 53.5557 53.5271 54.115C53.0105 54.6705 52.3787 55.0359 51.6167 55.1962C50.6206 55.3975 49.7509 55.1925 49.0224 54.5847C48.2977 53.977 47.781 52.9965 47.4948 51.6356C47.9582 51.3572 48.4215 51.0751 48.8849 50.7892C49.0893 51.6356 49.3978 52.2359 49.8178 52.6012C50.2378 52.9704 50.7582 53.0897 51.364 52.9629C52.059 52.8138 52.5719 52.4409 52.9176 51.8444C53.267 51.2441 53.4045 50.5916 53.3339 49.9019C53.2781 49.3314 53.122 48.8952 52.8656 48.5783C52.6054 48.2502 52.2374 48.0526 51.7505 47.9818C51.2153 47.8948 50.6776 47.809 50.1375 47.7245C49.2417 47.5605 48.5615 47.169 48.1007 46.5463C47.6584 45.9125 47.4131 45.0811 47.3759 44.0371C47.3536 43.1908 47.4911 42.4227 47.7847 41.7218C48.0895 41.032 48.5058 40.4467 49.0373 39.9806C49.5725 39.5146 50.1709 39.2089 50.8362 39.056C51.7691 38.836 52.479 38.9665 52.9919 39.4587C53.5048 39.9396 53.8542 40.6704 54.0809 41.6584Z" fill="#FFFAFA"/>
</g>
<path d="M2.5 14C7.41499 25.2487 54.102 26.5668 60.9802 13" stroke="black" stroke-width="4"/>
<defs>
<filter id="filter0_d_229_64" x="6.71802" y="33.8325" width="49.1089" height="28.5547" filterUnits="userSpaceOnUse" color-interpolation-filters="sRGB">
<feFlood flood-opacity="0" result="BackgroundImageFix"/>
<feColorMatrix in="SourceAlpha" type="matrix" values="0 0 0 0 0 0 0 0 0 0 0 0 0 0 0 0 0 0 127 0" result="hardAlpha"/>
<feOffset dy="4"/>
<feGaussianBlur stdDeviation="0.5"/>
<feComposite in2="hardAlpha" operator="out"/>
<feColorMatrix type="matrix" values="0 0 0 0 0 0 0 0 0 0 0 0 0 0 0 0 0 0 0.25 0"/>
<feBlend mode="normal" in2="BackgroundImageFix" result="effect1_dropShadow_229_64"/>
<feBlend mode="normal" in="SourceGraphic" in2="effect1_dropShadow_229_64" result="shape"/>
</filter>
</defs>
</svg>
