<svg width="63" height="25" viewBox="0 0 63 25" fill="none" xmlns="http://www.w3.org/2000/svg">
<path d="M61 12.5C61 13.4927 60.5012 14.6451 59.1561 15.907C57.8076 17.1722 55.7479 18.4038 53.0362 19.4799C47.6242 21.6275 40.0108 23 31.5 23C22.9892 23 15.3758 21.6275 9.96383 19.4799C7.25207 18.4038 5.19243 17.1722 3.84385 15.907C2.49883 14.6451 2 13.4927 2 12.5C2 11.5073 2.49883 10.3549 3.84385 9.093C5.19243 7.82776 7.25207 6.59624 9.96383 5.52015C15.3758 3.37254 22.9892 2 31.5 2C40.0108 2 47.6242 3.37254 53.0362 5.52015C55.7479 6.59624 57.8076 7.82776 59.1561 9.093C60.5012 10.3549 61 11.5073 61 12.5Z" fill="#B5B0B0" fill-opacity="0.37" stroke="black" stroke-width="4"/>
</svg>
