<svg width="63" height="87" viewBox="0 0 63 87" fill="none" xmlns="http://www.w3.org/2000/svg">
<g filter="url(#filter0_d_229_64)">
<ellipse cx="32.104" cy="68.5497" rx="26.8762" ry="11.1733" fill="#130C0C"/>
<path d="M32.104 80.223C39.5751 80.223 46.3623 78.965 51.3003 76.9121C53.7682 75.8861 55.7981 74.6517 57.2187 73.2555C58.641 71.8575 59.4803 70.267 59.4803 68.5497C59.4803 66.8324 58.641 65.242 57.2187 63.844C55.7981 62.4477 53.7682 61.2133 51.3003 60.1873C46.3623 58.1345 39.5751 56.8765 32.104 56.8765C24.633 56.8765 17.8458 58.1345 12.9077 60.1873C10.4398 61.2133 8.40993 62.4477 6.98936 63.844C5.56707 65.242 4.72778 66.8324 4.72778 68.5497C4.72778 70.267 5.56707 71.8575 6.98936 73.2555C8.40993 74.6517 10.4398 75.8861 12.9077 76.9121C17.8458 78.965 24.633 80.223 32.104 80.223Z" stroke="black"/>
</g>
<path d="M4.71777 14.7969C22.2366 26.6423 54.5189 18.9064 57.5643 14.7969C60.6097 10.6873 58.4702 68.5495 58.4702 68.5495C46.995 79.4208 19.5148 80.0246 5.92569 69.1533L4.71777 14.7969Z" fill="#938E8E" fill-opacity="0.6"/>
<path d="M2.81177 13.5893C7.72676 24.8379 53.9137 25.9482 60.792 12.3813" stroke="black" stroke-width="4"/>
<g filter="url(#filter1_d_229_64)">
<path d="M8.55977 32.7331C8.45818 32.0868 8.35411 31.443 8.24756 30.8018C11.8206 31.5201 15.4668 32.1887 19.186 32.8076C19.2009 33.4514 19.217 34.0989 19.2343 34.7501C17.6881 34.509 16.1482 34.2567 14.6144 33.9933C14.7507 39.725 14.6701 45.7215 14.3728 51.9827C13.7608 51.8734 13.1475 51.7628 12.533 51.6509C12.9418 45.3922 13.0583 39.3994 12.8824 33.6726C11.4155 33.3719 9.97462 33.0587 8.55977 32.7331Z" fill="#FFFAFA"/>
<path d="M24.9916 53.8954C23.9249 53.7686 22.992 53.2877 22.1854 52.4674C21.3938 51.6472 20.7805 50.5771 20.3493 49.2722C19.9256 47.9747 19.7286 46.5244 19.7398 44.9174C19.7435 43.3292 19.9405 41.9907 20.3531 40.8982C20.7619 39.8096 21.3343 39.0117 22.0814 38.4972C22.8247 37.9752 23.6944 37.7701 24.7017 37.8708C25.7015 37.9603 26.5712 38.3331 27.322 38.9893C28.0691 39.638 28.6526 40.5329 29.0726 41.6849C29.5112 42.8482 29.749 44.2314 29.7936 45.8384C29.8531 47.4714 29.7044 48.9106 29.3365 50.1633C28.9797 51.4235 28.437 52.4041 27.6937 53.0752C26.9466 53.7388 26.0471 54.0147 24.9916 53.8954ZM24.9135 51.5689C25.6978 51.6472 26.3333 51.4235 26.8202 50.8829C27.2997 50.3348 27.6416 49.604 27.8461 48.6869C28.043 47.7809 28.1285 46.7966 28.0988 45.7526C28.0728 44.7161 27.9353 43.7616 27.69 42.8743C27.4446 42.0056 27.073 41.3046 26.5786 40.7491C26.088 40.1973 25.4636 39.8878 24.7091 39.8207C23.9509 39.7499 23.3265 39.9438 22.8433 40.4061C22.3564 40.8721 22.0033 41.5097 21.7729 42.3449C21.5536 43.18 21.4384 44.1121 21.4421 45.1412C21.4458 46.1739 21.5684 47.1657 21.8026 48.1015C22.0516 49.0485 22.427 49.8427 22.9436 50.4839C23.464 51.1215 24.1219 51.4794 24.9135 51.5689Z" fill="#FFFAFA"/>
<path d="M37.3127 54.3503C36.35 54.4062 35.458 54.0669 34.6515 53.3324C33.8486 52.5979 33.1945 51.5689 32.689 50.2714C32.2058 48.9889 31.9233 47.5311 31.8564 45.8943C31.8007 44.2836 31.9754 42.9116 32.3582 41.7707C32.7559 40.6335 33.3209 39.7723 34.0493 39.1645C34.7741 38.5456 35.6215 38.2138 36.5693 38.1691C37.5171 38.1094 38.3385 38.348 39.0447 38.8961C39.7509 39.4404 40.3047 40.2607 40.7209 41.368C41.1446 42.4791 41.3937 43.8399 41.4643 45.4506C41.5535 47.0799 41.4457 48.5414 41.1372 49.8464C40.8324 51.1588 40.3641 52.2251 39.7174 53.0267C39.067 53.832 38.2716 54.2794 37.3127 54.3503ZM37.112 51.9641C37.8442 51.9194 38.4128 51.5875 38.8328 50.9612C39.2565 50.3311 39.5464 49.5407 39.7063 48.5899C39.8735 47.6466 39.9293 46.6474 39.8772 45.5997C39.8289 44.5595 39.6802 43.6162 39.4275 42.7624C39.1822 41.9198 38.8254 41.2636 38.3534 40.7752C37.885 40.2905 37.2978 40.0705 36.573 40.1116C35.8483 40.1451 35.2499 40.4247 34.7853 40.9542C34.3169 41.4836 33.9862 42.1696 33.7743 43.0309C33.5699 43.9033 33.4844 44.8578 33.5216 45.898C33.5699 46.9494 33.7334 47.9412 34.0159 48.8695C34.3058 49.8091 34.7035 50.5697 35.2238 51.1588C35.7479 51.7367 36.376 52.0051 37.112 51.9641Z" fill="#FFFAFA"/>
<path d="M45.2479 32.7666C45.2727 39.1297 45.518 45.8558 45.9839 52.9447C45.4635 53.0267 44.9444 53.1062 44.4265 53.1833C43.9706 46.0795 43.7315 39.3609 43.7092 33.0276C44.2196 32.9431 44.7326 32.8561 45.2479 32.7666Z" fill="#FFFAFA"/>
<path d="M54.6105 38.6277C54.2066 38.9458 53.8015 39.259 53.3951 39.5672C53.3096 39.2466 53.187 38.9483 53.0271 38.6612C52.8673 38.3741 52.6629 38.1616 52.3953 38.0237C52.1314 37.8708 51.7895 37.8559 51.3657 37.9565C50.7896 38.087 50.3065 38.4039 49.9274 38.8924C49.5482 39.3957 49.3698 39.955 49.3884 40.6C49.407 41.1741 49.5557 41.6066 49.8344 41.8863C50.1206 42.1696 50.5406 42.3635 51.113 42.4642C51.5863 42.5387 52.0571 42.6158 52.5254 42.6953C53.3654 42.8146 53.9972 43.1688 54.4432 43.7691C54.9004 44.3582 55.1829 45.212 55.3055 46.3529C55.4096 47.2924 55.3538 48.1761 55.142 49.0075C54.9227 49.8277 54.5696 50.5249 54.0567 51.0842C53.5401 51.6397 52.9082 52.0051 52.1463 52.1654C51.1502 52.3668 50.2804 52.1617 49.552 51.554C48.8272 50.9463 48.3106 49.9657 48.0244 48.6048C48.4877 48.3264 48.9511 48.0443 49.4144 47.7585C49.6189 48.6048 49.9274 49.2051 50.3474 49.5705C50.7673 49.9396 51.2877 50.0589 51.8935 49.9321C52.5886 49.783 53.1015 49.4102 53.4471 48.8136C53.7965 48.2133 53.934 47.5609 53.8634 46.8711C53.8077 46.3007 53.6516 45.8645 53.3951 45.5475C53.1349 45.2194 52.767 45.0218 52.2801 44.951C51.7449 44.864 51.2072 44.7783 50.667 44.6937C49.7713 44.5297 49.0911 44.1382 48.6302 43.5156C48.1879 42.8817 47.9426 42.0503 47.9054 41.0064C47.8831 40.16 48.0207 39.392 48.3143 38.691C48.6191 38.0013 49.0353 37.4159 49.5668 36.9499C50.102 36.4838 50.7004 36.1781 51.3657 36.0252C52.2987 35.8053 53.0086 35.9358 53.5215 36.4279C54.0344 36.9089 54.3838 37.6396 54.6105 38.6277Z" fill="#FFFAFA"/>
<path d="M28.5986 45.7392C28.5716 44.6662 28.429 43.6712 28.1719 42.7411L28.1711 42.7384C27.9088 41.8092 27.5047 41.0377 26.9523 40.4169C26.3746 39.7672 25.6315 39.4011 24.7547 39.3228C23.8765 39.241 23.1016 39.4669 22.4976 40.0448L22.4976 40.0449C21.9298 40.5883 21.5388 41.3134 21.2909 42.2119L21.2908 42.2119L21.2893 42.2179C21.0577 43.0998 20.9382 44.0757 20.9421 45.143C20.9459 46.2142 21.0732 47.2462 21.3176 48.2229L21.3175 48.2229L21.319 48.2286C21.5819 49.2283 21.9844 50.0903 22.5543 50.7976L22.5563 50.8001C23.158 51.5373 23.934 51.9614 24.8574 52.0657L24.8574 52.0658L24.8639 52.0664C25.787 52.1586 26.586 51.8901 27.1918 51.2175L27.1918 51.2175L27.1966 51.2121C27.7446 50.5856 28.1165 49.7718 28.3341 48.7956L28.3346 48.7931C28.5411 47.8435 28.6293 46.8187 28.5986 45.7392ZM28.5986 45.7392C28.5986 45.7395 28.5986 45.7398 28.5986 45.7401L28.0989 45.7526L28.5986 45.7384C28.5986 45.7387 28.5986 45.7389 28.5986 45.7392ZM34.3697 39.5485L34.3696 39.5485C33.7258 40.0856 33.206 40.8624 32.8312 41.9327C32.4727 43.0026 32.3021 44.3109 32.3561 45.8755C32.4212 47.4653 32.695 48.868 33.1559 50.0925C33.6417 51.3387 34.2581 52.2949 34.989 52.9635C35.7081 53.6181 36.4704 53.8973 37.2797 53.8513C38.0829 53.791 38.7549 53.4225 39.3283 52.7127L34.3697 39.5485ZM34.3697 39.5485L34.374 39.5448M34.3697 39.5485L34.374 39.5448M34.374 39.5448C35.0136 38.9986 35.7549 38.7081 36.5929 38.6685L36.5929 38.6686M34.374 39.5448L36.5929 38.6686M36.5929 38.6686L36.6007 38.6681M36.5929 38.6686L36.6007 38.6681M36.6007 38.6681C37.4368 38.6154 38.1357 38.8235 38.7381 39.2911L38.7394 39.2921M36.6007 38.6681L38.7394 39.2921M38.7394 39.2921C39.3508 39.7634 39.8585 40.4948 40.2529 41.544L40.2537 41.5462M38.7394 39.2921L40.2537 41.5462M40.2537 41.5462C40.6531 42.5933 40.8957 43.8981 40.9647 45.4725L40.965 45.4779M40.2537 41.5462L40.965 45.4779M40.965 45.4779C41.0522 47.0698 40.9459 48.4821 40.6506 49.7313L40.6502 49.7333M40.965 45.4779L40.6502 49.7333M40.6502 49.7333C40.3566 50.9973 39.9138 51.9869 39.3284 52.7125L40.6502 49.7333ZM49.5323 38.5858L49.5324 38.5858C49.9771 38.0128 50.5574 37.6276 51.2528 37.4695C51.7293 37.3566 52.2159 37.347 52.6349 37.5847C52.9991 37.7752 53.2667 38.0635 53.464 38.418C53.5255 38.5284 53.5822 38.6406 53.634 38.7549C53.7717 38.6487 53.9092 38.5419 54.0466 38.4345C53.835 37.6626 53.5441 37.1346 53.1795 36.7926L53.1753 36.7887L53.1753 36.7887C52.8265 36.454 52.314 36.3154 51.4805 36.5119L51.4777 36.5125C50.8948 36.6465 50.3706 36.9132 49.896 37.3263C49.4261 37.7384 49.0518 38.2605 48.7736 38.8888C48.5114 39.5165 48.385 40.2112 48.4052 40.9907C48.4401 41.9633 48.6664 42.6908 49.0362 43.2236C49.4069 43.7214 49.9616 44.055 50.7509 44.2008C51.2885 44.2849 51.8236 44.3703 52.3564 44.4568C52.9439 44.5432 53.4336 44.7926 53.7852 45.2348C54.1214 45.6511 54.2991 46.1907 54.3609 46.8213C54.4419 47.6139 54.2826 48.3718 53.8798 49.0643L49.5323 38.5858ZM49.5323 38.5858L49.528 38.5915M49.5323 38.5858L49.528 38.5915M49.528 38.5915C49.0798 39.1866 48.8668 39.8573 48.8886 40.6144L48.8887 40.6161M49.528 38.5915L48.8887 40.6161M48.8887 40.6161C48.9095 41.2582 49.0778 41.8355 49.4803 42.2393L49.4826 42.2416M48.8887 40.6161L49.4826 42.2416M49.4826 42.2416C49.8643 42.6195 50.3915 42.8449 51.0264 42.9566L51.0264 42.9567M49.4826 42.2416L51.0264 42.9567M51.0264 42.9567L51.0352 42.9581M51.0264 42.9567L51.0352 42.9581M51.0352 42.9581C51.5065 43.0323 51.9753 43.1091 52.4417 43.1883L52.4416 43.1884M51.0352 42.9581L52.4416 43.1884M52.4416 43.1884L52.4551 43.1904M52.4416 43.1884L52.4551 43.1904M52.4551 43.1904C53.182 43.2936 53.6863 43.5888 54.0419 44.0673L54.0418 44.0674M52.4551 43.1904L54.0418 44.0674M54.0418 44.0674L54.0482 44.0756M54.0418 44.0674L54.0482 44.0756M54.0482 44.0756C54.4251 44.5612 54.6905 45.3102 54.8084 46.4063L54.8086 46.4079M54.0482 44.0756L54.8086 46.4079M54.8086 46.4079C54.9065 47.292 54.8533 48.1139 54.6581 48.8813C54.4555 49.6379 54.1364 50.2571 53.6895 50.7449C53.2424 51.2251 52.7029 51.537 52.0452 51.6758C51.1868 51.8488 50.4751 51.6727 49.8728 51.1705C49.3194 50.7063 48.8745 49.9525 48.5933 48.8458C48.7689 48.7396 48.9446 48.6329 49.1202 48.5257C49.3321 49.1187 49.6231 49.6026 50.0179 49.9466C50.5716 50.4329 51.2579 50.576 51.9959 50.4215L51.9984 50.421M54.8086 46.4079L51.9984 50.421M51.9984 50.421C52.8288 50.2428 53.4619 49.7852 53.8795 49.0647L51.9984 50.421ZM14.1145 34.0051C14.2464 39.5503 14.1749 45.3452 13.8998 51.39C13.6203 51.3398 13.3405 51.2893 13.0605 51.2386C13.4471 45.126 13.5544 39.2655 13.3821 33.6573L13.37 33.2622L12.9828 33.1828C11.6333 32.9061 10.306 32.6189 9.0009 32.3212C8.95386 32.0248 8.9063 31.729 8.85822 31.4337C12.0787 32.0735 15.3579 32.6732 18.6958 33.2327C18.7032 33.542 18.7109 33.8521 18.7188 34.1631C17.3742 33.9507 16.0342 33.7298 14.699 33.5005L14.1001 33.3976L14.1145 34.0051ZM20.2398 44.9209L20.2398 44.9186C20.2434 43.367 20.4363 42.0929 20.8208 41.0749L20.8211 41.074C21.2045 40.0532 21.7236 39.3507 22.365 38.9089L22.365 38.909L22.3687 38.9064C23.0013 38.4622 23.7477 38.2779 24.652 38.3683L24.6519 38.3683L24.6571 38.3688C25.5516 38.4489 26.3217 38.7791 26.993 39.3658L26.9942 39.3668C27.6643 39.9487 28.2054 40.766 28.6028 41.8562L28.6028 41.8562L28.6047 41.8613C29.0187 42.9592 29.2503 44.2845 29.2938 45.8522L29.2938 45.8522L29.294 45.8566C29.352 47.4501 29.206 48.8334 28.8567 50.0224L28.8554 50.0271C28.5154 51.228 28.0117 52.1138 27.36 52.7028C26.7258 53.2654 25.9707 53.5026 25.0492 53.3987C24.1076 53.2865 23.2777 52.8646 22.5436 52.1185C21.815 51.363 21.2366 50.3636 20.8244 49.1163C20.4208 47.8801 20.2289 46.4852 20.2398 44.9209ZM37.1398 52.4633L37.1424 52.4632C38.0354 52.4086 38.7439 51.9912 39.2477 51.2402C39.7203 50.5374 40.0305 49.6759 40.199 48.675C40.3731 47.6916 40.4302 46.6554 40.3766 45.5755C40.3267 44.503 40.173 43.5197 39.9073 42.6216C39.6453 41.7222 39.2545 40.9881 38.7129 40.4278C38.1362 39.8309 37.4044 39.5643 36.5473 39.6122C35.6947 39.6523 34.9678 39.9885 34.4101 40.6236C33.8755 41.2283 33.5145 41.9937 33.2888 42.9114L33.2887 42.9114L33.2875 42.9168C33.0716 43.8381 32.9833 44.8375 33.0219 45.9159L33.0221 45.921C33.0721 47.0097 33.2418 48.043 33.5375 49.0151L33.5381 49.017C33.8432 50.0058 34.2704 50.8347 34.8491 51.4898L34.8491 51.4898L34.8535 51.4947C35.4717 52.1765 36.2431 52.5133 37.1398 52.4633ZM44.891 52.6078C44.468 45.8719 44.2414 39.4863 44.211 33.4509C44.3907 33.4207 44.5706 33.3903 44.7509 33.3595C44.7873 39.4218 45.0222 45.8091 45.4552 52.5213C45.267 52.5504 45.0789 52.5793 44.891 52.6078Z" stroke="#F0F0F0"/>
</g>
<defs>
<filter id="filter0_d_229_64" x="1.22778" y="56.3765" width="59.7524" height="30.3467" filterUnits="userSpaceOnUse" color-interpolation-filters="sRGB">
<feFlood flood-opacity="0" result="BackgroundImageFix"/>
<feColorMatrix in="SourceAlpha" type="matrix" values="0 0 0 0 0 0 0 0 0 0 0 0 0 0 0 0 0 0 127 0" result="hardAlpha"/>
<feOffset dx="-1" dy="4"/>
<feGaussianBlur stdDeviation="1"/>
<feComposite in2="hardAlpha" operator="out"/>
<feColorMatrix type="matrix" values="0 0 0 0 0.333333 0 0 0 0 0.286278 0 0 0 0 0.165278 0 0 0 1 0"/>
<feBlend mode="normal" in2="BackgroundImageFix" result="effect1_dropShadow_229_64"/>
<feBlend mode="normal" in="SourceGraphic" in2="effect1_dropShadow_229_64" result="shape"/>
</filter>
<filter id="filter1_d_229_64" x="7.24756" y="30.8018" width="49.1089" height="28.5547" filterUnits="userSpaceOnUse" color-interpolation-filters="sRGB">
<feFlood flood-opacity="0" result="BackgroundImageFix"/>
<feColorMatrix in="SourceAlpha" type="matrix" values="0 0 0 0 0 0 0 0 0 0 0 0 0 0 0 0 0 0 127 0" result="hardAlpha"/>
<feOffset dy="4"/>
<feGaussianBlur stdDeviation="0.5"/>
<feComposite in2="hardAlpha" operator="out"/>
<feColorMatrix type="matrix" values="0 0 0 0 0 0 0 0 0 0 0 0 0 0 0 0 0 0 0.25 0"/>
<feBlend mode="normal" in2="BackgroundImageFix" result="effect1_dropShadow_229_64"/>
<feBlend mode="normal" in="SourceGraphic" in2="effect1_dropShadow_229_64" result="shape"/>
</filter>
</defs>
</svg>
