<svg width="120" height="191" viewBox="0 0 120 191" fill="none" xmlns="http://www.w3.org/2000/svg">
<g style="mix-blend-mode:screen">
<path d="M44.5072 0.038889C44.7664 1.59444 45.0385 3.16296 45.3235 4.74444C44.8053 4.71852 44.287 4.70556 43.7687 4.70556C43.5096 3.12407 43.2375 1.55556 42.9524 0C43.4707 0.0259259 43.989 0.038889 44.5072 0.038889ZM48.3555 0.194444C48.6276 1.67222 48.8997 3.26667 49.1718 4.86111C47.8761 4.83519 46.5933 4.7963 45.3235 4.74444C45.0385 3.16296 44.7664 1.59444 44.5072 0.038889C45.777 0.0907409 47.0598 0.142593 48.3555 0.194444ZM51.8927 0.311112C52.126 1.75 52.398 3.34444 52.709 5.01667C51.5429 4.96481 50.3638 4.91296 49.1718 4.86111C48.8997 3.26667 48.6276 1.67222 48.3555 0.194444C49.5475 0.22037 50.7266 0.25926 51.8927 0.311112ZM52.3203 0.311112C52.5924 1.78889 52.8645 3.34444 53.1366 5.01667C53.007 5.01667 52.8645 5.01667 52.709 5.01667C52.398 3.34444 52.126 1.75 51.8927 0.311112C52.0482 0.311112 52.1907 0.311112 52.3203 0.311112V0.311112ZM52.4758 0.311112C52.709 1.78889 52.9811 3.38333 53.2921 5.01667C53.2402 5.01667 53.1884 5.01667 53.1366 5.01667C52.8645 3.34444 52.5924 1.78889 52.3203 0.311112C52.3721 0.311112 52.424 0.311112 52.4758 0.311112V0.311112ZM53.7197 0.388889C53.9918 1.82778 54.2639 3.38333 54.5359 5.05556C54.1213 5.05556 53.7067 5.04259 53.2921 5.01667C52.9811 3.38333 52.709 1.78889 52.4758 0.311112C52.8904 0.337037 53.305 0.362963 53.7197 0.388889V0.388889ZM57.529 0.505556C57.8011 1.98333 58.0732 3.57778 58.3453 5.17222C56.5572 5.13333 56.324 5.13333 54.5359 5.05556C54.2639 3.38333 53.9918 1.82778 53.7197 0.388889C55.5077 0.427778 55.741 0.427778 57.529 0.505556V0.505556ZM59.045 0.544444C59.3171 2.06111 59.5892 3.65556 59.8613 5.25L58.3453 5.17222C58.0732 3.57778 57.8011 1.98333 57.529 0.505556L59.045 0.544444V0.544444ZM59.1227 0.544444C59.3559 2.06111 59.6281 3.65556 59.939 5.25C59.9131 5.25 59.8872 5.25 59.8613 5.25C59.5892 3.65556 59.3171 2.06111 59.045 0.544444C59.0709 0.544444 59.0968 0.544444 59.1227 0.544444V0.544444ZM60.9108 0.622222C61.1959 2.15185 61.4809 3.72037 61.766 5.32778C61.144 5.30185 60.535 5.27593 59.939 5.25C59.6281 3.65556 59.3559 2.06111 59.1227 0.544444C59.7187 0.57037 60.3148 0.596296 60.9108 0.622222V0.622222ZM61.766 0.661111C62.0251 2.19074 62.2972 3.75926 62.5822 5.36667C62.2972 5.34074 62.0251 5.32778 61.766 5.32778C61.4809 3.72037 61.1959 2.15185 60.9108 0.622222C61.1959 0.622222 61.4809 0.635185 61.766 0.661111ZM61.8048 0.661111C62.0899 2.19074 62.3749 3.75926 62.66 5.36667C62.6341 5.36667 62.6082 5.36667 62.5822 5.36667C62.2972 3.75926 62.0251 2.19074 61.766 0.661111C61.7919 0.661111 61.8048 0.661111 61.8048 0.661111ZM62.8155 0.7C63.1005 2.22963 63.3726 3.78519 63.6318 5.36667C63.3208 5.36667 62.9969 5.36667 62.66 5.36667C62.3749 3.75926 62.0899 2.19074 61.8048 0.661111C62.1417 0.661111 62.4786 0.674075 62.8155 0.7ZM64.3703 0.738889C64.6294 2.29444 64.9016 3.86296 65.1866 5.44445C64.6683 5.41852 64.15 5.39259 63.6318 5.36667C63.3726 3.78519 63.1005 2.22963 62.8155 0.7C63.3337 0.7 63.852 0.712963 64.3703 0.738889ZM64.4092 0.738889C64.6942 2.32037 64.9663 3.88889 65.2255 5.44445C65.2255 5.44445 65.2125 5.44445 65.1866 5.44445C64.9016 3.86296 64.6294 2.29444 64.3703 0.738889C64.3703 0.738889 64.3833 0.738889 64.4092 0.738889ZM64.4869 0.738889C64.772 2.32037 65.0441 3.88889 65.3032 5.44445C65.2773 5.44445 65.2514 5.44445 65.2255 5.44445C64.9663 3.88889 64.6942 2.32037 64.4092 0.738889C64.4351 0.738889 64.461 0.738889 64.4869 0.738889ZM45.3235 4.74444C45.8677 7.82963 46.4119 10.9278 46.9561 14.0389C46.4378 14.013 45.9196 13.987 45.4013 13.9611C44.8571 10.8759 44.3129 7.79074 43.7687 4.70556C44.287 4.70556 44.8053 4.71852 45.3235 4.74444V4.74444ZM49.1718 4.86111C49.716 7.89445 50.2602 11.0056 50.8043 14.1556C50.8043 14.1556 50.7914 14.1556 50.7655 14.1556C49.4957 14.1037 48.2259 14.0648 46.9561 14.0389C46.4119 10.9278 45.8677 7.82963 45.3235 4.74444C46.5933 4.7963 47.8761 4.83519 49.1718 4.86111V4.86111ZM52.709 5.01667C53.2143 7.93333 53.7585 11.0833 54.3416 14.2722C53.1496 14.2463 51.9705 14.2074 50.8043 14.1556C50.2602 11.0056 49.716 7.89445 49.1718 4.86111C50.3638 4.91296 51.5429 4.96481 52.709 5.01667V5.01667ZM53.1366 5.01667C53.6808 7.93333 54.225 11.1222 54.7692 14.3111C54.6137 14.2852 54.4712 14.2722 54.3416 14.2722C53.7585 11.0833 53.2143 7.93333 52.709 5.01667C52.8645 5.01667 53.007 5.01667 53.1366 5.01667V5.01667ZM53.2921 5.01667C53.7974 7.97222 54.3416 11.1222 54.9247 14.3111C54.8728 14.3111 54.821 14.3111 54.7692 14.3111C54.225 11.1222 53.6808 7.93333 53.1366 5.01667C53.1884 5.01667 53.2402 5.01667 53.2921 5.01667ZM54.5359 5.05556C55.0413 7.97222 55.6243 11.1611 56.1685 14.35C55.7539 14.3241 55.3393 14.3111 54.9247 14.3111C54.3416 11.1222 53.7974 7.97222 53.2921 5.01667C53.7067 5.04259 54.1213 5.05556 54.5359 5.05556ZM58.3453 5.17222C58.8895 8.20556 59.4337 11.3167 59.9779 14.4667C58.1898 14.4278 57.9566 14.4278 56.1685 14.35C55.6243 11.1611 55.0413 7.97222 54.5359 5.05556C56.324 5.13333 56.5572 5.13333 58.3453 5.17222ZM59.8613 5.25C60.4055 8.24445 60.9497 11.3944 61.4939 14.5444L59.9779 14.4667C59.4337 11.3167 58.8895 8.20556 58.3453 5.17222L59.8613 5.25ZM59.939 5.25C60.4443 8.24445 60.9885 11.3944 61.5327 14.5444C61.5327 14.5444 61.5198 14.5444 61.4939 14.5444C60.9497 11.3944 60.4055 8.24445 59.8613 5.25C59.8872 5.25 59.9131 5.25 59.939 5.25ZM61.766 5.32778C62.2713 8.36111 62.8155 11.4722 63.3597 14.5833C62.7636 14.5833 62.1547 14.5704 61.5327 14.5444C60.9885 11.3944 60.4443 8.24445 59.939 5.25C60.535 5.27593 61.144 5.30185 61.766 5.32778ZM62.5822 5.36667C63.1264 8.4 63.6706 11.5111 64.2148 14.6222C63.9298 14.6222 63.6447 14.6093 63.3597 14.5833C62.8155 11.4722 62.2713 8.36111 61.766 5.32778C62.0251 5.32778 62.2972 5.34074 62.5822 5.36667ZM62.66 5.36667C63.1653 8.4 63.7095 11.5111 64.2537 14.6222C64.2537 14.6222 64.2407 14.6222 64.2148 14.6222C63.6706 11.5111 63.1264 8.4 62.5822 5.36667C62.6082 5.36667 62.6341 5.36667 62.66 5.36667V5.36667ZM63.6318 5.36667C64.176 8.43889 64.7202 11.55 65.2644 14.6611C64.9275 14.6611 64.5906 14.6481 64.2537 14.6222C63.7095 11.5111 63.1653 8.4 62.66 5.36667C62.9969 5.36667 63.3208 5.36667 63.6318 5.36667V5.36667ZM65.1866 5.44445C65.7308 8.52963 66.262 11.6148 66.7803 14.7C66.2879 14.7 65.7826 14.687 65.2644 14.6611C64.7202 11.55 64.176 8.43889 63.6318 5.36667C64.15 5.39259 64.6683 5.41852 65.1866 5.44445V5.44445ZM65.2255 5.44445C65.7697 8.52963 66.3139 11.6278 66.8581 14.7389C66.8321 14.7389 66.8062 14.7259 66.7803 14.7C66.262 11.6148 65.7308 8.52963 65.1866 5.44445C65.2125 5.44445 65.2255 5.44445 65.2255 5.44445V5.44445ZM65.3032 5.44445C65.8474 8.52963 66.3916 11.6278 66.9358 14.7389C66.9099 14.7389 66.884 14.7389 66.8581 14.7389C66.3139 11.6278 65.7697 8.52963 65.2255 5.44445C65.2514 5.44445 65.2773 5.44445 65.3032 5.44445ZM46.9561 14.0389C51.7372 41.5722 17.6085 38.8889 14.0713 74.0833C12.957 73.8241 11.8427 73.5519 10.7284 73.2667C14.5766 37.45 50.2601 41.7667 45.4013 13.9611C45.9196 13.987 46.4378 14.013 46.9561 14.0389V14.0389ZM50.8043 14.1556C55.43 40.6389 24.8774 43.5944 22.4674 76.1444C22.4415 76.1444 22.4156 76.1315 22.3897 76.1056C19.6169 75.4315 16.8441 74.7574 14.0713 74.0833C17.6085 38.8889 51.7372 41.5722 46.9561 14.0389C48.2259 14.0648 49.4957 14.1037 50.7655 14.1556C50.7914 14.1556 50.8043 14.1556 50.8043 14.1556V14.1556ZM54.3416 14.2722C58.7729 39.7056 31.3689 48.0667 30.0472 77.9722C27.5077 77.3759 24.9811 76.7667 22.4674 76.1444C24.8774 43.5944 55.43 40.6389 50.8043 14.1556C51.9705 14.2074 53.1496 14.2463 54.3416 14.2722V14.2722ZM54.7692 14.3111C59.2005 39.7056 32.3018 48.4167 31.019 78.2056C30.708 78.1278 30.3841 78.05 30.0472 77.9722C31.3689 48.0667 58.7729 39.7056 54.3416 14.2722C54.4712 14.2722 54.6137 14.2852 54.7692 14.3111V14.3111ZM54.9247 14.3111C59.3559 39.7056 32.5739 48.4944 31.33 78.2833C31.2263 78.2574 31.1227 78.2315 31.019 78.2056C32.3018 48.4167 59.2005 39.7056 54.7692 14.3111C54.821 14.3111 54.8728 14.3111 54.9247 14.3111V14.3111ZM56.1685 14.35C60.561 39.5111 35.0616 49.7 34.051 78.9444C33.144 78.737 32.237 78.5167 31.33 78.2833C32.5739 48.4944 59.3559 39.7056 54.9247 14.3111C55.3393 14.3111 55.7539 14.3241 56.1685 14.35V14.35ZM59.9779 14.4667C65.4198 45.5389 38.2101 52.5778 43.1079 81.1611C38.7155 80.1111 38.4822 80.0333 34.051 78.9444C35.0616 49.7 60.561 39.5111 56.1685 14.35C57.9566 14.4278 58.1898 14.4278 59.9779 14.4667V14.4667ZM61.4939 14.5444C66.9358 45.6167 39.1431 52.6556 44.0019 81.2778C43.8076 81.2 43.1468 81.1611 43.1079 81.1611C38.2101 52.5778 65.4198 45.5389 59.9779 14.4667L61.4939 14.5444V14.5444ZM61.5327 14.5444C66.9747 45.6167 43.8464 53.4333 47.4614 82.2111C47.4226 82.2111 44.896 81.5111 44.0019 81.2778C39.1431 52.6556 66.9358 45.6167 61.4939 14.5444C61.5198 14.5444 61.5327 14.5444 61.5327 14.5444ZM63.3597 14.5833C69.0737 47.25 45.4401 54.2889 50.3379 82.9111C48.8219 82.5611 48.9774 82.6 47.4614 82.2111C43.8464 53.4333 66.9747 45.6167 61.5327 14.5444C62.1547 14.5704 62.7636 14.5833 63.3597 14.5833V14.5833ZM64.2148 14.6222C70.0066 47.8722 47.0727 54.8333 52.398 83.4167C51.6984 83.2611 51.0117 83.0926 50.3379 82.9111C45.4401 54.2889 69.0737 47.25 63.3597 14.5833C63.6447 14.6093 63.9298 14.6222 64.2148 14.6222V14.6222ZM64.2537 14.6222C70.0843 47.8722 47.2282 54.8722 52.5535 83.4556C52.5017 83.4556 52.4499 83.4426 52.398 83.4167C47.0727 54.8333 70.0066 47.8722 64.2148 14.6222C64.2407 14.6222 64.2537 14.6222 64.2537 14.6222V14.6222ZM65.2644 14.6611C71.2894 49.1167 50.4545 55.9611 56.7516 84.4667C55.8964 84.35 53.3698 83.6889 52.5535 83.4556C47.2282 54.8722 70.0843 47.8722 64.2537 14.6222C64.5906 14.6481 64.9275 14.6611 65.2644 14.6611V14.6611ZM66.7803 14.7C67.6743 19.8333 70.0455 33.2889 64.9534 46.9778C59.7835 60.8611 75.021 58.2167 78.1306 81.2389C71.8724 86.2944 66.3139 86.0222 56.7516 84.4667C50.4545 55.9611 71.2894 49.1167 65.2644 14.6611C65.7826 14.687 66.2879 14.7 66.7803 14.7V14.7ZM66.8581 14.7389C67.7521 19.7944 70.5508 33.0944 65.4587 46.8222C60.2889 60.7056 75.8372 57.4778 78.9469 80.5778C78.6619 80.8111 78.3898 81.0315 78.1306 81.2389C75.021 58.2167 59.7835 60.8611 64.9534 46.9778C70.0455 33.2889 67.6743 19.8333 66.7803 14.7C66.8062 14.7259 66.8321 14.7389 66.8581 14.7389V14.7389ZM66.9358 14.7389C67.8687 19.9889 74.0881 32.1611 67.3245 47.0944C62.6211 57.4389 76.6147 59.2667 79.841 79.7611C79.53 80.0463 79.232 80.3185 78.9469 80.5778C75.8372 57.4778 60.2889 60.7056 65.4587 46.8222C70.5508 33.0944 67.7521 19.7944 66.8581 14.7389C66.884 14.7389 66.9099 14.7389 66.9358 14.7389V14.7389ZM14.0713 74.0833C13.255 82.4444 15.2763 90.3389 18.5414 97.7667C17.2587 97.4944 15.8982 97.2222 14.3434 96.8333C11.3503 89.4444 9.87321 81.6278 10.7284 73.2667C11.8427 73.5519 12.957 73.8241 14.0713 74.0833V74.0833ZM22.4674 76.1444C21.8455 84.6611 23.5558 92.4389 28.298 99.75C28.2721 99.75 28.2462 99.75 28.2203 99.75C24.2943 98.7778 21.69 98.3889 18.5414 97.7667C15.2763 90.3389 13.255 82.4444 14.0713 74.0833C16.8441 74.7574 19.6169 75.4315 22.3897 76.1056C22.4156 76.1315 22.4415 76.1444 22.4674 76.1444V76.1444ZM30.0472 77.9722C29.6974 86.6833 31.6798 93.9945 37.1606 101.578C34.3619 101.033 31.8742 100.644 28.298 99.75C23.5558 92.4389 21.8455 84.6611 22.4674 76.1444C24.9811 76.7667 27.5077 77.3759 30.0472 77.9722V77.9722ZM31.019 78.2056C30.6692 86.9167 32.7293 94.2278 38.2879 101.811C37.8992 101.733 37.5234 101.656 37.1606 101.578C31.6798 93.9945 29.6974 86.6833 30.0472 77.9722C30.3841 78.05 30.708 78.1278 31.019 78.2056V78.2056ZM31.33 78.2833C30.9801 86.9944 33.0792 94.3056 38.6377 101.889C38.5082 101.863 38.3915 101.837 38.2879 101.811C32.7293 94.2278 30.6692 86.9167 31.019 78.2056C31.1227 78.2315 31.2263 78.2574 31.33 78.2833V78.2833ZM34.051 78.9444C33.74 87.6944 36.3443 95.0444 42.0972 102.667C40.8145 102.356 39.6872 102.083 38.6377 101.889C33.0792 94.3056 30.9801 86.9944 31.33 78.2833C32.237 78.5167 33.144 78.737 34.051 78.9444ZM43.1079 81.1611C44.8571 90.65 53.9918 99.1667 61.7271 107.022C56.1685 105.661 47.6169 103.989 42.0972 102.667C36.3443 95.0444 33.74 87.6944 34.051 78.9444C38.4822 80.0333 38.7155 80.1111 43.1079 81.1611ZM44.0019 81.2778C45.7122 90.7278 54.3416 99.2444 62.0769 107.1C62.0769 107.1 61.7659 107.022 61.7271 107.022C53.9918 99.1667 44.8571 90.65 43.1079 81.1611C43.1468 81.1611 43.8076 81.2 44.0019 81.2778V81.2778ZM47.4614 82.2111C48.7442 91.4667 55.3134 99.5167 63.0487 107.372C63.0098 107.372 62.1547 107.139 62.0769 107.1C54.3416 99.2444 45.7122 90.7278 44.0019 81.2778C44.896 81.5111 47.4226 82.2111 47.4614 82.2111V82.2111ZM50.3379 82.9111C52.0093 92.2833 58.8118 100.411 67.0524 108.344C64.8756 107.878 64.9534 107.839 63.0487 107.372C55.3134 99.5167 48.7442 91.4667 47.4614 82.2111C48.9774 82.6 48.8219 82.5611 50.3379 82.9111V82.9111ZM52.398 83.4167C54.2639 92.8278 61.6105 100.994 70.0843 108.967C69.0737 108.759 68.0631 108.552 67.0524 108.344C58.8118 100.411 52.0093 92.2833 50.3379 82.9111C51.0117 83.0926 51.6984 83.2611 52.398 83.4167ZM52.5535 83.4556C54.4193 92.8667 64.0205 101.461 72.4943 109.433C72.4166 109.433 70.1621 109.006 70.0843 108.967C61.6105 100.994 54.2639 92.8278 52.398 83.4167C52.4499 83.4426 52.5017 83.4556 52.5535 83.4556V83.4556ZM56.7516 84.4667C58.8895 93.9945 67.2856 102.2 76.1482 110.211C74.9432 109.939 73.6993 109.706 72.4943 109.433C64.0205 101.461 54.4193 92.8667 52.5535 83.4556C53.3698 83.6889 55.8964 84.35 56.7516 84.4667ZM78.1306 81.2389C80.3463 97.7667 69.2292 102.706 78.9469 110.833C77.5087 110.522 77.9363 110.6 76.1482 110.211C67.2856 102.2 58.8895 93.9945 56.7516 84.4667C66.3139 86.0222 71.8724 86.2944 78.1306 81.2389V81.2389ZM78.9469 80.5778C81.1626 97.1056 69.4235 102.744 79.1413 110.911C79.0635 110.885 78.9987 110.859 78.9469 110.833C69.2292 102.706 80.3463 97.7667 78.1306 81.2389C78.3898 81.0315 78.6619 80.8111 78.9469 80.5778V80.5778ZM79.841 79.7611C82.4842 96.6778 72.0279 103.328 81.7456 111.456C81.6679 111.456 79.1801 110.911 79.1413 110.911C69.4235 102.744 81.1626 97.1056 78.9469 80.5778C79.232 80.3185 79.53 80.0463 79.841 79.7611V79.7611ZM18.5414 97.7667C22.0787 105.778 28.609 115.422 36.6553 121.8C34.5822 121.281 32.4961 120.776 30.3971 120.283C21.9232 112.739 17.5697 104.844 14.3434 96.8333C15.8982 97.2222 17.2587 97.4944 18.5414 97.7667ZM28.298 99.75C33.3901 107.644 45.6345 117.833 57.0626 125.456C57.0366 125.43 57.0107 125.417 56.9848 125.417C51.6595 124.133 41.864 123.083 36.6553 121.8C28.609 115.422 22.0787 105.778 18.5414 97.7667C21.69 98.3889 24.2943 98.7778 28.2203 99.75C28.2462 99.75 28.2721 99.75 28.298 99.75V99.75ZM37.1606 101.578C43.1079 109.783 58.1509 118.144 71.2505 128.528C66.4693 127.361 61.8437 126.583 57.0626 125.456C45.6345 117.833 33.3901 107.644 28.298 99.75C31.8742 100.644 34.3619 101.033 37.1606 101.578V101.578ZM38.2879 101.811C44.274 110.017 58.8118 118.3 72.0668 128.722C71.4448 128.567 71.8724 128.683 71.2505 128.528C58.1509 118.144 43.1079 109.783 37.1606 101.578C37.5234 101.656 37.8992 101.733 38.2879 101.811V101.811ZM38.6377 101.889C44.6239 110.094 59.356 118.417 72.5721 128.839C72.4166 128.813 72.2482 128.774 72.0668 128.722C58.8118 118.3 44.274 110.017 38.2879 101.811C38.3915 101.837 38.5082 101.863 38.6377 101.889ZM42.0972 102.667C48.3555 110.872 64.8368 119.583 78.7526 130.356C75.6429 129.461 74.2047 129.228 72.5721 128.839C59.356 118.417 44.6239 110.094 38.6377 101.889C39.6872 102.083 40.8145 102.356 42.0972 102.667V102.667ZM61.7271 107.022C70.1232 115.539 81.1237 124.211 92.4351 135.061C86.9543 133.117 84.6998 132.067 78.7526 130.356C64.8368 119.583 48.3555 110.872 42.0972 102.667C47.6169 103.989 56.1685 105.661 61.7271 107.022V107.022ZM62.0769 107.1C70.4731 115.656 81.1626 124.211 92.474 135.061C92.4481 135.061 92.4351 135.061 92.4351 135.061C81.1237 124.211 70.1232 115.539 61.7271 107.022C61.7659 107.022 62.0769 107.1 62.0769 107.1ZM63.0487 107.372C71.4448 115.889 81.3569 124.25 92.6684 135.1C92.5906 135.1 92.5259 135.087 92.474 135.061C81.1626 124.211 70.4731 115.656 62.0769 107.1C62.1547 107.139 63.0098 107.372 63.0487 107.372V107.372ZM67.0524 108.344C75.9927 116.939 89.0922 125.728 99.5485 136.772C97.2681 136.228 94.9747 135.67 92.6684 135.1C81.3569 124.25 71.4448 115.889 63.0487 107.372C64.9534 107.839 64.8756 107.878 67.0524 108.344V108.344ZM70.0843 108.967C79.2579 117.6 92.5518 126.389 102.736 137.55C101.673 137.291 100.611 137.031 99.5485 136.772C89.0922 125.728 75.9927 116.939 67.0524 108.344C68.0631 108.552 69.0737 108.759 70.0843 108.967V108.967ZM72.4943 109.433C81.6679 118.067 92.785 126.467 102.969 137.628C102.891 137.602 102.814 137.576 102.736 137.55C92.5518 126.389 79.2579 117.6 70.0843 108.967C70.1621 109.006 72.4166 109.433 72.4943 109.433ZM76.1482 110.211C85.7494 118.922 97.2163 127.206 106.779 138.561C105.509 138.25 104.239 137.939 102.969 137.628C92.785 126.467 81.6679 118.067 72.4943 109.433C73.6993 109.706 74.9432 109.939 76.1482 110.211V110.211ZM78.9469 110.833C89.4421 119.661 104.33 128.256 112.609 139.961C110.666 139.494 108.722 139.028 106.779 138.561C97.2163 127.206 85.7494 118.922 76.1482 110.211C77.9363 110.6 77.5087 110.522 78.9469 110.833V110.833ZM79.1413 110.911C89.6364 119.7 104.602 128.333 112.842 140.039C112.765 140.013 112.687 139.987 112.609 139.961C104.33 128.256 89.4421 119.661 78.9469 110.833C78.9987 110.859 79.0635 110.885 79.1413 110.911V110.911ZM81.7456 111.456C92.2797 120.283 104.874 128.372 113.115 140.078C113.037 140.052 112.946 140.039 112.842 140.039C104.602 128.333 89.6364 119.7 79.1413 110.911C79.1801 110.911 81.6679 111.456 81.7456 111.456ZM36.6553 121.8C51.6206 133.933 62.2324 136.461 70.473 151.783C69.6956 151.317 68.6461 150.694 66.8581 150.15C63.6706 141.322 44.0019 132.339 30.3971 120.283C32.4961 120.776 34.5822 121.281 36.6553 121.8V121.8ZM57.0626 125.456C71.6392 135.761 78.9081 142.567 79.8798 157.5C76.7313 155.594 74.1269 154.233 70.473 151.783C62.2324 136.461 51.6206 133.933 36.6553 121.8C41.864 123.083 51.6595 124.133 56.9848 125.417C57.0107 125.417 57.0366 125.43 57.0626 125.456V125.456ZM71.2505 128.528C82.8729 137.9 94.5731 151.822 93.8345 164.811C91.1524 163.683 83.145 159.444 79.8798 157.5C78.9081 142.567 71.6392 135.761 57.0626 125.456C61.8437 126.583 66.4693 127.361 71.2505 128.528ZM72.0668 128.722C84.039 138.328 96.2056 150.811 95.5837 164.422C95.2339 164.267 94.1844 164.967 93.8345 164.811C94.5731 151.822 82.8729 137.9 71.2505 128.528C71.8724 128.683 71.4448 128.567 72.0668 128.722ZM72.5721 128.839C84.661 138.522 96.5555 151.122 95.9335 164.656C95.804 164.526 95.6874 164.448 95.5837 164.422C96.2056 150.811 84.039 138.328 72.0668 128.722C72.2482 128.774 72.4166 128.813 72.5721 128.839V128.839ZM78.7526 130.356C94.2621 142.333 98.188 157.306 97.2163 168C96.2445 166.367 96.4389 165.083 95.9335 164.656C96.5555 151.122 84.661 138.522 72.5721 128.839C74.2047 129.228 75.6429 129.461 78.7526 130.356V130.356ZM92.4351 135.061C101.375 143.344 106.157 162.283 104.641 172.044C102.231 171.033 97.9937 169.167 97.2163 168C98.188 157.306 94.2621 142.333 78.7526 130.356C84.6998 132.067 86.9543 133.117 92.4351 135.061ZM92.474 135.061C101.414 143.344 106.195 162.283 104.641 172.083C104.641 172.083 104.641 172.07 104.641 172.044C106.157 162.283 101.375 143.344 92.4351 135.061C92.4351 135.061 92.4481 135.061 92.474 135.061V135.061ZM92.6684 135.1C101.609 143.383 106.312 162.361 104.796 172.122C104.744 172.096 104.692 172.083 104.641 172.083C106.195 162.283 101.414 143.344 92.474 135.061C92.5259 135.087 92.5906 135.1 92.6684 135.1V135.1ZM99.5485 136.772C107.984 145.483 111.054 164.422 109.266 173.872C107.763 173.328 106.273 172.744 104.796 172.122C106.312 162.361 101.609 143.383 92.6684 135.1C94.9747 135.67 97.2681 136.228 99.5485 136.772ZM102.736 137.55C110.977 146.417 113.231 165.317 111.326 174.572C110.627 174.339 109.94 174.106 109.266 173.872C111.054 164.422 107.984 145.483 99.5485 136.772C100.611 137.031 101.673 137.291 102.736 137.55V137.55ZM102.969 137.628C111.21 146.494 113.387 165.356 111.482 174.65C111.43 174.624 111.378 174.598 111.326 174.572C113.231 165.317 110.977 146.417 102.736 137.55C102.814 137.576 102.891 137.602 102.969 137.628ZM106.779 138.561C114.63 147.739 116.069 166.444 113.97 175.467C113.14 175.207 112.311 174.935 111.482 174.65C113.387 165.356 111.21 146.494 102.969 137.628C104.239 137.939 105.509 138.25 106.779 138.561ZM112.609 139.961C119.567 149.8 120.267 168.117 117.74 176.594C116.496 176.231 115.239 175.856 113.97 175.467C116.069 166.444 114.63 147.739 106.779 138.561C108.722 139.028 110.666 139.494 112.609 139.961V139.961ZM112.842 140.039C119.8 149.878 120.422 168.156 117.896 176.633C117.844 176.607 117.792 176.594 117.74 176.594C120.267 168.117 119.567 149.8 112.609 139.961C112.687 139.987 112.765 140.013 112.842 140.039ZM113.115 140.078C120.072 149.956 120.578 168.233 118.051 176.672C117.999 176.646 117.947 176.633 117.896 176.633C120.422 168.156 119.8 149.878 112.842 140.039C112.946 140.039 113.037 140.052 113.115 140.078V140.078ZM70.473 151.783C72.7276 155.944 71.6003 161.35 71.095 166.522C66.3916 164.733 72.4944 167.067 67.791 165.278C68.2963 160.067 68.5295 154.817 66.8581 150.15C68.6461 150.694 69.6956 151.317 70.473 151.783ZM79.8798 157.5C80.1131 161.389 79.9964 165.433 79.4134 169.672C79.3875 169.672 79.3615 169.672 79.3356 169.672C76.5887 168.635 73.8419 167.585 71.095 166.522C71.6003 161.35 72.7276 155.944 70.473 151.783C74.1269 154.233 76.7313 155.594 79.8798 157.5V157.5ZM93.8345 164.811C93.6402 168.194 93.1348 171.5 92.3185 174.611C89.7919 173.639 81.8622 170.644 79.4134 169.672C79.9964 165.433 80.1131 161.389 79.8798 157.5C83.145 159.444 91.1524 163.683 93.8345 164.811ZM95.5837 164.422C95.4282 167.961 94.9229 171.578 94.0289 175.272C93.7179 175.117 92.6295 174.728 92.3185 174.611C93.1348 171.5 93.6402 168.194 93.8345 164.811C94.1844 164.967 95.2339 164.267 95.5837 164.422ZM95.9335 164.656C95.778 168.194 95.2727 171.733 94.3787 175.389C94.2491 175.337 94.1325 175.298 94.0289 175.272C94.9229 171.578 95.4282 167.961 95.5837 164.422C95.6874 164.448 95.804 164.526 95.9335 164.656V164.656ZM97.2163 168C96.983 170.8 96.4 173.6 96.0113 175.972C95.6614 175.856 95.195 175.7 94.3787 175.389C95.2727 171.733 95.778 168.194 95.9335 164.656C96.4389 165.083 96.2445 166.367 97.2163 168V168ZM104.641 172.044C104.213 174.611 103.747 176.906 103.28 178.772C99.1987 177.217 98.81 177.061 96.0113 175.972C96.4 173.6 96.983 170.8 97.2163 168C97.9937 169.167 102.231 171.033 104.641 172.044ZM104.641 172.083C104.252 174.65 103.785 176.906 103.319 178.772C103.293 178.772 103.28 178.772 103.28 178.772C103.747 176.906 104.213 174.611 104.641 172.044C104.641 172.07 104.641 172.083 104.641 172.083ZM104.796 172.122C104.369 174.689 103.902 176.944 103.436 178.811C103.384 178.811 103.345 178.798 103.319 178.772C103.785 176.906 104.252 174.65 104.641 172.083C104.692 172.083 104.744 172.096 104.796 172.122ZM109.266 173.872C108.761 176.322 108.178 178.422 107.634 180.406C106.234 179.887 104.835 179.356 103.436 178.811C103.902 176.944 104.369 174.689 104.796 172.122C106.273 172.744 107.763 173.328 109.266 173.872ZM111.326 174.572C110.821 177.022 110.16 179.083 109.577 181.144C108.929 180.911 108.282 180.665 107.634 180.406C108.178 178.422 108.761 176.322 109.266 173.872C109.94 174.106 110.627 174.339 111.326 174.572ZM111.482 174.65C110.977 177.061 110.316 179.161 109.733 181.222C109.681 181.196 109.629 181.17 109.577 181.144C110.16 179.083 110.821 177.022 111.326 174.572C111.378 174.598 111.43 174.624 111.482 174.65ZM113.97 175.467C113.425 177.8 112.687 179.939 112.065 182.117C111.288 181.806 110.51 181.507 109.733 181.222C110.316 179.161 110.977 177.061 111.482 174.65C112.311 174.935 113.14 175.207 113.97 175.467V175.467ZM117.74 176.594C117.079 178.772 116.341 181.028 115.602 183.439C114.436 182.998 113.257 182.557 112.065 182.117C112.687 179.939 113.425 177.8 113.97 175.467C115.239 175.856 116.496 176.231 117.74 176.594ZM117.896 176.633C117.235 178.85 116.496 181.106 115.758 183.517C115.706 183.491 115.654 183.465 115.602 183.439C116.341 181.028 117.079 178.772 117.74 176.594C117.792 176.594 117.844 176.607 117.896 176.633ZM118.051 176.672C117.39 178.889 116.652 181.144 115.913 183.556C115.861 183.556 115.81 183.543 115.758 183.517C116.496 181.106 117.235 178.85 117.896 176.633C117.947 176.633 117.999 176.646 118.051 176.672Z" fill="url(#paint0_linear_220_3001)"/>
</g>
<g style="mix-blend-mode:screen" opacity="0.3">
<path fill-rule="evenodd" clip-rule="evenodd" d="M47.6558 174.961C47.889 163.8 51.5817 159.6 55.8575 152.911C58.2675 148.945 59.5114 144.511 55.6632 140.428C51.815 136.306 47.7724 129.345 50.5322 121.606C53.2532 113.828 61.6882 111.145 67.3633 107.333C68.4517 106.517 69.4235 105.545 70.1621 104.222C70.3175 103.963 70.4601 103.691 70.5896 103.406C71.6003 101.072 71.7558 99.0112 71.3282 97.1446C71.2504 96.7557 71.1468 96.3927 71.0172 96.0557C68.1408 90.1446 64.2148 86.139 62.3101 79.5668C64.2148 77.2335 65.8474 79.5668 66.3138 79.9946C66.8191 80.4612 67.2856 80.8112 68.3351 81.589C68.8016 81.9001 69.1903 82.1335 69.5012 82.3668C69.1903 82.1335 68.8016 81.9001 68.3351 81.589C68.063 80.3057 61.9992 54.639 42.6025 44.139C42.6025 43.6335 42.6025 43.2446 42.6025 43.1668C42.6025 40.1724 42.6025 42.2335 42.6025 39.2779C42.6025 39.1483 42.6025 39.0057 42.6025 38.8501C42.6025 37.8909 42.6025 36.9187 42.6025 35.9335C42.6025 35.0779 42.6025 34.2224 42.6025 33.3668C42.6025 33.0557 42.6025 32.7316 42.6025 32.3946C42.6025 31.6686 42.6025 30.9427 42.6025 30.2168C51.2708 40.6779 66.6248 37.839 76.9645 46.8612C87.2653 55.8446 86.138 74.6279 90.4138 82.6779C91.7743 85.2446 92.2796 86.2168 92.4351 86.5668C99.7817 99.8668 93.8733 128.061 89.0533 137.511C84.1945 146.922 61.6882 165.9 74.71 174.961C71.9113 174.961 69.1125 174.961 66.3138 174.961C64.8367 174.961 63.3726 174.961 61.9214 174.961C55.5466 168 65.6141 161.039 68.8404 155.206C72.0667 149.333 73.1551 144.2 72.5721 135.995C71.6003 136.072 66.8969 136.15 66.6637 136.15C65.6141 136.189 62.4656 136.811 62.1158 136.928C62.1158 136.889 61.8437 136.617 61.8437 136.578L61.6882 137.045C63.4374 138.795 64.759 140.661 65.5753 142.606L65.7308 141.75C66.0806 142.333 66.3138 142.761 66.4304 143.033C67.48 145.172 69.0348 149.722 66.3916 153.845C65.3032 155.517 64.0982 156.956 62.9709 158.317L63.2819 156.528C58.6951 162.478 54.9635 166.756 58.1898 174.961C56.635 174.961 54.6137 174.961 53.5253 174.961C53.3957 174.961 53.2661 174.961 53.1366 174.961C52.5146 174.961 51.8927 174.961 51.2708 174.961C50.0658 174.961 49.0551 174.961 47.6558 174.961ZM68.9182 115.967C73.8159 113.867 79.6466 110.795 82.9506 105.506C84.6998 103.367 84.5832 100.956 83.6503 98.6223C83.5207 98.3112 83.3652 97.9872 83.1838 97.6501C81.5901 95.0057 79.8798 92.5946 78.2861 89.7946C78.1565 89.7686 78.0399 89.7298 77.9362 89.6779L68.9182 115.967ZM87.3819 91.5057C87.6151 91.8168 87.8354 92.1279 88.0427 92.439C92.0853 98.4668 93.4069 108.228 89.1311 114.372C84.6609 121.645 76.7701 122.695 73.8548 126.233C72.1056 128.372 72.2222 131.095 72.5721 135.995C73.5438 135.878 73.7771 135.917 74.71 136.383C74.9043 133.739 74.7488 129.111 78.9469 127.478C93.4458 121.917 97.9159 105.233 88.6258 91.389C88.4703 91.1557 88.3148 90.9223 88.1593 90.689C87.8872 91.039 87.5374 91.389 87.3819 91.5057ZM66.4304 142.995C66.0417 142.217 65.7308 141.711 65.7308 141.711C65.7308 141.711 66.1584 142.528 66.4304 142.995ZM42.6025 44.1001C61.9992 54.639 68.063 80.3057 68.374 81.589C67.2856 80.8112 66.8192 80.4612 66.3527 79.9946C66.0806 79.3335 60.4443 55.7668 42.6025 49.0001C42.6025 47.6779 42.6025 44.839 42.6025 44.1001V44.1001ZM62.3101 79.5668C64.2148 77.2335 65.8474 79.5279 66.3527 79.9946C66.0806 79.3335 60.4443 55.7668 42.6025 49.0001C42.6025 50.7372 42.6025 52.4742 42.6025 54.2112C42.6025 55.4557 42.6025 56.7131 42.6025 57.9835C54.5359 61.4446 60.2888 75.6001 61.9991 78.9057C62.1028 79.1131 62.2065 79.3335 62.3101 79.5668V79.5668Z" fill="url(#paint1_linear_220_3001)"/>
</g>
<g style="mix-blend-mode:screen">
<path d="M48.4332 190.75C46.8006 184.061 57.0237 181.222 64.176 173.678C66.275 173.561 85.7105 173.872 87.7706 173.678C80.6573 181.378 74.2435 184.45 74.2435 190.75C71.4448 190.75 51.1931 190.75 48.4332 190.75V190.75ZM39.4152 190.75C40.5424 183.906 51.9705 181.145 59.2782 173.678C62.1547 173.834 61.2995 173.795 64.176 173.678C57.0237 181.222 46.8006 184.061 48.4332 190.75C44.5461 190.75 43.2634 190.75 39.4152 190.75ZM35.2171 190.75C36.5776 182.739 48.3555 180.834 55.8576 173.678C56.2074 173.678 58.8895 173.639 59.2782 173.678C51.9705 181.145 40.5424 183.906 39.4152 190.75C38.871 190.75 35.7613 190.75 35.2171 190.75V190.75ZM34.4786 190.75C35.8779 182.739 47.7335 180.834 55.3134 173.678C55.5077 173.678 55.7021 173.639 55.8576 173.678C48.3555 180.834 36.5776 182.739 35.2171 190.75C34.9839 190.75 34.7377 190.75 34.4786 190.75ZM29.4642 190.75C31.2911 182.584 43.6132 180.756 51.6595 173.678C52.9034 173.678 54.0695 173.678 55.3134 173.678C47.7335 180.834 35.8779 182.739 34.4786 190.75C32.7941 190.75 31.1227 190.75 29.4642 190.75ZM24.8385 190.75C26.9764 182.467 39.8039 180.717 48.2777 173.678C49.405 173.522 50.5323 173.678 51.6595 173.678C43.6132 180.756 31.2911 182.584 29.4642 190.75C27.9093 190.75 26.3675 190.75 24.8385 190.75ZM22.7395 190.75C24.6831 183.245 37.5105 180.911 46.0621 173.678C46.2565 173.639 48.0834 173.678 48.2777 173.678C39.8039 180.717 26.9764 182.467 24.8385 190.75C24.6442 190.75 22.9339 190.75 22.7395 190.75V190.75ZM0 190.75C2.29339 182.739 15.4706 180.717 24.3721 173.678C27.404 173.639 45.2069 173.756 46.0621 173.678C37.5105 180.911 24.6831 183.245 22.7395 190.75C21.4956 190.75 3.3429 190.75 0 190.75ZM64.176 173.678C70.6285 166.872 74.5934 160.728 76.1093 152.561C77.8197 152.561 97.0608 152.561 98.7711 152.561C97.4495 158.9 94.3398 166.522 87.7706 173.678C85.7105 173.872 66.275 173.561 64.176 173.678ZM59.2782 173.678C65.6531 167.106 70.201 160.611 71.406 152.561C73.816 152.561 73.6605 152.561 76.1093 152.561C74.5934 160.728 70.6285 166.872 64.176 173.678C61.2995 173.795 62.1547 173.834 59.2782 173.678ZM55.8576 173.678C62.8155 166.989 66.6248 159.95 67.9853 152.561C68.2574 152.561 71.1339 152.561 71.406 152.561C70.201 160.611 65.6531 167.106 59.2782 173.678C58.8895 173.639 56.2074 173.678 55.8576 173.678ZM55.3134 173.678C62.349 167.028 66.0806 159.95 67.6355 152.561C67.7651 152.561 67.8817 152.561 67.9853 152.561C66.6248 159.95 62.8155 166.989 55.8576 173.678C55.7021 173.639 55.5077 173.678 55.3134 173.678ZM51.6595 173.678C59.0839 167.067 63.4374 160.145 65.0311 152.561C65.9122 152.561 66.7803 152.561 67.6355 152.561C66.0806 159.95 62.349 167.028 55.3134 173.678C54.0695 173.678 52.9034 173.678 51.6595 173.678ZM48.2777 173.678C56.1297 167.145 60.8331 160.261 62.6989 152.561C63.4763 152.561 64.2537 152.561 65.0311 152.561C63.4374 160.145 59.0839 167.067 51.6595 173.678C50.5323 173.678 49.405 173.522 48.2777 173.678ZM46.0621 173.678C53.5253 167.339 59.1227 160.806 60.8719 152.561C60.9885 152.561 62.5823 152.561 62.6989 152.561C60.8331 160.261 56.1297 167.145 48.2777 173.678C48.0834 173.678 46.2565 173.639 46.0621 173.678ZM24.3721 173.678C32.1852 167.417 38.7155 161.039 39.9205 152.561C42.6803 152.561 60.25 152.561 60.8719 152.561C59.1227 160.806 53.5253 167.339 46.0621 173.678C45.2069 173.756 27.404 173.639 24.3721 173.678V173.678ZM76.1093 152.561C78.4805 139.106 69.1126 127.167 63.0487 121.295C64.4092 121.295 83.2616 121.295 84.6221 121.295C90.4139 126.895 102.036 136.889 98.7711 152.561C97.0608 152.561 77.8197 152.561 76.1093 152.561V152.561ZM71.406 152.561C73.4273 139.106 66.3527 127.478 59.9001 121.295C61.8048 121.295 61.1052 121.295 63.0487 121.295C69.1126 127.167 78.4805 139.106 76.1093 152.561C73.6605 152.561 73.816 152.561 71.406 152.561V152.561ZM67.9853 152.561C70.6286 138.172 63.0487 127.634 56.4795 121.295C56.7516 121.295 59.6281 121.295 59.9001 121.295C66.3527 127.478 73.4273 139.106 71.406 152.561C71.1339 152.561 68.2574 152.561 67.9853 152.561V152.561ZM67.6355 152.561C70.1621 140.234 62.7766 127.672 56.0908 121.295C56.2204 121.295 56.3499 121.295 56.4795 121.295C63.0487 127.634 70.6286 138.172 67.9853 152.561C67.8817 152.561 67.7651 152.561 67.6355 152.561V152.561ZM65.0311 152.561C67.7521 139.106 61.7271 129.306 53.4864 121.295C54.3675 121.295 55.2356 121.295 56.0908 121.295C62.7766 127.672 70.1621 140.234 67.6355 152.561C66.7803 152.561 65.9122 152.561 65.0311 152.561V152.561ZM62.6989 152.561C65.5364 139.884 60.4832 130.511 51.1153 121.295C51.9187 121.295 52.709 121.295 53.4864 121.295C61.7271 129.306 67.7521 139.106 65.0311 152.561C64.2537 152.561 63.4763 152.561 62.6989 152.561V152.561ZM60.8719 152.561C63.2042 140.856 58.6952 130.55 49.3273 121.295C49.4439 121.295 51.0376 121.295 51.1153 121.295C60.4832 130.511 65.5364 139.884 62.6989 152.561C62.5823 152.561 60.9885 152.561 60.8719 152.561V152.561ZM39.9205 152.561C41.2421 142.606 38.6766 131.484 28.3758 121.295C31.0968 121.295 48.7053 121.295 49.3273 121.295C58.6952 130.55 63.2042 140.856 60.8719 152.561C60.25 152.561 42.6803 152.561 39.9205 152.561V152.561ZM63.0487 121.295C61.4161 119.739 59.7836 118.222 58.3842 116.861C55.6244 114.256 52.7479 111.65 50.2602 109.822C51.7373 109.822 70.1232 109.822 71.6003 109.822C76.226 113.05 80.5406 117.406 84.6221 121.295C83.2616 121.295 64.4092 121.295 63.0487 121.295ZM59.9001 121.295C58.1121 119.622 56.4406 118.222 55.119 117.095C52.3203 114.684 49.2107 112.039 46.6063 109.822C48.7053 109.822 48.2 109.822 50.2602 109.822C52.7479 111.65 55.6244 114.256 58.3842 116.861C59.7836 118.222 61.4161 119.739 63.0487 121.295C61.1052 121.295 61.8048 121.295 59.9001 121.295ZM56.4795 121.295C52.2814 117.328 47.7335 113.595 43.3023 109.822C43.5355 109.822 46.3731 109.822 46.6063 109.822C49.2107 112.039 52.3203 114.684 55.119 117.095C56.4406 118.222 58.1121 119.622 59.9001 121.295C59.6281 121.295 56.7516 121.295 56.4795 121.295ZM56.0908 121.295C51.9316 117.328 47.3837 113.595 42.9913 109.822C43.0949 109.822 43.1986 109.822 43.3023 109.822C47.7335 113.595 52.2814 117.328 56.4795 121.295C56.3499 121.295 56.2204 121.295 56.0908 121.295ZM53.4864 121.295C49.405 117.328 44.9737 113.595 40.6979 109.822C41.4494 109.822 42.2139 109.822 42.9913 109.822C47.3837 113.595 51.9316 117.328 56.0908 121.295C55.2356 121.295 54.3675 121.295 53.4864 121.295ZM51.1153 121.295C47.0727 117.367 42.0973 113.711 37.0829 109.822C37.7826 109.822 39.9982 109.822 40.6979 109.822C44.9737 113.595 49.405 117.328 53.4864 121.295C52.709 121.295 51.9187 121.295 51.1153 121.295ZM49.3273 121.295C47.5781 119.622 45.5179 118.028 43.691 116.706C40.2314 114.1 36.6942 111.65 34.4397 109.822C34.5174 109.822 36.9663 109.822 37.0829 109.822C42.0973 113.711 47.0727 117.367 51.1153 121.295C51.0376 121.295 49.4439 121.295 49.3273 121.295ZM28.3758 121.295C26.7044 119.7 25.0329 118.222 23.4781 116.861C20.796 114.489 18.1916 112.156 16.0926 109.822C18.7358 109.822 33.8566 109.822 34.4397 109.822C36.6942 111.65 40.2314 114.1 43.691 116.706C45.5179 118.028 47.5781 119.622 49.3273 121.295C48.7053 121.295 31.0968 121.295 28.3758 121.295ZM50.2602 109.822C44.0797 105.156 32.9626 95.0835 33.8566 88.3169C40.4906 91.4798 47.1246 94.6298 53.7585 97.7669C65.1089 105.078 66.586 106.284 71.6003 109.822C70.1232 109.822 51.7373 109.822 50.2602 109.822ZM46.6063 109.822C45.2847 108.656 31.6021 99.478 30.4748 86.6835C31.6151 87.228 32.7423 87.7724 33.8566 88.3169C32.9626 95.0835 44.0797 105.156 50.2602 109.822C48.2 109.822 48.7053 109.822 46.6063 109.822ZM43.3023 109.822C41.9418 108.656 28.6479 98.0391 27.5206 85.2835C28.5054 85.7502 29.4901 86.2169 30.4748 86.6835C31.6021 99.478 45.2847 108.656 46.6063 109.822C46.3731 109.822 43.5355 109.822 43.3023 109.822ZM42.9913 109.822C41.6308 108.617 28.3369 97.9224 27.2097 85.1669C27.3133 85.1928 27.417 85.2317 27.5206 85.2835C28.6479 98.0391 41.9418 108.656 43.3023 109.822C43.1986 109.822 43.0949 109.822 42.9913 109.822ZM40.6979 109.822C39.1431 108.422 26.3156 96.9502 25.2273 84.1946C25.8751 84.5058 26.5359 84.8298 27.2097 85.1669C28.3369 97.9224 41.6308 108.617 42.9913 109.822C42.2139 109.822 41.4494 109.822 40.6979 109.822V109.822ZM37.0829 109.822C29.1921 103.484 24.4498 96.0558 23.4003 83.3391C23.9963 83.6243 24.6053 83.9095 25.2273 84.1946C26.3156 96.9502 39.1431 108.422 40.6979 109.822C39.9982 109.822 37.7826 109.822 37.0829 109.822ZM34.4397 109.822C27.404 103.95 22.8561 95.3169 21.8066 82.5613C22.3249 82.8206 22.8561 83.0798 23.4003 83.3391C24.4498 96.0558 29.1921 103.484 37.0829 109.822C36.9663 109.822 34.5174 109.822 34.4397 109.822ZM16.0926 109.822C3.10967 95.0835 4.15919 86.4113 3.10968 73.6558C9.32903 76.6372 15.5613 79.6058 21.8066 82.5613C22.8561 95.3169 27.404 103.95 34.4397 109.822C33.8566 109.822 18.7358 109.822 16.0926 109.822V109.822Z" fill="url(#paint2_linear_220_3001)"/>
</g>
<g style="mix-blend-mode:screen">
<path d="M59.045 0.544259C59.3171 2.06093 59.5892 3.65537 59.8613 5.24982L58.3453 5.17204C58.0732 3.57759 57.8011 1.98315 57.529 0.505371L59.045 0.544259V0.544259ZM59.1227 0.544259C59.356 2.06093 59.6281 3.65537 59.939 5.24982C59.9131 5.24982 59.8872 5.24982 59.8613 5.24982C59.5892 3.65537 59.3171 2.06093 59.045 0.544259C59.0709 0.544259 59.0968 0.544259 59.1227 0.544259V0.544259ZM60.9108 0.622037C61.1959 2.15167 61.4809 3.72019 61.766 5.32759C61.144 5.30167 60.5351 5.27574 59.939 5.24982C59.6281 3.65537 59.356 2.06093 59.1227 0.544259C59.7188 0.570185 60.3148 0.596112 60.9108 0.622037V0.622037ZM61.766 0.660927C62.0251 2.19056 62.2972 3.75907 62.5823 5.36648C62.2972 5.34056 62.0251 5.32759 61.766 5.32759C61.4809 3.72019 61.1959 2.15167 60.9108 0.622037C61.1959 0.622037 61.4809 0.635001 61.766 0.660927ZM61.8048 0.660927C62.0899 2.19056 62.375 3.75907 62.66 5.36648C62.6341 5.36648 62.6082 5.36648 62.5823 5.36648C62.2972 3.75907 62.0251 2.19056 61.766 0.660927C61.7919 0.660927 61.8048 0.660927 61.8048 0.660927ZM62.8155 0.699816C63.1005 2.22945 63.3726 3.785 63.6318 5.36648C63.3208 5.36648 62.9969 5.36648 62.66 5.36648C62.375 3.75907 62.0899 2.19056 61.8048 0.660927C62.1417 0.660927 62.4786 0.67389 62.8155 0.699816ZM59.8613 5.24982C60.4055 8.24426 60.9497 11.3943 61.4939 14.5443L59.9779 14.4665C59.4337 11.3165 58.8895 8.20537 58.3453 5.17204L59.8613 5.24982ZM59.939 5.24982C60.4444 8.24426 60.9885 11.3943 61.5327 14.5443C61.5327 14.5443 61.5198 14.5443 61.4939 14.5443C60.9497 11.3943 60.4055 8.24426 59.8613 5.24982C59.8872 5.24982 59.9131 5.24982 59.939 5.24982ZM61.766 5.32759C62.2713 8.36093 62.8155 11.472 63.3597 14.5831C62.7637 14.5831 62.1547 14.5702 61.5327 14.5443C60.9885 11.3943 60.4444 8.24426 59.939 5.24982C60.5351 5.27574 61.144 5.30167 61.766 5.32759ZM62.5823 5.36648C63.1265 8.39982 63.6707 11.5109 64.2148 14.622C63.9298 14.622 63.6447 14.6091 63.3597 14.5831C62.8155 11.472 62.2713 8.36093 61.766 5.32759C62.0251 5.32759 62.2972 5.34056 62.5823 5.36648ZM62.66 5.36648C63.1653 8.39982 63.7095 11.5109 64.2537 14.622C64.2537 14.622 64.2408 14.622 64.2148 14.622C63.6707 11.5109 63.1265 8.39982 62.5823 5.36648C62.6082 5.36648 62.6341 5.36648 62.66 5.36648V5.36648ZM63.6318 5.36648C64.176 8.4387 64.7202 11.5498 65.2644 14.6609C64.9275 14.6609 64.5906 14.648 64.2537 14.622C63.7095 11.5109 63.1653 8.39982 62.66 5.36648C62.9969 5.36648 63.3208 5.36648 63.6318 5.36648V5.36648ZM61.4939 14.5443C66.9358 45.6165 39.1431 52.6554 44.0019 81.2776C43.8076 81.1998 43.1468 81.1609 43.1079 81.1609C38.2102 52.5776 65.4198 45.5387 59.9779 14.4665L61.4939 14.5443V14.5443ZM61.5327 14.5443C66.9747 45.6165 43.8464 53.4332 47.4614 82.2109C47.4226 82.2109 44.896 81.5109 44.0019 81.2776C39.1431 52.6554 66.9358 45.6165 61.4939 14.5443C61.5198 14.5443 61.5327 14.5443 61.5327 14.5443ZM63.3597 14.5831C69.0737 47.2498 45.4402 54.2887 50.3379 82.9109C48.8219 82.5609 48.9774 82.5998 47.4614 82.2109C43.8464 53.4332 66.9747 45.6165 61.5327 14.5443C62.1547 14.5702 62.7637 14.5831 63.3597 14.5831V14.5831ZM64.2148 14.622C70.0066 47.872 46.2176 54.5998 51.5429 83.222C50.8432 83.0276 50.9987 83.1054 50.3379 82.9109C45.4402 54.2887 69.0737 47.2498 63.3597 14.5831C63.6447 14.6091 63.9298 14.622 64.2148 14.622V14.622ZM64.2537 14.622C70.0844 47.872 47.2282 54.872 52.5536 83.4554C52.5147 83.4554 51.6206 83.222 51.5429 83.222C46.2176 54.5998 70.0066 47.872 64.2148 14.622C64.2408 14.622 64.2537 14.622 64.2537 14.622V14.622ZM65.2644 14.6609C71.2894 49.1165 56.2852 56.272 60.5221 85.1665C59.045 84.8554 53.3698 83.6887 52.5536 83.4554C47.2282 54.872 70.0844 47.872 64.2537 14.622C64.5906 14.648 64.9275 14.6609 65.2644 14.6609V14.6609ZM44.0019 81.2776C45.7123 90.7276 54.3416 99.2443 62.0769 107.1C62.0769 107.1 61.766 107.022 61.7271 107.022C53.9918 99.1665 44.8571 90.6498 43.1079 81.1609C43.1468 81.1609 43.8076 81.1998 44.0019 81.2776V81.2776ZM47.4614 82.2109C48.7442 91.4665 55.3134 99.5165 63.0487 107.372C63.0098 107.372 62.1547 107.139 62.0769 107.1C54.3416 99.2443 45.7123 90.7276 44.0019 81.2776C44.896 81.5109 47.4226 82.2109 47.4614 82.2109V82.2109ZM50.3379 82.9109C52.0094 92.2832 58.8118 100.411 67.0524 108.344C64.8756 107.878 64.9534 107.839 63.0487 107.372C55.3134 99.5165 48.7442 91.4665 47.4614 82.2109C48.9774 82.5998 48.8219 82.5609 50.3379 82.9109V82.9109ZM51.5429 83.222C53.4087 92.6331 61.6105 100.994 70.0844 108.966C69.0737 108.759 68.0631 108.552 67.0524 108.344C58.8118 100.411 52.0094 92.2832 50.3379 82.9109C50.9987 83.1054 50.8432 83.0276 51.5429 83.222V83.222ZM52.5536 83.4554C54.4194 92.8665 64.0205 101.461 72.4944 109.433C72.4166 109.433 70.1621 109.005 70.0844 108.966C61.6105 100.994 53.4087 92.6331 51.5429 83.222C51.6206 83.222 52.5147 83.4554 52.5536 83.4554V83.4554ZM60.5221 85.1665C61.5716 92.0887 67.2857 102.2 76.1482 110.211C74.9432 109.939 73.6994 109.705 72.4944 109.433C64.0205 101.461 54.4194 92.8665 52.5536 83.4554C53.3698 83.6887 59.045 84.8554 60.5221 85.1665V85.1665ZM62.0769 107.1C70.4731 115.655 81.1626 124.211 92.474 135.061C92.4481 135.061 92.4352 135.061 92.4352 135.061C81.1237 124.211 70.1232 115.539 61.7271 107.022C61.766 107.022 62.0769 107.1 62.0769 107.1V107.1ZM63.0487 107.372C71.4448 115.889 81.3569 124.25 92.6684 135.1C92.5907 135.1 92.5259 135.087 92.474 135.061C81.1626 124.211 70.4731 115.655 62.0769 107.1C62.1547 107.139 63.0098 107.372 63.0487 107.372ZM67.0524 108.344C75.9927 116.939 89.0922 125.728 99.5485 136.772C97.2681 136.228 94.9747 135.67 92.6684 135.1C81.3569 124.25 71.4448 115.889 63.0487 107.372C64.9534 107.839 64.8756 107.878 67.0524 108.344V108.344ZM70.0844 108.966C79.2579 117.6 92.5518 126.389 102.736 137.55C101.673 137.291 100.611 137.031 99.5485 136.772C89.0922 125.728 75.9927 116.939 67.0524 108.344C68.0631 108.552 69.0737 108.759 70.0844 108.966V108.966ZM72.4944 109.433C81.6679 118.066 92.785 126.466 102.969 137.628C102.891 137.602 102.814 137.576 102.736 137.55C92.5518 126.389 79.2579 117.6 70.0844 108.966C70.1621 109.005 72.4166 109.433 72.4944 109.433ZM76.1482 110.211C85.7494 118.922 97.2163 127.205 106.779 138.561C105.509 138.25 104.239 137.939 102.969 137.628C92.785 126.466 81.6679 118.066 72.4944 109.433C73.6994 109.705 74.9432 109.939 76.1482 110.211ZM92.474 135.061C101.414 143.344 106.195 162.283 104.641 172.083C104.641 172.083 104.641 172.07 104.641 172.044C106.157 162.283 101.375 143.344 92.4352 135.061C92.4352 135.061 92.4481 135.061 92.474 135.061ZM92.6684 135.1C101.609 143.383 106.312 162.361 104.796 172.122C104.744 172.096 104.692 172.083 104.641 172.083C106.195 162.283 101.414 143.344 92.474 135.061C92.5259 135.087 92.5907 135.1 92.6684 135.1V135.1ZM99.5485 136.772C107.984 145.483 111.054 164.422 109.266 173.872C107.763 173.328 106.273 172.744 104.796 172.122C106.312 162.361 101.609 143.383 92.6684 135.1C94.9747 135.67 97.2681 136.228 99.5485 136.772V136.772ZM102.736 137.55C110.977 146.416 113.231 165.316 111.326 174.572C110.627 174.339 109.94 174.105 109.266 173.872C111.054 164.422 107.984 145.483 99.5485 136.772C100.611 137.031 101.673 137.291 102.736 137.55V137.55ZM102.969 137.628C111.21 146.494 113.387 165.355 111.482 174.65C111.43 174.624 111.378 174.598 111.326 174.572C113.231 165.316 110.977 146.416 102.736 137.55C102.814 137.576 102.891 137.602 102.969 137.628ZM106.779 138.561C114.63 147.739 116.069 166.444 113.97 175.466C113.14 175.207 112.311 174.935 111.482 174.65C113.387 165.355 111.21 146.494 102.969 137.628C104.239 137.939 105.509 138.25 106.779 138.561V138.561ZM104.641 172.083C104.252 174.65 103.785 176.905 103.319 178.772C103.293 178.772 103.28 178.772 103.28 178.772C103.747 176.905 104.213 174.611 104.641 172.044C104.641 172.07 104.641 172.083 104.641 172.083ZM104.796 172.122C104.369 174.689 103.902 176.944 103.436 178.811C103.384 178.811 103.345 178.798 103.319 178.772C103.785 176.905 104.252 174.65 104.641 172.083C104.692 172.083 104.744 172.096 104.796 172.122ZM109.266 173.872C108.761 176.322 108.178 178.422 107.634 180.405C106.234 179.887 104.835 179.355 103.436 178.811C103.902 176.944 104.369 174.689 104.796 172.122C106.273 172.744 107.763 173.328 109.266 173.872ZM111.326 174.572C110.821 177.022 110.16 179.083 109.577 181.144C108.929 180.911 108.282 180.665 107.634 180.405C108.178 178.422 108.761 176.322 109.266 173.872C109.94 174.105 110.627 174.339 111.326 174.572ZM111.482 174.65C110.977 177.061 110.316 179.161 109.733 181.222C109.681 181.196 109.629 181.17 109.577 181.144C110.16 179.083 110.821 177.022 111.326 174.572C111.378 174.598 111.43 174.624 111.482 174.65ZM113.97 175.466C113.425 177.8 112.687 179.939 112.065 182.116C111.288 181.805 110.51 181.507 109.733 181.222C110.316 179.161 110.977 177.061 111.482 174.65C112.311 174.935 113.14 175.207 113.97 175.466V175.466Z" fill="url(#paint3_linear_220_3001)"/>
</g>
<defs>
<linearGradient id="paint0_linear_220_3001" x1="43.1079" y1="5.54488e-08" x2="38.7503" y2="101.889" gradientUnits="userSpaceOnUse">
<stop stop-opacity="0"/>
<stop offset="1" stop-color="#C3BEBE" stop-opacity="0.67"/>
</linearGradient>
<linearGradient id="paint1_linear_220_3001" x1="84.3499" y1="90.3779" x2="42.5887" y2="59.1686" gradientUnits="userSpaceOnUse">
<stop stop-color="#8B8B8B"/>
<stop offset="1" stop-opacity="0"/>
</linearGradient>
<linearGradient id="paint2_linear_220_3001" x1="72.3389" y1="190.75" x2="66.1139" y2="152.562" gradientUnits="userSpaceOnUse">
<stop stop-opacity="0"/>
<stop offset="1" stop-color="#6D6D6D" stop-opacity="0.64"/>
</linearGradient>
<linearGradient id="paint3_linear_220_3001" x1="60.6776" y1="0.505371" x2="54.7249" y2="83.2216" gradientUnits="userSpaceOnUse">
<stop stop-opacity="0"/>
<stop offset="1" stop-color="#6E6E6E" stop-opacity="0.77"/>
</linearGradient>
</defs>
</svg>
