<svg width="77" height="183" viewBox="0 0 77 183" fill="none" xmlns="http://www.w3.org/2000/svg">
<g clip-path="url(#clip0_227_16)">
<g style="mix-blend-mode:screen">
<path d="M50.075 0C50.0237 0.925001 49.9596 1.8625 49.8827 2.8125C49.5494 2.8125 49.216 2.8125 48.8827 2.8125C48.934 1.8625 48.9981 0.925001 49.075 0C49.4084 0 49.7417 0 50.075 0ZM52.5751 0C52.5238 0.900001 52.4597 1.8375 52.3827 2.8125C51.5622 2.8125 50.7289 2.8125 49.8827 2.8125C49.9596 1.8625 50.0237 0.925001 50.075 0C50.9212 0 51.7545 0 52.5751 0ZM54.8828 0C54.8443 0.862501 54.7674 1.8375 54.6905 2.8125C53.9212 2.8125 53.152 2.8125 52.3827 2.8125C52.4597 1.8375 52.5238 0.900001 52.5751 0C53.3443 0 54.1135 0 54.8828 0ZM55.1905 0C55.1135 0.862501 55.0751 1.8375 54.9981 2.8125C54.8956 2.8125 54.793 2.8125 54.6905 2.8125C54.7674 1.8375 54.8443 0.862501 54.8828 0C54.9853 0 55.0879 0 55.1905 0ZM56.0751 0C56.0366 0.862501 55.9597 1.8375 55.9212 2.8125C55.6135 2.8125 55.3058 2.8125 54.9981 2.8125C55.0751 1.8375 55.1135 0.862501 55.1905 0C55.4982 0 55.793 0 56.0751 0ZM59.6136 0C59.5366 0.900001 59.4725 1.85 59.4213 2.85C58.2418 2.825 57.0751 2.8125 55.9212 2.8125C55.9597 1.8375 56.0366 0.862501 56.0751 0C57.2546 0 58.4341 0 59.6136 0ZM63.1136 0C63.0623 0.950001 62.9982 1.9 62.9213 2.85C61.7418 2.85 60.5751 2.85 59.4213 2.85C59.4725 1.85 59.5366 0.900001 59.6136 0C60.7674 0 61.9341 0 63.1136 0ZM49.8827 2.8125C49.7545 4.68751 49.6263 6.56251 49.4981 8.43751C49.1648 8.43751 48.8314 8.43751 48.4981 8.43751C48.6263 6.56251 48.7545 4.68751 48.8827 2.8125C49.216 2.8125 49.5494 2.8125 49.8827 2.8125ZM52.3827 2.8125C52.2674 4.65001 52.152 6.52501 51.9981 8.43751C51.1776 8.43751 50.3443 8.43751 49.4981 8.43751C49.6263 6.56251 49.7545 4.68751 49.8827 2.8125C50.7289 2.8125 51.5622 2.8125 52.3827 2.8125ZM54.6905 2.8125C54.5751 4.61251 54.4597 6.52501 54.3058 8.43751C53.5366 8.43751 52.7674 8.43751 51.9981 8.43751C52.152 6.52501 52.2674 4.65001 52.3827 2.8125C53.152 2.8125 53.9212 2.8125 54.6905 2.8125ZM54.9981 2.8125C54.8828 4.61251 54.7289 6.52501 54.6135 8.43751C54.511 8.43751 54.4084 8.43751 54.3058 8.43751C54.4597 6.52501 54.5751 4.61251 54.6905 2.8125C54.793 2.8125 54.8956 2.8125 54.9981 2.8125ZM55.9212 2.8125C55.7674 4.57501 55.652 6.52501 55.5366 8.43751C55.2289 8.43751 54.9212 8.43751 54.6135 8.43751C54.7289 6.52501 54.8828 4.61251 54.9981 2.8125C55.3058 2.8125 55.6135 2.8125 55.9212 2.8125ZM59.4213 2.85C59.3059 4.65001 59.152 6.52501 59.0366 8.43751C57.8571 8.43751 56.6905 8.43751 55.5366 8.43751C55.652 6.52501 55.7674 4.57501 55.9212 2.8125C57.0751 2.8125 58.2418 2.825 59.4213 2.85ZM62.9213 2.85C62.7931 4.70001 62.6649 6.56251 62.5367 8.43751C61.3828 8.43751 60.2161 8.43751 59.0366 8.43751C59.152 6.52501 59.3059 4.65001 59.4213 2.85C60.5751 2.85 61.7418 2.85 62.9213 2.85ZM49.4981 8.43751C48.3827 25.0875 26.3825 24.15 18.5747 45.6376C17.8824 45.4876 17.1901 45.3376 16.4978 45.1876C24.5748 23.325 47.3827 25.2375 48.4981 8.43751C48.8314 8.43751 49.1648 8.43751 49.4981 8.43751ZM51.9981 8.43751C50.9212 24.45 30.3825 26.85 23.7286 46.6876C22.0107 46.3376 20.2927 45.9876 18.5747 45.6376C26.3825 24.15 48.3827 25.0875 49.4981 8.43751C50.3443 8.43751 51.1776 8.43751 51.9981 8.43751ZM54.3058 8.43751C53.3058 23.8125 33.9595 29.475 28.4594 47.6626C26.8697 47.3376 25.2927 47.0126 23.7286 46.6876C30.3825 26.85 50.9212 24.45 51.9981 8.43751C52.7674 8.43751 53.5366 8.43751 54.3058 8.43751ZM54.6135 8.43751C53.5751 23.775 34.5364 29.625 29.0748 47.7751C28.8697 47.7501 28.6646 47.7126 28.4594 47.6626C33.9595 29.475 53.3058 23.8125 54.3058 8.43751C54.4084 8.43751 54.511 8.43751 54.6135 8.43751ZM55.5366 8.43751C54.4981 23.6625 36.1518 30.375 30.921 48.1876C30.3056 48.0376 29.6902 47.9001 29.0748 47.7751C34.5364 29.625 53.5751 23.775 54.6135 8.43751C54.9212 8.43751 55.2289 8.43751 55.5366 8.43751ZM59.0366 8.43751C57.7674 27.225 41.3442 32.475 39.2288 49.8751C36.4595 49.3001 33.6903 48.7376 30.921 48.1876C36.1518 30.375 54.4981 23.6625 55.5366 8.43751C56.6905 8.43751 57.8571 8.43751 59.0366 8.43751ZM62.5367 8.43751C61.0367 30.7875 46.4981 34.5751 47.5365 51.6001C44.7673 51.0251 41.998 50.4501 39.2288 49.8751C41.3442 32.475 57.7674 27.225 59.0366 8.43751C60.2161 8.43751 61.3828 8.43751 62.5367 8.43751ZM18.5747 45.6376C16.7286 50.7376 16.8055 55.5001 17.8055 59.9251C16.9978 59.8126 16.1516 59.6626 15.1901 59.4376C14.3824 55.0126 14.6131 50.2876 16.4978 45.1876C17.1901 45.3376 17.8824 45.4876 18.5747 45.6376ZM23.7286 46.6876C21.9978 51.9001 22.1517 56.4751 23.8825 60.9376C21.4594 60.4501 19.8055 60.2626 17.8055 59.9251C16.8055 55.5001 16.7286 50.7376 18.5747 45.6376C20.2927 45.9876 22.0107 46.3376 23.7286 46.6876ZM28.4594 47.6626C26.8825 52.9501 27.0363 57.3751 29.4594 61.8751C27.6902 61.5751 26.1133 61.3876 23.8825 60.9376C22.1517 56.4751 21.9978 51.9001 23.7286 46.6876C25.2927 47.0126 26.8697 47.3376 28.4594 47.6626ZM29.0748 47.7751C27.4594 53.1001 27.6902 57.4876 30.1518 61.9876C29.921 61.9376 29.6902 61.9001 29.4594 61.8751C27.0363 57.3751 26.8825 52.9501 28.4594 47.6626C28.6646 47.7126 28.8697 47.7501 29.0748 47.7751ZM30.921 48.1876C29.3825 53.4751 29.921 57.9376 32.5364 62.4376C31.6518 62.2501 30.8825 62.1001 30.1518 61.9876C27.6902 57.4876 27.4594 53.1001 29.0748 47.7751C29.6902 47.9001 30.3056 48.0376 30.921 48.1876ZM39.2288 49.8751C38.6518 55.4626 41.0365 60.0751 44.8827 64.6876C41.4211 63.9751 35.998 63.1126 32.5364 62.4376C29.921 57.9376 29.3825 53.4751 30.921 48.1876C33.6903 48.7376 36.4595 49.3001 39.2288 49.8751ZM47.5365 51.6001C47.9212 57.4501 52.1135 62.2126 57.2289 66.9751C53.7674 66.2626 48.3442 65.4001 44.8827 64.6876C41.0365 60.0751 38.6518 55.4626 39.2288 49.8751C41.998 50.4501 44.7673 51.0251 47.5365 51.6001ZM17.8055 59.9251C18.8824 64.7251 21.6517 69.3001 24.8056 73.7251C23.4979 73.4501 22.203 73.1751 20.9209 72.9001C18.2286 68.7001 16.0747 64.2376 15.1901 59.4376C16.1516 59.6626 16.9978 59.8126 17.8055 59.9251ZM23.8825 60.9376C25.7286 65.7751 29.3825 70.5001 34.4595 75.7126C31.2543 75.0376 28.0364 74.3751 24.8056 73.7251C21.6517 69.3001 18.8824 64.7251 17.8055 59.9251C19.8055 60.2626 21.4594 60.4501 23.8825 60.9376ZM29.4594 61.8751C32.1133 66.7501 36.3826 71.5126 43.3826 77.5501C40.4083 76.9251 37.4339 76.3126 34.4595 75.7126C29.3825 70.5001 25.7286 65.7751 23.8825 60.9376C26.1133 61.3876 27.6902 61.5751 29.4594 61.8751ZM30.1518 61.9876C32.8056 66.8626 37.4595 71.7001 44.5365 77.7751C44.1519 77.7001 43.7673 77.6251 43.3826 77.5501C36.3826 71.5126 32.1133 66.7501 29.4594 61.8751C29.6902 61.9001 29.921 61.9376 30.1518 61.9876ZM32.5364 62.4376C35.3826 67.3126 40.5749 72.2626 48.0365 78.4876C46.857 78.2626 45.6904 78.0251 44.5365 77.7751C37.4595 71.7001 32.8056 66.8626 30.1518 61.9876C30.8825 62.1001 31.6518 62.2501 32.5364 62.4376ZM44.8827 64.6876C49.075 69.7126 54.9981 74.7376 60.729 81.1126C56.4982 80.2376 52.2673 79.3626 48.0365 78.4876C40.5749 72.2626 35.3826 67.3126 32.5364 62.4376C35.998 63.1126 41.4211 63.9751 44.8827 64.6876ZM57.2289 66.9751C62.7674 72.1126 69.4214 77.2501 73.4214 83.7376C69.1906 82.8626 64.9598 81.9876 60.729 81.1126C54.9981 74.7376 49.075 69.7126 44.8827 64.6876C48.3442 65.4001 53.7674 66.2626 57.2289 66.9751ZM24.8056 73.7251C30.7287 82.3501 40.3057 90.4876 42.5365 101.85C41.7673 101.7 38.2288 100.913 32.6902 99.6001C32.5749 97.6501 32.1518 95.6251 31.4595 93.4876C29.3441 87.1126 26.1133 81.0751 20.9209 72.9001C22.203 73.1751 23.4979 73.4501 24.8056 73.7251ZM34.4595 75.7126C41.3057 83.3251 46.1134 90.4126 47.6135 97.3501C48.1519 99.3376 48.3442 101.213 48.3058 103.05C46.3827 102.65 44.4596 102.25 42.5365 101.85C40.3057 90.4876 30.7287 82.3501 24.8056 73.7251C28.0364 74.3751 31.2543 75.0376 34.4595 75.7126ZM43.3826 77.5501C51.1904 84.4501 56.5366 94.2376 53.6135 104.138C51.8443 103.763 50.075 103.4 48.3058 103.05C48.3442 101.213 48.1519 99.3376 47.6135 97.3501C46.1134 90.4126 41.3057 83.3251 34.4595 75.7126C37.4339 76.3126 40.4083 76.9251 43.3826 77.5501ZM44.5365 77.7751C52.575 84.8251 57.3828 94.2001 54.2674 104.288C54.0366 104.238 53.8186 104.188 53.6135 104.138C56.5366 94.2376 51.1904 84.4501 43.3826 77.5501C43.7673 77.6251 44.1519 77.7001 44.5365 77.7751ZM48.0365 78.4876C58.5366 87.3001 59.5751 95.9626 56.3443 104.7C55.652 104.55 54.9597 104.413 54.2674 104.288C57.3828 94.2001 52.575 84.8251 44.5365 77.7751C45.6904 78.0251 46.857 78.2626 48.0365 78.4876ZM60.729 81.1126C66.5367 87.2251 68.4598 93.7876 66.8444 101.138C66.4598 102.975 65.8444 104.775 65.0752 106.5C62.1777 105.9 59.2674 105.3 56.3443 104.7C59.5751 95.9626 58.5366 87.3001 48.0365 78.4876C52.2673 79.3626 56.4982 80.2376 60.729 81.1126ZM73.4214 83.7376C76.6522 88.9876 78.1907 95.1751 75.9214 102.975C75.4214 104.85 74.6906 106.613 73.806 108.3C70.9085 107.7 67.9983 107.1 65.0752 106.5C65.8444 104.775 66.4598 102.975 66.8444 101.138C68.4598 93.7876 66.5367 87.2251 60.729 81.1126C64.9598 81.9876 69.1906 82.8626 73.4214 83.7376ZM42.5365 101.85C45.1134 114.788 29.1518 127.275 24.4594 138.9C23.9594 138.788 20.6517 138.075 20.1901 137.963C21.4594 134.7 22.844 131.625 24.5748 128.513C29.8056 119.1 33.5749 113.288 32.6902 99.6001C38.2288 100.913 41.7673 101.7 42.5365 101.85ZM48.3058 103.05C47.9212 112.013 40.9595 119.625 33.9595 129.6C32.1646 132.175 30.6005 134.7 29.2671 137.175C28.8312 138.025 28.421 138.85 28.0364 139.65C26.8569 139.4 25.6645 139.15 24.4594 138.9C29.1518 127.275 45.1134 114.788 42.5365 101.85C44.4596 102.25 46.3827 102.65 48.3058 103.05ZM53.6135 104.138C49.5366 117.563 37.8057 127.838 31.3825 140.325C30.28 140.1 29.1646 139.875 28.0364 139.65C28.421 138.85 28.8312 138.025 29.2671 137.175C30.6005 134.7 32.1646 132.175 33.9595 129.6C40.9595 119.625 47.9212 112.013 48.3058 103.05C50.075 103.4 51.8443 103.763 53.6135 104.138ZM54.2674 104.288C50.1135 117.6 38.2288 127.988 31.8056 140.4C31.6518 140.375 31.5107 140.35 31.3825 140.325C37.8057 127.838 49.5366 117.563 53.6135 104.138C53.8186 104.188 54.0366 104.238 54.2674 104.288ZM56.3443 104.7C52.3058 115.688 41.5365 126.75 34.498 138.225C33.998 139.05 33.5364 139.875 33.1133 140.7C32.6774 140.6 32.2415 140.5 31.8056 140.4C38.2288 127.988 50.1135 117.6 54.2674 104.288C54.9597 104.413 55.652 104.55 56.3443 104.7ZM65.0752 106.5C59.7674 118.35 46.8442 127.875 39.0749 139.2C38.5365 140 38.0365 140.8 37.5749 141.6C36.0877 141.3 34.6005 141 33.1133 140.7C33.5364 139.875 33.998 139.05 34.498 138.225C41.5365 126.75 52.3058 115.688 56.3443 104.7C59.2674 105.3 62.1777 105.9 65.0752 106.5ZM73.806 108.3C66.7675 121.913 49.9981 130.125 42.0365 142.538C40.5493 142.213 39.0621 141.9 37.5749 141.6C38.0365 140.8 38.5365 140 39.0749 139.2C46.8442 127.875 59.7674 118.35 65.0752 106.5C67.9983 107.1 70.9085 107.7 73.806 108.3ZM24.4594 138.9C18.9209 152.663 27.7671 164.925 32.4595 169.875C32.0749 169.875 31.6902 169.888 31.3056 169.913C26.6517 165.038 14.767 151.838 20.1901 137.963C20.6517 138.075 23.9594 138.788 24.4594 138.9ZM28.0364 139.65C21.9594 153.038 30.4595 164.55 35.3826 169.725C34.4082 169.775 33.4338 169.825 32.4595 169.875C27.7671 164.925 18.9209 152.663 24.4594 138.9C25.6645 139.15 26.8569 139.4 28.0364 139.65ZM31.3825 140.325C24.6902 153.3 32.921 164.175 38.0749 169.575C37.1775 169.625 36.28 169.675 35.3826 169.725C30.4595 164.55 21.9594 153.038 28.0364 139.65C29.1646 139.875 30.28 140.1 31.3825 140.325ZM31.8056 140.4C25.0748 153.375 33.2672 164.175 38.4211 169.575C38.2929 169.575 38.1775 169.575 38.0749 169.575C32.921 164.175 24.6902 153.3 31.3825 140.325C31.5107 140.35 31.6518 140.375 31.8056 140.4ZM33.1133 140.7C26.2671 153.563 34.2672 164.063 39.4595 169.5C39.1262 169.525 38.78 169.55 38.4211 169.575C33.2672 164.175 25.0748 153.375 31.8056 140.4C32.2415 140.5 32.6774 140.6 33.1133 140.7ZM37.5749 141.6C31.7287 151.838 36.498 161.138 44.1134 169.275C42.575 169.35 41.0237 169.425 39.4595 169.5C34.2672 164.063 26.2671 153.563 33.1133 140.7C34.6005 141 36.0877 141.3 37.5749 141.6ZM42.0365 142.538C37.1518 150.113 38.7672 158.175 48.7289 169.05C47.1904 169.125 45.6519 169.2 44.1134 169.275C36.498 161.138 31.7287 151.838 37.5749 141.6C39.0621 141.9 40.5493 142.213 42.0365 142.538ZM32.4595 169.875C35.7287 173.325 39.0749 176.663 42.4211 180.038C42.0108 180.038 41.5878 180.05 41.1519 180.075C38.6134 177.488 34.6133 173.438 31.3056 169.913C31.6902 169.888 32.0749 169.875 32.4595 169.875ZM35.3826 169.725C36.6903 171.113 38.0364 172.388 39.1903 173.55C41.4211 175.763 43.7673 178.05 45.6134 179.85C44.5622 179.9 43.498 179.963 42.4211 180.038C39.0749 176.663 35.7287 173.325 32.4595 169.875C33.4338 169.825 34.4082 169.775 35.3826 169.725ZM38.0749 169.575C41.4211 173.1 44.9981 176.363 48.5366 179.738C47.5622 179.763 46.5878 179.8 45.6134 179.85C43.7673 178.05 41.4211 175.763 39.1903 173.55C38.0364 172.388 36.6903 171.113 35.3826 169.725C36.28 169.675 37.1775 169.625 38.0749 169.575ZM38.4211 169.575C41.7288 173.063 45.3827 176.363 48.9212 179.7C48.793 179.7 48.6648 179.713 48.5366 179.738C44.9981 176.363 41.4211 173.1 38.0749 169.575C38.1775 169.575 38.2929 169.575 38.4211 169.575ZM39.4595 169.5C40.8826 171 42.2288 172.238 43.2673 173.25C45.5365 175.35 47.9981 177.675 50.0366 179.663C49.6776 179.663 49.3058 179.675 48.9212 179.7C45.3827 176.363 41.7288 173.063 38.4211 169.575C38.78 169.55 39.1262 169.525 39.4595 169.5ZM44.1134 169.275C45.5365 170.813 46.8442 172.125 47.9981 173.325C50.2289 175.538 52.4212 177.713 54.152 179.438C52.793 179.513 51.4212 179.588 50.0366 179.663C47.9981 177.675 45.5365 175.35 43.2673 173.25C42.2288 172.238 40.8826 171 39.4595 169.5C41.0237 169.425 42.575 169.35 44.1134 169.275ZM48.7289 169.05C52.6135 173.25 56.0366 176.925 58.2289 179.25C56.87 179.3 55.511 179.363 54.152 179.438C52.4212 177.713 50.2289 175.538 47.9981 173.325C46.8442 172.125 45.5365 170.813 44.1134 169.275C45.6519 169.2 47.1904 169.125 48.7289 169.05ZM42.4211 180.038C43.9596 181.575 44.9981 182.588 45.075 182.663C44.6391 182.688 44.2032 182.713 43.7673 182.738C43.7673 182.738 42.7288 181.688 41.1519 180.075C41.5878 180.05 42.0108 180.038 42.4211 180.038ZM45.6134 179.85C46.9211 181.163 47.9212 182.138 48.3058 182.513C47.2288 182.563 46.1519 182.613 45.075 182.663C44.9981 182.588 43.9596 181.575 42.4211 180.038C43.498 179.963 44.5622 179.9 45.6134 179.85ZM48.5366 179.738C49.6519 180.788 50.6135 181.688 51.3058 182.363C50.3058 182.413 49.3058 182.463 48.3058 182.513C47.9212 182.138 46.9211 181.163 45.6134 179.85C46.5878 179.8 47.5622 179.763 48.5366 179.738ZM48.9212 179.7C49.9981 180.75 50.9596 181.688 51.652 182.325C51.5237 182.35 51.4084 182.363 51.3058 182.363C50.6135 181.688 49.6519 180.788 48.5366 179.738C48.6648 179.713 48.793 179.7 48.9212 179.7ZM50.0366 179.663C51.1135 180.675 52.075 181.575 52.8443 182.288C52.4597 182.313 52.0622 182.325 51.652 182.325C50.9596 181.688 49.9981 180.75 48.9212 179.7C49.3058 179.675 49.6776 179.663 50.0366 179.663ZM54.152 179.438C55.4597 180.788 56.4212 181.725 56.8059 182.1C55.4725 182.15 54.152 182.213 52.8443 182.288C52.075 181.575 51.1135 180.675 50.0366 179.663C51.4212 179.588 52.793 179.513 54.152 179.438ZM58.2289 179.25C59.8059 180.9 60.7674 181.875 60.7674 181.875C59.4341 181.95 58.1136 182.025 56.8059 182.1C56.4212 181.725 55.4597 180.788 54.152 179.438C55.511 179.363 56.87 179.3 58.2289 179.25Z" fill="url(#paint0_linear_227_16)"/>
</g>
<path style="mix-blend-mode:screen" d="M33.6896 5.1748C33.6896 5.1748 51.6128 12.7873 51.1128 23.5498C50.4205 23.5498 39.9204 23.5498 39.2666 23.5498C39.7666 12.7873 21.8433 5.1748 21.8433 5.1748H33.6896ZM35.0358 5.1748C35.0358 5.1748 52.959 12.7873 52.459 23.5498C51.4974 23.5498 52.0359 23.5498 51.1128 23.5498C51.6128 12.7873 33.6896 5.1748 33.6896 5.1748H35.0358ZM36.8435 5.1748C36.8435 5.1748 54.7667 12.7873 54.2667 23.5498C54.1513 23.5498 52.5744 23.5498 52.459 23.5498C52.959 12.7873 35.0358 5.1748 35.0358 5.1748H36.8435ZM37.0358 5.1748C37.0358 5.1748 54.9206 12.7873 54.4206 23.5498C54.3693 23.5498 54.318 23.5498 54.2667 23.5498C54.7667 12.7873 36.8435 5.1748 36.8435 5.1748H37.0358ZM38.1512 5.1748C38.1512 5.1748 56.0744 12.7873 55.5744 23.5498C55.1898 23.5498 54.818 23.5498 54.459 23.5498C54.959 12.7873 37.0358 5.1748 37.0358 5.1748H38.1512ZM39.1896 5.1748C39.1896 5.1748 57.1129 12.7873 56.5744 23.5498C56.2411 23.5498 55.9078 23.5498 55.5744 23.5498C56.0744 12.7873 38.1512 5.1748 38.1512 5.1748H39.1896ZM40.1897 5.1748C40.1897 5.1748 58.0744 12.7873 57.5744 23.5498C57.536 23.5498 56.6514 23.5498 56.6129 23.5498C57.1129 12.7873 39.1896 5.1748 39.1896 5.1748H40.1897ZM51.7667 5.1748C51.7667 5.1748 69.6515 12.7873 69.1515 23.5498C67.6899 23.5498 57.8821 23.5498 57.6129 23.5498C58.1129 12.7873 40.1897 5.1748 40.1897 5.1748H51.7667ZM51.2282 23.5498C50.8821 30.4123 41.4589 37.1998 32.6896 43.7624C31.6896 43.7624 21.0356 43.7624 19.9972 43.7624C29.228 37.4998 39.0358 30.6748 39.382 23.5498C40.0358 23.5498 50.5359 23.5498 51.2282 23.5498ZM52.5359 23.5498C52.2282 30.0748 43.382 36.8623 35.2665 43.7624C33.8434 43.7624 34.1127 43.7624 32.6896 43.7624C41.4589 37.1998 50.8821 30.4123 51.2282 23.5498C52.1513 23.5498 51.6128 23.5498 52.5359 23.5498ZM54.3436 23.5498C54.0359 30.1498 45.2666 36.8998 37.2665 43.7624C37.0742 43.7624 35.4588 43.7624 35.2665 43.7624C43.382 36.8623 52.2282 30.0748 52.5359 23.5498C52.6513 23.5498 54.2282 23.5498 54.3436 23.5498ZM54.5359 23.5498C54.1898 30.1873 45.4589 36.8998 37.5358 43.7624C37.4204 43.7624 37.3435 43.7624 37.2665 43.7624C45.2666 36.8998 54.0359 30.1498 54.3436 23.5498C54.4206 23.5498 54.4847 23.5498 54.5359 23.5498ZM55.6513 23.5498C55.3052 30.9748 46.6128 37.0123 38.9204 43.7624C38.305 43.7624 38.1512 43.7624 37.5358 43.7624C45.4589 36.8998 54.1898 30.1873 54.5359 23.5498C54.8949 23.5498 55.2667 23.5498 55.6513 23.5498ZM56.6513 23.5498C56.2667 31.5748 47.7282 37.1248 40.2666 43.7624C39.6897 43.7624 39.4973 43.7624 38.9204 43.7624C46.6128 37.0123 55.3052 30.9748 55.6513 23.5498C55.9847 23.5498 56.318 23.5498 56.6513 23.5498ZM57.6514 23.5498C57.2667 31.6123 48.7667 37.1248 41.3435 43.7624C41.2666 43.7624 40.3435 43.7624 40.2666 43.7624C47.7282 37.1248 56.2667 31.5748 56.6513 23.5498C56.6898 23.5498 57.5744 23.5498 57.6514 23.5498ZM69.1899 23.5498C68.7668 32.0623 60.3822 37.1998 53.1513 43.7624C51.4975 43.7624 41.8051 43.7624 41.3435 43.7624C48.7667 37.1248 57.2667 31.6123 57.6514 23.5498C57.9206 23.5498 67.7284 23.5498 69.1899 23.5498ZM32.6896 43.7624C27.7665 47.4749 22.9587 51.2249 20.151 55.2374C18.9202 55.2374 7.88165 55.2374 6.65087 55.2374C9.72782 51.2624 14.8433 47.3249 19.9972 43.7624C21.0356 43.7624 31.6896 43.7624 32.6896 43.7624ZM35.2665 43.7624C30.6896 47.6624 26.2664 51.1499 23.8049 55.2374C22.0741 55.2374 21.8818 55.2374 20.151 55.2374C22.9587 51.2249 27.7665 47.4749 32.6896 43.7624C34.1127 43.7624 33.8434 43.7624 35.2665 43.7624ZM37.2665 43.7624C32.7665 47.6624 28.4203 51.1499 25.9972 55.2374C25.7664 55.2374 24.0741 55.2374 23.8049 55.2374C26.2664 51.1499 30.6896 47.6624 35.2665 43.7624C35.4588 43.7624 37.0742 43.7624 37.2665 43.7624ZM37.5358 43.7624C33.0357 47.6249 28.728 51.1499 26.3434 55.2374C26.2408 55.2374 26.1254 55.2374 25.9972 55.2374C28.4203 51.1499 32.7665 47.6624 37.2665 43.7624C37.3435 43.7624 37.4204 43.7624 37.5358 43.7624ZM38.9204 43.7624C34.5742 47.5499 30.4588 51.1124 28.3049 55.2374C27.4972 55.2374 27.1126 55.2374 26.3434 55.2374C28.728 51.1499 33.0357 47.6249 37.5358 43.7624C38.1512 43.7624 38.305 43.7624 38.9204 43.7624ZM40.2666 43.7624C36.0742 47.5124 32.1127 51.0749 30.1511 55.2374C29.4588 55.2374 28.9972 55.2374 28.3049 55.2374C30.4588 51.1124 34.5742 47.5499 38.9204 43.7624C39.4973 43.7624 39.6897 43.7624 40.2666 43.7624ZM41.3435 43.7624C37.1512 47.5124 33.228 51.0749 31.305 55.2374C31.1896 55.2374 30.2665 55.2374 30.1511 55.2374C32.1127 51.0749 36.0742 47.5124 40.2666 43.7624C40.3435 43.7624 41.2666 43.7624 41.3435 43.7624ZM53.1513 43.7624C49.0744 47.4749 45.3051 51.0374 43.5358 55.2374C41.7666 55.2374 31.8819 55.2374 31.305 55.2374C33.228 51.0749 37.1512 47.5124 41.3435 43.7624C41.8051 43.7624 51.4975 43.7624 53.1513 43.7624ZM20.151 55.2374C17.7279 58.6874 14.5356 62.3249 14.1509 66.6374C12.7663 66.6374 1.53544 66.6374 0.150807 66.6374C0.650812 61.9499 4.03546 58.6499 6.65087 55.2374C7.88165 55.2374 18.9202 55.2374 20.151 55.2374ZM23.8049 55.2374C21.6895 58.7249 18.7664 62.8124 18.5741 66.6374C16.6125 66.6374 16.1125 66.6374 14.1509 66.6374C14.5356 62.3249 17.7279 58.6874 20.151 55.2374C21.8818 55.2374 22.0741 55.2374 23.8049 55.2374ZM25.9972 55.2374C23.9203 58.7624 21.0741 62.8124 20.8818 66.6374C20.6125 66.6374 18.8433 66.6374 18.5741 66.6374C18.7664 62.8124 21.6895 58.7249 23.8049 55.2374C24.0741 55.2374 25.7664 55.2374 25.9972 55.2374ZM26.3434 55.2374C24.2664 58.7624 21.4202 62.8124 21.2664 66.6374C21.1382 66.6374 21.01 66.6374 20.8818 66.6374C21.0741 62.8124 23.9203 58.7624 25.9972 55.2374C26.1254 55.2374 26.2408 55.2374 26.3434 55.2374ZM28.3049 55.2374C26.4588 58.7999 23.8433 62.9249 23.9972 66.6374C23.0741 66.6374 22.1638 66.6374 21.2664 66.6374C21.4202 62.8124 24.2664 58.7624 26.3434 55.2374C27.1126 55.2374 27.4972 55.2374 28.3049 55.2374ZM30.1511 55.2374C28.4972 58.8374 26.1126 62.9999 26.4587 66.6374C25.6382 66.6374 24.8177 66.6374 23.9972 66.6374C23.8433 62.9249 26.4588 58.7999 28.3049 55.2374C28.9972 55.2374 29.4588 55.2374 30.1511 55.2374ZM31.305 55.2374C29.6511 58.8374 27.2664 62.9999 27.6126 66.6374C27.4972 66.6374 26.5741 66.6374 26.4587 66.6374C26.1126 62.9999 28.4972 58.8374 30.1511 55.2374C30.2665 55.2374 31.1896 55.2374 31.305 55.2374ZM43.5358 55.2374C42.0358 58.8374 39.805 63.0749 40.3435 66.6374C38.4973 66.6374 28.2665 66.6374 27.6126 66.6374C27.2664 62.9999 29.6511 58.8374 31.305 55.2374C31.8819 55.2374 41.7666 55.2374 43.5358 55.2374ZM14.1509 66.6374C13.7663 71.3999 14.7279 75.1499 16.8433 78.6749C14.8817 78.6749 3.72777 78.5999 2.11237 78.6749C0.573891 75.0374 -0.387659 71.3249 0.150807 66.6374C1.53544 66.6374 12.7663 66.6374 14.1509 66.6374ZM18.5741 66.6374C18.3048 71.4749 19.5356 75.2624 22.3818 78.6749C19.6125 78.6749 19.6125 78.6749 16.8433 78.6749C14.7279 75.1499 13.7663 71.3999 14.1509 66.6374C16.1125 66.6374 16.6125 66.6374 18.5741 66.6374ZM20.8818 66.6374C20.651 71.4749 22.1126 75.2624 24.9587 78.6749C24.5741 78.6749 22.728 78.6749 22.3818 78.6749C19.5356 75.2624 18.3048 71.4749 18.5741 66.6374C18.8433 66.6374 20.6125 66.6374 20.8818 66.6374ZM21.2664 66.6374C21.0741 71.4749 22.6126 75.2624 25.5357 78.6749C25.3305 78.6749 25.1382 78.6749 24.9587 78.6749C22.1126 75.2624 20.651 71.4749 20.8818 66.6374C21.01 66.6374 21.1382 66.6374 21.2664 66.6374ZM23.9972 66.6374C24.1895 71.5124 26.3049 75.3374 29.728 78.6749C28.3049 78.7124 26.8434 78.6749 25.5357 78.6749C22.6126 75.2624 21.0741 71.4749 21.2664 66.6374C22.1638 66.6374 23.0741 66.6374 23.9972 66.6374ZM26.4587 66.6374C26.9972 71.5499 29.5742 75.3749 33.3819 78.6749C32.305 78.6749 31.0357 78.6374 29.728 78.6749C26.3049 75.3374 24.1895 71.5124 23.9972 66.6374C24.8177 66.6374 25.6382 66.6374 26.4587 66.6374ZM27.6126 66.6374C28.1511 71.5499 30.805 75.3749 34.6511 78.6749C34.4973 78.6749 33.5357 78.6749 33.3819 78.6749C29.5742 75.3749 26.9972 71.5499 26.4587 66.6374C26.5741 66.6374 27.4972 66.6374 27.6126 66.6374ZM40.3435 66.6374C41.1127 71.5499 44.0358 75.4124 48.1513 78.6749C45.9589 78.7124 35.4588 78.6749 34.6511 78.6749C30.805 75.3749 28.1511 71.5499 27.6126 66.6374C28.2665 66.6374 38.4973 66.6374 40.3435 66.6374ZM16.8433 78.6749C19.151 82.4999 24.1895 84.5249 29.0742 88.1249C26.4588 88.1249 13.9971 88.1249 11.3817 88.1249C8.11243 84.8999 3.84315 82.6124 2.11237 78.6749C3.72777 78.5999 14.8817 78.6749 16.8433 78.6749ZM22.3818 78.6749C25.4203 82.3499 31.728 84.0749 38.6512 88.1249C34.9588 88.1249 32.7665 88.1249 29.0742 88.1249C24.1895 84.5249 19.151 82.4999 16.8433 78.6749C19.6125 78.6749 19.6125 78.6749 22.3818 78.6749ZM24.9587 78.6749C28.0742 82.3499 34.5358 84.0749 41.4204 88.1249C40.9589 88.1249 39.0743 88.1249 38.6512 88.1249C31.728 84.0749 25.4203 82.3499 22.3818 78.6749C22.728 78.6749 24.5741 78.6749 24.9587 78.6749ZM25.5357 78.6749C28.6511 82.3499 35.1511 84.0749 41.9974 88.1249C41.7922 88.1249 41.5999 88.1249 41.4204 88.1249C34.5358 84.0749 28.0742 82.3499 24.9587 78.6749C25.1382 78.6749 25.3305 78.6749 25.5357 78.6749ZM29.728 78.6749C33.4204 82.2749 39.9973 83.8499 46.1128 88.1249C44.7538 88.1249 43.382 88.1249 41.9974 88.1249C35.1511 84.0749 28.6511 82.3499 25.5357 78.6749C26.8434 78.6749 28.3049 78.7124 29.728 78.6749ZM33.3819 78.6749C37.4973 82.2374 44.3051 83.6999 49.8821 88.1249C48.6256 88.1249 47.3692 88.1249 46.1128 88.1249C39.9973 83.8499 33.4204 82.2749 29.728 78.6749C31.0357 78.6374 32.305 78.6749 33.3819 78.6749ZM34.6511 78.6749C38.805 82.2374 45.6512 83.6999 51.2282 88.1249C51.0744 88.1249 50.0744 88.1249 49.8821 88.1249C44.3051 83.6999 37.4973 82.2374 33.3819 78.6749C33.5357 78.6749 34.4973 78.6749 34.6511 78.6749ZM48.1513 78.6749C52.6513 82.1999 59.8052 83.5499 64.9976 88.1249C62.8053 88.1249 52.2667 88.1249 51.2282 88.1249C45.6512 83.6999 38.805 82.2374 34.6511 78.6749C35.4588 78.6749 45.9589 78.7124 48.1513 78.6749ZM29.0742 88.1249C35.7665 93.4499 39.7666 99.7124 41.882 105.712C42.6128 107.437 43.0743 109.05 43.3435 110.625C41.8051 110.625 30.3819 110.625 28.8434 110.625C25.0357 101.287 17.5356 94.4999 11.3817 88.1249C13.9971 88.1249 26.4588 88.1249 29.0742 88.1249ZM38.6512 88.1249C48.382 93.8249 49.382 102.6 48.459 110.625C46.2666 110.625 45.5359 110.625 43.3435 110.625C43.0743 109.05 42.6128 107.437 41.882 105.712C39.7666 99.7124 35.7665 93.4499 29.0742 88.1249C32.7665 88.1249 34.9588 88.1249 38.6512 88.1249ZM41.4204 88.1249C48.1128 92.0624 52.0359 100.237 50.8051 110.625C50.4974 110.625 48.7282 110.625 48.459 110.625C49.382 102.6 48.382 93.8249 38.6512 88.1249C39.0743 88.1249 40.9589 88.1249 41.4204 88.1249ZM41.9974 88.1249C48.6897 92.0999 52.4205 100.275 51.1898 110.625C51.0616 110.625 50.9333 110.625 50.8051 110.625C52.0359 100.237 48.1128 92.0624 41.4204 88.1249C41.5999 88.1249 41.7922 88.1249 41.9974 88.1249ZM46.1128 88.1249C52.3436 92.3624 55.4975 100.837 54.0359 110.625C53.0872 110.625 52.1385 110.625 51.1898 110.625C52.4205 100.275 48.6897 92.0999 41.9974 88.1249C43.382 88.1249 44.7538 88.1249 46.1128 88.1249ZM49.8821 88.1249C55.7667 92.5499 58.2667 101.287 56.6513 110.625C55.7795 110.625 54.9077 110.625 54.0359 110.625C55.4975 100.837 52.3436 92.3624 46.1128 88.1249C47.3692 88.1249 48.6256 88.1249 49.8821 88.1249ZM51.2282 88.1249C56.8437 92.3624 58.6129 98.5499 58.3821 105.562C58.3052 107.325 58.1129 109.012 57.8437 110.625C57.7283 110.625 56.7667 110.625 56.6513 110.625C58.2667 101.287 55.7667 92.5499 49.8821 88.1249C50.0744 88.1249 51.0744 88.1249 51.2282 88.1249ZM64.9976 88.1249C69.8822 92.2499 71.613 98.6624 71.2284 105.712C71.1515 107.362 70.9592 109.05 70.6515 110.625C68.7669 110.625 58.536 110.625 57.8437 110.625C58.1129 109.012 58.3052 107.325 58.3821 105.562C58.6129 98.5499 56.8437 92.3624 51.2282 88.1249C52.2667 88.1249 62.8053 88.1249 64.9976 88.1249ZM43.3435 110.625C44.2666 116.1 38.4973 122.212 34.4973 128.362C33.305 128.437 22.3818 128.175 21.1895 128.362C25.1895 122.062 31.0742 116.175 28.8434 110.625C30.3819 110.625 41.8051 110.625 43.3435 110.625ZM48.459 110.625C47.8051 116.25 41.382 122.25 37.2665 128.362C35.6511 128.212 36.1127 128.25 34.4973 128.362C38.4973 122.212 44.2666 116.1 43.3435 110.625C45.5359 110.625 46.2666 110.625 48.459 110.625ZM50.8051 110.625C50.0359 117.187 43.382 122.475 39.1896 128.362C38.9589 128.362 37.4589 128.4 37.2665 128.362C41.382 122.25 47.8051 116.25 48.459 110.625C48.7282 110.625 50.4974 110.625 50.8051 110.625ZM51.1898 110.625C50.4205 117.187 43.7282 122.512 39.4589 128.362C39.382 128.362 39.2666 128.362 39.1896 128.362C43.382 122.475 50.0359 117.187 50.8051 110.625C50.9333 110.625 51.0616 110.625 51.1898 110.625ZM54.0359 110.625C53.0359 117.337 46.0743 122.55 41.5358 128.362C40.8435 128.362 40.1897 128.362 39.4589 128.362C43.7282 122.512 50.4205 117.187 51.1898 110.625C52.1385 110.625 53.0872 110.625 54.0359 110.625ZM56.6513 110.625C55.4206 117.412 48.2282 122.587 43.4205 128.362C42.8051 128.475 42.1897 128.362 41.5358 128.362C46.0743 122.55 53.0359 117.337 54.0359 110.625C54.9077 110.625 55.7795 110.625 56.6513 110.625ZM57.8437 110.625C56.7283 116.775 49.4974 122.437 44.6897 128.362C44.5743 128.4 43.5358 128.362 43.4205 128.362C48.2282 122.587 55.4206 117.412 56.6513 110.625C56.7667 110.625 57.7283 110.625 57.8437 110.625ZM70.6515 110.625C69.3438 117.187 61.9206 122.587 56.9206 128.362C55.1898 128.4 45.1897 128.287 44.6897 128.362C49.4974 122.437 56.7283 116.775 57.8437 110.625C58.536 110.625 68.7669 110.625 70.6515 110.625ZM34.4973 128.362C30.8434 133.912 28.9972 139.05 27.7665 145.612C26.8049 145.612 15.9971 145.612 14.9971 145.612C15.7663 140.437 17.4971 134.212 21.1895 128.362C22.3818 128.175 33.305 128.437 34.4973 128.362ZM37.2665 128.362C33.6511 133.725 31.9588 139.35 30.4203 145.612C29.0357 145.612 29.1511 145.612 27.7665 145.612C28.9972 139.05 30.8434 133.912 34.4973 128.362C36.1127 128.25 35.6511 128.212 37.2665 128.362ZM39.1896 128.362C35.2665 133.8 33.7665 139.8 32.3434 145.612C32.1896 145.612 30.5742 145.612 30.4203 145.612C31.9588 139.35 33.6511 133.725 37.2665 128.362C37.4589 128.4 38.9589 128.362 39.1896 128.362ZM39.4589 128.362C35.4973 133.8 33.9588 139.8 32.5357 145.612C32.4845 145.612 32.4204 145.612 32.3434 145.612C33.7665 139.8 35.2665 133.8 39.1896 128.362C39.2666 128.362 39.382 128.362 39.4589 128.362ZM41.5358 128.362C37.3435 133.725 35.5742 139.687 33.9973 145.612C33.5101 145.612 33.0229 145.612 32.5357 145.612C33.9588 139.8 35.4973 133.8 39.4589 128.362C40.1897 128.362 40.8435 128.362 41.5358 128.362ZM43.4205 128.362C38.9973 133.687 37.0358 139.612 35.3435 145.612C34.8819 145.612 34.4332 145.612 33.9973 145.612C35.5742 139.687 37.3435 133.725 41.5358 128.362C42.1897 128.362 42.8051 128.475 43.4205 128.362ZM44.6897 128.362C40.4974 133.537 38.1512 139.237 36.3435 145.612C36.2665 145.612 35.3819 145.612 35.3435 145.612C37.0358 139.612 38.9973 133.687 43.4205 128.362C43.5358 128.362 44.5743 128.4 44.6897 128.362ZM56.9206 128.362C52.4975 133.462 50.0744 139.162 48.1513 145.612C46.6128 145.612 36.6896 145.612 36.3435 145.612C38.1512 139.237 40.4974 133.537 44.6897 128.362C45.1897 128.287 55.1898 128.4 56.9206 128.362ZM27.7665 145.612C25.4203 158.175 31.6896 166.388 35.1127 171.15C34.3819 171.15 23.7664 171.15 22.9972 171.15C19.6895 166.575 13.1894 158.4 14.9971 145.612C15.9971 145.612 26.8049 145.612 27.7665 145.612ZM30.4203 145.612C27.4203 157.875 33.2665 166.088 36.9204 171.15C35.8435 171.15 36.1896 171.15 35.1127 171.15C31.6896 166.388 25.4203 158.175 27.7665 145.612C29.1511 145.612 29.0357 145.612 30.4203 145.612ZM32.3434 145.612C29.3819 157.762 35.1127 166.013 38.8435 171.15C38.6896 171.15 37.0742 171.15 36.9204 171.15C33.2665 166.088 27.4203 157.875 30.4203 145.612C30.5742 145.612 32.1896 145.612 32.3434 145.612ZM32.5357 145.612C29.5742 157.725 35.305 165.938 39.0358 171.15C38.9589 171.15 38.8948 171.15 38.8435 171.15C35.1127 166.013 29.3819 157.762 32.3434 145.612C32.4204 145.612 32.4845 145.612 32.5357 145.612ZM33.9973 145.612C31.1896 156.412 35.8819 164.625 40.4973 171.15C40.0102 171.15 39.523 171.15 39.0358 171.15C35.305 165.938 29.5742 157.725 32.5357 145.612C33.0229 145.612 33.5101 145.612 33.9973 145.612ZM35.3435 145.612C32.6127 155.437 36.5742 163.612 41.8435 171.15C41.382 171.15 40.9332 171.15 40.4973 171.15C35.8819 164.625 31.1896 156.412 33.9973 145.612C34.4332 145.612 34.8819 145.612 35.3435 145.612ZM36.3435 145.612C33.6511 155.437 37.5742 163.612 42.8435 171.15C42.8051 171.15 41.882 171.15 41.8435 171.15C36.5742 163.612 32.6127 155.437 35.3435 145.612C35.3819 145.612 36.2665 145.612 36.3435 145.612ZM48.1513 145.612C45.5359 154.65 48.8436 162.825 54.6513 171.15C53.1129 171.15 43.2281 171.15 42.8435 171.15C37.5742 163.612 33.6511 155.437 36.3435 145.612C36.6896 145.612 46.6128 145.612 48.1513 145.612ZM35.1127 171.15C36.0358 172.425 36.9973 173.625 37.805 174.713C39.3819 176.775 41.0358 178.875 42.3051 180.563C41.4974 180.563 30.8049 180.563 29.9588 180.563C27.6126 177.45 25.2664 174.338 22.9972 171.15C23.7664 171.15 34.3819 171.15 35.1127 171.15ZM36.9204 171.15C37.8819 172.538 38.8435 173.663 39.5743 174.6C41.1897 176.588 42.9204 178.725 44.382 180.563C43.1897 180.563 43.4974 180.563 42.3051 180.563C41.0358 178.875 39.3819 176.775 37.805 174.713C36.9973 173.625 36.0358 172.425 35.1127 171.15C36.1896 171.15 35.8435 171.15 36.9204 171.15ZM38.8435 171.15C41.1897 174.413 43.7666 177.45 46.2282 180.563C46.1128 180.563 44.4974 180.563 44.382 180.563C42.9204 178.725 41.1897 176.588 39.5743 174.6C38.8435 173.663 37.8819 172.538 36.9204 171.15C37.0742 171.15 38.6896 171.15 38.8435 171.15ZM39.0358 171.15C41.382 174.413 43.9589 177.45 46.4205 180.563C46.3692 180.563 46.3051 180.563 46.2282 180.563C43.7666 177.45 41.1897 174.413 38.8435 171.15C38.8948 171.15 38.9589 171.15 39.0358 171.15ZM40.4973 171.15C42.8051 174.413 45.3051 177.45 47.7282 180.563C47.2923 180.563 46.8564 180.563 46.4205 180.563C43.9589 177.45 41.382 174.413 39.0358 171.15C39.523 171.15 40.0102 171.15 40.4973 171.15ZM41.8435 171.15C44.1128 174.375 46.5359 177.45 48.882 180.563C48.4974 180.563 48.1128 180.563 47.7282 180.563C45.3051 177.45 42.8051 174.413 40.4973 171.15C40.9332 171.15 41.382 171.15 41.8435 171.15ZM42.8435 171.15C43.8435 172.538 44.7666 173.775 45.5743 174.863C47.1513 176.963 48.6897 178.95 49.8821 180.563C49.8436 180.563 48.959 180.563 48.882 180.563C46.5359 177.45 44.1128 174.375 41.8435 171.15C41.882 171.15 42.8051 171.15 42.8435 171.15ZM54.6513 171.15C55.5744 172.463 56.4975 173.7 57.3437 174.863C58.8052 176.85 60.2668 178.8 61.5745 180.563C60.0745 180.563 50.2282 180.563 49.8821 180.563C48.6897 178.95 47.1513 176.963 45.5743 174.863C44.7666 173.775 43.8435 172.538 42.8435 171.15C43.2281 171.15 53.1129 171.15 54.6513 171.15ZM42.3051 180.563C43.2666 181.763 43.9589 182.663 44.2282 183C43.382 183 32.6896 183 31.8434 183C31.7665 182.925 31.0357 181.988 29.9588 180.563C30.8049 180.563 41.4974 180.563 42.3051 180.563ZM44.382 180.563C45.1128 181.5 45.8051 182.325 46.3436 183C45.1512 183 45.4205 183 44.2282 183C43.9589 182.663 43.2666 181.763 42.3051 180.563C43.4974 180.563 43.1897 180.563 44.382 180.563ZM46.2282 180.563C46.9974 181.5 47.6513 182.363 48.1897 183C48.0743 183 46.4589 183 46.3436 183C45.8051 182.325 45.1128 181.5 44.382 180.563C44.4974 180.563 46.1128 180.563 46.2282 180.563ZM46.4205 180.563C47.1897 181.5 47.8436 182.363 48.382 183C48.3051 183 48.241 183 48.1897 183C47.6513 182.363 46.9974 181.5 46.2282 180.563C46.3051 180.563 46.3692 180.563 46.4205 180.563ZM47.7282 180.563C48.5744 181.688 49.2667 182.55 49.6128 183C49.2026 183 48.7923 183 48.382 183C47.8436 182.363 47.1897 181.5 46.4205 180.563C46.8564 180.563 47.2923 180.563 47.7282 180.563ZM48.882 180.563C49.8436 181.8 50.4974 182.663 50.7667 183C50.3821 183 49.9974 183 49.6128 183C49.2667 182.55 48.5744 181.688 47.7282 180.563C48.1128 180.563 48.4974 180.563 48.882 180.563ZM49.8821 180.563C50.8051 181.8 51.4975 182.663 51.7667 183C51.6898 183 50.8051 183 50.7667 183C50.4974 182.663 49.8436 181.8 48.882 180.563C48.959 180.563 49.8436 180.563 49.8821 180.563ZM61.5745 180.563C62.536 181.875 63.2283 182.775 63.4206 183C61.9206 183 52.0744 183 51.7667 183C51.4975 182.663 50.8051 181.8 49.8821 180.563C50.2282 180.563 60.0745 180.563 61.5745 180.563Z" fill="url(#paint1_linear_227_16)"/>
<g style="mix-blend-mode:screen">
<path d="M27.6892 67.687C27.8687 68.587 28.0482 69.487 28.2277 70.387C27.92 70.412 27.6123 70.4245 27.3046 70.4245C27.1251 69.5245 26.9584 68.6245 26.8046 67.7245C27.1123 67.6995 27.4072 67.687 27.6892 67.687ZM26.8046 67.7245C26.9584 68.6245 27.1251 69.5245 27.3046 70.4245C26.561 70.4495 25.8046 70.4745 25.0353 70.4995C24.8559 69.5745 24.6892 68.6745 24.5353 67.7995C25.2789 67.7745 26.0354 67.7495 26.8046 67.7245ZM24.5353 67.7995C24.6892 68.6745 24.8559 69.5745 25.0353 70.4995C24.8559 69.5745 24.6764 68.6745 24.4969 67.7995C24.5225 67.7995 24.5353 67.7995 24.5353 67.7995ZM24.4969 67.7995C24.6764 68.6745 24.8559 69.5745 25.0353 70.4995C24.343 70.5495 23.6507 70.587 22.9584 70.612C22.7661 69.637 22.6122 68.737 22.4199 67.8745C23.1122 67.8495 23.8046 67.8245 24.4969 67.7995ZM22.4199 67.8745C22.6122 68.737 22.7661 69.637 22.9584 70.612C22.8815 70.612 22.7917 70.612 22.6892 70.612C22.4969 69.637 22.343 68.737 22.1892 67.8745C22.2661 67.8745 22.343 67.8745 22.4199 67.8745ZM22.1892 67.8745C22.343 68.737 22.4969 69.637 22.6892 70.612C22.4071 70.612 22.1379 70.6245 21.8815 70.6495C21.6892 69.6745 21.4968 68.7745 21.343 67.912C21.6251 67.912 21.9071 67.8995 22.1892 67.8745ZM21.343 67.912C21.4968 68.7745 21.6892 69.6745 21.8815 70.6495C20.8302 70.6745 19.7789 70.712 18.7276 70.762C18.5481 69.812 18.3814 68.8995 18.2276 68.0245C19.2532 67.9995 20.2917 67.962 21.343 67.912ZM18.2276 68.0245C18.3814 68.8995 18.5481 69.812 18.7276 70.762C18.7276 70.762 18.7148 70.762 18.6891 70.762C18.5096 69.812 18.343 68.8995 18.1891 68.0245C18.1891 68.0245 18.2019 68.0245 18.2276 68.0245ZM18.1891 68.0245C18.343 68.8995 18.5096 69.812 18.6891 70.762C17.6378 70.812 16.5865 70.8495 15.5353 70.8745C15.3558 69.9745 15.1763 69.0745 14.9968 68.1745C16.0481 68.1245 17.1122 68.0745 18.1891 68.0245ZM28.2277 70.387C28.561 72.187 28.9072 73.987 29.2662 75.787C28.9585 75.787 28.6508 75.787 28.3431 75.787C28.0097 73.987 27.6636 72.1995 27.3046 70.4245C27.6123 70.4245 27.92 70.412 28.2277 70.387ZM27.3046 70.4245C27.6636 72.1995 28.0097 73.987 28.3431 75.787C27.5995 75.837 26.843 75.8745 26.0738 75.8995C25.7277 74.062 25.3815 72.262 25.0353 70.4995C25.8046 70.4745 26.561 70.4495 27.3046 70.4245ZM25.0353 70.4995C25.3815 72.262 25.7277 74.062 26.0738 75.8995C25.7277 74.062 25.3815 72.262 25.0353 70.4995ZM25.0353 70.4995C25.3815 72.262 25.7277 74.062 26.0738 75.8995C25.3815 75.9245 24.6892 75.9495 23.9969 75.9745C23.6507 74.137 23.3046 72.2995 22.9584 70.612C23.6507 70.587 24.343 70.5495 25.0353 70.4995ZM22.9584 70.612C23.3046 72.2995 23.6507 74.137 23.9969 75.9745C23.8943 75.9745 23.8046 75.9745 23.7276 75.9745C23.3815 74.137 23.0353 72.2995 22.6892 70.612C22.7917 70.612 22.8815 70.612 22.9584 70.612ZM22.6892 70.612C23.0353 72.2995 23.3815 74.137 23.7276 75.9745C23.4456 75.9995 23.1764 76.012 22.9199 76.012C22.5353 74.1745 22.1892 72.337 21.8815 70.6495C22.1379 70.6245 22.4071 70.612 22.6892 70.612ZM21.8815 70.6495C22.1892 72.337 22.5353 74.1745 22.9199 76.012C21.8687 76.062 20.8174 76.0995 19.7661 76.1245C19.4199 74.3245 19.0738 72.487 18.7276 70.762C19.7789 70.712 20.8302 70.6745 21.8815 70.6495ZM18.7276 70.762C19.0738 72.487 19.4199 74.3245 19.7661 76.1245C19.7661 76.1245 19.7532 76.1245 19.7276 76.1245C19.3814 74.3245 19.0353 72.487 18.6891 70.762C18.7148 70.762 18.7276 70.762 18.7276 70.762ZM18.6891 70.762C19.0353 72.487 19.3814 74.3245 19.7276 76.1245C18.6763 76.1745 17.6122 76.2245 16.5353 76.2745C16.2019 74.4745 15.8686 72.6745 15.5353 70.8745C16.5865 70.8495 17.6378 70.812 18.6891 70.762ZM29.2662 75.787C32.3431 91.8745 52.7279 89.287 62.728 110.025C62.1383 110.175 61.5357 110.325 60.9203 110.475C51.2279 90.112 31.42 91.762 28.3431 75.787C28.6508 75.787 28.9585 75.787 29.2662 75.787ZM28.3431 75.787C31.42 91.762 51.2279 90.112 60.9203 110.475C59.4075 110.875 57.8946 111.275 56.3818 111.675C47.9202 92.8496 29.0354 91.237 26.0738 75.8995C26.843 75.8745 27.5995 75.837 28.3431 75.787ZM26.0738 75.8995C29.0354 91.237 47.9202 92.8496 56.3818 111.675C47.9202 92.8496 28.9969 91.237 26.0738 75.8995ZM26.0738 75.8995C28.9969 91.237 47.9202 92.8496 56.3818 111.675C54.9972 112.05 53.6125 112.425 52.2279 112.8C44.9971 95.4746 26.8046 90.712 23.9969 75.9745C24.6892 75.9495 25.3815 75.9245 26.0738 75.8995ZM23.9969 75.9745C26.8046 90.712 44.9971 95.4746 52.2279 112.8C52.0484 112.825 51.8689 112.862 51.6894 112.912C44.5355 95.6621 26.5354 90.712 23.7276 75.9745C23.8046 75.9745 23.8943 75.9745 23.9969 75.9745ZM23.7276 75.9745C26.5354 90.712 44.5355 95.6621 51.6894 112.912C51.151 113.062 50.5997 113.212 50.0356 113.362C43.1509 96.4121 25.6892 90.5995 22.9199 76.012C23.1764 76.012 23.4456 75.9995 23.7276 75.9745ZM22.9199 76.012C25.6892 90.5995 43.1509 96.4121 50.0356 113.362C47.6253 113.987 45.215 114.625 42.8047 115.275C38.8047 98.5871 23.2276 94.1245 19.7661 76.1245C20.8174 76.0995 21.8687 76.062 22.9199 76.012ZM19.7661 76.1245C23.2276 94.1245 38.8047 98.5871 42.8047 115.275C42.7791 115.275 42.7535 115.275 42.7278 115.275C38.6893 98.6246 23.1892 94.1245 19.7276 76.1245C19.7532 76.1245 19.7661 76.1245 19.7661 76.1245ZM19.7276 76.1245C23.1892 94.1245 38.6893 98.6246 42.7278 115.275C40.2919 115.925 37.856 116.562 35.4201 117.187C34.2662 100.8 20.6507 97.6871 16.5353 76.2745C17.6122 76.2245 18.6763 76.1745 19.7276 76.1245ZM62.728 110.025C65.0742 114.825 65.8819 119.362 65.6896 123.637C64.805 123.862 64.0742 124.05 63.3819 124.2C63.728 119.887 63.228 115.312 60.9203 110.475C61.5357 110.325 62.1383 110.175 62.728 110.025ZM60.9203 110.475C63.228 115.312 63.728 119.887 63.3819 124.2C61.6126 124.575 60.1511 124.8 57.9972 125.362C58.9972 121.012 58.6126 116.625 56.3818 111.675C57.8946 111.275 59.4075 110.875 60.9203 110.475ZM56.3818 111.675C58.6126 116.625 58.9972 121.012 57.9972 125.362C57.9972 125.362 57.9844 125.375 57.9587 125.4C58.9587 121.05 58.5741 116.625 56.3818 111.675ZM56.3818 111.675C58.5741 116.625 58.9587 121.05 57.9587 125.4C56.0356 125.887 54.6125 126.15 53.0741 126.45C54.6895 122.062 54.3048 117.825 52.2279 112.8C53.6125 112.425 54.9972 112.05 56.3818 111.675ZM52.2279 112.8C54.3048 117.825 54.6895 122.062 53.0741 126.45C52.8689 126.5 52.6638 126.55 52.4587 126.6C54.1125 122.175 53.7664 117.937 51.6894 112.912C51.8689 112.862 52.0484 112.825 52.2279 112.8ZM51.6894 112.912C53.7664 117.937 54.1125 122.175 52.4587 126.6C51.8048 126.712 51.1125 126.9 50.3433 127.087C52.151 122.7 52.1125 118.387 50.0356 113.362C50.5997 113.212 51.151 113.062 51.6894 112.912ZM50.0356 113.362C52.1125 118.387 52.151 122.7 50.3433 127.087C47.3432 127.875 42.6124 128.887 39.5739 129.675C42.497 125.1 44.0355 120.6 42.8047 115.275C45.215 114.625 47.6253 113.987 50.0356 113.362ZM42.8047 115.275C44.0355 120.6 42.497 125.1 39.5739 129.675C39.5227 129.675 39.4842 129.687 39.4586 129.712C42.3817 125.137 43.9586 120.637 42.7278 115.275C42.7535 115.275 42.7791 115.275 42.8047 115.275ZM42.7278 115.275C43.9586 120.637 42.3817 125.137 39.4586 129.712C36.4201 130.5 31.6123 131.512 28.5738 132.3C32.6123 127.575 35.8047 122.85 35.4201 117.187C37.856 116.562 40.2919 115.925 42.7278 115.275ZM65.6896 123.637C65.4588 128.287 64.0742 132.637 62.1511 136.8C61.0229 137.1 59.8818 137.4 58.728 137.7C61.0742 133.35 62.9972 128.85 63.3819 124.2C64.0742 124.05 64.805 123.862 65.6896 123.637ZM63.3819 124.2C62.9972 128.85 61.0742 133.35 58.728 137.7C55.9074 138.425 53.0741 139.162 50.2279 139.912C54.1895 134.737 56.9203 130.087 57.9972 125.362C60.1511 124.8 61.6126 124.575 63.3819 124.2ZM57.9972 125.362C56.9203 130.087 54.1895 134.737 50.2279 139.912C50.2023 139.937 50.1766 139.95 50.151 139.95C54.1125 134.737 56.8818 130.087 57.9587 125.4C57.9844 125.375 57.9972 125.362 57.9972 125.362ZM57.9587 125.4C56.8818 130.087 54.1125 134.737 50.151 139.95C47.5612 140.625 44.9714 141.3 42.3817 141.975C47.9586 135.937 51.2664 131.212 53.0741 126.45C54.6125 126.15 56.0356 125.887 57.9587 125.4ZM53.0741 126.45C51.2664 131.212 47.9586 135.937 42.3817 141.975C42.0483 142.075 41.715 142.162 41.3817 142.237C47.0356 136.162 50.651 131.362 52.4587 126.6C52.6638 126.55 52.8689 126.5 53.0741 126.45ZM52.4587 126.6C50.651 131.362 47.0356 136.162 41.3817 142.237C40.356 142.512 39.3304 142.787 38.3047 143.062C44.3048 136.8 48.3817 131.887 50.3433 127.087C51.1125 126.9 51.8048 126.712 52.4587 126.6ZM50.3433 127.087C48.3817 131.887 44.3048 136.8 38.3047 143.062C34.6124 144.037 30.9328 145.012 27.2661 145.987C31.6893 139.65 36.3816 134.625 39.5739 129.675C42.6124 128.887 47.3432 127.875 50.3433 127.087ZM39.5739 129.675C36.3816 134.625 31.6893 139.65 27.2661 145.987C27.2148 145.987 27.1764 146 27.1508 146.025C31.5354 139.687 36.2662 134.662 39.4586 129.712C39.4842 129.687 39.5227 129.675 39.5739 129.675ZM39.4586 129.712C36.2662 134.662 31.5354 139.687 27.1508 146.025C23.4328 147 19.7148 147.975 15.9968 148.95C18.4199 142.162 24.1892 137.437 28.5738 132.3C31.6123 131.512 36.4201 130.5 39.4586 129.712ZM62.1511 136.8C58.4587 144.787 46.6509 153.037 48.4971 167.25C45.5355 167.362 49.3817 167.212 46.3817 167.325C44.574 153.15 54.4202 146.175 58.728 137.7C59.8818 137.4 61.0229 137.1 62.1511 136.8ZM58.728 137.7C54.4202 146.175 44.574 153.15 46.3817 167.325C44.6637 167.4 42.933 167.462 41.1893 167.512C39.1509 155.737 44.9586 147.487 50.2279 139.912C53.0741 139.162 55.9074 138.425 58.728 137.7ZM50.2279 139.912C44.9586 147.487 39.1509 155.737 41.1893 167.512C41.1893 167.512 41.1765 167.512 41.1509 167.512C39.1124 155.737 44.9201 147.487 50.151 139.95C50.1766 139.95 50.2023 139.937 50.2279 139.912ZM50.151 139.95C44.9201 147.487 39.1124 155.737 41.1509 167.512C39.6124 167.587 38.4585 167.625 36.8816 167.7C34.1893 158.737 36.1508 148.875 42.3817 141.975C44.9714 141.3 47.5612 140.625 50.151 139.95ZM42.3817 141.975C36.1508 148.875 34.1893 158.737 36.8816 167.7C36.6893 167.7 35.997 167.737 35.8047 167.737C32.92 157.237 34.9585 149.287 41.3817 142.237C41.715 142.162 42.0483 142.075 42.3817 141.975ZM41.3817 142.237C34.9585 149.287 32.92 157.237 35.8047 167.737C35.1508 167.737 33.1508 167.812 32.5354 167.85C31.1508 161.175 29.8815 151.875 38.3047 143.062C39.3304 142.787 40.356 142.512 41.3817 142.237ZM38.3047 143.062C29.8815 151.875 31.1508 161.175 32.5354 167.85C29.92 167.962 28.6508 168 26.0738 168.075C24.5353 162.75 22.7661 152.062 27.2661 145.987C30.9328 145.012 34.6124 144.037 38.3047 143.062ZM27.2661 145.987C22.7661 152.062 24.5353 162.75 26.0738 168.075C26.0482 168.1 26.0225 168.112 25.9969 168.112C24.4584 162.75 22.6507 152.1 27.1508 146.025C27.1764 146 27.2148 145.987 27.2661 145.987ZM27.1508 146.025C22.6507 152.1 24.4584 162.75 25.9969 168.112C23.3815 168.212 20.7533 168.3 18.1122 168.375C15.7276 161.362 13.4199 156.187 15.9968 148.95C19.7148 147.975 23.4328 147 27.1508 146.025Z" fill="url(#paint2_linear_227_16)"/>
</g>
<g style="mix-blend-mode:screen" opacity="0.3">
<path fill-rule="evenodd" clip-rule="evenodd" d="M15.728 157.614C15.9588 147.639 19.3434 143.889 23.2281 137.889C25.4589 134.327 26.6127 130.389 23.0742 126.714C19.5357 123.039 15.8434 116.814 18.3434 109.877C20.8819 102.939 28.5743 100.577 33.8051 97.1268C34.8051 96.4143 35.6897 95.5143 36.382 94.3518C36.5102 94.1268 36.6384 93.8768 36.7667 93.6018C37.6897 91.5393 37.8051 89.7018 37.459 88.0143C37.382 87.6893 37.2795 87.3643 37.1513 87.0393C34.4974 81.7893 30.9204 78.1893 29.1897 72.3393C29.0871 72.1393 28.9845 71.9393 28.882 71.7393C27.305 68.7768 21.2665 55.4268 13.4587 47.3268C14.0741 46.3518 14.6767 45.3768 15.2665 44.4018C16.087 43.0768 16.8947 41.7518 17.6895 40.4268C17.9588 39.9768 18.3819 39.3018 18.8049 38.6268C19.1896 37.9893 19.4973 37.4643 19.4973 37.4643C18.9588 38.3643 18.1511 39.6768 17.6895 40.4268C17.9203 40.0518 18.3819 39.2643 18.8049 38.6268C19.0357 38.2143 19.2665 37.8393 19.4973 37.4643C19.728 37.1268 19.8819 36.8268 19.9973 36.6768C20.228 36.2643 20.4203 36.0018 20.4588 35.9268C21.8434 33.6393 20.8819 35.2143 22.2665 32.9268C22.3434 32.8268 22.4075 32.7268 22.4588 32.6268C22.9204 31.8768 23.3819 31.1268 23.8435 30.3768C24.2537 29.7268 24.6512 29.0768 25.0358 28.4268C25.1896 28.1768 25.3435 27.9143 25.4973 27.6393C25.8306 27.0893 26.1768 26.5393 26.5358 25.9893C31.3435 34.7268 33.1512 35.0268 42.6129 43.0893C52.036 51.1143 51.036 67.9143 54.9591 75.0768C56.2284 77.4018 56.6515 78.2643 56.8053 78.5643C63.5361 90.4518 58.113 115.652 53.6899 124.089C49.2668 132.564 28.6127 149.477 40.5359 157.614C37.9718 157.614 35.4077 157.614 32.8435 157.614C31.4845 157.614 30.1384 157.614 28.805 157.614C22.9588 151.352 32.1897 145.164 35.1513 139.914C38.1128 134.702 39.1128 130.089 38.5744 122.739C37.6897 122.852 33.382 122.889 33.1512 122.889C32.1897 122.927 29.305 123.489 28.9973 123.564C28.9589 123.564 28.8435 123.414 28.6897 123.227L28.4973 123.752C30.1897 125.477 31.382 127.277 32.1128 129.152L32.3051 127.877C32.4846 128.177 32.6256 128.427 32.7282 128.627C33.5743 130.314 35.2282 134.589 32.5743 138.527C31.7281 139.839 30.8051 141.002 29.882 142.089L30.1512 140.627C30.0486 140.752 29.9589 140.864 29.882 140.964C29.0743 141.977 28.382 143.214 27.8435 144.527C25.8435 149.364 25.4589 155.477 25.3819 157.164C25.3819 157.464 25.3819 157.614 25.3819 157.614C23.9588 157.614 22.1127 157.614 21.1127 157.614C20.9845 157.614 20.8691 157.614 20.7665 157.614C20.1768 157.614 19.5998 157.614 19.0357 157.614C17.9203 157.614 17.0357 157.614 15.728 157.614ZM52.1899 83.0268C52.395 83.2768 52.5873 83.5393 52.7668 83.8143C56.4976 89.2143 57.6899 97.9518 53.7668 103.464C49.6514 109.952 42.4206 110.889 39.7667 114.039C38.1513 115.952 38.2667 118.389 38.5744 122.739C39.459 122.664 39.6898 122.702 40.5359 123.114C40.7282 120.752 40.5744 116.627 44.459 115.164C57.7284 110.177 61.8438 95.2518 53.3053 82.8768C53.1514 82.6768 53.0104 82.4768 52.8822 82.2768C51.4591 80.3268 49.8822 78.0018 48.5745 73.2768C49.8822 78.0018 51.4591 80.3268 52.8822 82.2768C52.9591 82.1643 56.3438 78.9018 56.8053 78.5643C56.3438 78.9018 52.9591 82.1643 52.8822 82.2768C52.6514 82.5768 52.3053 82.8768 52.1899 83.0268ZM43.4975 81.3393L35.1897 104.889C39.6898 103.014 45.036 100.239 48.1129 95.5143C49.6899 93.6018 49.5745 91.4268 48.7283 89.3643C48.6001 89.0643 48.4719 88.7768 48.3437 88.5018C46.8437 86.1018 45.3052 83.9643 43.8052 81.4518C43.7026 81.4268 43.6001 81.3893 43.4975 81.3393ZM25.4973 27.6393C31.0358 38.8143 36.4974 40.0143 42.6129 48.6018C36.4974 40.0143 31.0358 38.8143 25.4973 27.6393Z" fill="url(#paint3_linear_227_16)"/>
</g>
</g>
<defs>
<linearGradient id="paint0_linear_227_16" x1="48.5366" y1="-1.90662e-07" x2="53.473" y2="104.3" gradientUnits="userSpaceOnUse">
<stop stop-color="#010101" stop-opacity="0"/>
<stop offset="1" stop-color="white" stop-opacity="0.76"/>
</linearGradient>
<linearGradient id="paint1_linear_227_16" x1="21.8818" y1="5.1748" x2="49.7628" y2="110.981" gradientUnits="userSpaceOnUse">
<stop stop-color="#010101" stop-opacity="0"/>
<stop offset="1" stop-color="#FEFEFE" stop-opacity="0.65"/>
</linearGradient>
<linearGradient id="paint2_linear_227_16" x1="62.6895" y1="110.25" x2="53.0555" y2="126.553" gradientUnits="userSpaceOnUse">
<stop stop-opacity="0"/>
<stop offset="1" stop-color="#FFFDFD" stop-opacity="0.77"/>
</linearGradient>
<linearGradient id="paint3_linear_227_16" x1="49.4206" y1="81.7518" x2="14.3195" y2="47.7141" gradientUnits="userSpaceOnUse">
<stop stop-color="white" stop-opacity="0.8"/>
<stop offset="1" stop-opacity="0"/>
</linearGradient>
<clipPath id="clip0_227_16">
<rect width="77" height="183" fill="white"/>
</clipPath>
</defs>
</svg>
