<svg width="87" height="191" viewBox="0 0 87 191" fill="none" xmlns="http://www.w3.org/2000/svg">
<g clip-path="url(#clip0_227_24)">
<path style="mix-blend-mode:screen" d="M42.9793 3.53889C42.0075 6.41667 40.9191 9.41111 39.6752 12.2111C37.6151 12.4444 35.6326 12.6778 33.6891 12.8722C34.933 10.0722 36.0213 7.11667 36.9543 4.2C38.9755 3.99259 40.9839 3.77222 42.9793 3.53889ZM46.4388 3.15C45.467 6.02778 44.3397 9.02222 43.057 11.8222C41.9297 11.9389 40.8025 12.0944 39.6752 12.2111C40.9191 9.41111 42.0075 6.41667 42.9793 3.53889C44.1195 3.40926 45.2726 3.27963 46.4388 3.15ZM49.393 2.8C48.4212 5.71667 47.2939 8.67222 46.0112 11.5111C45.0524 11.6148 44.0676 11.7185 43.057 11.8222C44.3397 9.02222 45.467 6.02778 46.4388 3.15C47.4235 3.0463 48.4082 2.92963 49.393 2.8ZM51.8418 2.52778C50.9478 5.40556 49.8983 8.32222 48.7322 11.2C47.877 11.2778 46.8663 11.3944 46.0112 11.5111C47.2939 8.67222 48.4212 5.71667 49.393 2.8C50.1963 2.72222 51.0126 2.63148 51.8418 2.52778ZM53.4744 2.33333C52.697 5.21111 51.7641 8.05 50.7534 10.9667C50.1704 11.0056 49.3541 11.1222 48.7322 11.2C49.8983 8.32222 50.9478 5.40556 51.8418 2.52778C52.386 2.47593 52.9302 2.41111 53.4744 2.33333ZM55.7289 2.1C54.9515 4.97778 54.0186 7.77778 53.008 10.6944C52.3083 10.7722 51.492 10.8889 50.7534 10.9667C51.7641 8.05 52.697 5.21111 53.4744 2.33333C54.2259 2.25556 54.9774 2.17778 55.7289 2.1ZM57.3226 1.90556C56.5841 4.78333 55.7289 7.58333 54.796 10.5C54.2518 10.5778 53.591 10.6556 53.008 10.6944C54.0186 7.77778 54.9515 4.97778 55.7289 2.1C56.2472 2.04815 56.7784 1.98333 57.3226 1.90556ZM58.5665 1.78889C57.9057 4.62778 57.0894 7.42778 56.1954 10.3444C55.7678 10.3833 55.2236 10.4611 54.796 10.5C55.7289 7.58333 56.5841 4.78333 57.3226 1.90556C57.7373 1.8537 58.1519 1.81481 58.5665 1.78889ZM59.7715 1.63333C59.1107 4.51111 58.2944 7.27222 57.4004 10.1889C57.0117 10.2667 56.5841 10.3056 56.1954 10.3444C57.0894 7.42778 57.9057 4.62778 58.5665 1.78889C58.9552 1.73704 59.3569 1.68519 59.7715 1.63333ZM62.2593 1.36111C61.6373 4.2 60.8599 7 59.9659 9.91667C59.1107 9.99444 58.2167 10.1111 57.4004 10.1889C58.2944 7.27222 59.1107 4.51111 59.7715 1.63333C60.6008 1.55556 61.43 1.46481 62.2593 1.36111ZM63.8918 1.16667C63.2699 4.00556 62.4925 6.80556 61.5984 9.72222C61.0543 9.8 60.5101 9.83889 59.9659 9.91667C60.8599 7 61.6373 4.2 62.2593 1.36111C62.8034 1.30926 63.3476 1.24444 63.8918 1.16667ZM68.362 0.661111C67.7401 3.5 66.9626 6.3 66.1075 9.21667C64.6045 9.39815 63.1015 9.56667 61.5984 9.72222C62.4925 6.80556 63.2699 4.00556 63.8918 1.16667C65.3689 1.01111 66.859 0.842593 68.362 0.661111ZM74.3093 0C73.7651 2.83889 72.9876 5.6 72.1713 8.51667C70.2278 8.75 68.1288 8.98333 66.1075 9.21667C66.9626 6.3 67.7401 3.5 68.362 0.661111C70.3574 0.427778 72.3398 0.207407 74.3093 0ZM39.6752 12.2111C30.6183 32.6667 4.8857 46.8222 5.62425 71.2056C2.94215 71.2056 0.298926 71.2056 0.0268296 71.2056C-0.944945 46.5889 24.7488 33.2889 33.6891 12.8722C35.6326 12.6778 37.6151 12.4444 39.6752 12.2111ZM43.057 11.8222C33.9223 32.3167 8.18973 46.9 8.7728 71.2056C7.80102 71.2056 6.71264 71.2056 5.62425 71.2056C4.8857 46.8222 30.6183 32.6667 39.6752 12.2111C40.8025 12.0944 41.9297 11.9389 43.057 11.8222ZM46.0112 11.5111C36.8765 32.0056 11.1439 47.0944 11.6104 71.2056C11.416 71.2056 10.2499 71.2056 8.7728 71.2056C8.18973 46.9 33.9223 32.3167 43.057 11.8222C44.0676 11.7185 45.0524 11.6148 46.0112 11.5111ZM48.7322 11.2C40.2583 32.0056 15.4197 49.0389 16.0417 71.2056C14.5646 71.2056 13.0875 71.2056 11.6104 71.2056C11.1439 47.0944 36.8765 32.0056 46.0112 11.5111C46.8663 11.3944 47.877 11.2778 48.7322 11.2ZM50.7534 10.9667C43.368 32.1611 19.8122 51.45 20.7062 71.2056C18.6072 71.2056 18.1018 71.2056 16.0417 71.2056C15.4197 49.0389 40.2583 32.0056 48.7322 11.2C49.3541 11.1222 50.1704 11.0056 50.7534 10.9667ZM53.008 10.6944C45.7002 31.8889 22.2999 51.4889 23.1551 71.2056C22.8441 71.2056 20.9783 71.2056 20.7062 71.2056C19.8122 51.45 43.368 32.1611 50.7534 10.9667C51.492 10.8889 52.3083 10.7722 53.008 10.6944ZM54.796 10.5C47.8381 31.7722 24.5155 52.1111 26.4202 71.2056C25.3318 71.2056 24.2434 71.2056 23.1551 71.2056C22.2999 51.4889 45.7002 31.8889 53.008 10.6944C53.591 10.6556 54.2518 10.5778 54.796 10.5ZM56.1954 10.3444C49.5873 31.6556 26.4202 52.5389 29.0246 71.2056C28.1694 71.2056 27.3013 71.2056 26.4202 71.2056C24.5155 52.1111 47.8381 31.7722 54.796 10.5C55.2236 10.4611 55.7678 10.3833 56.1954 10.3444ZM57.4004 10.1889C50.7923 31.5 27.703 52.5389 30.2684 71.2056C30.1518 71.2056 29.1412 71.2056 29.0246 71.2056C26.4202 52.5389 49.5873 31.6556 56.1954 10.3444C56.5841 10.3056 57.0117 10.2667 57.4004 10.1889ZM59.9659 9.91667C53.591 31.2667 30.5017 52.8889 33.6113 71.2056C31.6678 71.2056 30.9681 71.2056 30.2684 71.2056C27.703 52.5389 50.7923 31.5 57.4004 10.1889C58.2167 10.1111 59.1107 9.99444 59.9659 9.91667ZM61.5984 9.72222C55.1459 31.0722 32.0565 52.8889 35.1273 71.2056C35.0107 71.2056 33.728 71.2056 33.6113 71.2056C30.5017 52.8889 53.591 31.2667 59.9659 9.91667C60.5101 9.83889 61.0543 9.8 61.5984 9.72222ZM66.1075 9.21667C59.7326 30.6444 36.5655 53.2 40.1028 71.2056C38.0426 71.2056 36.9931 71.2056 35.1273 71.2056C32.0565 52.8889 55.1459 31.0722 61.5984 9.72222C63.1015 9.56667 64.6045 9.39815 66.1075 9.21667ZM72.1713 8.51667C65.9909 30.0222 42.8626 53.6278 46.9441 71.2056C45.9723 71.2056 43.1736 71.2056 40.1028 71.2056C36.5655 53.2 59.7326 30.6444 66.1075 9.21667C68.1288 8.98333 70.2278 8.75 72.1713 8.51667ZM5.62425 71.2056C5.8186 77.7 7.33457 83.1056 9.39473 87.8111C6.75151 87.8111 4.10828 87.8111 3.71957 87.8111C1.65941 83.1056 0.260055 77.7 0.0268296 71.2056C0.298926 71.2056 2.94215 71.2056 5.62425 71.2056ZM8.7728 71.2056C8.92828 77.7 10.4831 83.1056 12.5044 87.7722C11.5715 87.8111 10.4831 87.8111 9.39473 87.8111C7.33457 83.1056 5.8186 77.7 5.62425 71.2056C6.71264 71.2056 7.80102 71.2056 8.7728 71.2056ZM11.6104 71.2056C11.727 77.7 13.2818 83.0667 15.342 87.7722C15.1476 87.7722 14.0204 87.7722 12.5044 87.7722C10.4831 83.1056 8.92828 77.7 8.7728 71.2056C10.2499 71.2056 11.416 71.2056 11.6104 71.2056ZM16.0417 71.2056C16.236 77.7778 17.7131 82.95 20.2786 87.5C18.2962 87.5 16.9357 87.6556 15.342 87.7722C13.2818 83.0667 11.727 77.7 11.6104 71.2056C13.0875 71.2056 14.5646 71.2056 16.0417 71.2056ZM20.7062 71.2056C20.9783 77.8944 22.6886 82.7556 25.9149 87.15C23.1162 87.15 23.1162 87.5 20.2786 87.5C17.7131 82.95 16.236 77.7778 16.0417 71.2056C18.1018 71.2056 18.6072 71.2056 20.7062 71.2056ZM23.1551 71.2056C23.4272 77.8944 25.3318 82.7556 28.5581 87.15C28.1694 87.15 26.3036 87.15 25.9149 87.15C22.6886 82.7556 20.9783 77.8944 20.7062 71.2056C20.9783 71.2056 22.8441 71.2056 23.1551 71.2056ZM26.4202 71.2056C27.1199 77.9333 29.6854 82.6778 33.4559 86.9944C31.7844 87.0333 30.0352 87.1111 28.5581 87.15C25.3318 82.7556 23.4272 77.8944 23.1551 71.2056C24.2434 71.2056 25.3318 71.2056 26.4202 71.2056ZM29.0246 71.2056C30.0352 77.9722 33.0672 82.6 37.1875 86.8778C36.0602 86.8778 34.7775 86.9167 33.4559 86.9944C29.6854 82.6778 27.1199 77.9333 26.4202 71.2056C27.3013 71.2056 28.1694 71.2056 29.0246 71.2056ZM30.2684 71.2056C31.2791 77.9722 34.3499 82.6 38.4702 86.8778C38.3147 86.8778 37.3041 86.8778 37.1875 86.8778C33.0672 82.6 30.0352 77.9722 29.0246 71.2056C29.1412 71.2056 30.1518 71.2056 30.2684 71.2056ZM33.6113 71.2056C34.8552 78.0111 38.1204 82.6 42.5517 86.8C40.2972 86.8389 39.2865 86.8778 38.4702 86.8778C34.3499 82.6 31.2791 77.9722 30.2684 71.2056C30.9681 71.2056 31.6678 71.2056 33.6113 71.2056ZM35.1273 71.2056C36.2934 78.0111 39.6363 82.6 44.0288 86.8C43.8733 86.8 42.6683 86.8 42.5517 86.8C38.1204 82.6 34.8552 78.0111 33.6113 71.2056C33.728 71.2056 35.0107 71.2056 35.1273 71.2056ZM40.1028 71.2056C41.4633 78.05 45.3115 82.5222 49.9372 86.6833C47.6049 86.7222 46.2055 86.7611 44.0288 86.8C39.6363 82.6 36.2934 78.0111 35.1273 71.2056C36.9931 71.2056 38.0426 71.2056 40.1028 71.2056ZM46.9441 71.2056C48.5378 78.05 52.9302 82.4444 57.8668 86.5667C56.7007 86.5667 53.4744 86.6056 49.9372 86.6833C45.3115 82.5222 41.4633 78.05 40.1028 71.2056C43.1736 71.2056 45.9723 71.2056 46.9441 71.2056ZM9.39473 87.8111C11.6493 92.9056 14.7589 97.1445 18.1407 100.994C15.3809 100.994 12.6988 100.994 12.1546 100.994C8.92828 97.2222 5.93522 92.9444 3.71957 87.8111C4.10828 87.8111 6.75151 87.8111 9.39473 87.8111ZM12.5044 87.7722C14.7589 92.8667 17.9463 97.1445 21.367 100.994C20.3952 100.994 19.268 100.994 18.1407 100.994C14.7589 97.1445 11.6493 92.9056 9.39473 87.8111C10.4831 87.8111 11.5715 87.8111 12.5044 87.7722ZM15.342 87.7722C17.5965 92.8278 20.9394 97.1056 24.4767 100.994C24.1657 100.994 22.9218 100.994 21.367 100.994C17.9463 97.1445 14.7589 92.8667 12.5044 87.7722C14.0204 87.7722 15.1476 87.7722 15.342 87.7722ZM20.2786 87.5C23.0773 92.4389 27.1588 96.6389 32.2509 100.994C29.6595 100.994 27.0681 100.994 24.4767 100.994C20.9394 97.1056 17.5965 92.8278 15.342 87.7722C16.9357 87.6556 18.2962 87.5 20.2786 87.5ZM25.9149 87.15C29.4133 91.9333 34.6997 96.0945 41.7354 100.994C38.0815 100.994 35.9047 100.994 32.2509 100.994C27.1588 96.6389 23.0773 92.4389 20.2786 87.5C23.1162 87.5 23.1162 87.15 25.9149 87.15ZM28.5581 87.15C32.0954 91.8944 37.4984 96.0945 44.4563 100.994C44.0288 100.994 42.163 100.994 41.7354 100.994C34.6997 96.0945 29.4133 91.9333 25.9149 87.15C26.3036 87.15 28.1694 87.15 28.5581 87.15ZM33.4559 86.9944C37.4984 91.6611 42.9404 95.8222 49.1597 100.994C47.6049 100.994 46.0371 100.994 44.4563 100.994C37.4984 96.0945 32.0954 91.8944 28.5581 87.15C30.0352 87.1111 31.7844 87.0333 33.4559 86.9944ZM37.1875 86.8778C41.6188 91.4667 47.2551 95.6278 52.8913 100.994C51.6475 100.994 50.4036 100.994 49.1597 100.994C42.9404 95.8222 37.4984 91.6611 33.4559 86.9944C34.7775 86.9167 36.0602 86.8778 37.1875 86.8778ZM38.4702 86.8778C42.9015 91.4667 48.6155 95.6278 54.213 100.994C54.0575 100.994 53.0468 100.994 52.8913 100.994C47.2551 95.6278 41.6188 91.4667 37.1875 86.8778C37.3041 86.8778 38.3147 86.8778 38.4702 86.8778ZM42.5517 86.8C47.2939 91.35 53.2412 95.4722 58.3722 100.994C56.1954 100.994 55.2236 100.994 54.213 100.994C48.6155 95.6278 42.9015 91.4667 38.4702 86.8778C39.2865 86.8778 40.2972 86.8389 42.5517 86.8ZM44.0288 86.8C48.771 91.35 54.7183 95.4722 59.8493 100.994C59.6938 100.994 58.5276 100.994 58.3722 100.994C53.2412 95.4722 47.2939 91.35 42.5517 86.8C42.6683 86.8 43.8733 86.8 44.0288 86.8ZM49.9372 86.6833C54.9904 91.1944 60.821 95.3167 65.4467 100.994C63.231 100.994 61.9094 100.994 59.8493 100.994C54.7183 95.4722 48.771 91.35 44.0288 86.8C46.2055 86.7611 47.6049 86.7222 49.9372 86.6833ZM57.8668 86.5667C63.231 91 69.2949 95.1222 73.3375 100.994C71.9381 100.994 68.8284 100.994 65.4467 100.994C60.821 95.3167 54.9904 91.1944 49.9372 86.6833C53.4744 86.6056 56.7007 86.5667 57.8668 86.5667ZM18.1407 100.994C25.1375 109.161 34.2722 114.761 38.6646 125.067C36.2546 125.067 33.8834 125.067 33.6113 125.067C32.7951 123.356 31.7067 121.567 30.1518 119.661C25.6039 113.983 18.4517 108.383 12.1546 100.994C12.6988 100.994 15.3809 100.994 18.1407 100.994ZM21.367 100.994C28.2472 109.006 37.2652 114.839 41.4633 125.067C40.6081 125.067 39.6363 125.067 38.6646 125.067C34.2722 114.761 25.1375 109.161 18.1407 100.994C19.268 100.994 20.3952 100.994 21.367 100.994ZM24.4767 100.994C31.2013 108.733 40.1028 114.956 44.0288 125.067C43.8344 125.067 42.8238 125.067 41.4633 125.067C37.2652 114.839 28.2472 109.006 21.367 100.994C22.9218 100.994 24.1657 100.994 24.4767 100.994ZM32.2509 100.994C39.2865 107.45 44.3009 113.556 46.7886 119.856C47.566 121.644 48.1102 123.356 48.4212 125.067C46.9441 125.067 45.4799 125.067 44.0288 125.067C40.1028 114.956 31.2013 108.733 24.4767 100.994C27.0681 100.994 29.6595 100.994 32.2509 100.994ZM41.7354 100.994C51.6475 107.917 53.902 116.356 53.1634 125.067C51.1422 125.067 50.4425 125.067 48.4212 125.067C48.1102 123.356 47.566 121.644 46.7886 119.856C44.3009 113.556 39.2865 107.45 32.2509 100.994C35.9047 100.994 38.0815 100.994 41.7354 100.994ZM44.4563 100.994C51.2588 105.778 56.3897 113.828 55.3791 125.067C55.107 125.067 53.4355 125.067 53.1634 125.067C53.902 116.356 51.6475 107.917 41.7354 100.994C42.163 100.994 44.0288 100.994 44.4563 100.994ZM49.1597 100.994C55.4568 106.128 59.7326 114.489 58.411 125.067C57.4004 125.067 56.3897 125.067 55.3791 125.067C56.3897 113.828 51.2588 105.778 44.4563 100.994C46.0371 100.994 47.6049 100.994 49.1597 100.994ZM52.8913 100.994C58.7997 106.4 62.3759 114.956 60.821 125.067C60.0177 125.067 59.2144 125.067 58.411 125.067C59.7326 114.489 55.4568 106.128 49.1597 100.994C50.4036 100.994 51.6475 100.994 52.8913 100.994ZM54.213 100.994C59.8493 106.128 62.337 112.35 62.3759 119.7C62.3759 121.528 62.2204 123.317 61.9483 125.067C61.8317 125.067 60.9376 125.067 60.821 125.067C62.3759 114.956 58.7997 106.4 52.8913 100.994C53.0468 100.994 54.0575 100.994 54.213 100.994ZM58.3722 100.994C63.2699 106.011 65.6799 112.506 65.5244 119.856C65.4985 121.593 65.3301 123.33 65.0191 125.067C63.231 125.067 62.6091 125.067 61.9483 125.067C62.2204 123.317 62.3759 121.528 62.3759 119.7C62.337 112.35 59.8493 106.128 54.213 100.994C55.2236 100.994 56.1954 100.994 58.3722 100.994ZM59.8493 100.994C65.2523 106.556 68.051 115.578 66.3407 125.067C66.2241 125.067 65.0968 125.067 65.0191 125.067C65.3301 123.33 65.4985 121.593 65.5244 119.856C65.6799 112.506 63.2699 106.011 58.3722 100.994C58.5276 100.994 59.6938 100.994 59.8493 100.994ZM65.4467 100.994C70.4999 106.983 72.7155 115.811 70.8109 125.067C68.9839 125.067 68.0122 125.067 66.3407 125.067C68.051 115.578 65.2523 106.556 59.8493 100.994C61.9094 100.994 63.231 100.994 65.4467 100.994ZM73.3375 100.994C76.6415 105.778 78.5462 111.767 77.8854 119.661C77.7299 121.528 77.4189 123.356 76.9913 125.067C76.0973 125.067 73.5707 125.067 70.8109 125.067C72.7155 115.811 70.4999 106.983 65.4467 100.994C68.8284 100.994 71.9381 100.994 73.3375 100.994ZM38.6646 125.067C43.7178 136.85 35.0496 149.839 34.4276 159.717C32.3286 159.717 30.2684 159.717 30.0741 159.717C30.2296 156.956 30.6572 153.922 31.5123 150.5C34.1555 140.233 37.4207 133.233 33.6113 125.067C33.8834 125.067 36.2546 125.067 38.6646 125.067ZM41.4633 125.067C46.3222 136.772 37.5762 149.878 36.8765 159.717C36.138 159.717 35.2828 159.717 34.4276 159.717C35.0496 149.839 43.7178 136.85 38.6646 125.067C39.6363 125.067 40.6081 125.067 41.4633 125.067ZM44.0288 125.067C48.4989 136.578 39.8307 149.917 39.0144 159.717C38.9367 159.717 38.0426 159.717 36.8765 159.717C37.5762 149.878 46.3222 136.772 41.4633 125.067C42.8238 125.067 43.8344 125.067 44.0288 125.067ZM48.4212 125.067C49.8594 133.467 46.3222 141.439 43.5623 150.733C42.8367 153.144 42.2666 155.426 41.852 157.578C41.7224 158.304 41.6188 159.017 41.541 159.717C40.7118 159.717 39.8696 159.717 39.0144 159.717C39.8307 149.917 48.4989 136.578 44.0288 125.067C45.4799 125.067 46.9441 125.067 48.4212 125.067ZM53.1634 125.067C52.2694 136.033 46.7886 147.389 44.262 157.539C44.0806 158.291 43.9251 159.017 43.7955 159.717C42.6294 159.717 42.7072 159.717 41.541 159.717C41.6188 159.017 41.7224 158.304 41.852 157.578C42.2666 155.426 42.8367 153.144 43.5623 150.733C46.3222 141.439 49.8594 133.467 48.4212 125.067C50.4425 125.067 51.1422 125.067 53.1634 125.067ZM55.3791 125.067C54.1352 138.717 47.566 148.789 45.4281 159.717C45.3115 159.717 43.9122 159.717 43.7955 159.717C43.9251 159.017 44.0806 158.291 44.262 157.539C46.7886 147.389 52.2694 136.033 53.1634 125.067C53.4355 125.067 55.107 125.067 55.3791 125.067ZM58.411 125.067C56.5841 138.989 49.3152 148.556 46.8663 159.717C46.3999 159.717 45.9205 159.717 45.4281 159.717C47.566 148.789 54.1352 138.717 55.3791 125.067C56.3897 125.067 57.4004 125.067 58.411 125.067ZM60.821 125.067C58.6054 139.222 50.6757 148.4 47.9936 159.717C47.6308 159.717 47.2551 159.717 46.8663 159.717C49.3152 148.556 56.5841 138.989 58.411 125.067C59.2144 125.067 60.0177 125.067 60.821 125.067ZM61.9483 125.067C60.0047 137.083 52.6193 147.428 49.4707 157.578C49.2375 158.304 49.0431 159.017 48.8876 159.717C48.8099 159.717 48.0713 159.717 47.9936 159.717C50.6757 148.4 58.6054 139.222 60.821 125.067C60.9376 125.067 61.8317 125.067 61.9483 125.067ZM65.0191 125.067C62.648 137.939 54.796 147.194 51.4143 157.578C51.181 158.278 50.9737 158.991 50.7923 159.717C49.4707 159.717 49.1597 159.717 48.8876 159.717C49.0431 159.017 49.2375 158.304 49.4707 157.578C52.6193 147.428 60.0047 137.083 61.9483 125.067C62.6091 125.067 63.231 125.067 65.0191 125.067ZM66.3407 125.067C63.6197 139.494 54.9515 148.206 51.9584 159.717C51.8807 159.717 50.8701 159.717 50.7923 159.717C50.9737 158.991 51.181 158.278 51.4143 157.578C54.796 147.194 62.648 137.939 65.0191 125.067C65.0968 125.067 66.2241 125.067 66.3407 125.067ZM70.8109 125.067C67.7012 139.65 58.5276 148.089 55.2625 159.717C53.8243 159.717 53.2412 159.717 51.9584 159.717C54.9515 148.206 63.6197 139.494 66.3407 125.067C68.0122 125.067 68.9839 125.067 70.8109 125.067ZM76.9913 125.067C73.6096 139.067 63.0755 148.789 59.6938 159.717C59.2662 159.717 57.3615 159.717 55.2625 159.717C58.5276 148.089 67.7012 139.65 70.8109 125.067C73.5707 125.067 76.0973 125.067 76.9913 125.067ZM34.4276 159.717C33.6891 171.344 38.3147 177.878 41.1523 181.494C39.2088 181.494 37.3041 181.494 37.1486 181.494C34.311 177.878 29.5688 171.344 30.0741 159.717C30.2684 159.717 32.3286 159.717 34.4276 159.717ZM36.8765 159.717C36.0602 171.306 40.6081 177.878 43.4068 181.494C42.746 181.494 41.9297 181.494 41.1523 181.494C38.3147 177.878 33.6891 171.344 34.4276 159.717C35.2828 159.717 36.138 159.717 36.8765 159.717ZM39.0144 159.717C38.1204 171.306 42.5905 177.839 45.3893 181.494C45.3115 181.494 44.4952 181.494 43.4068 181.494C40.6081 177.878 36.0602 171.306 36.8765 159.717C38.0426 159.717 38.9367 159.717 39.0144 159.717ZM41.541 159.717C40.0639 171.072 44.3397 177.683 47.2551 181.494C46.6331 181.494 46.0112 181.494 45.3893 181.494C42.5905 177.839 38.1204 171.306 39.0144 159.717C39.8696 159.717 40.7118 159.717 41.541 159.717ZM43.7955 159.717C41.7354 170.839 45.6225 177.45 48.6544 181.494C47.7993 181.494 48.1102 181.494 47.2551 181.494C44.3397 177.683 40.0639 171.072 41.541 159.717C42.7072 159.717 42.6294 159.717 43.7955 159.717ZM45.4281 159.717C43.3291 170.722 47.1384 177.372 50.2093 181.494C50.0926 181.494 48.8099 181.494 48.6544 181.494C45.6225 177.45 41.7354 170.839 43.7955 159.717C43.9122 159.717 45.3115 159.717 45.4281 159.717ZM46.8663 159.717C44.8062 169.517 47.7215 176.244 51.5697 181.494C51.1292 181.494 50.6757 181.494 50.2093 181.494C47.1384 177.372 43.3291 170.722 45.4281 159.717C45.9205 159.717 46.3999 159.717 46.8663 159.717ZM47.9936 159.717C45.9723 168.622 48.2657 175.467 52.6581 181.494C52.2953 181.494 51.9325 181.494 51.5697 181.494C47.7215 176.244 44.8062 169.517 46.8663 159.717C47.2551 159.717 47.6308 159.717 47.9936 159.717ZM48.8876 159.717C46.8275 168.622 49.082 175.428 53.4744 181.494C53.4355 181.494 52.697 181.494 52.6581 181.494C48.2657 175.467 45.9723 168.622 47.9936 159.717C48.0713 159.717 48.8099 159.717 48.8876 159.717ZM50.7923 159.717C48.771 167.922 50.5202 174.806 55.3014 181.494C54.0575 181.494 53.7465 181.494 53.4744 181.494C49.082 175.428 46.8275 168.622 48.8876 159.717C49.1597 159.717 49.4707 159.717 50.7923 159.717ZM51.9584 159.717C49.8983 167.883 51.6475 174.806 56.3897 181.494C56.312 181.494 55.3791 181.494 55.3014 181.494C50.5202 174.806 48.771 167.922 50.7923 159.717C50.8701 159.717 51.8807 159.717 51.9584 159.717ZM55.2625 159.717C53.1634 167.222 54.3684 174.183 59.4994 181.494C58.1389 181.494 57.5947 181.494 56.3897 181.494C51.6475 174.806 49.8983 167.883 51.9584 159.717C53.2412 159.717 53.8243 159.717 55.2625 159.717ZM59.6938 159.717C57.6336 166.367 58.1778 173.444 63.6975 181.494C63.2699 181.494 61.4818 181.494 59.4994 181.494C54.3684 174.183 53.1634 167.222 55.2625 159.717C57.3615 159.717 59.2662 159.717 59.6938 159.717ZM41.1523 181.494C43.1347 184.1 45.3115 186.783 47.0218 188.922C45.1172 188.922 43.2125 188.922 43.0959 188.922C41.5799 187.056 39.2088 184.139 37.1486 181.494C37.3041 181.494 39.2088 181.494 41.1523 181.494ZM43.4068 181.494C45.3893 184.1 47.4883 186.706 49.2763 188.922C48.5767 188.922 47.7993 188.922 47.0218 188.922C45.3115 186.783 43.1347 184.1 41.1523 181.494C41.9297 181.494 42.746 181.494 43.4068 181.494ZM45.3893 181.494C47.3328 184.061 49.2763 186.511 51.2199 188.922C51.1033 188.922 50.3259 188.922 49.2763 188.922C47.4883 186.706 45.3893 184.1 43.4068 181.494C44.4952 181.494 45.3115 181.494 45.3893 181.494ZM47.2551 181.494C48.0325 182.544 48.8099 183.478 49.4707 184.333C50.7923 185.967 52.1139 187.639 53.1634 188.922C52.5156 188.922 51.8677 188.922 51.2199 188.922C49.2763 186.511 47.3328 184.061 45.3893 181.494C46.0112 181.494 46.6331 181.494 47.2551 181.494ZM48.6544 181.494C49.5096 182.622 50.287 183.517 50.9089 184.256C52.2305 185.811 53.6299 187.522 54.796 188.922C53.8631 188.922 54.0964 188.922 53.1634 188.922C52.1139 187.639 50.7923 185.967 49.4707 184.333C48.8099 183.478 48.0325 182.544 47.2551 181.494C48.1102 181.494 47.7993 181.494 48.6544 181.494ZM50.2093 181.494C52.1917 184.139 54.2907 186.511 56.2731 188.922C56.1565 188.922 54.9126 188.922 54.796 188.922C53.6299 187.522 52.2305 185.811 50.9089 184.256C50.287 183.517 49.5096 182.622 48.6544 181.494C48.8099 181.494 50.0926 181.494 50.2093 181.494ZM51.5697 181.494C53.4744 184.139 55.5346 186.511 57.4393 188.922C57.0505 188.922 56.6618 188.922 56.2731 188.922C54.2907 186.511 52.1917 184.139 50.2093 181.494C50.6757 181.494 51.1292 181.494 51.5697 181.494ZM52.6581 181.494C54.5239 184.1 56.5063 186.511 58.3722 188.922C58.0612 188.922 57.7502 188.922 57.4393 188.922C55.5346 186.511 53.4744 184.139 51.5697 181.494C51.9325 181.494 52.2953 181.494 52.6581 181.494ZM53.4744 181.494C54.2907 182.622 55.0681 183.633 55.6901 184.489C56.9728 186.122 58.2167 187.678 59.1496 188.922C59.1107 188.922 58.411 188.922 58.3722 188.922C56.5063 186.511 54.5239 184.1 52.6581 181.494C52.697 181.494 53.4355 181.494 53.4744 181.494ZM55.3014 181.494C56.0399 182.583 56.8173 183.556 57.4781 184.489C58.6443 186.044 59.8104 187.561 60.8599 188.922C59.6549 188.922 59.4217 188.922 59.1496 188.922C58.2167 187.678 56.9728 186.122 55.6901 184.489C55.0681 183.633 54.2907 182.622 53.4744 181.494C53.7465 181.494 54.0575 181.494 55.3014 181.494ZM56.3897 181.494C58.2167 184.1 60.0825 186.511 61.9094 188.922C61.8317 188.922 60.9376 188.922 60.8599 188.922C59.8104 187.561 58.6443 186.044 57.4781 184.489C56.8173 183.556 56.0399 182.583 55.3014 181.494C55.3791 181.494 56.312 181.494 56.3897 181.494ZM59.4994 181.494C61.2875 184.061 63.0755 186.511 64.8636 188.922C63.5809 188.922 63.0367 188.922 61.9094 188.922C60.0825 186.511 58.2167 184.1 56.3897 181.494C57.5947 181.494 58.1389 181.494 59.4994 181.494ZM63.6975 181.494C65.7965 184.644 67.6623 187.25 68.8284 188.922C68.4786 188.922 66.7683 188.922 64.8636 188.922C63.0755 186.511 61.2875 184.061 59.4994 181.494C61.4818 181.494 63.2699 181.494 63.6975 181.494ZM47.0218 188.922C47.9159 190.05 48.4989 190.789 48.5378 190.789C46.6331 190.789 44.7673 190.789 44.6118 190.789C44.6118 190.789 44.0288 190.05 43.0959 188.922C43.2125 188.922 45.1172 188.922 47.0218 188.922ZM49.2763 188.922C50.1315 190.05 50.7534 190.75 50.7534 190.789C50.0926 190.789 49.3152 190.789 48.5378 190.789C48.4989 190.789 47.9159 190.05 47.0218 188.922C47.7993 188.922 48.5767 188.922 49.2763 188.922ZM51.2199 188.922C52.0751 190.011 52.6581 190.75 52.697 190.789C52.6192 190.789 51.8418 190.789 50.7534 190.789C50.7534 190.75 50.1315 190.05 49.2763 188.922C50.3259 188.922 51.1033 188.922 51.2199 188.922ZM53.1634 188.922C53.9409 189.856 54.4851 190.556 54.7183 190.789C54.0445 190.789 53.3708 190.789 52.697 190.789C52.6581 190.75 52.0751 190.011 51.2199 188.922C51.8677 188.922 52.5156 188.922 53.1634 188.922ZM54.796 188.922C55.418 189.622 55.9622 190.283 56.3897 190.789C55.418 190.789 55.6512 190.789 54.7183 190.789C54.4851 190.556 53.9409 189.856 53.1634 188.922C54.0964 188.922 53.8631 188.922 54.796 188.922ZM56.2731 188.922C56.8951 189.661 57.4004 190.283 57.828 190.789C57.7114 190.789 56.4675 190.789 56.3897 190.789C55.9622 190.283 55.418 189.622 54.796 188.922C54.9126 188.922 56.1565 188.922 56.2731 188.922ZM57.4393 188.922C58.1389 189.778 58.6443 190.439 58.9552 190.789C58.5665 190.789 58.1908 190.789 57.828 190.789C57.4004 190.283 56.8951 189.661 56.2731 188.922C56.6618 188.922 57.0505 188.922 57.4393 188.922ZM58.3722 188.922C59.1107 189.856 59.616 190.517 59.8493 190.789C59.5383 190.789 59.2403 190.789 58.9552 190.789C58.6443 190.439 58.1389 189.778 57.4393 188.922C57.7502 188.922 58.0612 188.922 58.3722 188.922ZM59.1496 188.922C59.8881 189.856 60.4323 190.556 60.6267 190.789C60.5878 190.789 59.8881 190.789 59.8493 190.789C59.616 190.517 59.1107 189.856 58.3722 188.922C58.411 188.922 59.1107 188.922 59.1496 188.922ZM60.8599 188.922C61.6373 189.933 62.1426 190.633 62.2981 190.789C61.0931 190.789 60.8599 190.789 60.6267 190.789C60.4323 190.556 59.8881 189.856 59.1496 188.922C59.4217 188.922 59.6549 188.922 60.8599 188.922ZM61.9094 188.922C62.6868 189.933 63.1922 190.633 63.3476 190.789C63.2699 190.789 62.337 190.789 62.2981 190.789C62.1426 190.633 61.6373 189.933 60.8599 188.922C60.9376 188.922 61.8317 188.922 61.9094 188.922ZM64.8636 188.922C65.641 190.011 66.1463 190.711 66.2241 190.789C64.9802 190.789 64.4749 190.789 63.3476 190.789C63.1922 190.633 62.6868 189.933 61.9094 188.922C63.0367 188.922 63.5809 188.922 64.8636 188.922ZM68.8284 188.922C69.6447 190.089 70.1501 190.789 70.1501 190.789C69.8002 190.789 68.1288 190.789 66.2241 190.789C66.1463 190.711 65.641 190.011 64.8636 188.922C66.7683 188.922 68.4786 188.922 68.8284 188.922Z" fill="url(#paint0_linear_227_24)"/>
<g style="mix-blend-mode:screen">
<path d="M53.5909 30.1776C52.658 31.5776 51.3364 33.5609 49.9759 35.8942C49.4317 35.6998 43.3678 33.6776 42.8237 33.522C44.0675 31.2276 45.2337 29.2831 46.1277 27.8442C46.6719 28.0387 53.0467 29.9831 53.5909 30.1776ZM56.9727 31.1887C56.0398 32.6276 54.7959 34.572 53.5132 36.8665C53.4743 36.8665 50.0148 35.8942 49.9759 35.8942C51.3364 33.5609 52.658 31.5776 53.5909 30.1776C53.6298 30.1776 56.9338 31.1887 56.9727 31.1887ZM57.7501 31.4609C56.8172 32.8998 55.6122 34.8442 54.2906 37.1387C54.0185 37.0609 53.7853 36.9442 53.5132 36.8665C54.7959 34.572 56.0398 32.6276 56.9727 31.1887C57.2318 31.2924 57.491 31.3831 57.7501 31.4609ZM58.0222 31.5387C57.0504 32.9387 55.8454 34.922 54.5238 37.2165C54.4461 37.1905 54.3683 37.1646 54.2906 37.1387C55.6122 34.8442 56.8172 32.8998 57.7501 31.4609C57.8278 31.4868 57.9185 31.5128 58.0222 31.5387ZM58.2166 31.5776C57.2837 33.0165 56.0398 34.9609 54.757 37.2942C54.6793 37.2683 54.6016 37.2424 54.5238 37.2165C55.8454 34.922 57.0504 32.9387 58.0222 31.5387C58.074 31.5387 58.1388 31.5516 58.2166 31.5776ZM58.7219 31.772C57.789 33.172 56.584 35.1553 55.2624 37.4887C55.068 37.4109 54.9125 37.3331 54.757 37.2942C56.0398 34.9609 57.2837 33.0165 58.2166 31.5776C58.398 31.6294 58.5664 31.6942 58.7219 31.772ZM59.4993 31.9665C58.5275 33.4442 57.3225 35.3887 56.0009 37.722C55.7677 37.6442 55.4956 37.5665 55.2624 37.4887C56.584 35.1553 57.789 33.172 58.7219 31.772C58.981 31.8239 59.2402 31.8887 59.4993 31.9665ZM60.0824 32.1609C59.1495 33.6387 57.9056 35.5831 56.584 37.9165C56.3896 37.8387 56.1953 37.7998 56.0009 37.722C57.3225 35.3887 58.5275 33.4442 59.4993 31.9665C59.7066 32.0442 59.901 32.1091 60.0824 32.1609ZM61.1708 32.5109C60.2378 33.9498 58.994 35.9331 57.6724 38.2665C57.2837 38.1498 56.9338 38.0331 56.584 37.9165C57.9056 35.5831 59.1495 33.6387 60.0824 32.1609C60.4452 32.2905 60.808 32.4072 61.1708 32.5109ZM64.6303 33.5609C63.6974 35.0387 62.4535 37.022 61.1319 39.3553C61.0153 39.3165 57.7501 38.3053 57.6724 38.2665C58.994 35.9331 60.2378 33.9498 61.1708 32.5109C61.2485 32.5498 64.5525 33.5609 64.6303 33.5609ZM49.9759 35.8942C47.7603 39.6665 45.3114 44.372 43.9509 49.2331C43.4067 49.0776 37.4206 47.2109 36.8764 47.0554C38.5478 41.9998 40.8024 37.2942 42.8237 33.522C43.3678 33.6776 49.4317 35.6998 49.9759 35.8942ZM53.5132 36.8665C51.4141 40.6387 49.043 45.3442 47.2938 50.2831C47.2549 50.2442 43.9898 49.2331 43.9509 49.2331C45.3114 44.372 47.7603 39.6665 49.9759 35.8942C50.0148 35.8942 53.4743 36.8665 53.5132 36.8665ZM54.2906 37.1387C52.1916 40.9109 49.8204 45.6165 48.1101 50.5165C47.851 50.4387 47.5789 50.3609 47.2938 50.2831C49.043 45.3442 51.4141 40.6387 53.5132 36.8665C53.7853 36.9442 54.0185 37.0609 54.2906 37.1387ZM54.5238 37.2165C52.4248 40.9887 50.0537 45.6942 48.3433 50.5942C48.2656 50.5683 48.1879 50.5424 48.1101 50.5165C49.8204 45.6165 52.1916 40.9109 54.2906 37.1387C54.3683 37.1646 54.4461 37.1905 54.5238 37.2165ZM54.757 37.2942C52.6191 41.0665 50.248 45.772 48.5377 50.672C48.4859 50.6461 48.4211 50.6202 48.3433 50.5942C50.0537 45.6942 52.4248 40.9887 54.5238 37.2165C54.6016 37.2424 54.6793 37.2683 54.757 37.2942ZM55.2624 37.4887C53.1245 41.2609 50.7533 45.9276 49.0819 50.8276C48.9005 50.7757 48.7191 50.7239 48.5377 50.672C50.248 45.772 52.6191 41.0665 54.757 37.2942C54.9125 37.3331 55.068 37.4109 55.2624 37.4887ZM56.0009 37.722C53.863 41.4942 51.4919 46.1998 49.8204 51.0609C49.5613 50.9831 49.3151 50.9053 49.0819 50.8276C50.7533 45.9276 53.1245 41.2609 55.2624 37.4887C55.4956 37.5665 55.7677 37.6442 56.0009 37.722ZM56.584 37.9165C54.4461 41.6887 52.0749 46.3942 50.4035 51.2165C50.1962 51.1646 50.0018 51.1128 49.8204 51.0609C51.4919 46.1998 53.863 41.4942 56.0009 37.722C56.1953 37.7998 56.3896 37.8387 56.584 37.9165ZM57.6724 38.2665C55.4956 42.0776 53.1245 46.7831 51.453 51.5665C51.1161 51.4628 50.7663 51.3461 50.4035 51.2165C52.0749 46.3942 54.4461 41.6887 56.584 37.9165C56.9338 38.0331 57.2837 38.1498 57.6724 38.2665ZM61.1319 39.3553C58.9551 43.1665 56.584 47.8331 54.9125 52.6165C54.8348 52.6165 51.5696 51.5665 51.453 51.5665C53.1245 46.7831 55.4956 42.0776 57.6724 38.2665C57.7501 38.3053 61.0153 39.3165 61.1319 39.3553ZM43.9509 49.2331C42.1628 55.4942 42.2406 61.6776 44.9616 66.8887C44.223 66.8887 38.0425 66.8887 37.304 66.8887C34.3887 60.3165 34.894 53.0054 36.8764 47.0554C37.4206 47.2109 43.4067 49.0776 43.9509 49.2331ZM47.2938 50.2831C45.1559 56.3887 44.9616 61.6776 47.6825 66.8887C47.6437 66.8887 45.0004 66.8887 44.9616 66.8887C42.2406 61.6776 42.1628 55.4942 43.9509 49.2331C43.9898 49.2331 47.2549 50.2442 47.2938 50.2831ZM48.1101 50.5165C45.9333 56.7387 45.8556 61.7942 48.7709 66.8887C48.4081 66.8887 48.0453 66.8887 47.6825 66.8887C44.9616 61.6776 45.1559 56.3887 47.2938 50.2831C47.5789 50.3609 47.851 50.4387 48.1101 50.5165ZM48.3433 50.5942C46.1666 56.8165 46.1277 61.8331 49.0819 66.8887C48.9782 66.8887 48.8746 66.8887 48.7709 66.8887C45.8556 61.7942 45.9333 56.7387 48.1101 50.5165C48.1879 50.5424 48.2656 50.5683 48.3433 50.5942ZM48.5377 50.672C46.3609 56.8942 46.3609 61.872 49.354 66.8887C49.2503 66.8887 49.1596 66.8887 49.0819 66.8887C46.1277 61.8331 46.1666 56.8165 48.3433 50.5942C48.4211 50.6202 48.4859 50.6461 48.5377 50.672ZM49.0819 50.8276C46.8662 57.1665 46.9051 61.9887 50.0537 66.8887C49.8204 66.8887 49.5872 66.8887 49.354 66.8887C46.3609 61.872 46.3609 56.8942 48.5377 50.672C48.7191 50.7239 48.9005 50.7757 49.0819 50.8276ZM49.8204 51.0609C47.5659 57.4776 47.7214 62.1054 51.0643 66.8887C50.7274 66.8887 50.3905 66.8887 50.0537 66.8887C46.9051 61.9887 46.8662 57.1665 49.0819 50.8276C49.3151 50.9053 49.5613 50.9831 49.8204 51.0609ZM50.4035 51.2165C48.149 57.7109 48.4211 62.1831 51.8806 66.8887C51.5955 66.8887 51.3234 66.8887 51.0643 66.8887C47.7214 62.1054 47.5659 57.4776 49.8204 51.0609C50.0018 51.1128 50.1962 51.1646 50.4035 51.2165ZM51.453 51.5665C49.1596 58.1776 49.5872 62.3776 53.3188 66.8887C52.8265 66.8887 52.347 66.8887 51.8806 66.8887C48.4211 62.1831 48.149 57.7109 50.4035 51.2165C50.7663 51.3461 51.1161 51.4628 51.453 51.5665ZM54.9125 52.6165C52.6191 59.2665 52.4248 62.4165 57.0116 66.8887C56.8949 66.8887 53.4354 66.8887 53.3188 66.8887C49.5872 62.3776 49.1596 58.1776 51.453 51.5665C51.5696 51.5665 54.8348 52.6165 54.9125 52.6165ZM44.9616 66.8887C51.9972 80.0331 66.6516 82.7554 67.0791 103.366C65.6409 103.366 60.0046 103.366 58.5664 103.366C56.6617 85.5942 42.9403 79.5665 37.304 66.8887C38.0425 66.8887 44.223 66.8887 44.9616 66.8887ZM47.6825 66.8887C54.7182 80.0331 70.8108 82.7165 71.2383 103.366C71.1217 103.366 67.1957 103.366 67.0791 103.366C66.6516 82.7554 51.9972 80.0331 44.9616 66.8887C45.0004 66.8887 47.6437 66.8887 47.6825 66.8887ZM48.7709 66.8887C56.584 80.1887 73.4151 81.5109 73.3374 103.366C72.6377 103.366 71.938 103.366 71.2383 103.366C70.8108 82.7165 54.7182 80.0331 47.6825 66.8887C48.0453 66.8887 48.4081 66.8887 48.7709 66.8887ZM49.0819 66.8887C57.0504 80.2276 74.1537 81.2387 73.9593 103.366C73.752 103.366 73.5447 103.366 73.3374 103.366C73.4151 81.5109 56.584 80.1887 48.7709 66.8887C48.8746 66.8887 48.9782 66.8887 49.0819 66.8887ZM49.354 66.8887C57.5169 80.2665 74.8145 81.0054 74.5035 103.366C74.3221 103.366 74.1407 103.366 73.9593 103.366C74.1537 81.2387 57.0504 80.2276 49.0819 66.8887C49.1596 66.8887 49.2503 66.8887 49.354 66.8887ZM50.0537 66.8887C58.9162 80.422 76.6414 79.8776 75.864 103.366C75.4234 103.366 74.9699 103.366 74.5035 103.366C74.8145 81.0054 57.5169 80.2665 49.354 66.8887C49.5872 66.8887 49.8204 66.8887 50.0537 66.8887ZM51.0643 66.8887C60.3545 80.1498 79.0903 78.7109 77.8464 103.366C77.1986 103.366 76.5377 103.366 75.864 103.366C76.6414 79.8776 58.9162 80.422 50.0537 66.8887C50.3905 66.8887 50.7274 66.8887 51.0643 66.8887ZM51.8806 66.8887C60.9375 79.1387 80.5674 78.9831 79.479 102.55C79.4531 102.835 79.4401 103.107 79.4401 103.366C78.8959 103.366 78.3647 103.366 77.8464 103.366C79.0903 78.7109 60.3545 80.1498 51.0643 66.8887C51.3234 66.8887 51.5955 66.8887 51.8806 66.8887ZM53.3188 66.8887C63.192 78.7887 84.4933 77.3109 82.2388 103.366C81.3059 103.366 80.373 103.366 79.4401 103.366C79.4401 103.107 79.4531 102.835 79.479 102.55C80.5674 78.9831 60.9375 79.1387 51.8806 66.8887C52.347 66.8887 52.8265 66.8887 53.3188 66.8887ZM57.0116 66.8887C67.429 76.9998 88.2249 78.1276 86.398 102.472C86.3591 102.783 86.3203 103.094 86.2814 103.366C86.0482 103.366 82.472 103.366 82.2388 103.366C84.4933 77.3109 63.192 78.7887 53.3188 66.8887C53.4354 66.8887 56.8949 66.8887 57.0116 66.8887ZM67.0791 103.366C67.8177 125.066 49.2762 141.4 44.3785 155.828C43.5622 155.828 39.4808 155.828 38.7033 155.828C43.7954 138.794 54.8737 134.594 58.372 110.483C58.7219 107.878 58.7608 105.544 58.5664 103.366C60.0046 103.366 65.6409 103.366 67.0791 103.366ZM71.2383 103.366C71.3161 105.57 71.1347 107.865 70.6941 110.25C66.7293 131.6 53.4354 140.933 48.3822 155.828C48.3045 155.828 44.4174 155.828 44.3785 155.828C49.2762 141.4 67.8177 125.066 67.0791 103.366C67.1957 103.366 71.1217 103.366 71.2383 103.366ZM73.3374 103.366C73.5317 125.183 54.6016 141.361 49.5095 155.828C49.1467 155.828 48.7709 155.828 48.3822 155.828C53.4354 140.933 66.7293 131.6 70.6941 110.25C71.1347 107.865 71.3161 105.57 71.2383 103.366C71.938 103.366 72.6377 103.366 73.3374 103.366ZM73.9593 103.366C74.0759 125.183 54.9903 141.361 49.8593 155.828C49.7556 155.828 49.639 155.828 49.5095 155.828C54.6016 141.361 73.5317 125.183 73.3374 103.366C73.5447 103.366 73.752 103.366 73.9593 103.366ZM74.5035 103.366C74.5035 125.183 55.3012 141.4 50.1703 155.828C50.0666 155.828 49.963 155.828 49.8593 155.828C54.9903 141.361 74.0759 125.183 73.9593 103.366C74.1407 103.366 74.3221 103.366 74.5035 103.366ZM75.864 103.366C75.4364 125.144 56.1564 141.555 50.9088 155.828C50.6497 155.828 50.4035 155.828 50.1703 155.828C55.3012 141.4 74.5035 125.183 74.5035 103.366C74.9699 103.366 75.4234 103.366 75.864 103.366ZM77.8464 103.366C76.9912 124.989 57.7501 140.544 51.9972 155.828C51.6344 155.828 51.2716 155.828 50.9088 155.828C56.1564 141.555 75.4364 125.144 75.864 103.366C76.5377 103.366 77.1986 103.366 77.8464 103.366ZM79.4401 103.366C78.2351 124.872 58.994 139.805 52.8524 155.828C52.5673 155.828 52.2823 155.828 51.9972 155.828C57.7501 140.544 76.9912 124.989 77.8464 103.366C78.3647 103.366 78.8959 103.366 79.4401 103.366ZM82.2388 103.366C80.4119 124.6 61.3651 138.289 54.3683 155.828C53.876 155.828 53.3706 155.828 52.8524 155.828C58.994 139.805 78.2351 124.872 79.4401 103.366C80.373 103.366 81.3059 103.366 82.2388 103.366ZM86.2814 103.366C84.3767 124.561 65.2133 138.094 58.0999 155.828C57.9833 155.828 54.5238 155.828 54.3683 155.828C61.3651 138.289 80.4119 124.6 82.2388 103.366C82.472 103.366 86.0482 103.366 86.2814 103.366ZM44.3785 155.828C41.4243 164.344 42.2406 174.105 42.9014 178.578C42.2406 178.616 38.7422 178.539 38.198 178.578C37.4206 174.105 36.1378 164.266 38.7033 155.828C39.4808 155.828 43.5622 155.828 44.3785 155.828ZM48.3822 155.828C45.4669 164.344 46.2443 174.105 46.9051 178.578C46.8662 178.578 42.9403 178.578 42.9014 178.578C42.2406 174.105 41.4243 164.344 44.3785 155.828C44.4174 155.828 48.3045 155.828 48.3822 155.828ZM49.5095 155.828C46.5164 164.344 47.2549 174.066 47.8769 178.578C47.5659 178.616 47.2161 178.578 46.9051 178.578C46.2443 174.105 45.4669 164.344 48.3822 155.828C48.7709 155.828 49.1467 155.828 49.5095 155.828ZM49.8593 155.828C46.8274 164.383 47.5659 174.066 48.1878 178.578C48.1101 178.578 47.9935 178.578 47.8769 178.578C47.2549 174.066 46.5164 164.344 49.5095 155.828C49.639 155.828 49.7556 155.828 49.8593 155.828ZM50.1703 155.828C47.0995 164.383 47.838 174.066 48.4599 178.578C48.3563 178.578 48.2656 178.578 48.1878 178.578C47.5659 174.066 46.8274 164.383 49.8593 155.828C49.963 155.828 50.0666 155.828 50.1703 155.828ZM50.9088 155.828C47.7603 164.383 48.4988 174.066 49.1208 178.578C48.8875 178.578 48.6932 178.578 48.4599 178.578C47.838 174.066 47.0995 164.383 50.1703 155.828C50.4035 155.828 50.6497 155.828 50.9088 155.828ZM51.9972 155.828C48.732 164.422 49.5095 174.066 50.0925 178.578C49.7816 178.578 49.4706 178.578 49.1208 178.578C48.4988 174.066 47.7603 164.383 50.9088 155.828C51.2716 155.828 51.6344 155.828 51.9972 155.828ZM52.8524 155.828C49.5483 164.422 50.2869 174.066 50.8699 178.578C50.6367 178.578 50.3646 178.578 50.0925 178.578C49.5095 174.066 48.732 164.422 51.9972 155.828C52.2823 155.828 52.5673 155.828 52.8524 155.828ZM54.3683 155.828C50.9477 164.461 51.6474 174.066 52.2304 178.578C51.8028 178.578 51.3364 178.578 50.8699 178.578C50.2869 174.066 49.5483 164.422 52.8524 155.828C53.3706 155.828 53.876 155.828 54.3683 155.828ZM58.0999 155.828C54.6404 164.461 55.3012 174.066 55.8843 178.578C55.7677 178.578 52.347 178.578 52.2304 178.578C51.6474 174.066 50.9477 164.461 54.3683 155.828C54.5238 155.828 57.9833 155.828 58.0999 155.828ZM42.9014 178.578C43.1346 180.211 43.5233 181.261 43.5233 181.261C42.8625 181.261 39.3641 181.261 38.6645 181.261C38.6645 181.261 38.4701 180.133 38.198 178.578C38.7422 178.539 42.2406 178.616 42.9014 178.578ZM46.9051 178.578C47.1383 180.211 47.527 181.261 47.527 181.261C47.4882 181.261 43.5622 181.261 43.5233 181.261C43.5233 181.261 43.1346 180.211 42.9014 178.578C42.9403 178.578 46.8662 178.578 46.9051 178.578ZM47.8769 178.578C48.1101 180.25 48.4988 181.261 48.4988 181.261C48.1879 181.261 47.8639 181.261 47.527 181.261C47.527 181.261 47.1383 180.211 46.9051 178.578C47.2161 178.578 47.5659 178.616 47.8769 178.578ZM48.1878 178.578C48.4211 180.25 48.8098 181.261 48.8098 181.261C48.7061 181.261 48.6025 181.261 48.4988 181.261C48.4988 181.261 48.1101 180.25 47.8769 178.578C47.9935 178.578 48.1101 178.578 48.1878 178.578ZM48.4599 178.578C48.6932 180.25 49.043 181.261 49.043 181.261C48.9653 181.261 48.8875 181.261 48.8098 181.261C48.8098 181.261 48.4211 180.25 48.1878 178.578C48.2656 178.578 48.3563 178.578 48.4599 178.578ZM49.1208 178.578C49.354 180.289 49.7038 181.261 49.7038 181.261C49.4706 181.261 49.2503 181.261 49.043 181.261C49.043 181.261 48.6932 180.25 48.4599 178.578C48.6932 178.578 48.8875 178.578 49.1208 178.578ZM50.0925 178.578C50.3258 180.328 50.5978 181.261 50.5978 181.261C50.3128 181.261 50.0148 181.261 49.7038 181.261C49.7038 181.261 49.354 180.289 49.1208 178.578C49.4706 178.578 49.7816 178.578 50.0925 178.578ZM50.8699 178.578C51.1032 180.328 51.3364 181.261 51.3364 181.261C51.1032 181.261 50.857 181.261 50.5978 181.261C50.5978 181.261 50.3258 180.328 50.0925 178.578C50.3646 178.578 50.6367 178.578 50.8699 178.578ZM52.2304 178.578C52.4637 180.366 52.658 181.261 52.658 181.261C52.2175 181.261 51.7769 181.261 51.3364 181.261C51.3364 181.261 51.1032 180.328 50.8699 178.578C51.3364 178.578 51.8028 178.578 52.2304 178.578ZM55.8843 178.578C56.1175 180.366 56.3508 181.261 56.3508 181.261C56.2341 181.261 52.7746 181.261 52.658 181.261C52.658 181.261 52.4637 180.366 52.2304 178.578C52.347 178.578 55.7677 178.578 55.8843 178.578Z" fill="url(#paint1_linear_227_24)"/>
</g>
</g>
<defs>
<linearGradient id="paint0_linear_227_24" x1="37.0709" y1="4.2" x2="52.9834" y2="100.992" gradientUnits="userSpaceOnUse">
<stop stop-color="#010101" stop-opacity="0"/>
<stop offset="1" stop-color="white" stop-opacity="0.63"/>
</linearGradient>
<linearGradient id="paint1_linear_227_24" x1="46.4387" y1="29.672" x2="73.4369" y2="101.53" gradientUnits="userSpaceOnUse">
<stop stop-color="#010101" stop-opacity="0"/>
<stop offset="1" stop-color="white" stop-opacity="0.68"/>
</linearGradient>
<clipPath id="clip0_227_24">
<rect width="87" height="191" fill="white"/>
</clipPath>
</defs>
</svg>
