<svg width="86" height="212" viewBox="0 0 86 212" fill="none" xmlns="http://www.w3.org/2000/svg">
<path d="M13.9436 6.95654C16.3637 47.6934 21.9784 129.689 25.0762 131.778C28.1739 133.867 39.2742 135.434 44.4372 135.957" stroke="#453E3E" stroke-width="7"/>
<path d="M16.8022 182.957C19.1846 143.957 24.7115 65.4565 27.7609 63.4565C30.8102 61.4565 41.7371 59.9565 46.8193 59.4565" stroke="#737272" stroke-width="7"/>
<g filter="url(#filter0_d_200_42)">
<path d="M0.0214462 42.5566C0.0500339 42.9316 0.135794 44.1466 0.221558 45.2566C0.636079 50.5366 1.69382 56.7616 3.93796 67.0066C7.42566 82.9066 8.15465 87.9316 8.15465 95.9566C8.14035 103.142 7.71154 105.992 4.79559 118.082C4.02372 121.292 3.25185 124.622 3.09462 125.462C2.32275 129.407 0.864783 139.547 0.407379 144.182C0.0500327 147.827 0.0500327 156.347 0.407379 159.407C1.00772 164.522 1.87965 169.007 4.10949 178.457C4.89565 181.802 5.88193 186.137 6.29645 188.102C6.71097 190.067 7.08261 191.717 7.12549 191.747C7.16837 191.792 9.24098 191.837 11.7424 191.852C18.8322 191.897 19.018 191.837 24.0351 187.802C26.0649 186.167 27.7087 185.147 29.0094 184.697C29.3953 184.562 30.6103 184.247 31.6966 184.007C40.1014 182.117 48.7349 179.432 56.7966 176.192C60.7846 174.587 62.8715 173.207 65.23 170.582C68.9321 166.472 71.8624 159.632 72.963 152.507C73.4633 149.267 73.5919 147.032 73.5062 143.087C73.2918 133.697 71.6623 127.952 67.5885 122.237C66.4879 120.692 63.6863 117.677 62.0568 116.297C58.1403 112.967 52.9802 109.787 46.9339 106.982C43.389 105.347 42.3456 104.987 36.7424 103.607C32.54 102.557 30.2244 101.807 28.6663 100.982C27.1083 100.157 26.8081 99.9016 26.4079 98.9866C26.0506 98.1616 26.0506 98.1166 26.1363 95.4466C26.2793 91.6216 26.2507 91.7116 27.3799 90.5266C28.1661 89.7016 28.6092 89.3866 30.0957 88.6366C31.9825 87.6766 33.1546 87.2716 37.3141 86.1316C46.4336 83.6116 54.0951 80.0416 59.7555 75.6916C61.6566 74.2216 65.3444 70.3366 66.5736 68.5066C73.6777 57.9316 75.3787 43.1116 70.8475 31.1866C67.3455 21.9766 60.7132 15.5415 51.2506 12.1815C48.3061 11.1315 45.9047 10.4866 39.6583 9.03156C30.7961 6.97655 27.7515 6.07656 25.4645 4.89156C23.6635 3.94656 22.8916 3.28655 21.3908 1.30655C20.476 0.121549 19.2324 -0.163447 15.8733 0.0915527C14.5011 0.196553 13.3433 0.181553 12.1855 0.0765533C9.36963 -0.193447 8.09747 0.226548 7.3399 1.71155C7.08261 2.19155 6.79673 3.24155 6.51086 4.62155C6.06775 6.88655 5.59605 8.65655 4.09519 13.6066C2.86592 17.6716 2.35135 19.9816 1.43654 25.6066C0.278736 32.8066 0.0786217 34.6216 0.0214462 38.5066C-0.00714149 40.3666 -0.00714149 42.1816 0.0214462 42.5566ZM6.23927 135.332C6.52515 131.942 7.35419 127.892 8.56917 123.917C11.1849 115.427 14.5583 110.657 19.3753 108.662C21.1621 107.927 22.7201 107.657 25.3073 107.642C28.3519 107.642 31.4251 108.182 35.5989 109.457C39.158 110.552 45.7189 113.192 49.0637 114.857C58.369 119.507 64.3867 126.752 66.7023 136.067C68.246 142.292 68.0459 149.762 66.1591 156.857C64.3724 163.592 59.7555 168.707 52.823 171.632C49.6926 172.952 42.7172 174.887 37.4571 175.892C30.0385 177.317 22.1769 177.647 18.7321 176.687C12.7001 174.992 9.36962 169.937 7.66866 159.857C7.3399 157.922 6.61091 152.012 6.36791 149.282C5.9391 144.557 5.89622 139.412 6.23927 135.332ZM6.31074 42.1066C6.56803 38.8816 6.98255 35.2816 7.43996 32.1766C8.7407 23.3866 11.0134 18.3166 14.8585 15.6316C17.3742 13.8916 19.0323 13.4565 23.735 13.3515C30.7675 13.1865 37.843 14.2816 47.2484 16.9966C50.8933 18.0316 52.2083 18.5265 54.4668 19.6665C57.5256 21.2115 59.6125 22.7866 61.6137 25.0516C63.9722 27.7066 65.4587 30.6766 66.4021 34.6066C69.2037 46.3516 67.6171 56.9416 61.8138 65.1016C58.1974 70.1866 53.0374 74.0566 45.6617 77.2066C35.9419 81.3616 29.6669 83.0566 24.6641 82.8616C23.6063 82.8166 22.2198 82.6816 21.5909 82.5316C15.3302 81.1666 10.9562 75.4516 8.09747 64.9366C6.76814 60.0316 6.31074 57.2116 6.02486 51.9316C5.9391 50.2816 6.09633 44.7616 6.31074 42.1066Z" fill="black"/>
</g>
<defs>
<filter id="filter0_d_200_42" x="0" y="0" width="85.5308" height="211.858" filterUnits="userSpaceOnUse" color-interpolation-filters="sRGB">
<feFlood flood-opacity="0" result="BackgroundImageFix"/>
<feColorMatrix in="SourceAlpha" type="matrix" values="0 0 0 0 0 0 0 0 0 0 0 0 0 0 0 0 0 0 127 0" result="hardAlpha"/>
<feOffset dx="12" dy="20"/>
<feComposite in2="hardAlpha" operator="out"/>
<feColorMatrix type="matrix" values="0 0 0 0 0 0 0 0 0 0 0 0 0 0 0 0 0 0 0.3 0"/>
<feBlend mode="normal" in2="BackgroundImageFix" result="effect1_dropShadow_200_42"/>
<feBlend mode="normal" in="SourceGraphic" in2="effect1_dropShadow_200_42" result="shape"/>
</filter>
</defs>
</svg>
