<svg width="271" height="159" viewBox="0 0 271 159" fill="none" xmlns="http://www.w3.org/2000/svg">
<path d="M250.306 53.5C250.306 56.3073 248.247 58.5 245.806 58.5C243.364 58.5 241.306 56.3073 241.306 53.5C241.306 50.6927 243.364 48.5 245.806 48.5C248.247 48.5 250.306 50.6927 250.306 53.5Z" fill="url(#paint0_radial_129_5)" stroke="#DBD0D0"/>
<rect width="1.14197" height="10.243" transform="matrix(0.504877 -0.863191 0.816259 0.577686 241.298 51.0596)" fill="#4F4A4A"/>
<path d="M12.8812 53.4999C12.8812 56.3762 10.7368 58.6387 8.17361 58.6387C5.61042 58.6387 3.46606 56.3762 3.46606 53.4999C3.46606 50.6236 5.61042 48.3611 8.17361 48.3611C10.7368 48.3611 12.8812 50.6236 12.8812 53.4999Z" fill="url(#paint1_radial_129_5)" stroke="#D0CECE"/>
<rect width="1.17555" height="10.6128" transform="matrix(0.510811 -0.859693 0.820514 0.571626 3.47827 50.9978)" fill="#4F4A4A"/>
<line x1="76" y1="70.5" x2="12" y2="70.5" stroke="#9BADB0"/>
<line x1="162" y1="70.5" x2="96" y2="70.5" stroke="#9BADB0"/>
<path d="M238 71L171.513 70.5" stroke="#9BADB0"/>
<path d="M12 81V61H76.086V81H12Z" stroke="#374653" stroke-width="3"/>
<path d="M161 61V81H96.2731V61H161Z" stroke="#374653" stroke-width="3"/>
<path d="M238.899 61V81H172V61H238.899Z" stroke="#374653" stroke-width="3"/>
<path d="M244.088 47H8.58287C-0.194314 47 -0.194268 60 8.58287 60H244.088C255.306 60 254.868 47.0001 244.088 47Z" stroke="black" stroke-width="3"/>
<path d="M51.2386 29H48.0682C47.8807 28.0881 47.5526 27.2869 47.0838 26.5966C46.6236 25.9062 46.0611 25.3267 45.3963 24.858C44.7401 24.3807 44.0114 24.0227 43.2102 23.7841C42.4091 23.5455 41.5739 23.4261 40.7045 23.4261C39.1193 23.4261 37.6832 23.8267 36.3963 24.6278C35.1179 25.429 34.0994 26.6094 33.3409 28.169C32.5909 29.7287 32.2159 31.642 32.2159 33.9091C32.2159 36.1761 32.5909 38.0895 33.3409 39.6491C34.0994 41.2088 35.1179 42.3892 36.3963 43.1903C37.6832 43.9915 39.1193 44.392 40.7045 44.392C41.5739 44.392 42.4091 44.2727 43.2102 44.0341C44.0114 43.7955 44.7401 43.4418 45.3963 42.973C46.0611 42.4957 46.6236 41.9119 47.0838 41.2216C47.5526 40.5227 47.8807 39.7216 48.0682 38.8182H51.2386C51 40.1562 50.5653 41.3537 49.9347 42.4105C49.304 43.4673 48.5199 44.3665 47.5824 45.108C46.6449 45.8409 45.5923 46.3991 44.4247 46.7827C43.2656 47.1662 42.0256 47.358 40.7045 47.358C38.4716 47.358 36.4858 46.8125 34.7472 45.7216C33.0085 44.6307 31.6406 43.0795 30.6435 41.0682C29.6463 39.0568 29.1477 36.6705 29.1477 33.9091C29.1477 31.1477 29.6463 28.7614 30.6435 26.75C31.6406 24.7386 33.0085 23.1875 34.7472 22.0966C36.4858 21.0057 38.4716 20.4602 40.7045 20.4602C42.0256 20.4602 43.2656 20.652 44.4247 21.0355C45.5923 21.419 46.6449 21.9815 47.5824 22.723C48.5199 23.456 49.304 24.3509 49.9347 25.4077C50.5653 26.456 51 27.6534 51.2386 29ZM61.7312 47.4602C60.4869 47.4602 59.3576 47.2259 58.3434 46.7571C57.3292 46.2798 56.5238 45.5938 55.9272 44.6989C55.3306 43.7955 55.0323 42.7045 55.0323 41.4261C55.0323 40.3011 55.2539 39.3892 55.6971 38.6903C56.1403 37.983 56.7326 37.429 57.4741 37.0284C58.2156 36.6278 59.0337 36.3295 59.9286 36.1335C60.832 35.929 61.7397 35.767 62.6516 35.6477C63.8448 35.4943 64.8121 35.3793 65.5536 35.3026C66.3036 35.2173 66.8491 35.0767 67.19 34.8807C67.5394 34.6847 67.7141 34.3437 67.7141 33.858V33.7557C67.7141 32.4943 67.369 31.5142 66.6786 30.8153C65.9968 30.1165 64.9613 29.767 63.5721 29.767C62.1317 29.767 61.0025 30.0824 60.1843 30.7131C59.3661 31.3437 58.7908 32.017 58.4585 32.733L55.5948 31.7102C56.1062 30.517 56.788 29.5881 57.6403 28.9233C58.5011 28.25 59.4386 27.7812 60.4528 27.517C61.4755 27.2443 62.4812 27.108 63.4698 27.108C64.1005 27.108 64.8249 27.1847 65.6431 27.3381C66.4698 27.483 67.2667 27.7855 68.0337 28.2457C68.8093 28.706 69.4528 29.4006 69.9641 30.3295C70.4755 31.2585 70.7312 32.5028 70.7312 34.0625V47H67.7141V44.3409H67.5607C67.3562 44.767 67.0153 45.223 66.538 45.7088C66.0607 46.1946 65.4258 46.608 64.6332 46.9489C63.8406 47.2898 62.8732 47.4602 61.7312 47.4602ZM62.1914 44.75C63.3846 44.75 64.3903 44.5156 65.2085 44.0469C66.0352 43.5781 66.6573 42.973 67.0749 42.2315C67.5011 41.4901 67.7141 40.7102 67.7141 39.892V37.1307C67.5863 37.2841 67.305 37.4247 66.8704 37.5526C66.4442 37.6719 65.9499 37.7784 65.3874 37.8722C64.8335 37.9574 64.2923 38.0341 63.7639 38.1023C63.244 38.1619 62.8221 38.2131 62.4982 38.2557C61.7141 38.358 60.9812 38.5241 60.2994 38.7543C59.6261 38.9759 59.0806 39.3125 58.663 39.7642C58.2539 40.2074 58.0494 40.8125 58.0494 41.5795C58.0494 42.6278 58.4371 43.4205 59.2127 43.9574C59.9968 44.4858 60.9897 44.75 62.1914 44.75ZM76.2379 47V27.3636H79.1527V30.3295H79.3572C79.7152 29.358 80.3629 28.5696 81.3004 27.9645C82.2379 27.3594 83.2947 27.0568 84.4709 27.0568C84.6925 27.0568 84.9695 27.0611 85.3018 27.0696C85.6342 27.0781 85.8857 27.0909 86.0561 27.108V30.1761C85.9538 30.1506 85.7195 30.1122 85.353 30.0611C84.995 30.0014 84.6158 29.9716 84.2152 29.9716C83.2607 29.9716 82.4084 30.1719 81.6584 30.5724C80.9169 30.9645 80.3288 31.5099 79.8942 32.2088C79.468 32.8991 79.255 33.6875 79.255 34.5739V47H76.2379ZM97.0121 47.4091C95.2393 47.4091 93.6839 46.9872 92.3459 46.1435C91.0163 45.2997 89.9766 44.1193 89.2266 42.6023C88.4851 41.0852 88.1143 39.3125 88.1143 37.2841C88.1143 35.2386 88.4851 33.4531 89.2266 31.9276C89.9766 30.402 91.0163 29.2173 92.3459 28.3736C93.6839 27.5298 95.2393 27.108 97.0121 27.108C98.7848 27.108 100.336 27.5298 101.665 28.3736C103.004 29.2173 104.043 30.402 104.785 31.9276C105.535 33.4531 105.91 35.2386 105.91 37.2841C105.91 39.3125 105.535 41.0852 104.785 42.6023C104.043 44.1193 103.004 45.2997 101.665 46.1435C100.336 46.9872 98.7848 47.4091 97.0121 47.4091ZM97.0121 44.6989C98.3587 44.6989 99.4666 44.3537 100.336 43.6634C101.205 42.973 101.849 42.0653 102.266 40.9403C102.684 39.8153 102.893 38.5966 102.893 37.2841C102.893 35.9716 102.684 34.7486 102.266 33.6151C101.849 32.4815 101.205 31.5653 100.336 30.8665C99.4666 30.1676 98.3587 29.8182 97.0121 29.8182C95.6655 29.8182 94.5575 30.1676 93.6882 30.8665C92.8189 31.5653 92.1754 32.4815 91.7578 33.6151C91.3402 34.7486 91.1314 35.9716 91.1314 37.2841C91.1314 38.5966 91.3402 39.8153 91.7578 40.9403C92.1754 42.0653 92.8189 42.973 93.6882 43.6634C94.5575 44.3537 95.6655 44.6989 97.0121 44.6989ZM110.515 47V27.3636H113.43V30.4318H113.686C114.095 29.3835 114.755 28.5696 115.667 27.9901C116.579 27.402 117.674 27.108 118.953 27.108C120.248 27.108 121.326 27.402 122.187 27.9901C123.056 28.5696 123.734 29.3835 124.22 30.4318H124.424C124.927 29.4176 125.681 28.6122 126.687 28.0156C127.693 27.4105 128.899 27.108 130.305 27.108C132.061 27.108 133.497 27.6577 134.613 28.7571C135.73 29.848 136.288 31.5483 136.288 33.858V47H133.271V33.858C133.271 32.4091 132.875 31.3736 132.082 30.7514C131.289 30.1293 130.356 29.8182 129.282 29.8182C127.902 29.8182 126.832 30.2358 126.074 31.071C125.315 31.8977 124.936 32.946 124.936 34.2159V47H121.868V33.5511C121.868 32.4347 121.505 31.5355 120.781 30.8537C120.056 30.1634 119.123 29.8182 117.981 29.8182C117.197 29.8182 116.464 30.027 115.782 30.4446C115.109 30.8622 114.564 31.4418 114.146 32.1832C113.737 32.9162 113.532 33.7642 113.532 34.7273V47H110.515Z" fill="black"/>
<path d="M27.9034 74V73.233L30.7841 70.0795C31.1222 69.7102 31.4006 69.3892 31.6193 69.1165C31.8381 68.8409 32 68.5824 32.1051 68.3409C32.2131 68.0966 32.267 67.8409 32.267 67.5739C32.267 67.267 32.1932 67.0014 32.0455 66.777C31.9006 66.5526 31.7017 66.3793 31.4489 66.2571C31.196 66.1349 30.9119 66.0739 30.5966 66.0739C30.2614 66.0739 29.9688 66.1435 29.7188 66.2827C29.4716 66.419 29.2798 66.6108 29.1435 66.858C29.0099 67.1051 28.9432 67.3949 28.9432 67.7273H27.9375C27.9375 67.2159 28.0554 66.767 28.2912 66.3807C28.527 65.9943 28.848 65.6932 29.2543 65.4773C29.6634 65.2614 30.1222 65.1534 30.6307 65.1534C31.142 65.1534 31.5952 65.2614 31.9901 65.4773C32.3849 65.6932 32.6946 65.9844 32.919 66.3509C33.1435 66.7173 33.2557 67.125 33.2557 67.5739C33.2557 67.8949 33.1974 68.2088 33.081 68.5156C32.9673 68.8196 32.7685 69.1591 32.4844 69.5341C32.2031 69.9062 31.8125 70.3608 31.3125 70.8977L29.3523 72.9943V73.0625H33.4091V74H27.9034ZM38.0156 74.1193C37.3736 74.1193 36.8267 73.9446 36.375 73.5952C35.9233 73.2429 35.5781 72.733 35.3395 72.0653C35.1009 71.3949 34.9815 70.5852 34.9815 69.6364C34.9815 68.6932 35.1009 67.8878 35.3395 67.2202C35.581 66.5497 35.9276 66.0384 36.3793 65.6861C36.8338 65.331 37.3793 65.1534 38.0156 65.1534C38.652 65.1534 39.196 65.331 39.6477 65.6861C40.1023 66.0384 40.4489 66.5497 40.6875 67.2202C40.929 67.8878 41.0497 68.6932 41.0497 69.6364C41.0497 70.5852 40.9304 71.3949 40.6918 72.0653C40.4531 72.733 40.108 73.2429 39.6562 73.5952C39.2045 73.9446 38.6577 74.1193 38.0156 74.1193ZM38.0156 73.1818C38.652 73.1818 39.1463 72.875 39.4986 72.2614C39.8509 71.6477 40.027 70.7727 40.027 69.6364C40.027 68.8807 39.946 68.2372 39.7841 67.706C39.625 67.1747 39.3949 66.7699 39.0938 66.4915C38.7955 66.2131 38.4361 66.0739 38.0156 66.0739C37.3849 66.0739 36.892 66.3849 36.5369 67.0071C36.1818 67.6264 36.0043 68.5028 36.0043 69.6364C36.0043 70.392 36.0838 71.0341 36.2429 71.5625C36.402 72.0909 36.6307 72.4929 36.929 72.7685C37.2301 73.044 37.5923 73.1818 38.0156 73.1818ZM45.7372 65.2727V74H44.6804V66.3807H44.6293L42.4986 67.7955V66.7216L44.6804 65.2727H45.7372ZM48.2472 74V73.233L51.1278 70.0795C51.4659 69.7102 51.7443 69.3892 51.9631 69.1165C52.1818 68.8409 52.3438 68.5824 52.4489 68.3409C52.5568 68.0966 52.6108 67.8409 52.6108 67.5739C52.6108 67.267 52.5369 67.0014 52.3892 66.777C52.2443 66.5526 52.0455 66.3793 51.7926 66.2571C51.5398 66.1349 51.2557 66.0739 50.9403 66.0739C50.6051 66.0739 50.3125 66.1435 50.0625 66.2827C49.8153 66.419 49.6236 66.6108 49.4872 66.858C49.3537 67.1051 49.2869 67.3949 49.2869 67.7273H48.2812C48.2812 67.2159 48.3991 66.767 48.6349 66.3807C48.8707 65.9943 49.1918 65.6932 49.598 65.4773C50.0071 65.2614 50.4659 65.1534 50.9744 65.1534C51.4858 65.1534 51.9389 65.2614 52.3338 65.4773C52.7287 65.6932 53.0384 65.9844 53.2628 66.3509C53.4872 66.7173 53.5994 67.125 53.5994 67.5739C53.5994 67.8949 53.5412 68.2088 53.4247 68.5156C53.3111 68.8196 53.1122 69.1591 52.8281 69.5341C52.5469 69.9062 52.1562 70.3608 51.6562 70.8977L49.696 72.9943V73.0625H53.7528V74H48.2472Z" fill="black"/>
<path d="M110.903 75V74.233L113.784 71.0795C114.122 70.7102 114.401 70.3892 114.619 70.1165C114.838 69.8409 115 69.5824 115.105 69.3409C115.213 69.0966 115.267 68.8409 115.267 68.5739C115.267 68.267 115.193 68.0014 115.045 67.777C114.901 67.5526 114.702 67.3793 114.449 67.2571C114.196 67.1349 113.912 67.0739 113.597 67.0739C113.261 67.0739 112.969 67.1435 112.719 67.2827C112.472 67.419 112.28 67.6108 112.143 67.858C112.01 68.1051 111.943 68.3949 111.943 68.7273H110.938C110.938 68.2159 111.055 67.767 111.291 67.3807C111.527 66.9943 111.848 66.6932 112.254 66.4773C112.663 66.2614 113.122 66.1534 113.631 66.1534C114.142 66.1534 114.595 66.2614 114.99 66.4773C115.385 66.6932 115.695 66.9844 115.919 67.3509C116.143 67.7173 116.256 68.125 116.256 68.5739C116.256 68.8949 116.197 69.2088 116.081 69.5156C115.967 69.8196 115.768 70.1591 115.484 70.5341C115.203 70.9062 114.812 71.3608 114.312 71.8977L112.352 73.9943V74.0625H116.409V75H110.903ZM121.016 75.1193C120.374 75.1193 119.827 74.9446 119.375 74.5952C118.923 74.2429 118.578 73.733 118.339 73.0653C118.101 72.3949 117.982 71.5852 117.982 70.6364C117.982 69.6932 118.101 68.8878 118.339 68.2202C118.581 67.5497 118.928 67.0384 119.379 66.6861C119.834 66.331 120.379 66.1534 121.016 66.1534C121.652 66.1534 122.196 66.331 122.648 66.6861C123.102 67.0384 123.449 67.5497 123.688 68.2202C123.929 68.8878 124.05 69.6932 124.05 70.6364C124.05 71.5852 123.93 72.3949 123.692 73.0653C123.453 73.733 123.108 74.2429 122.656 74.5952C122.205 74.9446 121.658 75.1193 121.016 75.1193ZM121.016 74.1818C121.652 74.1818 122.146 73.875 122.499 73.2614C122.851 72.6477 123.027 71.7727 123.027 70.6364C123.027 69.8807 122.946 69.2372 122.784 68.706C122.625 68.1747 122.395 67.7699 122.094 67.4915C121.795 67.2131 121.436 67.0739 121.016 67.0739C120.385 67.0739 119.892 67.3849 119.537 68.0071C119.182 68.6264 119.004 69.5028 119.004 70.6364C119.004 71.392 119.084 72.0341 119.243 72.5625C119.402 73.0909 119.631 73.4929 119.929 73.7685C120.23 74.044 120.592 74.1818 121.016 74.1818ZM128.737 66.2727V75H127.68V67.3807H127.629L125.499 68.7955V67.7216L127.68 66.2727H128.737ZM134.196 75.1193C133.634 75.1193 133.132 75.0227 132.692 74.8295C132.254 74.6364 131.906 74.3679 131.648 74.0241C131.392 73.6776 131.253 73.2756 131.23 72.8182H132.304C132.327 73.0994 132.423 73.3423 132.594 73.5469C132.764 73.7486 132.987 73.9048 133.263 74.0156C133.538 74.1264 133.844 74.1818 134.179 74.1818C134.554 74.1818 134.886 74.1165 135.176 73.9858C135.466 73.8551 135.693 73.6733 135.858 73.4403C136.023 73.2074 136.105 72.9375 136.105 72.6307C136.105 72.3097 136.026 72.027 135.866 71.7827C135.707 71.5355 135.474 71.3423 135.168 71.2031C134.861 71.0639 134.486 70.9943 134.043 70.9943H133.344V70.0568H134.043C134.389 70.0568 134.693 69.9943 134.955 69.8693C135.219 69.7443 135.425 69.5682 135.572 69.3409C135.723 69.1136 135.798 68.8466 135.798 68.5398C135.798 68.2443 135.733 67.9872 135.602 67.7685C135.472 67.5497 135.287 67.3793 135.048 67.2571C134.813 67.1349 134.534 67.0739 134.213 67.0739C133.912 67.0739 133.628 67.1293 133.361 67.2401C133.097 67.348 132.881 67.5057 132.713 67.7131C132.545 67.9176 132.455 68.1648 132.44 68.4545H131.418C131.435 67.9972 131.572 67.5966 131.831 67.2528C132.089 66.9062 132.428 66.6364 132.845 66.4432C133.266 66.25 133.727 66.1534 134.23 66.1534C134.77 66.1534 135.233 66.2628 135.619 66.4815C136.006 66.6974 136.303 66.983 136.51 67.3381C136.717 67.6932 136.821 68.0767 136.821 68.4886C136.821 68.9801 136.692 69.3991 136.433 69.7457C136.178 70.0923 135.83 70.3324 135.389 70.4659V70.5341C135.94 70.625 136.371 70.8594 136.68 71.2372C136.99 71.6122 137.145 72.0767 137.145 72.6307C137.145 73.1051 137.016 73.5312 136.757 73.9091C136.501 74.2841 136.152 74.5795 135.709 74.7955C135.266 75.0114 134.761 75.1193 134.196 75.1193Z" fill="black"/>
<path d="M190.903 75V74.233L193.784 71.0795C194.122 70.7102 194.401 70.3892 194.619 70.1165C194.838 69.8409 195 69.5824 195.105 69.3409C195.213 69.0966 195.267 68.8409 195.267 68.5739C195.267 68.267 195.193 68.0014 195.045 67.777C194.901 67.5526 194.702 67.3793 194.449 67.2571C194.196 67.1349 193.912 67.0739 193.597 67.0739C193.261 67.0739 192.969 67.1435 192.719 67.2827C192.472 67.419 192.28 67.6108 192.143 67.858C192.01 68.1051 191.943 68.3949 191.943 68.7273H190.938C190.938 68.2159 191.055 67.767 191.291 67.3807C191.527 66.9943 191.848 66.6932 192.254 66.4773C192.663 66.2614 193.122 66.1534 193.631 66.1534C194.142 66.1534 194.595 66.2614 194.99 66.4773C195.385 66.6932 195.695 66.9844 195.919 67.3509C196.143 67.7173 196.256 68.125 196.256 68.5739C196.256 68.8949 196.197 69.2088 196.081 69.5156C195.967 69.8196 195.768 70.1591 195.484 70.5341C195.203 70.9062 194.812 71.3608 194.312 71.8977L192.352 73.9943V74.0625H196.409V75H190.903ZM201.016 75.1193C200.374 75.1193 199.827 74.9446 199.375 74.5952C198.923 74.2429 198.578 73.733 198.339 73.0653C198.101 72.3949 197.982 71.5852 197.982 70.6364C197.982 69.6932 198.101 68.8878 198.339 68.2202C198.581 67.5497 198.928 67.0384 199.379 66.6861C199.834 66.331 200.379 66.1534 201.016 66.1534C201.652 66.1534 202.196 66.331 202.648 66.6861C203.102 67.0384 203.449 67.5497 203.688 68.2202C203.929 68.8878 204.05 69.6932 204.05 70.6364C204.05 71.5852 203.93 72.3949 203.692 73.0653C203.453 73.733 203.108 74.2429 202.656 74.5952C202.205 74.9446 201.658 75.1193 201.016 75.1193ZM201.016 74.1818C201.652 74.1818 202.146 73.875 202.499 73.2614C202.851 72.6477 203.027 71.7727 203.027 70.6364C203.027 69.8807 202.946 69.2372 202.784 68.706C202.625 68.1747 202.395 67.7699 202.094 67.4915C201.795 67.2131 201.436 67.0739 201.016 67.0739C200.385 67.0739 199.892 67.3849 199.537 68.0071C199.182 68.6264 199.004 69.5028 199.004 70.6364C199.004 71.392 199.084 72.0341 199.243 72.5625C199.402 73.0909 199.631 73.4929 199.929 73.7685C200.23 74.044 200.592 74.1818 201.016 74.1818ZM208.737 66.2727V75H207.68V67.3807H207.629L205.499 68.7955V67.7216L207.68 66.2727H208.737ZM214.145 75.1193C213.787 75.1136 213.429 75.0455 213.071 74.9148C212.713 74.7841 212.386 74.5639 212.091 74.2543C211.795 73.9418 211.558 73.5199 211.379 72.9886C211.2 72.4545 211.111 71.7841 211.111 70.9773C211.111 70.2045 211.183 69.5199 211.328 68.9233C211.473 68.3239 211.683 67.8196 211.959 67.4105C212.234 66.9986 212.567 66.6861 212.956 66.473C213.348 66.2599 213.79 66.1534 214.281 66.1534C214.77 66.1534 215.205 66.2514 215.585 66.4474C215.969 66.6406 216.281 66.9105 216.523 67.2571C216.764 67.6037 216.92 68.0028 216.991 68.4545H215.952C215.855 68.0625 215.668 67.7372 215.389 67.4787C215.111 67.2202 214.741 67.0909 214.281 67.0909C213.605 67.0909 213.072 67.3849 212.683 67.973C212.297 68.5611 212.102 69.3864 212.099 70.4489H212.168C212.327 70.2074 212.516 70.0014 212.734 69.831C212.956 69.6577 213.2 69.5241 213.467 69.4304C213.734 69.3366 214.017 69.2898 214.315 69.2898C214.815 69.2898 215.273 69.4148 215.688 69.6648C216.102 69.9119 216.435 70.2543 216.685 70.6918C216.935 71.1264 217.06 71.625 217.06 72.1875C217.06 72.7273 216.939 73.2216 216.697 73.6705C216.456 74.1165 216.116 74.4716 215.679 74.7358C215.244 74.9972 214.733 75.125 214.145 75.1193ZM214.145 74.1818C214.503 74.1818 214.824 74.0923 215.108 73.9134C215.395 73.7344 215.621 73.4943 215.786 73.1932C215.953 72.892 216.037 72.5568 216.037 72.1875C216.037 71.8267 215.956 71.4986 215.794 71.2031C215.635 70.9048 215.415 70.6676 215.134 70.4915C214.855 70.3153 214.537 70.2273 214.179 70.2273C213.909 70.2273 213.658 70.2812 213.425 70.3892C213.192 70.4943 212.987 70.6392 212.811 70.8239C212.638 71.0085 212.501 71.2202 212.402 71.4588C212.303 71.6946 212.253 71.9432 212.253 72.2045C212.253 72.5511 212.334 72.875 212.496 73.1761C212.661 73.4773 212.885 73.7202 213.169 73.9048C213.456 74.0895 213.781 74.1818 214.145 74.1818Z" fill="black"/>
<path d="M203.729 10.6052H167.241V45.0097H203.729V10.6052Z" fill="#323232" stroke="black" stroke-width="2"/>
<path d="M200.983 13.1951H169.987V42.4208H200.983V13.1951Z" fill="white" stroke="black" stroke-width="2"/>
<path d="M172.129 14.1816C172.13 14.3119 172.104 14.4411 172.052 14.5619C172 14.6827 171.923 14.7925 171.826 14.8851C171.729 14.9777 171.613 15.0512 171.485 15.1013C171.358 15.1515 171.221 15.1773 171.083 15.1773C170.944 15.1773 170.808 15.1515 170.68 15.1013C170.552 15.0512 170.437 14.9777 170.339 14.8851C170.242 14.7925 170.165 14.6827 170.113 14.5619C170.061 14.4411 170.035 14.3119 170.036 14.1816C170.035 14.0512 170.061 13.922 170.113 13.8012C170.165 13.6804 170.242 13.5706 170.339 13.478C170.437 13.3854 170.552 13.3119 170.68 13.2618C170.808 13.2116 170.944 13.1858 171.083 13.1858C171.221 13.1858 171.358 13.2116 171.485 13.2618C171.613 13.3119 171.729 13.3854 171.826 13.478C171.923 13.5706 172 13.6804 172.052 13.8012C172.104 13.922 172.13 14.0512 172.129 14.1816V14.1816Z" fill="#D6D6D6" stroke="black" stroke-width="2"/>
<path d="M200.984 14.2272C200.985 14.3575 200.959 14.4868 200.907 14.6076C200.855 14.7283 200.778 14.8382 200.681 14.9307C200.583 15.0233 200.468 15.0968 200.34 15.147C200.212 15.1971 200.076 15.223 199.937 15.223C199.799 15.223 199.662 15.1971 199.535 15.147C199.407 15.0968 199.291 15.0233 199.194 14.9307C199.097 14.8382 199.02 14.7283 198.968 14.6076C198.916 14.4868 198.89 14.3575 198.891 14.2272C198.89 14.0969 198.916 13.9676 198.968 13.8468C199.02 13.7261 199.097 13.6163 199.194 13.5237C199.291 13.4311 199.407 13.3576 199.535 13.3074C199.662 13.2573 199.799 13.2314 199.937 13.2314C200.076 13.2314 200.212 13.2573 200.34 13.3074C200.468 13.3576 200.583 13.4311 200.681 13.5237C200.778 13.6163 200.855 13.7261 200.907 13.8468C200.959 13.9676 200.985 14.0969 200.984 14.2272V14.2272Z" fill="#D6D6D6" stroke="black" stroke-width="2"/>
<path d="M172.129 41.4342C172.13 41.5646 172.104 41.6938 172.052 41.8146C172 41.9353 171.923 42.0452 171.826 42.1378C171.729 42.2304 171.613 42.3039 171.485 42.354C171.358 42.4042 171.221 42.43 171.083 42.43C170.944 42.43 170.808 42.4042 170.68 42.354C170.552 42.3039 170.437 42.2304 170.339 42.1378C170.242 42.0452 170.165 41.9353 170.113 41.8146C170.061 41.6938 170.035 41.5646 170.036 41.4342C170.035 41.3039 170.061 41.1746 170.113 41.0539C170.165 40.9331 170.242 40.8233 170.339 40.7307C170.437 40.6381 170.552 40.5646 170.68 40.5145C170.808 40.4643 170.944 40.4385 171.083 40.4385C171.221 40.4385 171.358 40.4643 171.485 40.5145C171.613 40.5646 171.729 40.6381 171.826 40.7307C171.923 40.8233 172 40.9331 172.052 41.0539C172.104 41.1746 172.13 41.3039 172.129 41.4342V41.4342Z" fill="#D6D6D6" stroke="black" stroke-width="2"/>
<path d="M200.935 41.4342C200.937 41.5646 200.91 41.6938 200.858 41.8146C200.806 41.9353 200.73 42.0452 200.632 42.1378C200.535 42.2304 200.419 42.3039 200.292 42.354C200.164 42.4042 200.027 42.43 199.889 42.43C199.751 42.43 199.614 42.4042 199.486 42.354C199.359 42.3039 199.243 42.2304 199.146 42.1378C199.048 42.0452 198.972 41.9353 198.92 41.8146C198.868 41.6938 198.842 41.5646 198.843 41.4342C198.842 41.3039 198.868 41.1746 198.92 41.0539C198.972 40.9331 199.048 40.8233 199.146 40.7307C199.243 40.6381 199.359 40.5646 199.486 40.5145C199.614 40.4643 199.751 40.4385 199.889 40.4385C200.027 40.4385 200.164 40.4643 200.292 40.5145C200.419 40.5646 200.535 40.6381 200.632 40.7307C200.73 40.8233 200.806 40.9331 200.858 41.0539C200.91 41.1746 200.937 41.3039 200.935 41.4342V41.4342Z" fill="#D6D6D6" stroke="black" stroke-width="2"/>
<path d="M196.667 17.2642H174.304V38.3506H196.667V17.2642Z" fill="white" stroke="black" stroke-width="2"/>
<path d="M195.491 18.3738H175.48V37.2412H195.491V18.3738Z" fill="white" stroke="black" stroke-width="2"/>
<path d="M190.128 27.8078C190.128 28.3827 190.008 28.9519 189.775 29.483C189.542 30.0142 189.2 30.4967 188.769 30.9032C188.338 31.3097 187.826 31.6322 187.262 31.8522C186.699 32.0722 186.095 32.1854 185.486 32.1854C184.876 32.1854 184.272 32.0722 183.709 31.8522C183.146 31.6322 182.634 31.3097 182.203 30.9032C181.772 30.4967 181.43 30.0142 181.196 29.483C180.963 28.9519 180.843 28.3827 180.843 27.8078C180.843 27.2329 180.963 26.6637 181.196 26.1326C181.43 25.6014 181.772 25.1189 182.203 24.7124C182.634 24.3059 183.146 23.9834 183.709 23.7634C184.272 23.5434 184.876 23.4302 185.486 23.4302C186.095 23.4302 186.699 23.5434 187.262 23.7634C187.826 23.9834 188.338 24.3059 188.769 24.7124C189.2 25.1189 189.542 25.6014 189.775 26.1326C190.008 26.6637 190.128 27.2329 190.128 27.8078Z" fill="#FF7373" stroke="black" stroke-width="2.00001"/>
<path d="M188.951 27.807C188.951 28.2362 188.861 28.6611 188.687 29.0575C188.513 29.454 188.258 29.8142 187.936 30.1177C187.614 30.4211 187.232 30.6618 186.811 30.826C186.391 30.9903 185.94 31.0748 185.485 31.0748C185.03 31.0748 184.579 30.9903 184.159 30.826C183.738 30.6618 183.356 30.4211 183.035 30.1177C182.713 29.8142 182.458 29.454 182.283 29.0575C182.109 28.6611 182.02 28.2362 182.02 27.807C182.02 27.3779 182.109 26.953 182.283 26.5565C182.458 26.1601 182.713 25.7998 183.035 25.4964C183.356 25.193 183.738 24.9523 184.159 24.788C184.579 24.6238 185.03 24.5393 185.485 24.5393C185.94 24.5393 186.391 24.6238 186.811 24.788C187.232 24.9523 187.614 25.193 187.936 25.4964C188.258 25.7998 188.513 26.1601 188.687 26.5565C188.861 26.953 188.951 27.3779 188.951 27.807Z" fill="#D6D6D6" stroke="black" stroke-width="1.9999"/>
<path d="M186.989 27.8075C186.989 27.9937 186.951 28.1781 186.875 28.3502C186.799 28.5222 186.689 28.6786 186.549 28.8103C186.409 28.9419 186.243 29.0464 186.061 29.1177C185.879 29.1889 185.683 29.2256 185.485 29.2256C185.288 29.2256 185.092 29.1889 184.91 29.1177C184.727 29.0464 184.562 28.9419 184.422 28.8103C184.282 28.6786 184.172 28.5222 184.096 28.3502C184.02 28.1781 183.981 27.9937 183.981 27.8075C183.981 27.6213 184.02 27.4369 184.096 27.2648C184.172 27.0928 184.282 26.9364 184.422 26.8048C184.562 26.6731 184.727 26.5686 184.91 26.4974C185.092 26.4261 185.288 26.3894 185.485 26.3894C185.683 26.3894 185.879 26.4261 186.061 26.4974C186.243 26.5686 186.409 26.6731 186.549 26.8048C186.689 26.9364 186.799 27.0928 186.875 27.2648C186.951 27.4369 186.989 27.6213 186.989 27.8075Z" fill="#FF3737" stroke="black" stroke-width="2"/>
<path d="M196.795 36.4583C196.795 36.5473 196.776 36.6355 196.74 36.7178C196.704 36.8001 196.651 36.8749 196.584 36.9378C196.518 37.0008 196.438 37.0508 196.351 37.0849C196.264 37.119 196.17 37.1365 196.076 37.1365C195.981 37.1365 195.888 37.119 195.8 37.0849C195.713 37.0508 195.634 37.0008 195.567 36.9378C195.5 36.8749 195.447 36.8001 195.411 36.7178C195.375 36.6355 195.356 36.5473 195.356 36.4583C195.356 36.3692 195.375 36.281 195.411 36.1987C195.447 36.1164 195.5 36.0417 195.567 35.9787C195.634 35.9157 195.713 35.8657 195.8 35.8317C195.888 35.7976 195.981 35.78 196.076 35.78C196.17 35.78 196.264 35.7976 196.351 35.8317C196.438 35.8657 196.518 35.9157 196.584 35.9787C196.651 36.0417 196.704 36.1164 196.74 36.1987C196.776 36.281 196.795 36.3692 196.795 36.4583Z" fill="#FF3737" stroke="black" stroke-width="2.00001"/>
<path d="M195.518 37.6624C195.518 37.7514 195.499 37.8396 195.463 37.9219C195.427 38.0042 195.374 38.079 195.307 38.1419C195.24 38.2049 195.161 38.2549 195.074 38.289C194.987 38.3231 194.893 38.3406 194.799 38.3406C194.704 38.3406 194.611 38.3231 194.523 38.289C194.436 38.2549 194.357 38.2049 194.29 38.1419C194.223 38.079 194.17 38.0042 194.134 37.9219C194.098 37.8396 194.079 37.7514 194.079 37.6624C194.079 37.5733 194.098 37.4851 194.134 37.4028C194.17 37.3205 194.223 37.2458 194.29 37.1828C194.357 37.1198 194.436 37.0698 194.523 37.0358C194.611 37.0017 194.704 36.9841 194.799 36.9841C194.893 36.9841 194.987 37.0017 195.074 37.0358C195.161 37.0698 195.24 37.1198 195.307 37.1828C195.374 37.2458 195.427 37.3205 195.463 37.4028C195.499 37.4851 195.518 37.5733 195.518 37.6624Z" fill="#FF3737" stroke="black" stroke-width="2.00001"/>
<path d="M176.919 37.7568C176.919 37.8459 176.9 37.9341 176.864 38.0164C176.828 38.0987 176.775 38.1734 176.708 38.2364C176.642 38.2994 176.562 38.3494 176.475 38.3834C176.388 38.4175 176.294 38.4351 176.2 38.4351C176.105 38.4351 176.012 38.4175 175.925 38.3834C175.837 38.3494 175.758 38.2994 175.691 38.2364C175.624 38.1734 175.571 38.0987 175.535 38.0164C175.499 37.9341 175.48 37.8459 175.48 37.7568C175.48 37.6678 175.499 37.5796 175.535 37.4973C175.571 37.415 175.624 37.3402 175.691 37.2773C175.758 37.2143 175.837 37.1643 175.925 37.1302C176.012 37.0962 176.105 37.0786 176.2 37.0786C176.294 37.0786 176.388 37.0962 176.475 37.1302C176.562 37.1643 176.642 37.2143 176.708 37.2773C176.775 37.3402 176.828 37.415 176.864 37.4973C176.9 37.5796 176.919 37.6678 176.919 37.7568Z" fill="#FF3737" stroke="black" stroke-width="2.00001"/>
<path d="M175.481 36.3809C175.481 36.4699 175.462 36.5581 175.426 36.6404C175.39 36.7227 175.337 36.7975 175.27 36.8605C175.203 36.9234 175.124 36.9734 175.037 37.0075C174.949 37.0416 174.856 37.0591 174.761 37.0591C174.667 37.0591 174.573 37.0416 174.486 37.0075C174.399 36.9734 174.319 36.9234 174.253 36.8605C174.186 36.7975 174.133 36.7227 174.097 36.6404C174.061 36.5581 174.042 36.4699 174.042 36.3809C174.042 36.2918 174.061 36.2036 174.097 36.1213C174.133 36.039 174.186 35.9643 174.253 35.9013C174.319 35.8383 174.399 35.7883 174.486 35.7543C174.573 35.7202 174.667 35.7026 174.761 35.7026C174.856 35.7026 174.949 35.7202 175.037 35.7543C175.124 35.7883 175.203 35.8383 175.27 35.9013C175.337 35.9643 175.39 36.039 175.426 36.1213C175.462 36.2036 175.481 36.2918 175.481 36.3809Z" fill="#FF3737" stroke="black" stroke-width="2.00001"/>
<path d="M175.652 19.052C175.652 19.1411 175.633 19.2293 175.597 19.3116C175.561 19.3938 175.508 19.4686 175.441 19.5316C175.375 19.5946 175.295 19.6445 175.208 19.6786C175.121 19.7127 175.027 19.7302 174.933 19.7302C174.838 19.7302 174.745 19.7127 174.657 19.6786C174.57 19.6445 174.491 19.5946 174.424 19.5316C174.357 19.4686 174.304 19.3938 174.268 19.3116C174.232 19.2293 174.213 19.1411 174.213 19.052C174.213 18.9629 174.232 18.8747 174.268 18.7925C174.304 18.7102 174.357 18.6354 174.424 18.5724C174.491 18.5094 174.57 18.4595 174.657 18.4254C174.745 18.3913 174.838 18.3738 174.933 18.3738C175.027 18.3738 175.121 18.3913 175.208 18.4254C175.295 18.4595 175.375 18.5094 175.441 18.5724C175.508 18.6354 175.561 18.7102 175.597 18.7925C175.633 18.8747 175.652 18.9629 175.652 19.052Z" fill="#FF3737" stroke="black" stroke-width="2.00001"/>
<path d="M195.491 17.8574C195.491 17.9465 195.472 18.0347 195.436 18.117C195.4 18.1993 195.347 18.274 195.28 18.337C195.213 18.4 195.134 18.45 195.047 18.484C194.959 18.5181 194.866 18.5357 194.771 18.5357C194.677 18.5357 194.583 18.5181 194.496 18.484C194.409 18.45 194.329 18.4 194.263 18.337C194.196 18.274 194.143 18.1993 194.107 18.117C194.071 18.0347 194.052 17.9465 194.052 17.8574C194.052 17.7684 194.071 17.6802 194.107 17.5979C194.143 17.5156 194.196 17.4408 194.263 17.3778C194.329 17.3149 194.409 17.2649 194.496 17.2308C194.583 17.1967 194.677 17.1792 194.771 17.1792C194.866 17.1792 194.959 17.1967 195.047 17.2308C195.134 17.2649 195.213 17.3149 195.28 17.3778C195.347 17.4408 195.4 17.5156 195.436 17.5979C195.472 17.6802 195.491 17.7684 195.491 17.8574Z" fill="#FF3737" stroke="black" stroke-width="2.00001"/>
<path d="M196.768 19.2337C196.768 19.3227 196.749 19.4109 196.713 19.4932C196.677 19.5755 196.624 19.6503 196.557 19.7132C196.49 19.7762 196.411 19.8262 196.324 19.8603C196.236 19.8943 196.143 19.9119 196.048 19.9119C195.954 19.9119 195.86 19.8943 195.773 19.8603C195.686 19.8262 195.607 19.7762 195.54 19.7132C195.473 19.6503 195.42 19.5755 195.384 19.4932C195.348 19.4109 195.329 19.3227 195.329 19.2337C195.329 19.1446 195.348 19.0564 195.384 18.9741C195.42 18.8918 195.473 18.817 195.54 18.7541C195.607 18.6911 195.686 18.6411 195.773 18.607C195.86 18.573 195.954 18.5554 196.048 18.5554C196.143 18.5554 196.236 18.573 196.324 18.607C196.411 18.6411 196.49 18.6911 196.557 18.7541C196.624 18.817 196.677 18.8918 196.713 18.9741C196.749 19.0564 196.768 19.1446 196.768 19.2337Z" fill="#FF3737" stroke="black" stroke-width="2.00001"/>
<path d="M176.929 17.676C176.929 17.7651 176.91 17.8533 176.874 17.9356C176.838 18.0179 176.785 18.0926 176.718 18.1556C176.652 18.2186 176.572 18.2686 176.485 18.3026C176.398 18.3367 176.304 18.3543 176.21 18.3543C176.115 18.3543 176.022 18.3367 175.935 18.3026C175.847 18.2686 175.768 18.2186 175.701 18.1556C175.634 18.0926 175.581 18.0179 175.545 17.9356C175.509 17.8533 175.49 17.7651 175.49 17.676C175.49 17.587 175.509 17.4988 175.545 17.4165C175.581 17.3342 175.634 17.2594 175.701 17.1965C175.768 17.1335 175.847 17.0835 175.935 17.0494C176.022 17.0153 176.115 16.9978 176.21 16.9978C176.304 16.9978 176.398 17.0153 176.485 17.0494C176.572 17.0835 176.652 17.1335 176.718 17.1965C176.785 17.2594 176.838 17.3342 176.874 17.4165C176.91 17.4988 176.929 17.587 176.929 17.676Z" fill="#FF3737" stroke="black" stroke-width="2.00001"/>
<path d="M198.127 39.727L190.157 31.9128" stroke="black" stroke-width="3"/>
<path d="M198.209 15.7324L190.239 23.5467" stroke="black" stroke-width="3"/>
<path d="M173.031 15.8296L181.001 23.6439" stroke="black" stroke-width="3"/>
<path d="M172.876 39.5257L180.846 31.7114" stroke="black" stroke-width="3"/>
<path d="M192.773 22.5341C192.773 22.8024 192.689 23.0647 192.531 23.2878C192.373 23.5109 192.148 23.6847 191.885 23.7874C191.622 23.8901 191.333 23.917 191.054 23.8646C190.775 23.8123 190.518 23.6831 190.317 23.4934C190.116 23.3037 189.979 23.062 189.923 22.7988C189.868 22.5357 189.896 22.2629 190.005 22.0151C190.114 21.7672 190.299 21.5554 190.535 21.4063C190.772 21.2573 191.05 21.1777 191.334 21.1777" stroke="black" stroke-width="3"/>
<path d="M192.509 32.7884C192.509 32.5201 192.424 32.2578 192.266 32.0347C192.108 31.8116 191.883 31.6378 191.621 31.5351C191.358 31.4324 191.068 31.4055 190.789 31.4579C190.51 31.5102 190.254 31.6394 190.053 31.8291C189.852 32.0188 189.714 32.2605 189.659 32.5237C189.603 32.7868 189.632 33.0596 189.741 33.3074C189.85 33.5553 190.034 33.7672 190.271 33.9162C190.507 34.0652 190.786 34.1448 191.07 34.1448" stroke="black" stroke-width="3"/>
<path d="M178.291 32.7454C178.291 32.4771 178.375 32.2148 178.533 31.9918C178.691 31.7687 178.916 31.5948 179.179 31.4921C179.442 31.3894 179.731 31.3626 180.01 31.4149C180.289 31.4672 180.546 31.5964 180.747 31.7862C180.948 31.9759 181.085 32.2176 181.141 32.4807C181.196 32.7439 181.168 33.0166 181.059 33.2645C180.95 33.5123 180.765 33.7242 180.529 33.8732C180.292 34.0223 180.014 34.1018 179.729 34.1018" stroke="black" stroke-width="3"/>
<path d="M178.488 22.6123C178.488 22.8805 178.572 23.1428 178.73 23.3659C178.888 23.589 179.113 23.7629 179.376 23.8655C179.639 23.9682 179.928 23.9951 180.207 23.9428C180.486 23.8904 180.743 23.7612 180.944 23.5715C181.145 23.3818 181.282 23.1401 181.338 22.877C181.393 22.6138 181.365 22.3411 181.256 22.0932C181.147 21.8453 180.962 21.6335 180.726 21.4844C180.489 21.3354 180.211 21.2558 179.927 21.2559" stroke="black" stroke-width="3"/>
<path d="M122.707 126.035L130.198 126.035C128.017 119.966 125.457 119.966 122.707 126.035Z" fill="#EAE6DD" stroke="black" stroke-width="0.5"/>
<ellipse cx="126.69" cy="123.474" rx="1.13793" ry="1.0431" fill="#6E5F5F"/>
<g clip-path="url(#clip0_129_5)">
<path d="M126.5 156.569C117.689 156.569 110.48 149.692 110.48 141.286C110.48 132.88 117.689 126.003 126.5 126.003C135.311 126.003 142.519 132.88 142.519 141.286C142.519 149.692 135.311 156.569 126.5 156.569Z" fill="#ACACAC"/>
<path d="M126.5 154.684C134.787 154.684 141.505 148.275 141.505 140.369C141.505 132.463 134.787 126.054 126.5 126.054C118.213 126.054 111.495 132.463 111.495 140.369C111.495 148.275 118.213 154.684 126.5 154.684Z" fill="#DCD5C2"/>
<path d="M113.257 142.101C113.257 134.205 119.985 127.786 128.262 127.786C131.947 127.786 135.311 129.06 137.927 131.148C135.204 128.041 131.092 126.054 126.5 126.054C118.223 126.054 111.495 132.473 111.495 140.369C111.495 144.75 113.578 148.673 116.835 151.322C114.592 148.826 113.257 145.616 113.257 142.101Z" fill="#F4EDDC"/>
<path d="M133.871 126.508C137.998 132.95 137.998 143.376 133.871 149.818C129.744 156.261 123.066 156.261 118.939 149.818" fill="url(#paint2_linear_129_5)" fill-opacity="0.5"/>
<path d="M126.492 156.11C117.681 156.11 110.472 149.233 110.472 140.828C110.472 132.422 117.681 125.545 126.492 125.545C135.303 125.545 142.511 132.422 142.511 140.828C142.511 149.233 135.303 156.11 126.492 156.11ZM126.492 127.481C118.749 127.481 112.502 133.492 112.502 140.828C112.502 148.214 118.803 154.175 126.492 154.175C134.181 154.175 140.482 148.163 140.482 140.828C140.482 133.492 134.235 127.481 126.492 127.481Z" fill="#B0AFAA"/>
<path d="M127.408 130.741C127.408 131.199 126.981 131.963 126.5 131.963C126.019 131.963 125.592 131.199 125.592 130.741C125.592 130.282 126.019 129.875 126.5 129.875C126.981 129.875 127.408 130.282 127.408 130.741Z" fill="#685E46"/>
<path d="M126.5 131.607C127.001 131.607 127.408 131.219 127.408 130.741C127.408 130.262 127.001 129.875 126.5 129.875C125.999 129.875 125.592 130.262 125.592 130.741C125.592 131.219 125.999 131.607 126.5 131.607Z" fill="#8F8775"/>
<path d="M127.141 130.13C127.514 130.486 127.514 130.996 127.141 131.352C126.767 131.709 126.233 131.709 125.859 131.352" fill="white"/>
<path d="M126.607 126.513C126.607 126.564 126.553 126.615 126.5 126.615C126.446 126.615 126.393 126.564 126.393 126.513V125.545C126.393 125.494 126.446 125.443 126.5 125.443C126.553 125.443 126.607 125.494 126.607 125.545V126.513Z" fill="white"/>
<path d="M126.607 155.245C126.607 155.296 126.553 155.346 126.5 155.346C126.446 155.346 126.393 155.296 126.393 155.245V154.277C126.393 154.226 126.446 154.175 126.5 154.175C126.553 154.175 126.607 154.226 126.607 154.277V155.245Z" fill="white"/>
<path d="M136.859 130.69C136.806 130.741 136.752 130.741 136.699 130.69C136.646 130.639 136.646 130.588 136.699 130.537L137.447 129.824C137.5 129.773 137.553 129.773 137.607 129.824C137.66 129.875 137.66 129.926 137.607 129.977L136.859 130.69Z" fill="white"/>
<path d="M115.607 150.965C115.553 151.016 115.5 151.016 115.447 150.965C115.393 150.914 115.393 150.863 115.447 150.812L116.194 150.099C116.248 150.048 116.301 150.048 116.354 150.099C116.408 150.15 116.408 150.201 116.354 150.252L115.607 150.965Z" fill="white"/>
<path d="M141.024 140.522C140.971 140.522 140.917 140.471 140.917 140.42C140.917 140.369 140.971 140.318 141.024 140.318H142.039C142.092 140.318 142.145 140.369 142.145 140.42C142.145 140.471 142.092 140.522 142.039 140.522H141.024Z" fill="white"/>
<path d="M110.961 140.522C110.908 140.522 110.854 140.471 110.854 140.42C110.854 140.369 110.908 140.318 110.961 140.318H111.976C112.029 140.267 112.082 140.318 112.082 140.369C112.082 140.42 112.029 140.471 111.976 140.471H110.961V140.522Z" fill="white"/>
<path d="M136.699 150.303C136.646 150.252 136.646 150.201 136.699 150.15C136.752 150.099 136.806 150.099 136.859 150.15L137.607 150.863C137.66 150.914 137.66 150.965 137.607 151.016C137.553 151.067 137.5 151.067 137.447 151.016L136.699 150.303Z" fill="white"/>
<path d="M115.393 129.977C115.34 129.926 115.34 129.875 115.393 129.824C115.446 129.773 115.5 129.773 115.553 129.824L116.301 130.537C116.354 130.588 116.354 130.639 116.301 130.69C116.247 130.741 116.194 130.741 116.141 130.69L115.393 129.977Z" fill="white"/>
<path d="M119.345 128.347C119.398 128.397 119.345 128.499 119.291 128.499C119.238 128.55 119.131 128.499 119.131 128.448L118.597 127.582C118.544 127.531 118.597 127.43 118.65 127.43C118.704 127.379 118.811 127.43 118.811 127.48L119.345 128.347Z" fill="white"/>
<path d="M134.403 153.207C134.456 153.258 134.403 153.36 134.349 153.36C134.296 153.411 134.189 153.36 134.189 153.309L133.655 152.443C133.602 152.392 133.655 152.29 133.709 152.29C133.762 152.239 133.869 152.29 133.869 152.341L134.403 153.207Z" fill="white"/>
<path d="M130.398 127.022C130.398 127.073 130.291 127.124 130.238 127.124C130.184 127.124 130.131 127.022 130.131 126.971L130.398 126.003C130.398 125.952 130.505 125.901 130.558 125.901C130.611 125.901 130.665 126.003 130.665 126.054L130.398 127.022Z" fill="white"/>
<path d="M122.602 154.735C122.602 154.786 122.495 154.837 122.442 154.837C122.388 154.837 122.335 154.735 122.335 154.684L122.602 153.716C122.602 153.665 122.709 153.614 122.762 153.614C122.815 153.614 122.869 153.716 122.869 153.767L122.602 154.735Z" fill="white"/>
<path d="M139.155 133.543C139.102 133.594 138.995 133.543 138.995 133.492C138.942 133.441 138.995 133.339 139.048 133.339L139.956 132.83C140.01 132.779 140.116 132.83 140.116 132.881C140.17 132.932 140.116 133.033 140.063 133.033L139.155 133.543Z" fill="white"/>
<path d="M113.097 147.909C113.043 147.96 112.937 147.909 112.937 147.858C112.883 147.807 112.937 147.705 112.99 147.705L113.898 147.195C113.951 147.144 114.058 147.195 114.058 147.246C114.111 147.297 114.058 147.399 114.005 147.399L113.097 147.909Z" fill="white"/>
<path d="M140.49 144.088C140.437 144.088 140.383 143.986 140.383 143.935C140.383 143.884 140.49 143.833 140.543 143.833L141.558 144.088C141.611 144.088 141.665 144.19 141.665 144.241C141.665 144.292 141.558 144.343 141.505 144.343L140.49 144.088Z" fill="white"/>
<path d="M111.442 136.65C111.388 136.65 111.335 136.548 111.335 136.497C111.335 136.446 111.442 136.396 111.495 136.396L112.509 136.65C112.563 136.65 112.616 136.752 112.616 136.803C112.616 136.854 112.509 136.905 112.456 136.905L111.442 136.65Z" fill="white"/>
<path d="M114.005 133.339C114.058 133.39 114.111 133.441 114.058 133.492C114.005 133.543 113.951 133.594 113.898 133.543L112.99 133.033C112.937 132.983 112.883 132.932 112.937 132.881C112.99 132.83 113.043 132.779 113.097 132.83L114.005 133.339Z" fill="white"/>
<path d="M140.063 147.705C140.116 147.756 140.17 147.807 140.116 147.858C140.063 147.909 140.01 147.96 139.956 147.909L139.048 147.399C138.995 147.348 138.942 147.297 138.995 147.246C139.048 147.195 139.102 147.144 139.155 147.195L140.063 147.705Z" fill="white"/>
<path d="M122.869 126.971C122.869 127.022 122.869 127.124 122.762 127.124C122.709 127.124 122.602 127.124 122.602 127.022L122.335 126.054C122.335 126.003 122.335 125.901 122.442 125.901C122.495 125.901 122.602 125.901 122.602 126.003L122.869 126.971Z" fill="white"/>
<path d="M130.665 154.684C130.665 154.735 130.665 154.837 130.558 154.837C130.505 154.837 130.398 154.837 130.398 154.735L130.131 153.767C130.131 153.716 130.131 153.614 130.238 153.614C130.291 153.614 130.398 153.614 130.398 153.716L130.665 154.684Z" fill="white"/>
<path d="M133.869 128.448C133.815 128.499 133.762 128.55 133.709 128.499C133.655 128.448 133.602 128.397 133.655 128.347L134.189 127.48C134.243 127.43 134.296 127.379 134.349 127.43C134.403 127.48 134.456 127.531 134.403 127.582L133.869 128.448Z" fill="white"/>
<path d="M118.811 153.309C118.757 153.36 118.704 153.411 118.65 153.36C118.597 153.309 118.544 153.258 118.597 153.207L119.131 152.341C119.184 152.29 119.238 152.239 119.291 152.29C119.345 152.341 119.398 152.392 119.345 152.443L118.811 153.309Z" fill="white"/>
<path d="M140.543 136.905C140.49 136.905 140.383 136.905 140.383 136.803C140.383 136.752 140.383 136.65 140.49 136.65L141.505 136.396C141.558 136.396 141.665 136.396 141.665 136.497C141.665 136.548 141.665 136.65 141.558 136.65L140.543 136.905Z" fill="white"/>
<path d="M111.495 144.343C111.442 144.343 111.335 144.343 111.335 144.241C111.335 144.19 111.335 144.088 111.442 144.088L112.456 143.833C112.509 143.833 112.616 143.833 112.616 143.935C112.616 143.986 112.616 144.088 112.509 144.088L111.495 144.343Z" fill="white"/>
<path d="M122.338 137.879C122.338 134.677 126.632 134.237 128.217 134.749C130.578 135.511 130.578 137.879 130.578 137.879C130.208 143.003 124.035 145.099 124.793 145.515C125.552 145.93 124.424 145.515 126.131 145.515C126.7 145.654 129.956 145.557 130.208 145.515C130.664 145.439 131.283 144.137 131.536 143.568H131.915V147.93H122.338C122.243 146.034 122.812 144.232 124.234 143.379C127.174 141.615 128.596 138.827 128.596 137.879C128.596 135.748 125.372 136.835 125.372 137.404C125.372 139.965 122.338 140.249 122.338 137.879Z" fill="black" fill-opacity="0.71"/>
</g>
<path d="M126.31 118.448H127.069V122.241C127.069 122.451 126.899 122.62 126.69 122.62V122.62C126.48 122.62 126.31 122.451 126.31 122.241V118.448Z" fill="#DBCCCC"/>
<rect x="121.759" y="79" width="10.0517" height="39.4483" rx="3" fill="#4F6B2B"/>
<path d="M122.707 116.641L122.607 116.741V116.955C122.607 117.01 122.652 117.055 122.707 117.055V117.281C122.652 117.281 122.607 117.326 122.607 117.381V117.808C122.607 117.863 122.652 117.908 122.707 117.908V118.135C122.652 118.135 122.607 118.18 122.607 118.235V118.448L122.707 118.548H122.911C122.966 118.548 123.011 118.503 123.011 118.448H123.218C123.218 118.503 123.263 118.548 123.318 118.548H123.726C123.781 118.548 123.826 118.503 123.826 118.448H124.034C124.034 118.503 124.079 118.548 124.134 118.548H124.542C124.597 118.548 124.642 118.503 124.642 118.448H124.849C124.849 118.503 124.894 118.548 124.949 118.548H125.357C125.412 118.548 125.457 118.503 125.457 118.448H125.665C125.665 118.503 125.71 118.548 125.765 118.548H126.173C126.228 118.548 126.273 118.503 126.273 118.448H126.48C126.48 118.503 126.525 118.548 126.58 118.548H126.988C127.043 118.548 127.088 118.503 127.088 118.448H127.296C127.296 118.503 127.341 118.548 127.396 118.548H127.804C127.859 118.548 127.904 118.503 127.904 118.448H128.112C128.112 118.503 128.156 118.548 128.212 118.548H128.619C128.675 118.548 128.719 118.503 128.719 118.448H128.927C128.927 118.503 128.972 118.548 129.027 118.548H129.435C129.49 118.548 129.535 118.503 129.535 118.448H129.743C129.743 118.503 129.787 118.548 129.843 118.548H130.25C130.306 118.548 130.35 118.503 130.35 118.448H130.558C130.558 118.503 130.603 118.548 130.658 118.548H130.862L130.962 118.448V118.235C130.962 118.18 130.917 118.135 130.862 118.135V117.908C130.917 117.908 130.962 117.863 130.962 117.808V117.381C130.962 117.326 130.917 117.281 130.862 117.281V117.055C130.917 117.055 130.962 117.01 130.962 116.955V116.741L130.862 116.641H130.658C130.603 116.641 130.558 116.686 130.558 116.741H130.35C130.35 116.686 130.306 116.641 130.25 116.641H129.843C129.787 116.641 129.743 116.686 129.743 116.741H129.535C129.535 116.686 129.49 116.641 129.435 116.641H129.027C128.972 116.641 128.927 116.686 128.927 116.741H128.719C128.719 116.686 128.675 116.641 128.619 116.641H128.212C128.156 116.641 128.112 116.686 128.112 116.741H127.904C127.904 116.686 127.859 116.641 127.804 116.641H127.396C127.341 116.641 127.296 116.686 127.296 116.741H127.088C127.088 116.686 127.043 116.641 126.988 116.641H126.58C126.525 116.641 126.48 116.686 126.48 116.741H126.273C126.273 116.686 126.228 116.641 126.173 116.641H125.765C125.71 116.641 125.665 116.686 125.665 116.741H125.457C125.457 116.686 125.412 116.641 125.357 116.641H124.949C124.894 116.641 124.849 116.686 124.849 116.741H124.642C124.642 116.686 124.597 116.641 124.542 116.641H124.134C124.079 116.641 124.034 116.686 124.034 116.741H123.826C123.826 116.686 123.781 116.641 123.726 116.641H123.318C123.263 116.641 123.218 116.686 123.218 116.741H123.011C123.011 116.686 122.966 116.641 122.911 116.641H122.707Z" fill="url(#paint3_angular_129_5)" stroke="black" stroke-width="0.2" stroke-miterlimit="1.41421" stroke-linecap="round" stroke-dasharray="0.4 0.4"/>
<path d="M39 126L47 126C44.6709 120.667 41.9367 120.667 39 126Z" fill="#ECBE40"/>
<ellipse cx="43.1954" cy="123.822" rx="1.17241" ry="1.07471" fill="#6E5F5F"/>
<g clip-path="url(#clip1_129_5)">
<path d="M43 157.92C33.9223 157.92 26.4951 150.834 26.4951 142.174C26.4951 133.513 33.9223 126.427 43 126.427C52.0776 126.427 59.5048 133.513 59.5048 142.174C59.5048 150.834 52.0776 157.92 43 157.92Z" fill="#DBAB56"/>
<path d="M43.0001 155.978C51.5381 155.978 58.4596 149.374 58.4596 141.229C58.4596 133.083 51.5381 126.48 43.0001 126.48C34.462 126.48 27.5405 133.083 27.5405 141.229C27.5405 149.374 34.462 155.978 43.0001 155.978Z" fill="#EFB30C"/>
<path d="M29.3561 143.013C29.3561 134.878 36.2881 128.265 44.8156 128.265C48.6117 128.265 52.0777 129.577 54.7735 131.729C51.9677 128.527 47.7315 126.48 43.0001 126.48C34.4726 126.48 27.5405 133.093 27.5405 141.229C27.5405 145.743 29.6862 149.784 33.0421 152.513C30.7315 149.942 29.3561 146.635 29.3561 143.013Z" fill="#E5A300"/>
<path d="M50.5943 126.947C54.8463 133.585 54.8463 144.326 50.5943 150.964C46.3424 157.602 39.4619 157.602 35.21 150.964" fill="url(#paint4_angular_129_5)" fill-opacity="0.17"/>
<path d="M42.9914 157.447C33.9138 157.447 26.4866 150.361 26.4866 141.701C26.4866 133.041 33.9138 125.955 42.9914 125.955C52.0691 125.955 59.4963 133.041 59.4963 141.701C59.4963 150.361 52.0691 157.447 42.9914 157.447ZM42.9914 127.95C35.0141 127.95 28.5772 134.143 28.5772 141.701C28.5772 149.312 35.0691 155.453 42.9914 155.453C50.9138 155.453 57.4057 149.259 57.4057 141.701C57.4057 134.143 50.9688 127.95 42.9914 127.95Z" fill="#F7D27F"/>
<path d="M28.0356 142.751C28.0356 146.74 29.5761 150.361 32.1068 153.091C35.0227 155.505 38.8188 156.975 42.945 156.975C45.7509 156.975 48.3366 156.292 50.6473 155.138C48.7767 155.977 46.6861 156.45 44.4855 156.45C40.1392 156.45 36.178 154.56 33.5373 151.621C30.4564 149.102 28.4758 145.375 28.4758 141.176C28.4758 139.077 28.9709 137.082 29.8512 135.298C28.7509 137.555 28.0356 140.074 28.0356 142.751Z" fill="#EAC06C"/>
<path d="M43.9352 131.309C43.9352 131.781 43.4951 132.568 43 132.568C42.5048 132.568 42.0647 131.781 42.0647 131.309C42.0647 130.836 42.5048 130.417 43 130.417C43.4951 130.417 43.9352 130.836 43.9352 131.309Z" fill="#E5A300"/>
<path d="M43 132.201C43.5165 132.201 43.9352 131.802 43.9352 131.309C43.9352 130.816 43.5165 130.417 43 130.417C42.4834 130.417 42.0647 130.816 42.0647 131.309C42.0647 131.802 42.4834 132.201 43 132.201Z" fill="#F7D27F"/>
<path d="M43.6602 130.679C44.0453 131.046 44.0453 131.571 43.6602 131.939C43.2751 132.306 42.725 132.306 42.3398 131.939" fill="#EFC273"/>
<path d="M43.1102 126.952C43.1102 127.005 43.0552 127.057 43.0002 127.057C42.9452 127.057 42.8901 127.005 42.8901 126.952V125.955C42.8901 125.903 42.9452 125.85 43.0002 125.85C43.0552 125.85 43.1102 125.903 43.1102 125.955V126.952Z" fill="#FFE0A1"/>
<path d="M43.1102 156.555C43.1102 156.607 43.0552 156.66 43.0002 156.66C42.9452 156.66 42.8901 156.607 42.8901 156.555V155.558C42.8901 155.505 42.9452 155.453 43.0002 155.453C43.0552 155.453 43.1102 155.505 43.1102 155.558V156.555Z" fill="#FFE0A1"/>
<path d="M53.6734 131.256C53.6183 131.309 53.5633 131.309 53.5083 131.256C53.4533 131.204 53.4533 131.151 53.5083 131.099L54.2785 130.364C54.3335 130.312 54.3886 130.312 54.4436 130.364C54.4986 130.417 54.4986 130.469 54.4436 130.522L53.6734 131.256Z" fill="#FFE0A1"/>
<path d="M31.7769 152.146C31.7219 152.198 31.6668 152.198 31.6118 152.146C31.5568 152.094 31.5568 152.041 31.6118 151.989L32.382 151.254C32.4371 151.201 32.4921 151.201 32.5471 151.254C32.6021 151.306 32.6021 151.359 32.5471 151.411L31.7769 152.146Z" fill="#FFE0A1"/>
<path d="M57.9645 141.386C57.9095 141.386 57.8545 141.334 57.8545 141.281C57.8545 141.229 57.9095 141.176 57.9645 141.176H59.0098C59.0648 141.176 59.1199 141.229 59.1199 141.281C59.1199 141.334 59.0648 141.386 59.0098 141.386H57.9645Z" fill="#FFE0A1"/>
<path d="M26.9904 141.386C26.9354 141.386 26.8804 141.334 26.8804 141.281C26.8804 141.229 26.9354 141.176 26.9904 141.176H28.0357C28.0907 141.124 28.1457 141.176 28.1457 141.229C28.1457 141.281 28.0907 141.334 28.0357 141.334H26.9904V141.386Z" fill="#FFE0A1"/>
<path d="M53.5083 151.464C53.4533 151.411 53.4533 151.359 53.5083 151.306C53.5633 151.254 53.6183 151.254 53.6734 151.306L54.4436 152.041C54.4986 152.094 54.4986 152.146 54.4436 152.198C54.3886 152.251 54.3335 152.251 54.2785 152.198L53.5083 151.464Z" fill="#FFE0A1"/>
<path d="M31.5566 130.522C31.5016 130.469 31.5016 130.417 31.5566 130.364C31.6117 130.312 31.6667 130.312 31.7217 130.364L32.4919 131.099C32.5469 131.151 32.5469 131.204 32.4919 131.256C32.4369 131.309 32.3819 131.309 32.3269 131.256L31.5566 130.522Z" fill="#FFE0A1"/>
<path d="M35.628 128.842C35.683 128.894 35.628 128.999 35.573 128.999C35.5179 129.052 35.4079 128.999 35.4079 128.947L34.8577 128.054C34.8027 128.002 34.8577 127.897 34.9128 127.897C34.9678 127.844 35.0778 127.897 35.0778 127.949L35.628 128.842Z" fill="#FFE0A1"/>
<path d="M51.1426 154.455C51.1976 154.508 51.1426 154.613 51.0876 154.613C51.0326 154.665 50.9226 154.613 50.9226 154.56L50.3724 153.668C50.3174 153.615 50.3724 153.511 50.4274 153.511C50.4824 153.458 50.5925 153.511 50.5925 153.563L51.1426 154.455Z" fill="#FFE0A1"/>
<path d="M47.0163 127.477C47.0163 127.53 46.9063 127.582 46.8512 127.582C46.7962 127.582 46.7412 127.477 46.7412 127.425L47.0163 126.427C47.0163 126.375 47.1263 126.323 47.1813 126.323C47.2364 126.323 47.2914 126.427 47.2914 126.48L47.0163 127.477Z" fill="#FFE0A1"/>
<path d="M38.9838 156.03C38.9838 156.082 38.8738 156.135 38.8188 156.135C38.7638 156.135 38.7087 156.03 38.7087 155.977L38.9838 154.98C38.9838 154.928 39.0939 154.875 39.1489 154.875C39.2039 154.875 39.2589 154.98 39.2589 155.033L38.9838 156.03Z" fill="#FFE0A1"/>
<path d="M56.0389 134.196C55.9839 134.248 55.8739 134.196 55.8739 134.143C55.8188 134.091 55.8739 133.986 55.9289 133.986L56.8642 133.461C56.9192 133.408 57.0292 133.461 57.0292 133.513C57.0842 133.566 57.0292 133.671 56.9742 133.671L56.0389 134.196Z" fill="#FFE0A1"/>
<path d="M29.191 148.997C29.136 149.049 29.026 148.997 29.026 148.944C28.9709 148.892 29.026 148.787 29.081 148.787L30.0163 148.262C30.0713 148.209 30.1813 148.262 30.1813 148.314C30.2363 148.367 30.1813 148.472 30.1263 148.472L29.191 148.997Z" fill="#FFE0A1"/>
<path d="M57.4145 145.06C57.3595 145.06 57.3044 144.955 57.3044 144.903C57.3044 144.85 57.4145 144.798 57.4695 144.798L58.5148 145.06C58.5698 145.06 58.6248 145.165 58.6248 145.218C58.6248 145.27 58.5148 145.323 58.4598 145.323L57.4145 145.06Z" fill="#FFE0A1"/>
<path d="M27.4855 137.397C27.4305 137.397 27.3755 137.292 27.3755 137.24C27.3755 137.187 27.4855 137.135 27.5405 137.135L28.5858 137.397C28.6409 137.397 28.6959 137.502 28.6959 137.555C28.6959 137.607 28.5858 137.66 28.5308 137.66L27.4855 137.397Z" fill="#FFE0A1"/>
<path d="M30.1263 133.986C30.1813 134.038 30.2363 134.091 30.1813 134.143C30.1263 134.196 30.0713 134.248 30.0163 134.196L29.081 133.671C29.026 133.618 28.9709 133.566 29.026 133.513C29.081 133.461 29.136 133.408 29.191 133.461L30.1263 133.986Z" fill="#FFE0A1"/>
<path d="M56.9742 148.787C57.0292 148.839 57.0842 148.892 57.0292 148.944C56.9742 148.997 56.9192 149.049 56.8642 148.997L55.9289 148.472C55.8739 148.419 55.8188 148.367 55.8739 148.314C55.9289 148.262 55.9839 148.209 56.0389 148.262L56.9742 148.787Z" fill="#FFE0A1"/>
<path d="M39.2589 127.425C39.2589 127.477 39.2589 127.582 39.1489 127.582C39.0939 127.582 38.9838 127.582 38.9838 127.477L38.7087 126.48C38.7087 126.427 38.7087 126.323 38.8188 126.323C38.8738 126.323 38.9838 126.323 38.9838 126.427L39.2589 127.425Z" fill="#FFE0A1"/>
<path d="M47.2914 155.977C47.2914 156.03 47.2914 156.135 47.1813 156.135C47.1263 156.135 47.0163 156.135 47.0163 156.03L46.7412 155.033C46.7412 154.98 46.7412 154.875 46.8512 154.875C46.9063 154.875 47.0163 154.875 47.0163 154.98L47.2914 155.977Z" fill="#FFE0A1"/>
<path d="M50.5925 128.947C50.5374 128.999 50.4824 129.052 50.4274 128.999C50.3724 128.947 50.3174 128.894 50.3724 128.842L50.9226 127.949C50.9776 127.897 51.0326 127.844 51.0876 127.897C51.1426 127.949 51.1976 128.002 51.1426 128.054L50.5925 128.947Z" fill="#FFE0A1"/>
<path d="M35.0778 154.56C35.0228 154.613 34.9678 154.665 34.9128 154.613C34.8577 154.56 34.8027 154.508 34.8577 154.455L35.4079 153.563C35.4629 153.511 35.5179 153.458 35.573 153.511C35.628 153.563 35.683 153.615 35.628 153.668L35.0778 154.56Z" fill="#FFE0A1"/>
<path d="M57.4695 137.66C57.4145 137.66 57.3044 137.66 57.3044 137.555C57.3044 137.502 57.3044 137.397 57.4145 137.397L58.4598 137.135C58.5148 137.135 58.6248 137.135 58.6248 137.24C58.6248 137.292 58.6248 137.397 58.5148 137.397L57.4695 137.66Z" fill="#FFE0A1"/>
<path d="M27.5405 145.323C27.4855 145.323 27.3755 145.323 27.3755 145.218C27.3755 145.165 27.3755 145.06 27.4855 145.06L28.5308 144.798C28.5858 144.798 28.6959 144.798 28.6959 144.903C28.6959 144.955 28.6959 145.06 28.5858 145.06L27.5405 145.323Z" fill="#FFE0A1"/>
<path d="M44.3205 135.035H42.8351C42.67 135.035 42.505 135.088 42.3399 135.14L39.4791 136.61C39.039 136.82 38.8189 137.292 38.9289 137.764L39.259 139.077C39.314 139.392 39.5341 139.654 39.8642 139.759C40.1393 139.864 40.5244 139.864 40.7995 139.706L41.5697 139.339V148.577C41.5697 149.154 42.0648 149.574 42.615 149.574H44.3205C44.9257 149.574 45.3658 149.102 45.3658 148.577V136.032C45.3658 135.508 44.8707 135.035 44.3205 135.035Z" fill="#F5E3BE"/>
</g>
<path d="M42.8047 118.644H43.5863V122.552C43.5863 122.768 43.4113 122.943 43.1955 122.943V122.943C42.9797 122.943 42.8047 122.768 42.8047 122.552V118.644Z" fill="#DBCCCC"/>
<rect x="38.115" y="78" width="10.3563" height="40.6437" rx="3" fill="#4F6B2B"/>
<path d="M39.092 116.785L38.992 116.885V117.105C38.992 117.16 39.0368 117.205 39.092 117.205V117.444C39.0368 117.444 38.992 117.489 38.992 117.544V117.984C38.992 118.039 39.0368 118.084 39.092 118.084V118.324C39.0368 118.324 38.992 118.369 38.992 118.424V118.644L39.092 118.744H39.283C39.3382 118.744 39.383 118.699 39.383 118.644H39.5649C39.5649 118.699 39.6097 118.744 39.6649 118.744H40.0468C40.1021 118.744 40.1468 118.699 40.1468 118.644H40.3288C40.3288 118.699 40.3735 118.744 40.4288 118.744H40.8107C40.8659 118.744 40.9107 118.699 40.9107 118.644H41.0926C41.0926 118.699 41.1374 118.744 41.1926 118.744H41.5745C41.6298 118.744 41.6745 118.699 41.6745 118.644H41.8565C41.8565 118.699 41.9012 118.744 41.9565 118.744H42.3384C42.3936 118.744 42.4384 118.699 42.4384 118.644H42.6203C42.6203 118.699 42.6651 118.744 42.7203 118.744H43.1022C43.1575 118.744 43.2022 118.699 43.2022 118.644H43.3842C43.3842 118.699 43.4289 118.744 43.4842 118.744H43.8661C43.9213 118.744 43.9661 118.699 43.9661 118.644H44.148C44.148 118.699 44.1928 118.744 44.248 118.744H44.6299C44.6851 118.744 44.7299 118.699 44.7299 118.644H44.9118C44.9118 118.699 44.9566 118.744 45.0118 118.744H45.3938C45.449 118.744 45.4938 118.699 45.4938 118.644H45.6757C45.6757 118.699 45.7205 118.744 45.7757 118.744H46.1576C46.2128 118.744 46.2576 118.699 46.2576 118.644H46.4395C46.4395 118.699 46.4843 118.744 46.5395 118.744H46.9215C46.9767 118.744 47.0215 118.699 47.0215 118.644H47.2034C47.2034 118.699 47.2482 118.744 47.3034 118.744H47.4943L47.5943 118.644V118.424C47.5943 118.369 47.5496 118.324 47.4943 118.324V118.084C47.5496 118.084 47.5943 118.039 47.5943 117.984V117.544C47.5943 117.489 47.5496 117.444 47.4943 117.444V117.205C47.5496 117.205 47.5943 117.16 47.5943 117.105V116.885L47.4943 116.785H47.3034C47.2481 116.785 47.2034 116.83 47.2034 116.885H47.0215C47.0215 116.83 46.9767 116.785 46.9215 116.785H46.5395C46.4843 116.785 46.4395 116.83 46.4395 116.885H46.2576C46.2576 116.83 46.2128 116.785 46.1576 116.785H45.7757C45.7205 116.785 45.6757 116.83 45.6757 116.885H45.4938C45.4938 116.83 45.449 116.785 45.3938 116.785H45.0118C44.9566 116.785 44.9118 116.83 44.9118 116.885H44.7299C44.7299 116.83 44.6851 116.785 44.6299 116.785H44.248C44.1928 116.785 44.148 116.83 44.148 116.885H43.9661C43.9661 116.83 43.9213 116.785 43.8661 116.785H43.4842C43.4289 116.785 43.3842 116.83 43.3842 116.885H43.2022C43.2022 116.83 43.1575 116.785 43.1022 116.785H42.7203C42.6651 116.785 42.6203 116.83 42.6203 116.885H42.4384C42.4384 116.83 42.3936 116.785 42.3384 116.785H41.9565C41.9012 116.785 41.8565 116.83 41.8565 116.885H41.6745C41.6745 116.83 41.6298 116.785 41.5745 116.785H41.1926C41.1374 116.785 41.0926 116.83 41.0926 116.885H40.9107C40.9107 116.83 40.8659 116.785 40.8107 116.785H40.4288C40.3735 116.785 40.3288 116.83 40.3288 116.885H40.1468C40.1468 116.83 40.1021 116.785 40.0468 116.785H39.6649C39.6097 116.785 39.5649 116.83 39.5649 116.885H39.383C39.383 116.83 39.3382 116.785 39.283 116.785H39.092Z" fill="url(#paint5_angular_129_5)" stroke="black" stroke-width="0.2" stroke-miterlimit="1.41421" stroke-linecap="round" stroke-dasharray="0.4 0.4"/>
<path d="M201 127L209 127C206.671 121.667 203.937 121.667 201 127Z" fill="#ECBE40"/>
<ellipse cx="205.195" cy="124.822" rx="1.17241" ry="1.07471" fill="#6E5F5F"/>
<g clip-path="url(#clip2_129_5)">
<path d="M205 158.92C195.922 158.92 188.495 151.834 188.495 143.174C188.495 134.513 195.922 127.427 205 127.427C214.078 127.427 221.505 134.513 221.505 143.174C221.505 151.834 214.078 158.92 205 158.92Z" fill="#DBAB56"/>
<path d="M205 156.978C213.538 156.978 220.46 150.374 220.46 142.229C220.46 134.083 213.538 127.48 205 127.48C196.462 127.48 189.541 134.083 189.541 142.229C189.541 150.374 196.462 156.978 205 156.978Z" fill="#EFB30C"/>
<path d="M191.356 144.013C191.356 135.878 198.288 129.265 206.816 129.265C210.612 129.265 214.078 130.577 216.774 132.729C213.968 129.527 209.731 127.48 205 127.48C196.473 127.48 189.541 134.093 189.541 142.229C189.541 146.743 191.686 150.784 195.042 153.513C192.731 150.942 191.356 147.635 191.356 144.013Z" fill="#E5A300"/>
<path d="M212.594 127.947C216.846 134.585 216.846 145.326 212.594 151.964C208.342 158.602 201.462 158.602 197.21 151.964" fill="url(#paint6_angular_129_5)" fill-opacity="0.17"/>
<path d="M204.991 158.447C195.914 158.447 188.487 151.361 188.487 142.701C188.487 134.041 195.914 126.955 204.991 126.955C214.069 126.955 221.496 134.041 221.496 142.701C221.496 151.361 214.069 158.447 204.991 158.447ZM204.991 128.95C197.014 128.95 190.577 135.143 190.577 142.701C190.577 150.312 197.069 156.453 204.991 156.453C212.914 156.453 219.406 150.259 219.406 142.701C219.406 135.143 212.969 128.95 204.991 128.95Z" fill="#F7D27F"/>
<path d="M190.036 143.751C190.036 147.74 191.576 151.361 194.107 154.091C197.023 156.505 200.819 157.975 204.945 157.975C207.751 157.975 210.337 157.292 212.647 156.138C210.777 156.977 208.686 157.45 206.485 157.45C202.139 157.45 198.178 155.56 195.537 152.621C192.456 150.102 190.476 146.375 190.476 142.176C190.476 140.077 190.971 138.082 191.851 136.298C190.751 138.555 190.036 141.074 190.036 143.751Z" fill="#EAC06C"/>
<path d="M205.935 132.309C205.935 132.781 205.495 133.568 205 133.568C204.505 133.568 204.065 132.781 204.065 132.309C204.065 131.836 204.505 131.417 205 131.417C205.495 131.417 205.935 131.836 205.935 132.309Z" fill="#E5A300"/>
<path d="M205 133.201C205.517 133.201 205.935 132.802 205.935 132.309C205.935 131.816 205.517 131.417 205 131.417C204.483 131.417 204.065 131.816 204.065 132.309C204.065 132.802 204.483 133.201 205 133.201Z" fill="#F7D27F"/>
<path d="M205.66 131.679C206.045 132.046 206.045 132.571 205.66 132.939C205.275 133.306 204.725 133.306 204.34 132.939" fill="#EFC273"/>
<path d="M205.11 127.952C205.11 128.005 205.055 128.057 205 128.057C204.945 128.057 204.89 128.005 204.89 127.952V126.955C204.89 126.903 204.945 126.85 205 126.85C205.055 126.85 205.11 126.903 205.11 126.955V127.952Z" fill="#FFE0A1"/>
<path d="M205.11 157.555C205.11 157.607 205.055 157.66 205 157.66C204.945 157.66 204.89 157.607 204.89 157.555V156.558C204.89 156.505 204.945 156.453 205 156.453C205.055 156.453 205.11 156.505 205.11 156.558V157.555Z" fill="#FFE0A1"/>
<path d="M215.673 132.256C215.618 132.309 215.563 132.309 215.508 132.256C215.453 132.204 215.453 132.151 215.508 132.099L216.279 131.364C216.334 131.312 216.389 131.312 216.444 131.364C216.499 131.417 216.499 131.469 216.444 131.522L215.673 132.256Z" fill="#FFE0A1"/>
<path d="M193.777 153.146C193.722 153.198 193.667 153.198 193.612 153.146C193.557 153.094 193.557 153.041 193.612 152.989L194.382 152.254C194.437 152.201 194.492 152.201 194.547 152.254C194.602 152.306 194.602 152.359 194.547 152.411L193.777 153.146Z" fill="#FFE0A1"/>
<path d="M219.965 142.386C219.91 142.386 219.854 142.334 219.854 142.281C219.854 142.229 219.91 142.176 219.965 142.176H221.01C221.065 142.176 221.12 142.229 221.12 142.281C221.12 142.334 221.065 142.386 221.01 142.386H219.965Z" fill="#FFE0A1"/>
<path d="M188.99 142.386C188.935 142.386 188.88 142.334 188.88 142.281C188.88 142.229 188.935 142.176 188.99 142.176H190.036C190.091 142.124 190.146 142.176 190.146 142.229C190.146 142.281 190.091 142.334 190.036 142.334H188.99V142.386Z" fill="#FFE0A1"/>
<path d="M215.508 152.464C215.453 152.411 215.453 152.359 215.508 152.306C215.563 152.254 215.618 152.254 215.673 152.306L216.444 153.041C216.499 153.094 216.499 153.146 216.444 153.198C216.389 153.251 216.334 153.251 216.279 153.198L215.508 152.464Z" fill="#FFE0A1"/>
<path d="M193.557 131.522C193.502 131.469 193.502 131.417 193.557 131.364C193.612 131.312 193.667 131.312 193.722 131.364L194.492 132.099C194.547 132.151 194.547 132.204 194.492 132.256C194.437 132.309 194.382 132.309 194.327 132.256L193.557 131.522Z" fill="#FFE0A1"/>
<path d="M197.628 129.842C197.683 129.894 197.628 129.999 197.573 129.999C197.518 130.052 197.408 129.999 197.408 129.947L196.858 129.054C196.803 129.002 196.858 128.897 196.913 128.897C196.968 128.844 197.078 128.897 197.078 128.949L197.628 129.842Z" fill="#FFE0A1"/>
<path d="M213.143 155.455C213.198 155.508 213.143 155.613 213.088 155.613C213.033 155.665 212.923 155.613 212.923 155.56L212.372 154.668C212.317 154.615 212.372 154.511 212.427 154.511C212.482 154.458 212.592 154.511 212.592 154.563L213.143 155.455Z" fill="#FFE0A1"/>
<path d="M209.016 128.477C209.016 128.53 208.906 128.582 208.851 128.582C208.796 128.582 208.741 128.477 208.741 128.425L209.016 127.427C209.016 127.375 209.126 127.323 209.181 127.323C209.236 127.323 209.291 127.427 209.291 127.48L209.016 128.477Z" fill="#FFE0A1"/>
<path d="M200.984 157.03C200.984 157.082 200.874 157.135 200.819 157.135C200.764 157.135 200.709 157.03 200.709 156.977L200.984 155.98C200.984 155.928 201.094 155.875 201.149 155.875C201.204 155.875 201.259 155.98 201.259 156.033L200.984 157.03Z" fill="#FFE0A1"/>
<path d="M218.039 135.196C217.984 135.248 217.874 135.196 217.874 135.143C217.819 135.091 217.874 134.986 217.929 134.986L218.864 134.461C218.919 134.408 219.029 134.461 219.029 134.513C219.084 134.566 219.029 134.671 218.974 134.671L218.039 135.196Z" fill="#FFE0A1"/>
<path d="M191.191 149.997C191.136 150.049 191.026 149.997 191.026 149.944C190.971 149.892 191.026 149.787 191.081 149.787L192.016 149.262C192.071 149.209 192.181 149.262 192.181 149.314C192.236 149.367 192.181 149.472 192.126 149.472L191.191 149.997Z" fill="#FFE0A1"/>
<path d="M219.414 146.06C219.359 146.06 219.304 145.955 219.304 145.903C219.304 145.85 219.414 145.798 219.469 145.798L220.515 146.06C220.57 146.06 220.625 146.165 220.625 146.218C220.625 146.27 220.515 146.323 220.46 146.323L219.414 146.06Z" fill="#FFE0A1"/>
<path d="M189.486 138.397C189.431 138.397 189.375 138.292 189.375 138.24C189.375 138.187 189.486 138.135 189.541 138.135L190.586 138.397C190.641 138.397 190.696 138.502 190.696 138.555C190.696 138.607 190.586 138.66 190.531 138.66L189.486 138.397Z" fill="#FFE0A1"/>
<path d="M192.126 134.986C192.181 135.038 192.236 135.091 192.181 135.143C192.126 135.196 192.071 135.248 192.016 135.196L191.081 134.671C191.026 134.618 190.971 134.566 191.026 134.513C191.081 134.461 191.136 134.408 191.191 134.461L192.126 134.986Z" fill="#FFE0A1"/>
<path d="M218.974 149.787C219.029 149.839 219.084 149.892 219.029 149.944C218.974 149.997 218.919 150.049 218.864 149.997L217.929 149.472C217.874 149.419 217.819 149.367 217.874 149.314C217.929 149.262 217.984 149.209 218.039 149.262L218.974 149.787Z" fill="#FFE0A1"/>
<path d="M201.259 128.425C201.259 128.477 201.259 128.582 201.149 128.582C201.094 128.582 200.984 128.582 200.984 128.477L200.709 127.48C200.709 127.427 200.709 127.323 200.819 127.323C200.874 127.323 200.984 127.323 200.984 127.427L201.259 128.425Z" fill="#FFE0A1"/>
<path d="M209.291 156.977C209.291 157.03 209.291 157.135 209.181 157.135C209.126 157.135 209.016 157.135 209.016 157.03L208.741 156.033C208.741 155.98 208.741 155.875 208.851 155.875C208.906 155.875 209.016 155.875 209.016 155.98L209.291 156.977Z" fill="#FFE0A1"/>
<path d="M212.592 129.947C212.537 129.999 212.482 130.052 212.427 129.999C212.372 129.947 212.317 129.894 212.372 129.842L212.923 128.949C212.978 128.897 213.033 128.844 213.088 128.897C213.143 128.949 213.198 129.002 213.143 129.054L212.592 129.947Z" fill="#FFE0A1"/>
<path d="M197.078 155.56C197.023 155.613 196.968 155.665 196.913 155.613C196.858 155.56 196.803 155.508 196.858 155.455L197.408 154.563C197.463 154.511 197.518 154.458 197.573 154.511C197.628 154.563 197.683 154.615 197.628 154.668L197.078 155.56Z" fill="#FFE0A1"/>
<path d="M219.469 138.66C219.414 138.66 219.304 138.66 219.304 138.555C219.304 138.502 219.304 138.397 219.414 138.397L220.46 138.135C220.515 138.135 220.625 138.135 220.625 138.24C220.625 138.292 220.625 138.397 220.515 138.397L219.469 138.66Z" fill="#FFE0A1"/>
<path d="M189.541 146.323C189.486 146.323 189.375 146.323 189.375 146.218C189.375 146.165 189.375 146.06 189.486 146.06L190.531 145.798C190.586 145.798 190.696 145.798 190.696 145.903C190.696 145.955 190.696 146.06 190.586 146.06L189.541 146.323Z" fill="#FFE0A1"/>
<path d="M206.321 136.035H204.835C204.67 136.035 204.505 136.088 204.34 136.14L201.479 137.61C201.039 137.82 200.819 138.292 200.929 138.764L201.259 140.077C201.314 140.392 201.534 140.654 201.864 140.759C202.139 140.864 202.524 140.864 202.799 140.706L203.57 140.339V149.577C203.57 150.154 204.065 150.574 204.615 150.574H206.321C206.926 150.574 207.366 150.102 207.366 149.577V137.032C207.366 136.508 206.871 136.035 206.321 136.035Z" fill="#F5E3BE"/>
</g>
<path d="M204.805 119.644H205.586V123.552C205.586 123.768 205.411 123.943 205.195 123.943V123.943C204.98 123.943 204.805 123.768 204.805 123.552V119.644Z" fill="#DBCCCC"/>
<rect x="200.115" y="79" width="10.3563" height="40.6437" rx="3" fill="#4F6B2B"/>
<path d="M201.092 117.785L200.992 117.885V118.105C200.992 118.16 201.037 118.205 201.092 118.205V118.444C201.037 118.444 200.992 118.489 200.992 118.544V118.984C200.992 119.039 201.037 119.084 201.092 119.084V119.324C201.037 119.324 200.992 119.369 200.992 119.424V119.644L201.092 119.744H201.283C201.338 119.744 201.383 119.699 201.383 119.644H201.565C201.565 119.699 201.61 119.744 201.665 119.744H202.047C202.102 119.744 202.147 119.699 202.147 119.644H202.329C202.329 119.699 202.374 119.744 202.429 119.744H202.811C202.866 119.744 202.911 119.699 202.911 119.644H203.093C203.093 119.699 203.137 119.744 203.193 119.744H203.575C203.63 119.744 203.675 119.699 203.675 119.644H203.856C203.856 119.699 203.901 119.744 203.956 119.744H204.338C204.394 119.744 204.438 119.699 204.438 119.644H204.62C204.62 119.699 204.665 119.744 204.72 119.744H205.102C205.157 119.744 205.202 119.699 205.202 119.644H205.384C205.384 119.699 205.429 119.744 205.484 119.744H205.866C205.921 119.744 205.966 119.699 205.966 119.644H206.148C206.148 119.699 206.193 119.744 206.248 119.744H206.63C206.685 119.744 206.73 119.699 206.73 119.644H206.912C206.912 119.699 206.957 119.744 207.012 119.744H207.394C207.449 119.744 207.494 119.699 207.494 119.644H207.676C207.676 119.699 207.72 119.744 207.776 119.744H208.158C208.213 119.744 208.258 119.699 208.258 119.644H208.44C208.44 119.699 208.484 119.744 208.54 119.744H208.921C208.977 119.744 209.021 119.699 209.021 119.644H209.203C209.203 119.699 209.248 119.744 209.303 119.744H209.494L209.594 119.644V119.424C209.594 119.369 209.55 119.324 209.494 119.324V119.084C209.55 119.084 209.594 119.039 209.594 118.984V118.544C209.594 118.489 209.55 118.444 209.494 118.444V118.205C209.55 118.205 209.594 118.16 209.594 118.105V117.885L209.494 117.785H209.303C209.248 117.785 209.203 117.83 209.203 117.885H209.021C209.021 117.83 208.977 117.785 208.921 117.785H208.54C208.484 117.785 208.44 117.83 208.44 117.885H208.258C208.258 117.83 208.213 117.785 208.158 117.785H207.776C207.72 117.785 207.676 117.83 207.676 117.885H207.494C207.494 117.83 207.449 117.785 207.394 117.785H207.012C206.957 117.785 206.912 117.83 206.912 117.885H206.73C206.73 117.83 206.685 117.785 206.63 117.785H206.248C206.193 117.785 206.148 117.83 206.148 117.885H205.966C205.966 117.83 205.921 117.785 205.866 117.785H205.484C205.429 117.785 205.384 117.83 205.384 117.885H205.202C205.202 117.83 205.157 117.785 205.102 117.785H204.72C204.665 117.785 204.62 117.83 204.62 117.885H204.438C204.438 117.83 204.394 117.785 204.338 117.785H203.956C203.901 117.785 203.856 117.83 203.856 117.885H203.675C203.675 117.83 203.63 117.785 203.575 117.785H203.193C203.137 117.785 203.093 117.83 203.093 117.885H202.911C202.911 117.83 202.866 117.785 202.811 117.785H202.429C202.374 117.785 202.329 117.83 202.329 117.885H202.147C202.147 117.83 202.102 117.785 202.047 117.785H201.665C201.61 117.785 201.565 117.83 201.565 117.885H201.383C201.383 117.83 201.338 117.785 201.283 117.785H201.092Z" fill="url(#paint7_angular_129_5)" stroke="black" stroke-width="0.2" stroke-miterlimit="1.41421" stroke-linecap="round" stroke-dasharray="0.4 0.4"/>
<defs>
<radialGradient id="paint0_radial_129_5" cx="0" cy="0" r="1" gradientUnits="userSpaceOnUse" gradientTransform="translate(245.806 53.5) rotate(137.405) scale(7.56631 6.87787)">
<stop stop-color="#ABA7A7"/>
<stop offset="0.416667" stop-color="white"/>
</radialGradient>
<radialGradient id="paint1_radial_129_5" cx="0" cy="0" r="1" gradientUnits="userSpaceOnUse" gradientTransform="translate(8.17361 53.4999) rotate(137.854) scale(7.82422 7.10206)">
<stop stop-color="#ABA7A7"/>
<stop offset="0.4375" stop-color="white"/>
</radialGradient>
<linearGradient id="paint2_linear_129_5" x1="124.704" y1="130.992" x2="133.819" y2="148.756" gradientUnits="userSpaceOnUse">
<stop stop-color="white"/>
<stop offset="0.932292" stop-color="#EDEAE3"/>
</linearGradient>
<radialGradient id="paint3_angular_129_5" cx="0" cy="0" r="1" gradientUnits="userSpaceOnUse" gradientTransform="translate(126.784 118.306) rotate(-159.007) scale(4.36748 43.6027)">
<stop stop-color="#ECD8A1"/>
<stop offset="1" stop-color="#ECC456"/>
</radialGradient>
<radialGradient id="paint4_angular_129_5" cx="0" cy="0" r="1" gradientUnits="userSpaceOnUse" gradientTransform="translate(43.2257 139.354) rotate(75.0715) scale(8.05886 10)">
<stop offset="0.214672" stop-color="#BEB5B5"/>
<stop offset="0.448522" stop-color="white"/>
<stop offset="0.932292" stop-color="#FFFDFD"/>
</radialGradient>
<radialGradient id="paint5_angular_129_5" cx="0" cy="0" r="1" gradientUnits="userSpaceOnUse" gradientTransform="translate(43.2932 118.497) rotate(-159.007) scale(4.49982 44.924)">
<stop stop-color="#ECD8A1"/>
<stop offset="1" stop-color="#ECC456"/>
</radialGradient>
<radialGradient id="paint6_angular_129_5" cx="0" cy="0" r="1" gradientUnits="userSpaceOnUse" gradientTransform="translate(205.226 140.354) rotate(75.0715) scale(8.05886 10)">
<stop offset="0.214672" stop-color="#BEB5B5"/>
<stop offset="0.448522" stop-color="white"/>
<stop offset="0.932292" stop-color="#FFFDFD"/>
</radialGradient>
<radialGradient id="paint7_angular_129_5" cx="0" cy="0" r="1" gradientUnits="userSpaceOnUse" gradientTransform="translate(205.293 119.497) rotate(-159.007) scale(4.49982 44.924)">
<stop stop-color="#ECD8A1"/>
<stop offset="1" stop-color="#ECC456"/>
</radialGradient>
<clipPath id="clip0_129_5">
<rect width="33" height="31.4828" fill="white" transform="translate(110 125.086)"/>
</clipPath>
<clipPath id="clip1_129_5">
<rect width="34" height="32.4368" fill="white" transform="translate(26 125.483)"/>
</clipPath>
<clipPath id="clip2_129_5">
<rect width="34" height="32.4368" fill="white" transform="translate(188 126.483)"/>
</clipPath>
</defs>
</svg>
