<svg width="257" height="439" viewBox="0 0 257 439" fill="none" xmlns="http://www.w3.org/2000/svg">
<path d="M22.7129 276.652C22.7129 276.652 17.5119 289.496 17.4137 291.391C17.2829 293.287 17.7408 306.752 16.2688 308.843C14.7968 310.902 12.5724 308.778 12.507 304.824C12.4416 300.869 12.4089 291.064 12.965 289.463C13.5538 287.829 14.3388 281.456 14.9931 279.691C15.68 277.926 21.8297 270.279 22.7129 276.652V276.652Z" fill="#FECBC6"/>
<path d="M15.8437 281.064C16.9559 283.482 13.9137 291.685 14.1427 292.404C14.3717 293.123 16.7596 302.242 17.2176 305.477C17.7082 308.68 14.7969 308.745 13.1614 305.216C11.5258 301.719 9.85752 295.019 9.72668 293.777C9.59583 292.535 8.84347 282.502 9.10516 279.92C9.36685 277.305 14.2081 277.534 15.8437 281.064V281.064Z" fill="#FECBC6"/>
<path d="M12.5398 279.756C13.6847 282.207 11.2641 290.705 11.4931 291.424C11.7221 292.143 15.9745 299.366 16.4652 302.568C16.9231 305.771 14.0118 305.837 12.3763 302.307C10.7734 298.81 6.45553 293.123 6.32469 291.881C6.22656 290.639 6.9462 281.456 7.17517 278.874C7.43687 276.292 10.9043 276.259 12.5398 279.756V279.756Z" fill="#FECBC6"/>
<path d="M23.8908 277.109C23.6291 278.351 22.0262 280.802 20.0962 283.188C19.333 282.905 18.5588 282.643 17.7737 282.404C14.8624 281.489 11.9184 280.802 9.03984 279.822C8.38561 279.604 7.74228 279.375 7.10986 279.136C7.96036 272.403 13.554 257.337 20.7505 261.945C20.7505 261.945 24.4796 274.331 23.8908 277.109Z" fill="#FECBC6"/>
<path d="M20.5869 261.847C20.5869 261.847 26.0824 262.991 27.4562 265.213C28.4376 266.815 29.3535 276.881 29.7133 277.404C30.0732 277.894 25.9188 286.587 25.101 287.698C24.2506 288.842 22.4514 288.221 21.8626 285.084C21.2738 281.946 23.7272 277.665 23.7272 277.665C23.7272 277.665 17.6102 272.436 16.7924 268.841C15.9746 265.279 20.5869 261.847 20.5869 261.847V261.847Z" fill="#FECBC6"/>
<path d="M26.0168 268.351L11.7874 267.73L12.6705 247.303L26.8673 247.892L26.0168 268.351Z" fill="#FECBC6"/>
<path d="M5.57235 215.275C5.87765 214.447 6.17204 213.619 6.45553 212.791C14.8623 189.032 20.8485 164.422 24.3159 139.453C25.6571 129.714 26.7366 119.615 31.5778 111.053C36.2883 102.719 45.7418 96.215 55.0645 97.9144C67.0696 128.407 65.5321 164.128 49.5036 193.084C47.9662 204.719 46.854 216.419 46.1998 228.119C45.8399 234.982 45.5783 242.074 42.6997 248.284C39.7884 254.559 33.4097 262.141 26.5076 261.455C19.1475 260.736 11.8856 258.873 5.08168 255.964C0.89463 250.408 -0.479277 242.924 0.142238 235.93C0.796464 228.806 3.18442 222.008 5.57235 215.275Z" fill="#E6D05E"/>
<path d="M53.5924 184.097C53.7887 183.857 53.9958 183.628 54.2139 183.41C52.8182 186.7 51.2481 189.925 49.5035 193.084C47.966 204.719 46.8539 216.419 46.1996 228.119C45.8398 234.982 45.5781 242.074 42.6995 248.284C39.7882 254.559 33.4095 262.141 26.5075 261.455C22.3204 261.03 18.1661 260.245 14.1099 259.134C22.6148 255.114 28.0776 250.931 34.0965 242.891C37.8255 238.152 46.2651 209.687 44.8585 201.647C44.237 197.529 36.0264 197.921 36.1573 195.437C36.2554 192.953 47.9988 193.901 53.5924 184.097Z" fill="#CFB846"/>
<path d="M118.59 64.3172C118.59 90.2667 103.445 111.281 84.7664 111.281C66.0882 111.281 50.9429 90.2667 50.9429 64.3172C50.9429 38.4005 66.0882 17.386 84.7664 17.386C103.445 17.386 118.59 38.4005 118.59 64.3172Z" fill="#623838"/>
<path d="M107.533 103.34C107.533 112.098 103.608 128.08 94.9722 128.08C86.3037 128.08 58.4337 112.098 58.4337 103.34C58.4337 97.5223 63.2423 96.2477 70.4715 96.019V79.8087H95.4956V96.019C102.692 96.2477 107.533 97.5223 107.533 103.34V103.34Z" fill="#FECBC6"/>
<path d="M41.4238 241.29C61.7048 194.587 51.1064 109.549 49.1437 98.4699C54.2466 96.6724 57.4851 96.1494 69.5555 94.8095C69.5555 94.8095 81.2008 125.334 92.4535 125.334C100.991 125.334 96.5424 94.6134 96.5424 94.6134C96.5424 94.6134 121.043 98.7313 126.342 100.594C124.38 111.673 125.296 121.935 129.057 132.557C130.693 137.133 132.885 141.708 132.852 146.578C132.819 153.277 128.763 158.801 123.66 163.474C123.496 177.822 116.169 192.169 117.445 206.418C118.361 216.386 123.496 228.119 125.492 237.924C122.155 241.584 107.926 247.63 88.0701 247.63C66.9386 247.63 44.7604 244.95 41.4238 241.29V241.29Z" fill="#E6D05E"/>
<path d="M52.3166 199.065C52.0985 199.544 51.8259 200.034 51.4988 200.535C54.868 173.246 53.7232 143.767 52.0222 123.341C52.5783 124.354 52.9708 125.432 52.9708 126.511C53.9521 135.662 53.8213 145.63 57.4196 154.127C60.3636 161.971 77.4389 162.363 77.4389 163.703C77.4389 165.043 65.859 163.605 61.6066 163.605C57.027 163.605 55.2606 170.631 54.9335 174.88C54.6064 183.051 56.2419 191.875 52.3166 199.065V199.065Z" fill="#CFB846"/>
<path d="M125.655 117.719C126.146 122.654 127.291 127.557 129.057 132.557C130.693 137.132 132.885 141.708 132.852 146.578C132.819 153.277 128.763 158.801 123.66 163.474C123.638 163.539 123.627 163.605 123.627 163.67C121.959 163.932 120.291 164.291 118.524 164.291C134.226 154.813 128.992 137.165 125.721 122.131C125.296 120.628 125.132 119.125 125.655 117.719V117.719Z" fill="#CFB846"/>
<path d="M114.697 163.637C112.407 165.925 102.79 166.742 98.4724 166.775C94.1872 166.775 84.5373 166.023 82.2476 163.735C82.3784 163.343 84.2429 163.408 87.1543 163.572C90.9815 163.768 94.4489 163.931 98.4724 163.931C102.496 163.899 105.963 163.735 109.79 163.507C112.702 163.31 114.566 163.245 114.697 163.637Z" fill="#CFB846"/>
<path d="M104.557 124.615C102.038 124.158 93.5985 125.988 92.9116 125.301C92.2247 124.582 97.2295 116.902 97.0659 113.699C96.9351 111.542 96.2481 102.326 95.7575 93.8615C97.7856 93.9595 102.202 94.6131 103.216 96.7375C104.23 98.8618 110.837 120.595 113.029 134.158C110.118 131.674 107.108 125.073 104.557 124.615V124.615Z" fill="#FFEE99"/>
<path d="M70.0462 133.603C70.0462 133.603 58.5318 107.947 64.5834 95.5283C66.3825 94.5478 68.1817 93.9595 70.2425 93.8615C72.2051 103.045 76.0651 107.522 81.8223 115.432C83.098 117.196 92.6824 124.517 91.9955 125.236C91.2758 125.922 80.9391 123.961 78.3876 124.386C75.8688 124.844 72.9575 131.119 70.0462 133.603V133.603Z" fill="#FFEE99"/>
<path d="M112.001 54.7763C114.258 52.554 117.987 51.933 120.473 53.9266C122.959 55.9202 123.712 59.5479 122.828 62.5873C121.945 65.6594 119.623 68.1432 116.94 69.8427C114.258 71.5421 111.216 72.5553 108.174 73.5357C106.342 74.1567 110.921 55.8548 112.001 54.7763V54.7763Z" fill="#FECBC6"/>
<path d="M59.107 73.5357C56.0648 72.5553 53.0227 71.5421 50.3404 69.8427C47.6581 68.1432 45.3356 65.6594 44.4524 62.5873C43.5691 59.5479 44.3215 55.9202 46.8075 53.9266C49.2936 51.933 53.0227 52.554 55.2798 54.7763C56.3593 55.8548 60.9715 74.1567 59.107 73.5357V73.5357Z" fill="#FECBC6"/>
<path d="M115.37 36.5727C115.37 36.5727 112.852 65.3001 111.478 70.8561C111.38 71.2482 111.216 71.6731 111.052 72.0653C109.744 75.3335 107.585 78.3729 105.426 81.1509C102.58 84.8112 99.3419 88.2101 95.5801 90.9227C91.7856 93.6353 87.991 95.0734 82.9208 95.0734C77.4907 95.0734 72.6822 92.0339 68.6914 88.5043C65.4203 85.5956 62.509 82.262 60.0229 78.6997C58.3873 76.3466 56.5228 73.6667 55.8031 70.8561C54.4293 65.3001 51.9105 36.5727 51.9105 36.5727C49.588 11.5711 64.6679 8.85847 80.631 8.10679C81.1544 8.0741 86.1265 8.0741 86.6499 8.10679C102.613 8.85847 117.693 11.5711 115.37 36.5727V36.5727Z" fill="#FECBC6"/>
<path d="M100.29 86.9356C98.8185 88.3736 97.2484 89.7135 95.5801 90.9227C91.7856 93.6353 87.991 95.0734 82.9208 95.0734C77.4907 95.0734 72.6822 92.0339 68.6914 88.5043C65.4203 85.5956 62.509 82.262 60.0229 78.6997C58.3873 76.3466 56.5228 73.6667 55.8031 70.8561C54.4293 65.3001 51.9105 36.5727 51.9105 36.5727C49.588 11.5711 64.6679 8.85847 80.631 8.10679C81.1544 8.0741 86.1265 8.0741 86.6499 8.10679C102.613 8.85847 117.693 11.5711 115.37 36.5727C115.37 36.5727 115.37 36.5836 115.37 36.6054C101.272 43.9262 100.945 35.102 97.2811 30.069C93.6174 25.036 83.6405 35.9845 75.5608 44.0569C69.3129 50.2991 58.649 51.5737 57.5041 57.3584C56.7845 60.9208 57.7658 68.0454 58.9761 71.6731C62.3781 82.3928 71.9625 93.3412 83.6405 93.8314C85.3415 94.0602 92.7015 92.7203 100.29 86.9356V86.9356Z" fill="#F5A59D"/>
<path d="M84.7523 50.7561C84.7523 50.7561 88.0889 61.3777 87.4674 63.2406C86.4206 66.4434 81.2195 65.3976 81.2195 65.3976C81.2195 65.3976 84.7523 64.1557 84.7523 61.8353C84.7523 59.5475 84.7523 50.7561 84.7523 50.7561V50.7561Z" fill="#D66958"/>
<path d="M63.7845 43.2067C63.8282 43.1413 63.8827 43.0868 63.9481 43.0433C67.023 40.2653 70.5231 39.3175 74.0886 40.3307C74.383 40.4287 74.7101 40.5268 74.9718 40.9843C75.4952 41.8014 75.5606 42.7164 75.5606 44.0564C71.4063 42.0955 67.2192 42.2589 63.3593 44.6447C63.2284 44.1871 63.2939 44.1545 63.4247 43.795C63.5229 43.5335 63.6537 43.3374 63.7845 43.2067V43.2067Z" fill="#45363F"/>
<path d="M104.87 43.795C105.001 44.1545 105.066 44.1871 104.935 44.6447C101.075 42.2589 96.8883 42.0955 92.734 44.0564C92.734 42.7164 92.7994 41.8014 93.3228 40.9843C93.5845 40.5268 93.9116 40.4287 94.206 40.3307C97.7715 39.3175 101.272 40.2653 104.347 43.0433C104.412 43.0868 104.466 43.1413 104.51 43.2067C104.641 43.3374 104.772 43.5335 104.87 43.795V43.795Z" fill="#45363F"/>
<path d="M73.5325 51.5081V54.2207C73.5325 56.1163 72.0278 56.7372 70.4904 56.7372C68.953 56.7372 67.4482 56.1163 67.4482 54.2207V51.5081C67.4482 51.3774 67.4482 50.7891 67.4482 50.6257C67.4482 48.7629 68.8221 47.2268 70.4904 47.2268C72.1587 47.2268 73.5325 48.7629 73.5325 50.6257C73.5325 50.7891 73.5325 51.3774 73.5325 51.5081Z" fill="#45363F"/>
<path d="M72.4203 50.495C72.4203 50.6584 72.2894 50.7564 72.1585 50.7564C71.995 50.7564 71.8641 50.6584 71.8641 50.495C71.8641 50.3316 71.995 50.2335 72.1585 50.2335C72.2894 50.2335 72.4203 50.3316 72.4203 50.495Z" fill="white"/>
<path d="M101.272 51.5081V54.2207C101.272 56.1163 99.7996 56.7372 98.2621 56.7372C96.7247 56.7372 95.22 56.1163 95.22 54.2207V51.5081C95.22 51.3774 95.22 50.7891 95.22 50.6257C95.22 48.7629 96.5612 47.2268 98.2621 47.2268C99.9304 47.2268 101.272 48.7629 101.272 50.6257C101.272 50.7891 101.272 51.3774 101.272 51.5081Z" fill="#45363F"/>
<path d="M100.192 50.495C100.192 50.6584 100.061 50.7564 99.9305 50.7564C99.7669 50.7564 99.6361 50.6584 99.6361 50.495C99.6361 50.3316 99.7669 50.2335 99.9305 50.2335C100.061 50.2335 100.192 50.3316 100.192 50.495Z" fill="white"/>
<path d="M84.1635 78.34C77.3596 78.2419 73.9576 65.8882 74.6118 65.8882C74.6118 65.8882 79.9765 66.6399 83.5747 66.836C87.2057 67.032 94.2059 65.8882 94.2059 65.8882C94.6311 65.8882 90.9348 78.4053 84.1635 78.34Z" fill="#B52D2D"/>
<path d="M91.9127 69.4832C86.8424 70.4963 81.576 70.3983 76.5384 69.189C75.6552 68.9603 74.9683 68.3066 74.772 67.4242C74.5103 66.5091 74.4776 65.8882 74.6084 65.8882C74.6084 65.8882 80.3656 66.4111 83.9966 66.6072C87.5948 66.8033 94.2025 65.8882 94.2025 65.8882C94.3006 65.8882 94.1371 66.6725 93.7446 67.8818C93.4829 68.6988 92.7632 69.3198 91.9127 69.4832V69.4832Z" fill="white"/>
<path d="M86.3554 74.7776C86.8133 75.5946 87.2059 76.4117 87.533 77.2614C86.519 77.915 85.3741 78.3399 84.1637 78.3399C81.4814 78.3072 79.3552 76.379 77.785 74.0586C80.4019 71.0518 84.4581 71.8689 86.3554 74.7776V74.7776Z" fill="#D66866"/>
<path d="M125.576 109.453C122.305 112.035 117.758 112.918 113.767 111.741C110.038 110.663 106.865 107.852 105.328 104.29C103.692 104.714 101.991 104.845 100.29 104.649C94.9583 103.963 90.1497 99.3873 89.8553 94.0275C90.1497 97.9166 94.7947 100.499 98.5892 99.5181C102.155 98.603 104.772 95.4001 105.982 91.9032C107.192 88.3735 107.127 79.9743 106.702 73.8954C106.538 71.0848 106.276 68.3722 106.309 65.5616C106.374 62.7836 106.505 60.0056 106.407 57.2277C106.015 42.913 100.061 28.8598 90.0843 18.5977L111.837 20.4605C116.973 22.879 118.543 28.5003 119.623 34.0562C120.702 39.6121 121.618 45.3641 122.174 50.9854C123.515 64.2543 129.959 76.5427 131.464 89.7788C132.282 96.9035 131.202 105.041 125.576 109.453Z" fill="#824A4A"/>
<path d="M107.65 79.0918C106.538 75.8237 106.178 72.3594 106.146 68.9278C106.146 65.5289 106.375 62.1299 106.44 58.6983C106.538 62.1299 106.375 65.5289 106.505 68.9278C106.527 69.7775 106.571 70.6272 106.636 71.477C106.724 72.3267 106.822 73.1655 106.931 73.9935C107.225 75.6602 107.585 77.327 108.174 78.8958C108.305 79.2879 108.501 79.6801 108.632 80.0723C108.828 80.4645 108.992 80.824 109.188 81.2162C109.384 81.5757 109.58 81.9352 109.809 82.2947C109.918 82.469 110.027 82.6542 110.136 82.8503L110.3 83.1117L110.496 83.3405C111.445 84.7131 112.655 85.8897 114.029 86.8375C114.716 87.295 115.468 87.6872 116.221 88.014C116.973 88.3408 117.791 88.5696 118.576 88.733C119.405 88.8855 120.222 88.9509 121.029 88.9291C121.509 88.9073 121.989 88.8419 122.469 88.733C121.782 88.3408 121.127 87.8506 120.571 87.2623C119.754 86.4126 119.099 85.4648 118.576 84.4517C117.562 82.3927 117.071 80.1377 116.777 77.9153C116.482 75.6929 116.384 73.4379 116.417 71.2155C116.482 68.9931 116.646 66.7381 116.875 64.5484C117.333 60.1037 118.02 55.7243 118.314 51.2795C118.38 50.1901 118.423 49.0898 118.445 47.9787C118.445 47.4231 118.445 46.8675 118.445 46.3119L118.412 45.4622L118.38 44.6451C118.358 44.3619 118.336 44.0895 118.314 43.8281L118.249 42.9783C118.183 42.4554 118.118 41.8998 118.02 41.3442C117.856 40.2331 117.627 39.1546 117.333 38.076C117.987 40.2004 118.412 42.4227 118.609 44.6451C118.805 46.8348 118.838 49.0899 118.739 51.3122C118.511 55.757 117.922 60.169 117.529 64.6138C117.333 66.8034 117.202 69.0258 117.169 71.2155C117.137 72.3267 117.169 73.4379 117.235 74.5164C117.268 75.6276 117.398 76.7388 117.529 77.8173C117.824 80.0069 118.314 82.1639 119.296 84.0922C119.786 85.0399 120.375 85.955 121.127 86.7067C121.847 87.4911 122.763 88.0794 123.712 88.5042L124.693 88.9291L123.679 89.2232C122.828 89.4847 121.945 89.6481 121.062 89.6808C120.179 89.7135 119.296 89.6481 118.445 89.4847C117.595 89.2886 116.744 89.0271 115.926 88.6676C115.141 88.3081 114.356 87.916 113.637 87.393C112.197 86.4126 110.922 85.1707 109.973 83.7327L109.777 83.4385L109.613 83.1771C109.482 83.0028 109.362 82.8176 109.253 82.6215C109.057 82.2293 108.828 81.8698 108.664 81.4776C108.468 81.0854 108.305 80.6933 108.108 80.3011C107.977 79.8762 107.781 79.484 107.65 79.0918V79.0918Z" fill="#623838"/>
<path d="M116.581 93.7987C115.567 96.7401 113.8 99.42 111.379 101.414C110.169 102.427 108.828 103.244 107.389 103.897C105.949 104.518 104.379 104.878 102.809 105.009C101.239 105.139 99.6034 105.009 98.0987 104.486C96.594 103.995 95.1547 103.244 93.9116 102.231L93.6827 102.067L93.4537 101.871L93.0284 101.446C92.8649 101.316 92.734 101.152 92.6032 101.021L92.2107 100.597L91.8181 100.106C91.72 99.9429 91.5891 99.8122 91.4583 99.6161L91.1312 99.1258C91.0985 99.0605 91.033 98.9624 90.9676 98.8644L90.8368 98.6029C90.0844 97.263 89.6592 95.0733 89.8555 93.6353C90.1499 94.1582 90.3461 95.0079 90.6732 95.6289C90.7169 95.7378 90.7714 95.8577 90.8368 95.9884C91.0113 96.2934 91.2184 96.5876 91.4583 96.8708C91.6764 97.1323 91.9272 97.3828 92.2107 97.6225C93.2901 98.5376 94.664 99.1258 96.1033 99.2893C96.8229 99.3873 97.5426 99.3873 98.2295 99.2239C98.9491 99.0605 99.6361 98.8317 100.29 98.5049C100.923 98.1563 101.522 97.7423 102.089 97.263C102.635 96.7837 103.136 96.2607 103.594 95.6942C104.052 95.106 104.466 94.485 104.837 93.8314C105.186 93.1777 105.481 92.5023 105.72 91.8051C106.211 90.3998 106.538 88.9291 106.702 87.4257C106.865 85.955 106.931 84.419 106.931 82.9156C106.931 82.1748 106.931 81.4231 106.931 80.6606L106.898 78.4055C106.996 79.9089 107.094 81.4122 107.127 82.9156C107.192 84.419 107.192 85.955 107.062 87.4584C106.963 88.9945 106.669 90.4978 106.211 91.9685C105.971 92.6875 105.677 93.3956 105.328 94.0928C104.957 94.7683 104.543 95.4219 104.085 96.0538C103.627 96.6638 103.104 97.2303 102.515 97.7532C101.926 98.2761 101.272 98.7337 100.585 99.0932C99.8978 99.4853 99.1454 99.7468 98.3931 99.9429C97.608 100.106 96.7902 100.139 96.0051 100.041C94.435 99.8775 92.9303 99.2239 91.6872 98.2108C91.5564 98.1018 91.4365 97.982 91.3275 97.8513C91.3711 97.982 91.4365 98.1127 91.5237 98.2434L91.6546 98.4722C91.6873 98.5703 91.7527 98.6356 91.7854 98.7337L92.1125 99.1912C92.2106 99.3546 92.3088 99.4854 92.4396 99.6488L92.7667 100.074L93.1592 100.498C93.2901 100.629 93.4209 100.793 93.5518 100.923L93.977 101.283L94.1733 101.479L94.4023 101.675C95.5472 102.623 96.8883 103.342 98.2949 103.832C98.4912 103.897 98.6548 103.93 98.8511 103.995C99.0255 104.039 99.2109 104.083 99.4071 104.126L99.9632 104.224C100.127 104.257 100.323 104.322 100.519 104.322L101.075 104.388C101.163 104.388 101.25 104.399 101.337 104.42H101.632H102.188C102.384 104.42 102.58 104.388 102.776 104.388C105.786 104.224 108.73 103.015 111.15 101.119L111.379 100.956L111.576 100.76L112.034 100.4C112.295 100.139 112.59 99.8775 112.851 99.6161C113.113 99.3219 113.375 99.0278 113.637 98.7337C113.866 98.4395 114.127 98.1454 114.323 97.8513C114.781 97.2194 115.196 96.5658 115.566 95.8903C115.937 95.2149 116.275 94.5177 116.581 93.7987V93.7987Z" fill="#623838"/>
<path d="M131.595 99.4529C131.071 102.133 130.09 104.78 128.455 107.002C128.04 107.569 127.582 108.092 127.081 108.571C126.601 109.072 126.078 109.53 125.511 109.944C124.955 110.336 124.366 110.695 123.744 111.022C123.123 111.316 122.501 111.611 121.847 111.807C120.538 112.264 119.165 112.493 117.791 112.493C116.417 112.526 115.043 112.33 113.735 111.937C112.426 111.545 111.183 110.924 110.071 110.14C109.504 109.748 108.981 109.312 108.501 108.833C108.021 108.353 107.574 107.852 107.16 107.329C107.596 107.83 108.065 108.299 108.566 108.735C109.09 109.192 109.624 109.595 110.169 109.944C111.314 110.695 112.557 111.251 113.833 111.578C116.384 112.264 119.165 112.101 121.651 111.218C124.137 110.369 126.328 108.702 127.833 106.578C129.403 104.453 130.352 101.904 130.842 99.2895C131.333 96.7076 131.431 93.995 131.235 91.3478C131.039 88.6679 130.614 86.0206 130.057 83.4061C129.927 82.7525 129.796 82.0988 129.632 81.4125C129.48 80.7589 129.327 80.1052 129.174 79.4516C128.847 78.1443 128.487 76.8697 128.128 75.5624C127.779 74.2552 127.419 72.9588 127.048 71.6733L126.492 69.7124L125.969 67.7515L126.59 69.6797L127.244 71.6079C127.659 72.8934 128.073 74.1789 128.487 75.4644C129.305 78.0136 130.057 80.6281 130.679 83.2754C131.3 85.8899 131.758 88.5698 131.987 91.2824C132.184 93.995 132.118 96.7403 131.595 99.4529V99.4529Z" fill="#623838"/>
<path d="M34.0826 90.2035C35.5873 76.9674 42.0315 64.6463 43.3726 51.4101C43.9287 45.7561 44.8446 40.0368 45.9241 34.4809C47.0036 28.925 48.5737 23.3037 53.7094 20.8525L75.4624 19.0223C65.4854 29.2845 59.532 43.3377 59.1394 57.6524C59.074 60.4303 59.1722 63.2083 59.2376 65.9536C59.2703 68.7969 59.0086 71.5095 58.8451 74.3201C58.4525 80.3663 58.3871 88.7982 59.5974 92.2952C60.8077 95.8248 63.3919 99.0276 66.9902 99.9427C70.7847 100.891 75.4297 98.3413 75.6914 94.4195C75.397 99.812 70.6211 104.387 65.2565 105.041C63.5555 105.27 61.8545 105.139 60.2189 104.714C58.6815 108.277 55.5085 111.087 51.8121 112.166C47.7887 113.342 43.2745 112.46 40.0033 109.878C34.3443 105.466 33.2648 97.3282 34.0826 90.2035V90.2035Z" fill="#824A4A"/>
<path d="M57.4385 80.6933C57.2749 81.1182 57.1114 81.5104 56.9151 81.9026C56.7189 82.2947 56.4899 82.6542 56.2936 83.0464C56.1846 83.2207 56.0646 83.4059 55.9338 83.602L55.7702 83.8635L55.574 84.1249C54.6253 85.5629 53.3496 86.8375 51.9103 87.818C51.1906 88.3082 50.4056 88.7331 49.6205 89.0926C48.8027 89.4521 47.9849 89.7135 47.1017 89.8769C46.2512 90.073 45.368 90.1384 44.4848 90.1057C43.6016 90.073 42.7184 89.9096 41.8679 89.6482L40.8539 89.354L41.8352 88.9292C42.8166 88.5043 43.6998 87.8834 44.4521 87.1317C45.1718 86.38 45.7933 85.4649 46.2512 84.5171C47.2326 82.5562 47.7232 80.3992 48.0176 78.2422C48.1812 77.131 48.2793 76.0525 48.3447 74.9413C48.4102 73.8628 48.4102 72.7516 48.4102 71.6404C48.3775 69.4181 48.2139 67.2284 48.0176 65.006C47.6251 60.594 47.0363 56.1819 46.84 51.7372C46.7092 49.5148 46.7419 47.2597 46.9382 45.0374C47.1344 42.815 47.5597 40.6253 48.2139 38.501C47.9522 39.5795 47.6905 40.658 47.527 41.7692C47.4288 42.2921 47.3961 42.8477 47.298 43.4033L47.2326 44.2203C47.2108 44.5036 47.1889 44.7868 47.1671 45.07L47.1344 45.8871L47.1017 46.7368C47.1017 47.2924 47.1017 47.8153 47.1017 48.3709C47.1235 49.4821 47.1672 50.5933 47.2326 51.7045C47.527 56.1165 48.2139 60.5286 48.6719 64.9406C48.9008 67.163 49.0644 69.3854 49.1298 71.6404C49.1625 73.8628 49.0971 76.1179 48.77 78.3402C48.4756 80.5626 47.9849 82.785 46.9709 84.8439C46.4475 85.8898 45.7933 86.8375 45.0082 87.6873C44.4194 88.2428 43.7979 88.7658 43.0782 89.1579C43.558 89.2451 44.0378 89.3105 44.5175 89.354C45.3462 89.3758 46.164 89.3105 46.9709 89.1579C47.7887 88.9945 48.5737 88.7331 49.3261 88.4389C50.0784 88.0794 50.8308 87.7199 51.5178 87.2297C52.8916 86.3146 54.1019 85.1381 55.0506 83.7654L55.2469 83.504L55.4104 83.2425C55.5413 83.0682 55.6612 82.8939 55.7702 82.7196C55.9665 82.3601 56.1954 82.0006 56.359 81.6084C56.5553 81.2489 56.7189 80.8567 56.9151 80.4972C57.0787 80.1051 57.2422 79.7129 57.3731 79.3207C57.9619 77.7193 58.3544 76.0852 58.6161 74.4184C58.7469 73.5687 58.8451 72.7298 58.9105 71.9019C58.9759 71.0522 59.0304 70.2024 59.0741 69.3527C59.2049 65.9538 59.0086 62.5222 59.1068 59.1233C59.1722 62.5222 59.4339 65.9211 59.4012 69.3527C59.4012 72.7516 59.0086 76.2159 57.8965 79.4841C57.7656 79.909 57.6021 80.3011 57.4385 80.6933V80.6933Z" fill="#623838"/>
<path d="M54.1675 101.838C51.7469 99.8449 49.9805 97.1323 48.9664 94.2236C49.2717 94.9426 49.6097 95.6398 49.9805 96.3152C50.3512 96.9907 50.7656 97.6443 51.2235 98.2761C51.4525 98.5703 51.6815 98.8644 51.9432 99.1586C52.1721 99.4527 52.4338 99.7468 52.6955 100.008C52.9899 100.27 53.2516 100.564 53.546 100.825L53.9713 101.185L54.2002 101.381L54.4292 101.544C56.8172 103.407 59.7612 104.649 62.8033 104.813C62.9669 104.813 63.1631 104.845 63.3594 104.845L63.9155 104.813H64.2099C64.2971 104.813 64.3844 104.813 64.4716 104.813L65.0604 104.747C65.224 104.747 65.4202 104.682 65.6165 104.649L66.1726 104.551C66.347 104.507 66.5215 104.464 66.696 104.42C66.8922 104.355 67.0558 104.322 67.2521 104.257C68.6586 103.767 69.9998 103.015 71.1774 102.067L71.3737 101.904L71.6027 101.708L71.9952 101.316C72.1588 101.218 72.2569 101.054 72.3877 100.923L72.7803 100.499L73.1074 100.074C73.2382 99.9102 73.3691 99.7795 73.4672 99.6161L73.7616 99.1259C73.7943 99.0605 73.8598 98.9952 73.8925 98.8971L74.056 98.6683C74.1214 98.5376 74.1869 98.4069 74.2523 98.2761C74.1214 98.3851 73.9906 98.494 73.8597 98.603C72.6494 99.6488 71.112 100.27 69.5418 100.466C68.7568 100.531 67.939 100.499 67.1539 100.335C66.4015 100.172 65.6492 99.9102 64.9623 99.5181C64.2753 99.1586 63.6211 98.701 63.0323 98.1781C62.4653 97.6552 61.9419 97.0887 61.4622 96.4786C61.0042 95.8468 60.5899 95.1931 60.2191 94.5177C59.8702 93.8205 59.5758 93.1124 59.3359 92.3934C58.878 90.9227 58.6163 89.4193 58.4854 87.8833C58.3546 86.3799 58.3546 84.8439 58.42 83.3405C58.4527 81.8371 58.5835 80.3338 58.649 78.7977V81.0855C58.6272 81.8263 58.6163 82.5779 58.6163 83.3405C58.6163 84.8439 58.6817 86.3472 58.8453 87.8506C59.0415 89.354 59.3359 90.8247 59.8266 92.23C60.0883 92.9272 60.3936 93.6026 60.7425 94.2563C61.0914 94.8881 61.4949 95.4982 61.9528 96.0865C62.4108 96.6747 62.9124 97.2085 63.4576 97.6879C64.0245 98.1672 64.6352 98.5703 65.2894 98.8971C65.9109 99.2566 66.6305 99.4854 67.3175 99.6488C68.0044 99.7795 68.7568 99.8122 69.4437 99.7142C70.883 99.5507 72.2569 98.9625 73.3691 98.0474C73.6307 97.8077 73.8815 97.5463 74.1214 97.263C74.3395 97.0016 74.5358 96.7183 74.7102 96.4133C75.0374 95.7923 75.2336 95.106 75.299 94.4197C75.299 94.4197 75.3972 94.0275 75.6916 94.0275C75.9533 94.0275 76.0841 94.4524 76.0841 94.4524C76.0841 94.4524 76.0841 94.4633 76.0841 94.485C75.986 96.0865 75.4953 97.6552 74.7102 99.0278L74.5794 99.2893C74.514 99.3873 74.4813 99.4527 74.4158 99.5507L74.0887 100.041C73.9906 100.204 73.8598 100.368 73.7289 100.531L73.3691 100.989L72.9438 101.446C72.813 101.577 72.6821 101.74 72.5513 101.871L72.0933 102.263L71.8643 102.459L71.6354 102.656C70.3923 103.636 68.9857 104.42 67.4483 104.911C65.9436 105.401 64.308 105.564 62.7379 105.433C61.1677 105.303 59.6303 104.911 58.1583 104.29C56.719 103.669 55.3779 102.852 54.1675 101.838V101.838Z" fill="#623838"/>
<path d="M33.5593 91.7074C33.821 88.9948 34.2789 86.3149 34.9004 83.6676C35.4893 81.0531 36.2416 78.4385 37.0594 75.8566C37.4737 74.5712 37.8881 73.2966 38.3024 72.0329L38.9567 70.1046L39.6109 68.1764L39.0548 70.1373L38.4987 72.0655C38.1498 73.3728 37.79 74.6801 37.4192 75.9874C37.0594 77.262 36.7323 78.5692 36.4052 79.8765C36.2307 80.5302 36.0671 81.1838 35.9145 81.8374C35.7836 82.4911 35.6201 83.1447 35.4893 83.7983C34.9332 86.4456 34.5079 89.0928 34.3117 91.7727C34.1154 94.42 34.2135 97.0999 34.7369 99.7144C35.2276 102.329 36.1435 104.846 37.7136 106.97C39.251 109.127 41.41 110.794 43.8961 111.643C46.3821 112.526 49.1626 112.689 51.7141 112.003C53.0225 111.643 54.2328 111.088 55.3777 110.369C55.9447 109.998 56.479 109.595 56.9806 109.159C57.4821 108.724 57.951 108.244 58.3872 107.722C57.9946 108.266 57.5476 108.778 57.046 109.258C56.5663 109.715 56.0429 110.14 55.4759 110.532C54.3637 111.317 53.1534 111.97 51.8449 112.362C50.5365 112.755 49.1299 112.951 47.756 112.918C46.3821 112.885 45.0082 112.656 43.6998 112.232C43.0456 112.036 42.424 111.741 41.8025 111.447C41.181 111.12 40.5922 110.761 40.0361 110.336C39.4691 109.944 38.9458 109.497 38.466 108.996C37.9644 108.517 37.5065 107.994 37.0921 107.427C35.4566 105.205 34.4752 102.558 33.9518 99.8778C33.4284 97.1652 33.363 94.42 33.5593 91.7074V91.7074Z" fill="#623838"/>
<path d="M101.534 32.2262C99.9634 27.4547 94.1735 25.0689 89.2668 26.082C84.3601 27.0952 80.3693 30.7882 77.5235 34.9061C75.3645 38.0436 73.6962 41.5079 71.6354 44.7107C69.5419 47.9135 66.7615 50.6915 63.4576 52.5544C58.093 55.5611 44.6159 53.3387 44.6159 53.3387C44.6159 53.3387 42.4897 42.0635 45.7935 23.8596C50.2095 -0.423012 78.1777 -1.92638 90.9678 2.32227C100.716 5.55778 103.987 10.264 103.987 10.264C125.249 12.6824 120.702 52.7178 120.702 52.7178C117.562 54.7114 113.8 54.1885 111.936 51.5739C111.576 51.1164 110.627 49.9398 109.253 48.273L101.534 32.2262Z" fill="#824A4A"/>
<path d="M92.8324 25.6896C95.1222 25.9837 97.3138 26.9315 98.9821 28.4675C97.183 27.0949 94.9914 26.3105 92.7997 26.1471C92.2436 26.1144 91.6875 26.1144 91.1314 26.1471C90.8697 26.1798 90.5753 26.1798 90.3136 26.2125L89.9211 26.2778L89.4958 26.3759C88.4491 26.6046 87.4023 26.9641 86.3883 27.4217C85.4069 27.9119 84.4583 28.5002 83.575 29.1538C82.6918 29.8075 81.8741 30.5265 81.089 31.3108C79.5516 32.8796 78.2104 34.6771 77.0328 36.5726C75.8225 38.4355 74.7757 40.4291 73.5981 42.3573C73.042 43.3378 72.4205 44.2856 71.799 45.2333C71.1448 46.192 70.436 47.0962 69.6728 47.9459C68.8877 48.7957 68.0699 49.58 67.1867 50.299C66.3144 51.0398 65.3876 51.6935 64.4063 52.2599C64.1446 52.4234 63.8829 52.5541 63.6539 52.6848C63.3922 52.8155 63.1305 52.9354 62.8688 53.0443C62.3236 53.2622 61.7784 53.4365 61.2333 53.5672C60.1211 53.796 58.9762 53.9267 57.864 53.9921C58.4092 53.9049 58.9653 53.8069 59.5323 53.6979C60.0775 53.589 60.6227 53.4583 61.1678 53.3058C61.6912 53.1424 62.2146 52.9463 62.7053 52.7175C62.967 52.5868 63.2069 52.456 63.4249 52.3253C63.6539 52.1619 63.9156 52.0312 64.1446 51.8678C66.0091 50.6258 67.6447 49.1225 69.084 47.423C69.8036 46.5733 70.4578 45.6909 71.0793 44.7758C71.6682 43.828 72.257 42.8802 72.8131 41.8998C73.9252 39.9389 75.0047 37.9779 76.215 36.0497C77.4254 34.1215 78.7992 32.2586 80.4348 30.6572C82.0704 29.0558 83.9676 27.6505 86.0939 26.7354C87.1406 26.2778 88.2528 25.9183 89.3977 25.7222C90.5426 25.5261 91.6875 25.5261 92.8324 25.6896V25.6896Z" fill="#623838"/>
<path d="M120.963 48.8939C121.094 45.0374 121.029 41.181 120.669 37.3572C120.516 35.4398 120.277 33.5334 119.949 31.6378C119.622 29.7423 119.23 27.8794 118.674 26.0166C118.15 24.1864 117.496 22.3889 116.678 20.6567C115.861 18.9573 114.846 17.3232 113.636 15.8852C112.393 14.4472 110.921 13.2379 109.286 12.3555C107.65 11.4404 105.818 10.9175 103.954 10.7214L103.757 10.6887L103.626 10.5253C103.528 10.3946 103.365 10.1985 103.234 10.0351L103.005 9.77364L102.776 9.54487C102.449 9.21805 102.111 8.91302 101.762 8.62977C101.086 8.0415 100.366 7.4968 99.6029 6.99568C98.0982 5.94986 96.4954 5.10013 94.8271 4.34844C93.1589 3.59676 91.4252 2.94312 89.6915 2.4529C87.9578 1.92998 86.1586 1.60316 84.3268 1.37439C80.6958 0.884163 76.9994 0.851478 73.3685 1.24366C72.9105 1.27634 72.4526 1.30903 71.9946 1.37439L70.6535 1.60316C69.7376 1.76657 68.8543 1.92998 67.9711 2.12608C67.0552 2.32217 66.2047 2.6163 65.3215 2.84508L64.0131 3.30262L63.686 3.40067L63.3588 3.53139L62.7373 3.79285C61.0363 4.44649 59.4008 5.26354 57.8634 6.24399C57.6671 6.37472 57.4708 6.47277 57.2746 6.6035L56.7185 6.99568L56.1624 7.38786L55.868 7.58395L55.6063 7.81273L54.5595 8.66246C54.1997 8.95659 53.8726 9.28341 53.5455 9.57755C53.2183 9.87168 52.8912 10.2312 52.5968 10.558C52.3024 10.8848 51.9426 11.2116 51.6809 11.5711L50.8304 12.6496C50.5688 13.0092 50.3071 13.4013 50.0454 13.7608C49.9472 13.9569 49.7837 14.153 49.6855 14.3491L49.3257 14.9374L48.9986 15.5257C48.9004 15.7217 48.7696 15.9178 48.6715 16.1466L48.0827 17.3558L47.9191 17.6827C47.8864 17.7807 47.8537 17.8788 47.7883 18.0095L47.5593 18.6304L47.2976 19.2841C47.2322 19.4802 47.1341 19.7089 47.0686 19.905L46.6761 21.245C46.5452 21.6699 46.4471 22.1274 46.349 22.5523L46.0219 23.8922C45.6729 25.7224 45.3677 27.5417 45.106 29.3501C44.5608 33.0105 44.19 36.6926 43.9938 40.3966C44.0265 38.5337 44.0919 36.7035 44.2227 34.8407C44.3536 32.9887 44.539 31.1476 44.7789 29.3174C44.9969 27.4872 45.2586 25.657 45.5639 23.8269C45.9237 21.9967 46.3163 20.1665 47.0032 18.4343L47.2322 17.7807C47.2976 17.65 47.3303 17.5519 47.363 17.4539L47.5266 17.1271L48.1154 15.8525C48.1808 15.6237 48.3117 15.4276 48.4098 15.2315L48.7696 14.6106L49.0967 13.9896C49.2276 13.7935 49.3584 13.5974 49.4892 13.4013C49.7509 13.0092 49.9799 12.617 50.2743 12.2248L51.1248 11.1136C51.3865 10.7541 51.7463 10.3946 52.0407 10.0678C52.3679 9.70827 52.6623 9.34877 53.0221 9.02196C53.3492 8.72782 53.6763 8.401 54.0361 8.07418L55.1156 7.15909L55.3773 6.93032L55.6717 6.73422L56.2605 6.34204L56.8166 5.91717C57.0129 5.78645 57.2091 5.65572 57.4054 5.52499C58.9755 4.51185 60.6765 3.66212 62.4102 2.9758L63.0644 2.71435L63.3915 2.55094L63.7187 2.4529L65.0271 1.99535C65.943 1.73389 66.8263 1.43975 67.7422 1.24366C68.6581 1.01489 69.574 0.851482 70.4899 0.65539L71.8638 0.459297C72.3545 0.361251 72.8124 0.328569 73.2704 0.295888C76.9995 -0.128977 80.7613 -0.0962943 84.4577 0.393934C86.3222 0.622708 88.154 0.982207 89.9531 1.50512C91.7849 2.02803 93.5187 2.71435 95.2197 3.46603C96.9206 4.2504 98.5889 5.13281 100.126 6.21131C100.911 6.73422 101.664 7.3116 102.383 7.94345C102.732 8.24848 103.07 8.5753 103.397 8.92391L103.659 9.18536L103.888 9.44682C104.019 9.57755 104.117 9.70828 104.248 9.87169C106.145 10.1005 108.01 10.6887 109.678 11.6038C111.444 12.5516 112.949 13.8916 114.225 15.3949C115.468 16.8983 116.482 18.5978 117.3 20.3953C118.118 22.1601 118.739 23.9903 119.262 25.8858C119.753 27.7487 120.146 29.6442 120.44 31.5725C120.702 33.4898 120.898 35.4071 121.029 37.3245C121.258 41.1809 121.225 45.0374 120.963 48.8939V48.8939Z" fill="#623838"/>
<path d="M212.995 138.963L222.252 151.12L205.929 163.474L196.704 151.316L212.995 138.963Z" fill="#FECBC6"/>
<path d="M247.309 142.002C249.304 140.139 253.131 141.185 251.038 142.917C247.995 145.368 244.757 147.623 241.682 149.878C239.818 151.284 236.841 153.049 235.304 153.114C231.542 153.212 228.205 152.951 224.018 152.46C222.906 152.297 223.07 147.983 223.462 147.002C223.92 145.891 224.77 144.682 225.915 144.747C229.383 144.911 232.85 146.676 235.467 147.656C236.448 148.016 237.855 147.689 238.411 147.297C239.163 146.741 247.309 142.002 247.309 142.002V142.002Z" fill="#FECBC6"/>
<path d="M221.107 134.616C222.514 135.008 235.893 135.76 235.893 135.76C235.893 135.76 246.229 132.786 249.795 131.315C253.328 129.844 255.454 132.524 252.641 133.897C249.828 135.302 237.594 140.466 237.594 140.466L225.425 141.054C225.425 141.054 219.733 134.224 221.107 134.616Z" fill="#FECBC6"/>
<path d="M224.313 139.42C225.719 139.714 239.098 139.747 239.098 139.747C239.098 139.747 249.337 136.283 252.804 134.616C256.239 132.949 258.529 135.498 255.781 137.067C253.033 138.603 241.094 144.355 241.094 144.355L228.958 145.597C228.958 145.597 222.906 139.093 224.313 139.42V139.42Z" fill="#FECBC6"/>
<path d="M221.794 143.931C223.201 144.257 236.612 144.29 236.612 144.29C236.612 144.29 247.701 140.107 251.169 138.473C254.636 136.806 256.893 139.355 254.146 140.891C251.43 142.46 238.575 148.898 238.575 148.898L226.439 150.14C226.439 150.14 220.387 143.636 221.794 143.931Z" fill="#FECBC6"/>
<path d="M210.574 139.159C213.125 135.891 218.425 134.093 222.579 134.322C226.733 134.518 231.345 134.616 233.733 138.048C235.402 140.368 235.075 143.212 234.388 145.99C233.603 149.389 234.42 151.055 231.051 152.036C227.715 152.984 217.901 152.363 214.761 150.925C211.326 149.323 207.401 143.244 210.574 139.159Z" fill="#FECBC6"/>
<path d="M212.471 137.753C213.78 135.629 216.528 132.394 218.425 130.759C220.551 128.897 223.495 128.341 226.308 128.145C229.154 127.982 233.832 126.903 234.748 127.328C235.631 127.72 234.257 130.988 232.622 131.903C231.019 132.786 229.089 133.047 227.453 133.897C225 135.237 221.565 139.976 221.565 139.976L212.471 137.753Z" fill="#FECBC6"/>
<path d="M220.682 144.813C223.135 143.538 225.687 142.166 227.29 139.91C227.78 139.224 228.173 138.44 228.238 137.59C228.271 136.969 228.107 136.283 227.748 135.793C228.958 135.629 230.234 136.217 231.019 137.165C231.869 138.146 232.262 139.453 232.36 140.76C232.458 142.067 232.229 143.375 232 144.649C231.967 144.943 231.902 145.27 231.64 145.499C231.378 145.728 230.953 145.695 230.593 145.695C229.023 145.532 222.383 144.976 220.682 144.813V144.813Z" fill="#F5A59D"/>
<path d="M125.198 196.091C115.515 174.194 111.263 139.518 123.268 109.026C132.59 107.327 142.044 113.831 146.754 122.164C151.596 130.727 152.675 140.826 154.016 150.565C155.652 162.298 157.844 173.933 160.559 185.437C163.633 198.444 134.128 214.883 125.198 196.091Z" fill="#E6D05E"/>
<path d="M158.203 208.608C151.792 211.451 144.268 212.628 137.661 210.471C128.665 205.667 127.716 201.516 124.609 194.816C121.73 188.509 127.618 177.233 132.623 172.462C137.595 167.69 144.203 165.141 150.549 162.559C161.442 158.114 172.138 153.278 182.639 148.016C204.784 123.439 220.747 165.501 210.738 171.841C199.419 178.998 164.745 205.667 158.203 208.608Z" fill="#E6D05E"/>
<path d="M49.2233 285.086C38.7239 273.091 34.2199 263.189 38.7239 246.717C41.3412 237.076 60.7573 200.799 60.7573 200.799L114.258 202.008C114.258 202.008 130.053 282.504 121.653 285.086C121.653 285.086 104.794 285.086 59.8139 285.086C58.9313 285.086 50.1363 285.086 49.2233 285.086Z" fill="#E6D05E"/>
<path d="M109.389 234.331C109.389 234.331 144.144 236.716 155.465 240.41C164.473 243.384 133.857 285.184 133.857 285.184L85.8647 284.922C49.7714 240.606 109.389 234.331 109.389 234.331V234.331Z" fill="#E6D05E"/>
<path d="M146.609 239.299C155.8 238.972 160.395 246.652 161.004 255.084C161.004 255.084 163.286 278.059 160.425 302.211C157.839 324.043 154.187 365.059 152.3 394.374L140.857 393.884C140.279 384.798 133.675 321.069 132.153 304.76C128.562 266.326 133.005 239.756 146.609 239.299V239.299Z" fill="#FECBC6"/>
<path d="M133.614 285.345H120.619L126.127 245.375C126.127 245.375 143.87 239.296 146.609 239.296C149.348 239.296 133.614 285.345 133.614 285.345V285.345Z" fill="#FECBC6"/>
<path d="M128.775 285.347H120.619L126.127 245.377C126.127 245.377 127.466 244.92 129.414 244.266C133.766 244.266 136.018 247.992 133.766 261.555C131.514 275.151 128.775 285.347 128.775 285.347V285.347Z" fill="#F5A59D"/>
<path d="M142.865 427.318H138.331L138.513 406.434C137.144 396.401 144.417 391.564 144.417 391.564L142.865 427.318Z" fill="#894130"/>
<path d="M150.93 392.478C150.93 392.478 155.738 395.616 157.686 399.963C159.634 404.309 169.433 425.52 170.711 428.461C172.142 431.762 173.755 438.396 166.786 438.396C159.816 438.396 155.708 438.396 150.078 438.396C144.448 438.396 141.831 433.625 141.831 427.611C141.831 421.598 137.235 395.877 138.574 392.478C139.944 389.112 150.93 392.478 150.93 392.478V392.478Z" fill="#B65740"/>
<path d="M152.695 381.988C153.73 385.256 156.347 393.034 156.347 397.381C156.347 401.728 163.56 416.5 165.081 421.173C166.603 425.912 153.425 428.135 148.982 423.886C144.539 419.637 142.287 408.722 140.552 403.983C138.818 399.244 137.813 391.662 139.335 386.727C140.826 381.792 151.63 378.72 152.695 381.988Z" fill="#FECBC6"/>
<path d="M119.249 239.298C128.44 238.972 134.465 244.626 132.67 257.666C131.392 267.013 128.014 278.059 125.153 302.211C122.566 324.043 118.914 365.058 117.027 394.374L105.615 393.884C105.006 384.798 98.433 321.069 96.9114 304.76C93.3203 266.326 105.676 239.756 119.249 239.298Z" fill="#FECBC6"/>
<path d="M108.354 427.318H103.82L104.002 406.434C102.633 396.401 109.906 391.564 109.906 391.564L108.354 427.318Z" fill="#894130"/>
<path d="M116.419 392.478C116.419 392.478 121.227 395.616 123.175 399.963C125.122 404.309 134.922 425.52 136.2 428.461C137.63 431.762 139.243 438.396 132.274 438.396C125.305 438.396 121.166 438.396 115.536 438.396C109.937 438.396 107.319 433.625 107.319 427.611C107.319 421.598 102.724 395.877 104.063 392.478C105.402 389.112 116.419 392.478 116.419 392.478V392.478Z" fill="#B65740"/>
<path d="M118.154 381.988C119.219 385.256 121.836 393.034 121.836 397.381C121.836 401.728 129.049 416.5 130.57 421.173C132.092 425.912 118.914 428.135 114.471 423.886C110.028 419.637 107.746 408.722 106.041 403.983C104.307 399.244 103.302 391.662 104.794 386.727C106.315 381.792 117.119 378.72 118.154 381.988Z" fill="#FECBC6"/>
</svg>
