<svg width="335" height="428" viewBox="0 0 335 428" fill="none" xmlns="http://www.w3.org/2000/svg">
<path style="mix-blend-mode:multiply" opacity="0.7" d="M113.436 220.014L105.915 279.627H0C0 279.627 50.655 173.543 58.33 160.877C66.005 148.21 115.125 143.46 115.125 143.46L113.436 220.014Z" fill="url(#paint0_linear_31_216)"/>
<path style="mix-blend-mode:multiply" opacity="0.7" d="M82.89 357.21C82.89 357.21 85.96 335.043 81.355 309.71C78.2082 292.293 70.61 281.21 70.61 281.21L75.9057 280.418L253.275 270.126L283.591 356.576L95.17 358.793L82.89 357.21Z" fill="url(#paint1_linear_31_216)"/>
<path d="M313.754 399.643C310.377 400.91 293.492 412.468 293.492 412.468C293.492 412.468 264.941 416.506 264.02 412.152C263.406 409.539 266.399 401.543 268.932 394.656C269.239 393.811 269.546 393.02 269.853 392.281C271.158 388.797 272.155 385.789 272.386 384.364C273 379.852 240.918 302.268 240.918 302.268L281.365 285.168C281.365 285.168 295.257 362.514 297.56 381.91C297.713 383.493 297.943 384.681 298.25 385.552C301.704 395.447 311.221 399.168 313.754 399.643V399.643Z" fill="url(#paint2_linear_31_216)"/>
<path d="M265.862 402.652C266.169 402.546 266.348 402.546 266.399 402.652C266.553 402.731 266.323 402.81 265.862 402.652Z" fill="url(#paint3_linear_31_216)"/>
<path d="M313.754 399.643C310.377 400.91 293.492 412.468 293.492 412.468C293.492 412.468 264.941 416.506 264.02 412.151C263.406 409.539 266.399 401.543 268.932 394.656C267.551 398.931 265.325 407.718 270.39 410.41C277.068 414.131 278.142 413.181 278.142 413.181C278.142 413.181 279.6 389.351 297.56 381.91C297.713 383.493 297.944 384.681 298.251 385.551C301.704 395.447 311.221 399.168 313.754 399.643Z" fill="url(#paint4_linear_31_216)"/>
<path d="M265.862 402.652C266.169 402.546 266.348 402.546 266.399 402.652C266.553 402.731 266.323 402.81 265.862 402.652Z" fill="url(#paint5_linear_31_216)"/>
<path d="M234.855 424.422L235.622 419.593L333.402 420.622V424.422C333.402 424.422 307.614 429.014 234.855 424.422V424.422Z" fill="#1D1D2D"/>
<path d="M333.095 420.622C327.569 425.214 238.846 423.789 235.623 420.622C232.399 417.456 260.106 415.635 260.106 415.635L262.255 407.956C262.792 407.006 266.783 398.535 277.068 393.231C277.17 393.178 277.272 393.125 277.375 393.072C282.517 390.46 289.194 388.639 297.713 388.877C317.131 389.431 330.255 404.156 333.479 413.577C333.735 414.263 333.914 414.922 334.016 415.556C334.477 417.852 334.246 419.672 333.095 420.622V420.622Z" fill="url(#paint6_linear_31_216)"/>
<path style="mix-blend-mode:color-dodge" opacity="0.5" d="M333.479 413.577C327.108 403.364 303.853 389.51 277.375 393.072C282.517 390.46 289.194 388.639 297.713 388.877C317.131 389.431 330.255 404.156 333.479 413.577V413.577Z" fill="url(#paint7_linear_31_216)"/>
<path style="mix-blend-mode:multiply" d="M333.095 420.622C327.569 425.214 238.846 423.789 235.623 420.622C232.399 417.456 260.106 415.635 260.106 415.635L262.255 407.956C262.792 407.006 266.783 398.535 277.068 393.231C279.37 392.914 280.828 392.677 280.828 392.677C280.828 392.677 266.476 403.76 286.278 413.577C299.862 420.306 321.659 417.772 334.016 415.556C334.477 417.852 334.246 419.672 333.095 420.622V420.622Z" fill="url(#paint8_linear_31_216)"/>
<path d="M226.106 404.314C222.652 405.185 204.846 415.16 204.846 415.16C204.846 415.16 176.065 416.427 175.527 411.993C175.144 409.302 178.828 401.622 182.051 395.051C182.409 394.26 182.767 393.495 183.126 392.756C184.737 389.352 186.042 386.502 186.349 385.077C187.347 380.643 176.372 303.772 176.372 303.772L223.803 297.835C223.803 297.835 211.063 365.602 211.6 385.077C211.677 386.66 211.83 387.847 211.984 388.797C214.593 398.931 223.726 403.602 226.106 404.314V404.314Z" fill="url(#paint9_linear_31_216)"/>
<path d="M221.04 402.652C221.347 402.546 221.526 402.546 221.577 402.652C221.731 402.731 221.501 402.81 221.04 402.652Z" fill="url(#paint10_linear_31_216)"/>
<path d="M70.3798 49.1724C70.3798 49.1724 79.9735 2.46407 125.486 3.3349C170.922 4.20574 134.313 67.6182 134.313 67.6182L70.3798 49.1724Z" fill="#D3E3E5"/>
<path d="M137.996 335.676C136.308 322.535 133.468 304.01 130.935 308.047C128.326 312.322 128.633 335.122 129.094 348.818C127.2 351.035 125.256 353.172 123.26 355.231C120.651 357.764 118.042 360.218 115.509 362.356C114.741 355.231 113.206 342.881 111.901 338.289C111.594 337.101 111.288 336.389 110.981 336.468C110.674 336.468 110.52 337.576 110.52 339.318C110.443 344.622 111.518 356.26 112.362 364.968C101.617 373.676 92.5605 378.426 92.5605 378.426V356.972C92.5605 356.972 90.6418 369.401 88.2625 373.914C85.8065 378.426 82.4295 380.247 82.4295 380.247L85.346 352.776L86.0368 346.997L86.1902 344.939L86.4973 342.564L95.784 332.985L142.985 283.822C142.985 283.822 148.588 313.351 137.996 335.676V335.676Z" fill="url(#paint11_linear_31_216)"/>
<path style="mix-blend-mode:multiply" d="M137.996 335.676C136.308 322.535 133.468 304.01 130.935 308.047C128.326 312.322 128.633 335.122 129.094 348.818C127.2 351.035 125.256 353.172 123.26 355.231V329.026C123.26 329.026 119.576 332.431 111.901 338.289C111.594 338.5 111.288 338.711 110.981 338.922C110.827 339.081 110.674 339.213 110.52 339.318C104.457 343.672 92.2535 349.61 85.346 352.776L86.0368 346.997L95.784 332.985L142.985 283.822C142.985 283.822 148.588 313.351 137.996 335.676V335.676Z" fill="url(#paint12_linear_31_216)"/>
<path d="M305.925 374.785C305.542 375.102 302.855 376.21 297.867 377.635C295.18 378.426 291.88 379.218 287.966 380.089C287.122 375.102 285.97 368.847 284.819 362.989C282.9 353.41 280.828 344.939 279.524 345.493C278.219 346.127 278.526 354.756 279.217 364.018C279.677 370.351 280.368 376.922 280.828 381.514C275.072 382.543 268.395 383.572 260.643 384.364L259.492 366.314L258.34 347.235C258.34 347.235 246.751 345.889 245.216 347.235C244.449 347.868 244.449 357.289 244.602 366.789C244.756 374.626 245.063 382.543 245.14 385.551C242.735 385.71 240.227 385.815 237.618 385.868L235.239 366.472L235.009 364.572L234.855 366.472L233.704 385.947C223.112 386.185 204.155 384.364 192.489 382.939C190.647 382.702 189.035 382.464 187.654 382.306C186.656 375.577 184.891 364.018 183.356 355.389C182.281 349.452 181.36 344.939 180.9 344.464C180.849 344.464 180.823 344.464 180.823 344.464C180.362 344.306 179.902 348.264 179.518 353.726C178.828 362.039 178.29 373.914 177.983 380.801C170.462 379.456 175.451 379.614 169.771 378.031L169.004 348.422L168.697 334.014L164.629 332.035C164.629 332.035 164.168 337.577 163.631 345.097C162.864 354.597 161.943 367.185 161.405 375.577C154.498 373.36 150.277 371.539 149.509 370.906C147.207 368.768 146.9 352.143 146.9 352.143L144.444 366.947C144.444 366.947 140.453 362.672 139.455 358.714C138.841 356.26 141.374 340.11 143.292 328.789C143.599 327.126 143.83 325.543 144.137 324.197C144.827 320.081 145.288 317.31 145.288 317.31L179.749 322.931L296.255 341.772L300.937 342.564C300.937 342.564 302.395 350.085 303.777 357.922C305.158 365.997 306.539 374.389 305.925 374.785V374.785Z" fill="url(#paint13_linear_31_216)"/>
<path style="mix-blend-mode:multiply" opacity="0.6" d="M303.776 357.922C298.788 359.585 292.417 361.406 284.819 362.989C282.9 353.41 280.828 344.939 279.523 345.493C278.219 346.126 278.526 354.756 279.216 364.018C273.307 365.047 266.706 365.839 259.492 366.314L258.34 347.235C258.34 347.235 246.751 345.889 245.216 347.235C244.449 347.868 244.449 357.289 244.602 366.789C241.583 366.736 238.462 366.631 235.239 366.472C235.085 366.472 234.957 366.472 234.855 366.472C230.915 366.261 226.873 365.918 222.728 365.443C207.378 363.702 194.331 359.981 183.356 355.389C182.281 349.451 181.36 344.939 180.9 344.464C180.849 344.464 180.823 344.464 180.823 344.464C180.362 344.306 179.902 348.264 179.518 353.726C175.757 351.985 172.227 350.243 169.003 348.422L168.696 334.014L164.629 332.035C164.629 332.035 164.168 337.576 163.631 345.097C153.884 338.922 147.13 332.747 143.292 328.789C143.599 327.126 143.829 325.543 144.136 324.197C150.737 323.96 163.784 323.485 179.748 322.931L296.255 341.772L300.937 342.564C300.937 342.564 302.395 350.085 303.776 357.922V357.922Z" fill="url(#paint14_linear_31_216)"/>
<path d="M195.866 98.4932C195.329 106.885 190.186 108.943 189.956 109.022L188.037 95.0099L187.5 90.7349C187.577 91.7641 187.807 93.3474 187.961 95.1682C188.575 102.61 189.035 114.881 184.891 118.127H185.198C185.044 118.285 184.865 118.417 184.66 118.522C181.13 121.452 164.859 123.985 152.425 125.568C150.686 125.779 149.048 125.964 147.513 126.122C141.757 126.835 137.689 127.231 137.689 127.231C137.689 127.231 104.303 128.181 96.705 124.381C89.1835 120.502 89.1835 118.918 89.1835 118.918C89.1835 118.918 89.1579 118.918 89.1067 118.918L88.109 107.122L87.495 99.7599L86.8042 91.5266L86.1135 98.8099L85.653 104.193L84.9622 113.377L84.5785 117.731C82.3527 116.939 79.2827 115.672 75.5987 113.693C74.9847 113.377 74.4219 113.007 73.9102 112.585C71.224 110.685 69.6122 108.152 68.5377 105.777C67.847 97.0682 68.9982 85.4307 70.1495 76.3266C71.0705 69.7557 71.9915 64.5307 72.2985 62.7099L69.8425 75.1391L65.4677 97.3057C64.6235 96.4349 63.4722 95.1682 62.7047 93.9807C61.707 92.3974 63.6257 70.5474 69.6122 51.6266C71.6845 44.8974 74.3707 38.4849 77.5175 33.4974C89.644 14.5766 105.071 8.40156 112.362 6.89739C119.576 5.39322 134.312 9.43072 134.312 9.43072C134.312 9.43072 140.299 6.89739 157.03 11.2516C169.771 14.4974 186.349 47.1932 191.798 72.2099C194.561 85.0349 196.096 95.5641 195.866 98.4932V98.4932Z" fill="url(#paint15_linear_31_216)"/>
<g style="mix-blend-mode:multiply" opacity="0.2">
<path d="M187.961 95.1683C188.575 102.61 188.268 113.298 184.123 116.543H184.43C184.277 116.702 184.123 116.834 183.97 116.939C177.983 121.768 137.69 127.231 137.69 127.231C137.69 127.231 104.303 128.181 96.705 124.381C89.1835 120.502 89.1835 118.918 89.1835 118.918C89.1835 118.918 89.1579 118.918 89.1067 118.918L87.495 99.76C90.1045 101.423 93.0978 103.006 96.4748 104.431C124.949 116.227 179.211 106.331 187.5 95.8808C187.654 95.6697 187.807 95.4322 187.961 95.1683V95.1683Z" fill="#585866"/>
</g>
<g style="mix-blend-mode:multiply" opacity="0.3">
<path d="M195.175 98.4141C194.638 106.806 190.11 106.727 189.956 109.022L188.037 95.0099C191.414 89.8641 191.414 80.5224 191.107 72.1307C193.947 84.9557 195.405 95.4849 195.175 98.4141V98.4141Z" fill="#585866"/>
</g>
<path d="M110.981 132.931L125.793 112.743L152.656 111.952L159.87 130.081L139.762 156.127L110.981 132.931Z" fill="url(#paint16_linear_31_216)"/>
<path d="M153.116 122.243C153.116 123.826 149.739 125.093 145.595 125.093C141.45 125.093 138.073 123.826 138.073 122.243C138.073 120.581 141.45 119.314 145.595 119.314C149.739 119.314 153.116 120.581 153.116 122.243Z" fill="url(#paint17_linear_31_216)"/>
<path d="M65.3142 195.235C63.7792 200.301 62.2442 205.526 60.9395 210.118C59.6347 209.564 58.5602 209.01 57.8695 208.456C50.962 203.468 50.5015 198.164 50.5015 197.926C52.6505 196.976 58.944 195.868 65.3142 195.235Z" fill="#356472"/>
<path fill-rule="evenodd" clip-rule="evenodd" d="M225.338 182.806L197.708 213.601L147.283 216.847L117.811 218.747L98.854 220.014C98.854 220.014 71.7612 214.868 60.9395 210.118C62.2442 205.526 63.7792 200.301 65.3142 195.235C57.7927 195.947 51.269 197.451 50.5015 197.926L51.883 194.601C57.5625 181.935 77.978 136.81 86.4972 134.197C88.4927 133.564 94.7862 132.297 103.459 130.872C103.868 130.819 104.278 130.767 104.687 130.714C107.45 130.239 110.443 129.764 113.59 129.289L141.604 149.872L141.834 149.397L145.902 142.747L156.723 124.856C160.484 124.697 163.784 124.935 166.624 125.251C169.003 125.568 171.076 125.964 172.994 126.36C176.371 127.072 179.134 127.547 181.667 127.231C181.77 127.178 181.897 127.151 182.051 127.151C195.405 126.36 223.496 179.164 225.261 182.647C225.261 182.647 225.261 182.674 225.261 182.726C225.312 182.779 225.338 182.806 225.338 182.806V182.806ZM100.696 209.643C97.8562 205.447 94.4025 200.935 91.179 198.322L92.5605 200.381C92.5605 200.381 87.8787 209.247 88.2625 210.989C88.3392 211.543 93.4815 210.91 100.696 209.643Z" fill="url(#paint18_linear_31_216)"/>
<path d="M100.696 209.643C93.4815 210.91 88.3392 211.543 88.2625 210.989C87.8787 209.247 92.5605 200.381 92.5605 200.381L91.179 198.322C94.4025 200.935 97.8562 205.447 100.696 209.643Z" fill="#356472"/>
<path d="M142.985 150.268L139.378 154.385L104.687 130.714C105.762 128.893 113.206 127.785 113.206 127.785L141.834 149.397L142.064 149.556L142.985 150.268Z" fill="url(#paint19_linear_31_216)"/>
<path d="M167.085 124.618L166.624 125.251L141.834 164.122L112.362 210.356L107.911 211.622C107.911 211.622 121.956 185.735 135.234 161.826C136.615 159.293 137.996 156.813 139.378 154.385C140.299 152.749 141.194 151.139 142.064 149.556C143.395 147.181 144.674 144.911 145.902 142.747C152.502 131.031 157.568 122.56 158.105 122.56C160.024 122.56 167.085 124.618 167.085 124.618V124.618Z" fill="url(#paint20_linear_31_216)"/>
<g style="mix-blend-mode:multiply" opacity="0.5">
<path d="M225.338 182.806L197.708 213.601L147.283 216.847L117.811 218.747L101.924 211.622C101.924 211.622 100.389 172.593 102.845 173.147C105.378 173.781 107.91 194.839 112.899 200.143C117.888 205.526 170.845 201.331 170.845 201.331L194.331 191.435C194.331 191.435 184.584 154.622 186.349 153.514C188.037 152.485 204.999 184.072 207.071 185.181C208.913 186.131 221.884 183.439 225.261 182.726C225.312 182.779 225.338 182.806 225.338 182.806V182.806Z" fill="#4A7E93"/>
</g>
<path d="M304.39 348.026C304.39 348.026 282.517 350.401 255.501 350.797C251.663 350.876 247.749 350.876 243.681 350.797C241.788 350.797 239.895 350.771 238.002 350.718C226.182 350.401 214.133 349.61 202.927 348.026C189.649 346.047 178.597 342.801 169.848 339.318C168.057 338.632 166.343 337.92 164.705 337.181C164.705 337.181 164.68 337.181 164.629 337.181C156.647 333.539 150.814 329.897 146.9 327.047C142.909 324.039 140.99 322.06 140.99 322.06L142.064 300.051L142.985 281.606C142.985 281.606 142.294 281.764 141.066 281.922C131.856 283.268 92.407 288.256 86.4972 277.41C86.2414 276.882 85.9856 276.328 85.7297 275.747C83.6575 269.81 84.118 259.835 85.346 250.176C87.1112 236.956 90.3347 224.526 90.3347 224.526L94.0187 223.972L144.52 216.056L211.139 204.972L218.123 203.864L218.277 203.785C218.277 203.785 257.88 204.893 268.471 211.226C268.676 211.385 268.855 211.517 269.009 211.622C269.623 212.018 270.237 212.889 270.927 214.156C271.695 215.501 272.539 217.322 273.383 219.539C273.69 220.278 273.998 221.096 274.305 221.993C275.916 226.664 277.758 232.681 279.677 239.489C280.189 241.336 280.7 243.236 281.212 245.189C284.359 256.906 287.582 270.522 290.652 283.822C290.959 285.089 291.266 286.356 291.573 287.622C291.624 287.992 291.676 288.335 291.727 288.651C291.931 289.39 292.11 290.129 292.264 290.868C292.571 292.24 292.878 293.613 293.185 294.985C293.39 295.882 293.594 296.806 293.799 297.756C294.643 301.635 295.487 305.514 296.332 309.235C296.485 310.026 296.639 310.792 296.792 311.531C297.048 312.586 297.278 313.642 297.483 314.697C299.555 324.356 301.321 332.826 302.549 338.764C302.804 340.189 303.06 341.456 303.316 342.564C303.93 345.889 304.314 347.789 304.39 347.947C304.39 347.947 304.39 347.974 304.39 348.026Z" fill="url(#paint21_linear_31_216)"/>
<path d="M145.288 279.785C145.288 279.785 144.674 280.972 143.599 283.189C143.292 283.717 142.96 284.324 142.602 285.01C138.38 292.926 129.631 308.522 119.807 321.189C105.915 339.001 84.3483 350.876 84.3483 350.876C84.3483 350.876 85.7298 332.985 85.346 316.914C85.2693 314.222 85.1925 311.61 84.9623 309.076C84.8088 306.86 84.5785 304.722 84.3483 302.743C81.8155 285.485 73.6033 279.785 73.6033 279.785C74.1661 279.415 74.8057 279.099 75.522 278.835C82.1993 276.222 95.9375 276.064 109.522 276.697C111.467 276.75 113.385 276.856 115.279 277.014C128.173 277.806 139.915 279.072 143.906 279.547C144.827 279.706 145.288 279.785 145.288 279.785V279.785Z" fill="url(#paint22_linear_31_216)"/>
<path style="mix-blend-mode:multiply" d="M231.325 252.076C231.325 252.076 219.965 245.031 215.898 237.826C211.753 230.622 203.234 215.581 193.564 215.422C193.564 215.422 179.979 214.631 163.554 216.689C158.489 217.322 153.116 218.193 147.82 219.539C140.913 221.201 134.082 223.497 128.019 226.664C102.154 240.281 108.141 271.076 108.141 271.076H132.394C132.394 271.076 164.552 234.897 166.624 235.451C168.696 236.085 149.432 262.21 150.583 263.476C151.735 264.743 158.105 257.697 160.484 258.331C162.863 259.043 143.215 320.001 143.215 320.001L142.985 284.614L143.215 280.814C143.215 280.814 139.455 273.61 133.391 274.243C127.251 274.797 99.3912 278.122 85.7297 275.747C83.6575 269.81 84.118 259.835 85.346 250.176C88.3392 239.964 92.1 229.276 94.0187 223.972C94.7862 221.835 95.2467 220.568 95.2467 220.568L142.371 213.364L175.143 197.689C175.143 197.689 197.785 201.568 211.139 204.972C215.974 206.239 235.085 203.626 233.857 203.785C215.975 206.16 231.325 252.076 231.325 252.076V252.076Z" fill="url(#paint23_linear_31_216)"/>
<path d="M50.5019 198.006C50.5019 197.926 50.4244 198.085 50.5019 198.006V198.006Z" fill="url(#paint24_linear_31_216)"/>
<g style="mix-blend-mode:multiply" opacity="0.3">
<path d="M148.358 164.993C146.158 164.94 143.983 164.65 141.834 164.122C139.531 163.647 137.383 162.856 135.234 161.826C119.653 154.622 107.45 137.126 103.459 130.872C103.868 130.82 104.278 130.767 104.687 130.714C105.761 128.893 113.206 127.785 113.206 127.785L141.834 149.397L145.902 142.747C152.502 131.031 157.568 122.56 158.105 122.56C160.024 122.56 167.085 124.618 167.085 124.618L166.624 125.251C169.003 125.568 171.076 125.964 172.995 126.36C172.995 128.022 173.148 165.072 148.358 164.993V164.993Z" fill="#4A7E93"/>
</g>
<g style="mix-blend-mode:multiply" opacity="0.3">
<path d="M86.1135 98.8099L85.653 104.193L84.425 115.277C82.1225 114.485 79.1292 113.218 75.4452 111.239C74.8312 110.87 74.2428 110.5 73.68 110.131C71.0705 108.231 69.382 105.697 68.3842 103.322C67.6935 94.5349 68.9982 85.4307 70.1495 76.3265C72.3752 84.4807 77.2105 92.5557 86.1135 98.8099V98.8099Z" fill="#585866"/>
</g>
<path d="M179.058 109.181C179.058 109.234 179.032 109.286 178.981 109.339C178.444 111.002 177.369 112.585 175.988 114.089C172.38 118.047 166.24 121.452 159.026 123.747C153.039 125.647 146.209 126.756 139.608 126.835C134.159 126.835 128.786 126.36 123.798 125.41C116.737 123.906 110.443 121.293 105.915 117.256C103.305 114.881 101.31 112.031 100.082 108.627C99.7238 107.571 99.4168 106.489 99.161 105.381C98.854 104.009 98.6237 102.636 98.4702 101.264C97.319 90.0224 98.3935 79.4141 98.3935 79.4141C98.3935 79.4141 92.0232 79.4932 91.9465 78.7807C91.9465 78.7807 93.5582 76.1682 95.2467 75.6141C96.091 75.3766 96.8585 75.6141 97.626 76.7224C97.8307 77.1446 98.0353 77.646 98.24 78.2266C98.1888 77.8571 98.1376 77.4349 98.0865 76.9599C98.0353 76.7488 97.9842 76.4849 97.933 76.1682C97.3957 73.7141 95.8607 70.1516 95.7072 65.7974C95.5537 59.8599 97.933 52.4974 109.292 44.7391C115.892 40.2266 122.109 32.7849 126.637 26.4516C131.319 19.9599 134.312 14.5766 134.312 14.5766C144.904 14.1016 154.651 20.5141 162.096 27.8766C170.999 36.5849 176.755 46.7182 176.985 48.3807C177.062 49.0932 176.985 51.1516 176.832 54.0016C176.678 58.0391 176.295 63.5016 175.988 68.7266C175.604 75.6141 175.22 81.9474 175.45 83.4516C175.757 85.9849 177.983 90.9724 179.134 96.5141C180.055 100.631 180.362 105.064 179.058 109.181V109.181Z" fill="url(#paint25_linear_31_216)"/>
<path d="M161.943 119.789C161.943 119.789 161.789 120.106 161.482 120.581C161.175 121.135 160.561 122.006 159.794 123.035C156.877 126.993 150.737 135.622 142.832 135.622C134.85 135.543 126.407 127.943 122.877 124.697C121.265 123.193 120.344 122.164 120.344 122.164L124.949 124.46L158.565 122.401L161.943 119.789Z" fill="#F6E1BD"/>
<path d="M161.175 120.501C161.175 120.501 161.022 120.739 160.715 121.214C160.408 121.847 159.794 122.718 159.026 123.747C156.11 127.706 150.123 133.96 142.218 133.881C134.236 133.801 127.328 128.576 123.798 125.41C122.186 123.906 121.342 122.876 121.342 122.876L124.949 122.639L158.565 120.66L161.175 120.501Z" fill="url(#paint26_linear_31_216)"/>
<path d="M103.152 71.6558C103.101 71.7085 103.05 71.7877 102.998 71.8933C102.947 71.8405 102.998 71.7613 103.152 71.6558Z" fill="url(#paint27_linear_31_216)"/>
<path d="M98.0865 76.9599C97.933 76.9071 97.7795 76.8279 97.626 76.7224C96.8585 75.614 96.091 75.3765 95.2467 75.614C90.3347 73.3974 84.5785 71.4974 82.1992 72.9224C76.5197 76.2474 80.8945 84.639 85.1157 91.5265C84.5529 90.9988 84.0412 90.3918 83.5807 89.7057C78.592 82.4224 76.9802 74.7432 83.0435 71.1807C86.881 68.8849 93.5582 72.9224 97.933 76.1682C97.9841 76.4849 98.0353 76.7488 98.0865 76.9599V76.9599Z" fill="#F6E1BD"/>
<path d="M97.626 76.7224C96.8585 76.353 96.0654 75.9835 95.2467 75.6141C96.091 75.3766 96.8585 75.6141 97.626 76.7224Z" fill="#F6E1BD"/>
<path d="M102.077 79.6515L99.2377 96.2765C99.2377 96.2765 93.2512 100.947 85.1157 91.5265C80.8945 84.639 76.5197 76.2474 82.1992 72.9224C85.5762 70.9432 95.5537 75.4557 100.773 78.464C101.617 79.1765 102.077 79.6515 102.077 79.6515Z" fill="url(#paint28_linear_31_216)"/>
<path d="M97.012 90.8141C97.012 90.8141 92.714 91.8433 90.1045 88.2808C87.5717 84.7183 89.4905 78.7808 86.267 79.7308C83.0435 80.7599 85.8065 87.2516 85.8065 87.2516C85.8065 87.2516 81.662 79.1766 84.8855 76.7224C88.109 74.1891 94.7862 82.5808 94.7862 82.5808C96.8585 85.8266 97.012 90.8141 97.012 90.8141V90.8141Z" fill="url(#paint29_linear_31_216)"/>
<path d="M175.988 114.089C172.38 118.047 166.317 121.372 159.256 123.668C157.875 123.826 158.565 117.256 157.951 116.543C156.416 114.881 154.574 102.293 143.522 102.452C132.394 102.61 127.942 115.593 126.484 117.81C124.258 121.214 123.798 125.014 123.798 125.014L123.337 125.251C116.43 123.826 110.29 121.214 105.915 117.256C113.436 122.085 116.276 121.293 118.886 120.501C122.646 119.393 131.549 102.451 138.994 101.106C146.439 99.6807 147.13 100.076 149.048 100.393C150.967 100.71 161.098 116.385 164.015 118.76C164.271 118.971 164.526 119.129 164.782 119.235C165.192 119.34 165.652 119.393 166.164 119.393C169.848 119.393 170.769 118.997 175.988 114.089V114.089Z" fill="url(#paint30_linear_31_216)"/>
<g style="mix-blend-mode:multiply" opacity="0.3">
<path d="M103.152 71.6558C103.101 71.7085 103.05 71.7877 102.998 71.8933C102.947 71.8405 102.998 71.7613 103.152 71.6558Z" fill="#585866"/>
</g>
<path d="M152.272 117.81C150.737 119.789 148.051 122.322 142.601 122.481C137.996 122.639 135.08 120.501 133.699 118.839C132.01 116.939 132.087 114.722 132.777 114.643C132.777 114.643 152.733 113.218 153.423 114.168C153.73 114.643 153.5 116.226 152.272 117.81V117.81Z" fill="url(#paint31_linear_31_216)"/>
<path d="M152.272 116.543C150.737 118.443 147.82 120.422 142.371 120.581C137.766 120.739 135.08 119.235 133.699 117.572C132.01 115.672 132.087 113.456 132.777 113.377C132.777 113.377 152.733 111.952 153.423 112.902C153.73 113.377 153.5 114.96 152.272 116.543Z" fill="#793246"/>
<path d="M152.272 116.543C150.737 118.443 147.82 120.422 142.371 120.581C137.766 120.739 135.08 119.235 133.698 117.572C134.926 116.781 138.227 115.039 144.29 115.039C147.59 115.039 150.276 115.751 152.272 116.543Z" fill="url(#paint32_linear_31_216)"/>
<path d="M180.286 39.8307L179.365 40.7807C173.225 29.1432 160.1 14.8141 132.24 16.0016C131.626 16.0016 131.038 16.028 130.475 16.0807C125.87 16.2391 118.348 17.4266 110.059 22.1766C96.2445 30.0932 93.8653 51.0724 93.7885 51.5474C91.9465 57.8016 90.9487 63.9766 90.4115 69.2016L86.0367 67.7766C86.0367 67.7766 83.2737 22.9682 111.901 6.26406C116.123 3.8099 120.958 1.98906 126.637 0.959898C127.149 0.854342 127.686 0.775173 128.249 0.722395C129.426 0.511284 130.577 0.352958 131.703 0.247402C134.875 -0.0164865 137.869 -0.0692739 140.683 0.0890595C175.757 2.38489 180.286 39.8307 180.286 39.8307V39.8307Z" fill="#F24164"/>
<path d="M114.588 29.2224C113.974 29.6182 113.667 29.8557 113.667 29.8557C113.667 29.8557 113.897 29.4599 114.588 29.2224Z" fill="url(#paint33_linear_31_216)"/>
<path d="M180.286 42.285L179.365 43.2349C173.225 31.5974 160.1 17.2683 132.24 18.4558C131.677 18.4558 131.089 18.4822 130.475 18.535C125.87 18.6933 118.425 19.8808 110.059 24.6308C96.2445 32.5474 93.8653 53.5266 93.7885 54.0016C92.0233 60.2558 90.9487 66.4308 90.4115 71.6558L86.0367 70.2308C86.0367 70.2308 83.2737 25.4225 111.901 8.71829C116.123 6.26412 120.958 4.44329 126.637 3.41413C127.149 3.30857 127.686 3.2294 128.249 3.17662C129.426 2.96551 130.577 2.80717 131.703 2.70162C134.875 2.43773 137.869 2.38495 140.683 2.54329C175.757 4.83912 180.286 42.285 180.286 42.285V42.285Z" fill="url(#paint34_linear_31_216)"/>
<g style="mix-blend-mode:multiply" opacity="0.3">
<path d="M69.8425 75.1391L65.4677 97.3057C64.6235 96.4349 64.47 94.5349 63.7792 93.3474C62.7815 91.7641 64.7002 69.9932 70.61 51.0724C69.382 57.8807 67.847 66.8265 69.8425 75.1391Z" fill="#585866"/>
</g>
<path style="mix-blend-mode:screen" opacity="0.6" d="M110.06 84.4808C110.06 84.4808 110.827 76.01 118.502 74.2683C126.254 72.4475 129.247 80.6808 129.247 80.6808L110.06 84.4808Z" fill="url(#paint35_linear_31_216)"/>
<path style="mix-blend-mode:screen" opacity="0.6" d="M152.579 80.1265C152.579 80.1265 155.572 71.9724 163.324 73.7932C171.076 75.5349 171.766 84.0057 171.766 84.0057L152.579 80.1265Z" fill="url(#paint36_linear_31_216)"/>
<path d="M176.832 54.0015C176.679 58.039 176.295 63.5015 175.988 68.7265C169.617 67.6182 156.033 61.839 152.656 58.989C148.281 55.189 131.626 38.8807 112.132 46.2432C99.9285 50.914 96.5515 59.7807 95.7072 65.7974C95.5537 59.8599 97.933 52.4974 109.292 44.739C115.892 40.2265 122.109 32.7849 126.637 26.4515H136.538C136.538 26.4515 150.583 27.2432 162.096 27.8765C170.999 36.5849 176.755 46.7182 176.985 48.3807C177.062 49.0932 176.986 51.1515 176.832 54.0015V54.0015Z" fill="url(#paint37_linear_31_216)"/>
<path d="M130.245 87.7266C130.245 87.8058 129.784 87.8849 129.17 87.9641C128.48 88.0433 127.559 88.1224 126.484 88.2016C124.489 88.2808 122.033 88.4391 120.421 88.4391C119.858 88.4391 119.397 88.4391 119.039 88.4391C118.681 88.4391 118.246 88.4127 117.735 88.3599C114.281 88.1224 109.983 87.41 110.06 86.0641C110.06 86.0641 113.053 81.3141 119.73 80.0474C126.407 78.8599 128.556 80.2058 129.17 80.76C131.166 82.66 130.322 87.41 130.245 87.7266V87.7266Z" fill="url(#paint38_linear_31_216)"/>
<path d="M129.554 85.9057C129.554 86.6446 129.426 87.3307 129.17 87.964C128.48 88.0432 127.559 88.1224 126.484 88.2015C124.489 88.2807 122.033 88.439 120.421 88.439C119.858 88.439 119.397 88.439 119.039 88.439C118.681 88.439 118.246 88.4126 117.735 88.3599C117.351 87.6474 117.121 86.7765 117.121 85.9057C117.121 82.6599 119.884 80.0474 123.337 80.0474C126.791 80.0474 129.554 82.6599 129.554 85.9057V85.9057Z" fill="url(#paint39_linear_31_216)"/>
<path d="M127.021 86.3016C127.021 87.0141 126.868 87.6475 126.484 88.2016C124.489 88.2808 122.033 88.4391 120.421 88.4391C119.884 87.885 119.653 87.1725 119.653 86.3016C119.653 84.4016 121.265 82.8975 123.337 82.8975C125.41 82.8975 127.021 84.4016 127.021 86.3016V86.3016Z" fill="#371103"/>
<path d="M118.809 86.0641C118.809 87.0932 118.042 87.8849 117.121 87.8849C116.123 87.8849 115.355 87.0932 115.355 86.0641C115.355 85.1141 116.123 84.3224 117.121 84.3224C118.042 84.3224 118.809 85.1141 118.809 86.0641Z" fill="white"/>
<path d="M122.263 77.8307C129.554 76.0891 131.626 81.1557 131.626 81.1557C131.626 81.1557 128.633 79.8891 126.407 80.0474C119.577 80.5224 113.437 86.0641 111.748 86.3807C110.06 86.6974 106.299 86.3807 106.299 86.3807C111.364 84.2432 113.974 79.7307 122.263 77.8307V77.8307Z" fill="#55232B"/>
<path d="M152.502 80.4432C152.886 79.8099 155.112 78.7016 161.175 79.4141C167.162 80.2057 170.232 84.7974 170.232 84.7974C170.308 86.1432 166.548 87.0932 163.478 87.5682C163.017 87.621 162.633 87.6738 162.326 87.7266C162.019 87.7794 161.61 87.8057 161.098 87.8057C159.64 87.8849 157.491 87.9641 155.649 87.9641C154.728 87.9641 153.884 87.8849 153.27 87.8849C152.656 87.8849 152.272 87.8057 152.272 87.7266C152.119 87.4891 152.042 81.1557 152.502 80.4432V80.4432Z" fill="url(#paint40_linear_31_216)"/>
<path d="M159.026 79.5725C162.096 79.335 164.859 81.71 165.089 84.8767C165.166 85.7475 165.013 86.6183 164.782 87.41C164.271 87.5156 163.861 87.5683 163.554 87.5683C163.247 87.6211 162.838 87.6739 162.326 87.7267C160.868 87.8059 158.719 87.885 156.877 87.885C155.956 87.9642 155.112 87.885 154.498 87.885C154.191 87.2517 154.012 86.592 153.961 85.9059C153.73 82.66 156.033 79.8892 159.026 79.5725V79.5725Z" fill="url(#paint41_linear_31_216)"/>
<path d="M159.256 82.3433C161.098 82.185 162.71 83.61 162.864 85.51C162.94 86.3016 162.71 87.0933 162.326 87.7267C160.868 87.8058 158.719 87.885 156.877 87.885C156.57 87.41 156.34 86.7767 156.263 86.1433C156.11 84.2433 157.491 82.5016 159.256 82.3433Z" fill="#371103"/>
<path d="M164.936 83.2933C165.78 83.2141 166.548 84.0058 166.624 84.9558C166.701 85.9058 166.087 86.7766 165.243 86.8558C164.399 86.935 163.631 86.2225 163.554 85.1933C163.478 84.2433 164.092 83.3725 164.936 83.2933Z" fill="white"/>
<path d="M173.532 84.8766C173.532 84.8766 170.231 85.3516 168.696 85.1933C167.161 85.035 163.017 79.9683 156.954 79.2558C153.347 78.7808 152.349 81.0766 152.349 81.0766C152.349 81.0766 153.039 75.3766 160.484 77.1183C166.778 78.5433 168.927 83.0558 173.532 84.8766V84.8766Z" fill="#55232B"/>
<path d="M130.859 67.6183C129.861 69.5974 126.868 70.3891 117.965 69.5183C111.978 68.8849 104.303 70.7058 103.152 71.6558C103.408 71.1808 103.689 70.7058 103.996 70.2308C103.996 70.2308 103.996 70.2044 103.996 70.1516C104.303 69.7294 104.636 69.3335 104.994 68.9641C104.994 68.9113 104.994 68.8849 104.994 68.8849C107.22 66.5099 110.29 64.9266 115.202 63.9766C117.504 63.5808 119.883 63.0266 122.186 62.4724C122.698 62.3669 123.209 62.2613 123.721 62.1558C124.181 62.0502 124.616 61.9446 125.026 61.8391C127.098 61.3641 128.786 61.1266 129.707 61.1266C129.963 61.1266 130.168 61.153 130.321 61.2058C131.012 61.6016 131.473 63.0266 131.473 64.6099C131.473 65.6391 131.319 66.8266 130.859 67.6183V67.6183Z" fill="url(#paint42_linear_31_216)"/>
<path d="M133.085 103.639C140.99 100.077 143.83 90.6558 143.83 90.6558C145.518 90.8141 147.053 91.9224 148.051 92.7933H148.204C148.307 93.0571 148.434 93.321 148.588 93.5849C150.43 97.6224 152.502 98.0974 154.728 100.71C156.263 102.452 136.538 107.993 133.085 103.639Z" fill="url(#paint43_linear_31_216)"/>
<path d="M154.882 102.056C154.882 102.056 153.347 108.706 145.441 109.181C137.613 109.735 133.392 104.114 133.085 103.639C132.701 103.164 145.211 105.539 151.121 102.293C154.344 100.472 154.958 99.5224 154.882 102.056Z" fill="url(#paint44_linear_31_216)"/>
<path style="mix-blend-mode:screen" opacity="0.6" d="M146.516 98.2558C148.818 98.1766 150.737 98.6516 150.737 99.1266C150.737 99.6808 148.895 100.156 146.592 100.235C144.29 100.235 142.448 99.8391 142.448 99.2849C142.371 98.8099 144.29 98.3349 146.516 98.2558Z" fill="url(#paint45_linear_31_216)"/>
<path d="M138.841 106.964C138.841 106.964 135.617 103.956 133.238 104.985C130.859 106.093 136.078 108.31 138.841 106.964Z" fill="#793246"/>
<path d="M156.647 60.1766C156.749 60.1238 156.903 60.0974 157.107 60.0974C157.798 60.1766 159.103 60.5724 160.638 61.1266C160.945 61.2849 161.252 61.4169 161.559 61.5224C161.968 61.6807 162.377 61.8391 162.787 61.9974C164.398 62.7099 166.24 63.4224 167.929 64.0557C172.841 65.7974 175.143 68.3307 176.525 72.5266C175.681 71.4974 170.001 69.1224 165.319 69.2807C158.489 69.5974 156.263 68.5682 155.649 66.5099C155.035 64.4516 155.649 60.7308 156.647 60.1766V60.1766Z" fill="url(#paint46_linear_31_216)"/>
<path style="mix-blend-mode:multiply" d="M304.391 348.027C304.391 348.027 246.444 354.439 202.927 348.027C173.455 343.672 155.419 333.222 146.9 327.047L169.618 273.214C169.618 273.214 219.582 317.389 264.404 317.706C278.833 317.785 289.578 316.518 297.483 314.697C301.551 333.856 304.391 348.027 304.391 348.027V348.027Z" fill="url(#paint47_linear_31_216)"/>
<path style="mix-blend-mode:multiply" d="M304.391 348.026C304.391 348.026 282.517 350.401 255.501 350.797C250.512 317.468 236.083 227.851 242.53 224.526C250.359 220.489 270.467 217.876 274.305 221.993C281.289 241.626 291.036 284.456 297.483 314.697C301.551 333.856 304.391 348.026 304.391 348.026Z" fill="url(#paint48_linear_31_216)"/>
<path style="mix-blend-mode:screen" opacity="0.6" d="M303.316 342.564C294.72 341.535 280.444 339.318 257.65 334.331C256.217 334.014 254.759 333.697 253.275 333.381C249.233 332.483 244.909 331.507 240.304 330.451C222.652 326.335 208.146 320.397 196.48 314.064C195.15 313.325 193.87 312.586 192.642 311.847C170.692 299.101 159.717 285.247 156.954 281.447L159.87 276.381C159.87 276.381 170.308 293.243 195.789 308.443C197.017 309.182 198.271 309.894 199.55 310.581C210.679 316.756 224.34 322.456 240.918 326.493C246.291 327.813 251.305 329 255.961 330.056C257.445 330.372 258.878 330.689 260.259 331.006C281.519 335.676 294.643 337.814 302.548 338.764C302.804 340.189 303.06 341.456 303.316 342.564V342.564Z" fill="url(#paint49_linear_31_216)"/>
<path style="mix-blend-mode:screen" opacity="0.6" d="M296.792 311.531C292.187 309.947 286.508 307.968 279.524 305.356C278.347 304.933 277.119 304.485 275.84 304.01C271.158 302.268 266.015 300.289 260.259 298.072C258.878 297.545 257.496 297.017 256.115 296.489C252.277 295.011 248.21 293.428 243.912 291.739C227.257 285.168 213.979 278.36 203.388 272.106C202.211 271.367 201.059 270.654 199.934 269.968C180.286 257.697 171.46 247.564 169.234 244.872L172.688 242.893C172.688 242.893 180.67 254.531 203.541 268.939C204.616 269.625 205.741 270.311 206.918 270.997C216.895 277.093 229.406 283.506 244.986 289.76C250.052 291.765 254.784 293.639 259.185 295.381C260.566 295.908 261.897 296.436 263.176 296.964C268.292 298.917 272.949 300.685 277.144 302.268C278.423 302.743 279.651 303.192 280.828 303.614C287.045 305.91 292.11 307.81 296.332 309.235C296.485 310.027 296.639 310.792 296.792 311.531V311.531Z" fill="url(#paint50_linear_31_216)"/>
<path style="mix-blend-mode:screen" opacity="0.6" d="M281.212 245.189C281.007 245.136 280.803 245.057 280.598 244.951C279.268 244.529 277.963 244.107 276.684 243.685C247.135 233.551 231.785 221.518 227.717 218.114L226.873 211.622C226.873 211.622 245.984 227.456 279.677 239.489C280.189 241.336 280.7 243.236 281.212 245.189V245.189Z" fill="url(#paint51_linear_31_216)"/>
<path style="mix-blend-mode:screen" opacity="0.6" d="M291.727 288.651C291.266 289.338 290.78 290.024 290.268 290.71C289.399 291.924 288.478 293.19 287.505 294.51C287.352 294.721 287.173 294.958 286.968 295.222C285.024 297.914 282.977 300.711 280.828 303.614C280.419 304.194 279.984 304.775 279.523 305.356C274.535 312.164 268.932 319.606 262.715 327.839C261.897 328.895 261.078 329.95 260.259 331.006C259.389 332.114 258.52 333.222 257.65 334.331C252.942 340.294 248.286 345.783 243.681 350.797C241.788 350.797 239.895 350.771 238.002 350.718C242.99 345.493 248.056 339.714 253.275 333.381C254.145 332.272 255.04 331.164 255.961 330.056C257.24 328.472 258.494 326.863 259.722 325.226C265.708 317.468 271.004 310.422 275.839 304.01C276.249 303.429 276.684 302.849 277.144 302.268C279.242 299.418 281.263 296.7 283.207 294.114C283.259 294.008 283.31 293.929 283.361 293.876C284.282 292.663 285.152 291.475 285.97 290.314C286.891 289.047 287.787 287.807 288.657 286.593C289.373 285.643 290.038 284.719 290.652 283.822C290.959 285.089 291.266 286.356 291.573 287.622C291.624 287.992 291.676 288.335 291.727 288.651Z" fill="url(#paint52_linear_31_216)"/>
<path style="mix-blend-mode:screen" opacity="0.6" d="M273.384 219.539C265.785 231.097 252.815 249.86 230.864 279.151C229.841 280.471 228.817 281.843 227.794 283.268C226.208 285.326 224.596 287.464 222.959 289.681C216.665 297.914 210.525 305.276 204.539 312.006C203.515 313.167 202.467 314.301 201.392 315.41C192.029 325.543 183.049 333.935 174.76 340.743C172.995 340.031 166.471 337.972 164.706 337.181C164.706 337.181 164.68 337.181 164.629 337.181C173.225 330.531 182.665 322.218 192.643 311.847C193.666 310.739 194.715 309.604 195.789 308.443C202.083 301.714 208.53 294.114 214.977 285.643C216.307 283.901 217.612 282.213 218.891 280.576C219.966 279.151 221.014 277.779 222.038 276.46C249.131 240.835 262.255 221.201 268.472 211.226C268.676 211.385 268.855 211.517 269.009 211.622C269.623 212.018 270.237 212.889 270.928 214.156C271.695 215.501 272.539 217.322 273.384 219.539V219.539Z" fill="url(#paint53_linear_31_216)"/>
<path style="mix-blend-mode:color-dodge" opacity="0.5" d="M192.489 382.939C190.647 382.701 189.035 382.464 187.654 382.306C185.965 370.985 182.051 345.651 180.9 344.464C184.123 345.731 190.263 372.647 192.489 382.939V382.939Z" fill="url(#paint54_linear_31_216)"/>
<path d="M184.2 116.543C183.125 118.522 173.455 119.71 168.85 119.71C168.85 119.631 175.988 115.514 178.06 110.21C180.132 104.906 180.055 100.631 179.134 96.5141C177.983 90.9724 175.757 85.9849 175.45 83.4516C175.067 80.8391 176.371 63.3433 176.832 54.0016C181.821 67.1433 191.875 102.293 184.2 116.543Z" fill="#52526D"/>
<path style="mix-blend-mode:color-dodge" opacity="0.5" d="M304.391 347.947C273.23 350.877 274.995 221.281 268.625 214.71C262.792 208.693 225.415 204.972 218.968 203.943C218.968 203.89 218.993 203.864 219.045 203.864C219.045 203.864 219.07 203.864 219.121 203.864C220.503 204.181 232.629 206.714 235.699 204.814C247.749 205.843 262.562 207.664 268.472 211.227C268.676 211.385 268.855 211.517 269.009 211.622C269.623 212.018 270.237 212.889 270.928 214.156C271.695 215.502 272.539 217.322 273.384 219.539C273.691 220.278 273.998 221.096 274.305 221.993C275.916 226.664 277.758 232.681 279.677 239.489C280.189 241.336 280.7 243.236 281.212 245.189C284.359 256.906 287.582 270.522 290.652 283.822C290.959 285.089 291.266 286.356 291.573 287.622C291.624 287.992 291.676 288.335 291.727 288.652C291.931 289.39 292.111 290.129 292.264 290.868C292.571 292.24 292.878 293.613 293.185 294.985C293.39 295.882 293.594 296.806 293.799 297.756C294.643 301.635 295.488 305.514 296.332 309.235C296.485 310.027 296.639 310.792 296.792 311.531C297.048 312.586 297.278 313.642 297.483 314.697C299.555 324.356 301.321 332.827 302.549 338.764C302.804 340.189 303.06 341.456 303.316 342.564C303.93 345.889 315.596 346.918 304.391 347.947V347.947Z" fill="url(#paint55_linear_31_216)"/>
<path style="mix-blend-mode:color-dodge" opacity="0.5" d="M305.925 374.785C305.542 375.102 302.855 376.21 297.867 377.635C298.941 376.368 299.939 375.101 300.246 374.31C301.167 372.331 296.639 344.385 296.255 341.772L300.937 342.564C300.937 342.564 307.077 373.914 305.925 374.785Z" fill="url(#paint56_linear_31_216)"/>
<path d="M243.067 206.081C239.997 207.901 227.947 204.972 226.566 204.576C226.515 204.576 226.489 204.576 226.489 204.576C226.438 204.629 226.412 204.682 226.412 204.735C226.259 205.21 225.645 206.635 224.877 209.326C223.956 212.651 219.121 218.272 217.202 217.56C215.207 216.926 217.663 210.356 217.816 210.039C217.586 210.435 213.058 220.41 211.369 220.251C209.604 220.093 209.834 216.293 209.834 216.293C209.834 216.293 206.764 222.468 205.46 222.072C204.539 221.756 203.618 219.46 203.157 218.272C203.004 217.718 202.927 217.401 202.927 217.401C202.927 217.401 202.083 217.401 200.164 213.76C198.245 210.197 199.55 194.443 200.778 193.018C201.315 192.385 204.078 191.989 207.609 191.831C207.66 191.778 207.685 191.751 207.685 191.751C212.904 191.514 219.889 191.751 223.956 192.86C228.792 194.126 235.929 196.976 240.227 200.222C242.069 201.647 243.451 203.072 243.758 204.576C243.988 205.289 243.681 205.764 243.067 206.081V206.081Z" fill="url(#paint57_linear_31_216)"/>
<path d="M207.609 192.622C202.159 193.493 203.234 216.926 203.234 216.926C203.234 216.926 203.234 217.481 203.157 218.272C203.004 217.718 202.927 217.401 202.927 217.401C202.927 217.401 202.083 217.401 200.164 213.76C198.245 210.197 199.55 194.443 200.778 193.018C201.315 192.385 204.078 191.989 207.609 191.831C207.66 191.778 207.685 191.751 207.685 191.751C207.737 191.804 207.762 191.857 207.762 191.91C207.916 192.226 207.992 192.543 207.609 192.622V192.622Z" fill="url(#paint58_linear_31_216)"/>
<path d="M209.374 214.947C209.451 214.71 211.523 199.193 212.674 196.739C213.749 194.285 213.672 198.718 213.672 198.718L209.374 214.947Z" fill="url(#paint59_linear_31_216)"/>
<path d="M217.51 209.089C217.51 209.089 218.123 199.431 219.965 199.351C221.731 199.193 217.51 209.089 217.51 209.089Z" fill="url(#paint60_linear_31_216)"/>
<path style="mix-blend-mode:screen" opacity="0.6" d="M163.554 216.689C155.035 221.201 145.365 226.981 138.38 233.314C125.947 244.556 115.202 263.001 112.055 268.701L110.981 261.497C110.981 261.497 121.112 241.785 135.924 228.406C139.378 225.239 143.523 222.31 147.821 219.539C153.116 218.193 158.489 217.322 163.554 216.689V216.689Z" fill="url(#paint61_linear_31_216)"/>
<path style="mix-blend-mode:screen" opacity="0.6" d="M183.049 210.435C180.823 211.385 172.304 212.097 163.554 216.689C158.489 217.322 153.116 218.193 147.82 219.539C162.096 210.356 183.049 210.435 183.049 210.435Z" fill="url(#paint62_linear_31_216)"/>
<path d="M143.599 283.189C143.216 284.218 142.755 284.931 142.755 284.931C142.755 284.931 142.704 284.957 142.602 285.01C141.143 285.326 128.863 288.493 121.265 289.681C118.963 290.076 117.121 290.314 116.123 290.235C115.509 290.156 114.358 290.235 112.976 290.393C110.674 290.71 107.527 291.343 104.227 291.976C101.694 292.531 99.161 293.085 96.8585 293.56C92.0233 294.668 88.2625 295.618 88.2625 295.618C88.2625 295.618 84.732 279.943 73.6033 279.785C73.68 279.706 74.3708 279.389 75.522 278.835C78.3618 277.489 83.9645 275.114 89.8743 273.926C91.4093 273.61 92.9443 273.372 94.4793 273.214C95.9375 273.135 98.0098 272.976 100.389 272.897C103.92 272.66 108.218 272.501 112.746 272.422C114.665 272.343 116.737 272.343 118.732 272.343C129.017 272.343 138.841 273.056 141.374 275.351C142.985 276.697 143.676 278.201 143.906 279.547C144.137 280.972 143.906 282.239 143.599 283.189V283.189Z" fill="url(#paint63_linear_31_216)"/>
<path style="mix-blend-mode:color-dodge" opacity="0.5" d="M218.277 203.785C218.277 203.785 218.533 203.811 219.045 203.864C218.993 203.864 218.968 203.89 218.968 203.943C218.558 203.89 218.277 203.864 218.124 203.864L218.277 203.785Z" fill="url(#paint64_linear_31_216)"/>
<path style="mix-blend-mode:screen" opacity="0.6" d="M118.732 272.343C117.607 273.874 116.455 275.431 115.279 277.014C114.511 278.07 113.744 279.125 112.976 280.181C112.413 280.92 111.85 281.658 111.288 282.397C109.036 285.511 106.683 288.704 104.227 291.976C99.7238 297.993 94.9142 304.379 89.7975 311.135C88.7742 312.507 87.7253 313.853 86.6508 315.172C86.2414 315.753 85.8065 316.333 85.346 316.914C85.2693 314.222 85.1925 311.61 84.9623 309.076C85.3204 308.654 85.6786 308.206 86.0368 307.731C89.8231 302.822 93.4304 298.099 96.8585 293.56C100.236 289.074 103.485 284.772 106.606 280.656C107.169 279.917 107.706 279.178 108.218 278.439C108.678 277.858 109.113 277.278 109.522 276.697C110.597 275.22 111.671 273.795 112.746 272.422C114.665 272.343 116.737 272.343 118.732 272.343V272.343Z" fill="url(#paint65_linear_31_216)"/>
<path d="M215.284 168.951C214.67 167.526 214.132 166.101 213.672 164.993C213.774 164.835 213.825 164.756 213.825 164.756C213.825 164.756 214.516 166.656 215.284 168.951Z" fill="url(#paint66_linear_31_216)"/>
<path d="M240.228 200.222C235.93 196.977 228.792 194.127 223.957 192.86C219.889 191.752 212.904 191.514 207.685 191.752C207.685 191.752 207.66 191.778 207.609 191.831L204.385 190.327C204.385 190.327 218.354 188.822 220.349 189.456C222.345 190.01 237.388 197.214 240.228 200.222V200.222Z" fill="#F6E1BD"/>
<path d="M217.586 177.026C217.126 177.818 213.979 170.851 212.444 167.289C212.597 167.025 212.725 166.814 212.828 166.656C213.211 165.864 213.518 165.231 213.672 164.993C214.132 166.101 214.67 167.526 215.284 168.951C216.205 171.801 217.356 175.364 217.586 177.026V177.026Z" fill="#F6E1BD"/>
<path d="M50.5015 198.006C50.5015 198.006 75.9825 136.018 84.9622 134.514C88.4927 133.881 95.3235 142.906 95.3235 142.906C95.3235 142.906 89.8742 138.472 86.1135 138.551C82.4295 138.631 61.7837 192.702 61.7837 192.702L50.5015 198.006Z" fill="url(#paint67_linear_31_216)"/>
<path d="M225.261 182.647H215.744C215.744 182.647 192.259 134.672 187.193 130.239C184.814 128.181 183.126 127.389 182.051 127.152C195.406 126.36 223.496 179.164 225.261 182.647V182.647Z" fill="url(#paint68_linear_31_216)"/>
<path d="M130.475 19.3266C130.475 19.3266 145.825 6.65996 166.471 12.1225C187.117 17.585 188.038 45.2141 188.038 45.2141L130.475 19.3266Z" fill="#D3E3E5"/>
<path d="M188.268 55.9016C188.268 55.9016 186.886 57.0891 176.525 57.6432C176.32 57.6432 176.09 57.6432 175.834 57.6432C174.299 57.8016 172.688 57.8016 171.076 57.8016L165.396 44.2641L168.083 57.6432C165.627 57.4057 163.171 56.9307 160.638 56.0599C158.182 54.3974 157.107 52.3391 155.803 49.1724C155.803 49.1196 155.803 49.0668 155.803 49.0141C154.268 45.3724 150.737 40.6224 150.507 40.3057C150.584 40.4641 151.658 42.6016 153.04 47.2724C153.04 47.3252 153.065 47.3516 153.116 47.3516C153.73 49.6474 154.268 53.5266 154.268 53.5266C154.268 53.5266 146.055 37.2182 140.683 32.6266C130.936 24.1557 118.118 36.4266 117.965 36.5057C118.042 36.4266 120.344 30.3307 122.109 28.0349C123.721 25.8182 124.719 23.5224 127.482 21.3849C129.017 20.2238 130.68 19.1418 132.471 18.1391C141.911 12.9141 155.035 10.3807 169.234 17.2682C169.592 17.4793 169.95 17.6641 170.308 17.8224C171.025 18.1918 171.715 18.5613 172.381 18.9307C186.272 27.3224 188.268 41.1766 188.268 47.3516C188.217 47.6682 188.191 47.9585 188.191 48.2224C188.191 49.1724 188.268 55.9016 188.268 55.9016V55.9016Z" fill="url(#paint69_linear_31_216)"/>
<g style="mix-blend-mode:multiply" opacity="0.3">
<path d="M152.579 27.7974C152.579 27.7974 147.59 24.2349 139.608 24.6307C133.468 24.9474 126.254 27.9557 123.26 29.3807C124.872 27.1641 127.098 24.8683 129.861 22.8099C132.931 21.8599 137.69 20.9099 142.141 21.6224C149.432 22.9683 152.579 27.7974 152.579 27.7974V27.7974Z" fill="#585866"/>
</g>
<g style="mix-blend-mode:multiply" opacity="0.3">
<path d="M179.518 37.0599L179.441 36.9808C178.213 32.3891 174.069 23.9974 161.175 20.5933C153.653 18.6141 148.818 19.2474 145.057 20.1183L134.312 18.6141C134.85 18.6141 149.816 13.7849 160.791 16.6349C177.83 21.0683 179.518 37.0599 179.518 37.0599V37.0599Z" fill="#585866"/>
</g>
<path style="mix-blend-mode:color-dodge" opacity="0.5" d="M137.843 96.3558C137.843 101.581 130.552 105.777 121.572 105.777C120.651 105.777 119.756 105.75 118.886 105.697C118.579 105.645 118.246 105.592 117.888 105.539C117.632 105.539 117.376 105.513 117.121 105.46C115.995 105.249 114.92 104.985 113.897 104.668C111.825 104.035 109.983 103.085 108.525 101.977C106.529 100.393 105.378 98.4142 105.378 96.3558C105.378 92.5558 109.215 89.2308 114.741 87.7267C116.174 87.3572 117.683 87.0933 119.27 86.935C119.372 86.935 119.449 86.935 119.5 86.935C120.165 86.8822 120.856 86.8558 121.572 86.8558C122.749 86.8558 123.874 86.935 124.949 87.0933C131.166 87.8058 136.078 90.6558 137.459 94.2183C137.715 94.9044 137.843 95.6169 137.843 96.3558V96.3558Z" fill="url(#paint70_linear_31_216)"/>
<path style="mix-blend-mode:color-dodge" opacity="0.5" d="M126.1 104.273L119.423 105.223L118.656 105.302L117.121 105.46C115.995 105.249 114.92 104.985 113.897 104.668L111.748 90.1017C112.976 89.785 118.425 88.835 119.807 88.7559L126.1 104.273Z" fill="url(#paint71_linear_31_216)"/>
<path style="mix-blend-mode:color-dodge" opacity="0.5" d="M134.313 99.6016L128.633 103.085L121.802 89.31L119.96 88.6766C120.574 88.6766 121.188 88.6766 121.802 88.6766C122.826 88.6766 123.798 88.7294 124.719 88.835L134.313 99.6016Z" fill="url(#paint72_linear_31_216)"/>
<path style="mix-blend-mode:color-dodge" opacity="0.5" d="M180.9 94.7725C180.9 97.7016 178.597 100.314 174.99 102.056C172.15 103.402 168.543 104.193 164.629 104.193C155.649 104.193 148.358 99.9975 148.358 94.7725C148.358 94.4558 148.383 94.1127 148.435 93.7433C149.279 88.9933 156.186 85.2725 164.629 85.2725C173.609 85.2725 180.9 89.5475 180.9 94.7725V94.7725Z" fill="url(#paint73_linear_31_216)"/>
<path style="mix-blend-mode:color-dodge" opacity="0.5" d="M169.387 102.452L162.71 103.402L161.943 103.56L160.408 103.639C159.282 103.481 158.207 103.243 157.184 102.927L155.035 88.3599C156.34 88.0433 161.712 87.0933 163.094 86.9349L169.387 102.452Z" fill="url(#paint74_linear_31_216)"/>
<path style="mix-blend-mode:color-dodge" opacity="0.5" d="M177.6 97.7808L171.92 101.264L165.166 87.5683L163.247 86.935C163.861 86.8822 164.501 86.8558 165.166 86.8558C166.138 86.8558 167.11 86.9086 168.083 87.0142L177.6 97.7808Z" fill="url(#paint75_linear_31_216)"/>
<path d="M149.125 92.5558L148.127 92.7141H147.974C146.976 91.8433 145.441 90.8141 143.753 90.7349C143.599 90.7349 143.471 90.7349 143.369 90.7349C140.759 90.7349 137.766 92.9516 136.845 93.6641L136.461 92.5558C136.461 92.5558 140.146 89.3099 143.292 89.3099C143.446 89.3099 143.599 89.3363 143.753 89.3891C145.211 89.4683 146.516 90.2599 147.437 90.9724C148.511 91.7641 149.125 92.5558 149.125 92.5558V92.5558Z" fill="url(#paint76_linear_31_216)"/>
<path d="M95.7073 71.8933L105.301 89.3891L102.461 94.1391L95.7073 74.0308V71.8933Z" fill="url(#paint77_linear_31_216)"/>
<path d="M103.152 90.9724C103.459 90.9724 107.143 91.5266 107.143 91.5266L105.148 94.9307L103.152 92.0808V90.9724Z" fill="url(#paint78_linear_31_216)"/>
<path d="M175.604 74.9016L184.123 90.9724V94.9308L181.667 94.7724L175.604 79.9683V74.9016Z" fill="url(#paint79_linear_31_216)"/>
<path fill-rule="evenodd" clip-rule="evenodd" d="M121.572 105.697C117.121 105.697 112.899 104.668 109.752 102.847C106.375 100.868 104.61 99.1266 104.61 96.3558C104.61 93.5058 106.375 90.8933 109.752 88.9933C112.899 87.0933 117.121 86.0641 121.572 86.0641C126.1 86.0641 130.322 87.0933 133.468 88.9933C136.769 90.8933 138.61 93.5058 138.61 96.3558C138.61 99.1266 136.769 100.868 133.468 102.847C130.322 104.668 126.1 105.697 121.572 105.697ZM121.572 87.6474C117.351 87.6474 113.436 88.5974 110.52 90.3391C107.68 92.0016 106.145 94.1391 106.145 96.3558C106.145 98.5724 107.68 100.71 110.52 102.372C113.436 104.035 117.351 104.985 121.572 104.985C125.793 104.985 129.784 104.035 132.701 102.372C135.541 100.71 137.075 98.5724 137.075 96.3558C137.075 94.1391 135.541 92.0016 132.701 90.3391C129.784 88.5974 125.793 87.6474 121.572 87.6474V87.6474Z" fill="url(#paint80_linear_31_216)"/>
<path fill-rule="evenodd" clip-rule="evenodd" d="M164.629 104.431C160.177 104.431 155.956 103.402 152.733 101.581C149.432 99.6017 147.59 97.6225 147.59 94.7725C147.59 91.9225 149.432 89.31 152.733 87.41C155.956 85.51 160.177 84.4808 164.629 84.4808C169.08 84.4808 173.302 85.51 176.525 87.41C179.825 89.31 181.667 91.9225 181.667 94.7725C181.667 97.6225 179.825 99.6017 176.525 101.581C173.302 103.402 169.08 104.431 164.629 104.431ZM164.629 86.0642C160.408 86.0642 156.493 87.0142 153.5 88.7558C150.66 90.4183 149.125 92.5558 149.125 94.7725C149.125 96.9892 150.66 99.1267 153.5 100.789C156.493 102.452 160.408 103.402 164.629 103.402C168.85 103.402 172.764 102.452 175.758 100.789C178.521 99.1267 180.132 96.9892 180.132 94.7725C180.132 92.5558 178.521 90.4183 175.758 88.7558C172.764 87.0142 168.85 86.0642 164.629 86.0642V86.0642Z" fill="url(#paint81_linear_31_216)"/>
<path style="mix-blend-mode:screen" d="M134.62 97.7016C135.08 100.235 132.087 102.927 127.942 103.718C123.798 104.51 120.037 103.085 119.577 100.552C119.193 98.0183 122.186 95.3266 126.331 94.5349C130.475 93.8224 134.159 95.2474 134.62 97.7016V97.7016Z" fill="url(#paint82_radial_31_216)"/>
<path style="mix-blend-mode:screen" d="M164.475 99.2058C164.168 101.106 161.252 102.135 158.105 101.422C154.958 100.789 152.733 98.7308 153.116 96.7516C153.5 94.8516 156.34 93.8224 159.487 94.5349C162.633 95.1683 164.859 97.2266 164.475 99.2058V99.2058Z" fill="url(#paint83_radial_31_216)"/>
<path d="M117.965 36.5849C117.965 36.5849 130.168 25.6599 138.687 28.0349C147.207 30.3307 153.884 53.5265 153.884 53.5265C153.884 53.5265 143.599 35.4765 137.076 34.1307C130.552 32.7057 117.965 36.5849 117.965 36.5849V36.5849Z" fill="#72728E"/>
<g style="mix-blend-mode:multiply" opacity="0.3">
<path d="M174.146 57.8016H170.999L161.175 34.6849L174.146 57.8016Z" fill="#585866"/>
</g>
<path d="M130.475 18.5349C108.755 20.3557 98.547 37.4557 93.7885 54.0016C93.8653 53.5266 96.2445 32.5474 110.059 24.6307C118.425 19.8807 125.87 18.6932 130.475 18.5349V18.5349Z" fill="#D3E3E5"/>
<path style="mix-blend-mode:color-dodge" opacity="0.9" d="M128.249 16.3974C128.249 16.3974 124.488 16.714 118.041 17.9807L113.667 9.6682C117.197 7.60987 121.342 6.02653 126.1 5.23486L128.249 16.3974Z" fill="url(#paint84_linear_31_216)"/>
<path style="mix-blend-mode:color-dodge" opacity="0.6" d="M214.439 153.514C212.674 153.593 188.651 153.989 188.037 155.176C187.5 156.206 181.207 172.672 178.367 180.351L168.313 177.976C168.313 177.976 161.252 150.901 179.902 140.056C198.552 129.21 214.439 153.514 214.439 153.514V153.514Z" fill="url(#paint85_radial_31_216)"/>
<path d="M129.324 63.5016C129.477 64.2933 126.714 65.4016 123.26 65.9558C119.73 66.51 116.814 66.3516 116.737 65.56C116.583 64.7683 119.346 63.66 122.8 63.1058C126.33 62.5516 129.247 62.71 129.324 63.5016Z" fill="url(#paint86_linear_31_216)"/>
<path d="M166.701 64.8474C166.547 65.6391 164.168 65.6391 161.482 64.9266C158.796 64.2141 156.8 63.0266 156.954 62.2349C157.184 61.4432 159.486 61.4432 162.173 62.1557C164.936 62.9474 166.931 64.1349 166.701 64.8474Z" fill="url(#paint87_linear_31_216)"/>
<path d="M226.106 404.314C222.652 405.185 204.846 415.16 204.846 415.16C204.846 415.16 176.065 416.427 175.527 411.993C175.144 409.302 178.828 401.622 182.051 395.052C180.209 399.168 177.216 407.639 181.974 410.885C188.345 415.16 189.496 414.368 189.496 414.368C189.496 414.368 193.103 390.777 211.6 385.077C211.677 386.66 211.83 387.847 211.984 388.797C214.593 398.931 223.726 403.602 226.106 404.314V404.314Z" fill="url(#paint88_linear_31_216)"/>
<path d="M221.04 402.652C221.347 402.546 221.526 402.546 221.577 402.652C221.731 402.731 221.501 402.81 221.04 402.652Z" fill="url(#paint89_linear_31_216)"/>
<path d="M169.925 425.372L170.769 420.543L268.548 422.443L268.472 426.243C268.472 426.243 242.607 430.597 169.925 425.372V425.372Z" fill="#1D1D2D"/>
<path d="M268.241 422.443C267.244 423.235 264.02 423.789 259.185 424.185C244.295 425.451 214.747 425.135 193.947 424.106C181.207 423.472 171.767 422.601 170.769 421.572C167.469 418.326 195.252 416.822 195.252 416.822L195.559 415.872L197.478 409.143C198.015 408.114 202.16 399.643 212.674 394.418C212.674 394.418 212.7 394.418 212.751 394.418C217.893 391.806 224.571 390.064 233.09 390.381C252.431 391.093 265.478 405.897 268.625 415.397C269.7 418.643 269.623 421.256 268.241 422.443V422.443Z" fill="url(#paint90_linear_31_216)"/>
<path style="mix-blend-mode:color-dodge" opacity="0.5" d="M268.625 415.397C262.332 405.106 239.23 391.014 212.751 394.418C217.893 391.806 224.571 390.064 233.09 390.381C252.431 391.093 265.478 405.897 268.625 415.397Z" fill="url(#paint91_linear_31_216)"/>
<path style="mix-blend-mode:multiply" d="M259.185 424.185C244.295 425.451 214.747 425.135 193.947 424.106L195.559 415.872L197.478 409.143C198.015 408.114 202.159 399.643 212.674 394.418H212.751C204.078 403.601 207.609 416.347 223.189 420.543C232.783 423.156 248.517 423.947 259.185 424.185Z" fill="url(#paint92_linear_31_216)"/>
<path style="mix-blend-mode:screen" opacity="0.6" d="M129.784 300.447L127.252 304.722C127.252 304.722 120.958 297.756 112.976 290.393C107.373 285.168 100.85 279.785 95.0933 276.381C93.2513 275.352 91.486 274.481 89.8743 273.926C91.4093 273.61 92.9443 273.372 94.4793 273.214C95.9375 273.135 98.0098 272.977 100.389 272.897C102.538 273.927 104.687 275.114 106.759 276.539C112.285 280.418 117.351 285.327 121.265 289.681C126.561 295.539 129.784 300.447 129.784 300.447V300.447Z" fill="url(#paint93_linear_31_216)"/>
<defs>
<linearGradient id="paint0_linear_31_216" x1="-15.657" y1="351.431" x2="39.2714" y2="55.3074" gradientUnits="userSpaceOnUse">
<stop stop-color="#0A2D59"/>
<stop offset="1" stop-color="white"/>
</linearGradient>
<linearGradient id="paint1_linear_31_216" x1="53.0342" y1="364.176" x2="107.963" y2="68.0532" gradientUnits="userSpaceOnUse">
<stop stop-color="#0A2D59"/>
<stop offset="1" stop-color="white"/>
</linearGradient>
<linearGradient id="paint2_linear_31_216" x1="299.325" y1="310.739" x2="368.927" y2="433.446" gradientUnits="userSpaceOnUse">
<stop stop-color="#B95D57"/>
<stop offset="1" stop-color="#E5A17A"/>
</linearGradient>
<linearGradient id="paint3_linear_31_216" x1="268.778" y1="401.622" x2="268.939" y2="401.855" gradientUnits="userSpaceOnUse">
<stop stop-color="#B95D57"/>
<stop offset="1" stop-color="#E5A17A"/>
</linearGradient>
<linearGradient id="paint4_linear_31_216" x1="253.736" y1="404.156" x2="348.633" y2="331.728" gradientUnits="userSpaceOnUse">
<stop stop-color="#B95D57"/>
<stop offset="1" stop-color="#E5A17A"/>
</linearGradient>
<linearGradient id="paint5_linear_31_216" x1="268.778" y1="401.622" x2="268.939" y2="401.855" gradientUnits="userSpaceOnUse">
<stop stop-color="#B95D57"/>
<stop offset="1" stop-color="#E5A17A"/>
</linearGradient>
<linearGradient id="paint6_linear_31_216" x1="226.566" y1="428.697" x2="261.681" y2="356.307" gradientUnits="userSpaceOnUse">
<stop stop-color="#1B4B86"/>
<stop offset="1" stop-color="#48A86D"/>
</linearGradient>
<linearGradient id="paint7_linear_31_216" x1="277.605" y1="389.272" x2="307.937" y2="367.921" gradientUnits="userSpaceOnUse">
<stop/>
<stop offset="1" stop-color="#C4A9A5"/>
</linearGradient>
<linearGradient id="paint8_linear_31_216" x1="223.803" y1="431.151" x2="253.309" y2="380.955" gradientUnits="userSpaceOnUse">
<stop stop-color="#AE87C0"/>
<stop offset="1" stop-color="#E2C0D3"/>
</linearGradient>
<linearGradient id="paint9_linear_31_216" x1="234.318" y1="314.618" x2="288.399" y2="435.309" gradientUnits="userSpaceOnUse">
<stop stop-color="#B95D57"/>
<stop offset="1" stop-color="#E5A17A"/>
</linearGradient>
<linearGradient id="paint10_linear_31_216" x1="223.957" y1="401.622" x2="224.117" y2="401.855" gradientUnits="userSpaceOnUse">
<stop stop-color="#B95D57"/>
<stop offset="1" stop-color="#E5A17A"/>
</linearGradient>
<linearGradient id="paint11_linear_31_216" x1="102.308" y1="430.439" x2="92.4711" y2="411.366" gradientUnits="userSpaceOnUse">
<stop stop-color="#FFD9C7"/>
<stop offset="0.8" stop-color="#D48D77"/>
</linearGradient>
<linearGradient id="paint12_linear_31_216" x1="156.186" y1="401.781" x2="159.94" y2="434.372" gradientUnits="userSpaceOnUse">
<stop stop-color="#AE87C0"/>
<stop offset="1" stop-color="#E2C0D3"/>
</linearGradient>
<linearGradient id="paint13_linear_31_216" x1="167.162" y1="432.339" x2="108.559" y2="302.255" gradientUnits="userSpaceOnUse">
<stop stop-color="#FFD9C7"/>
<stop offset="0.8" stop-color="#D48D77"/>
</linearGradient>
<linearGradient id="paint14_linear_31_216" x1="304.851" y1="313.827" x2="309.26" y2="406.835" gradientUnits="userSpaceOnUse">
<stop stop-color="#AE87C0"/>
<stop offset="1" stop-color="#E2C0D3"/>
</linearGradient>
<linearGradient id="paint15_linear_31_216" x1="207.685" y1="25.1057" x2="199.69" y2="89.8055" gradientUnits="userSpaceOnUse">
<stop stop-color="#BBD2D6"/>
<stop offset="1" stop-color="#908CBA"/>
</linearGradient>
<linearGradient id="paint16_linear_31_216" x1="162.48" y1="127.547" x2="176.494" y2="199.272" gradientUnits="userSpaceOnUse">
<stop stop-color="#B95D57"/>
<stop offset="1" stop-color="#E5A17A"/>
</linearGradient>
<linearGradient id="paint17_linear_31_216" x1="134.619" y1="134.514" x2="134.946" y2="123.352" gradientUnits="userSpaceOnUse">
<stop stop-color="#B95D57"/>
<stop offset="1" stop-color="#E5A17A"/>
</linearGradient>
<linearGradient id="paint18_linear_31_216" x1="227.18" y1="123.431" x2="229.221" y2="217.24" gradientUnits="userSpaceOnUse">
<stop stop-color="#A6E0B0"/>
<stop offset="1" stop-color="#62A0BE"/>
</linearGradient>
<linearGradient id="paint19_linear_31_216" x1="147.667" y1="110.843" x2="142.278" y2="237.733" gradientUnits="userSpaceOnUse">
<stop stop-color="#C0FACA"/>
<stop offset="1" stop-color="#76B8D8"/>
</linearGradient>
<linearGradient id="paint20_linear_31_216" x1="170.615" y1="111.793" x2="165.226" y2="238.684" gradientUnits="userSpaceOnUse">
<stop stop-color="#C0FACA"/>
<stop offset="1" stop-color="#76B8D8"/>
</linearGradient>
<linearGradient id="paint21_linear_31_216" x1="350.364" y1="266.168" x2="273.558" y2="405.022" gradientUnits="userSpaceOnUse">
<stop stop-color="#C32B41"/>
<stop offset="0.8" stop-color="#700028"/>
</linearGradient>
<linearGradient id="paint22_linear_31_216" x1="135.848" y1="167.526" x2="164.812" y2="411.235" gradientUnits="userSpaceOnUse">
<stop stop-color="#C32B41"/>
<stop offset="0.8" stop-color="#700028"/>
</linearGradient>
<linearGradient id="paint23_linear_31_216" x1="86.4205" y1="221.201" x2="269.587" y2="136.628" gradientUnits="userSpaceOnUse">
<stop stop-color="#AE87C0"/>
<stop offset="1" stop-color="#E2C0D3"/>
</linearGradient>
<linearGradient id="paint24_linear_31_216" x1="50.7344" y1="198.876" x2="50.7344" y2="198.876" gradientUnits="userSpaceOnUse">
<stop stop-color="#B95D57"/>
<stop offset="1" stop-color="#E5A17A"/>
</linearGradient>
<linearGradient id="paint25_linear_31_216" x1="89.4905" y1="171.089" x2="89.0005" y2="103.402" gradientUnits="userSpaceOnUse">
<stop stop-color="#B95D57"/>
<stop offset="1" stop-color="#E5A17A"/>
</linearGradient>
<linearGradient id="paint26_linear_31_216" x1="118.502" y1="167.606" x2="118.094" y2="105.143" gradientUnits="userSpaceOnUse">
<stop stop-color="#B95D57"/>
<stop offset="1" stop-color="#E5A17A"/>
</linearGradient>
<linearGradient id="paint27_linear_31_216" x1="105.838" y1="71.4974" x2="105.675" y2="72.9213" gradientUnits="userSpaceOnUse">
<stop stop-color="#96C1E3"/>
<stop offset="1" stop-color="#68719D"/>
</linearGradient>
<linearGradient id="paint28_linear_31_216" x1="83.8877" y1="103.164" x2="86.7414" y2="102.342" gradientUnits="userSpaceOnUse">
<stop stop-color="#E2907C"/>
<stop offset="1" stop-color="#E7A87A"/>
</linearGradient>
<linearGradient id="paint29_linear_31_216" x1="103.843" y1="90.7349" x2="83.7187" y2="96.3412" gradientUnits="userSpaceOnUse">
<stop stop-color="#B95D57"/>
<stop offset="1" stop-color="#E5A17A"/>
</linearGradient>
<linearGradient id="paint30_linear_31_216" x1="177.446" y1="76.4057" x2="181.12" y2="156.829" gradientUnits="userSpaceOnUse">
<stop stop-color="#B95D57"/>
<stop offset="1" stop-color="#E5A17A"/>
</linearGradient>
<linearGradient id="paint31_linear_31_216" x1="155.803" y1="104.51" x2="156.211" y2="110.842" gradientUnits="userSpaceOnUse">
<stop stop-color="#B95D57"/>
<stop offset="1" stop-color="#E5A17A"/>
</linearGradient>
<linearGradient id="paint32_linear_31_216" x1="150.967" y1="103.876" x2="159.394" y2="125.873" gradientUnits="userSpaceOnUse">
<stop stop-color="#C16053"/>
<stop offset="1" stop-color="#873266"/>
</linearGradient>
<linearGradient id="paint33_linear_31_216" x1="117.811" y1="29.0641" x2="117.323" y2="31.1952" gradientUnits="userSpaceOnUse">
<stop stop-color="#BBD2D6"/>
<stop offset="1" stop-color="#908CBA"/>
</linearGradient>
<linearGradient id="paint34_linear_31_216" x1="183.279" y1="-9.09421" x2="183.279" y2="68.4891" gradientUnits="userSpaceOnUse">
<stop stop-color="#C32B41"/>
<stop offset="0.8" stop-color="#700028"/>
</linearGradient>
<linearGradient id="paint35_linear_31_216" x1="127.482" y1="67.8558" x2="135.094" y2="86.9344" gradientUnits="userSpaceOnUse">
<stop stop-color="#E2907C"/>
<stop offset="1" stop-color="#E7A87A"/>
</linearGradient>
<linearGradient id="paint36_linear_31_216" x1="154.421" y1="67.3807" x2="146.729" y2="86.4564" gradientUnits="userSpaceOnUse">
<stop stop-color="#E2907C"/>
<stop offset="1" stop-color="#E7A87A"/>
</linearGradient>
<linearGradient id="paint37_linear_31_216" x1="188.268" y1="31.0432" x2="174.357" y2="84.5931" gradientUnits="userSpaceOnUse">
<stop stop-color="#B95D57"/>
<stop offset="1" stop-color="#E5A17A"/>
</linearGradient>
<linearGradient id="paint38_linear_31_216" x1="131.166" y1="73.0808" x2="133.933" y2="84.2836" gradientUnits="userSpaceOnUse">
<stop stop-color="#C8C2F2"/>
<stop offset="1" stop-color="white"/>
</linearGradient>
<linearGradient id="paint39_linear_31_216" x1="113.974" y1="90.9724" x2="114.055" y2="77.4349" gradientUnits="userSpaceOnUse">
<stop stop-color="#96C1E3"/>
<stop offset="1" stop-color="#68719D"/>
</linearGradient>
<linearGradient id="paint40_linear_31_216" x1="150.43" y1="73.4766" x2="148.474" y2="84.6983" gradientUnits="userSpaceOnUse">
<stop stop-color="#C8C2F2"/>
<stop offset="1" stop-color="white"/>
</linearGradient>
<linearGradient id="paint41_linear_31_216" x1="168.466" y1="89.6267" x2="167.242" y2="76.571" gradientUnits="userSpaceOnUse">
<stop stop-color="#96C1E3"/>
<stop offset="1" stop-color="#68719D"/>
</linearGradient>
<linearGradient id="paint42_linear_31_216" x1="133.929" y1="39.3557" x2="134.827" y2="73.3168" gradientUnits="userSpaceOnUse">
<stop stop-color="#96C1E3"/>
<stop offset="1" stop-color="#68719D"/>
</linearGradient>
<linearGradient id="paint43_linear_31_216" x1="136.231" y1="115.356" x2="131.464" y2="104.936" gradientUnits="userSpaceOnUse">
<stop stop-color="#B95D57"/>
<stop offset="1" stop-color="#E5A17A"/>
</linearGradient>
<linearGradient id="paint44_linear_31_216" x1="131.319" y1="112.347" x2="129.525" y2="100.726" gradientUnits="userSpaceOnUse">
<stop stop-color="#A64A44"/>
<stop offset="1" stop-color="#F9A077"/>
</linearGradient>
<linearGradient id="paint45_linear_31_216" x1="153.807" y1="100.077" x2="153.725" y2="98.1768" gradientUnits="userSpaceOnUse">
<stop stop-color="#E2907C"/>
<stop offset="1" stop-color="#E7A87A"/>
</linearGradient>
<linearGradient id="paint46_linear_31_216" x1="178.597" y1="38.0891" x2="179.577" y2="72.0499" gradientUnits="userSpaceOnUse">
<stop stop-color="#96C1E3"/>
<stop offset="1" stop-color="#68719D"/>
</linearGradient>
<linearGradient id="paint47_linear_31_216" x1="147.36" y1="379.456" x2="141.809" y2="296.67" gradientUnits="userSpaceOnUse">
<stop stop-color="#AE87C0"/>
<stop offset="1" stop-color="#E2C0D3"/>
</linearGradient>
<linearGradient id="paint48_linear_31_216" x1="223.112" y1="349.531" x2="239.508" y2="229.409" gradientUnits="userSpaceOnUse">
<stop stop-color="#AE87C0"/>
<stop offset="1" stop-color="#E2C0D3"/>
</linearGradient>
<linearGradient id="paint49_linear_31_216" x1="328.72" y1="344.226" x2="168.51" y2="353.306" gradientUnits="userSpaceOnUse">
<stop stop-color="#C4A9A5"/>
<stop offset="1"/>
</linearGradient>
<linearGradient id="paint50_linear_31_216" x1="326.955" y1="312.877" x2="166.745" y2="321.956" gradientUnits="userSpaceOnUse">
<stop stop-color="#C4A9A5"/>
<stop offset="1"/>
</linearGradient>
<linearGradient id="paint51_linear_31_216" x1="323.194" y1="245.822" x2="162.907" y2="254.902" gradientUnits="userSpaceOnUse">
<stop stop-color="#C4A9A5"/>
<stop offset="1"/>
</linearGradient>
<linearGradient id="paint52_linear_31_216" x1="329.027" y1="348.818" x2="168.74" y2="357.898" gradientUnits="userSpaceOnUse">
<stop stop-color="#C4A9A5"/>
<stop offset="1"/>
</linearGradient>
<linearGradient id="paint53_linear_31_216" x1="328.183" y1="334.647" x2="167.973" y2="343.727" gradientUnits="userSpaceOnUse">
<stop stop-color="#C4A9A5"/>
<stop offset="1"/>
</linearGradient>
<linearGradient id="paint54_linear_31_216" x1="192.182" y1="326.731" x2="198.713" y2="429.464" gradientUnits="userSpaceOnUse">
<stop/>
<stop offset="1" stop-color="#C4A9A5"/>
</linearGradient>
<linearGradient id="paint55_linear_31_216" x1="182.358" y1="246.931" x2="233.428" y2="184.984" gradientUnits="userSpaceOnUse">
<stop/>
<stop offset="1" stop-color="#C4A9A5"/>
</linearGradient>
<linearGradient id="paint56_linear_31_216" x1="305.925" y1="325.464" x2="311.967" y2="419.807" gradientUnits="userSpaceOnUse">
<stop/>
<stop offset="1" stop-color="#C4A9A5"/>
</linearGradient>
<linearGradient id="paint57_linear_31_216" x1="291.496" y1="216.214" x2="264.386" y2="218.969" gradientUnits="userSpaceOnUse">
<stop stop-color="#B95D57"/>
<stop offset="1" stop-color="#E5A17A"/>
</linearGradient>
<linearGradient id="paint58_linear_31_216" x1="194.791" y1="197.61" x2="204.734" y2="182.451" gradientUnits="userSpaceOnUse">
<stop stop-color="#B95D57"/>
<stop offset="1" stop-color="#E5A17A"/>
</linearGradient>
<linearGradient id="paint59_linear_31_216" x1="193.717" y1="207.268" x2="214.421" y2="192.366" gradientUnits="userSpaceOnUse">
<stop stop-color="#B95D57"/>
<stop offset="1" stop-color="#E5A17A"/>
</linearGradient>
<linearGradient id="paint60_linear_31_216" x1="211.063" y1="202.043" x2="218.987" y2="196.263" gradientUnits="userSpaceOnUse">
<stop stop-color="#B95D57"/>
<stop offset="1" stop-color="#E5A17A"/>
</linearGradient>
<linearGradient id="paint61_linear_31_216" x1="169.848" y1="170.931" x2="162.338" y2="270.964" gradientUnits="userSpaceOnUse">
<stop stop-color="#C4A9A5"/>
<stop offset="1"/>
</linearGradient>
<linearGradient id="paint62_linear_31_216" x1="188.805" y1="172.593" x2="181.376" y2="272.152" gradientUnits="userSpaceOnUse">
<stop stop-color="#C4A9A5"/>
<stop offset="1"/>
</linearGradient>
<linearGradient id="paint63_linear_31_216" x1="144.444" y1="263.793" x2="157.734" y2="346.635" gradientUnits="userSpaceOnUse">
<stop stop-color="#C32B41"/>
<stop offset="0.8" stop-color="#700028"/>
</linearGradient>
<linearGradient id="paint64_linear_31_216" x1="215.591" y1="202.043" x2="216.147" y2="201.427" gradientUnits="userSpaceOnUse">
<stop/>
<stop offset="1" stop-color="#C4A9A5"/>
</linearGradient>
<linearGradient id="paint65_linear_31_216" x1="84.9623" y1="269.176" x2="118.732" y2="269.176" gradientUnits="userSpaceOnUse">
<stop stop-color="#C4A9A5"/>
<stop offset="1"/>
</linearGradient>
<linearGradient id="paint66_linear_31_216" x1="214.516" y1="160.481" x2="218.346" y2="165.354" gradientUnits="userSpaceOnUse">
<stop stop-color="#B95D57"/>
<stop offset="1" stop-color="#E5A17A"/>
</linearGradient>
<linearGradient id="paint67_linear_31_216" x1="84.732" y1="121.135" x2="123.895" y2="178.202" gradientUnits="userSpaceOnUse">
<stop stop-color="#C0FACA"/>
<stop offset="1" stop-color="#76B8D8"/>
</linearGradient>
<linearGradient id="paint68_linear_31_216" x1="227.18" y1="126.993" x2="228.323" y2="182.567" gradientUnits="userSpaceOnUse">
<stop stop-color="#C0FACA"/>
<stop offset="1" stop-color="#76B8D8"/>
</linearGradient>
<linearGradient id="paint69_linear_31_216" x1="192.796" y1="55.1099" x2="153.641" y2="88.0289" gradientUnits="userSpaceOnUse">
<stop stop-color="#BBD2D6"/>
<stop offset="1" stop-color="#908CBA"/>
</linearGradient>
<linearGradient id="paint70_linear_31_216" x1="102.308" y1="106.568" x2="102.226" y2="88.5184" gradientUnits="userSpaceOnUse">
<stop/>
<stop offset="1" stop-color="#C4A9A5"/>
</linearGradient>
<linearGradient id="paint71_linear_31_216" x1="115.202" y1="114.881" x2="104.064" y2="92.1108" gradientUnits="userSpaceOnUse">
<stop/>
<stop offset="1" stop-color="#C4A9A5"/>
</linearGradient>
<linearGradient id="paint72_linear_31_216" x1="125.87" y1="109.102" x2="116.103" y2="89.069" gradientUnits="userSpaceOnUse">
<stop/>
<stop offset="1" stop-color="#C4A9A5"/>
</linearGradient>
<linearGradient id="paint73_linear_31_216" x1="145.365" y1="106.331" x2="145.201" y2="88.2809" gradientUnits="userSpaceOnUse">
<stop/>
<stop offset="1" stop-color="#C4A9A5"/>
</linearGradient>
<linearGradient id="paint74_linear_31_216" x1="158.489" y1="113.06" x2="147.351" y2="90.3696" gradientUnits="userSpaceOnUse">
<stop/>
<stop offset="1" stop-color="#C4A9A5"/>
</linearGradient>
<linearGradient id="paint75_linear_31_216" x1="169.234" y1="107.281" x2="159.467" y2="87.2482" gradientUnits="userSpaceOnUse">
<stop/>
<stop offset="1" stop-color="#C4A9A5"/>
</linearGradient>
<linearGradient id="paint76_linear_31_216" x1="143.292" y1="115.514" x2="133.442" y2="95.0062" gradientUnits="userSpaceOnUse">
<stop stop-color="#634C5F"/>
<stop offset="1" stop-color="#45254F"/>
</linearGradient>
<linearGradient id="paint77_linear_31_216" x1="114.972" y1="129.131" x2="105.043" y2="108.706" gradientUnits="userSpaceOnUse">
<stop stop-color="#634C5F"/>
<stop offset="1" stop-color="#45254F"/>
</linearGradient>
<linearGradient id="paint78_linear_31_216" x1="116.276" y1="128.497" x2="106.427" y2="108.069" gradientUnits="userSpaceOnUse">
<stop stop-color="#634C5F"/>
<stop offset="1" stop-color="#45254F"/>
</linearGradient>
<linearGradient id="paint79_linear_31_216" x1="191.184" y1="98.0183" x2="180.055" y2="98.1671" gradientUnits="userSpaceOnUse">
<stop stop-color="#634C5F"/>
<stop offset="1" stop-color="#45254F"/>
</linearGradient>
<linearGradient id="paint80_linear_31_216" x1="104.61" y1="82.8974" x2="138.61" y2="82.8974" gradientUnits="userSpaceOnUse">
<stop stop-color="#45254F"/>
<stop offset="1" stop-color="#634C5F"/>
</linearGradient>
<linearGradient id="paint81_linear_31_216" x1="150.737" y1="111.952" x2="140.808" y2="91.4469" gradientUnits="userSpaceOnUse">
<stop stop-color="#634C5F"/>
<stop offset="1" stop-color="#45254F"/>
</linearGradient>
<radialGradient id="paint82_radial_31_216" cx="0" cy="0" r="1" gradientUnits="userSpaceOnUse" gradientTransform="translate(127.098 99.1266) scale(7.21451 7.44166)">
<stop stop-color="#C4FFA5"/>
<stop offset="1"/>
</radialGradient>
<radialGradient id="paint83_radial_31_216" cx="0" cy="0" r="1" gradientUnits="userSpaceOnUse" gradientTransform="translate(158.796 98.0183) scale(5.44925 5.62083)">
<stop stop-color="#C4FFA5"/>
<stop offset="1"/>
</radialGradient>
<linearGradient id="paint84_linear_31_216" x1="79.5131" y1="17.3474" x2="148.247" y2="-5.26387" gradientUnits="userSpaceOnUse">
<stop/>
<stop offset="1" stop-color="#C4A9A5"/>
</linearGradient>
<radialGradient id="paint85_radial_31_216" cx="0" cy="0" r="1" gradientUnits="userSpaceOnUse" gradientTransform="translate(193.563 164.993) scale(19.955 20.5833)">
<stop stop-color="#C4A9A5"/>
<stop offset="1"/>
</radialGradient>
<linearGradient id="paint86_linear_31_216" x1="132.317" y1="53.9224" x2="132.48" y2="80.0474" gradientUnits="userSpaceOnUse">
<stop stop-color="#96C1E3"/>
<stop offset="1" stop-color="#68719D"/>
</linearGradient>
<linearGradient id="paint87_linear_31_216" x1="169.694" y1="53.3682" x2="169.776" y2="80.1266" gradientUnits="userSpaceOnUse">
<stop stop-color="#96C1E3"/>
<stop offset="1" stop-color="#68719D"/>
</linearGradient>
<linearGradient id="paint88_linear_31_216" x1="164.399" y1="403.681" x2="268.635" y2="338.23" gradientUnits="userSpaceOnUse">
<stop stop-color="#B95D57"/>
<stop offset="1" stop-color="#E5A17A"/>
</linearGradient>
<linearGradient id="paint89_linear_31_216" x1="223.957" y1="401.622" x2="224.117" y2="401.855" gradientUnits="userSpaceOnUse">
<stop stop-color="#B95D57"/>
<stop offset="1" stop-color="#E5A17A"/>
</linearGradient>
<linearGradient id="paint90_linear_31_216" x1="172.841" y1="412.626" x2="316.097" y2="337.263" gradientUnits="userSpaceOnUse">
<stop stop-color="#1B4B86"/>
<stop offset="1" stop-color="#48A86D"/>
</linearGradient>
<linearGradient id="paint91_linear_31_216" x1="213.058" y1="390.697" x2="243.457" y2="369.581" gradientUnits="userSpaceOnUse">
<stop/>
<stop offset="1" stop-color="#C4A9A5"/>
</linearGradient>
<linearGradient id="paint92_linear_31_216" x1="187.424" y1="404.472" x2="279.944" y2="355.815" gradientUnits="userSpaceOnUse">
<stop stop-color="#AE87C0"/>
<stop offset="1" stop-color="#E2C0D3"/>
</linearGradient>
<linearGradient id="paint93_linear_31_216" x1="136.385" y1="250.889" x2="132.385" y2="304.229" gradientUnits="userSpaceOnUse">
<stop stop-color="#C4A9A5"/>
<stop offset="1"/>
</linearGradient>
</defs>
</svg>
