<svg width="288" height="262" viewBox="0 0 288 262" fill="none" xmlns="http://www.w3.org/2000/svg">
<path d="M30.4083 8.90859H30.4851C30.5874 8.90859 30.6897 8.90859 30.7921 8.90859C39.5416 6.53359 228.654 -3.44142 243.466 1.22942C249.069 2.97108 253.367 39.5461 256.514 84.5919C261.963 160.434 264.266 260.421 264.266 260.421L84.9008 260.975L59.4198 261.054V260.975L32.0968 92.3503V92.1128C30.306 92.1655 28.5407 92.0336 26.8011 91.7169C25.7777 91.5586 24.7544 91.2947 23.7311 90.9253C21.7867 90.3447 19.9447 89.5003 18.2051 88.3919C10.9138 83.9586 5.08082 75.8836 2.16432 65.8294C0.859568 61.5544 0.168819 56.8836 0.0153188 51.9753C-0.521931 29.0169 13.1396 9.70026 30.4083 8.90859V8.90859Z" fill="url(#paint0_linear_31_368)"/>
<path d="M14.9817 15.0836C19.51 11.4419 24.729 9.14606 30.4085 8.90856H30.4852C30.5876 8.90856 30.6899 8.90856 30.7922 8.90856C30.8434 8.90856 30.869 8.88217 30.869 8.82939C31.0225 8.82939 31.176 8.803 31.3295 8.75022C31.3295 8.75022 31.3551 8.75022 31.4062 8.75022C31.5086 8.75022 31.6621 8.72383 31.8667 8.67105C31.9691 8.67105 32.097 8.67105 32.2505 8.67105C32.3017 8.61827 32.3528 8.5919 32.404 8.5919C32.5063 8.5919 32.5831 8.5919 32.6342 8.5919C32.6854 8.5919 32.7622 8.56551 32.8645 8.51273C32.9157 8.51273 32.9668 8.51273 33.018 8.51273C33.0692 8.51273 33.1203 8.51273 33.1715 8.51273C33.325 8.51273 33.4529 8.48634 33.5552 8.43356C33.5552 8.43356 33.5808 8.43356 33.632 8.43356C33.7855 8.43356 33.939 8.43356 34.0925 8.43356C34.0925 8.43356 34.1181 8.43356 34.1692 8.43356C34.2716 8.38078 34.3483 8.35439 34.3995 8.35439C34.3995 8.35439 34.4251 8.35439 34.4762 8.35439C34.5274 8.35439 34.6041 8.35439 34.7065 8.35439C34.8088 8.35439 34.9112 8.32799 35.0135 8.27521C35.0647 8.27521 35.1158 8.27521 35.167 8.27521C35.2182 8.27521 35.2693 8.27521 35.3205 8.27521C35.3717 8.27521 35.3972 8.27521 35.3972 8.27521C35.4996 8.27521 35.6019 8.27521 35.7042 8.27521C35.7042 8.22244 35.7042 8.19607 35.7042 8.19607C35.7554 8.19607 35.8066 8.19607 35.8577 8.19607C36.2671 8.14329 36.6764 8.1169 37.0857 8.1169C37.2392 8.1169 37.3672 8.0905 37.4695 8.03772C37.5207 8.03772 37.5718 8.03772 37.623 8.03772C37.7765 8.03772 37.9044 8.03772 38.0067 8.03772C38.2114 7.98495 38.4161 7.95855 38.6207 7.95855C38.7742 7.95855 38.9277 7.95855 39.0812 7.95855C39.1836 7.90578 39.3115 7.87938 39.465 7.87938C40.8977 7.77383 42.4838 7.64188 44.2235 7.48355C44.4793 7.48355 44.7096 7.48355 44.9142 7.48355C45.2212 7.43077 45.5027 7.4044 45.7585 7.4044C46.6795 7.29885 47.6261 7.21966 48.5982 7.16689C48.9052 7.16689 49.2378 7.14049 49.596 7.08771C50.0565 7.08771 50.517 7.06135 50.9775 7.00857C51.2845 6.95579 51.5915 6.9294 51.8985 6.9294C53.0242 6.87662 54.201 6.79744 55.429 6.69188C55.6337 6.69188 55.8639 6.66551 56.1197 6.61273C56.5802 6.61273 57.0663 6.58634 57.578 6.53356C58.0385 6.53356 58.499 6.50717 58.9595 6.45439C59.1642 6.45439 59.3944 6.428 59.6502 6.37522C60.0596 6.37522 60.4945 6.34883 60.955 6.29605C69.0137 5.82105 78.3005 5.26688 88.4315 4.71271C88.9943 4.65994 89.5827 4.63357 90.1967 4.63357C91.0154 4.58079 91.8597 4.528 92.7295 4.47522C93.5993 4.42245 94.4947 4.36966 95.4157 4.31688C98.0764 4.15855 100.763 4.0266 103.474 3.92105C105.828 3.76271 108.207 3.63077 110.612 3.52521C111.943 3.47244 113.247 3.41967 114.526 3.3669C115.652 3.31412 116.752 3.26133 117.827 3.20855C121.255 3.05022 124.683 2.89188 128.111 2.73355C129.288 2.68077 130.439 2.62801 131.565 2.57523C133.714 2.46967 135.863 2.36412 138.012 2.25857C140.314 2.15301 142.617 2.04744 144.919 1.94188C149.166 1.78355 153.388 1.62523 157.583 1.4669C158.044 1.4669 158.504 1.44051 158.965 1.38773C159.169 1.38773 159.348 1.38773 159.502 1.38773C161.446 1.33495 163.391 1.28216 165.335 1.22939C166.665 1.17661 167.996 1.12384 169.326 1.07107C169.94 1.01829 170.554 0.991896 171.168 0.991896C172.396 0.939118 173.598 0.88633 174.775 0.833553C175.338 0.833553 175.901 0.833553 176.464 0.833553C176.822 0.833553 177.154 0.807159 177.461 0.754381C177.768 0.754381 178.075 0.754381 178.382 0.754381C178.689 0.754381 179.022 0.754381 179.38 0.754381C179.994 0.701603 180.608 0.675234 181.222 0.675234C182.604 0.622456 183.985 0.569669 185.367 0.516891C185.674 0.516891 185.955 0.516891 186.211 0.516891C187.388 0.516891 188.539 0.490497 189.665 0.437719C190.074 0.437719 190.509 0.437719 190.969 0.437719C191.276 0.384942 191.558 0.358548 191.814 0.358548C192.223 0.358548 192.632 0.358548 193.042 0.358548C194.065 0.30577 195.088 0.279401 196.112 0.279401C196.316 0.279401 196.547 0.279401 196.802 0.279401C197.723 0.226623 198.619 0.200229 199.489 0.200229C199.745 0.200229 200.026 0.200229 200.333 0.200229C200.845 0.200229 201.382 0.200229 201.945 0.200229C202.456 0.147451 202.942 0.121058 203.403 0.121058C207.138 0.0682798 210.669 0.041886 213.994 0.041886H214.071C214.276 0.041886 214.506 0.041886 214.762 0.041886C225.353 -0.0372806 233.796 0.121058 238.861 0.516891C240.78 0.675224 242.162 0.912715 243.083 1.15021C243.236 1.15021 243.364 1.17661 243.466 1.22939C244.157 1.46689 244.771 2.1794 245.462 3.3669C250.067 11.9961 253.751 45.0086 256.514 84.5919L238.554 84.4336L32.097 92.3502V92.1127C30.3062 92.1655 28.5409 92.0336 26.8012 91.7169C25.7779 91.5586 24.7546 91.2947 23.7312 90.9252C21.7869 90.3447 19.9449 89.5002 18.2052 88.3919C10.914 83.9586 5.08099 75.8836 2.16449 65.8294C0.859736 61.5544 0.168987 56.8836 0.0154869 51.9752C-0.291513 36.5377 5.69499 22.7627 14.9817 15.0836V15.0836Z" fill="url(#paint1_linear_31_368)"/>
<g style="mix-blend-mode:multiply" opacity="0.4">
<path d="M202.328 60.7627C202.328 60.7627 204.477 79.2877 228.807 84.1169L229.575 84.3544L37.3158 92.0335L34.7831 91.796C33.7597 91.6377 32.762 91.3738 31.7898 91.0043C29.9478 90.371 28.1826 89.5266 26.4941 88.471C19.4331 84.0377 13.9071 75.9627 11.0673 65.9085L202.328 60.7627Z" fill="#6F330D"/>
</g>
<g style="mix-blend-mode:multiply" opacity="0.4">
<path d="M162.418 104.621L171.014 248.071L255.977 255.75L60.8781 258.759L36.8553 96.6253L228.347 86.6503L162.418 104.621Z" fill="#6F330D"/>
</g>
<path d="M30.4083 8.90856H30.4851C30.5874 8.90856 30.6897 8.90856 30.7921 8.90856C30.8432 8.90856 30.8688 8.88217 30.8688 8.82939C31.0223 8.82939 31.1758 8.803 31.3293 8.75022C31.3293 8.75022 31.3549 8.75022 31.4061 8.75022C31.5084 8.75022 31.6619 8.72383 31.8666 8.67105C31.9689 8.67105 32.0968 8.67105 32.2503 8.67105C32.3015 8.61827 32.3526 8.5919 32.4038 8.5919C32.5061 8.5919 32.5829 8.5919 32.6341 8.5919C32.6852 8.5919 32.762 8.56551 32.8643 8.51273C32.9155 8.51273 32.9667 8.51273 33.0178 8.51273C33.069 8.51273 33.1201 8.51273 33.1713 8.51273C33.3248 8.51273 33.4527 8.48633 33.5551 8.43356C33.5551 8.43356 33.5807 8.43356 33.6318 8.43356C33.7853 8.43356 33.9388 8.43356 34.0923 8.43356C34.0923 8.43356 34.1179 8.43356 34.1691 8.43356C34.1691 8.38078 34.1691 8.38078 34.1691 8.43356C34.2202 8.38078 34.297 8.35439 34.3993 8.35439C34.3993 8.35439 34.4249 8.35439 34.4761 8.35439C34.5272 8.35439 34.5784 8.35439 34.6296 8.35439C34.6807 8.35439 34.7063 8.35439 34.7063 8.35439C34.8086 8.35439 34.911 8.32799 35.0133 8.27521C35.1156 8.27521 35.1924 8.27521 35.2436 8.27521C35.2947 8.27521 35.3203 8.27521 35.3203 8.27521C35.3715 8.27521 35.3971 8.27521 35.3971 8.27521C35.4482 8.27521 35.4994 8.27521 35.5506 8.27521C35.6017 8.27521 35.6529 8.27521 35.7041 8.27521C35.7041 8.22244 35.7041 8.19607 35.7041 8.19607C35.7552 8.19607 35.8064 8.19607 35.8576 8.19607C36.2669 8.14329 36.6762 8.1169 37.0856 8.1169C37.2391 8.1169 37.367 8.0905 37.4693 8.03772C37.5205 8.03772 37.5717 8.03772 37.6228 8.03772C37.7763 8.03772 37.9042 8.03772 38.0066 8.03772C38.2112 7.98495 38.4159 7.95855 38.6206 7.95855C38.6717 7.95855 38.6973 7.95855 38.6973 7.95855C38.7997 7.95855 38.9276 7.95855 39.0811 7.95855C39.1834 7.90577 39.3113 7.87938 39.4648 7.87938C40.8975 7.77383 42.4836 7.64188 44.2233 7.48355C44.4791 7.48355 44.7094 7.48355 44.9141 7.48355C45.2211 7.43077 45.5025 7.4044 45.7583 7.4044C46.6793 7.29884 47.6259 7.21966 48.5981 7.16689C48.9051 7.16689 49.2376 7.14049 49.5958 7.08771C50.0563 7.08771 50.5168 7.06134 50.9773 7.00857C51.2843 6.95579 51.5913 6.9294 51.8983 6.9294C53.024 6.87662 54.2008 6.79744 55.4288 6.69188C55.6335 6.69188 55.8637 6.66551 56.1196 6.61273C56.5801 6.61273 57.0661 6.58634 57.5778 6.53356C58.0383 6.53356 58.4988 6.50717 58.9593 6.45439C59.164 6.45439 59.3942 6.428 59.6501 6.37522C60.0594 6.37522 60.4943 6.34883 60.9548 6.29605C69.0136 5.82105 78.3003 5.26688 88.4313 4.71271C88.9941 4.65994 89.5826 4.63357 90.1966 4.63357C91.0152 4.58079 91.8595 4.528 92.7293 4.47522C93.5992 4.42245 94.4946 4.36966 95.4156 4.31688C98.0762 4.15855 100.762 4.0266 103.474 3.92105C105.828 3.76271 108.207 3.63077 110.612 3.52521C111.942 3.47244 113.247 3.41967 114.526 3.3669C115.652 3.31412 116.752 3.26133 117.827 3.20855C121.255 3.05022 124.683 2.89188 128.111 2.73355C129.288 2.68077 130.439 2.62801 131.565 2.57523C133.714 2.46967 135.863 2.36412 138.012 2.25857C140.314 2.15301 142.617 2.04744 144.919 1.94188C149.166 1.78355 153.387 1.62523 157.583 1.4669C158.044 1.4669 158.504 1.44051 158.965 1.38773C159.169 1.38773 159.348 1.38773 159.502 1.38773C161.446 1.33495 163.39 1.28216 165.335 1.22939C166.665 1.17661 167.995 1.12384 169.326 1.07107C169.94 1.01829 170.554 0.991896 171.168 0.991896C172.396 0.939118 173.598 0.88633 174.775 0.833553C175.338 0.833553 175.901 0.833553 176.464 0.833553C176.822 0.833553 177.154 0.807159 177.461 0.754381C177.768 0.754381 178.075 0.754381 178.382 0.754381C178.689 0.754381 179.022 0.754381 179.38 0.754381C179.994 0.701603 180.608 0.675234 181.222 0.675234C182.604 0.622456 183.985 0.569669 185.367 0.516891C185.674 0.516891 185.955 0.516891 186.211 0.516891C187.388 0.516891 188.539 0.490497 189.665 0.437719C190.074 0.437719 190.509 0.437719 190.969 0.437719C191.276 0.384942 191.558 0.358548 191.814 0.358548C192.223 0.358548 192.632 0.358548 193.042 0.358548C194.065 0.30577 195.088 0.279401 196.112 0.279401C196.316 0.279401 196.546 0.279401 196.802 0.279401C197.723 0.226623 198.619 0.200229 199.489 0.200229C199.744 0.200229 200.026 0.200229 200.333 0.200229C200.844 0.200229 201.382 0.200229 201.945 0.200229C202.456 0.147451 202.942 0.121058 203.403 0.121058C207.138 0.0682797 210.668 0.041886 213.994 0.041886H214.071C214.301 0.041886 214.532 0.041886 214.762 0.041886C225.353 -0.0372806 233.796 0.121058 238.861 0.516891C240.78 0.675224 242.162 0.912714 243.083 1.15021C243.236 1.15021 243.364 1.17661 243.466 1.22939C244.157 1.46689 244.771 2.1794 245.462 3.3669L235.408 3.52521L227.502 10.3336L14.9816 15.0836C19.5098 11.4419 24.7288 9.14606 30.4083 8.90856V8.90856Z" fill="url(#paint2_linear_31_368)"/>
<path style="mix-blend-mode:color-dodge" d="M32.2503 8.67105C32.3015 8.61827 32.3527 8.5919 32.4038 8.5919C32.5062 8.5919 32.5829 8.5919 32.6341 8.5919C32.6852 8.5919 32.7108 8.5919 32.7108 8.5919C32.762 8.5919 32.8132 8.56551 32.8643 8.51273C32.9155 8.51273 32.9667 8.51273 33.0178 8.51273C33.069 8.51273 33.1202 8.51273 33.1713 8.51273C33.3248 8.51273 33.4527 8.48634 33.5551 8.43356C33.5551 8.43356 33.5807 8.43356 33.6318 8.43356C33.7853 8.43356 33.9388 8.43356 34.0923 8.43356C34.0923 8.43356 34.1179 8.43356 34.1691 8.43356C34.1691 8.38078 34.1691 8.38078 34.1691 8.43356C34.2202 8.38078 34.2714 8.35439 34.3226 8.35439C34.3737 8.35439 34.3993 8.35439 34.3993 8.35439C34.3993 8.35439 34.4249 8.35439 34.4761 8.35439C34.5272 8.35439 34.5784 8.35439 34.6296 8.35439C34.6807 8.35439 34.7063 8.35439 34.7063 8.35439C34.8087 8.35439 34.911 8.32799 35.0133 8.27521C35.0645 8.27521 35.1157 8.27521 35.1668 8.27521C35.218 8.27521 35.2436 8.27521 35.2436 8.27521C35.2947 8.27521 35.3203 8.27521 35.3203 8.27521C35.3715 8.27521 35.3971 8.27521 35.3971 8.27521C35.4482 8.27521 35.4994 8.27521 35.5506 8.27521C35.6017 8.27521 35.6529 8.27521 35.7041 8.27521C35.7041 8.22244 35.7041 8.19607 35.7041 8.19607C35.7552 8.19607 35.8064 8.19607 35.8576 8.19607C36.2669 8.14329 36.6762 8.1169 37.0856 8.1169C37.2391 8.1169 37.367 8.0905 37.4693 8.03772C37.5205 8.03772 37.5717 8.03772 37.6228 8.03772C37.7763 8.03772 37.9042 8.03772 38.0066 8.03772C38.2112 7.98495 38.4415 7.95855 38.6973 7.95855C38.9532 7.95855 39.209 7.93216 39.4648 7.87938C40.8975 7.77383 42.4837 7.64188 44.2233 7.48355C44.4792 7.48355 44.7094 7.48355 44.9141 7.48355C45.2211 7.43077 45.5025 7.4044 45.7583 7.4044C46.6793 7.29885 47.6259 7.21966 48.5981 7.16689C48.9051 7.16689 49.2377 7.14049 49.5958 7.08771C50.0563 7.08771 50.5168 7.06135 50.9773 7.00857C51.2843 6.95579 51.5913 6.9294 51.8983 6.9294C53.024 6.87662 54.2008 6.79744 55.4288 6.69188C55.6335 6.69188 55.8637 6.66551 56.1196 6.61273C56.5801 6.61273 57.0662 6.58634 57.5778 6.53356C58.0383 6.53356 58.4988 6.50717 58.9593 6.45439C59.164 6.45439 59.3942 6.428 59.6501 6.37522C60.0594 6.37522 60.4943 6.34883 60.9548 6.29605C69.0136 5.82105 78.3003 5.26688 88.4313 4.71271C88.9942 4.65994 89.5826 4.63357 90.1966 4.63357C91.0152 4.58079 91.8595 4.528 92.7293 4.47522C93.5992 4.42245 94.4946 4.36966 95.4156 4.31688C98.0762 4.15855 100.762 4.0266 103.474 3.92105C105.828 3.76271 108.207 3.63077 110.612 3.52521C111.942 3.47244 113.247 3.41967 114.526 3.3669C115.652 3.31412 116.752 3.26133 117.827 3.20855C121.255 3.05022 124.683 2.89188 128.111 2.73355C129.288 2.68077 130.439 2.62801 131.565 2.57523C133.714 2.46967 135.863 2.36412 138.012 2.25857C140.314 2.15301 142.617 2.04744 144.919 1.94188C149.166 1.78355 153.387 1.62523 157.583 1.4669C158.044 1.4669 158.504 1.44051 158.965 1.38773C159.169 1.38773 159.348 1.38773 159.502 1.38773C161.446 1.33495 163.39 1.28216 165.335 1.22939C166.665 1.17661 167.995 1.12384 169.326 1.07107C169.94 1.01829 170.554 0.991896 171.168 0.991896C172.396 0.939118 173.598 0.88633 174.775 0.833553C175.338 0.833553 175.901 0.833553 176.464 0.833553C176.822 0.833553 177.154 0.807159 177.461 0.754381C177.768 0.754381 178.075 0.754381 178.382 0.754381C178.689 0.754381 179.022 0.754381 179.38 0.754381C179.994 0.701603 180.608 0.675234 181.222 0.675234C182.604 0.622456 183.985 0.569669 185.367 0.516891C185.674 0.516891 185.955 0.516891 186.211 0.516891C187.388 0.516891 188.539 0.490497 189.665 0.437719C190.074 0.437719 190.509 0.437719 190.969 0.437719C191.276 0.384942 191.558 0.358548 191.814 0.358548C192.223 0.358548 192.632 0.358548 193.042 0.358548C194.065 0.30577 195.088 0.279401 196.112 0.279401C196.316 0.279401 196.546 0.279401 196.802 0.279401C197.723 0.226623 198.619 0.200229 199.489 0.200229C199.744 0.200229 200.026 0.200229 200.333 0.200229C200.844 0.200229 201.382 0.200229 201.945 0.200229C202.456 0.147451 202.942 0.121058 203.403 0.121058C207.138 0.0682798 210.668 0.041886 213.994 0.041886C214.25 0.041886 214.506 0.041886 214.762 0.041886C225.353 -0.0372806 233.796 0.121058 238.861 0.516891C240.78 0.675224 250.22 4.47521 243.083 1.15021L235.408 3.52521L31.8666 8.67105C31.9689 8.67105 32.0968 8.67105 32.2503 8.67105V8.67105Z" fill="url(#paint3_linear_31_368)"/>
<path d="M203.173 15.4794C209.85 7.00861 219.52 1.62529 230.419 1.38779H230.496C231.928 1.28223 233.335 1.25584 234.717 1.30861C246.92 1.46695 255.977 5.02944 262.731 10.3336C282.302 25.8503 281.765 55.7753 281.765 55.7753L287.905 260.896L261.579 260.975L231.34 84.592C227.963 84.6711 224.586 84.1961 221.439 83.2461C219.188 82.6128 217.013 81.742 214.915 80.6336C202.635 74.0628 194.039 60.1295 193.809 43.8211C193.656 32.9753 197.186 23.0003 203.173 15.4794V15.4794Z" fill="url(#paint4_linear_31_368)"/>
<path d="M270.406 49.2044C267.412 38.7544 259.584 26.1669 239.552 26.8794H239.475C226.198 27.0378 215.453 39.2294 215.529 54.1128C215.58 54.9572 215.632 55.7753 215.683 56.5669C214.685 53.6378 214.148 50.4711 214.071 47.1461C213.994 32.2628 224.739 20.0711 238.017 19.9128H238.094C263.038 18.9628 269.024 38.7544 270.406 49.2044V49.2044Z" fill="url(#paint5_linear_31_368)"/>
<path d="M276.929 254.879L268.487 254.563H268.18L239.322 80.7127L238.171 73.7461C235.945 73.7461 233.796 73.4294 231.724 72.7961C230.291 72.3738 228.909 71.7933 227.579 71.0544C222.13 68.1252 217.832 62.9002 215.683 56.5669C215.632 55.7752 215.581 54.9572 215.529 54.1127C215.453 39.2294 226.198 27.0377 239.475 26.8794H239.552C259.584 26.1669 267.412 38.7544 270.406 49.2044C270.943 52.9252 270.866 55.3794 270.866 55.3794L276.929 254.879Z" fill="url(#paint6_linear_31_368)"/>
<path style="mix-blend-mode:color-dodge" d="M230.419 1.38779H230.496C231.928 1.28223 233.335 1.25584 234.717 1.30861C246.92 1.46695 255.977 5.02944 262.731 10.3336C282.302 25.8503 281.765 55.7753 281.765 55.7753L287.905 260.896L279.539 54.1128C279.539 54.1128 273.859 4.07944 226.965 5.97944C216.604 6.37528 208.852 10.0169 203.173 15.4794C209.85 7.00861 219.52 1.62529 230.419 1.38779V1.38779Z" fill="url(#paint7_linear_31_368)"/>
<defs>
<linearGradient id="paint0_linear_31_368" x1="-38.5132" y1="257.175" x2="375.821" y2="284.416" gradientUnits="userSpaceOnUse">
<stop stop-color="#491700"/>
<stop offset="1" stop-color="#803715"/>
</linearGradient>
<linearGradient id="paint1_linear_31_368" x1="259.584" y1="92.9836" x2="249.787" y2="-69.827" gradientUnits="userSpaceOnUse">
<stop stop-color="#491700"/>
<stop offset="1" stop-color="#803715"/>
</linearGradient>
<linearGradient id="paint2_linear_31_368" x1="151.597" y1="144.996" x2="246.023" y2="15.5482" gradientUnits="userSpaceOnUse">
<stop stop-color="#68270A"/>
<stop offset="1" stop-color="#9F522F"/>
</linearGradient>
<linearGradient id="paint3_linear_31_368" x1="68.2461" y1="-115.541" x2="22.5544" y2="19.8671" gradientUnits="userSpaceOnUse">
<stop stop-color="#8D944C"/>
<stop offset="1"/>
</linearGradient>
<linearGradient id="paint4_linear_31_368" x1="285.295" y1="-132.958" x2="278.231" y2="-121.673" gradientUnits="userSpaceOnUse">
<stop stop-color="#68270A"/>
<stop offset="1" stop-color="#9F522F"/>
</linearGradient>
<linearGradient id="paint5_linear_31_368" x1="276.162" y1="114.2" x2="279.999" y2="204.124" gradientUnits="userSpaceOnUse">
<stop stop-color="#491700"/>
<stop offset="1" stop-color="#803715"/>
</linearGradient>
<linearGradient id="paint6_linear_31_368" x1="293.2" y1="23.1586" x2="268.3" y2="434.022" gradientUnits="userSpaceOnUse">
<stop stop-color="#3B0015"/>
<stop offset="1" stop-color="#722323"/>
</linearGradient>
<linearGradient id="paint7_linear_31_368" x1="266.952" y1="-100.025" x2="111.261" y2="150.865" gradientUnits="userSpaceOnUse">
<stop stop-color="#8D944C"/>
<stop offset="1"/>
</linearGradient>
</defs>
</svg>
