<svg width="765" height="322" viewBox="0 0 765 322" fill="none" xmlns="http://www.w3.org/2000/svg">
<path style="mix-blend-mode:color-dodge" opacity="0.5" d="M486.668 68.7375L487.359 69.0542C487.359 69.0542 486.668 69.925 486.668 68.7375Z" fill="url(#paint0_linear_31_4)"/>
<path d="M32.308 6.9875C33.7918 6.14305 35.7618 5.37778 38.2178 4.69167C49.807 1.525 71.6808 0.0208456 102.995 0.495846C111.898 0.654179 127.478 3.02916 127.478 3.02916C127.478 3.02916 147.894 0.73335 156.49 0.97085C165.009 1.28752 176.138 3.26667 185.424 3.58334C185.424 3.58334 202.156 1.20833 212.21 1.44583C224.951 1.84166 252.197 6.03751 252.197 6.03751C252.197 6.03751 252.58 6.03752 253.118 6.11668C255.42 6.11668 261.56 6.27501 268.084 6.43335C268.237 6.43335 268.391 6.43335 268.544 6.43335C271.154 6.51251 273.84 6.59166 276.296 6.59166C276.757 6.59166 277.192 6.61806 277.601 6.67084C278.88 6.67084 280.083 6.69723 281.208 6.75001C286.12 6.82917 288.576 5.72084 293.335 4.77084C315.669 0.337507 332.554 -0.533331 354.811 5.0875C354.811 5.0875 378.988 1.76251 388.965 2.00001C399.25 2.31667 420.893 6.51252 420.893 6.51252C452.975 2.63335 472.853 6.11668 472.853 6.11668C491.196 12.925 497.336 51.7167 497.797 62.5625C497.797 63.0375 497.797 63.4597 497.797 63.8292L498.718 66.4417C469.246 84.2542 475.463 188.675 475.463 188.675L472.469 319.221L27.7798 316.767C27.7798 316.767 0.456766 24.325 32.308 6.9875V6.9875Z" fill="url(#paint1_linear_31_4)"/>
<g style="mix-blend-mode:multiply" opacity="0.5">
<path d="M285.736 186.379L282.666 187.013C282.743 185.667 282.82 183.688 282.897 181.154C282.897 181.101 282.897 181.022 282.897 180.917C284.432 147.192 288.116 16.25 268.544 6.43335C271.154 6.51252 273.84 6.59167 276.296 6.59167C296.865 23.7708 285.736 186.379 285.736 186.379V186.379Z" fill="#6F330D"/>
</g>
<g style="mix-blend-mode:multiply" opacity="0.5">
<path d="M359.34 125.737C359.34 125.737 346.983 116.871 342.915 116.792C338.924 116.712 315.592 138.325 315.592 138.325C315.592 138.325 337.62 115.842 336.468 111.25C335.24 106.579 317.051 91.8541 317.051 91.8541C317.051 91.8541 336.008 102.779 343.376 102.937C348.058 103.096 363.791 91.2208 363.791 91.2208C363.791 91.2208 349.823 105.629 349.055 109.746C348.211 113.862 359.34 125.737 359.34 125.737V125.737Z" fill="#6F330D"/>
</g>
<g style="mix-blend-mode:multiply" opacity="0.5">
<path d="M347.597 46.0958C347.597 46.0958 337.85 41.5833 333.859 41.4249C329.791 41.3458 316.82 51.3999 316.82 51.3999C316.82 51.3999 328.563 38.9708 327.412 34.3791C326.184 29.7083 307.994 16.4874 307.994 16.4874C307.994 16.4874 326.875 27.4124 334.243 27.6499C339.001 27.7291 357.344 16.0125 357.344 16.0125C357.344 16.0125 340.766 30.2624 339.922 34.3791C339.155 38.4958 347.597 46.0958 347.597 46.0958V46.0958Z" fill="#6F330D"/>
</g>
<g style="mix-blend-mode:multiply" opacity="0.5">
<path d="M363.561 128.033L364.252 128.508C376.916 137.058 392.419 144.025 395.796 144.421C399.327 144.817 410.839 139.75 417.823 133.496L417.9 133.337C418.975 132.387 419.972 131.517 420.893 130.725V130.646C422.505 129.142 423.733 128.033 424.27 127.558C421.891 129.933 405.62 148.696 405.543 150.833C405.39 155.662 426.496 175.217 428.799 177.037C426.419 175.217 401.859 159.146 397.101 159.462C394.184 159.621 377.683 170.862 370.162 177.908C377.376 170.862 387.814 155.504 387.43 151.15C387.047 147.271 357.114 123.758 363.484 128.033H363.561Z" fill="#6F330D"/>
</g>
<g style="mix-blend-mode:multiply" opacity="0.3">
<path d="M396.103 131.517C408.076 132.308 427.801 119.562 429.643 117.979L420.74 126.133L420.586 126.212C413.602 132.467 403.087 140.225 399.557 140.858C388.505 142.996 372.311 129.3 359.647 120.829L358.879 120.275C359.493 120.671 383.132 130.725 396.103 131.517Z" fill="#6F330D"/>
</g>
<g style="mix-blend-mode:multiply" opacity="0.3">
<path d="M343.836 92.3291C352.509 92.9624 366.938 82.6707 368.243 81.4041L361.719 87.9749L361.642 88.0541C356.5 93.1207 348.825 99.3749 346.292 99.8499C338.234 101.592 326.491 90.6666 317.281 83.7791L316.744 83.3832C317.204 83.6999 334.319 91.6957 343.836 92.3291V92.3291Z" fill="#6F330D"/>
</g>
<g style="mix-blend-mode:multiply" opacity="0.3">
<path d="M443.611 85.7583C452.284 86.3916 465.639 78.8708 466.943 77.6041L460.42 84.1749L460.343 84.2541C455.201 89.3208 447.526 95.575 444.993 96.1291C436.934 97.7916 416.288 85.2041 407.155 78.3958L406.618 78C407.002 78.3166 434.094 85.1249 443.611 85.7583V85.7583Z" fill="#6F330D"/>
</g>
<g style="mix-blend-mode:multiply" opacity="0.5">
<path d="M354.888 52.0332C370.315 60.6624 383.132 65.3332 387.2 65.7291C391.498 66.1249 403.164 60.0291 411.607 53.7749L411.76 53.6957C413.065 52.7457 414.293 51.7957 415.291 51.0041H415.367C417.363 49.4999 418.821 48.3124 419.435 47.8374C416.519 50.2124 395.566 70.7166 395.489 72.9332C395.336 77.7624 417.209 91.8541 419.972 93.6749C417.133 91.8541 393.187 80.4541 387.43 80.7707C383.823 80.9291 375.764 82.9082 366.631 89.9541C375.457 82.9082 378.681 76.4166 378.067 72.0624C377.606 68.1832 346.062 47.2041 353.891 51.5582L354.888 52.0332Z" fill="#6F330D"/>
</g>
<path d="M397.638 149.171C400.017 149.25 401.859 151.467 401.783 154.158C401.706 156.85 399.71 158.988 397.331 158.908C394.952 158.908 393.11 156.612 393.263 153.921C393.34 151.229 395.336 149.092 397.638 149.171V149.171Z" fill="#BD4319"/>
<path d="M388.812 68.1833C391.114 68.2624 392.956 70.4791 392.88 73.1708C392.803 75.8624 390.807 77.9999 388.505 77.9208C386.126 77.9208 384.284 75.6249 384.36 72.9333C384.437 70.2416 386.433 68.1041 388.812 68.1833V68.1833Z" fill="#BD4319"/>
<path d="M335.164 28.1249C337.543 28.2041 339.385 30.4208 339.308 33.1124C339.231 35.8041 337.236 37.9416 334.857 37.8624C332.554 37.8624 330.712 35.5666 330.789 32.8749C330.866 30.1833 332.861 28.0458 335.164 28.1249V28.1249Z" fill="#BD4319"/>
<g style="mix-blend-mode:multiply" opacity="0.5">
<path d="M470.551 52.6666C470.551 52.6666 442.921 36.5166 438.853 36.4374C434.862 36.3583 421.891 46.3333 421.891 46.3333C421.891 46.3333 433.634 33.9833 432.406 29.3124C431.255 24.7208 414.446 17.5166 414.446 17.5166C414.446 17.5166 431.945 22.4249 439.313 22.5833C443.995 22.7416 454.433 17.9124 454.433 17.9124C454.433 17.9124 445.76 25.2749 444.993 29.3916C444.149 33.5083 470.551 52.6666 470.551 52.6666V52.6666Z" fill="#6F330D"/>
</g>
<path d="M440.234 23.1375C442.614 23.2167 444.456 25.4333 444.379 28.125C444.302 30.8167 442.307 32.9542 439.927 32.875C437.548 32.7958 435.706 30.5792 435.783 27.8875C435.936 25.1958 437.855 23.0583 440.234 23.1375Z" fill="#BD4319"/>
<path d="M342.378 104.996C344.757 104.996 346.599 107.292 346.523 109.983C346.446 112.675 344.45 114.812 342.071 114.733C339.769 114.654 337.927 112.437 338.003 109.746C338.08 107.054 340.076 104.917 342.378 104.996V104.996Z" fill="#BD4319"/>
<g style="mix-blend-mode:multiply" opacity="0.5">
<path d="M425.498 94.4666C425.498 94.4666 440.541 99.3749 444.532 99.3749C448.6 99.2958 471.165 76.8916 471.165 76.8916C471.165 76.8916 449.905 100.087 451.21 104.679C452.591 109.271 461.417 119.8 461.417 119.8C461.417 119.8 451.977 113.15 444.609 113.15C439.851 113.229 428.108 122.967 428.108 122.967C428.108 122.967 437.702 112.833 438.392 108.637C439.006 104.521 425.498 94.4666 425.498 94.4666V94.4666Z" fill="#6F330D"/>
</g>
<path d="M445.53 111.171C443.151 111.171 441.232 109.033 441.232 106.342C441.232 103.65 443.151 101.433 445.453 101.433C447.833 101.354 449.751 103.571 449.751 106.263C449.751 108.954 447.833 111.171 445.53 111.171Z" fill="#BD4319"/>
<path style="mix-blend-mode:color-dodge" d="M382.672 149.408C382.672 149.408 358.726 130.567 346.599 131.121C334.473 131.675 322.96 140.858 322.96 140.858C322.96 140.858 334.166 120.829 343.606 120.671C353.046 120.433 382.672 149.408 382.672 149.408Z" fill="url(#paint2_linear_31_4)"/>
<path style="mix-blend-mode:color-dodge" d="M428.415 109.271C428.415 109.271 414.6 100.562 393.11 100.008C371.62 99.3749 356.5 110.458 356.5 110.458C356.5 110.458 378.527 85.4416 390.577 86.2332C402.627 87.0249 428.415 109.271 428.415 109.271V109.271Z" fill="url(#paint3_linear_31_4)"/>
<path style="mix-blend-mode:color-dodge" d="M473.62 64.9375C473.62 64.9375 461.187 56.3083 441.769 55.7541C422.351 55.2 408.613 66.3624 408.613 66.3624C408.613 66.3624 428.568 41.2666 439.467 41.9791C450.365 42.7708 473.62 64.9375 473.62 64.9375V64.9375Z" fill="url(#paint4_linear_31_4)"/>
<path style="mix-blend-mode:color-dodge" d="M370.238 70.5583C370.238 70.5583 357.728 61.9291 338.387 61.3749C318.969 60.8208 310.45 65.0166 310.45 65.0166C310.45 65.0166 325.186 46.8874 336.085 47.5999C346.983 48.3916 370.238 70.5583 370.238 70.5583Z" fill="url(#paint5_linear_31_4)"/>
<path style="mix-blend-mode:color-dodge" d="M394.338 55.5958C394.338 55.5958 346.062 41.8208 347.597 32.6374C348.825 25.7499 361.949 16.0124 382.518 16.5666C401.245 17.0416 429.106 22.8208 427.494 36.6749C426.573 44.0374 394.338 55.5958 394.338 55.5958V55.5958Z" fill="url(#paint6_linear_31_4)"/>
<path style="mix-blend-mode:color-dodge" d="M282.897 180.917C282.897 181.022 282.897 181.101 282.897 181.154C282.743 184.638 282.59 186.617 282.59 186.617L279.443 187.171C280.518 168.883 283.818 17.675 253.118 6.1167C255.497 6.1167 261.867 6.27503 268.544 6.43336C288.116 16.25 284.432 147.192 282.897 180.917Z" fill="url(#paint7_linear_31_4)"/>
<g style="mix-blend-mode:multiply" opacity="0.5">
<path d="M309.299 151.15C428.185 148.933 485.824 80.0584 484.059 85.6792C472.393 122.571 474.465 188.913 474.465 188.913L474.235 200.867L96.8548 204.271L95.9338 118.692C95.9338 118.692 139.912 154.238 309.299 151.15V151.15Z" fill="#6F330D"/>
</g>
<path d="M471.855 214.404L472.085 202.213L472.392 190.258C472.392 190.258 469.86 152.021 474.081 117.425C474.49 113.994 474.976 110.617 475.539 107.292C475.846 105.471 478.609 93.7542 480.835 86.3126C480.886 86.3126 480.912 86.3126 480.912 86.3126C481.449 84.4126 481.986 82.8292 482.447 81.7209C485.593 74.2792 494.65 67.0751 494.65 67.0751C494.65 67.0751 596.727 58.0501 668.565 58.6042C684.913 58.7626 699.649 59.3959 711.238 60.7417C711.597 60.7945 711.955 60.8209 712.313 60.8209C715.767 61.2959 719.451 61.9292 723.135 63.0376C723.339 63.0903 723.544 63.1695 723.749 63.2751C724.005 63.3278 724.235 63.3806 724.439 63.4334C726.588 64.1459 728.737 65.0167 730.81 66.0459C744.701 72.8542 755.37 87.6584 746.62 119.325C734.724 148.379 710.317 142.758 710.317 142.758L702.028 255.254L687.676 321.833L685.527 321.754L645.771 320.725H633.951H631.035L469.399 320.804L471.855 214.404Z" fill="url(#paint8_linear_31_4)"/>
<path style="mix-blend-mode:multiply" opacity="0.7" d="M475.462 188.675C475.462 188.675 468.401 209.496 472.623 174.979C473.083 171.496 661.351 159.779 665.726 166.746C670.1 173.713 660.967 248.288 656.439 252.879C651.911 257.471 647.459 257.471 647.459 257.471L637.021 319.142L636.637 320.804L634.105 319.142L474.925 212.742L475.155 200.629L475.462 188.675Z" fill="url(#paint9_linear_31_4)"/>
<path d="M115.582 319.063L110.286 239.104L643.161 250.504L636.637 320.804L115.582 319.063Z" fill="url(#paint10_linear_31_4)"/>
<path style="mix-blend-mode:multiply" opacity="0.3" d="M114.047 264.833L108.751 184.875L641.626 196.275L635.103 266.575L114.047 264.833Z" fill="url(#paint11_linear_31_4)"/>
<path d="M487.896 82.75C491.043 75.3875 500.099 68.1834 500.099 68.1834C500.099 68.1834 596.727 58.05 668.565 58.6042C684.376 58.7625 698.651 59.3959 710.01 60.7417C710.369 60.7945 710.727 60.8209 711.085 60.8209C714.539 61.2959 718.223 61.9292 721.907 63.0375L692.511 83.7L486.284 87.3417C486.898 85.5209 487.435 83.8584 487.896 82.75V82.75Z" fill="url(#paint12_linear_31_4)"/>
<g style="mix-blend-mode:multiply" opacity="0.5">
<path d="M145.284 123.125C145.284 123.125 132.927 114.337 128.936 114.258C124.869 114.1 101.536 135.792 101.536 135.792C101.536 135.792 123.641 113.308 122.413 108.717C121.261 104.046 103.071 89.3208 103.071 89.3208C103.071 89.3208 121.952 100.246 129.397 100.404C134.079 100.562 149.736 88.6875 149.736 88.6875C149.736 88.6875 135.844 103.017 135 107.133C134.232 111.329 145.284 123.125 145.284 123.125Z" fill="#6F330D"/>
</g>
<g style="mix-blend-mode:multiply" opacity="0.5">
<path d="M133.618 43.5625C133.618 43.5625 123.794 39.05 119.803 38.8917C115.735 38.8125 102.841 48.7875 102.841 48.7875C102.841 48.7875 114.584 36.4375 113.356 31.8459C112.205 27.175 93.9382 13.9542 93.9382 13.9542C93.9382 13.9542 112.895 24.8792 120.263 25.1167C124.945 25.1959 143.288 13.4 143.288 13.4C143.288 13.4 126.71 27.7292 125.943 31.8459C125.099 35.9625 133.618 43.5625 133.618 43.5625V43.5625Z" fill="#6F330D"/>
</g>
<g style="mix-blend-mode:multiply" opacity="0.5">
<path d="M152.038 128.429L152.729 128.904C165.392 137.375 180.973 144.421 184.273 144.817C187.803 145.212 199.316 140.146 206.3 133.813L206.377 133.733C207.528 132.783 208.449 131.833 209.37 131.042C210.982 129.538 212.21 128.35 212.747 127.875C210.368 130.25 194.097 149.092 194.02 151.229C193.867 156.058 214.973 175.613 217.275 177.433C214.896 175.613 190.336 159.542 185.654 159.858C182.661 160.017 166.16 171.179 158.638 178.304C165.93 171.258 176.368 155.821 175.907 151.467C175.523 147.667 145.591 124.075 152.038 128.429V128.429Z" fill="#6F330D"/>
</g>
<g style="mix-blend-mode:multiply" opacity="0.2">
<path d="M183.889 130.883C195.939 131.675 215.664 118.929 217.429 117.346L208.526 125.5L208.372 125.579C201.388 131.912 190.873 139.592 187.343 140.304C176.368 142.362 160.097 128.746 147.433 120.196L146.742 119.721C147.356 120.037 170.918 130.092 183.889 130.883V130.883Z" fill="#5B4F26"/>
</g>
<g style="mix-blend-mode:multiply" opacity="0.2">
<path d="M129.78 89.7958C138.53 90.35 152.882 80.1375 154.187 78.8708L147.663 85.3625L147.586 85.4417C142.521 90.5875 134.846 96.7625 132.236 97.3167C124.254 99.0583 112.435 88.0542 103.302 81.2458L102.764 80.85C103.148 81.1667 120.34 89.1625 129.78 89.7958Z" fill="#5B4F26"/>
</g>
<g style="mix-blend-mode:multiply" opacity="0.2">
<path d="M230.86 88.0542C239.61 88.6084 252.964 81.1667 254.269 79.9L247.745 86.3917L247.669 86.55C242.526 91.6167 234.851 97.8709 232.319 98.3459C224.26 100.088 203.614 87.5 194.404 80.6917L193.867 80.2959C194.327 80.5334 221.42 87.4209 230.86 88.0542V88.0542Z" fill="#5B4F26"/>
</g>
<g style="mix-blend-mode:multiply" opacity="0.5">
<path d="M140.832 49.5C156.336 58.1292 169.153 62.8 173.144 63.1958C177.442 63.5917 189.108 57.4959 197.627 51.2417L197.781 51.1625C199.086 50.2125 200.237 49.2625 201.311 48.4709C203.307 46.9667 204.765 45.7792 205.379 45.3042C202.539 47.6792 181.51 68.1833 181.433 70.3208C181.28 75.2292 203.153 89.3209 205.993 91.1417C203.153 89.3209 179.207 77.9208 173.451 78.2375C169.844 78.3958 161.708 80.2958 152.575 87.3417C161.401 80.375 164.625 73.8834 164.088 69.45C163.55 65.65 132.083 44.6709 139.911 49.025L140.832 49.5Z" fill="#6F330D"/>
</g>
<path d="M186.115 149.567C188.494 149.646 190.336 151.863 190.259 154.554C190.183 157.246 188.187 159.383 185.808 159.304C183.505 159.225 181.663 157.008 181.74 154.317C181.817 151.625 183.812 149.488 186.115 149.567V149.567Z" fill="url(#paint13_linear_31_4)"/>
<path d="M174.756 65.6501C177.135 65.7292 178.977 67.9459 178.9 70.6376C178.824 73.3293 176.828 75.4668 174.449 75.3876C172.07 75.3084 170.228 73.0917 170.304 70.4001C170.458 67.7084 172.377 65.5709 174.756 65.6501Z" fill="url(#paint14_linear_31_4)"/>
<path d="M121.184 25.5917C123.487 25.6709 125.329 27.8876 125.252 30.5792C125.175 33.2709 123.18 35.4084 120.877 35.3292C118.498 35.2501 116.656 33.0334 116.733 30.3417C116.81 27.6501 118.805 25.5126 121.184 25.5917V25.5917Z" fill="#BD4319"/>
<g style="mix-blend-mode:multiply" opacity="0.5">
<path d="M256.571 50.0542C256.571 50.0542 228.865 33.9834 224.874 33.9042C220.806 33.7459 207.835 43.8001 207.835 43.8001C207.835 43.8001 219.578 31.4501 218.427 26.7792C217.199 22.1084 200.391 14.9834 200.391 14.9834C200.391 14.9834 217.89 19.8917 225.334 20.0501C230.016 20.2084 240.377 15.3792 240.377 15.3792C240.377 15.3792 231.781 22.6626 230.937 26.7792C230.169 30.9751 256.571 50.0542 256.571 50.0542Z" fill="#6F330D"/>
</g>
<path d="M226.255 20.6042C228.558 20.6042 230.4 22.9 230.323 25.5917C230.246 28.2833 228.251 30.4208 225.871 30.3417C223.569 30.2625 221.727 28.0458 221.804 25.3542C221.88 22.6625 223.876 20.525 226.255 20.6042Z" fill="#BD4319"/>
<path d="M128.399 102.383C130.778 102.463 132.62 104.679 132.467 107.371C132.39 110.063 130.394 112.2 128.092 112.2C125.713 112.121 123.871 109.825 123.948 107.133C124.024 104.442 126.02 102.304 128.399 102.383V102.383Z" fill="url(#paint15_linear_31_4)"/>
<g style="mix-blend-mode:multiply" opacity="0.5">
<path d="M214.436 97.475C214.436 97.475 229.479 102.383 233.47 102.383C237.537 102.304 260.102 79.9 260.102 79.9C260.102 79.9 238.842 103.096 240.147 107.688C241.528 112.279 250.355 122.808 250.355 122.808C250.355 122.808 240.914 116.158 233.47 116.238C228.788 116.238 216.968 125.975 216.968 125.975C216.968 125.975 226.639 115.842 227.253 111.725C227.944 107.529 214.436 97.475 214.436 97.475V97.475Z" fill="#6F330D"/>
</g>
<path d="M234.391 114.179C232.088 114.179 230.169 112.042 230.169 109.35C230.169 106.658 232.011 104.442 234.391 104.442C236.77 104.442 238.689 106.579 238.689 109.271C238.689 111.962 236.77 114.179 234.391 114.179Z" fill="url(#paint16_linear_31_4)"/>
<path style="mix-blend-mode:color-dodge" d="M168.693 146.875C168.693 146.875 144.67 127.954 132.543 128.588C120.494 129.142 108.904 138.246 108.904 138.246C108.904 138.246 120.187 118.296 129.55 118.058C138.99 117.9 168.693 146.875 168.693 146.875V146.875Z" fill="url(#paint17_linear_31_4)"/>
<path style="mix-blend-mode:color-dodge" d="M214.436 106.738C214.436 106.738 200.621 98.0292 179.131 97.3959C157.641 96.8417 142.521 107.925 142.521 107.925C142.521 107.925 164.471 82.9084 176.521 83.7C188.571 84.4917 214.436 106.738 214.436 106.738Z" fill="url(#paint18_linear_31_4)"/>
<path style="mix-blend-mode:color-dodge" d="M259.565 62.4041C259.565 62.4041 247.131 53.775 227.714 53.2208C208.296 52.6667 194.557 63.8291 194.557 63.8291C194.557 63.8291 214.513 38.7333 225.411 39.4458C236.31 40.2375 259.565 62.4041 259.565 62.4041V62.4041Z" fill="url(#paint19_linear_31_4)"/>
<path style="mix-blend-mode:color-dodge" d="M156.182 68.025C156.182 68.025 143.749 59.3959 124.331 58.8417C104.913 58.2875 96.3942 62.4834 96.3942 62.4834C96.3942 62.4834 111.13 44.275 122.029 45.0667C132.927 45.8584 156.182 68.025 156.182 68.025Z" fill="url(#paint20_linear_31_4)"/>
<path style="mix-blend-mode:color-dodge" d="M180.359 53.0625C180.359 53.0625 132.083 39.2875 133.618 30.1041C134.769 23.1375 147.893 13.4 168.462 14.0333C187.189 14.5083 215.05 20.2875 213.438 34.1416C212.594 41.5041 180.359 53.0625 180.359 53.0625V53.0625Z" fill="url(#paint21_linear_31_4)"/>
<path d="M676.317 116.158C676.317 116.158 677.622 63.75 723.749 63.275C725.693 63.2223 727.74 63.275 729.889 63.4334H729.965C750.458 64.6209 766.038 84.0959 764.733 107.054C763.812 123.363 754.602 137.058 742.015 143.154C739.866 144.21 737.666 145.028 735.415 145.608C732.191 146.4 728.891 146.796 725.437 146.638L702.028 255.254L687.676 321.833L685.527 321.754L662.732 320.804L676.317 116.158Z" fill="url(#paint22_linear_31_4)"/>
<path d="M723.749 81.7999H723.825C737.026 82.5124 747.157 95.1791 746.236 109.983C746.083 113.308 745.392 116.475 744.164 119.404C744.318 118.56 744.42 117.742 744.471 116.95C745.315 102.067 735.261 89.4791 721.983 88.6875H721.907C701.875 87.1041 693.432 99.375 689.902 109.667C691.821 99.2958 698.882 79.7416 723.749 81.7999Z" fill="url(#paint23_linear_31_4)"/>
<path d="M689.134 115.842C689.134 115.842 689.211 113.308 689.902 109.667C693.432 99.375 701.875 87.1042 721.907 88.6875H721.983C735.261 89.4792 745.315 102.067 744.471 116.95C744.42 117.742 744.318 118.56 744.164 119.404C741.708 125.658 737.18 130.646 731.577 133.338C730.196 133.971 728.763 134.499 727.279 134.921C725.207 135.396 723.058 135.633 720.832 135.554L719.374 142.442L681.459 314.867H681.152H672.71L689.134 115.842Z" fill="url(#paint24_linear_31_4)"/>
<path d="M98.6968 185.271C101.92 184.638 136.228 178.542 239.149 175.217C268.621 174.188 303.773 173.475 345.371 173.158C520.515 171.733 628.425 178.067 650.299 182.342C652.755 182.817 654.111 183.265 654.367 183.688C654.367 183.688 654.392 183.714 654.444 183.767C655.288 185.271 655.902 191.921 656.055 200.471C656.362 219.629 654.29 248.525 646.692 250.425L97.4688 253.671L98.4665 185.271C98.4665 185.271 98.5433 185.271 98.6968 185.271V185.271Z" fill="url(#paint25_linear_31_4)"/>
<path d="M454.049 173.238C467.557 174.108 477.535 175.454 479.3 177.354C485.901 184.321 476 251.296 476 251.296H471.548C471.548 251.296 479.07 191.208 474.772 181.946C472.469 176.879 437.778 174.267 406.311 172.921L454.049 173.238Z" fill="url(#paint26_linear_31_4)"/>
<path style="mix-blend-mode:color-dodge" opacity="0.8" d="M239.149 175.217C268.621 174.187 303.773 173.475 345.371 173.158C373.922 172.921 400.708 172.921 425.575 173C427.008 173.053 428.44 173.079 429.873 173.079C555.129 173.871 632.186 178.779 650.299 182.342L654.444 183.767H654.52H654.444L475.463 184.242H471.011L220.499 184.875L98.6968 185.271C101.92 184.637 136.228 178.542 239.149 175.217V175.217Z" fill="url(#paint27_linear_31_4)"/>
<g style="mix-blend-mode:multiply" opacity="0.4">
<path d="M98.6968 185.271C101.92 184.638 227.867 176.325 330.789 172.921L343.683 173C343.683 173 314.595 177.433 312.369 182.025C312.266 182.183 312.19 182.395 312.139 182.658C310.143 190.1 311.755 232.929 316.053 235.225C320.428 237.6 627.658 238.788 641.089 236.571C654.52 234.354 656.055 200.471 656.055 200.471C656.362 219.629 654.29 248.525 646.692 250.425L97.4688 253.671L98.4665 185.271C98.4665 185.271 98.5433 185.271 98.6968 185.271V185.271Z" fill="#6F330D"/>
</g>
<path d="M5.06175 124.55C5.06175 124.55 -14.2793 22.5833 30.3892 7.06662C75.0577 -8.45004 67.8432 108.875 67.8432 108.875L5.06175 124.55Z" fill="url(#paint28_linear_31_4)"/>
<path style="mix-blend-mode:color-dodge" d="M281.208 6.75001C286.12 6.82918 288.576 5.72084 293.335 4.77084C315.669 0.33751 332.554 -0.533328 354.811 5.08751C354.811 5.08751 378.988 1.76251 388.965 2.00001C399.25 2.31668 420.893 6.51252 420.893 6.51252C452.975 2.63335 472.853 6.11669 472.853 6.11669C491.196 12.925 497.336 51.7167 497.797 62.5625C494.88 50.8458 485.21 16.5667 470.55 10.7083C452.821 3.66251 425.959 10.3125 425.959 10.3125C425.959 10.3125 408.23 3.1875 390.424 3.02917C372.618 2.87083 356.884 9.67919 356.884 9.67919C356.884 9.67919 343.683 2.63335 321.349 2.47501C299.091 2.23751 283.357 11.3417 283.357 11.3417L277.601 6.67084C278.88 6.67084 280.083 6.69723 281.208 6.75001V6.75001Z" fill="url(#paint29_linear_31_4)"/>
<path style="mix-blend-mode:color-dodge" opacity="0.4" d="M471.011 184.242C470.806 183.239 470.576 182.447 470.32 181.867C468.478 177.908 448.139 174.979 425.575 173C427.008 173.053 428.44 173.079 429.873 173.079C452.514 175.058 472.93 177.908 474.772 181.946C475.028 182.526 475.258 183.292 475.462 184.242C478.149 198.492 471.548 251.296 471.548 251.296L467.097 251.217C467.097 251.217 473.697 198.65 471.011 184.242V184.242Z" fill="url(#paint30_linear_31_4)"/>
<defs>
<linearGradient id="paint0_linear_31_4" x1="483.598" y1="69.2126" x2="483.517" y2="68.8971" gradientUnits="userSpaceOnUse">
<stop/>
<stop offset="1" stop-color="#C4A9A5"/>
</linearGradient>
<linearGradient id="paint1_linear_31_4" x1="494.804" y1="200.471" x2="527.816" y2="12.3135" gradientUnits="userSpaceOnUse">
<stop stop-color="#853510"/>
<stop offset="1" stop-color="#BB643D"/>
</linearGradient>
<linearGradient id="paint2_linear_31_4" x1="322.193" y1="97.4749" x2="318.927" y2="154.86" gradientUnits="userSpaceOnUse">
<stop stop-color="#8D944C"/>
<stop offset="1"/>
</linearGradient>
<linearGradient id="paint3_linear_31_4" x1="365.863" y1="57.0999" x2="353.494" y2="107.356" gradientUnits="userSpaceOnUse">
<stop stop-color="#8D944C"/>
<stop offset="1"/>
</linearGradient>
<linearGradient id="paint4_linear_31_4" x1="434.785" y1="-32.0417" x2="400.592" y2="76.9345" gradientUnits="userSpaceOnUse">
<stop stop-color="#8D944C"/>
<stop offset="1"/>
</linearGradient>
<linearGradient id="paint5_linear_31_4" x1="316.13" y1="25.1958" x2="307.743" y2="62.7716" gradientUnits="userSpaceOnUse">
<stop stop-color="#8D944C"/>
<stop offset="1"/>
</linearGradient>
<linearGradient id="paint6_linear_31_4" x1="351.051" y1="-64.0251" x2="343.132" y2="58.6527" gradientUnits="userSpaceOnUse">
<stop stop-color="#8D944C"/>
<stop offset="1"/>
</linearGradient>
<linearGradient id="paint7_linear_31_4" x1="270.003" y1="-37.0291" x2="227.549" y2="49.7473" gradientUnits="userSpaceOnUse">
<stop stop-color="#8D944C"/>
<stop offset="1"/>
</linearGradient>
<linearGradient id="paint8_linear_31_4" x1="606.628" y1="388.333" x2="876.739" y2="179.267" gradientUnits="userSpaceOnUse">
<stop stop-color="#491700"/>
<stop offset="1" stop-color="#803715"/>
</linearGradient>
<linearGradient id="paint9_linear_31_4" x1="450.902" y1="301.488" x2="504.201" y2="14.2134" gradientUnits="userSpaceOnUse">
<stop stop-color="#512D59"/>
<stop offset="1" stop-color="white"/>
</linearGradient>
<linearGradient id="paint10_linear_31_4" x1="581.147" y1="113.15" x2="698.099" y2="343.9" gradientUnits="userSpaceOnUse">
<stop stop-color="#3B0015"/>
<stop offset="1" stop-color="#722323"/>
</linearGradient>
<linearGradient id="paint11_linear_31_4" x1="592.813" y1="69.1333" x2="699.649" y2="314.153" gradientUnits="userSpaceOnUse">
<stop stop-color="#0A2D59"/>
<stop offset="1" stop-color="white"/>
</linearGradient>
<linearGradient id="paint12_linear_31_4" x1="478.225" y1="207.279" x2="704.01" y2="87.3827" gradientUnits="userSpaceOnUse">
<stop stop-color="#68270A"/>
<stop offset="1" stop-color="#9F522F"/>
</linearGradient>
<linearGradient id="paint13_linear_31_4" x1="190.873" y1="162.55" x2="194.179" y2="156.14" gradientUnits="userSpaceOnUse">
<stop stop-color="#3A1403"/>
<stop offset="1" stop-color="#723B21"/>
</linearGradient>
<linearGradient id="paint14_linear_31_4" x1="179.438" y1="78.6334" x2="182.822" y2="72.2269" gradientUnits="userSpaceOnUse">
<stop stop-color="#3A1403"/>
<stop offset="1" stop-color="#723B21"/>
</linearGradient>
<linearGradient id="paint15_linear_31_4" x1="133.081" y1="115.367" x2="136.465" y2="108.96" gradientUnits="userSpaceOnUse">
<stop stop-color="#3A1403"/>
<stop offset="1" stop-color="#723B21"/>
</linearGradient>
<linearGradient id="paint16_linear_31_4" x1="229.172" y1="101.275" x2="226.023" y2="107.85" gradientUnits="userSpaceOnUse">
<stop stop-color="#723B21"/>
<stop offset="1" stop-color="#3A1403"/>
</linearGradient>
<linearGradient id="paint17_linear_31_4" x1="108.214" y1="94.9417" x2="104.948" y2="152.247" gradientUnits="userSpaceOnUse">
<stop stop-color="#948218"/>
<stop offset="1"/>
</linearGradient>
<linearGradient id="paint18_linear_31_4" x1="151.808" y1="54.5667" x2="139.519" y2="104.825" gradientUnits="userSpaceOnUse">
<stop stop-color="#948218"/>
<stop offset="1"/>
</linearGradient>
<linearGradient id="paint19_linear_31_4" x1="203.23" y1="10.3916" x2="191.912" y2="60.754" gradientUnits="userSpaceOnUse">
<stop stop-color="#8D944C"/>
<stop offset="1"/>
</linearGradient>
<linearGradient id="paint20_linear_31_4" x1="102.15" y1="22.6625" x2="93.6827" y2="60.157" gradientUnits="userSpaceOnUse">
<stop stop-color="#8D944C"/>
<stop offset="1"/>
</linearGradient>
<linearGradient id="paint21_linear_31_4" x1="149.505" y1="-34.1792" x2="126.188" y2="42.4576" gradientUnits="userSpaceOnUse">
<stop stop-color="#8D944C"/>
<stop offset="1"/>
</linearGradient>
<linearGradient id="paint22_linear_31_4" x1="448.139" y1="286.525" x2="466.897" y2="289.581" gradientUnits="userSpaceOnUse">
<stop stop-color="#68270A"/>
<stop offset="1" stop-color="#9F522F"/>
</linearGradient>
<linearGradient id="paint23_linear_31_4" x1="751.762" y1="153.762" x2="755.437" y2="241.549" gradientUnits="userSpaceOnUse">
<stop stop-color="#491700"/>
<stop offset="1" stop-color="#803715"/>
</linearGradient>
<linearGradient id="paint24_linear_31_4" x1="746.774" y1="117.267" x2="721.955" y2="526.864" gradientUnits="userSpaceOnUse">
<stop stop-color="#3B0015"/>
<stop offset="1" stop-color="#722323"/>
</linearGradient>
<linearGradient id="paint25_linear_31_4" x1="37.22" y1="253.75" x2="497.092" y2="274.959" gradientUnits="userSpaceOnUse">
<stop stop-color="#68270A"/>
<stop offset="1" stop-color="#9F522F"/>
</linearGradient>
<linearGradient id="paint26_linear_31_4" x1="412.297" y1="277.104" x2="551.668" y2="227.644" gradientUnits="userSpaceOnUse">
<stop stop-color="#491700"/>
<stop offset="1" stop-color="#803715"/>
</linearGradient>
<linearGradient id="paint27_linear_31_4" x1="113.74" y1="34.6167" x2="74.0918" y2="344.095" gradientUnits="userSpaceOnUse">
<stop stop-color="#8D944C"/>
<stop offset="1"/>
</linearGradient>
<linearGradient id="paint28_linear_31_4" x1="-1.15501" y1="136.662" x2="175.608" y2="72.3437" gradientUnits="userSpaceOnUse">
<stop stop-color="#491700"/>
<stop offset="1" stop-color="#803715"/>
</linearGradient>
<linearGradient id="paint29_linear_31_4" x1="329.407" y1="-150.317" x2="258.543" y2="43.445" gradientUnits="userSpaceOnUse">
<stop stop-color="#8D944C"/>
<stop offset="1"/>
</linearGradient>
<linearGradient id="paint30_linear_31_4" x1="437.087" y1="143.55" x2="385.329" y2="243.438" gradientUnits="userSpaceOnUse">
<stop stop-color="#8D944C"/>
<stop offset="1"/>
</linearGradient>
</defs>
</svg>
