<svg width="174" height="409" viewBox="0 0 174 409" fill="none" xmlns="http://www.w3.org/2000/svg">
<path d="M67 248L106.5 248C95 216 81.5 216 67 248Z" fill="#EAE6DD" stroke="black" stroke-width="0.5"/>
<ellipse cx="88" cy="234.5" rx="6" ry="5.5" fill="#6E5F5F"/>
<g clip-path="url(#clip0_104_42059)">
<path d="M87 409C40.5436 409 2.53394 372.738 2.53394 328.417C2.53394 284.097 40.5436 247.835 87 247.835C133.456 247.835 171.466 284.097 171.466 328.417C171.466 372.738 133.456 409 87 409Z" fill="#ACACAC"/>
<path d="M87.0001 399.061C130.695 399.061 166.117 365.268 166.117 323.582C166.117 281.897 130.695 248.104 87.0001 248.104C43.3052 248.104 7.88354 281.897 7.88354 323.582C7.88354 365.268 43.3052 399.061 87.0001 399.061Z" fill="#DCD5C2"/>
<path d="M17.1748 332.715C17.1748 291.081 52.6505 257.236 96.2913 257.236C115.719 257.236 133.456 263.951 147.252 274.964C132.893 258.579 111.214 248.104 87.0001 248.104C43.3593 248.104 7.88354 281.948 7.88354 323.582C7.88354 346.683 18.8641 367.366 36.0389 381.333C24.2136 368.171 17.1748 351.249 17.1748 332.715Z" fill="#F4EDDC"/>
<path d="M125.865 250.494C147.625 284.465 147.625 339.435 125.865 373.405C104.105 407.375 68.8934 407.375 47.1333 373.405" fill="url(#paint0_linear_104_42059)" fill-opacity="0.5"/>
<path d="M86.9565 406.583C40.5002 406.583 2.49048 370.32 2.49048 326C2.49048 281.68 40.5002 245.417 86.9565 245.417C133.413 245.417 171.423 281.68 171.423 326C171.423 370.32 133.413 406.583 86.9565 406.583ZM86.9565 255.625C46.1313 255.625 13.1895 287.32 13.1895 326C13.1895 364.948 46.4128 396.375 86.9565 396.375C127.5 396.375 160.723 364.68 160.723 326C160.723 287.32 127.782 255.625 86.9565 255.625Z" fill="#B0AFAA"/>
<path d="M91.7864 272.815C91.7864 275.233 89.534 279.262 87 279.262C84.466 279.262 82.2136 275.233 82.2136 272.815C82.2136 270.398 84.466 268.249 87 268.249C89.534 268.249 91.7864 270.398 91.7864 272.815Z" fill="#685E46"/>
<path d="M87 277.382C89.6435 277.382 91.7864 275.337 91.7864 272.815C91.7864 270.294 89.6435 268.249 87 268.249C84.3566 268.249 82.2136 270.294 82.2136 272.815C82.2136 275.337 84.3566 277.382 87 277.382Z" fill="#8F8775"/>
<path d="M90.3786 269.592C92.3495 271.473 92.3495 274.159 90.3786 276.039C88.4077 277.919 85.5922 277.919 83.6213 276.039" fill="white"/>
<path d="M87.5632 250.521C87.5632 250.79 87.2817 251.058 87.0001 251.058C86.7186 251.058 86.437 250.79 86.437 250.521V245.417C86.437 245.149 86.7186 244.88 87.0001 244.88C87.2817 244.88 87.5632 245.149 87.5632 245.417V250.521Z" fill="white"/>
<path d="M87.5632 402.016C87.5632 402.285 87.2817 402.553 87.0001 402.553C86.7186 402.553 86.437 402.285 86.437 402.016V396.913C86.437 396.644 86.7186 396.375 87.0001 396.375C87.2817 396.375 87.5632 396.644 87.5632 396.913V402.016Z" fill="white"/>
<path d="M141.621 272.547C141.34 272.816 141.058 272.816 140.777 272.547C140.495 272.278 140.495 272.01 140.777 271.741L144.719 267.981C145 267.712 145.282 267.712 145.563 267.981C145.845 268.249 145.845 268.518 145.563 268.786L141.621 272.547Z" fill="white"/>
<path d="M29.5632 379.453C29.2816 379.722 29 379.722 28.7185 379.453C28.4369 379.184 28.4369 378.916 28.7185 378.647L32.6602 374.887C32.9418 374.618 33.2233 374.618 33.5049 374.887C33.7865 375.155 33.7865 375.424 33.5049 375.693L29.5632 379.453Z" fill="white"/>
<path d="M163.583 324.388C163.301 324.388 163.02 324.12 163.02 323.851C163.02 323.583 163.301 323.314 163.583 323.314H168.932C169.214 323.314 169.495 323.583 169.495 323.851C169.495 324.12 169.214 324.388 168.932 324.388H163.583Z" fill="white"/>
<path d="M5.06799 324.388C4.78644 324.388 4.50488 324.12 4.50488 323.851C4.50488 323.583 4.78644 323.314 5.06799 323.314H10.4175C10.6991 323.045 10.9806 323.314 10.9806 323.583C10.9806 323.851 10.6991 324.12 10.4175 324.12H5.06799V324.388Z" fill="white"/>
<path d="M140.777 375.961C140.495 375.693 140.495 375.424 140.777 375.155C141.058 374.887 141.34 374.887 141.621 375.155L145.563 378.916C145.845 379.184 145.845 379.453 145.563 379.722C145.282 379.99 145 379.99 144.719 379.722L140.777 375.961Z" fill="white"/>
<path d="M28.437 268.786C28.1554 268.518 28.1554 268.249 28.437 267.981C28.7185 267.712 29.0001 267.712 29.2817 267.981L33.2234 271.741C33.505 272.01 33.505 272.278 33.2234 272.547C32.9418 272.816 32.6603 272.816 32.3787 272.547L28.437 268.786Z" fill="white"/>
<path d="M49.2717 260.191C49.5533 260.46 49.2717 260.997 48.9902 260.997C48.7086 261.265 48.1455 260.997 48.1455 260.728L45.33 256.162C45.0484 255.893 45.33 255.356 45.6116 255.356C45.8931 255.087 46.4562 255.356 46.4562 255.625L49.2717 260.191Z" fill="white"/>
<path d="M128.67 391.272C128.951 391.541 128.67 392.078 128.388 392.078C128.107 392.346 127.544 392.078 127.544 391.809L124.728 387.243C124.447 386.974 124.728 386.437 125.01 386.437C125.291 386.168 125.854 386.437 125.854 386.706L128.67 391.272Z" fill="white"/>
<path d="M107.554 253.207C107.554 253.476 106.99 253.744 106.709 253.744C106.427 253.744 106.146 253.207 106.146 252.939L107.554 247.835C107.554 247.566 108.117 247.298 108.398 247.298C108.68 247.298 108.961 247.835 108.961 248.104L107.554 253.207Z" fill="white"/>
<path d="M66.4466 399.33C66.4466 399.599 65.8835 399.867 65.6019 399.867C65.3204 399.867 65.0388 399.33 65.0388 399.061L66.4466 393.958C66.4466 393.689 67.0097 393.421 67.2912 393.421C67.5728 393.421 67.8544 393.958 67.8544 394.226L66.4466 399.33Z" fill="white"/>
<path d="M153.728 287.589C153.447 287.858 152.883 287.589 152.883 287.32C152.602 287.052 152.883 286.515 153.165 286.515L157.951 283.828C158.233 283.56 158.796 283.828 158.796 284.097C159.078 284.366 158.796 284.903 158.515 284.903L153.728 287.589Z" fill="white"/>
<path d="M16.3302 363.337C16.0486 363.605 15.4855 363.337 15.4855 363.068C15.204 362.799 15.4855 362.262 15.7671 362.262L20.5535 359.576C20.835 359.307 21.3981 359.576 21.3981 359.845C21.6797 360.113 21.3981 360.651 21.1166 360.651L16.3302 363.337Z" fill="white"/>
<path d="M160.767 343.191C160.485 343.191 160.204 342.654 160.204 342.385C160.204 342.117 160.767 341.848 161.049 341.848L166.398 343.191C166.68 343.191 166.961 343.728 166.961 343.997C166.961 344.265 166.398 344.534 166.116 344.534L160.767 343.191Z" fill="white"/>
<path d="M7.60193 303.974C7.32037 303.974 7.03882 303.437 7.03882 303.168C7.03882 302.9 7.60192 302.631 7.88348 302.631L13.233 303.974C13.5145 303.974 13.7961 304.511 13.7961 304.78C13.7961 305.049 13.233 305.317 12.9514 305.317L7.60193 303.974Z" fill="white"/>
<path d="M21.1166 286.515C21.3981 286.783 21.6797 287.052 21.3981 287.32C21.1166 287.589 20.835 287.858 20.5535 287.589L15.7671 284.903C15.4855 284.634 15.204 284.366 15.4855 284.097C15.7671 283.828 16.0486 283.56 16.3302 283.828L21.1166 286.515Z" fill="white"/>
<path d="M158.515 362.262C158.796 362.531 159.078 362.799 158.796 363.068C158.515 363.337 158.233 363.605 157.951 363.337L153.165 360.651C152.883 360.382 152.602 360.113 152.883 359.845C153.165 359.576 153.447 359.307 153.728 359.576L158.515 362.262Z" fill="white"/>
<path d="M67.8544 252.939C67.8544 253.207 67.8544 253.744 67.2912 253.744C67.0097 253.744 66.4466 253.744 66.4466 253.207L65.0388 248.104C65.0388 247.835 65.0388 247.298 65.6019 247.298C65.8835 247.298 66.4466 247.298 66.4466 247.835L67.8544 252.939Z" fill="white"/>
<path d="M108.961 399.061C108.961 399.33 108.961 399.867 108.398 399.867C108.117 399.867 107.554 399.867 107.554 399.33L106.146 394.226C106.146 393.958 106.146 393.421 106.709 393.421C106.99 393.421 107.554 393.421 107.554 393.958L108.961 399.061Z" fill="white"/>
<path d="M125.854 260.728C125.573 260.997 125.291 261.265 125.01 260.997C124.728 260.728 124.447 260.46 124.728 260.191L127.544 255.625C127.825 255.356 128.107 255.087 128.388 255.356C128.67 255.625 128.951 255.893 128.67 256.162L125.854 260.728Z" fill="white"/>
<path d="M46.4562 391.809C46.1747 392.078 45.8931 392.346 45.6116 392.078C45.33 391.809 45.0484 391.541 45.33 391.272L48.1455 386.706C48.4271 386.437 48.7086 386.168 48.9902 386.437C49.2717 386.706 49.5533 386.974 49.2717 387.243L46.4562 391.809Z" fill="white"/>
<path d="M161.049 305.317C160.767 305.317 160.204 305.317 160.204 304.78C160.204 304.511 160.204 303.974 160.767 303.974L166.116 302.631C166.398 302.631 166.961 302.631 166.961 303.168C166.961 303.437 166.961 303.974 166.398 303.974L161.049 305.317Z" fill="white"/>
<path d="M7.88348 344.534C7.60192 344.534 7.03882 344.534 7.03882 343.997C7.03882 343.728 7.03882 343.191 7.60193 343.191L12.9514 341.848C13.233 341.848 13.7961 341.848 13.7961 342.385C13.7961 342.654 13.7961 343.191 13.233 343.191L7.88348 344.534Z" fill="white"/>
<path d="M72.625 348.5C72.625 345.083 75.7917 341.708 82.125 338.375C83.7083 337.542 86.2083 336.333 89.625 334.75C98.9583 330.417 105.25 326.708 108.5 323.625C112.583 319.708 114.625 315.375 114.625 310.625C114.625 302.208 109.958 296.625 100.625 293.875C97.0417 292.792 93.125 292.25 88.875 292.25C79.4583 292.25 72.6667 294.542 68.5 299.125C66.25 301.625 65.125 304.542 65.125 307.875C65.125 312.208 66.7083 314.958 69.875 316.125C70.7917 316.375 71.6667 316.5 72.5 316.5C76.9167 316.5 79.5 314.5 80.25 310.5C80.4167 309.5 80.5417 307.917 80.625 305.75C80.7917 301.25 81.5833 298.375 83 297.125C84.25 296.125 85.875 295.625 87.875 295.625C92.7917 295.625 95.9167 298.5 97.25 304.25C97.5833 305.917 97.75 307.667 97.75 309.5C97.75 318.417 94.5833 325.292 88.25 330.125C87.25 330.875 83.75 333.042 77.75 336.625C72.1667 340.042 68.5 343.667 66.75 347.5C65.4167 350.333 64.75 353.625 64.75 357.375V361H115.625L115.75 337.5H112.875L110.625 343C109.375 346 107.708 347.75 105.625 348.25C104.708 348.417 103.292 348.5 101.375 348.5H72.625Z" fill="#312E27"/>
</g>
<path d="M86 208H90V229C90 229.552 89.5523 230 89 230H87C86.4477 230 86 229.552 86 229V208Z" fill="#DBCCCC"/>
<rect x="62" width="53" height="208" rx="3" fill="#D9D9D9"/>
<path d="M67 198.9L66.9 199V199.205C66.9 199.26 66.9448 199.305 67 199.305V199.514C66.9448 199.514 66.9 199.558 66.9 199.614V200.023C66.9 200.078 66.9448 200.123 67 200.123V200.332C66.9448 200.332 66.9 200.377 66.9 200.432V200.841C66.9 200.896 66.9448 200.941 67 200.941V201.15C66.9448 201.15 66.9 201.195 66.9 201.25V201.659C66.9 201.714 66.9448 201.759 67 201.759V201.968C66.9448 201.968 66.9 202.013 66.9 202.068V202.477C66.9 202.533 66.9448 202.577 67 202.577V202.786C66.9448 202.786 66.9 202.831 66.9 202.886V203.295C66.9 203.351 66.9448 203.395 67 203.395V203.605C66.9448 203.605 66.9 203.649 66.9 203.705V204.114C66.9 204.169 66.9448 204.214 67 204.214V204.423C66.9448 204.423 66.9 204.467 66.9 204.523V204.932C66.9 204.987 66.9448 205.032 67 205.032V205.241C66.9448 205.241 66.9 205.286 66.9 205.341V205.75C66.9 205.805 66.9448 205.85 67 205.85V206.059C66.9448 206.059 66.9 206.104 66.9 206.159V206.568C66.9 206.623 66.9448 206.668 67 206.668V206.877C66.9448 206.877 66.9 206.922 66.9 206.977V207.386C66.9 207.442 66.9448 207.486 67 207.486V207.695C66.9448 207.695 66.9 207.74 66.9 207.795V208L67 208.1H67.1991C67.2543 208.1 67.2991 208.055 67.2991 208H67.4972C67.4972 208.055 67.542 208.1 67.5972 208.1H67.9954C68.0506 208.1 68.0954 208.055 68.0954 208H68.2935C68.2935 208.055 68.3383 208.1 68.3935 208.1H68.7917C68.8469 208.1 68.8917 208.055 68.8917 208H69.0898C69.0898 208.055 69.1346 208.1 69.1898 208.1H69.588C69.6432 208.1 69.688 208.055 69.688 208H69.8861C69.8861 208.055 69.9309 208.1 69.9861 208.1H70.3843C70.4395 208.1 70.4843 208.055 70.4843 208H70.6824C70.6824 208.055 70.7272 208.1 70.7824 208.1H71.1806C71.2358 208.1 71.2806 208.055 71.2806 208H71.4787C71.4787 208.055 71.5235 208.1 71.5787 208.1H71.9769C72.0321 208.1 72.0769 208.055 72.0769 208H72.275C72.275 208.055 72.3198 208.1 72.375 208.1H72.7731C72.8284 208.1 72.8731 208.055 72.8731 208H73.0713C73.0713 208.055 73.1161 208.1 73.1713 208.1H73.5694C73.6247 208.1 73.6694 208.055 73.6694 208H73.8676C73.8676 208.055 73.9124 208.1 73.9676 208.1H74.3657C74.421 208.1 74.4657 208.055 74.4657 208H74.6639C74.6639 208.055 74.7087 208.1 74.7639 208.1H75.162C75.2173 208.1 75.262 208.055 75.262 208H75.4602C75.4602 208.055 75.505 208.1 75.5602 208.1H75.9583C76.0136 208.1 76.0583 208.055 76.0583 208H76.2565C76.2565 208.055 76.3013 208.1 76.3565 208.1H76.7546C76.8099 208.1 76.8546 208.055 76.8546 208H77.0528C77.0528 208.055 77.0976 208.1 77.1528 208.1H77.5509C77.6062 208.1 77.6509 208.055 77.6509 208H77.8491C77.8491 208.055 77.8938 208.1 77.9491 208.1H78.3472C78.4025 208.1 78.4472 208.055 78.4472 208H78.6454C78.6454 208.055 78.6901 208.1 78.7454 208.1H79.1435C79.1987 208.1 79.2435 208.055 79.2435 208H79.4417C79.4417 208.055 79.4864 208.1 79.5417 208.1H79.9398C79.995 208.1 80.0398 208.055 80.0398 208H80.238C80.238 208.055 80.2827 208.1 80.338 208.1H80.7361C80.7913 208.1 80.8361 208.055 80.8361 208H81.0343C81.0343 208.055 81.079 208.1 81.1343 208.1H81.5324C81.5876 208.1 81.6324 208.055 81.6324 208H81.8306C81.8306 208.055 81.8753 208.1 81.9306 208.1H82.3287C82.3839 208.1 82.4287 208.055 82.4287 208H82.6269C82.6269 208.055 82.6716 208.1 82.7269 208.1H83.125C83.1802 208.1 83.225 208.055 83.225 208H83.4232C83.4232 208.055 83.4679 208.1 83.5232 208.1H83.9213C83.9765 208.1 84.0213 208.055 84.0213 208H84.2194C84.2194 208.055 84.2642 208.1 84.3194 208.1H84.7176C84.7728 208.1 84.8176 208.055 84.8176 208H85.0157C85.0157 208.055 85.0605 208.1 85.1157 208.1H85.5139C85.5691 208.1 85.6139 208.055 85.6139 208H85.812C85.812 208.055 85.8568 208.1 85.912 208.1H86.3102C86.3654 208.1 86.4102 208.055 86.4102 208H86.6083C86.6083 208.055 86.6531 208.1 86.7083 208.1H87.1065C87.1617 208.1 87.2065 208.055 87.2065 208H87.4046C87.4046 208.055 87.4494 208.1 87.5046 208.1H87.9028C87.958 208.1 88.0028 208.055 88.0028 208H88.2009C88.2009 208.055 88.2457 208.1 88.3009 208.1H88.6991C88.7543 208.1 88.7991 208.055 88.7991 208H88.9972C88.9972 208.055 89.042 208.1 89.0972 208.1H89.4954C89.5506 208.1 89.5954 208.055 89.5954 208H89.7935C89.7935 208.055 89.8383 208.1 89.8935 208.1H90.2917C90.3469 208.1 90.3917 208.055 90.3917 208H90.5898C90.5898 208.055 90.6346 208.1 90.6898 208.1H91.088C91.1432 208.1 91.188 208.055 91.188 208H91.3861C91.3861 208.055 91.4309 208.1 91.4861 208.1H91.8843C91.9395 208.1 91.9843 208.055 91.9843 208H92.1824C92.1824 208.055 92.2272 208.1 92.2824 208.1H92.6805C92.7358 208.1 92.7805 208.055 92.7805 208H92.9787C92.9787 208.055 93.0235 208.1 93.0787 208.1H93.4768C93.5321 208.1 93.5768 208.055 93.5768 208H93.775C93.775 208.055 93.8198 208.1 93.875 208.1H94.2731C94.3284 208.1 94.3731 208.055 94.3731 208H94.5713C94.5713 208.055 94.6161 208.1 94.6713 208.1H95.0694C95.1247 208.1 95.1694 208.055 95.1694 208H95.3676C95.3676 208.055 95.4124 208.1 95.4676 208.1H95.8657C95.921 208.1 95.9657 208.055 95.9657 208H96.1639C96.1639 208.055 96.2086 208.1 96.2639 208.1H96.662C96.7173 208.1 96.762 208.055 96.762 208H96.9602C96.9602 208.055 97.0049 208.1 97.0602 208.1H97.4583C97.5135 208.1 97.5583 208.055 97.5583 208H97.7565C97.7565 208.055 97.8012 208.1 97.8565 208.1H98.2546C98.3098 208.1 98.3546 208.055 98.3546 208H98.5528C98.5528 208.055 98.5975 208.1 98.6528 208.1H99.0509C99.1061 208.1 99.1509 208.055 99.1509 208H99.3491C99.3491 208.055 99.3938 208.1 99.4491 208.1H99.8472C99.9024 208.1 99.9472 208.055 99.9472 208H100.145C100.145 208.055 100.19 208.1 100.245 208.1H100.644C100.699 208.1 100.743 208.055 100.743 208H100.942C100.942 208.055 100.986 208.1 101.042 208.1H101.44C101.495 208.1 101.54 208.055 101.54 208H101.738C101.738 208.055 101.783 208.1 101.838 208.1H102.236C102.291 208.1 102.336 208.055 102.336 208H102.534C102.534 208.055 102.579 208.1 102.634 208.1H103.032C103.088 208.1 103.132 208.055 103.132 208H103.331C103.331 208.055 103.375 208.1 103.431 208.1H103.829C103.884 208.1 103.929 208.055 103.929 208H104.127C104.127 208.055 104.172 208.1 104.227 208.1H104.625C104.68 208.1 104.725 208.055 104.725 208H104.923C104.923 208.055 104.968 208.1 105.023 208.1H105.421C105.477 208.1 105.521 208.055 105.521 208H105.719C105.719 208.055 105.764 208.1 105.819 208.1H106.218C106.273 208.1 106.318 208.055 106.318 208H106.516C106.516 208.055 106.56 208.1 106.616 208.1H107.014C107.069 208.1 107.114 208.055 107.114 208H107.312C107.312 208.055 107.357 208.1 107.412 208.1H107.81C107.865 208.1 107.91 208.055 107.91 208H108.108C108.108 208.055 108.153 208.1 108.208 208.1H108.606C108.662 208.1 108.706 208.055 108.706 208H108.905C108.905 208.055 108.949 208.1 109.005 208.1H109.403C109.458 208.1 109.503 208.055 109.503 208H109.701C109.701 208.055 109.746 208.1 109.801 208.1H110L110.1 208V207.795C110.1 207.74 110.055 207.695 110 207.695V207.486C110.055 207.486 110.1 207.442 110.1 207.386V206.977C110.1 206.922 110.055 206.877 110 206.877V206.668C110.055 206.668 110.1 206.623 110.1 206.568V206.159C110.1 206.104 110.055 206.059 110 206.059V205.85C110.055 205.85 110.1 205.805 110.1 205.75V205.341C110.1 205.286 110.055 205.241 110 205.241V205.032C110.055 205.032 110.1 204.987 110.1 204.932V204.523C110.1 204.467 110.055 204.423 110 204.423V204.214C110.055 204.214 110.1 204.169 110.1 204.114V203.705C110.1 203.649 110.055 203.605 110 203.605V203.395C110.055 203.395 110.1 203.351 110.1 203.295V202.886C110.1 202.831 110.055 202.786 110 202.786V202.577C110.055 202.577 110.1 202.533 110.1 202.477V202.068C110.1 202.013 110.055 201.968 110 201.968V201.759C110.055 201.759 110.1 201.714 110.1 201.659V201.25C110.1 201.195 110.055 201.15 110 201.15V200.941C110.055 200.941 110.1 200.896 110.1 200.841V200.432C110.1 200.377 110.055 200.332 110 200.332V200.123C110.055 200.123 110.1 200.078 110.1 200.023V199.614C110.1 199.558 110.055 199.514 110 199.514V199.305C110.055 199.305 110.1 199.26 110.1 199.205V199L110 198.9H109.801C109.746 198.9 109.701 198.945 109.701 199H109.503C109.503 198.945 109.458 198.9 109.403 198.9H109.005C108.949 198.9 108.905 198.945 108.905 199H108.706C108.706 198.945 108.662 198.9 108.606 198.9H108.208C108.153 198.9 108.108 198.945 108.108 199H107.91C107.91 198.945 107.865 198.9 107.81 198.9H107.412C107.357 198.9 107.312 198.945 107.312 199H107.114C107.114 198.945 107.069 198.9 107.014 198.9H106.616C106.561 198.9 106.516 198.945 106.516 199H106.318C106.318 198.945 106.273 198.9 106.218 198.9H105.819C105.764 198.9 105.719 198.945 105.719 199H105.521C105.521 198.945 105.477 198.9 105.421 198.9H105.023C104.968 198.9 104.923 198.945 104.923 199H104.725C104.725 198.945 104.68 198.9 104.625 198.9H104.227C104.172 198.9 104.127 198.945 104.127 199H103.929C103.929 198.945 103.884 198.9 103.829 198.9H103.431C103.375 198.9 103.331 198.945 103.331 199H103.132C103.132 198.945 103.088 198.9 103.032 198.9H102.634C102.579 198.9 102.534 198.945 102.534 199H102.336C102.336 198.945 102.291 198.9 102.236 198.9H101.838C101.783 198.9 101.738 198.945 101.738 199H101.54C101.54 198.945 101.495 198.9 101.44 198.9H101.042C100.986 198.9 100.942 198.945 100.942 199H100.744C100.744 198.945 100.699 198.9 100.644 198.9H100.245C100.19 198.9 100.145 198.945 100.145 199H99.9472C99.9472 198.945 99.9025 198.9 99.8472 198.9H99.4491C99.3938 198.9 99.3491 198.945 99.3491 199H99.1509C99.1509 198.945 99.1062 198.9 99.0509 198.9H98.6528C98.5975 198.9 98.5528 198.945 98.5528 199H98.3546C98.3546 198.945 98.3099 198.9 98.2546 198.9H97.8565C97.8013 198.9 97.7565 198.945 97.7565 199H97.5583C97.5583 198.945 97.5136 198.9 97.4583 198.9H97.0602C97.005 198.9 96.9602 198.945 96.9602 199H96.762C96.762 198.945 96.7173 198.9 96.662 198.9H96.2639C96.2087 198.9 96.1639 198.945 96.1639 199H95.9657C95.9657 198.945 95.921 198.9 95.8657 198.9H95.4676C95.4124 198.9 95.3676 198.945 95.3676 199H95.1694C95.1694 198.945 95.1247 198.9 95.0694 198.9H94.6713C94.6161 198.9 94.5713 198.945 94.5713 199H94.3731C94.3731 198.945 94.3284 198.9 94.2731 198.9H93.875C93.8198 198.9 93.775 198.945 93.775 199H93.5768C93.5768 198.945 93.5321 198.9 93.4768 198.9H93.0787C93.0235 198.9 92.9787 198.945 92.9787 199H92.7806C92.7806 198.945 92.7358 198.9 92.6806 198.9H92.2824C92.2272 198.9 92.1824 198.945 92.1824 199H91.9843C91.9843 198.945 91.9395 198.9 91.8843 198.9H91.4861C91.4309 198.9 91.3861 198.945 91.3861 199H91.188C91.188 198.945 91.1432 198.9 91.088 198.9H90.6898C90.6346 198.9 90.5898 198.945 90.5898 199H90.3917C90.3917 198.945 90.3469 198.9 90.2917 198.9H89.8935C89.8383 198.9 89.7935 198.945 89.7935 199H89.5954C89.5954 198.945 89.5506 198.9 89.4954 198.9H89.0972C89.042 198.9 88.9972 198.945 88.9972 199H88.7991C88.7991 198.945 88.7543 198.9 88.6991 198.9H88.3009C88.2457 198.9 88.2009 198.945 88.2009 199H88.0028C88.0028 198.945 87.958 198.9 87.9028 198.9H87.5046C87.4494 198.9 87.4046 198.945 87.4046 199H87.2065C87.2065 198.945 87.1617 198.9 87.1065 198.9H86.7083C86.6531 198.9 86.6083 198.945 86.6083 199H86.4102C86.4102 198.945 86.3654 198.9 86.3102 198.9H85.912C85.8568 198.9 85.812 198.945 85.812 199H85.6139C85.6139 198.945 85.5691 198.9 85.5139 198.9H85.1157C85.0605 198.9 85.0157 198.945 85.0157 199H84.8176C84.8176 198.945 84.7728 198.9 84.7176 198.9H84.3195C84.2642 198.9 84.2195 198.945 84.2195 199H84.0213C84.0213 198.945 83.9765 198.9 83.9213 198.9H83.5232C83.4679 198.9 83.4232 198.945 83.4232 199H83.225C83.225 198.945 83.1802 198.9 83.125 198.9H82.7269C82.6716 198.9 82.6269 198.945 82.6269 199H82.4287C82.4287 198.945 82.3839 198.9 82.3287 198.9H81.9306C81.8753 198.9 81.8306 198.945 81.8306 199H81.6324C81.6324 198.945 81.5876 198.9 81.5324 198.9H81.1343C81.079 198.9 81.0343 198.945 81.0343 199H80.8361C80.8361 198.945 80.7914 198.9 80.7361 198.9H80.338C80.2827 198.9 80.238 198.945 80.238 199H80.0398C80.0398 198.945 79.9951 198.9 79.9398 198.9H79.5417C79.4865 198.9 79.4417 198.945 79.4417 199H79.2435C79.2435 198.945 79.1988 198.9 79.1435 198.9H78.7454C78.6902 198.9 78.6454 198.945 78.6454 199H78.4472C78.4472 198.945 78.4025 198.9 78.3472 198.9H77.9491C77.8939 198.9 77.8491 198.945 77.8491 199H77.6509C77.6509 198.945 77.6062 198.9 77.5509 198.9H77.1528C77.0976 198.9 77.0528 198.945 77.0528 199H76.8546C76.8546 198.945 76.8099 198.9 76.7546 198.9H76.3565C76.3013 198.9 76.2565 198.945 76.2565 199H76.0584C76.0584 198.945 76.0136 198.9 75.9584 198.9H75.5602C75.505 198.9 75.4602 198.945 75.4602 199H75.2621C75.2621 198.945 75.2173 198.9 75.1621 198.9H74.7639C74.7087 198.9 74.6639 198.945 74.6639 199H74.4658C74.4658 198.945 74.421 198.9 74.3658 198.9H73.9676C73.9124 198.9 73.8676 198.945 73.8676 199H73.6695C73.6695 198.945 73.6247 198.9 73.5695 198.9H73.1713C73.1161 198.9 73.0713 198.945 73.0713 199H72.8732C72.8732 198.945 72.8284 198.9 72.7732 198.9H72.375C72.3198 198.9 72.275 198.945 72.275 199H72.0769C72.0769 198.945 72.0321 198.9 71.9769 198.9H71.5787C71.5235 198.9 71.4787 198.945 71.4787 199H71.2806C71.2806 198.945 71.2358 198.9 71.1806 198.9H70.7824C70.7272 198.9 70.6824 198.945 70.6824 199H70.4843C70.4843 198.945 70.4395 198.9 70.3843 198.9H69.9861C69.9309 198.9 69.8861 198.945 69.8861 199H69.688C69.688 198.945 69.6432 198.9 69.588 198.9H69.1898C69.1346 198.9 69.0898 198.945 69.0898 199H68.8917C68.8917 198.945 68.8469 198.9 68.7917 198.9H68.3935C68.3383 198.9 68.2935 198.945 68.2935 199H68.0954C68.0954 198.945 68.0506 198.9 67.9954 198.9H67.5973C67.542 198.9 67.4973 198.945 67.4973 199H67.2991C67.2991 198.945 67.2543 198.9 67.1991 198.9H67Z" fill="url(#paint1_angular_104_42059)" stroke="black" stroke-width="0.2" stroke-miterlimit="1.41421" stroke-linecap="round" stroke-dasharray="0.4 0.4"/>
<defs>
<linearGradient id="paint0_linear_104_42059" x1="77.5304" y1="274.139" x2="125.589" y2="367.805" gradientUnits="userSpaceOnUse">
<stop stop-color="white"/>
<stop offset="0.932292" stop-color="#EDEAE3"/>
</linearGradient>
<radialGradient id="paint1_angular_104_42059" cx="0" cy="0" r="1" gradientUnits="userSpaceOnUse" gradientTransform="translate(88.5 207.25) rotate(-159.007) scale(23.0285 229.905)">
<stop stop-color="#ECD8A1"/>
<stop offset="1" stop-color="#ECC456"/>
</radialGradient>
<clipPath id="clip0_104_42059">
<rect width="174" height="166" fill="white" transform="translate(0 243)"/>
</clipPath>
</defs>
</svg>
