<svg width="168" height="439" viewBox="0 0 168 439" fill="none" xmlns="http://www.w3.org/2000/svg">
<path d="M145.185 189.599C131.71 179.524 121.891 159.344 112.573 145.173C103.579 131.533 100.424 122.783 98.6255 107.67C105.437 102.456 115.934 104.488 123.453 109.968C131.15 115.624 136.487 124.138 141.883 132.211C148.399 141.933 154.768 151.831 162.583 160.463C178.093 177.521 156.508 196.316 145.185 189.599V189.599Z" fill="#E6D05E"/>
<path d="M112.782 145.036L112.782 145.036C103.837 131.47 100.688 122.769 98.8907 107.783C102.214 105.293 106.424 104.527 110.744 105.057C115.113 105.593 119.577 107.452 123.306 110.17C130.375 115.366 135.447 122.99 140.44 130.497C140.852 131.116 141.263 131.734 141.675 132.35L141.675 132.35C142.352 133.359 143.027 134.371 143.703 135.383C149.529 144.112 155.382 152.881 162.397 160.631L162.398 160.631C166.238 164.855 167.769 169.169 167.75 173.155C167.731 177.145 166.159 180.83 163.752 183.789C161.345 186.749 158.11 188.973 154.785 190.041C151.464 191.108 148.075 191.018 145.324 189.391C138.627 184.381 132.826 176.851 127.529 168.785C124.88 164.751 122.36 160.589 119.918 156.547L119.705 156.194C117.34 152.277 115.046 148.48 112.782 145.036Z" stroke="black" stroke-opacity="0.5" stroke-width="0.5"/>
<path d="M5.41747 159.815C13.2315 151.213 19.6302 141.284 26.1173 131.563C31.5134 123.49 36.8505 114.976 44.5761 109.32C52.0657 103.84 62.5926 101.808 69.3746 107.022C67.5759 122.135 64.4503 130.885 55.4568 144.525C46.1094 158.696 36.2902 178.876 22.8147 188.951C11.4918 195.668 -10.0926 176.873 5.41747 159.815V159.815Z" fill="#E6D05E"/>
<path d="M5.60244 159.983L5.41747 159.815L5.60252 159.983C12.7313 152.135 18.6835 143.187 24.5853 134.314C25.1654 133.442 25.745 132.571 26.3252 131.701C26.7342 131.09 27.1428 130.475 27.5519 129.86C32.5482 122.35 37.6232 114.72 44.7237 109.522C48.4375 106.805 52.9019 104.944 57.2711 104.409C61.5906 103.879 65.8002 104.645 69.1094 107.134C67.3127 122.121 64.1924 130.822 55.2481 144.387C52.9587 147.858 50.6416 151.688 48.2528 155.636L48.0941 155.899C45.6483 159.941 43.1258 164.103 40.4749 168.137C35.1737 176.203 29.3728 183.732 22.6758 188.743C19.9247 190.37 16.5356 190.46 13.2149 189.393C9.89003 188.325 6.65516 186.101 4.24766 183.141C1.841 180.182 0.269209 176.497 0.250175 172.507C0.231158 168.521 1.76172 164.207 5.60244 159.983Z" stroke="black" stroke-opacity="0.5" stroke-width="0.5"/>
<path d="M37.424 241.29C57.705 194.587 47.1065 109.549 45.1438 98.4699C50.2468 96.6724 53.4852 96.1494 65.5557 94.8095C65.5557 94.8095 77.2009 125.334 88.4536 125.334C96.9912 125.334 92.5425 94.6134 92.5425 94.6134C92.5425 94.6134 117.043 98.7313 122.342 100.594C120.38 111.673 121.296 121.935 125.058 132.557C126.693 137.133 128.885 141.708 128.852 146.578C128.819 153.277 124.763 158.801 119.66 163.474C119.497 177.822 112.169 192.169 113.445 206.418C114.361 216.386 119.497 228.119 121.492 237.924C118.155 241.584 103.926 247.63 84.0703 247.63C62.9388 247.63 40.7605 244.95 37.424 241.29V241.29Z" fill="#E6D05E"/>
<path d="M48.3167 199.065C48.0986 199.544 47.826 200.034 47.4989 200.535C50.8682 173.246 49.7233 143.767 48.0223 123.341C48.5784 124.354 48.9709 125.432 48.9709 126.511C49.9522 135.662 49.8214 145.63 53.4197 154.127C56.3637 161.971 73.439 162.363 73.439 163.703C73.439 165.043 61.8592 163.605 57.6067 163.605C53.0271 163.605 51.2607 170.631 50.9336 174.88C50.6065 183.051 52.242 191.875 48.3167 199.065V199.065Z" fill="#CFB846"/>
<path d="M121.655 117.719C122.146 122.654 123.291 127.557 125.057 132.557C126.693 137.132 128.885 141.708 128.852 146.578C128.819 153.277 124.763 158.801 119.66 163.474C119.638 163.539 119.627 163.605 119.627 163.67C117.959 163.932 116.291 164.291 114.524 164.291C130.226 154.813 124.992 137.165 121.721 122.131C121.296 120.628 121.132 119.125 121.655 117.719V117.719Z" fill="#CFB846"/>
<path d="M110.697 163.637C108.408 165.925 98.7904 166.742 94.4725 166.775C90.1873 166.775 80.5375 166.023 78.2477 163.735C78.3785 163.343 80.2431 163.408 83.1544 163.572C86.9816 163.768 90.449 163.931 94.4725 163.931C98.496 163.899 101.963 163.735 105.791 163.507C108.702 163.31 110.566 163.245 110.697 163.637Z" fill="#CFB846"/>
<path d="M114.59 64.3172C114.59 90.2667 99.4445 111.281 80.7664 111.281C62.0882 111.281 46.9429 90.2667 46.9429 64.3172C46.9429 38.4005 62.0882 17.386 80.7664 17.386C99.4445 17.386 114.59 38.4005 114.59 64.3172Z" fill="#623838"/>
<path d="M103.533 103.34C103.533 112.098 99.608 128.08 90.9722 128.08C82.3037 128.08 54.4337 112.098 54.4337 103.34C54.4337 97.5222 59.2423 96.2476 66.4715 96.0189V79.8086H91.4956V96.0189C98.6921 96.2476 103.533 97.5222 103.533 103.34V103.34Z" fill="#F0BA9B"/>
<path d="M100.557 124.615C98.0382 124.158 89.5987 125.988 88.9117 125.301C88.2248 124.582 93.2296 116.902 93.066 113.699C92.9352 111.542 92.2483 102.326 91.7576 93.8615C93.7857 93.9595 98.2017 94.6131 99.2158 96.7375C100.23 98.8618 106.838 120.595 109.029 134.158C106.118 131.674 103.108 125.073 100.557 124.615V124.615Z" fill="#FFEE99"/>
<path d="M66.0463 133.603C66.0463 133.603 54.5319 107.947 60.5835 95.5283C62.3826 94.5478 64.1818 93.9595 66.2426 93.8615C68.2053 103.045 72.0652 107.522 77.8224 115.432C79.0981 117.196 88.6825 124.517 87.9956 125.236C87.276 125.922 76.9392 123.961 74.3877 124.386C71.8689 124.844 68.9576 131.119 66.0463 133.603V133.603Z" fill="#FFEE99"/>
<path d="M45.2234 285.086C34.7241 273.091 30.22 263.189 34.7241 246.717C37.3413 237.076 56.7575 200.799 56.7575 200.799L110.258 202.008C110.258 202.008 126.053 282.504 117.654 285.086C117.654 285.086 100.794 285.086 55.814 285.086C54.9315 285.086 46.1364 285.086 45.2234 285.086Z" fill="#E6D05E"/>
<path d="M105.389 234.331C105.389 234.331 140.144 236.716 151.465 240.41C160.473 243.384 129.857 285.184 129.857 285.184L81.8648 284.922C45.7715 240.606 105.389 234.331 105.389 234.331V234.331Z" fill="#E6D05E"/>
<path d="M142.609 239.299C151.8 238.972 156.395 246.652 157.004 255.084C157.004 255.084 159.286 278.059 156.425 302.211C153.839 324.043 150.187 365.059 148.3 394.374L136.857 393.884C136.279 384.798 129.675 321.069 128.153 304.76C124.562 266.326 129.005 239.756 142.609 239.299V239.299Z" fill="#F0BA9B"/>
<path d="M129.614 285.345H116.619L122.127 245.375C122.127 245.375 139.87 239.296 142.609 239.296C145.348 239.296 129.614 285.345 129.614 285.345V285.345Z" fill="#F0BA9B"/>
<path d="M124.775 285.347H116.619L122.127 245.377C122.127 245.377 123.466 244.92 125.414 244.266C129.766 244.266 132.018 247.992 129.766 261.555C127.514 275.151 124.775 285.347 124.775 285.347V285.347Z" fill="#F5A59D"/>
<path d="M138.865 427.318H134.331L134.513 406.434C133.144 396.401 140.417 391.564 140.417 391.564L138.865 427.318Z" fill="#894130"/>
<path d="M146.93 392.478C146.93 392.478 151.739 395.616 153.686 399.963C155.634 404.309 165.433 425.52 166.712 428.461C168.142 431.762 169.755 438.396 162.786 438.396C155.817 438.396 151.708 438.396 146.078 438.396C140.448 438.396 137.831 433.625 137.831 427.611C137.831 421.598 133.235 395.877 134.574 392.478C135.944 389.112 146.93 392.478 146.93 392.478V392.478Z" fill="#B65740"/>
<path d="M148.695 381.988C149.73 385.256 152.347 393.034 152.347 397.381C152.347 401.728 159.56 416.5 161.081 421.173C162.603 425.912 149.426 428.135 144.982 423.886C140.539 419.637 138.287 408.722 136.553 403.983C134.818 399.244 133.814 391.662 135.335 386.727C136.826 381.792 147.63 378.72 148.695 381.988Z" fill="#F0BA9B"/>
<path d="M115.249 239.298C124.44 238.972 130.466 244.626 128.67 257.666C127.392 267.013 124.014 278.059 121.153 302.211C118.566 324.043 114.914 365.058 113.028 394.374L101.615 393.884C101.007 384.798 94.4331 321.069 92.9115 304.76C89.3204 266.326 101.676 239.756 115.249 239.298Z" fill="#F0BA9B"/>
<path d="M104.354 427.318H99.8199L100.003 406.434C98.6331 396.401 105.907 391.564 105.907 391.564L104.354 427.318Z" fill="#894130"/>
<path d="M112.419 392.478C112.419 392.478 117.227 395.616 119.175 399.963C121.123 404.309 130.922 425.52 132.2 428.461C133.63 431.762 135.243 438.396 128.274 438.396C121.305 438.396 117.166 438.396 111.536 438.396C105.937 438.396 103.319 433.625 103.319 427.611C103.319 421.598 98.724 395.877 100.063 392.478C101.402 389.112 112.419 392.478 112.419 392.478V392.478Z" fill="#B65740"/>
<path d="M114.154 381.988C115.219 385.256 117.836 393.034 117.836 397.381C117.836 401.728 125.049 416.5 126.57 421.173C128.092 425.912 114.915 428.135 110.471 423.886C106.028 419.637 103.746 408.722 102.041 403.983C100.307 399.244 99.3025 391.662 100.794 386.727C102.315 381.792 113.119 378.72 114.154 381.988Z" fill="#F0BA9B"/>
<path d="M108.327 172.601C82.378 180.968 64.4796 184.739 37.0273 185.21C17.7723 185.534 11.9339 173.337 17.3005 166.414C21.1338 161.465 49.913 161.17 55.4271 161.141C74.9179 161.052 103.815 163.527 103.815 163.527C103.815 163.527 116.052 170.097 108.327 172.601V172.601Z" fill="#F0BA9B"/>
<path d="M114.018 147L115.698 162.408C115.698 162.408 113.959 170.067 109.182 172.483C104.375 174.869 100.778 173.043 99.9228 170.48C99.2152 168.329 102.636 156.28 105.761 151.89C108.916 147.501 114.018 147 114.018 147V147Z" fill="#F0BA9B"/>
<path d="M17.2713 190.454C6.65603 189.423 3.14706 147.383 31.5429 156.516C42.1287 155.838 50.0312 159.196 60.499 157.723C66.6323 156.84 81.6706 152.892 87.6859 154.365C93.7307 155.808 96.1192 162.231 96.1192 162.231C96.7384 168.859 96.8564 182.176 96.8564 182.176C92.6987 186.86 87.7155 191.456 81.4053 192.133C75.0066 192.84 34.0199 192.045 17.2713 190.454V190.454Z" fill="#E6D05E"/>
<path d="M31.4664 156.754L31.5116 156.768L31.5589 156.765C36.3934 156.456 40.6647 156.992 44.9033 157.524C45.2805 157.572 45.6574 157.619 46.0345 157.666C50.6442 158.237 55.2649 158.712 60.5339 157.971L60.5347 157.971C62.0761 157.749 64.1734 157.335 66.5374 156.864L66.8931 156.793C69.1675 156.34 71.6753 155.84 74.1793 155.407C76.8151 154.951 79.4415 154.569 81.7815 154.393C84.1268 154.217 86.1623 154.249 87.6265 154.608L87.6279 154.608C90.5737 155.312 92.6373 157.23 93.9701 158.99C94.6357 159.869 95.1156 160.704 95.4288 161.318C95.5854 161.625 95.7001 161.877 95.7753 162.051C95.8129 162.138 95.8407 162.206 95.8588 162.251C95.8634 162.263 95.8674 162.273 95.8708 162.281C95.8717 162.284 95.8726 162.286 95.8735 162.288C96.1803 165.593 96.3636 170.552 96.4701 174.695C96.5235 176.773 96.5576 178.644 96.5783 179.995C96.5887 180.671 96.5957 181.217 96.6001 181.593C96.6023 181.782 96.6039 181.928 96.6049 182.027L96.6055 182.082C92.4625 186.739 87.5539 191.221 81.3786 191.885L81.3778 191.885C78.1993 192.236 66.3735 192.215 53.2254 191.905C40.0859 191.596 25.6597 191 17.2949 190.205C16.0531 190.084 14.8919 189.362 13.8618 188.162C12.8317 186.962 11.9481 185.302 11.2658 183.349C9.90116 179.444 9.35828 174.418 10.0255 169.708C10.6931 164.995 12.5658 160.638 15.9925 158.019C19.4077 155.41 24.4209 154.488 31.4664 156.754Z" stroke="black" stroke-opacity="0.5" stroke-width="0.5"/>
<path d="M55.427 185.033C48.7334 184.562 48.3501 176.902 48.3501 176.902C48.3501 176.902 41.2732 176.401 38.5899 176.401C35.9361 176.401 34.9041 174.457 35.7592 173.603C36.5849 172.778 43.5143 172.218 43.5143 172.218C43.5143 172.218 35.7002 172.041 33.4297 171.511C31.1297 170.981 31.0118 168.712 31.0118 168.712C28.8298 168.801 28.0336 167.328 28.8888 166.473C29.7734 165.589 41.3322 161.583 41.3322 161.583C41.3322 161.583 28.3285 157.989 28.9183 156.604C29.5375 155.219 36.4964 156.81 39.8874 157.723C43.7502 158.725 50.7091 162.496 50.7091 162.496C53.4219 163.203 55.427 185.033 55.427 185.033V185.033Z" fill="#CFB846"/>
<path d="M61.6193 174.103C61.6193 174.103 89.5729 169.566 108.828 166.679C114.283 165.884 142.797 161.818 147.338 166.12C153.677 172.159 149.756 185.092 130.678 187.685C103.491 191.397 85.2088 190.366 58.2872 186.035C50.2668 184.739 61.6193 174.103 61.6193 174.103Z" fill="#F0BA9B"/>
<path d="M57.6679 165.177C61.4423 169.036 66.6614 180.408 66.2781 182.677C65.8063 185.328 62.5333 187.685 57.432 186.035C52.3603 184.385 49.4411 177.079 49.4411 177.079L48.7924 161.583C48.7924 161.583 53.8936 161.318 57.6679 165.177V165.177Z" fill="#F0BA9B"/>
<path d="M49.4708 176.49C47.9965 175.606 40.212 176.077 37.5287 175.459C36.0248 175.105 34.8158 173.308 36.762 173.161C38.6786 173.013 44.635 172.012 46.9939 172.247C50.1785 172.542 54.9554 175.282 54.9554 175.282C54.9554 175.282 51.6529 177.845 49.4708 176.49Z" fill="#F0BA9B"/>
<path d="M53.7759 168.624C53.7759 168.624 49.4414 162.82 47.5837 161.789C45.6965 160.758 34.1377 158.46 30.3929 157.37C27.857 156.604 27.2967 154.365 30.4223 153.953C32.2505 153.687 44.8119 155.868 48.6157 157.429C52.4195 158.961 56.6657 164.706 56.6657 164.706L53.7759 168.624Z" fill="#F0BA9B"/>
<path d="M53.5694 173.603C53.5694 173.603 49.0284 167.917 47.1708 166.886C45.3131 165.855 34.0491 168.447 32.1914 168.742C29.5376 169.125 27.3261 166.562 29.862 165.914C32.3684 165.265 44.6054 160.876 48.4092 162.408C52.213 163.969 55.2207 168.3 55.2207 168.3L53.5694 173.603Z" fill="#F0BA9B"/>
<path d="M52.6553 176.401C52.6553 176.401 49.2643 173.043 47.731 172.041C46.1682 171.01 38.4721 171.393 35.4055 171.364C31.985 171.334 31.5427 168.506 33.6953 168.241C36.2016 167.946 45.8144 166.473 48.9695 168.035C52.1246 169.567 54.6309 173.779 54.6309 173.779L52.6553 176.401Z" fill="#F0BA9B"/>
<path d="M111.895 144.172C111.895 144.172 132.093 137.189 133.332 137.661C134.541 138.132 133.361 139.959 129.911 141.491C126.786 142.875 119.532 145.262 119.119 145.674C118.706 146.086 132.182 148.031 133.774 148.473C135.927 149.091 134.334 151.979 132.182 151.979C132.182 151.979 132.418 154.718 129.675 155.013C126.815 155.337 122.156 156.074 122.156 156.074C122.156 156.074 127.552 156.604 128.348 156.604C129.145 156.604 129.793 158.754 127.022 159.403C124.456 159.992 122.687 161.583 122.687 161.583L111.895 144.172Z" fill="#CFB846"/>
<path d="M86.4179 200.529C80.0783 200.795 77.6308 195.727 72.8245 191.721C72.8245 191.721 73.6796 178.847 73.2963 172.188C73.2963 172.188 75.0655 165.589 80.8154 163.233C86.5654 160.876 100.07 162.525 106.174 163.115C116.701 164.146 124.928 161.406 136.516 160.404C163.202 147.088 165.443 187.567 155.093 190.189C138.787 194.313 92.8461 200.235 86.4179 200.529V200.529Z" fill="#E6D05E"/>
<path d="M136.538 160.653L136.585 160.649L136.628 160.628C143.253 157.322 148.309 157.378 152.017 159.294C155.736 161.215 158.163 165.036 159.453 169.391C160.743 173.743 160.884 178.59 160.065 182.505C159.655 184.462 159.007 186.174 158.152 187.473C157.297 188.771 156.246 189.639 155.031 189.946C146.893 192.005 131.345 194.515 117.016 196.548C102.686 198.581 89.6063 200.133 86.4066 200.28C83.3209 200.408 81.1842 199.246 79.2098 197.538C78.3045 196.755 77.438 195.861 76.528 194.923C76.4404 194.832 76.3524 194.742 76.264 194.65C75.2864 193.644 74.2543 192.598 73.0822 191.61L73.0835 191.591C73.0896 191.494 73.0987 191.353 73.11 191.17C73.1326 190.805 73.1646 190.275 73.2017 189.619C73.2759 188.307 73.3709 186.489 73.4539 184.462C73.6191 180.428 73.7373 175.557 73.5483 172.216C73.5508 172.207 73.5539 172.196 73.5574 172.184C73.5712 172.137 73.5924 172.067 73.6215 171.977C73.6797 171.796 73.7696 171.534 73.8955 171.211C74.1473 170.566 74.5423 169.68 75.1143 168.722C76.2598 166.804 78.1036 164.614 80.9103 163.464C82.3121 162.889 84.2039 162.553 86.3644 162.386C88.5212 162.22 90.9286 162.223 93.3523 162.319C97.3426 162.476 101.362 162.882 104.364 163.186C105.01 163.251 105.609 163.311 106.15 163.364C111.442 163.882 116.153 163.452 120.982 162.769C122.398 162.569 123.822 162.348 125.274 162.122C128.78 161.577 132.446 161.007 136.538 160.653Z" stroke="black" stroke-opacity="0.5" stroke-width="0.5"/>
<path d="M109.978 161.465C109.978 161.465 114.313 158.048 117.409 157.252C119.709 156.663 125.754 156.751 127.67 156.604C129.587 156.486 128.673 158.431 127.228 158.99C124.692 160.022 116.907 160.729 115.61 161.848C113.664 163.498 109.978 161.465 109.978 161.465Z" fill="#F0BA9B"/>
<path d="M105.644 152.803C105.644 152.803 110.037 144.937 113.546 142.846C117.085 140.754 129.174 136.689 131.032 136.659C134.157 136.6 133.951 138.928 131.563 140.018C128.024 141.697 118.264 144.731 116.583 146.027C114.903 147.353 110.155 154.689 110.155 154.689L105.644 152.803Z" fill="#F0BA9B"/>
<path d="M108.681 154.601C108.681 154.601 110.981 149.858 114.519 147.766C118.028 145.674 130.796 148.149 133.361 148.414C135.986 148.679 134.187 151.537 131.474 151.537C129.616 151.537 118.087 150.682 116.406 151.979C114.725 153.304 111.099 159.609 111.099 159.609L108.681 154.601Z" fill="#F0BA9B"/>
<path d="M110.096 159.933C110.096 159.933 111.924 155.396 114.814 153.393C117.704 151.389 127.405 151.389 129.941 151.301C132.123 151.213 132.093 154.07 128.732 154.63C125.695 155.101 118.028 155.926 116.642 157.164C115.286 158.401 112.425 162.231 112.425 162.231L110.096 159.933Z" fill="#F0BA9B"/>
<path d="M108.598 55.8147C110.857 53.5908 114.589 52.9694 117.076 54.9644C119.564 56.9594 120.317 60.5896 119.433 63.6312C118.549 66.7054 116.225 69.191 113.541 70.8916C110.857 72.5922 107.813 73.6061 104.768 74.5872C102.902 75.2086 107.518 56.894 108.598 55.8147V55.8147Z" fill="#F0BA9B"/>
<path d="M55.6345 74.5872C52.6229 73.6061 49.5787 72.5922 46.8945 70.8916C44.2103 69.191 41.8862 66.7054 41.0024 63.6312C40.0858 60.5896 40.8714 56.9594 43.3592 54.9644C45.8143 52.9694 49.5787 53.5908 51.8046 55.8147C52.9176 56.894 57.5003 75.2086 55.6345 74.5872Z" fill="#F0BA9B"/>
<path d="M111.97 37.5982C111.97 37.5982 109.45 66.3456 108.042 71.9054C107.944 72.2979 107.813 72.7231 107.649 73.1155C106.34 76.386 104.179 79.4275 102.019 82.2074C99.171 85.8704 95.9304 89.2716 92.166 91.9861C88.3688 94.7006 84.5716 96.1396 79.4978 96.1396C74.064 96.1396 69.252 93.0981 65.2585 89.566C61.9851 86.6553 59.0717 83.3194 56.5839 79.7546C54.9472 77.3998 53.0814 74.7181 52.3613 71.9054C50.9864 66.3456 48.4659 37.5982 48.4659 37.5982C46.1418 12.5791 61.2322 9.86463 77.2064 9.11242C77.7302 9.07971 82.7058 9.07971 83.2296 9.11242C99.2038 9.86463 114.294 12.5791 111.97 37.5982V37.5982Z" fill="#F0BA9B"/>
<path d="M96.8469 87.9962C95.3739 89.4352 93.8354 90.7761 92.166 91.9861C88.3688 94.7006 84.5716 96.1396 79.4978 96.1396C74.064 96.1396 69.252 93.0981 65.2585 89.566C61.9851 86.6553 59.0717 83.3194 56.5839 79.7546C54.9472 77.3998 53.0814 74.7181 52.3613 71.9054C50.9864 66.3456 48.4659 37.5982 48.4659 37.5982C46.1418 12.5791 61.2322 9.86463 77.2064 9.11242C77.7302 9.07971 82.7058 9.07971 83.2296 9.11242C99.2038 9.86463 114.294 12.5791 111.97 37.5982C111.97 37.5982 111.959 37.6091 111.937 37.6309C97.8617 44.9568 97.5344 36.1265 93.8681 31.09C90.2019 26.0535 80.218 37.0095 72.1 45.0876C65.8805 51.3342 55.2091 52.6097 54.0634 58.3984C53.3433 61.9632 54.3253 69.0928 55.5365 72.7231C58.9408 83.4502 68.532 94.4063 80.218 94.8969C81.9202 95.1258 89.2526 93.7849 96.8469 87.9962V87.9962Z" fill="#F5A59D"/>
<path d="M81.3306 51.7916C81.3306 51.7916 84.6695 62.4207 84.0475 64.2848C83 67.4899 77.7626 66.4433 77.7626 66.4433C77.7626 66.4433 81.3306 65.2006 81.3306 62.8785C81.3306 60.5892 81.3306 51.7916 81.3306 51.7916V51.7916Z" fill="#D66958"/>
<path d="M91.5762 66.5416C89.9068 68.8636 87.6481 70.5969 85.0294 71.5454C82.378 72.4938 79.4319 72.4938 76.7477 71.5781C75.1764 71.0548 73.7361 70.2372 72.4595 69.1906C72.1649 68.929 72.1976 68.3403 72.4595 68.0787C72.7868 67.7516 73.1797 67.817 73.507 68.0787C75.5038 69.7139 77.9916 70.6296 80.5121 70.7278C82.9672 70.7932 85.3567 70.0083 87.3863 68.602C88.4992 67.817 89.4812 66.8686 90.2996 65.7239C90.5287 65.3969 90.9215 65.2334 91.2816 65.4623C91.6089 65.6585 91.8054 66.1818 91.5762 66.5416V66.5416Z" fill="#CC4240"/>
<path d="M60.3481 44.237C60.3917 44.1716 60.4463 44.1171 60.5117 44.0735C63.5887 41.2936 67.0913 40.3452 70.6593 41.359C70.9539 41.4571 71.2813 41.5552 71.5432 42.0131C72.0669 42.8307 72.1324 43.7465 72.0996 45.0874C67.9751 43.1251 63.7852 43.2886 59.9226 45.676C59.7916 45.2182 59.8571 45.1855 59.988 44.8257C60.0535 44.5641 60.1844 44.3678 60.3481 44.237V44.237Z" fill="#45363F"/>
<path d="M101.462 44.8257C101.593 45.1855 101.626 45.2182 101.495 45.676C97.6648 43.2886 93.4747 43.1251 89.3175 45.0874C89.3175 43.7465 89.383 42.8307 89.9067 42.0131C90.1686 41.5552 90.4959 41.4571 90.7905 41.359C94.3586 40.3452 97.8611 41.2936 100.938 44.0735C101.004 44.1171 101.058 44.1716 101.102 44.237C101.233 44.3678 101.364 44.5641 101.462 44.8257V44.8257Z" fill="#45363F"/>
<path d="M70.07 52.5441V55.2586C70.07 57.1554 68.5969 57.7768 67.0584 57.7768C65.5199 57.7768 64.0142 57.1554 64.0142 55.2586V52.5441C64.0142 52.4133 64.0142 51.8246 64.0142 51.6611C64.0142 49.7969 65.3889 48.2598 67.0584 48.2598C68.7278 48.2598 70.07 49.7969 70.07 51.6611C70.07 51.8246 70.07 52.4133 70.07 52.5441Z" fill="#45363F"/>
<path d="M68.9899 51.5302C68.9899 51.6937 68.859 51.7918 68.728 51.7918C68.5644 51.7918 68.4335 51.6937 68.4335 51.5302C68.4335 51.3667 68.5644 51.2686 68.728 51.2686C68.859 51.2686 68.9899 51.3667 68.9899 51.5302Z" fill="white"/>
<path d="M97.8615 52.5441V55.2586C97.8615 57.1554 96.3885 57.7768 94.85 57.7768C93.2787 57.7768 91.8057 57.1554 91.8057 55.2586V52.5441C91.8057 52.4133 91.8057 51.8246 91.8057 51.6611C91.8057 49.7969 93.1478 48.2598 94.85 48.2598C96.5194 48.2598 97.8615 49.7969 97.8615 51.6611C97.8615 51.8246 97.8615 52.4133 97.8615 52.5441Z" fill="#45363F"/>
<path d="M96.7813 51.5302C96.7813 51.6937 96.6504 51.7918 96.4867 51.7918C96.3558 51.7918 96.2249 51.6937 96.2249 51.5302C96.2249 51.3667 96.3558 51.2686 96.4867 51.2686C96.6504 51.2686 96.7813 51.3667 96.7813 51.5302Z" fill="white"/>
<path d="M122.183 110.53C118.877 113.113 114.36 113.996 110.334 112.819C106.635 111.74 103.459 108.927 101.921 105.362C100.284 105.787 98.5819 105.918 96.8798 105.722C91.5114 105.035 86.7322 100.457 86.4376 95.093C86.6995 98.9849 91.3477 101.569 95.1448 100.587C98.7456 99.6717 101.332 96.4666 102.543 92.9672C103.754 89.4351 103.688 81.03 103.296 74.947C103.132 72.1343 102.87 69.4199 102.903 66.6073C102.968 63.8274 103.067 61.0475 103.001 58.2676C102.608 43.9429 96.6506 29.8799 86.6667 19.6106L108.435 21.4748C113.574 23.8949 115.145 29.5201 116.226 35.0799C117.306 40.6397 118.222 46.3957 118.779 52.021C120.121 65.2991 126.57 77.596 128.075 90.8414C128.894 97.9711 127.814 106.115 122.183 110.53V110.53Z" fill="#824A4A"/>
<path d="M104.245 80.1471C103.132 76.8766 102.739 73.4099 102.739 69.9759C102.706 66.5746 102.968 63.1733 103.034 59.7393C103.132 63.1733 102.936 66.5746 103.066 69.9759C103.11 70.8262 103.165 71.6765 103.23 72.5269C103.296 73.3772 103.394 74.2166 103.525 75.0451C103.787 76.7131 104.18 78.381 104.769 79.9508C104.9 80.3433 105.063 80.7357 105.227 81.1282C105.423 81.5207 105.587 81.8804 105.783 82.2729C105.947 82.6326 106.176 82.9924 106.373 83.3521C106.482 83.5265 106.602 83.7119 106.733 83.9081L106.896 84.1697L107.093 84.3987C108.042 85.7723 109.253 86.9496 110.628 87.8981C111.316 88.3559 112.068 88.7484 112.821 89.0754C113.574 89.4025 114.36 89.6314 115.178 89.7949C115.986 89.9476 116.804 90.013 117.633 89.9912C118.113 89.9694 118.593 89.904 119.074 89.7949C118.353 89.4025 117.731 88.9119 117.142 88.3232C116.357 87.4729 115.702 86.5245 115.178 85.5106C114.163 83.4502 113.672 81.1936 113.378 78.9697C113.05 76.7458 112.985 74.4891 113.018 72.2652C113.083 70.0413 113.247 67.7847 113.476 65.5935C113.934 61.1456 114.622 56.7632 114.916 52.3154C114.982 51.2252 115.025 50.1241 115.047 49.0122C115.047 48.4562 115.047 47.9002 115.047 47.3442L115.014 46.4939L114.982 45.6763C114.96 45.3929 114.938 45.1203 114.916 44.8587L114.851 44.0084C114.753 43.4851 114.72 42.9291 114.622 42.3731C114.458 41.2612 114.196 40.1819 113.934 39.1027C114.589 41.2285 115.014 43.4524 115.211 45.6763C115.407 47.8675 115.44 50.1241 115.309 52.3481C115.113 56.7959 114.523 61.211 114.131 65.6589C113.934 67.8501 113.771 70.074 113.738 72.2652C113.738 73.3772 113.771 74.4891 113.836 75.5684C113.869 76.6804 114 77.7923 114.131 78.8716C114.425 81.0628 114.916 83.2213 115.898 85.1509C116.357 86.0993 116.979 87.015 117.699 87.7673C118.452 88.5522 119.335 89.1409 120.317 89.566L121.299 89.9912L120.285 90.2855C119.434 90.5472 118.55 90.7107 117.666 90.7434C116.782 90.7761 115.898 90.7107 115.047 90.5472C114.163 90.3509 113.345 90.0893 112.527 89.7295C111.741 89.3698 110.955 88.9773 110.235 88.4541C108.795 87.4729 107.518 86.2301 106.569 84.7911L106.373 84.4968L106.209 84.2351C106.078 84.0607 105.958 83.8754 105.849 83.6792C105.652 83.2867 105.423 82.927 105.227 82.5345C105.031 82.142 104.867 81.7496 104.703 81.3571C104.54 80.932 104.376 80.5395 104.245 80.1471V80.1471Z" fill="#623838"/>
<path d="M113.181 94.8642C112.166 97.8077 110.399 100.489 107.976 102.484C106.765 103.498 105.423 104.316 103.983 104.97C102.51 105.591 100.971 105.951 99.4001 106.082C97.8288 106.213 96.1921 106.082 94.6864 105.559C93.1479 105.068 91.7403 104.316 90.4964 103.302L90.2673 103.139L90.0381 102.942L89.6126 102.517C89.4489 102.386 89.318 102.223 89.187 102.092L88.7615 101.667L88.4014 101.176C88.2705 101.013 88.1395 100.882 88.0413 100.686L87.714 100.195C87.6813 100.13 87.6158 100.032 87.5503 99.9335L87.4194 99.6718C86.6665 98.3309 86.241 96.1397 86.4374 94.7007C86.732 95.224 86.9284 96.0743 87.2557 96.6957C87.2994 96.8047 87.354 96.9246 87.4194 97.0555C87.594 97.3607 87.7903 97.655 88.0086 97.9385C88.2486 98.2001 88.4996 98.4509 88.7615 98.6907C89.8744 99.6064 91.2493 100.195 92.6896 100.359C93.4097 100.457 94.1299 100.457 94.8173 100.293C95.5047 100.13 96.2248 99.9008 96.8468 99.5737C97.5015 99.2249 98.1125 98.8106 98.6799 98.3309C99.2255 97.8513 99.7274 97.328 100.186 96.7611C100.644 96.1724 101.048 95.551 101.397 94.897C101.746 94.2429 102.052 93.567 102.313 92.8693C102.804 91.463 103.099 89.9912 103.295 88.4868C103.459 87.0151 103.525 85.478 103.525 83.9736C103.525 83.2323 103.514 82.4801 103.492 81.7169V79.4603C103.557 80.9647 103.688 82.4692 103.721 83.9736C103.786 85.478 103.786 87.0151 103.655 88.5195C103.525 90.0567 103.263 91.5611 102.804 93.0328C102.564 93.7523 102.27 94.4609 101.921 95.1586C101.55 95.8345 101.135 96.4886 100.677 97.1209C100.197 97.7314 99.6729 98.2982 99.1055 98.8215C98.5163 99.3448 97.8615 99.8026 97.1741 100.162C96.4867 100.555 95.7338 100.816 94.981 101.013C94.1953 101.176 93.377 101.209 92.5913 101.111C91.0201 100.947 89.4816 100.293 88.2705 99.2794C88.1395 99.1704 88.0086 99.0504 87.8777 98.9196C87.9431 99.0504 88.0195 99.1813 88.1068 99.3121L88.2378 99.541C88.2705 99.6391 88.3359 99.7045 88.3687 99.8027L88.6633 100.261C88.7615 100.424 88.8924 100.555 89.0234 100.718L89.3507 101.144L89.7435 101.569C89.8744 101.7 89.9726 101.863 90.1363 101.994L90.5292 102.354L90.7583 102.55L90.9546 102.746C92.1331 103.695 93.4752 104.414 94.8827 104.905C95.0791 104.97 95.2429 105.003 95.4393 105.068C95.6139 105.112 95.7884 105.155 95.963 105.199L96.5194 105.297C96.7158 105.33 96.9123 105.395 97.076 105.395L97.6651 105.461C97.7524 105.461 97.8397 105.471 97.927 105.493H98.2217H98.7781C98.9745 105.493 99.1709 105.461 99.3346 105.461C102.379 105.297 105.325 104.087 107.715 102.19L107.944 102.027L108.173 101.83L108.598 101.471C108.893 101.209 109.155 100.947 109.449 100.686C109.711 100.391 109.973 100.097 110.235 99.8027C110.464 99.5083 110.726 99.214 110.922 98.9196C111.381 98.2873 111.795 97.6332 112.166 96.9573C112.537 96.2814 112.876 95.5837 113.181 94.8642V94.8642Z" fill="#623838"/>
<path d="M128.206 100.522C127.683 103.204 126.701 105.853 125.064 108.077C124.649 108.644 124.191 109.167 123.689 109.647C123.209 110.148 122.685 110.606 122.118 111.02C121.561 111.413 120.972 111.773 120.35 112.1C119.728 112.394 119.106 112.688 118.451 112.885C117.142 113.343 115.767 113.571 114.392 113.571C113.018 113.604 111.643 113.408 110.301 113.015C108.991 112.623 107.78 112.002 106.667 111.217C106.1 110.824 105.576 110.388 105.096 109.909C104.594 109.429 104.147 108.927 103.754 108.404C104.19 108.906 104.66 109.374 105.161 109.81C105.663 110.268 106.198 110.672 106.765 111.02C107.911 111.773 109.122 112.329 110.432 112.656C112.985 113.343 115.767 113.179 118.255 112.296C120.743 111.446 122.903 109.778 124.442 107.652C126.013 105.526 126.93 102.975 127.421 100.359C127.944 97.7751 128.043 95.0606 127.846 92.4115C127.65 89.7297 127.224 87.0806 126.668 84.4643C126.537 83.8102 126.373 83.1561 126.242 82.4693C126.089 81.8152 125.926 81.1611 125.751 80.507C125.424 79.1988 125.097 77.9233 124.737 76.6151C124.387 75.3069 124.027 74.0097 123.656 72.7233L123.1 70.761L122.543 68.7987L123.198 70.7283L123.853 72.6579C124.267 73.9443 124.682 75.2306 125.097 76.517C125.915 79.068 126.668 81.6844 127.257 84.3334C127.879 86.9498 128.337 89.6316 128.599 92.3461C128.795 95.0606 128.73 97.8078 128.206 100.522V100.522Z" fill="#623838"/>
<path d="M30.6257 91.2666C32.1315 78.0212 38.5801 65.6915 39.9222 52.4461C40.4787 46.7882 41.3952 41.0649 42.4754 35.5051C43.5557 29.9453 45.1269 24.3201 50.2662 21.8672L72.0344 20.0358C62.0505 30.305 56.0928 44.3681 55.7 58.6927C55.6018 61.4726 55.7327 64.2525 55.7982 66.9997C55.8309 69.845 55.5691 72.5595 55.4054 75.3721C55.0126 81.4225 54.9472 89.8603 56.1583 93.3597C57.3367 96.8918 59.9555 100.097 63.5235 101.013C67.3207 101.961 72.0016 99.4101 72.2635 95.4855C71.9689 100.882 67.1569 105.46 61.8213 106.115C60.1191 106.343 58.4169 106.213 56.7802 105.787C55.2417 109.352 52.0665 112.165 48.3348 113.244C44.3413 114.422 39.824 113.539 36.5179 110.955C30.8876 106.54 29.8074 98.3962 30.6257 91.2666V91.2666Z" fill="#824A4A"/>
<path d="M53.9977 81.7496C53.8013 82.1748 53.6376 82.5672 53.4412 82.9597C53.2775 83.3521 53.0484 83.7119 52.852 84.1043C52.7429 84.2788 52.6228 84.4641 52.4919 84.6603L52.3282 84.922L52.1318 85.1836C51.1825 86.6226 49.9059 87.8981 48.4656 88.8792C47.7455 89.3698 46.9599 89.795 46.1742 90.1547C45.3559 90.5145 44.5375 90.7761 43.6537 90.9396C42.8026 91.1359 41.9187 91.2013 41.0349 91.1686C40.1511 91.1358 39.2673 90.9723 38.4162 90.7107L37.4015 90.4164L38.3835 89.9912C39.3655 89.566 40.2493 88.9446 40.9695 88.1924C41.7224 87.4402 42.3116 86.5245 42.8026 85.5761C43.7846 83.6138 44.2756 81.4553 44.5702 79.2968C44.7012 78.1848 44.8321 77.1055 44.8649 75.9936C44.9304 74.9143 44.9631 73.8024 44.9303 72.6904C44.8976 70.4665 44.7666 68.2753 44.5702 66.0513C44.1774 61.6362 43.5882 57.2211 43.3591 52.7732C43.2609 50.5493 43.2936 48.2927 43.49 46.0688C43.6864 43.8449 44.112 41.6536 44.7667 39.5278C44.4721 40.6071 44.2429 41.6863 44.0792 42.7983C43.981 43.3216 43.9483 43.8776 43.8501 44.4335L43.7846 45.2512C43.7628 45.5346 43.741 45.818 43.7192 46.1015L43.6864 46.9191L43.6537 47.7694C43.6537 48.3254 43.6537 48.8487 43.6537 49.4047C43.6755 50.5166 43.7192 51.6286 43.7846 52.7405C44.0792 57.1557 44.7666 61.5708 45.2249 65.9859C45.454 68.2099 45.6178 70.4338 45.6832 72.6904C45.716 74.9143 45.6177 77.1709 45.3231 79.3949C45.0285 81.6188 44.5375 83.8427 43.5228 85.9031C42.999 86.9497 42.3443 87.8981 41.5259 88.7484C40.9695 89.3044 40.3148 89.8277 39.6274 90.2201C40.1075 90.3073 40.5876 90.3727 41.0677 90.4164C41.8751 90.4382 42.6935 90.3727 43.5228 90.2201C44.3084 90.0566 45.1267 89.795 45.8796 89.5006C46.6325 89.1409 47.3853 88.7811 48.0728 88.2905C49.4476 87.3748 50.6588 86.1974 51.6081 84.8238L51.8045 84.5622L51.9682 84.3006C52.0773 84.1261 52.1973 83.9517 52.3282 83.7773C52.5246 83.4175 52.7538 83.0578 52.9174 82.6653C53.1138 82.3056 53.2775 81.9131 53.4739 81.5534C53.6048 81.1609 53.8013 80.7685 53.9322 80.376C54.5214 78.7735 54.8815 77.1382 55.1761 75.4703C55.2852 74.62 55.3834 73.7806 55.4707 72.952C55.5362 72.1017 55.5798 71.2514 55.6016 70.4011C55.7325 66.9998 55.5689 63.5658 55.6671 60.1645C55.7326 63.5658 55.9617 66.9671 55.9617 70.4011C55.929 73.8024 55.5689 77.2691 54.4559 80.5395C54.325 80.9647 54.1286 81.3571 53.9977 81.7496V81.7496Z" fill="#623838"/>
<path d="M50.7242 102.909C48.3019 100.914 46.5343 98.2 45.5195 95.2893C45.825 96.0088 46.1633 96.7065 46.5342 97.3824C46.9052 98.0583 47.3199 98.7124 47.7782 99.3447C47.9746 99.639 48.2365 99.9333 48.4656 100.228C48.7275 100.522 48.9893 100.816 49.2512 101.078C49.5131 101.34 49.8077 101.634 50.0695 101.896L50.5278 102.255L50.7242 102.452L50.9533 102.615C53.3757 104.479 56.3218 105.722 59.3333 105.886C59.5297 105.886 59.7261 105.918 59.9225 105.918L60.479 105.886H60.7736C60.8609 105.886 60.9482 105.886 61.0355 105.886L61.6247 105.82C61.7884 105.82 61.9848 105.755 62.1812 105.722L62.7049 105.624C62.9013 105.58 63.0868 105.537 63.2614 105.493C63.4578 105.428 63.6215 105.395 63.8179 105.33C65.2254 104.839 66.5675 104.087 67.7132 103.138L67.9424 102.975L68.1715 102.779L68.5643 102.386C68.728 102.288 68.8262 102.125 68.9571 101.994L69.3499 101.569L69.6772 101.143C69.8082 100.98 69.9064 100.849 70.0046 100.686L70.3319 100.195C70.3647 100.13 70.4302 100.064 70.4629 99.9661L70.5938 99.7371C70.6811 99.6063 70.7575 99.4755 70.8229 99.3447C70.692 99.4537 70.5611 99.5627 70.4301 99.6717C69.1862 100.718 67.6805 101.34 66.1093 101.536C65.3236 101.601 64.5053 101.569 63.7197 101.405C62.9668 101.242 62.2139 100.98 61.5265 100.587C60.8391 100.228 60.1844 99.7698 59.5952 99.2465C59.0278 98.7233 58.504 98.1564 58.0239 97.5459C57.5657 96.9136 57.151 96.2595 56.78 95.5836C56.4309 94.8859 56.1363 94.1773 55.8962 93.4578C55.438 91.9861 55.1433 90.4817 55.0451 88.9446C54.9142 87.4401 54.9142 85.903 54.9797 84.3986C55.0124 82.8942 55.1106 81.3898 55.2088 79.8527L55.1761 82.142C55.1761 82.8833 55.1761 83.6355 55.1761 84.3986C55.1761 85.903 55.2415 87.4074 55.4052 88.9119C55.6016 90.4163 55.8962 91.888 56.3872 93.2943C56.6491 93.992 56.9546 94.6679 57.3038 95.322C57.653 95.9543 58.0567 96.5648 58.515 97.1534C58.9732 97.7421 59.4751 98.2763 60.0207 98.756C60.5881 99.2356 61.1882 99.639 61.8211 99.9661C62.4757 100.326 63.1632 100.555 63.8833 100.718C64.5707 100.849 65.2909 100.882 66.011 100.784C67.4513 100.62 68.8262 100.031 69.9064 99.1157C70.1901 98.8759 70.441 98.6143 70.6593 98.3308C70.8993 98.0692 71.1067 97.7857 71.2813 97.4805C71.6086 96.8591 71.805 96.1723 71.8705 95.4855C71.8705 95.4855 71.9687 95.093 72.2633 95.093C72.5252 95.093 72.6561 95.5182 72.6561 95.5182C72.6561 95.5182 72.6561 95.5291 72.6561 95.5509C72.5579 97.1534 72.0669 98.7233 71.2813 100.097L71.1503 100.359C71.0848 100.457 71.0193 100.522 70.9866 100.62L70.6593 101.111C70.5611 101.274 70.3974 101.438 70.2992 101.601L69.9064 102.059L69.5136 102.517C69.3826 102.648 69.2518 102.811 69.0881 102.942L68.6625 103.335L68.4334 103.531L68.2042 103.727C66.9603 104.708 65.5528 105.493 64.0143 105.984C62.5085 106.474 60.8718 106.638 59.3005 106.507C57.7293 106.376 56.1581 105.984 54.7178 105.362C53.2775 104.741 51.9354 103.923 50.7242 102.909V102.909Z" fill="#623838"/>
<path d="M30.1018 92.7714C30.331 90.0569 30.7893 87.3751 31.4112 84.726C32.0332 82.1096 32.786 79.4933 33.6044 76.9096C34.019 75.6232 34.4337 74.3477 34.8483 73.0831L35.503 71.1536L36.1249 69.224L35.6012 71.1863L35.0447 73.1159C34.6737 74.424 34.3136 75.7322 33.9645 77.0404C33.6044 78.3159 33.2443 79.6241 32.9497 80.9323C32.7751 81.5864 32.6114 82.2405 32.4587 82.8946C32.3277 83.5487 32.1641 84.2027 32.0331 84.8568C31.4766 87.5059 31.0511 90.155 30.8547 92.8368C30.6583 95.4859 30.7565 98.1677 31.2475 100.784C31.7713 103.4 32.6878 105.919 34.2591 108.044C35.7976 110.203 37.9581 111.871 40.4459 112.721C42.9336 113.604 45.716 113.768 48.2693 113.081C49.5459 112.721 50.7898 112.165 51.9355 111.446C52.4811 111.075 53.0158 110.672 53.5395 110.236C54.0414 109.8 54.5106 109.32 54.947 108.797C54.5324 109.342 54.0851 109.854 53.605 110.334C53.1249 110.792 52.6011 111.217 52.0337 111.609C50.9207 112.394 49.7096 113.048 48.3675 113.441C47.0581 113.833 45.6832 114.029 44.3084 113.997C42.9336 113.964 41.5588 113.735 40.2494 113.31C39.5947 113.114 38.9728 112.819 38.3508 112.525C37.7289 112.198 37.1397 111.838 36.5832 111.413C36.0158 111.021 35.4921 110.574 35.012 110.072C34.51 109.592 34.0518 109.069 33.6371 108.502C32.0004 106.278 31.0184 103.629 30.4946 100.948C29.9709 98.2331 29.9054 95.4859 30.1018 92.7714V92.7714Z" fill="#623838"/>
<path d="M98.1234 33.2486C96.5522 28.4737 90.7255 26.0863 85.8154 27.1001C80.9053 28.114 76.9444 31.8096 74.0966 35.9304C71.9361 39.07 70.2667 42.5367 68.1717 45.7418C66.1095 48.9469 63.3271 51.7268 59.9882 53.5909C54.6525 56.5998 41.1661 54.3758 41.1661 54.3758C41.1661 54.3758 39.0383 43.0927 42.3445 24.8762C46.7636 0.576607 74.7513 -0.927812 87.5503 3.3238C97.3051 6.56156 100.579 11.271 100.579 11.271C121.856 13.6912 117.273 53.7544 117.273 53.7544C114.163 55.7494 110.399 55.2262 108.5 52.6098C108.173 52.1519 107.223 50.9745 105.849 49.3066L98.1234 33.2486Z" fill="#824A4A"/>
<path d="M89.416 26.7073C91.7073 27.0017 93.9005 27.9501 95.5372 29.4872C93.7696 28.1136 91.5765 27.3287 89.3833 27.1652C88.8268 27.1325 88.2703 27.1325 87.7138 27.1652C87.4519 27.1979 87.1573 27.1979 86.8954 27.2306L86.5026 27.296L86.0771 27.3941C85.0296 27.6231 83.9821 27.9828 82.9673 28.4407C81.9853 28.9313 81.036 29.5199 80.1522 30.174C79.2684 30.8281 78.4501 31.5476 77.6644 32.3325C76.1259 33.9024 74.7838 35.7011 73.6054 37.598C72.3942 39.4622 71.314 41.4572 70.1683 43.3867C69.5791 44.3679 68.9899 45.3163 68.3679 46.2647C67.7132 47.2241 67.004 48.1289 66.2402 48.9792C65.4546 49.8296 64.6363 50.6145 63.7524 51.334C62.8577 52.0753 61.9193 52.7294 60.9373 53.2963C60.7081 53.4598 60.4463 53.5906 60.2171 53.7214C59.9553 53.8522 59.6934 53.9722 59.4316 54.0812C58.886 54.2992 58.3404 54.4736 57.7948 54.6044C56.6819 54.8334 55.5362 54.9642 54.4232 55.0296C54.9688 54.9424 55.5252 54.8443 56.0926 54.7353C56.6382 54.6262 57.1729 54.4954 57.6966 54.3428C58.2531 54.1793 58.7769 53.9831 59.2679 53.7541C59.5079 53.6233 59.748 53.4925 59.988 53.3617C60.2172 53.1981 60.479 53.0673 60.7082 52.9038C62.574 51.661 64.2107 50.1566 65.651 48.456C66.3712 47.6056 67.0258 46.7226 67.6478 45.8069C68.237 44.8584 68.8262 43.91 69.3827 42.9289C70.4957 40.9666 71.5759 39.0043 72.7543 37.0747C73.9655 35.1451 75.3731 33.281 77.0098 31.6784C78.6465 30.0759 80.5451 28.6696 82.6728 27.7539C83.7203 27.296 84.8332 26.9363 85.9789 26.74C87.1246 26.5438 88.2703 26.5438 89.416 26.7073V26.7073Z" fill="#623838"/>
<path d="M117.567 49.928C117.698 46.0688 117.633 42.2097 117.273 38.3832C117.12 36.4645 116.88 34.5568 116.552 32.6599C116.225 30.763 115.8 28.8989 115.276 27.0347C114.752 25.2032 114.097 23.4045 113.279 21.6711C112.461 19.9705 111.446 18.3352 110.202 16.8962C108.991 15.4572 107.518 14.2472 105.881 13.3641C104.244 12.4484 102.411 11.9251 100.545 11.7289L100.349 11.6962L100.218 11.5327C100.087 11.4018 99.9562 11.2056 99.7926 11.0421L99.5962 10.7805L99.3343 10.5515C99.0288 10.2245 98.7015 9.91923 98.3523 9.63579C97.6758 9.04711 96.9556 8.50203 96.1918 8.00056C94.686 6.95401 93.0821 6.10368 91.4127 5.35147C89.7432 4.59927 88.0083 3.94518 86.2734 3.45461C84.5058 2.93133 82.7054 2.60428 80.905 2.37535C77.2715 1.88478 73.5726 1.85207 69.9391 2.24453C69.4808 2.27723 69.0225 2.30994 68.5643 2.37535L67.2221 2.60428C66.3056 2.76781 65.4218 2.93133 64.5379 3.12756C63.6214 3.32379 62.7703 3.61813 61.8865 3.84706L60.5772 4.30493L60.2498 4.40304L59.9225 4.53386L59.3005 4.7955C57.5983 5.44959 55.9616 6.26721 54.4231 7.24835C54.2267 7.37917 54.0303 7.47728 53.8339 7.6081L53.2774 8.00056L52.721 8.39301L52.4263 8.58924L52.1644 8.81817L51.117 9.6685C50.7569 9.96284 50.4296 10.2899 50.1022 10.5842C49.7422 10.8786 49.4475 11.2383 49.1529 11.5654C48.8256 11.8924 48.4982 12.2195 48.2363 12.5792L47.3853 13.6585C47.1234 14.0182 46.8615 14.4107 46.5996 14.7704C46.4687 14.9667 46.3378 15.1629 46.2396 15.3591L45.8795 15.9478L45.5522 16.5365C45.4212 16.7327 45.323 16.9289 45.2248 17.1579L44.6356 18.3679L44.4719 18.695C44.4392 18.7931 44.4065 18.8912 44.341 19.022L44.1119 19.6434L43.85 20.2975C43.7845 20.4938 43.6863 20.7227 43.6209 20.9189L43.2281 22.2598C43.0644 22.685 42.9989 23.1428 42.9007 23.568L42.5734 24.9089C42.2242 26.7404 41.9187 28.5609 41.6568 30.3706C41.1113 34.0335 40.7402 37.7182 40.5438 41.4248C40.5766 39.5606 40.6421 37.7291 40.773 35.865C40.904 34.0117 41.0785 32.1693 41.2967 30.3379C41.5368 28.5064 41.8096 26.6749 42.1151 24.8435C42.4752 23.012 42.868 21.1806 43.5554 19.4472L43.7845 18.7931C43.85 18.6623 43.8827 18.5642 43.9155 18.4661L44.0791 18.139L44.6356 16.8635C44.7338 16.6346 44.8647 16.4384 44.9629 16.2421L45.323 15.6208L45.6504 14.9994C45.7813 14.8031 45.9122 14.6069 46.0432 14.4107C46.305 14.0182 46.5342 13.6258 46.7961 13.2333L47.6799 12.1214C47.9417 11.7616 48.2691 11.4018 48.5964 11.0748C48.9238 10.715 49.2184 10.3553 49.5785 10.0282C49.9058 9.73391 50.2332 9.40686 50.5933 9.07981L51.6734 8.16408L51.9353 7.93515L52.23 7.73892L52.7864 7.34646L53.3757 6.9213C53.5721 6.79048 53.7684 6.65966 53.9648 6.52885C55.536 5.515 57.2382 4.66468 58.9731 3.97788L59.6278 3.71624L59.9552 3.55272L60.2825 3.45461L61.5919 2.99674C62.5084 2.7351 63.3923 2.44076 64.3088 2.24453C65.2254 2.0156 66.1419 1.85208 67.0585 1.65585L68.4333 1.45962C68.8916 1.3615 69.3826 1.3288 69.8409 1.29609C73.5398 0.870933 77.3043 0.903639 81.036 1.39421C82.9018 1.62314 84.7349 1.98289 86.5352 2.50617C88.3356 3.02944 90.1033 3.71624 91.8055 4.46845C93.5076 5.25336 95.1771 6.13639 96.7156 7.21565C97.5012 7.73892 98.2541 8.3167 98.9742 8.94899C99.3234 9.25424 99.6617 9.58128 99.989 9.93013L100.251 10.1918L100.48 10.4534C100.611 10.5842 100.709 10.715 100.84 10.8786C102.739 11.1075 104.604 11.6962 106.274 12.6119C108.042 13.5604 109.547 14.9012 110.791 16.4057C112.068 17.9101 113.083 19.6107 113.901 21.4095C114.719 23.1755 115.341 25.007 115.832 26.9039C116.356 28.768 116.749 30.6649 117.044 32.5945C117.305 34.5132 117.502 36.4318 117.633 38.3505C117.862 42.2097 117.829 46.0688 117.567 49.928V49.928Z" fill="#623838"/>
<path d="M151.97 159.016C152.677 159.645 155.204 160.334 155.34 161.424C155.457 162.357 156.572 163.902 157.213 164.607C158.071 165.551 158.468 167.062 158.898 168.352C159.387 169.82 159.192 171.44 159.192 172.98C159.192 175.645 160.155 178.184 160.155 180.871C160.155 181.498 160.811 184.245 159.914 184.295C158.773 184.358 157.674 185.614 156.785 185.258" stroke="#E6D05E" stroke-width="3" stroke-linecap="round"/>
<path d="M22.1568 155.603C21.5859 155.666 21.5177 156.354 21.043 156.605C20.5105 156.887 20.298 157.031 19.8457 157.357C19.0723 157.914 18.2043 158.056 17.3955 158.415C16.5415 158.795 15.7852 158.702 15.1958 159.612C14.7003 160.378 13.9165 160.512 13.5112 161.241C13.0952 161.99 13.177 162.93 12.8847 163.733C12.5163 164.747 12.1329 165.37 12.1329 166.49C12.1329 168.294 10.1927 169.268 10.1281 170.945C10.0945 171.819 9.62695 172.502 9.62695 173.395C9.62695 174.428 9.7325 174.999 10.1838 175.901C10.7957 177.125 10.6839 179.172 10.8939 180.537C11.015 181.325 11.1305 181.979 11.1305 182.793C11.1305 183.719 11.5191 183.815 11.9937 184.561C12.1005 184.729 12.6341 186.09 12.6341 186.301C12.6341 187.017 12.8847 188.116 12.8847 186.677" stroke="#E6D05E" stroke-width="3" stroke-linecap="round"/>
<path d="M17.6822 156.87C17.6822 156.403 18.6577 154.213 18.5317 155.808C18.4402 156.968 16.8968 158.269 16.172 159.123C15.0635 160.43 14.3916 162.01 13.2224 163.241C12.0933 164.43 12.1597 166.851 10.0369 166.851" stroke="#E6D05E" stroke-width="3" stroke-linecap="round"/>
<path d="M54 228L62.5 229.302H71.3589" stroke="black" stroke-opacity="0.5" stroke-linecap="round"/>
<path d="M87 230L98.5 231.5L115 230" stroke="black" stroke-opacity="0.5" stroke-linecap="round"/>
</svg>
