<svg version="1.2" xmlns="http://www.w3.org/2000/svg" viewBox="0 0 1388 1360" width="1388" height="1360">
	<title>3350-ai</title>
	<defs>
		<clipPath clipPathUnits="userSpaceOnUse" id="cp1">
			<path d="m608.69 721.9c2.74-7.1 5.19-13.7 14.97-13.86 7.73-0.13 18.34 2.98 24.42 8.24 1.33 1.51 7.52 11.3 5.59 13.06-0.78 0.71-4.15 1.8-4.89 1.98-4.41 1.08-9.47 1.18-14.02 1.28-8.54 0.2-22.44-1.67-26.07-10.7z"/>
		</clipPath>
		<clipPath clipPathUnits="userSpaceOnUse" id="cp2">
			<path d="m735.85 732.6c-4.55-0.1-9.61-0.2-14.02-1.28-0.74-0.18-4.12-1.27-4.89-1.98-1.93-1.76 4.26-11.55 5.58-13.06 6.08-5.26 16.7-8.37 24.43-8.24 9.78 0.16 12.23 6.76 14.97 13.86-3.64 9.03-17.53 10.9-26.07 10.7z"/>
		</clipPath>
		<clipPath clipPathUnits="userSpaceOnUse" id="cp3">
			<path d="m1094.18 707.17c3.9-6.54 7.42-12.63 17.09-11.14 7.65 1.17 17.58 6.03 22.69 12.24 1.05 1.71 5.5 12.41 3.3 13.82-0.88 0.56-4.39 1.07-5.16 1.12-4.53 0.33-9.52-0.44-14.03-1.1-8.45-1.25-21.83-5.43-23.89-14.94z"/>
		</clipPath>
		<clipPath clipPathUnits="userSpaceOnUse" id="cp4">
			<path d="m1222.55 722.72c-4.54 0.37-9.57 0.81-14.08 0.19-0.76-0.1-4.22-0.84-5.07-1.46-2.1-1.56 3.04-11.94 4.2-13.57 5.5-5.87 15.74-10.06 23.45-10.74 9.74-0.85 12.86 5.46 16.32 12.24-2.68 9.35-16.31 12.66-24.82 13.34z"/>
		</clipPath>
		<clipPath clipPathUnits="userSpaceOnUse" id="cp5">
			<path d="m127.9 233.4c4.28-7.31 8.14-14.12 18.74-12.46 8.37 1.31 19.27 6.74 24.86 13.7 1.16 1.91 6.03 13.86 3.62 15.45-0.97 0.63-4.81 1.2-5.65 1.26-4.97 0.35-10.44-0.5-15.39-1.24-9.26-1.4-23.92-6.07-26.18-16.71z"/>
		</clipPath>
		<clipPath clipPathUnits="userSpaceOnUse" id="cp6">
			<path d="m258.21 250.8c-4.98 0.41-10.5 0.9-15.44 0.21-0.83-0.12-4.63-0.94-5.55-1.64-2.31-1.73 3.33-13.34 4.6-15.17 6.03-6.56 17.25-11.25 25.7-12 10.68-0.96 14.09 6.1 17.9 13.68-2.95 10.46-17.88 14.15-27.21 14.92z"/>
		</clipPath>
		<clipPath clipPathUnits="userSpaceOnUse" id="cp7">
			<path d="m131.6 1189.6c2.75-7.11 5.19-13.71 14.97-13.87 7.73-0.13 18.35 2.98 24.42 8.24 1.33 1.51 7.52 11.3 5.59 13.07-0.78 0.7-4.14 1.79-4.89 1.97-4.41 1.08-9.47 1.17-14.02 1.28-8.54 0.2-22.43-1.68-26.07-10.69z"/>
		</clipPath>
		<clipPath clipPathUnits="userSpaceOnUse" id="cp8">
			<path d="m258.76 1200.29c-4.55-0.11-9.61-0.2-14.02-1.28-0.74-0.18-4.11-1.27-4.89-1.97-1.93-1.77 4.26-11.56 5.59-13.07 6.07-5.26 16.69-8.37 24.42-8.24 9.78 0.16 12.23 6.76 14.97 13.87-3.63 9.01-17.53 10.89-26.07 10.69z"/>
		</clipPath>
		<clipPath clipPathUnits="userSpaceOnUse" id="cp9">
			<path d="m129.3 716.31c2.74-7.1 5.18-13.7 14.97-13.86 7.73-0.13 18.34 2.98 24.42 8.24 1.33 1.51 7.52 11.3 5.59 13.06-0.78 0.71-4.15 1.8-4.9 1.98-4.41 1.08-9.46 1.17-14.02 1.28-8.53 0.2-22.43-1.67-26.06-10.7z"/>
		</clipPath>
		<clipPath clipPathUnits="userSpaceOnUse" id="cp10">
			<path d="m256.46 727.01c-4.56-0.11-9.61-0.2-14.02-1.28-0.75-0.18-4.12-1.27-4.89-1.98-1.93-1.76 4.25-11.55 5.58-13.06 6.08-5.26 16.69-8.37 24.43-8.24 9.78 0.16 12.22 6.76 14.97 13.86-3.64 9.03-17.54 10.9-26.07 10.7z"/>
		</clipPath>
		<clipPath clipPathUnits="userSpaceOnUse" id="cp11">
			<path d="m717.57 1196.21c-7.36-2.46-7.42-6.83-6.22-8.92 3.78-8.56 12.76-14.31 27.36-12.39 14.71 1.95 19.01 10.35 21.55 19.22-3.08 5.27-21.21 7.02-31.29 4.88-2.86-0.61-7.96-1.71-11.4-2.79z"/>
		</clipPath>
		<clipPath clipPathUnits="userSpaceOnUse" id="cp12">
			<path d="m638.28 1202.1c-10.28 0.78-28.01-3.39-30.36-9.02 3.71-8.45 9.09-16.2 23.93-16.16 14.72 0.04 22.86 6.95 25.45 15.93 0.92 2.24 0.28 6.56-7.35 8.01-3.56 0.61-8.75 1.02-11.67 1.24z"/>
		</clipPath>
		<clipPath clipPathUnits="userSpaceOnUse" id="cp13">
			<path d="m608.09 246.4c3.91-6.54 7.42-12.63 17.1-11.15 7.64 1.18 17.58 6.04 22.68 12.25 1.05 1.71 5.5 12.41 3.3 13.82-0.88 0.56-4.39 1.07-5.16 1.13-4.53 0.32-9.52-0.45-14.03-1.11-8.45-1.24-21.83-5.44-23.89-14.94z"/>
		</clipPath>
		<clipPath clipPathUnits="userSpaceOnUse" id="cp14">
			<path d="m736.46 261.96c-4.54 0.36-9.57 0.8-14.07 0.18-0.76-0.1-4.23-0.84-5.07-1.46-2.1-1.55 3.03-11.93 4.2-13.57 5.49-5.86 15.73-10.06 23.43-10.73 9.75-0.86 12.86 5.45 16.34 12.24-2.69 9.35-16.32 12.65-24.83 13.34z"/>
		</clipPath>
		<clipPath clipPathUnits="userSpaceOnUse" id="cp15">
			<path d="m1099.29 248.92c2.75-7.11 5.19-13.7 14.97-13.86 7.73-0.13 18.35 2.98 24.42 8.25 1.33 1.5 7.51 11.3 5.58 13.06-0.77 0.71-4.14 1.8-4.89 1.98-4.41 1.08-9.47 1.17-14.02 1.27-8.53 0.2-22.43-1.68-26.06-10.7z"/>
		</clipPath>
		<clipPath clipPathUnits="userSpaceOnUse" id="cp16">
			<path d="m1220 257.06c-4.61-0.08-9.73-0.16-14.2-1.02-0.75-0.14-4.16-1.01-4.94-1.58-1.96-1.4 4.3-9.21 5.65-10.4 6.15-4.19 16.9-6.67 24.73-6.56 9.9 0.13 12.38 5.39 15.15 11.05-3.68 7.19-17.75 8.68-26.39 8.51z"/>
		</clipPath>
	</defs>
	<style>
		.s0 { mix-blend-mode: multiply;fill: #fad6be } 
		.s1 { fill: #9e4c0b } 
		.s2 { mix-blend-mode: multiply;fill: #8c0c00 } 
		.s3 { fill: #ff7858 } 
		.s4 { fill: #ffffff } 
		.s5 { opacity: .6;mix-blend-mode: multiply;fill: #b8a997 } 
		.s6 { mix-blend-mode: screen;fill: #ef7874 } 
		.s7 { fill: #faede6 } 
		.s8 { mix-blend-mode: multiply;fill: #fbd0b4 } 
		.s9 { mix-blend-mode: multiply;fill: #efc2a7 } 
		.s10 { fill: #a04c0b } 
		.s11 { fill: #8c0c00 } 
		.s12 { fill: #fcece3 } 
	</style>
	<g id="Layer 1">
		<g id="&lt;Group&gt;">
			<g id="&lt;Group&gt;">
				<g id="&lt;Group&gt;">
				</g>
				<g id="&lt;Group&gt;">
				</g>
				<g id="&lt;Group&gt;">
				</g>
			</g>
			<g id="&lt;Group&gt;">
				<g id="&lt;Group&gt;">
				</g>
				<g id="&lt;Group&gt;">
					<g id="&lt;Group&gt;">
						<g id="&lt;Group&gt;">
						</g>
						<g id="&lt;Clip Group&gt;" clip-path="url(#cp1)">
							<g id="&lt;Group&gt;">
								<g id="&lt;Group&gt;">
								</g>
							</g>
						</g>
					</g>
					<g id="&lt;Group&gt;">
						<g id="&lt;Group&gt;">
							<g id="&lt;Group&gt;">
							</g>
							<g id="&lt;Clip Group&gt;" clip-path="url(#cp2)">
								<g id="&lt;Group&gt;">
									<g id="&lt;Group&gt;">
									</g>
								</g>
							</g>
						</g>
					</g>
				</g>
				<g id="&lt;Group&gt;">
					<g id="&lt;Group&gt;">
						<g id="&lt;Group&gt;">
							<g id="&lt;Group&gt;">
							</g>
						</g>
						<g id="&lt;Group&gt;" style="mix-blend-mode: multiply">
							<g id="&lt;Group&gt;">
							</g>
						</g>
					</g>
					<g id="&lt;Group&gt;">
						<g id="&lt;Group&gt;">
							<g id="&lt;Group&gt;">
							</g>
						</g>
						<g id="&lt;Group&gt;" style="mix-blend-mode: multiply">
							<g id="&lt;Group&gt;">
							</g>
						</g>
					</g>
				</g>
				<g id="&lt;Group&gt;">
					<g id="&lt;Group&gt;">
					</g>
				</g>
			</g>
		</g>
		<g id="&lt;Group&gt;">
			<g id="&lt;Group&gt;">
				<g id="&lt;Group&gt;">
				</g>
				<g id="&lt;Group&gt;">
				</g>
				<g id="&lt;Group&gt;">
				</g>
			</g>
			<g id="&lt;Group&gt;">
				<g id="&lt;Group&gt;">
				</g>
				<g id="&lt;Group&gt;">
					<g id="&lt;Group&gt;">
						<g id="&lt;Group&gt;">
							<g id="&lt;Group&gt;">
							</g>
						</g>
						<g id="&lt;Group&gt;" style="mix-blend-mode: multiply">
							<g id="&lt;Group&gt;">
							</g>
						</g>
					</g>
				</g>
				<g id="&lt;Group&gt;">
				</g>
				<g id="&lt;Group&gt;">
					<g id="&lt;Group&gt;">
					</g>
					<g id="&lt;Clip Group&gt;" clip-path="url(#cp3)">
						<g id="&lt;Group&gt;">
							<g id="&lt;Group&gt;">
							</g>
						</g>
					</g>
				</g>
				<g id="&lt;Group&gt;">
					<g id="&lt;Group&gt;">
						<g id="&lt;Group&gt;">
							<g id="&lt;Group&gt;">
							</g>
						</g>
						<g id="&lt;Group&gt;" style="mix-blend-mode: multiply">
							<g id="&lt;Group&gt;">
							</g>
						</g>
					</g>
				</g>
				<g id="&lt;Group&gt;">
					<g id="&lt;Group&gt;">
						<g id="&lt;Group&gt;">
						</g>
						<g id="&lt;Clip Group&gt;" clip-path="url(#cp4)">
							<g id="&lt;Group&gt;">
								<g id="&lt;Group&gt;">
								</g>
							</g>
						</g>
					</g>
				</g>
				<g id="&lt;Group&gt;">
				</g>
				<g id="&lt;Group&gt;">
					<g id="&lt;Group&gt;">
					</g>
				</g>
			</g>
		</g>
		<g id="&lt;Group&gt;">
			<g id="&lt;Group&gt;">
				<g id="&lt;Group&gt;">
				</g>
				<g id="&lt;Group&gt;">
				</g>
				<g id="&lt;Group&gt;">
				</g>
			</g>
			<g id="&lt;Group&gt;">
				<g id="&lt;Group&gt;">
					<g id="&lt;Group&gt;">
						<g id="&lt;Group&gt;">
							<g id="&lt;Group&gt;">
								<g id="&lt;Group&gt;">
								</g>
							</g>
							<g id="&lt;Group&gt;" style="mix-blend-mode: multiply">
								<g id="&lt;Group&gt;">
								</g>
							</g>
						</g>
					</g>
					<g id="&lt;Group&gt;">
					</g>
					<g id="&lt;Group&gt;">
						<g id="&lt;Group&gt;">
						</g>
						<g id="&lt;Clip Group&gt;" clip-path="url(#cp5)">
							<g id="&lt;Group&gt;">
								<g id="&lt;Group&gt;">
								</g>
							</g>
						</g>
					</g>
					<g id="&lt;Group&gt;">
						<g id="&lt;Group&gt;">
							<g id="&lt;Group&gt;">
								<g id="&lt;Group&gt;">
								</g>
							</g>
							<g id="&lt;Group&gt;" style="mix-blend-mode: multiply">
								<g id="&lt;Group&gt;">
								</g>
							</g>
						</g>
					</g>
					<g id="&lt;Group&gt;">
						<g id="&lt;Group&gt;">
							<g id="&lt;Group&gt;">
							</g>
							<g id="&lt;Clip Group&gt;" clip-path="url(#cp6)">
								<g id="&lt;Group&gt;">
									<g id="&lt;Group&gt;">
									</g>
								</g>
							</g>
						</g>
					</g>
				</g>
				<g id="&lt;Group&gt;">
					<g id="&lt;Group&gt;">
						<g id="&lt;Group&gt;">
							<g id="&lt;Group&gt;">
							</g>
						</g>
					</g>
				</g>
			</g>
		</g>
		<g id="&lt;Group&gt;">
			<g id="&lt;Group&gt;">
				<g id="&lt;Group&gt;">
				</g>
				<g id="&lt;Group&gt;">
				</g>
				<g id="&lt;Group&gt;">
				</g>
			</g>
			<g id="&lt;Group&gt;">
				<g id="&lt;Group&gt;">
					<g id="&lt;Group&gt;">
					</g>
					<g id="&lt;Group&gt;">
						<g id="&lt;Group&gt;">
							<g id="&lt;Group&gt;">
							</g>
							<g id="&lt;Clip Group&gt;" clip-path="url(#cp7)">
								<g id="&lt;Group&gt;">
									<g id="&lt;Group&gt;">
									</g>
								</g>
							</g>
						</g>
						<g id="&lt;Group&gt;">
							<g id="&lt;Group&gt;">
								<g id="&lt;Group&gt;">
								</g>
								<g id="&lt;Clip Group&gt;" clip-path="url(#cp8)">
									<g id="&lt;Group&gt;">
										<g id="&lt;Group&gt;">
										</g>
									</g>
								</g>
							</g>
						</g>
					</g>
					<g id="&lt;Group&gt;">
						<g id="&lt;Group&gt;">
							<g id="&lt;Group&gt;">
								<g id="&lt;Group&gt;">
									<g id="&lt;Group&gt;">
									</g>
								</g>
								<g id="&lt;Group&gt;" style="mix-blend-mode: multiply">
									<g id="&lt;Group&gt;">
									</g>
								</g>
							</g>
						</g>
						<g id="&lt;Group&gt;">
							<g id="&lt;Group&gt;">
								<g id="&lt;Group&gt;">
									<g id="&lt;Group&gt;">
									</g>
								</g>
								<g id="&lt;Group&gt;" style="mix-blend-mode: multiply">
									<g id="&lt;Group&gt;">
									</g>
								</g>
							</g>
						</g>
					</g>
				</g>
				<g id="&lt;Group&gt;">
					<g id="&lt;Group&gt;">
					</g>
				</g>
			</g>
		</g>
		<g id="&lt;Group&gt;">
			<g id="&lt;Group&gt;">
				<g id="&lt;Group&gt;">
				</g>
				<g id="&lt;Group&gt;">
				</g>
				<g id="&lt;Group&gt;">
				</g>
			</g>
			<g id="&lt;Group&gt;">
				<g id="&lt;Group&gt;">
					<g id="&lt;Group&gt;">
						<g id="&lt;Group&gt;">
							<g id="&lt;Group&gt;">
							</g>
						</g>
						<g id="&lt;Group&gt;">
							<g id="&lt;Group&gt;">
							</g>
						</g>
					</g>
					<g id="&lt;Group&gt;">
						<g id="&lt;Group&gt;">
							<g id="&lt;Group&gt;">
							</g>
						</g>
						<g id="&lt;Group&gt;">
							<g id="&lt;Group&gt;">
							</g>
						</g>
					</g>
					<g id="&lt;Group&gt;">
						<g id="&lt;Group&gt;">
							<path id="&lt;Path&gt;" class="s0" d="m1233.5 1252.7c-0.4 0.2-1 0.3-1.4 0-6.4-4.7-7.9 5.7-8.9 8.1-1.7 4.1-3.6 8.1-5.8 12-3.3 6-5.6 12.9-11.5 17.2-10.1 7.4-23.2 12.4-36.1 11.6-14.8-0.9-27.8-7.8-36.6-19.4-4.3-5.6-7-11.7-10.2-18-0.7-1.4-1.5-2.7-2.3-3.9-0.3-1-0.7-2-1.1-2.9-2.2-5.1-6.3-8.3-9.8-12.1 5.5 1.2 11.4 1.8 16.9 2.6 8.7 1.3 17.5 1.4 26.2 0.8 12.6-0.8 26.2-0.6 39-2.6 3.7-0.2 7.3-0.5 10.9-0.9 5.3-0.7 10.5-2.3 15.8-2.7-0.3-0.3-0.5-0.5-0.9-0.7-0.9-0.7 0.9-2 1.6-1.9 4 0.3 9.1 2.3 12.2 5.5 1.4 2.2 1.9 4.7 2 7.3z"/>
							<g id="&lt;Group&gt;">
								<path id="&lt;Path&gt;" class="s1" d="m1231.2 1249.4c-1.7-0.2-3.1-1.2-4.4-2.4-8.4 21.9-20.4 54-55.9 52.3-9.3-0.4-17.9-2.8-24.8-7.1q0 0 0 0-0.2-0.1-0.3-0.2c-4-2.6-7.4-5.8-10.1-9.7-1.6-2.3-3-4.6-4.3-7-1.2-2-2.3-4-3.5-5.9q-1.3-2.3-2.7-4.5-1.7-4.2-3.3-8.4c-0.9-2.3-2-4.1-3.7-6q-1.2-0.8-2.4-1.6c-1.5-1-2.3-2.1-2.8-3.2 7 5.4 31.6 4.5 37.3 4.7 15.1 0.5 30.4 0.1 45.4-1.4q0.1 0 0.1 0c0.6-0.1 2.5-0.2 5.1-0.5q4.2-0.5 8.3-1.2c5-0.8 10-1.8 14.9-2.8-0.3-0.3-0.6-0.6-1-0.9-1-0.7-1.9-1.3-2.7-2.1 5.4 0.7 8.3 4 10.8 7.9z"/>
								<path id="&lt;Path&gt;" class="s2" d="m1204.6 1283.8c-11.8 12.8-31 17-49.7 10.3-5.4-1.9-9.7-5-13.4-8.7-4.3-5.4-7.6-11.4-10.9-17.4q-0.7-1.7-1.2-3.3c-1.5-4.3-3-9.6-6.7-13.1 9.8 1.4 22.7 0.9 24.9 0.9 19 0.2 38.4-0.2 57.1-3q4.2-0.3 8.3-0.7c4.3-0.5 8.3-0.8 12-2.2-5.7 13-10.1 26-20.4 37.2z"/>
								<path id="&lt;Path&gt;" class="s3" d="m1208.1 1279.6c-1.1 1.4-2.2 2.8-3.5 4.2-11.8 12.8-31 17-49.7 10.3-5.4-1.9-9.7-5-13.4-8.7-1.6-2-3.1-4.2-4.5-6.4 2.2-2.7 7.4-4.6 9.9-5.3 3.3-0.8 6.9-1.2 10.3-1.5 6-0.5 12-0.6 18-0.3 7.7 0.2 26.8 0.9 32.9 7.7z"/>
								<path id="&lt;Path&gt;" class="s4" d="m1203.1 1285.4c-11.9 11.5-30.3 15.1-48.2 8.7-5.4-1.9-9.7-5-13.4-8.7-1-1.2-1.9-2.5-2.8-3.8 0.4-0.3 0.9-0.6 1.6-0.8 6.3 2.4 13.3 3.9 19.7 5 13.9 2.2 28.2 1.6 41.8-1.3 0.3 0.5 0.7 0.8 1.3 0.9z"/>
								<path id="&lt;Path&gt;" class="s5" d="m1203.1 1285.4c-11.9 11.5-30.3 15.1-48.2 8.7-0.4-0.2-0.8-0.4-1.3-0.6 15.3 4.3 35.6 4.3 42.5-7.9q2.9-0.5 5.7-1.1c0.3 0.5 0.7 0.8 1.3 0.9z"/>
								<path id="&lt;Path&gt;" class="s4" d="m1216.7 1254.6c-13.5 7-28.8 11-45.3 11.6-6.6 0.2-21.8-0.5-33.5-4-4.3-2.8-8-6.3-11.5-10.2 9.1 0.8 19.3 0.5 21.2 0.5 19 0.2 38.4-0.2 57.1-3q4.2-0.3 8.3-0.7c2.9-0.3 5.7-0.6 8.4-1.2-0.7 1.3-1.4 2.5-2.2 3.6q-1.2 1.8-2.5 3.4z"/>
								<path id="&lt;Path&gt;" class="s5" d="m1221.4 1247.6c-0.7 1.3-1.4 2.5-2.2 3.6q-1.2 1.8-2.5 3.4-0.8 0.4-1.7 0.8c0.1-1.3 0.2-2.5 0.3-3.8 0-0.8-0.7-1.5-1.6-1.6-5-0.5-9.8 0.4-14.8 1.3-7.4 1.4-15.1 1.6-22.6 2.1-8.4 0.6-16.8 1.3-25.3 1.5-6.3 0.2-12.5-0.5-18.7 0.7-0.7 0.1-1.1 0.6-1.3 1.2q-2.4-2.2-4.6-4.8c9.1 0.8 19.3 0.5 21.2 0.5 19 0.2 38.4-0.2 57.1-3q4.2-0.3 8.3-0.7c2.9-0.3 5.7-0.6 8.4-1.2z"/>
								<path id="&lt;Path&gt;" class="s1" d="m1151.1 1303.8c9.1 8.6 21 9.2 32.7 3.8-10.7 3.1-23.4 2-32.7-3.8z"/>
							</g>
							<path id="&lt;Path&gt;" class="s6" d="m1150.7 1279.9c-1.6-0.1-7.1-0.5-5.1-3.3 0.1-0.1 0.2-0.2 0.3-0.3 0.3-0.5 0.7-0.9 1-1 1.8-0.9 3.7-1.1 5.7-1 1.4 0 4.1 0 4.7 1.6 1.3 3.2-4.6 4-6.6 4z"/>
							<path id="&lt;Path&gt;" class="s6" d="m1158.7 1280.6c-1 0-2.3 1.8-1 1.9 1 0.1 2.3-1.8 1-1.9z"/>
							<path id="&lt;Path&gt;" class="s0" d="m1153.3 1305.2c0 0 17.4 9.9 33.8-0.6 0 0-3.8 8.9-16.7 9.1-13 0.2-17.1-8.5-17.1-8.5z"/>
						</g>
						<path id="&lt;Path&gt;" class="s7" d="m1175 1305.2c-6.2 2.9-15.9 1.2-20.3-3.9-0.4-0.5 0.4-1.1 0.9-1 6.5 1.7 13.1 2.3 19.7 3.4 1 0.2 0.1 1.3-0.3 1.5z"/>
					</g>
				</g>
				<path id="&lt;Path&gt;" class="s7" d="m1173.6 1245.1q-1 0.1-2 0.2c-7.1 0.7-14.1 1.5-21.2 1.9-11 0.6-21.7-0.1-32.1-2.6q1-0.1 2-0.1c8.9 1.2 18.2 0.7 27 0.6 1.9 0 3.9 0 5.8-0.1 6.7 0.2 13.6 0.3 20.5 0.1z"/>
				<g id="&lt;Group&gt;">
				</g>
			</g>
		</g>
		<g id="&lt;Group&gt;">
			<g id="&lt;Group&gt;">
				<g id="&lt;Group&gt;">
				</g>
				<g id="&lt;Group&gt;">
				</g>
				<g id="&lt;Group&gt;">
				</g>
			</g>
			<g id="&lt;Group&gt;">
				<g id="&lt;Group&gt;">
					<g id="&lt;Group&gt;">
						<g id="&lt;Group&gt;">
							<g id="&lt;Group&gt;">
								<g id="&lt;Group&gt;">
								</g>
							</g>
							<g id="&lt;Group&gt;" style="mix-blend-mode: multiply">
								<g id="&lt;Group&gt;">
								</g>
							</g>
						</g>
					</g>
					<g id="&lt;Group&gt;">
					</g>
					<g id="&lt;Group&gt;">
						<g id="&lt;Group&gt;">
						</g>
						<g id="&lt;Clip Group&gt;" clip-path="url(#cp9)">
							<g id="&lt;Group&gt;">
								<g id="&lt;Group&gt;">
								</g>
							</g>
						</g>
					</g>
					<g id="&lt;Group&gt;">
						<g id="&lt;Group&gt;">
							<g id="&lt;Group&gt;">
								<g id="&lt;Group&gt;">
								</g>
							</g>
							<g id="&lt;Group&gt;" style="mix-blend-mode: multiply">
								<g id="&lt;Group&gt;">
								</g>
							</g>
						</g>
					</g>
					<g id="&lt;Group&gt;">
						<g id="&lt;Group&gt;">
						</g>
					</g>
					<g id="&lt;Group&gt;">
						<g id="&lt;Group&gt;">
							<g id="&lt;Group&gt;">
							</g>
							<g id="&lt;Clip Group&gt;" clip-path="url(#cp10)">
								<g id="&lt;Group&gt;">
									<g id="&lt;Group&gt;">
									</g>
								</g>
							</g>
						</g>
					</g>
				</g>
			</g>
		</g>
		<g id="&lt;Group&gt;">
			<g id="&lt;Group&gt;">
				<g id="&lt;Group&gt;">
				</g>
				<g id="&lt;Group&gt;">
				</g>
				<g id="&lt;Group&gt;">
				</g>
			</g>
			<g id="&lt;Group&gt;">
				<g id="&lt;Group&gt;">
					<g id="&lt;Group&gt;">
					</g>
				</g>
				<g id="&lt;Group&gt;">
					<g id="&lt;Group&gt;">
						<g id="&lt;Group&gt;">
						</g>
					</g>
				</g>
				<g id="&lt;Group&gt;">
					<g id="&lt;Group&gt;">
						<g id="&lt;Group&gt;">
						</g>
						<g id="&lt;Clip Group&gt;" clip-path="url(#cp11)">
							<g id="&lt;Group&gt;">
								<g id="&lt;Group&gt;">
									<g id="&lt;Group&gt;">
									</g>
								</g>
							</g>
						</g>
					</g>
				</g>
				<g id="&lt;Group&gt;">
					<g id="&lt;Group&gt;">
						<g id="&lt;Group&gt;">
						</g>
						<g id="&lt;Clip Group&gt;" clip-path="url(#cp12)">
							<g id="&lt;Group&gt;">
								<g id="&lt;Group&gt;">
									<g id="&lt;Group&gt;">
									</g>
								</g>
							</g>
						</g>
					</g>
				</g>
				<g id="&lt;Group&gt;">
				</g>
			</g>
		</g>
		<g id="&lt;Group&gt;">
			<g id="&lt;Group&gt;">
				<g id="&lt;Group&gt;">
				</g>
				<g id="&lt;Group&gt;">
				</g>
				<g id="&lt;Group&gt;">
				</g>
			</g>
			<g id="&lt;Group&gt;">
				<g id="&lt;Group&gt;">
					<g id="&lt;Group&gt;">
						<g id="&lt;Group&gt;">
							<g id="&lt;Group&gt;">
								<g id="&lt;Group&gt;">
								</g>
							</g>
							<g id="&lt;Group&gt;">
								<g id="&lt;Group&gt;">
								</g>
							</g>
						</g>
					</g>
					<g id="&lt;Group&gt;">
					</g>
				</g>
				<g id="&lt;Group&gt;">
					<g id="&lt;Group&gt;">
					</g>
					<g id="&lt;Clip Group&gt;" clip-path="url(#cp13)">
						<g id="&lt;Group&gt;">
							<g id="&lt;Group&gt;">
							</g>
						</g>
					</g>
				</g>
				<g id="&lt;Group&gt;">
					<g id="&lt;Group&gt;">
						<g id="&lt;Group&gt;">
						</g>
						<g id="&lt;Clip Group&gt;" clip-path="url(#cp14)">
							<g id="&lt;Group&gt;">
								<g id="&lt;Group&gt;">
								</g>
							</g>
						</g>
					</g>
				</g>
				<g id="&lt;Group&gt;">
					<g id="&lt;Group&gt;" style="mix-blend-mode: multiply">
					</g>
					<g id="&lt;Group&gt;">
						<g id="&lt;Group&gt;" style="mix-blend-mode: multiply">
						</g>
					</g>
				</g>
			</g>
		</g>
		<g id="&lt;Group&gt;">
			<g id="&lt;Group&gt;">
				<g id="&lt;Group&gt;">
				</g>
				<g id="&lt;Group&gt;">
				</g>
				<g id="&lt;Group&gt;">
				</g>
			</g>
			<g id="&lt;Group&gt;">
				<g id="&lt;Group&gt;">
				</g>
				<g id="&lt;Group&gt;">
					<g id="&lt;Group&gt;">
						<g id="&lt;Group&gt;">
							<g id="&lt;Group&gt;">
								<g id="&lt;Group&gt;">
								</g>
							</g>
							<g id="&lt;Group&gt;" style="mix-blend-mode: multiply">
								<g id="&lt;Group&gt;">
								</g>
							</g>
						</g>
					</g>
				</g>
				<g id="&lt;Group&gt;">
					<g id="&lt;Group&gt;">
						<g id="&lt;Group&gt;">
							<g id="&lt;Group&gt;">
							</g>
							<g id="&lt;Clip Group&gt;" clip-path="url(#cp15)">
								<g id="&lt;Group&gt;">
									<g id="&lt;Group&gt;">
									</g>
								</g>
							</g>
						</g>
						<g id="&lt;Group&gt;">
							<g id="&lt;Group&gt;">
								<g id="&lt;Group&gt;">
								</g>
							</g>
						</g>
					</g>
					<g id="&lt;Clip Group&gt;" clip-path="url(#cp16)">
						<g id="&lt;Group&gt;">
							<g id="&lt;Group&gt;">
							</g>
						</g>
					</g>
				</g>
				<g id="&lt;Group&gt;">
				</g>
				<g id="&lt;Group&gt;">
					<path id="&lt;Path&gt;" class="s8" d="m1231.8 333.5c-0.8-1.1-1.5-3.5-1.9-4.4-0.6-1.6-1.3-3.2-2.2-4.7q-0.2-0.3-0.5-0.7-0.2-0.6-0.4-1.2-0.1 0.1-0.1 0.2c-1.3-2.2-3-4.7-5.7-3.2-3 1.7-4.6 5.4-6 8.4q-0.4 0.8-0.7 1.6-0.9 1.7-1.7 3.4c-1.7 3.3-3.3 6.8-5.2 10.1-2.1 3.8-5.4 7.7-9.7 9.2-6.5 2.4-13.7 3.2-20.5 4.2-6.1 1-14.4 3.5-20.5 1.7-6.9-1.9-10.3-8.1-15-13.1q-2.2-2.2-4.4-4.3-0.8-0.8-1.5-1.6c-2.1-2.2-4.3-3.8-6.5-5.2q-0.4-0.3-0.7-0.5c-2.6-1.5-5.4-2.9-8.2-4.4 0.5-2.3 1.6-4.5 3-6.3 0.3-0.2 0.6-0.4 0.9-0.5q1.2-0.6 2.5-1.1c-0.2 0.3-0.4 0.7-0.5 1.1-0.4 0.7-0.1 1.9 0.8 2 3.5 0.5 7.2 0.4 11 0 3.4-0.1 6.8-0.6 8.4-0.6 8.8-0.4 17.5-1.6 26.3-2.6 7.7-1 15.5-1.9 23.2-3.2 6.2-1 12-3.1 18-4.5-0.4-0.2-1.4-0.5-1.5-0.6 0.3-0.1 0.7-0.1 0.8-0.2 0.4-0.1-9.3-1.6-14.2-2.3q0.5-0.6 1.4-1.1c8-1.2 18.8-3.2 25.2 3 3.4 3.2 5.5 7.6 6.8 12.3 0.2 3 0 6-0.7 9.1z"/>
					<path id="&lt;Path&gt;" class="s9" d="m1183 369.7c-3.1 2.5-6.8 4-11 3.5-1.2-0.2-3.7-0.6-6.1-1.3-2.4-1.7-4.4-3.7-5.9-5.8q0.1 0 0.1 0c4.2 1.2 8.3 1.1 12.2 0.5 4.9-0.4 9.8-1.7 14.5-3.5-1.1 2.3-2.4 4.5-3.8 6.6z"/>
					<g id="&lt;Group&gt;">
						<g id="&lt;Group&gt;">
							<g id="&lt;Group&gt;">
								<path id="&lt;Path&gt;" class="s10" d="m1228.1 321.6q0 0-0.1 0c-2.2-0.8-2.5-2.8-3.5-4.7-0.4-0.6-0.9-1.1-1.5-1.5-0.7 0.4-1.4 0.7-2.1 1-10.6 7-12.1 19.7-18.6 30-1.6 2.6-3.8 3-7 4-4.2 1.7-14.8 3.4-26.9 4.8-7.2 1.3-14.7 2.7-19-2.8-6.2-7.9-16.6-23.4-27.9-24q-0.5 0.1-0.9 0.4c0.2-1.9 0.8-3.7 2-5.1 1.2-1.2 2.7-1.9 4.2-2.3q-0.7 0.6-1.4 1.3c-0.9 0.8-0.3 2.5 0.9 2.8 5.1 1 10.5 1.1 15.9 0.7 15.8-0.2 32.2-2.8 47.3-4.8 8.1-1.1 16.2-2.6 24.1-4.7 0.6-0.1 4.1-1.3 6.7-2.5q-0.3-0.1-0.6-0.2c-0.5-0.2-2.8-0.8-4-1.5 1.8-0.4 3.6-1 4.6-1.2 2.4-0.5 4.2 0.6 5.8 2.3q0.5 1.1 0.9 2.2c0.8 1.9 0.6 3.9 1.1 5.8z"/>
								<path id="&lt;Path&gt;" class="s11" d="m1208.6 328.7c-2.1 3.9-3.6 8.1-5.4 12.1-2.2 5.2-5.8 7.4-10 8.6-5.5 0.5-11 1.6-16.5 2.4-7.1 1.1-15.4 3.8-22.5 1.6-4.6-3.1-7.5-9.1-11-13.7-3.3-4.3-7.9-9.3-13.2-11.5 14.8-0.3 28.9-1.7 34.1-2.3 14.9-1.8 29.3-3.6 44.1-6.5 2.4-0.5 5.4-0.9 8.4-1.6-3.4 2.8-5.8 6.6-8 10.9z"/>
								<path id="&lt;Path&gt;" class="s4" d="m1206 334.1c-0.9 2.2-1.8 4.5-2.8 6.7-2.2 5.2-5.8 7.4-10 8.6-5.5 0.5-11 1.6-16.5 2.4-7.1 1.1-15.4 3.8-22.5 1.6-1.8-1.3-3.4-3-4.9-5q-0.1-0.6-0.2-1.2c-0.5-4-1.4-7.8-0.9-11.7 12.1-1.4 24.1-3.7 36.2-5.8 5.1-0.9 10.3-1.6 15.4-2.8 3.2-0.8 5.1 2.8 6.2 7.2z"/>
								<path id="&lt;Path&gt;" class="s5" d="m1206 334.1c-0.9 2.2-1.8 4.5-2.8 6.7-0.6 1.6-1.4 2.8-2.3 3.9 0.5-3.3 0.6-7.2-1.7-8.4-1.8-1-2.5-0.7-4.5 0.1-5.6 2.1-12.4 2.5-18.2 3.1-8.6 0.9-17.6-0.2-25.9 1.1-1 0.2-1.7 0.7-2.2 1.4-0.3-2.2-0.5-4.3-0.2-6.5 12.1-1.4 24.1-3.7 36.2-5.8 5.1-0.9 10.3-1.6 15.4-2.8 3.2-0.8 5.1 2.8 6.2 7.2z"/>
								<path id="&lt;Path&gt;" class="s4" d="m1136.4 328c12.3-0.5 23.3-1.6 27.7-2.1 14.9-1.8 29.3-3.6 44.1-6.5q0.5-0.1 1-0.2c-0.3 3.6-1.3 7-3.5 9.8-2.5 3.2-8.5 4-12.2 5.1-4.1 1.2-8.3 2.1-12.5 2.8-8.9 1.6-18 2-27.1 1.7-8.6-0.3-13.1-4.9-17.5-10.6z"/>
							</g>
							<path id="&lt;Path&gt;" class="s10" d="m1182.6 364.3c-1 0.9-2 1.9-3.1 2.7-4.5 1.7-9.9 2.9-14.4 2.1-1.8-1-3.4-2.2-4.7-3.8 3.7 0.9 7.6 0.5 11.5 0.2 3.7-0.3 7.2-0.5 10.7-1.2z"/>
						</g>
						<path id="&lt;Path&gt;" class="s12" d="m1145.9 323.8c-6.4 0.1-13.1 0.6-19.1-1.9q0 0-0.1 0.1c-0.9 7.4 33 1.5 37.5 1.2 0.3-0.1 0.7-0.8 0.3-0.8-6.2 0.6-12.4 1.2-18.6 1.4z"/>
						<path id="&lt;Path&gt;" class="s12" d="m1172.4 362.2c-3.7 1.4-7.6 2.3-11.3 1.7q-0.8-0.1-1.7-0.3c-2.3-0.9-4.2-2.5-5.3-5.2 0 0 0 0 0.1 0 7.3 3.5 14.4 0.5 21.9 0.4-1.1 1.2-2.4 2.3-3.7 3.4z"/>
					</g>
				</g>
			</g>
		</g>
	</g>
</svg>