<svg version="1.2" xmlns="http://www.w3.org/2000/svg" viewBox="0 0 1388 1360" width="1388" height="1360">
	<title>3350-ai</title>
	<style>
		.s0 { fill: #9e4c0b } 
		.s1 { mix-blend-mode: multiply;fill: #8c0c00 } 
		.s2 { fill: #ffffff } 
		.s3 { opacity: .6;mix-blend-mode: multiply;fill: #b8a997 } 
		.s4 { fill: #ff7858 } 
	</style>
	<g id="Layer 1">
		<g id="&lt;Group&gt;">
			<g id="&lt;Group&gt;">
				<g id="&lt;Group&gt;">
					<g id="&lt;Group&gt;">
						<g id="excited">
							<path id="&lt;Compound Path&gt;" fill-rule="evenodd" class="s0" d="m255.6 791.7c-0.1 0.3-0.2 0.6-0.6 0.8q0 0 0 0 0 0-0.1 0.1c-0.3 0.2-0.6 0.4-1 0.4-0.7 0.3-1.5 0.6-2.3 0.9q0 0-0.1 0.1c-5.3 3.6-8.6 6.7-11.3 12.4-1.6 3.3-3.2 6.5-6.2 9-5.8 4.8-14.1 7.5-22 7.8-9 0.3-19.2-1.7-27.2-5.5-8.4-3.9-10.6-13.8-17.3-19.6-3.9-0.1-6.5-1.2-8-5.2 1.2 1.6 3.3 2.4 5.7 2.6 1.4 0.6 3 0.7 5.2 0.5 5.3-0.5 10.4-1.7 15.6-2.8q1.3-0.1 2.6-0.2c9.8-1.9 20.1 1 29.9 1.1 7 0.1 14 0.2 20.9-0.5 3.2-0.4 6.6-0.6 9.8-1.4 1.1-0.1 2.2-0.3 3.3-0.5 2.7-0.7 2.5-3.1 1.8-5.3 1.6 1.3 2.3 3.6 1.3 5.3zm-9.8 3.7c-7.5 1.3-16.2 0.9-22.8 0.6-7.5-0.3-15.4-2.2-23.1-2.9q0 0.1-0.1 0.2c-10 0.2-19.3 4-29.1 4.7q-1.1 0.1-2.1 0.1c7.3 5.3 9.7 15.1 18.7 18.4 8.3 2.9 18.6 5.1 27.6 4.3 11.3-1 18.9-5.6 23.4-15.1 1.8-3.7 4-7.9 7.5-10.3z"/>
							<path id="&lt;Path&gt;" class="s1" d="m238.3 805.7c-4.5 9.5-12.1 14.1-23.4 15.1-9 0.8-19.3-1.4-27.6-4.3-9-3.3-11.4-13.1-18.7-18.4q1 0 2.1-0.1c9.8-0.7 19.1-4.5 29.1-4.7q0.1-0.1 0.1-0.2c7.7 0.7 15.6 2.6 23.1 2.9 6.6 0.3 15.3 0.7 22.8-0.6-3.6 2.4-5.7 6.6-7.5 10.3z"/>
							<path id="&lt;Path&gt;" class="s2" d="m225.1 806.4c-6.6 1.3-13.4 1.8-20.4 1.5-5.8-0.3-11.3-1.6-17-2.8-5.8-1.2-8-4.2-10-8 7.3-1.4 14.5-3.7 22.1-3.8q0.1-0.1 0.1-0.2c7.7 0.7 15.6 2.6 23.1 2.9 4.9 0.3 11 0.5 16.8 0.1q-1.8 2.8-3.9 5.3c-3.1 2.4-6.8 3.9-10.8 5z"/>
							<path id="&lt;Path&gt;" class="s3" d="m229.1 799.2c-9.2-1.3-18.3-2.7-27.6-3.1-7.9-0.4-15.4 1.4-23.2 2q-0.3-0.5-0.6-1c7.3-1.4 14.5-3.7 22.1-3.8q0.1-0.1 0.1-0.2c7.7 0.7 15.6 2.6 23.1 2.9 4.9 0.3 11 0.5 16.8 0.1q-1.8 2.8-3.9 5.3c-2.8 2.2-6.1 3.6-9.6 4.7 1.7-1.5 3.1-3.2 3.9-5.3 0.3-0.8-0.2-1.5-1.1-1.6z"/>
							<path id="&lt;Path&gt;" class="s4" d="m225.7 818.3c-3.2 1.3-6.8 2.1-10.8 2.5-8.5 0.7-18-1.1-26.1-3.8 7-3.2 14.1-4.6 22.9-3.6 5.2 0.5 9.8 2.4 14 4.9z"/>
						</g>
						<path id="&lt;Path&gt;" class="s0" d="m220.6 832c-0.1 0.3-0.3 0.6-0.6 0.9-7.6 5.7-20.6 5.6-27.9-1 9.2 3.3 18.8 2.3 28.5 0.1z"/>
					</g>
				</g>
			</g>
		</g>
	</g>
</svg>