<?xml version="1.0" encoding="UTF-8" standalone="no"?>
<!-- Created with Inkscape (http://www.inkscape.org/) -->

<svg
   xmlns:dc="http://purl.org/dc/elements/1.1/"
   xmlns:cc="http://creativecommons.org/ns#"
   xmlns:rdf="http://www.w3.org/1999/02/22-rdf-syntax-ns#"
   xmlns:svg="http://www.w3.org/2000/svg"
   xmlns="http://www.w3.org/2000/svg"
   xmlns:sodipodi="http://sodipodi.sourceforge.net/DTD/sodipodi-0.dtd"
   xmlns:inkscape="http://www.inkscape.org/namespaces/inkscape"
   width="214.97209mm"
   height="113.03587mm"
   viewBox="0 0 214.97209 113.03587"
   version="1.1"
   id="svg2024"
   inkscape:version="0.92.1 r15371"
   sodipodi:docname="sofa.svg">
  <defs
     id="defs2018" />
  <sodipodi:namedview
     id="base"
     pagecolor="#ffffff"
     bordercolor="#666666"
     borderopacity="1.0"
     inkscape:pageopacity="0.0"
     inkscape:pageshadow="2"
     inkscape:zoom="0.7"
     inkscape:cx="473.08002"
     inkscape:cy="162.8148"
     inkscape:document-units="mm"
     inkscape:current-layer="layer1"
     showgrid="false"
     fit-margin-top="0"
     fit-margin-left="0"
     fit-margin-right="0"
     fit-margin-bottom="0"
     inkscape:window-width="1024"
     inkscape:window-height="744"
     inkscape:window-x="0"
     inkscape:window-y="24"
     inkscape:window-maximized="1" />
  <metadata
     id="metadata2021">
    <rdf:RDF>
      <cc:Work
         rdf:about="">
        <dc:format>image/svg+xml</dc:format>
        <dc:type
           rdf:resource="http://purl.org/dc/dcmitype/StillImage" />
        <dc:title></dc:title>
      </cc:Work>
    </rdf:RDF>
  </metadata>
  <g
     inkscape:label="Capa 1"
     inkscape:groupmode="layer"
     id="layer1"
     transform="translate(-0.60937767,-4.9760813)">
    <path
       style="display:inline;fill:#d35f5f;fill-opacity:1;stroke:#000000;stroke-width:0.26458332;stroke-linecap:round;stroke-linejoin:round;stroke-miterlimit:4;stroke-dasharray:none"
       d="m 209.77426,34.723865 -46.21983,-4.266823 1.51657,44.042242 39.28687,3.760578 z"
       id="path1976"
       inkscape:connector-curvature="0"
       sodipodi:nodetypes="ccccc" />
    <path
       sodipodi:nodetypes="ccsccc"
       inkscape:connector-curvature="0"
       id="path1974"
       d="m 134.69821,79.716265 0.74124,26.322135 c 16.14904,0.41895 26.75083,-5.66772 36.26989,-7.274258 14.78029,-2.494429 23.87555,-2.368341 30.51823,-6.300274 -1.8811,-9.6456 3.4466,-4.283408 -0.18556,-19.111267 z"
       style="display:inline;fill:#d37b7b;fill-opacity:1;stroke:#000000;stroke-width:0.26458332;stroke-linecap:round;stroke-linejoin:round;stroke-miterlimit:4;stroke-dasharray:none" />
    <path
       style="display:inline;fill:#d37b7b;fill-opacity:1;stroke:#000000;stroke-width:0.26458332;stroke-linecap:round;stroke-linejoin:round;stroke-miterlimit:4;stroke-dasharray:none"
       d="m 64.329639,87.607435 -1.157552,27.734345 c 42.081233,-8.14903 51.756223,0.0242 74.006293,-9.15404 -2.19472,-11.253726 4.77194,-10.177667 0.5342,-27.477659 z"
       id="path1970"
       inkscape:connector-curvature="0"
       sodipodi:nodetypes="ccccc" />
    <path
       sodipodi:nodetypes="cccscc"
       inkscape:connector-curvature="0"
       id="path1960"
       d="m 211.36003,92.289484 -11.16365,2.04438 -0.10281,-50.915429 c 1.33049,-12.001668 11.25002,-10.163185 14.05825,-5.069445 2.79681,5.073063 0.77265,12.087883 -3.28629,17.829232 z"
       style="display:inline;fill:#ba4848;fill-opacity:1;stroke:#000000;stroke-width:0.26458332;stroke-linecap:round;stroke-linejoin:round;stroke-miterlimit:4;stroke-dasharray:none" />
    <path
       sodipodi:nodetypes="ccccc"
       inkscape:connector-curvature="0"
       id="path1968"
       d="m 135.80418,66.586221 65.23424,-7.407623 c 1.82029,4.527463 2.51179,10.869795 0.93883,14.864619 -22.65617,7.008293 -43.7734,7.549748 -66.42957,7.456978 z"
       style="display:inline;fill:#d35f5f;fill-opacity:1;stroke:#000000;stroke-width:0.26458332;stroke-linecap:round;stroke-linejoin:round;stroke-miterlimit:4;stroke-dasharray:none" />
    <path
       style="display:inline;fill:#d35f5f;fill-opacity:1;stroke:#000000;stroke-width:0.26458332;stroke-linecap:round;stroke-linejoin:round;stroke-miterlimit:4;stroke-dasharray:none"
       d="M 62.809596,73.052898 137.3391,65.24246 c 2.05017,4.917687 1.77158,11.571031 -1e-5,15.91017 -25.51721,7.612363 -49.301161,8.200485 -74.818372,8.099726 z"
       id="path1966"
       inkscape:connector-curvature="0"
       sodipodi:nodetypes="ccccc" />
    <path
       style="display:inline;fill:#d35f5f;fill-opacity:1;stroke:#000000;stroke-width:0.26458332;stroke-linecap:round;stroke-linejoin:round;stroke-miterlimit:4;stroke-dasharray:none"
       d="M 15.142372,8.3719354 C 8.1356875,6.594439 4.9472376,8.4576861 4.4570387,13.751371 c 1.0223641,15.57426 8.0092743,31.2518 8.3773473,46.573394 l 16.754691,6.364067 C 26.113112,47.048649 23.797999,27.234094 15.142372,8.3719354 Z"
       id="path1982"
       inkscape:connector-curvature="0"
       sodipodi:nodetypes="ccccc" />
    <path
       style="display:inline;fill:#ba4848;fill-opacity:1;stroke:#000000;stroke-width:0.26458332;stroke-linecap:round;stroke-linejoin:round;stroke-miterlimit:4;stroke-dasharray:none"
       d="M 170.27074,53.671427 C 171.17138,38.532659 171.88147,23.393896 164.49326,8.2551282 136.5758,2.0780201 122.31765,7.8694273 101.22985,7.6765768 c 5.9289,17.4963002 7.42709,34.0901822 7.9673,50.0447112 z"
       id="path1978"
       inkscape:connector-curvature="0"
       sodipodi:nodetypes="ccccc" />
    <path
       sodipodi:nodetypes="ccccc"
       inkscape:connector-curvature="0"
       id="path1980"
       d="M 109.37322,59.253661 C 110.62125,42.273579 111.60526,25.293507 101.36716,8.3134327 62.680993,1.3850118 42.922997,7.8808211 13.700901,7.6645191 21.916787,27.288865 25.761991,45.901044 26.510585,63.796101 Z"
       style="display:inline;fill:#ba4848;fill-opacity:1;stroke:#000000;stroke-width:0.26458332;stroke-linecap:round;stroke-linejoin:round;stroke-miterlimit:4;stroke-dasharray:none" />
    <path
       sodipodi:nodetypes="ccccc"
       inkscape:connector-curvature="0"
       id="path1964"
       d="m 136.28506,66.488284 c 21.83933,-0.397927 44.21418,-0.92366 64.79747,-7.276874 -6.83209,-6.139302 -24.51079,-7.272135 -33.87283,-9.41301 -23.33102,-1.01424 -36.59863,2.452635 -58.10378,5.285967 z"
       style="display:inline;fill:#ce4848;fill-opacity:1;stroke:#000000;stroke-width:0.26458332;stroke-linecap:round;stroke-linejoin:round;stroke-miterlimit:4;stroke-dasharray:none" />
    <path
       style="display:inline;fill:#ce4848;fill-opacity:1;stroke:#000000;stroke-width:0.26458332;stroke-linecap:round;stroke-linejoin:round;stroke-miterlimit:4;stroke-dasharray:none"
       d="M 61.654101,74.788557 C 87.883639,74.334332 114.06248,73.65166 138.78347,66.39956 130.57799,59.391631 119.7643,57.4929 108.52028,55.049121 80.499183,53.891389 54.83951,58.536938 29.011335,61.77115 Z"
       id="path1962"
       inkscape:connector-curvature="0"
       sodipodi:nodetypes="ccccc" />
    <path
       sodipodi:nodetypes="ccsccccc"
       inkscape:connector-curvature="0"
       id="path1958"
       d="M 57.25338,42.565878 11.366319,36.290012 c -3.5795567,0.892551 -6.9113455,3.23666 -8.7017652,6.515023 -4.1452417,7.590181 -1.199589,15.475087 5.1022102,20.919088 2.910721,16.6198 1.8616406,18.58295 4.134859,36.282817 l 39.000128,17.78171 3.204015,-3.54232 z"
       style="display:inline;fill:#d35f5f;fill-opacity:1;stroke:#000000;stroke-width:0.26458332;stroke-linecap:round;stroke-linejoin:round;stroke-miterlimit:4;stroke-dasharray:none" />
    <path
       style="display:inline;fill:#ba4848;fill-opacity:1;stroke:#000000;stroke-width:0.26458332;stroke-linecap:round;stroke-linejoin:round;stroke-miterlimit:4;stroke-dasharray:none"
       d="M 50.627323,117.87966 67.959765,115.63263 66.85383,53.382154 C 64.885795,38.657039 48.941943,40.719949 44.130308,49.530335 c -4.145251,7.590174 -1.19959,15.475084 5.102209,20.919083 z"
       id="path1956"
       inkscape:connector-curvature="0"
       sodipodi:nodetypes="cccscc" />
  </g>
</svg>
