<svg width="3" height="2" viewBox="0 0 3 2" fill="none" xmlns="http://www.w3.org/2000/svg">
<g style="mix-blend-mode:multiply">
<path d="M2.99459 0.343177C2.9868 0.346265 2.97513 0.347809 2.96735 0.343177C2.84286 0.270603 2.81368 0.431193 2.79422 0.468252C2.76115 0.531561 2.7242 0.593325 2.6814 0.653546C2.61721 0.746193 2.57247 0.852736 2.4577 0.919134C2.26123 1.0334 2.0064 1.1106 1.75546 1.09825C1.46757 1.08435 1.21468 0.977809 1.0435 0.798692C0.959858 0.712221 0.907337 0.61803 0.845089 0.52075C0.831473 0.499133 0.81591 0.479061 0.800348 0.460531C0.794512 0.44509 0.786731 0.429649 0.77895 0.415752C0.736155 0.337002 0.656401 0.28759 0.588318 0.228914C0.695306 0.247443 0.810074 0.256707 0.917062 0.26906C1.0863 0.289134 1.25748 0.290677 1.42672 0.281412C1.67182 0.269059 1.93637 0.272148 2.18536 0.241265C2.25734 0.238177 2.32737 0.233545 2.3974 0.227368C2.50049 0.216559 2.60165 0.191854 2.70474 0.185678C2.69891 0.181045 2.69502 0.177958 2.68724 0.17487C2.66973 0.164061 2.70474 0.143987 2.71836 0.145531C2.79617 0.150163 2.89538 0.181046 2.95568 0.230457C2.98291 0.264428 2.99264 0.30303 2.99459 0.343177V0.343177Z" fill="#FAD6BE"/>
</g>
<path d="M2.94985 0.292213C2.91678 0.289124 2.88955 0.273683 2.86426 0.255154C2.70086 0.593315 2.46743 1.08898 1.77687 1.06273C1.59596 1.05655 1.42867 1.01949 1.29445 0.953094C1.29186 0.952065 1.28991 0.951036 1.28862 0.950006C1.21081 0.909859 1.14466 0.860448 1.09214 0.800228C1.06102 0.764713 1.03379 0.729198 1.0085 0.69214C0.985156 0.661257 0.963759 0.630374 0.940416 0.601036C0.923557 0.57736 0.906048 0.554198 0.887893 0.531551C0.865847 0.488316 0.84445 0.44508 0.823701 0.401845C0.806194 0.36633 0.784795 0.338536 0.751726 0.309198C0.736164 0.300962 0.720603 0.292727 0.705042 0.284492C0.675863 0.269051 0.6603 0.252065 0.650574 0.235079C0.786741 0.318462 1.26527 0.304566 1.37615 0.307654C1.66988 0.315374 1.9675 0.309198 2.25929 0.286036C2.26059 0.286036 2.26124 0.286036 2.26124 0.286036C2.27291 0.284492 2.30987 0.282948 2.36044 0.278315C2.41491 0.273168 2.46873 0.266993 2.5219 0.259787C2.61916 0.247434 2.71642 0.231992 2.81174 0.216551C2.8059 0.211918 2.80007 0.207285 2.79229 0.202653C2.77284 0.191844 2.75533 0.18258 2.73977 0.170227C2.84481 0.181036 2.90122 0.231992 2.94985 0.292213V0.292213Z" fill="#9E4C0B"/>
<g style="mix-blend-mode:multiply">
<path d="M2.43242 0.823375C2.20288 1.02102 1.8294 1.08587 1.46563 0.982418C1.36059 0.95308 1.27694 0.905213 1.20497 0.848081C1.12133 0.764698 1.05713 0.672051 0.992939 0.579404C0.983861 0.561904 0.976081 0.544918 0.969597 0.528447C0.940418 0.46205 0.911238 0.380212 0.839264 0.326168C1.0299 0.347786 1.28083 0.340066 1.32363 0.340066C1.69323 0.343154 2.0706 0.336977 2.43436 0.293742C2.48883 0.290654 2.54265 0.287052 2.59582 0.282934C2.67947 0.275214 2.75728 0.27058 2.82925 0.248962C2.71837 0.449698 2.63278 0.650434 2.43242 0.823375V0.823375Z" fill="#8C0C00"/>
</g>
<path d="M2.5005 0.758526C2.4791 0.780144 2.4577 0.801763 2.43242 0.82338C2.20288 1.02103 1.82939 1.08588 1.46563 0.982423C1.36059 0.953085 1.27694 0.905218 1.20497 0.848086C1.17384 0.817204 1.14467 0.783233 1.11743 0.749262C1.16023 0.707571 1.26138 0.678232 1.31001 0.667423C1.3742 0.65507 1.44423 0.648894 1.51037 0.644261C1.62708 0.636541 1.7438 0.634998 1.86051 0.63963C2.0103 0.642718 2.38184 0.653526 2.5005 0.758526Z" fill="#FF7858"/>
<path d="M2.40325 0.848068C2.17177 1.02564 1.81384 1.08123 1.46564 0.982405C1.3606 0.953067 1.27695 0.9052 1.20498 0.848068C1.18553 0.829538 1.16802 0.809464 1.15051 0.78939C1.15829 0.784758 1.16802 0.780127 1.18164 0.777039C1.30419 0.814097 1.44036 0.837259 1.56485 0.854244C1.83524 0.888215 2.11341 0.87895 2.37796 0.83417C2.3838 0.841891 2.39158 0.846523 2.40325 0.848068V0.848068Z" fill="white"/>
<g style="mix-blend-mode:multiply" opacity="0.6">
<path d="M2.40323 0.848065C2.17175 1.02564 1.81383 1.08123 1.46563 0.982402C1.45785 0.979314 1.45006 0.976226 1.44034 0.973138C1.73796 1.03954 2.13285 1.03953 2.26707 0.851152C2.30468 0.846005 2.34164 0.840344 2.37795 0.834167C2.38378 0.841888 2.39156 0.846521 2.40323 0.848065V0.848065Z" fill="#B8A997"/>
</g>
<path d="M2.66778 0.372493C2.40517 0.480581 2.10755 0.542345 1.78658 0.55161C1.6582 0.554698 1.36252 0.543889 1.13493 0.489845C1.05128 0.44661 0.979308 0.392566 0.911224 0.332346C1.08824 0.344699 1.28666 0.340066 1.32362 0.340066C1.69321 0.343155 2.07059 0.336978 2.43435 0.293743C2.48882 0.290655 2.54264 0.287052 2.59581 0.282935C2.65222 0.278302 2.70669 0.273669 2.75921 0.264404C2.74559 0.284478 2.73197 0.303007 2.71641 0.319992C2.70085 0.338522 2.68464 0.356022 2.66778 0.372493V0.372493Z" fill="white"/>
<g style="mix-blend-mode:multiply" opacity="0.6">
<path d="M2.75921 0.264404C2.74559 0.284478 2.73197 0.303007 2.71641 0.319992C2.70085 0.338522 2.68464 0.356022 2.66778 0.372493C2.6574 0.37661 2.64638 0.380729 2.63471 0.384846C2.63666 0.364773 2.6386 0.346243 2.64055 0.326169C2.64055 0.313816 2.62693 0.303008 2.60942 0.301463C2.51216 0.293743 2.41879 0.307641 2.32153 0.321538C2.17758 0.343155 2.0278 0.346243 1.8819 0.353964C1.7185 0.363229 1.5551 0.374037 1.38975 0.377126C1.2672 0.380214 1.1466 0.369404 1.02599 0.387934C1.01238 0.389478 1.0046 0.3972 1.00071 0.406464C0.969581 0.383817 0.939755 0.359111 0.911224 0.332346C1.08824 0.344699 1.28666 0.340066 1.32362 0.340066C1.69321 0.343155 2.07059 0.336978 2.43435 0.293743C2.48882 0.290655 2.54264 0.287052 2.59581 0.282935C2.65222 0.278302 2.70669 0.273669 2.75921 0.264404V0.264404Z" fill="#B8A997"/>
</g>
<path d="M1.39172 1.1322C1.56874 1.265 1.80023 1.27426 2.02782 1.19088C1.81968 1.23875 1.57263 1.22176 1.39172 1.1322Z" fill="#9E4C0B"/>
<g style="mix-blend-mode:screen">
<path d="M1.38392 0.763162C1.3528 0.761618 1.24581 0.755441 1.28471 0.712205C1.28666 0.710661 1.28861 0.709118 1.29055 0.707574C1.29639 0.699854 1.30417 0.693677 1.31 0.692133C1.34502 0.678236 1.38198 0.675148 1.42088 0.676692C1.44811 0.676692 1.50064 0.676692 1.51231 0.701397C1.5376 0.750809 1.42283 0.763162 1.38392 0.763162V0.763162Z" fill="#EF7874"/>
</g>
<g style="mix-blend-mode:screen">
<path d="M1.53954 0.773987C1.52009 0.773987 1.4948 0.801781 1.52009 0.803325C1.53954 0.80487 1.56483 0.775531 1.53954 0.773987Z" fill="#EF7874"/>
</g>
<g style="mix-blend-mode:multiply">
<path d="M1.43451 1.15386C1.43451 1.15386 1.77298 1.30672 2.092 1.14459C2.092 1.14459 2.01808 1.28202 1.76715 1.28511C1.51426 1.28819 1.43451 1.15386 1.43451 1.15386Z" fill="#FAD6BE"/>
</g>
<path d="M1.85662 1.15383C1.73601 1.19861 1.54732 1.17236 1.46173 1.09361C1.45395 1.08589 1.46951 1.07663 1.47924 1.07817C1.60568 1.10442 1.73407 1.11369 1.86245 1.13067C1.88191 1.13376 1.8644 1.15075 1.85662 1.15383V1.15383Z" fill="#FAEDE6"/>
<path d="M1.82938 0.225817C1.81641 0.226846 1.80344 0.227877 1.79048 0.228906C1.65236 0.239715 1.5162 0.252067 1.37809 0.258243C1.16411 0.267508 0.955968 0.256699 0.753662 0.218096C0.76663 0.217067 0.779599 0.216553 0.792567 0.216553C0.965694 0.235082 1.1466 0.227361 1.31778 0.225817C1.35474 0.225817 1.39365 0.225817 1.43061 0.224273C1.56094 0.227362 1.69516 0.228905 1.82938 0.225817V0.225817Z" fill="#FAEDE6"/>
</svg>
