<svg width="3" height="2" viewBox="0 0 3 2" fill="none" xmlns="http://www.w3.org/2000/svg">
<g style="mix-blend-mode:multiply">
<path d="M2.96153 1.14964C2.94597 1.13266 2.93235 1.0956 2.92457 1.0817C2.9129 1.057 2.89928 1.03229 2.88177 1.00913C2.87918 1.00604 2.87594 1.00244 2.87205 0.998321C2.86945 0.992144 2.86686 0.985968 2.86427 0.979791C2.86297 0.980821 2.86232 0.98185 2.86232 0.98288C2.83703 0.948909 2.80396 0.910306 2.75144 0.933468C2.69308 0.959718 2.66196 1.01685 2.63473 1.06317C2.62954 1.07141 2.625 1.07964 2.62111 1.08788C2.60944 1.10538 2.59841 1.12288 2.58804 1.14038C2.55497 1.19134 2.52385 1.24538 2.48689 1.29634C2.44604 1.35501 2.38184 1.41523 2.2982 1.43839C2.17176 1.47545 2.0317 1.48781 1.89942 1.50325C1.78076 1.51869 1.61931 1.55729 1.50065 1.5295C1.36643 1.50016 1.30029 1.40442 1.20886 1.32722C1.18033 1.30457 1.1518 1.28244 1.12327 1.26082C1.1129 1.25259 1.10317 1.24435 1.09409 1.23611C1.05324 1.20214 1.01045 1.17744 0.967652 1.15582C0.962465 1.15273 0.957925 1.15016 0.954034 1.1481C0.903458 1.12494 0.848992 1.10332 0.794525 1.08016C0.804251 1.04464 0.825649 1.01067 0.852882 0.98288C0.858718 0.979791 0.864554 0.976703 0.87039 0.975159C0.885952 0.968983 0.902163 0.963321 0.919021 0.958174C0.915131 0.962806 0.91124 0.968983 0.909295 0.975159C0.901514 0.985968 0.907348 1.0045 0.924856 1.00604C0.992939 1.01376 1.06491 1.01222 1.13883 1.00604C1.20497 1.0045 1.27111 0.996777 1.30223 0.996777C1.47342 0.9906 1.64265 0.972071 1.81383 0.956629C1.96362 0.941188 2.11535 0.927291 2.26513 0.907218C2.38574 0.891776 2.49856 0.85935 2.61527 0.837732C2.60749 0.834644 2.58804 0.830012 2.5861 0.828468C2.59193 0.826924 2.59971 0.826924 2.60166 0.825379C2.60944 0.823835 2.42075 0.800674 2.32543 0.789865C2.33192 0.783688 2.34099 0.778027 2.35267 0.77288C2.50829 0.75435 2.71837 0.723468 2.84287 0.819203C2.90901 0.868615 2.94986 0.936556 2.97514 1.00913C2.97903 1.05545 2.97515 1.10178 2.96153 1.14964V1.14964Z" fill="#FBD0B4"/>
</g>
<g style="mix-blend-mode:multiply">
<path d="M2.01226 1.7086C1.95195 1.7472 1.87998 1.77037 1.79828 1.76265C1.77494 1.75956 1.72631 1.75338 1.67962 1.74257C1.63293 1.71632 1.59403 1.68544 1.56485 1.65301C1.56615 1.65301 1.56679 1.65301 1.56679 1.65301C1.64849 1.67154 1.72825 1.67 1.80412 1.66073C1.89943 1.65456 1.99475 1.63448 2.08618 1.60669C2.06478 1.6422 2.03949 1.67617 2.01226 1.7086Z" fill="#EFC2A7"/>
</g>
<path d="M2.88942 0.96591C2.88942 0.96591 2.88877 0.96591 2.88747 0.96591C2.84468 0.953557 2.83884 0.922675 2.81939 0.893337C2.81161 0.884072 2.80188 0.876351 2.79021 0.870175C2.77659 0.876351 2.76298 0.880984 2.74936 0.885616C2.54316 0.993704 2.51399 1.18981 2.38755 1.34885C2.35642 1.389 2.31363 1.39517 2.25138 1.41062C2.16968 1.43687 1.96348 1.46312 1.72811 1.48473C1.58805 1.50481 1.44216 1.52642 1.35851 1.4415C1.23791 1.31951 1.0356 1.08017 0.815786 1.07091C0.809302 1.07194 0.803466 1.074 0.798279 1.07709C0.802169 1.04775 0.813841 1.01995 0.837184 0.998337C0.860527 0.979807 0.889707 0.968998 0.918885 0.962822C0.909808 0.968998 0.900729 0.97569 0.891652 0.982896C0.874144 0.995249 0.885816 1.0215 0.909159 1.02613C1.00837 1.04157 1.11341 1.04312 1.21845 1.03694C1.5258 1.03385 1.84482 0.993704 2.13855 0.962822C2.29612 0.945837 2.45368 0.922675 2.60736 0.890249C2.61903 0.888704 2.68711 0.870175 2.73769 0.851646C2.7338 0.850616 2.72991 0.849587 2.72602 0.848557C2.71629 0.845469 2.67155 0.836204 2.64821 0.825395C2.68322 0.819219 2.71824 0.809954 2.73769 0.806866C2.78438 0.799145 2.81939 0.816131 2.85051 0.842381C2.857 0.853704 2.86283 0.865028 2.86802 0.876351C2.88358 0.905689 2.87969 0.936572 2.88942 0.96591Z" fill="#A04C0B"/>
<path d="M2.51022 1.07554C2.46937 1.13576 2.44019 1.20061 2.40518 1.26237C2.36239 1.34267 2.29236 1.37664 2.21066 1.39517C2.10367 1.40289 1.99668 1.41987 1.88969 1.43223C1.75158 1.44921 1.59012 1.4909 1.45201 1.45693C1.36253 1.40906 1.30612 1.31642 1.23803 1.24539C1.17384 1.17899 1.08436 1.10179 0.981262 1.06782C1.26916 1.06318 1.54344 1.04156 1.64459 1.0323C1.93443 1.00451 2.21455 0.976712 2.50244 0.931933C2.54913 0.924212 2.60749 0.918035 2.66584 0.907227C2.59971 0.950462 2.55302 1.00914 2.51022 1.07554V1.07554Z" fill="#8C0C00"/>
<path d="M2.45966 1.15893C2.44215 1.1929 2.42465 1.22841 2.40519 1.26238C2.3624 1.34268 2.29237 1.37665 2.21067 1.39518C2.10368 1.4029 1.99669 1.41988 1.8897 1.43223C1.75159 1.44922 1.59014 1.49091 1.45202 1.45694C1.41701 1.43687 1.38589 1.41062 1.35671 1.37973C1.35541 1.37356 1.35411 1.36738 1.35282 1.36121C1.34309 1.29944 1.32558 1.24076 1.33531 1.18054C1.57068 1.15893 1.80411 1.12341 2.03949 1.09098C2.1387 1.07709 2.23985 1.06628 2.33906 1.04775C2.4013 1.0354 2.43826 1.09098 2.45966 1.15893Z" fill="white"/>
<g style="mix-blend-mode:multiply" opacity="0.6">
<path d="M2.45967 1.15893C2.44216 1.1929 2.42465 1.22841 2.4052 1.26238C2.39353 1.28709 2.37797 1.30562 2.36046 1.3226C2.37019 1.27165 2.37213 1.21143 2.32739 1.1929C2.29237 1.17746 2.27876 1.18209 2.23985 1.19444C2.13092 1.22687 1.99864 1.23304 1.88582 1.24231C1.71853 1.25621 1.54346 1.23922 1.382 1.25929C1.36255 1.26238 1.34893 1.2701 1.33921 1.28091C1.33337 1.24694 1.32948 1.21451 1.33531 1.18054C1.57069 1.15893 1.80412 1.12341 2.03949 1.09098C2.1387 1.07709 2.23986 1.06628 2.33906 1.04775C2.40131 1.0354 2.43827 1.09098 2.45967 1.15893Z" fill="#B8A997"/>
</g>
<path d="M1.10577 1.06472C1.34504 1.05699 1.55902 1.04001 1.64461 1.03229C1.93445 1.00449 2.21456 0.9767 2.50246 0.931921C2.50894 0.930892 2.51543 0.929862 2.52191 0.928833C2.51608 0.984421 2.49662 1.03692 2.45383 1.08016C2.4052 1.12957 2.28848 1.14192 2.21651 1.15891C2.13675 1.17744 2.05505 1.19133 1.97335 1.20214C1.80023 1.22685 1.62321 1.23302 1.44619 1.22839C1.2789 1.22376 1.19136 1.15273 1.10577 1.06472Z" fill="white"/>
<path d="M2.00448 1.62524C1.98502 1.63914 1.96557 1.65458 1.94417 1.66694C1.85664 1.69319 1.75159 1.71172 1.66406 1.69936C1.62904 1.68392 1.59792 1.66539 1.57263 1.64069C1.64461 1.65458 1.72047 1.64841 1.79633 1.64377C1.86831 1.63914 1.93639 1.63605 2.00448 1.62524Z" fill="#A04C0B"/>
<path d="M1.29058 0.999858C1.16608 1.0014 1.03575 1.00912 0.919038 0.97052C0.919038 0.97052 0.918387 0.971035 0.91709 0.972064C0.899583 1.08633 1.55902 0.995226 1.64656 0.990594C1.65239 0.98905 1.66017 0.978241 1.65239 0.978241C1.53179 0.987505 1.41118 0.99677 1.29058 0.999858V0.999858Z" fill="#FCECE3"/>
</svg>
