<svg width="243" height="36" viewBox="0 0 243 36" fill="none" xmlns="http://www.w3.org/2000/svg">
<path d="M0 0H242.796V35.4699H0V0Z" fill="#6BF43B"/>
<path fill-rule="evenodd" clip-rule="evenodd" d="M61.0447 0H142.548L242.796 18.713V22.3643L115.344 6.6832L61.0447 0ZM221.951 0L242.796 7.79164V12.3558L200.828 0H221.951ZM242.796 27.9064V31.2969L111.196 35.209L101.741 35.4699H0V20.7016L111.196 23.9943L242.796 27.9064Z" fill="#FAB161"/>
<path fill-rule="evenodd" clip-rule="evenodd" d="M237.986 0H238.815L239.036 0.0978188C239.313 0.260824 239.81 0.293413 240.198 0.228211C240.474 0.391215 241.691 0.391211 242.188 0.652019C242.446 0.825891 242.649 0.967177 242.796 1.07585V1.76046C241.635 1.66266 238.981 0.847637 238.373 0.521627C238.262 0.391223 238.152 0.195606 237.986 0V0ZM229.415 3.94473C227.812 4.30334 228.641 2.51029 229.36 2.8689C229.47 2.8689 229.692 2.86889 229.802 2.83629C229.913 2.90149 230.023 2.9341 230.023 2.9667C230.576 2.64069 231.295 4.23814 229.415 3.94473V3.94473ZM228.752 10.4323C228.752 10.3997 228.752 10.2693 228.752 10.1715C228.696 10.1389 228.586 10.1063 228.53 10.0411C228.475 10.0085 228.475 9.87809 228.475 9.78028C228.531 9.74768 228.641 9.71509 228.696 9.64989C228.752 9.61729 228.807 9.58468 228.918 9.51948C228.973 9.48688 229.028 9.42169 229.139 9.38909C229.194 9.35649 229.249 9.29129 229.36 9.22608C229.415 9.22608 229.471 9.16087 229.581 9.09567C229.802 8.96527 230.245 9.22607 230.023 9.35648C230.079 9.45428 230.079 9.55208 230.079 9.61728C230.079 9.71508 230.079 9.8129 230.079 9.8781C230.023 9.94331 229.913 9.97589 229.858 10.0085C229.858 10.1063 229.858 10.2367 229.913 10.2693C229.802 10.3345 229.692 10.3997 229.692 10.3997C229.581 10.4649 229.471 10.5301 229.471 10.5627C229.692 10.6931 229.692 10.6931 228.918 11.5082C228.752 11.4429 228.586 11.3451 228.365 11.2473C228.586 11.0952 228.807 10.9539 229.028 10.8235C228.918 10.7257 228.862 10.5953 228.752 10.4323Z" fill="#9DD9D9"/>
<path d="M195.52 0.88023C195.243 1.01063 195.244 1.01063 194.801 0.717225C194.912 0.673757 195.004 0.630301 195.078 0.586833C195.133 0.554232 195.244 0.521623 195.354 0.456421C195.409 0.42382 195.465 0.391211 195.575 0.32601C195.796 0.21734 196.018 0.10867 196.239 0H198.229C198.782 0.521615 198.893 1.20624 195.852 0.945436C195.796 1.23884 196.626 2.21687 195.188 1.27145C195.299 1.23884 195.465 1.14105 195.575 1.07585C195.631 1.04325 195.631 1.01064 195.631 0.945436C195.594 0.923702 195.557 0.901964 195.52 0.88023Z" fill="#93E9AB"/>
<path d="M193.585 1.59753C193.087 1.85834 193.087 1.85834 192.866 1.69533C193.032 1.63013 193.142 1.56493 193.363 1.46712C193.363 1.40192 193.363 1.30412 193.363 1.20632C193.419 1.17372 193.529 1.14113 193.64 1.07593C193.751 1.10853 193.916 1.10852 194.082 1.10852C194.082 1.20632 194.027 1.30412 194.027 1.36932C194.248 1.49973 193.751 1.72794 193.585 1.59753V1.59753Z" fill="#93E9AB"/>
<path d="M190.212 1.0758C190.156 1.0432 190.101 0.977992 189.991 0.945391C189.991 0.880189 189.991 0.78239 190.046 0.684587C190.046 0.651986 190.156 0.586776 190.267 0.554175C190.322 0.521574 190.433 0.488985 190.488 0.423783C190.765 0.29338 191.152 0.586776 190.931 0.71718C190.765 0.880185 190.599 1.07579 190.433 1.20619C190.156 1.3366 190.599 1.63002 190.322 1.72782C190.267 1.79302 190.156 1.82561 190.101 1.85821C190.488 2.41243 187.171 2.41244 190.212 1.0758V1.0758Z" fill="#93E9AB"/>
<path d="M194.635 5.77049C194.58 5.83569 194.469 5.8683 194.414 5.9009C194.248 5.9335 194.082 5.90089 193.972 5.86829C193.916 5.83569 193.806 5.8031 193.751 5.7379C193.529 5.60749 193.529 5.60749 194.027 5.34668C194.248 5.49882 194.451 5.64008 194.635 5.77049V5.77049Z" fill="#93E9AB"/>
<path d="M179.485 1.17362C179.374 1.07582 179.264 1.01061 179.098 0.880204C179.042 0.815002 179.042 0.717199 179.042 0.554194C179.319 0.586795 179.595 0.55419 179.872 0.488988C180.093 0.391185 180.535 0.652001 180.314 0.782405C180.204 0.945409 180.093 1.07581 179.982 1.20621C179.816 1.20621 179.651 1.20622 179.485 1.17362V1.17362Z" fill="#93E9AB"/>
<path d="M139.949 0.651876C139.894 0.684477 139.784 0.717086 139.673 0.782288C139.618 0.749687 139.562 0.684485 139.452 0.619283C139.507 0.619283 139.618 0.554085 139.728 0.521484C139.728 0.554085 139.839 0.586674 139.949 0.651876Z" fill="#93E9AB"/>
<path d="M134.309 0.945437C135.028 0.130414 136.189 0.55423 135.913 1.66266C135.913 1.79307 135.913 1.89087 135.913 1.92347C134.696 2.28208 133.922 1.30405 134.309 0.945437Z" fill="#93E9AB"/>
<path d="M213.159 15.1595C213.214 15.1269 213.269 15.0617 213.38 15.0291C213.491 15.0617 213.712 15.0617 213.822 15.0291C214.541 14.7031 215.315 16.4961 213.767 16.1049C211.832 16.3983 212.661 14.8009 213.159 15.1595V15.1595Z" fill="#93E9AB"/>
<path d="M213.822 23.0163C214.043 23.1467 214.265 23.288 214.486 23.4401C214.265 23.5379 214.099 23.6357 213.933 23.7009C213.159 22.8533 213.159 22.8533 213.38 22.7229C213.38 22.6903 213.269 22.6577 213.214 22.5925C213.159 22.5599 213.048 22.4947 212.993 22.4621C212.993 22.3969 212.993 22.2991 212.993 22.2013C212.993 22.1687 212.882 22.1035 212.827 22.0383C212.827 22.0057 212.827 21.9079 212.827 21.7775C212.827 21.7449 212.827 21.647 212.882 21.5166C212.661 21.3862 213.159 21.158 213.38 21.2885C213.435 21.3537 213.546 21.3862 213.546 21.4188C213.656 21.484 213.712 21.5493 213.767 21.5493C213.878 21.6145 213.933 21.6797 213.988 21.7123C214.043 21.7449 214.154 21.81 214.209 21.8427C214.265 21.9079 214.375 21.9405 214.431 21.9731C214.375 22.1035 214.375 22.2013 214.375 22.2339C214.265 22.2991 214.209 22.3317 214.154 22.3643C214.099 22.4621 214.099 22.5599 214.099 22.6251C213.988 22.7881 213.933 22.9185 213.822 23.0163V23.0163Z" fill="#93E9AB"/>
<path d="M196.405 14.0835C196.183 14.1487 195.962 14.2139 195.741 14.2791C195.575 14.2139 195.465 14.1161 195.409 14.0183C195.686 14.0509 196.073 14.0509 196.405 14.0835V14.0835Z" fill="#93E9AB"/>
<path d="M196.018 21.7774C195.133 21.7122 195.133 21.7122 194.635 21.4839C194.746 21.4187 194.967 21.3209 195.133 21.2231C195.354 21.3535 195.575 21.484 195.796 21.6144C195.907 21.647 196.128 21.6796 196.239 21.647C196.349 21.7122 196.405 21.7448 196.46 21.7774C196.349 21.8426 196.239 21.8752 196.239 21.9078C196.183 21.8752 196.073 21.81 196.018 21.7774V21.7774Z" fill="#93E9AB"/>
<path d="M193.972 21.0602C193.861 21.1254 193.695 21.1906 193.474 21.2884C193.4 21.245 193.327 21.1906 193.253 21.1254C193.419 21.0602 193.529 20.995 193.751 20.8972C193.824 20.9407 193.898 20.995 193.972 21.0602Z" fill="#93E9AB"/>
<path d="M192.811 20.8645C192.258 20.9297 192.258 20.9297 192.313 20.7341C192.479 20.7993 192.645 20.8319 192.811 20.8645Z" fill="#93E9AB"/>
<path d="M189.714 22.1687C189.548 22.2339 189.382 22.3317 189.216 22.4295C189.161 22.3969 189.106 22.3317 188.995 22.2665C189.161 22.2013 189.272 22.1361 189.493 22.0383C189.548 22.0709 189.603 22.1035 189.714 22.1687V22.1687Z" fill="#93E9AB"/>
<path d="M188.166 21.7122C188 21.7774 187.834 21.8752 187.613 21.973C187.502 21.9078 187.392 21.81 187.226 21.7122C187.336 21.6144 187.558 21.5492 187.723 21.4514C187.889 21.5166 188 21.6144 188.166 21.7122Z" fill="#93E9AB"/>
<path d="M186.894 22.3643C186.839 22.3317 186.784 22.2665 186.673 22.2013C186.784 22.1035 186.839 21.9731 186.949 21.8101C187.171 21.9622 187.392 22.1035 187.613 22.2339C187.337 22.2991 187.115 22.3317 186.894 22.3643V22.3643Z" fill="#93E9AB"/>
<path d="M186.839 22.8859C186.783 22.8859 186.673 22.9511 186.618 22.9837C186.562 22.9511 186.452 22.9185 186.396 22.8533C186.452 22.8207 186.507 22.7881 186.618 22.7229C186.673 22.7555 186.728 22.8207 186.839 22.8859Z" fill="#93E9AB"/>
<path d="M206.247 11.4103C206.136 11.4755 206.026 11.5081 206.026 11.5407C205.528 11.7689 205.141 12.2579 204.92 12.5839C203.869 13.1055 197.179 14.9312 201.105 12.6817C201.602 12.3883 202.819 12.4209 203.151 12.2579C203.538 12.3231 203.98 12.3231 204.256 12.1601C204.92 11.8341 205.252 11.7037 205.584 11.2799C205.252 11.0191 205.362 10.6279 205.418 10.3018C205.362 10.2692 205.307 10.2366 205.196 10.1714C205.086 10.2366 205.031 10.2692 204.975 10.3018C204.809 10.3018 204.644 10.3018 204.533 10.2692C204.256 10.3996 203.869 10.1062 204.091 10.0084C203.869 9.84543 204.367 9.61722 204.588 9.74763C204.644 9.81283 204.754 9.87804 204.809 9.87804C204.92 9.91064 205.086 9.94323 205.252 9.91063C205.805 10.041 207.795 9.58462 208.238 9.84543C209.233 10.4648 208.127 11.8667 206.247 11.4103V11.4103Z" fill="#93E9AB"/>
<path d="M160.353 7.56354C160.298 7.59614 160.187 7.66135 160.132 7.69395C159.966 7.62875 159.855 7.53095 159.689 7.43315C159.745 7.40055 159.855 7.33534 159.911 7.30273C160.076 7.36794 160.187 7.46574 160.353 7.56354Z" fill="#93E9AB"/>
<path d="M164.721 12.8122C164.666 12.8122 164.611 12.8774 164.5 12.9426C164.389 12.8448 164.223 12.747 164.058 12.6492C164.113 12.6166 164.223 12.584 164.334 12.5188C164.445 12.6166 164.555 12.6818 164.721 12.8122Z" fill="#93E9AB"/>
<path d="M168.205 18.7782C168.813 18.7782 168.813 18.7781 169.089 19.0715C169.255 19.0063 169.366 18.9412 169.587 18.8434C169.753 18.9412 169.863 19.039 169.974 19.1042C169.753 19.202 169.532 19.202 169.311 19.2346C169.089 19.1694 168.868 19.1368 168.647 19.0715C168.536 19.115 168.426 19.1585 168.315 19.202C168.26 19.2672 168.149 19.2998 168.094 19.3324C167.486 19.691 165.882 19.5606 164.942 19.1042C162.841 18.1261 164.445 17.4741 165.827 17.6697C166.767 17.8001 167.099 18.9412 168.205 18.7782V18.7782Z" fill="#93E9AB"/>
<path d="M172.131 24.5485C171.854 24.6789 171.467 24.3854 171.688 24.255C171.467 24.1246 171.965 23.8638 172.186 24.0268C172.407 23.8964 172.849 24.1898 172.628 24.2876C172.794 24.4506 172.352 24.6789 172.131 24.5485V24.5485Z" fill="#93E9AB"/>
<path d="M163.615 20.3429C163.449 20.1799 163.892 19.9517 164.113 20.0821C164.223 20.1473 164.279 20.2125 164.334 20.2451C164.555 20.3755 164.058 20.6037 163.836 20.4733C163.836 20.4407 163.726 20.3755 163.615 20.3429V20.3429Z" fill="#93E9AB"/>
<path d="M161.459 17.1808C161.348 17.2134 161.127 17.2134 161.016 17.1808C158.86 17.5068 156.04 15.8442 157.754 14.7357C160.574 12.9101 166.767 14.5401 161.459 17.1808Z" fill="#93E9AB"/>
<path d="M172.186 25.983C172.186 25.9504 172.186 25.82 172.186 25.7222C172.352 25.7548 172.518 25.7548 172.684 25.7548C172.905 25.6244 173.347 25.9178 173.071 26.0156C173.071 26.146 173.071 26.2438 173.071 26.2764C172.905 26.309 172.739 26.309 172.573 26.2764C172.573 26.2438 172.462 26.1786 172.407 26.146C172.352 26.1134 172.241 26.0482 172.186 25.983Z" fill="#93E9AB"/>
<path d="M170.693 25.0049C170.638 24.9723 170.582 24.9397 170.472 24.8745C170.251 24.7441 170.748 24.4833 170.969 24.6137C171.08 24.6789 171.135 24.7441 171.191 24.7767C171.191 24.8745 171.135 24.9723 171.135 25.0375C171.025 25.0375 170.804 25.0375 170.693 25.0049V25.0049Z" fill="#93E9AB"/>
<path d="M161.182 21.5818C161.127 21.5492 161.016 21.4841 160.961 21.4515C161.016 21.4189 161.072 21.3536 161.182 21.321C161.348 21.2558 161.514 21.158 161.68 21.0602C161.735 21.0602 161.846 20.995 161.901 20.9624C161.956 20.9298 162.067 20.8646 162.178 20.832C162.288 20.8646 162.454 20.8646 162.62 20.832C162.73 20.8646 162.952 20.8972 163.062 20.8646C163.228 20.9624 163.394 21.0602 163.505 21.158C163.394 21.2884 163.339 21.4188 163.228 21.5166C163.062 21.5492 162.896 21.5492 162.786 21.5166C162.62 21.5166 162.454 21.5167 162.288 21.4841C162.233 21.5493 162.122 21.5819 162.067 21.6145C161.956 21.6471 161.735 21.6145 161.625 21.5818C161.459 21.6145 161.293 21.6145 161.182 21.5818V21.5818Z" fill="#93E9AB"/>
<path d="M162.509 23.8964C162.509 23.8312 162.565 23.7333 162.565 23.6355C162.62 23.6029 162.675 23.5703 162.786 23.5051C162.952 23.5377 163.118 23.5377 163.228 23.5377C163.505 23.4073 163.947 23.7007 163.671 23.7985C163.56 23.8637 163.505 23.8963 163.449 23.9289C163.284 23.9615 163.118 23.9289 162.952 23.9289C162.841 23.9289 162.675 23.929 162.509 23.8964V23.8964Z" fill="#93E9AB"/>
<path d="M159.745 22.0381C159.689 22.0707 159.579 22.1033 159.524 22.1685C159.358 22.0707 159.247 22.0055 159.081 21.8751C159.136 21.8751 159.192 21.8099 159.302 21.7773C159.468 21.8425 159.579 21.9403 159.745 22.0381Z" fill="#93E9AB"/>
<path d="M161.79 24.5159C161.735 24.5485 161.625 24.5811 161.514 24.6463C161.459 24.6137 161.403 24.5485 161.293 24.5159C161.348 24.4833 161.459 24.4181 161.569 24.3855C161.569 24.4181 161.68 24.4507 161.79 24.5159Z" fill="#93E9AB"/>
<path d="M159.192 22.8207C159.026 22.8859 158.86 22.9838 158.639 23.0816C158.528 22.9838 158.418 22.9186 158.252 22.7881C158.362 22.7229 158.583 22.6251 158.749 22.5273C158.915 22.6251 159.026 22.6903 159.192 22.8207Z" fill="#93E9AB"/>
<path d="M159.524 10.2041C159.579 10.1715 159.689 10.1389 159.745 10.0737C159.911 10.1063 160.076 10.1063 160.242 10.1063C160.353 10.1389 160.519 10.1389 160.685 10.1063C160.795 10.1389 161.016 10.1715 161.127 10.1389C161.238 10.2041 161.293 10.2367 161.348 10.2693C161.569 10.1389 162.454 10.7258 162.233 10.8562C162.288 10.9214 162.399 10.9866 162.454 10.9866C162.454 11.117 162.399 11.2148 162.399 11.2474C162.399 11.3778 162.399 11.4756 162.399 11.5408C162.344 11.6386 162.344 11.7364 162.344 11.8016C162.344 11.8994 162.344 11.9972 162.344 12.0624C161.956 12.2254 161.625 12.3884 161.348 12.5514C159.081 12.8774 157.091 11.4104 159.524 10.2041V10.2041Z" fill="#93E9AB"/>
<path d="M147.414 11.3125C147.414 11.2799 147.525 11.2473 147.635 11.1821C147.691 11.1821 147.801 11.1169 147.856 11.0842C148.133 11.0516 148.409 11.0191 148.631 10.9539C148.796 10.8887 148.907 10.7909 149.128 10.6931C149.239 10.6279 149.405 10.5626 149.571 10.4648C150.234 10.8887 150.234 10.8886 150.013 10.9865C150.179 11.1495 149.736 11.3777 149.515 11.2473C149.294 11.3451 149.128 11.4429 148.962 11.5081C148.796 11.7037 148.631 11.8667 148.465 12.0297C148.354 12.0623 148.244 12.1275 148.188 12.1275C147.967 12.2579 147.727 12.3883 147.469 12.5187C147.58 12.5513 147.635 12.6165 147.691 12.6491C147.764 12.6926 147.856 12.7469 147.967 12.8121C148.133 12.9425 148.133 12.9425 147.691 13.2033C147.248 13.0403 146.861 12.9099 146.529 12.7143C146.364 12.8121 146.198 12.9099 146.032 12.9751C145.866 13.0729 145.7 13.1381 145.589 13.2033C141.664 13.7901 140.668 12.1927 142.88 11.4103C143.709 11.1169 146.087 11.5081 147.414 11.3125V11.3125Z" fill="#93E9AB"/>
<path d="M147.414 17.0178C147.359 16.9852 147.248 16.9526 147.193 16.8874C146.972 16.757 147.469 16.4961 147.635 16.6265C147.691 16.6265 147.801 16.5613 147.912 16.5287C147.856 16.4309 147.856 16.3658 147.801 16.2354C147.967 16.3332 148.133 16.4635 148.354 16.5287C148.465 16.594 148.52 16.6592 148.575 16.6918C148.686 16.7244 148.907 16.7244 149.073 16.7244C149.128 16.7896 149.239 16.8222 149.294 16.8548C149.239 16.9852 149.239 17.083 149.239 17.1156C149.792 17.5068 149.073 17.6372 148.52 17.5068C148.354 17.5068 148.188 17.5068 148.078 17.4742C148.022 17.4416 147.912 17.3764 147.856 17.3438C147.783 17.2786 147.691 17.2242 147.58 17.1808C147.58 17.1482 147.469 17.083 147.359 17.0178H147.414Z" fill="#93E9AB"/>
<path d="M146.861 17.8327C146.861 17.7349 146.861 17.6372 146.861 17.5393C146.917 17.5067 147.027 17.4415 147.138 17.4089C147.248 17.4415 147.414 17.4415 147.635 17.4415C147.691 17.5067 147.801 17.5719 147.801 17.6045C147.801 17.9631 147.359 18.1588 146.861 17.8327V17.8327Z" fill="#93E9AB"/>
<path d="M146.032 18.9737C146.032 18.9411 145.921 18.8759 145.866 18.8433C145.866 18.8107 145.976 18.7455 146.087 18.7129C146.308 18.5825 146.972 19.0063 146.695 19.1367C146.64 19.1693 146.529 19.2345 146.474 19.2671C146.419 19.2345 146.363 19.1693 146.253 19.1041C146.253 19.0715 146.142 19.0389 146.032 18.9737V18.9737Z" fill="#93E9AB"/>
<path d="M154.271 0H177.218C177.273 0.586817 177.494 1.23884 178.102 1.63005C180.093 2.96669 182.636 3.26011 181.42 1.23885C181.42 1.20625 181.42 1.07583 181.475 0.978029C181.199 0.749822 180.978 0.521631 180.812 0.260824C180.756 0.260824 180.701 0.195614 180.591 0.130412L180.425 0H181.973C182.01 0.152138 182.01 0.315143 181.973 0.489014C181.973 0.586817 181.918 0.815036 181.918 1.01064C181.973 1.17365 182.028 1.30405 182.083 1.40186C182.194 1.46706 182.249 1.49965 182.305 1.53225C182.802 2.47768 187.005 3.61871 188.498 3.39051C188.553 3.35791 188.663 3.3253 188.774 3.2601C188.774 3.2601 188.885 3.1949 188.995 3.1623C188.774 2.99929 188.774 2.9993 189.493 2.64069C189.659 2.77109 189.825 2.83628 189.935 2.93409C190.156 2.80368 190.433 2.67329 190.709 2.54289C190.967 2.41249 191.207 2.29294 191.428 2.18427C191.539 2.21687 191.594 2.28208 191.649 2.31468C191.649 2.41248 191.649 2.51028 191.594 2.57548C191.815 2.70589 191.318 2.9667 191.152 2.80369C190.875 3.0319 190.599 3.26011 190.322 3.45571C190.322 3.58612 190.322 3.68392 190.267 3.71652C190.156 4.85755 189.493 4.92276 190.986 5.90078C191.152 5.80298 191.262 5.73778 191.483 5.63998C191.649 5.77038 191.76 5.83557 191.871 5.93338C191.207 6.12898 191.207 6.12899 190.765 5.99858C190.322 6.22679 189.935 6.4224 189.548 6.61801C189.493 6.71581 189.493 6.84621 189.493 6.87881C189.493 6.97662 189.493 7.10702 189.493 7.13962C189.659 7.33522 189.935 7.49822 190.156 7.66122C189.603 7.56342 189.106 7.82423 188.885 7.66122C187.281 8.47625 191.594 9.38907 192.589 9.78029C194.359 10.5301 196.018 11.5082 195.962 12.9752C194.801 12.9426 195.078 12.7796 194.027 13.3338C193.916 13.3664 193.806 13.4316 193.751 13.4316C193.751 13.562 193.751 13.6598 193.751 13.6924C193.806 13.7576 193.916 13.8228 193.972 13.8554C194.027 13.888 194.138 13.9532 194.138 13.9858C194.414 13.8554 194.414 13.8554 194.801 14.1488C194.635 14.2466 194.469 14.3118 194.359 14.377C194.138 14.4748 193.972 14.5726 193.861 14.6378C193.861 14.7356 193.806 14.8334 193.806 14.8986C193.916 14.9638 193.972 14.9964 194.027 15.0291C194.027 15.1269 194.027 15.2573 194.027 15.2899C193.972 15.2573 193.861 15.2246 193.806 15.1594C193.695 15.2029 193.585 15.2464 193.474 15.2899C193.695 15.3225 193.861 15.3225 194.027 15.2899C193.916 15.4529 193.806 15.6159 193.695 15.7137C193.585 15.5833 193.585 15.4529 193.474 15.2899C193.363 15.2247 193.253 15.1269 193.087 15.0291H193.032V15.0616H192.976V15.0943H192.921V15.1268H192.866L192.589 15.2573C192.589 15.3551 192.589 15.4855 192.534 15.5181C192.645 15.5833 192.755 15.6485 192.755 15.6811C192.866 15.7137 192.921 15.7789 192.976 15.8115C193.032 15.9745 193.087 16.1049 193.142 16.2027C193.032 17.0503 193.253 17.6371 193.142 18.4847C193.142 18.5825 193.142 18.6803 193.142 18.7455C193.032 18.7781 192.921 18.8434 192.866 18.8434C192.811 19.528 189.106 21.484 187.779 21.158C187.558 21.1254 187.336 21.0928 187.115 21.0276C186.949 21.0276 186.783 21.0276 186.618 21.0276C186.12 20.7016 185.014 20.832 184.351 20.3756C184.295 20.343 184.24 20.3104 184.129 20.2452C184.019 20.2452 183.798 20.2452 183.687 20.2126C181.862 19.0064 180.093 19.8214 179.042 18.5499C179.042 18.5173 179.042 18.4195 179.098 18.2891C178.932 18.2239 178.821 18.1261 178.655 18.0283C178.6 17.9957 178.545 17.9305 178.434 17.8653C178.434 17.8327 178.489 17.7349 178.489 17.6045C178.268 17.4741 178.047 17.3437 177.826 17.2133C177.715 17.2133 177.549 17.2133 177.383 17.1807C176.167 16.3657 173.789 16.7895 171.854 15.4855C171.799 15.4529 171.743 15.3877 171.633 15.3551C171.578 15.3225 171.522 15.2573 171.412 15.1921C169.532 14.6378 168.647 14.54 166.988 13.4316C167.099 12.258 166.712 12.9752 165.938 12.4536C165.772 12.4862 165.606 12.4862 165.44 12.4536C165.329 12.4536 165.163 12.4536 164.998 12.421C164.776 12.5514 163.726 11.8341 163.947 11.7363C163.892 11.7037 163.836 11.6385 163.726 11.5733C163.726 11.5407 163.781 11.4103 163.781 11.3125C163.781 11.2799 163.781 11.1495 163.781 11.0517C163.781 11.0191 163.671 10.9865 163.615 10.9213C163.671 10.8561 163.671 10.7257 163.671 10.6279C163.726 10.5953 163.836 10.5627 163.892 10.4975C164.058 10.5301 164.223 10.5627 164.389 10.5301C164.666 10.3671 164.998 10.2041 165.329 10.0411C165.274 10.0085 165.219 9.9433 165.108 9.9107C165.053 9.9433 164.942 10.0085 164.887 10.0085C164.776 10.0411 164.555 10.0411 164.445 10.0085C164.334 9.91069 164.168 9.8455 164.002 9.7151C164.002 9.6825 164.058 9.55208 164.058 9.45428C164.113 9.45428 164.168 9.38908 164.279 9.35648C164.445 9.35648 164.611 9.38908 164.721 9.35648C164.942 9.45428 165.163 9.48688 165.385 9.51948C167.818 8.31325 165.551 6.32459 162.841 5.60737C160.408 4.95535 157.975 6.5202 156.427 7.30262C156.427 7.40042 156.372 7.49822 156.372 7.56342C156.372 7.66123 156.372 7.75903 156.372 7.82423C156.261 7.85683 156.151 7.92205 156.095 7.92205C156.095 8.05245 156.095 8.15025 156.095 8.18285C155.985 8.24805 155.874 8.28064 155.819 8.31324C151.506 10.5301 148.299 10.3019 149.405 8.86746C150.842 6.94401 153.331 8.34586 155.266 7.36783C155.266 7.33523 155.266 7.20483 155.321 7.10702C155.763 6.87882 155.985 6.84621 156.04 6.4876C156.095 6.455 156.206 6.42239 156.316 6.35719C156.427 6.25938 156.538 6.09639 156.593 5.96599C156.593 5.93339 156.482 5.86819 156.427 5.80299C156.427 5.77038 156.427 5.67257 156.427 5.54216C156.372 5.50956 156.316 5.47697 156.206 5.41177C156.261 5.34657 156.261 5.24877 156.261 5.15097C156.206 5.11837 156.151 5.05316 156.04 5.02055C155.745 4.82495 155.45 4.62935 155.155 4.43374C154.215 3.1297 153.773 2.8689 153.939 1.33665C153.939 1.30405 153.939 1.20625 153.994 1.07585C153.994 1.04325 153.994 0.945428 153.994 0.815024C154.049 0.815024 154.16 0.749826 154.271 0.717225C154.215 0.619422 154.215 0.521631 154.215 0.423828C154.215 0.358626 154.271 0.260808 154.271 0.163005V0Z" fill="#93E9AB"/>
<path d="M161.182 35.4699L179.263 0H242.796V35.4699H161.182Z" fill="#9DD9D9"/>
<path d="M215.205 0L242.796 4.69455V35.4699H175.835L193.916 0H215.205Z" fill="#6DCBD4"/>
<path d="M204.257 4.75977L242.797 11.28V35.4699H188.608L204.257 4.75977Z" fill="#48C3D0"/>
<path d="M213.38 13.3337L242.796 18.3217V35.4698H202.1L213.38 13.3337Z" fill="#1FB8C4"/>
<path d="M0 17.8654L44.4012 13.9207L50.1518 35.4699H0V17.8654Z" fill="#FFF8AD"/>
<path d="M0 22.7882L37.3788 19.4629L41.6365 35.47H0V22.7882Z" fill="#FECB0B"/>
<path d="M2.81996 35.4699L1.10583 29.0475L28.2 26.635L30.5776 35.4699H2.81996Z" fill="#F4913B"/>
<path fill-rule="evenodd" clip-rule="evenodd" d="M217.195 19.6258C212.882 19.6258 212.882 19.6258 212.882 19.8214C213.988 19.854 215.094 19.8866 216.255 19.9518C216.532 19.9844 216.863 20.017 217.25 20.017V21.2558C217.029 21.2558 216.808 21.245 216.587 21.2232C216.366 20.8972 216.145 20.5712 215.979 20.2778C214.947 20.343 213.914 20.4082 212.882 20.4734C212.882 20.9624 212.882 21.4514 212.882 21.973C212.606 21.973 212.385 21.973 212.163 21.973C212.163 22.1686 212.163 22.1686 213.269 22.1686C213.269 22.299 213.269 22.4295 213.269 22.5925C213.103 22.5925 212.993 22.5925 212.882 22.5925C212.495 22.5925 212.163 22.5925 211.832 22.5925C211.832 23.1141 211.832 23.6031 211.832 24.1247C211.832 24.1899 211.832 24.2551 211.832 24.3529C212.163 24.3529 212.495 24.3529 212.882 24.3529C212.882 24.2551 212.882 24.1899 212.882 24.1247C212.993 24.1247 213.103 24.1247 213.269 24.1247C213.38 24.1247 213.509 24.1247 213.656 24.1247C213.767 24.1247 213.878 24.1247 214.043 24.1247C214.043 24.1464 214.043 24.179 214.043 24.2225C213.767 24.2551 213.546 24.2877 213.269 24.3529C213.269 24.7767 213.269 24.7767 213.656 24.7767C213.656 24.9071 213.656 25.0375 213.656 25.2005C213.878 25.2005 214.099 25.2005 214.375 25.2005C214.375 25.0375 214.375 24.9071 214.375 24.7767C214.099 24.7767 213.878 24.7767 213.656 24.7767C213.656 24.6789 213.656 24.6137 213.656 24.5485C213.988 24.5485 214.375 24.5485 214.762 24.5485C214.762 24.4181 214.762 24.3203 214.762 24.2225C214.873 24.1138 214.983 24.016 215.094 23.9291C215.205 23.9291 215.37 23.9291 215.536 23.9291C215.536 23.5596 215.536 23.1901 215.536 22.8207C215.37 22.8207 215.205 22.8207 215.094 22.8207C214.707 22.7229 214.375 22.6577 214.043 22.5925C213.878 22.5925 213.767 22.5925 213.656 22.5925C213.712 22.2339 213.822 21.9078 213.933 21.5818C214.43 21.6144 214.928 21.6796 215.536 21.7448C215.536 21.9404 215.536 22.1686 215.536 22.3968C215.979 22.3968 216.476 22.3968 216.974 22.3968C216.974 22.299 216.974 22.2338 216.974 22.1686C216.587 22.1686 216.255 22.1686 215.923 22.1686C215.923 22.0056 215.923 21.8752 215.923 21.7448C216.366 21.7448 216.808 21.7557 217.25 21.7774L217.195 22.5925C217.121 22.5925 217.048 22.5925 216.974 22.5925C216.587 22.5925 216.255 22.5925 215.923 22.5925C215.923 23.0815 215.979 23.5379 216.034 24.0269C216.31 24.0595 216.642 24.0921 216.974 24.1247C217.048 23.7987 217.14 23.4727 217.25 23.1467V30.8079C216.956 30.8731 216.679 30.9274 216.421 30.9709C215.979 31.0361 215.536 31.1013 215.094 31.1991C214.983 31.0361 214.928 30.8731 214.873 30.7427C214.596 30.7101 214.32 30.6775 214.043 30.6775C214.043 30.8731 214.043 31.0687 214.043 31.2969C214.265 31.2969 214.486 31.2969 214.762 31.2969C214.928 31.4273 215.149 31.5577 215.426 31.7533C215.923 31.5251 216.421 31.3621 216.974 31.1991C217.085 31.1991 217.177 31.1991 217.25 31.1991V32.5358C217.029 32.3075 216.863 32.3075 216.089 32.1771C216.145 32.3727 216.2 32.6009 216.255 32.8292C216.532 32.7966 216.863 32.764 217.25 32.7314V33.1552C216.863 33.1552 216.532 33.1552 216.255 33.1552C216.255 33.3182 216.31 33.4812 216.366 33.6442C216.661 33.6659 216.956 33.6985 217.25 33.742V35.4698H193.806V34.8504H193.916C194.764 34.7852 195.612 34.72 196.46 34.6548H193.806V13.5294C193.695 14.051 193.585 14.1162 193.198 14.4748C193.198 15.2572 193.198 16.0397 193.198 16.8221C192.976 16.8221 192.866 16.8221 192.755 16.8221C192.755 16.1701 192.755 15.518 192.755 14.8986C192.589 14.3444 192.479 13.8554 192.368 13.3664C192.368 13.8554 192.368 14.3444 192.368 14.8986C192.368 16.3657 192.368 17.8653 192.368 19.3976C192.313 19.6258 192.258 19.8866 192.202 20.1474C191.815 18.0935 191.815 18.0935 191.649 10.5953C191.649 9.06306 191.649 7.56342 191.649 6.09637C192.423 6.03117 193.253 5.99858 194.082 5.96598C194.58 5.99858 195.188 6.03117 195.741 6.09637C195.741 6.00944 195.759 5.93337 195.796 5.86816H204.256C204.643 5.90077 204.809 5.96597 205.252 6.19417C205.528 6.19417 205.805 6.19417 206.192 6.19417C206.358 6.25938 206.523 6.32459 206.745 6.38979C206.966 6.38979 207.187 6.38979 207.463 6.38979C207.74 7.49822 207.74 7.49823 207.685 16.3983C207.795 16.6591 207.961 16.9525 208.072 17.2459C208.182 18.4847 208.293 19.7562 208.459 20.995C208.68 20.995 208.901 20.995 209.178 20.995C209.288 20.669 209.399 20.343 209.509 20.0496C209.62 20.0496 209.786 20.0496 209.952 20.0496C212.053 20.0061 214.154 19.9735 216.255 19.9518C216.532 19.9844 216.863 20.017 217.25 20.017L217.195 19.6258ZM193.75 9.42168H193.474C193.474 9.58468 193.474 9.74768 193.474 9.94328H193.75V9.42168ZM204.035 14.5726C204.201 14.0184 204.256 13.6272 204.09 12.9752C204.699 12.747 204.699 12.747 204.865 12.3232C204.312 12.2254 204.09 11.9319 203.316 11.8993C203.316 11.7689 203.316 11.6711 203.316 11.5733C203.482 11.2473 203.648 10.8887 203.869 10.5953C203.593 9.94328 203.316 9.74769 202.598 9.32388C202.487 9.32388 202.376 9.32388 202.266 9.32388C202.045 9.22607 201.934 9.16087 201.823 9.09567C201.326 9.09567 200.828 9.09567 200.386 9.09567C199.999 9.12827 199.722 9.16086 199.446 9.19346C198.948 9.19346 198.45 9.19346 197.953 9.19346C197.4 9.16086 196.902 9.16087 196.349 9.16087C196.239 9.25867 196.128 9.38907 196.073 9.51947C195.852 9.55208 195.686 9.58468 195.52 9.64989C195.354 9.45428 195.243 9.25867 195.133 9.09567C194.856 9.06306 194.58 9.03047 194.359 8.99787C194.303 9.12827 194.248 9.25867 194.193 9.42168H193.75L204.035 14.5726ZM203.925 14.8986C203.925 15.029 203.925 15.1594 203.925 15.3224C203.925 15.8767 203.925 16.4309 203.925 17.0503C203.98 17.1807 204.035 17.3111 204.09 17.4741C204.588 17.5067 205.141 17.5719 205.694 17.6371C205.473 18.9086 205.473 18.9085 205.252 18.6477C205.141 18.7455 205.03 18.8433 204.92 18.9737C205.141 19.7562 205.141 19.7562 204.92 20.2452C205.196 20.5712 205.749 21.2232 204.92 21.4514C204.809 21.5492 204.754 21.647 204.699 21.7774C204.699 21.9078 204.699 22.0382 204.699 22.2013C204.809 22.3317 204.92 22.4621 205.086 22.6251C205.749 23.0163 205.749 23.3423 205.805 23.9291C206.026 23.9291 206.247 23.9291 206.579 23.9291C206.579 24.8419 206.579 24.9723 205.418 25.6569C205.418 25.7221 205.418 25.7874 205.418 25.8526C205.639 25.9178 205.86 25.9829 206.136 26.0808C206.192 26.2438 206.247 26.4068 206.358 26.6024C206.358 26.6676 206.358 26.7328 206.358 26.8306C206.192 27.0588 206.081 27.3196 205.97 27.5804C205.97 27.9716 205.97 28.3628 205.97 28.754C205.97 28.917 205.97 29.0801 205.97 29.2757C205.97 29.3409 205.97 29.406 205.97 29.5039C205.97 29.6125 205.97 29.7212 205.97 29.8299C206.136 29.8299 206.302 29.8299 206.579 29.8299C206.8 29.9929 207.021 30.1885 207.298 30.3841C207.076 31.0687 206.91 31.7859 206.745 32.5031C207.187 32.5683 207.685 32.6336 208.182 32.7314C208.182 32.5357 208.182 32.3401 208.182 32.1771C208.514 32.1445 208.846 32.1119 209.178 32.0793C208.79 31.5577 208.79 31.5577 208.79 30.8079C208.735 30.3189 208.68 29.8625 208.625 29.3735C208.625 29.3083 208.625 29.243 208.625 29.1778C208.68 29.0474 208.735 28.9496 208.79 28.8518C209.288 28.6562 209.288 28.6562 209.399 28.1998C209.178 28.1346 208.956 28.0694 208.79 28.0042C208.68 27.7108 208.569 27.4174 208.459 27.1566C208.459 26.7871 208.459 26.4285 208.459 26.0808C208.569 25.4939 208.68 24.9071 208.79 24.3529C208.956 24.3855 209.122 24.4181 209.288 24.4833C209.343 24.3529 209.399 24.2225 209.509 24.1247C209.509 23.8313 209.509 23.5379 209.509 23.2771C209.343 23.3749 209.178 23.4727 209.012 23.6031C209.012 23.2119 209.012 22.8207 209.012 22.4295C208.459 22.4295 208.459 22.4295 208.459 22.6251C208.238 22.6251 208.127 22.6251 208.016 22.6251C208.016 22.9728 208.016 23.3314 208.016 23.7009C207.961 23.1467 207.906 22.6251 207.85 22.1035C207.924 21.734 207.979 21.3645 208.016 20.995C208.016 20.9298 208.016 20.8646 208.016 20.7994C207.906 19.3324 207.795 17.8653 207.685 16.3983L204.035 14.5726C203.998 14.6813 203.961 14.79 203.925 14.8986V14.8986ZM193.861 10.5627C193.898 10.4975 193.935 10.4214 193.972 10.3345C193.935 10.4214 193.898 10.4975 193.861 10.5627ZM193.861 13.073C193.824 13.0513 193.806 13.0187 193.806 12.9752V10.7909C193.843 10.7257 193.861 10.6496 193.861 10.5627C193.529 11.3777 193.474 12.421 193.861 13.073ZM192.368 13.1708C192.479 13.1708 192.589 13.1708 192.755 13.1708C192.755 12.8122 192.755 12.421 192.755 12.095C192.589 12.095 192.479 12.095 192.368 12.095C192.368 12.421 192.368 12.8122 192.368 13.1708ZM192.921 25.5591C192.884 24.7985 192.829 24.0378 192.755 23.2771C192.755 22.8859 192.755 22.4947 192.755 22.1035C192.866 22.1035 192.976 22.1035 193.142 22.1035C193.142 22.1252 193.142 22.1578 193.142 22.2013C193.308 22.3969 193.474 22.6251 193.695 22.8533C193.363 22.8533 193.363 22.8533 193.308 24.4507C193.253 24.7441 193.198 25.0701 193.142 25.3961C193.032 25.4287 192.976 25.4939 192.921 25.5591V25.5591ZM203.206 25.7547C202.469 25.7113 201.731 25.6787 200.994 25.6569C200.718 25.7221 200.552 25.7874 200.386 25.8526C200.441 25.9178 200.496 25.9829 200.552 26.0808C202.1 25.9503 202.1 25.9503 203.206 26.0808C203.206 25.9503 203.206 25.8525 203.206 25.7547V25.7547ZM198.174 24.3529C198.395 24.3529 198.616 24.3529 198.893 24.3529C199.667 24.3529 200.423 24.3529 201.16 24.3529C201.16 24.2225 201.16 24.1247 201.16 24.0269C199.649 24.0704 198.156 24.103 196.681 24.1247C197.123 24.1899 197.676 24.2551 198.174 24.3529ZM200.994 25.2983C200.367 25.2766 199.722 25.244 199.059 25.2005C198.561 25.2331 198.063 25.2657 197.621 25.2983C198.672 25.3309 199.833 25.3635 200.994 25.3961C200.994 25.3744 200.994 25.3418 200.994 25.2983ZM206.579 9.32388C206.358 9.32388 206.247 9.32388 206.136 9.32388C206.136 10.4323 206.136 11.5733 206.136 12.747C206.136 13.236 206.136 13.725 206.136 14.2466C206.247 14.2466 206.358 14.2466 206.579 14.2466C206.634 13.9206 206.689 13.5946 206.745 13.3012C206.745 13.073 206.745 12.8448 206.745 12.6492C206.8 12.0624 206.855 11.5407 206.966 11.0191C206.966 10.6714 206.966 10.3128 206.966 9.94328C206.8 9.94328 206.689 9.94328 206.579 9.94328C206.579 9.71508 206.579 9.51948 206.579 9.32388V9.32388ZM206.413 14.5074C206.358 14.8334 206.302 15.1594 206.247 15.5181C206.358 15.4529 206.579 15.3876 206.745 15.3224C206.745 15.1268 206.745 14.9638 206.745 14.8008C206.634 14.703 206.468 14.6052 206.413 14.5074V14.5074ZM206.966 18.7782C207.003 18.0175 207.058 17.2568 207.132 16.4961C207.169 17.322 207.224 18.1479 207.298 18.9737C207.298 19.4302 207.298 19.8866 207.298 20.3756C207.242 20.995 207.187 21.647 207.132 22.299C207.076 21.647 207.021 20.995 206.966 20.3756C206.966 20.18 206.966 19.9844 206.966 19.8214C206.8 19.8214 206.689 19.8214 206.579 19.8214C206.579 19.4628 206.579 19.1042 206.579 18.7782C206.689 18.7782 206.8 18.7782 206.966 18.7782V18.7782ZM195.741 20.4734C196.073 20.5386 196.46 20.6038 196.847 20.669C197.013 20.6364 197.179 20.6038 197.455 20.5712C197.289 20.4408 197.123 20.343 197.013 20.2452C196.57 20.3104 196.128 20.3756 195.741 20.4734V20.4734ZM196.128 32.0793C195.962 32.1119 195.852 32.1445 195.741 32.1771C195.741 32.2097 195.741 32.2423 195.741 32.3075C196.183 32.3075 196.681 32.3075 197.179 32.3075C197.805 32.3075 198.432 32.3075 199.059 32.3075C198.063 32.2097 197.068 32.1445 196.128 32.0793V32.0793ZM201.326 33.3508C201.658 33.3508 202.045 33.3508 202.432 33.3508C203.058 33.3508 203.685 33.3508 204.312 33.3508C204.312 33.1552 201.326 33.1552 201.326 33.3508ZM209.896 20.0496C209.73 20.0496 209.62 20.0496 209.509 20.0496C209.509 19.8866 209.509 19.7562 209.509 19.6258C210.505 19.6258 211.5 19.6258 212.55 19.6258C212.55 19.8214 212.55 19.8214 209.896 20.0496ZM214.099 25.6896C214.375 25.7222 214.652 25.7548 214.983 25.7874C214.873 25.3635 214.873 25.3635 214.375 25.2983C214.265 25.3961 214.154 25.5592 214.099 25.6896ZM212.882 26.8306C212.882 26.635 212.882 26.472 212.882 26.309C212.495 26.309 212.163 26.309 211.776 26.309C211.887 26.472 211.998 26.635 212.163 26.8306C212.385 26.8306 212.606 26.8306 212.882 26.8306ZM215.094 28.1998C214.983 28.0042 214.873 27.8412 214.762 27.6782C214.541 27.7434 214.32 27.8412 214.099 27.939C214.154 28.0042 214.265 28.102 214.375 28.1998C214.596 28.1998 214.818 28.1998 215.094 28.1998V28.1998ZM212.55 28.1998C212.385 28.0368 212.219 27.8738 212.053 27.7108C211.942 27.8738 211.832 28.0368 211.776 28.1998C211.998 28.1998 212.274 28.1998 212.55 28.1998ZM210.947 28.1998C210.947 28.0368 210.947 27.9064 210.947 27.776C210.67 27.7434 210.449 27.7108 210.173 27.7108C210.173 27.9064 210.173 28.102 210.283 28.3302C210.505 28.265 210.726 28.2324 210.947 28.1998ZM217.14 29.4061C216.698 29.3409 216.31 29.3083 215.923 29.2757C215.923 29.4061 215.923 29.5365 215.923 29.7321C216.31 29.6017 216.698 29.5039 217.14 29.4061ZM214.928 29.4713C214.596 29.4061 214.32 29.3409 214.043 29.2757C214.043 29.4061 214.043 29.5365 214.043 29.7321C214.32 29.6017 214.596 29.5365 214.928 29.4713ZM213.269 29.6017C212.882 29.3735 212.882 29.3735 211.776 29.2757C211.776 29.3735 211.776 29.4713 211.776 29.6017C212.274 29.6017 212.772 29.6017 213.269 29.6017ZM211.058 29.3735C210.67 29.3409 210.283 29.3083 209.896 29.2757C209.896 29.4387 209.896 29.6017 209.896 29.8299C210.118 29.8299 210.394 29.8299 210.67 29.8299C210.781 29.6343 210.892 29.5039 211.058 29.3735V29.3735ZM213.048 30.1559C212.716 30.0581 212.716 30.0581 211.776 30.3841C212.219 30.2863 212.606 30.2211 213.048 30.1559ZM212.716 31.2317C212.882 31.2317 213.048 31.2317 213.269 31.2317C213.269 31.0687 213.269 30.9383 213.269 30.8079C212.772 30.8079 212.274 30.8079 211.776 30.8079C212.053 31.1665 212.053 31.1665 212.716 31.2317ZM211.058 31.2317C210.947 30.8079 210.947 30.8079 210.449 30.7101C210.283 30.8731 210.062 31.0361 209.896 31.2317C210.283 31.2317 210.67 31.2317 211.058 31.2317ZM211.279 32.5358C211.002 32.4054 210.726 32.2749 210.449 32.1771C210.283 32.3401 210.062 32.5357 209.896 32.7314C210.376 32.6662 210.836 32.601 211.279 32.5358ZM212.219 32.3075C212.219 32.4379 212.274 32.5683 212.329 32.7314C212.606 32.764 212.938 32.7966 213.269 32.8292C213.269 32.6661 213.269 32.5357 213.269 32.4053C212.882 32.3727 212.55 32.3401 212.219 32.3075ZM193.861 13.073C193.861 13.0947 193.879 13.1165 193.916 13.1382C193.879 13.1165 193.861 13.0947 193.861 13.073ZM194.082 10.1389C194.045 10.2041 194.009 10.2693 193.972 10.3345C194.009 10.2693 194.045 10.2041 194.082 10.1389Z" fill="#3C85A1"/>
<path fill-rule="evenodd" clip-rule="evenodd" d="M219.628 22.3969C219.96 22.4621 220.347 22.5273 220.734 22.5925C220.623 22.7229 220.568 22.8533 220.513 23.0489C220.789 23.0489 221.176 23.0489 221.508 23.0489C221.287 23.3423 221.121 23.6357 220.955 23.9291C221.176 23.9943 221.398 24.0595 221.674 24.1247C221.729 24.3855 221.785 24.6789 221.84 24.9724C221.563 25.0702 221.342 25.168 221.121 25.2984C221.287 25.3962 221.453 25.494 221.674 25.6244C221.729 25.7874 221.785 25.983 221.895 26.1786C221.453 26.309 220.992 26.4394 220.513 26.5698C220.513 26.7002 220.513 26.8306 220.513 26.9936C220.402 27.1892 220.292 27.45 220.236 27.6782C220.458 27.7434 220.679 27.8086 220.955 27.9064C220.955 28.0694 220.955 28.2324 220.955 28.4281C221.232 28.4607 221.508 28.4932 221.84 28.5258C221.766 28.9171 221.711 29.3083 221.674 29.6995C221.453 29.7321 221.287 29.7647 221.121 29.7973C221.895 30.3515 222.282 30.6449 221.508 31.2969C221.785 31.4599 222.061 31.6882 222.393 31.8838C222.338 32.112 222.282 32.3402 222.227 32.601C221.508 32.601 221.508 32.601 221.121 32.8292C221.508 33.0574 221.95 33.3182 222.393 33.579C222.559 33.5464 222.78 33.5138 223.001 33.4812C223.167 33.4812 223.333 33.4812 223.554 33.4812C223.738 33.4812 223.904 33.4812 224.052 33.4812C224.273 33.5138 224.549 33.5464 224.881 33.579C225.029 33.579 225.194 33.579 225.379 33.579C225.379 33.4812 225.379 33.416 225.379 33.3508C225.379 33.3073 225.379 33.2747 225.379 33.253C225.434 32.6336 225.489 32.0468 225.6 31.4273C225.6 31.1991 225.6 30.9709 225.6 30.7753C225.6 28.841 225.6 26.9067 225.6 24.9724C225.489 23.7335 225.434 22.4621 225.379 21.2232C225.379 20.995 225.379 20.995 225.932 20.995C226.042 21.0602 226.153 21.1254 226.319 21.2232C226.466 21.2232 226.595 21.2232 226.706 21.2232C226.982 21.9079 226.982 21.9079 226.927 24.0269C226.964 24.4181 227.019 24.8094 227.093 25.2006C227.093 26.0482 227.093 26.9067 227.093 27.776C227.203 27.776 227.314 27.776 227.425 27.776C227.425 27.2762 227.425 26.7763 227.425 26.2764C227.425 26.1134 227.425 25.9504 227.425 25.82C227.48 25.005 227.535 24.1899 227.646 23.3749C227.646 23.3097 227.646 23.2445 227.646 23.1793C227.48 22.4621 227.369 21.7775 227.259 21.1254C227.48 21.0602 227.701 21.0276 227.978 20.995C228.051 20.9298 228.107 20.8646 228.143 20.7994C227.038 20.7342 225.932 20.7016 224.881 20.669C224.881 20.4734 224.881 20.4734 230.466 20.4734C230.466 20.5712 230.466 20.669 230.466 20.7994C230.798 20.832 231.129 20.8646 231.516 20.8972C231.848 20.8646 232.29 20.832 232.678 20.7994C232.788 20.7342 232.899 20.7016 233.009 20.669C233.12 20.6364 233.23 20.6038 233.396 20.5712C233.396 20.7342 233.396 20.9298 233.396 21.1254C233.507 21.4515 233.618 21.8101 233.783 22.1687C233.783 22.6033 233.783 23.038 233.783 23.4727C233.949 23.1141 234.06 22.7229 234.17 22.3969C234.336 22.3969 234.502 22.4295 234.723 22.4621C234.76 23.0924 234.816 23.7226 234.889 24.3529C234.945 26.9284 235 29.5365 235.055 32.1772C235.11 28.8193 235.166 25.494 235.276 22.1687C235.387 21.8101 235.498 21.4515 235.608 21.1254C235.608 21.4515 235.608 21.8101 235.608 22.1687C235.608 22.7881 235.608 23.4727 235.608 24.1247C235.719 24.1247 235.885 24.1247 236.05 24.1247C236.05 23.0815 236.05 22.0057 236.05 20.995C235.663 20.7668 235.663 20.7668 235.608 20.8972C235.221 20.7994 234.889 20.7342 234.558 20.669C234.558 20.506 234.558 20.3756 234.558 20.2452C234.392 20.2452 234.281 20.2452 234.17 20.2452C234.17 19.9518 234.17 19.6584 234.17 19.3976C234.945 19.365 235.829 19.365 236.659 19.365C236.769 19.691 236.935 20.017 237.101 20.3756C237.267 20.4734 237.433 20.5712 237.709 20.669C237.93 20.7342 238.152 20.7994 238.428 20.8972C238.594 20.8972 238.76 20.8972 238.981 20.8972C238.981 20.7342 238.981 20.6038 238.981 20.4734C239.866 20.4734 240.695 20.4734 241.635 20.4734C241.635 20.5712 241.635 20.669 241.635 20.7994C241.856 20.832 242.078 20.8646 242.354 20.8972C242.428 21.6579 242.483 22.4186 242.52 23.1793C242.52 23.7335 242.52 24.2877 242.52 24.8746C242.575 25.5266 242.63 26.2112 242.741 26.8958C242.741 27.2653 242.741 27.6348 242.741 28.0042C242.741 28.4172 242.741 28.841 242.741 29.2757L242.796 29.3735V35.4699H217.25V33.742C217.287 33.7637 217.343 33.7746 217.416 33.7746C217.416 33.5464 217.416 33.3508 217.416 33.1552C217.343 33.1552 217.287 33.1552 217.25 33.1552V32.7314C217.287 32.7314 217.343 32.7314 217.416 32.7314C217.343 32.6444 217.287 32.5793 217.25 32.5358V31.1991C217.416 31.1991 217.416 31.1013 217.416 30.7753C217.343 30.7971 217.287 30.8079 217.25 30.8079V23.1467C217.287 22.9728 217.343 22.7881 217.416 22.5925C217.343 22.5925 217.269 22.5925 217.195 22.5925L217.25 21.7775C217.435 21.7775 217.619 21.7775 217.803 21.7775C217.748 21.9731 217.748 22.1687 217.748 22.3969C218.301 22.8207 218.301 22.8207 218.467 23.5705C218.578 22.7881 218.688 22.0383 218.854 21.321C218.301 21.2993 217.767 21.2776 217.25 21.2558V20.017L217.416 20.1474L218.854 20.995C218.928 20.995 219.001 20.995 219.075 20.995L219.628 22.0709C220.015 21.9079 220.015 21.9079 220.734 21.9731C220.789 21.7123 220.9 21.484 221.01 21.2558C220.513 21.1906 220.07 21.1581 219.628 21.1254C219.241 20.8646 219.241 20.8646 219.075 20.995L219.628 22.0709C219.628 22.1687 219.628 22.2665 219.628 22.3969V22.3969ZM217.416 20.0496C217.343 20.0496 217.287 20.0387 217.25 20.017L217.195 19.6258C217.269 19.6258 217.343 19.6258 217.416 19.6258C217.416 19.7562 217.416 19.8866 217.416 20.0496V20.0496ZM218.854 20.995L217.416 20.1474C217.748 20.18 218.135 20.2452 218.522 20.3104C218.633 20.5278 218.743 20.756 218.854 20.995ZM220.513 23.9291C220.402 23.7661 220.292 23.6031 220.181 23.4727L220.513 23.9291ZM237.875 21.9731C237.765 21.7775 237.709 21.5819 237.654 21.4188C237.654 23.4184 237.654 25.4179 237.654 27.4174C237.709 25.5918 237.765 23.7987 237.875 21.9731V21.9731ZM229.692 22.3969C229.526 22.3969 229.415 22.3969 229.305 22.3969C229.305 22.8316 229.305 23.2662 229.305 23.7009C229.231 24.4399 229.176 25.1897 229.139 25.9504C229.194 28.0694 229.249 30.1559 229.305 32.3076C229.415 31.6882 229.526 31.1013 229.692 30.5471C229.692 29.2648 229.692 27.9825 229.692 26.7002C229.692 25.2658 229.692 23.8313 229.692 22.3969ZM239.147 23.6031C239.11 22.8424 239.055 22.0817 238.981 21.321C238.87 22.2339 238.76 23.1467 238.649 24.1247C238.815 23.9291 238.981 23.7661 239.147 23.6031ZM231.516 21.9731C231.406 21.9731 231.295 21.9731 231.185 21.9731C231.295 22.2665 231.406 22.5925 231.516 22.9185C231.516 22.5925 231.516 22.2665 231.516 21.9731ZM238.262 24.5485C238.262 24.9615 238.262 25.3853 238.262 25.82C238.373 25.82 238.483 25.82 238.649 25.82C238.649 25.3853 238.649 24.9615 238.649 24.5485C238.483 24.5485 238.373 24.5485 238.262 24.5485ZM235.608 27.3196C235.719 27.3196 235.829 27.3196 235.995 27.3196C235.829 26.9284 235.719 26.5372 235.608 26.146C235.608 26.5372 235.608 26.9284 235.608 27.3196ZM227.093 29.6995C226.927 29.6995 226.761 29.6995 226.65 29.6995C226.65 31.0361 226.65 32.4054 226.65 33.7746C226.761 33.7746 226.927 33.7746 227.093 33.7746C227.093 33.6116 227.093 33.4812 227.093 33.3508C227.093 32.1337 227.093 30.9166 227.093 29.6995ZM237.488 30.4493C237.488 29.8299 237.488 29.2105 237.488 28.6237C237.322 29.0475 237.212 29.4713 237.101 29.9277C237.046 30.6449 236.99 31.3947 236.935 32.1772C236.659 32.3076 236.438 32.438 236.216 32.601C236.216 32.6662 236.216 32.7314 236.216 32.8292C236.253 32.8509 236.309 32.8835 236.382 32.927C236.99 33.7094 236.99 33.7094 237.322 33.6768C237.378 32.601 237.433 31.4925 237.488 30.4493V30.4493ZM230.41 29.5039C230.41 30.0038 230.41 30.4928 230.41 30.9709C230.632 30.8405 230.853 30.7101 231.074 30.5797C230.798 29.5039 230.798 29.5039 230.41 29.5039ZM238.262 31.1013C238.152 31.1013 238.023 31.1013 237.875 31.1013C237.93 31.786 238.041 32.5358 238.096 33.253C238.152 32.5358 238.207 31.786 238.262 31.1013V31.1013ZM232.678 29.5039C232.622 27.2218 232.567 24.9723 232.512 22.7229C232.346 23.7661 232.29 24.7767 232.235 25.82C232.235 27.0262 232.235 28.265 232.235 29.5039C232.346 29.5039 232.512 29.5039 232.678 29.5039ZM234.558 30.7753C234.558 29.4713 234.558 28.1998 234.558 26.8958C234.392 26.8958 234.281 26.8958 234.115 26.8958C234.06 28.102 234.005 29.2757 234.005 30.4819C234.189 30.5906 234.373 30.6884 234.558 30.7753ZM240.142 26.7002C240.142 27.9173 240.142 29.1344 240.142 30.3515C240.253 30.3515 240.363 30.3515 240.474 30.3515C240.474 28.6889 240.474 27.0262 240.474 25.3962C240.087 25.5592 240.087 25.5592 240.142 26.7002ZM231.903 25.82C231.903 25.5918 231.903 25.3962 231.903 25.2006C231.738 25.2006 231.627 25.2006 231.516 25.2006C231.516 25.8852 231.516 26.6024 231.516 27.3196C231.627 27.3196 231.738 27.3196 231.903 27.3196C231.903 26.798 231.903 26.309 231.903 25.82ZM231.903 28.4281C231.682 28.4281 231.682 28.4281 231.738 29.7973C231.811 29.3409 231.867 28.8845 231.903 28.4281ZM234.889 33.579C234.502 33.579 234.115 33.579 233.783 33.579C233.783 33.7094 233.783 33.8398 233.783 34.0028C234.06 34.0028 234.392 34.0028 234.723 34.0028C234.76 34.0028 234.816 34.0028 234.889 34.0028C234.889 33.8398 234.889 33.7094 234.889 33.579ZM217.969 34.0028C218.356 34.0028 218.743 34.0028 219.186 34.0028C218.909 33.579 218.909 33.579 218.301 33.3508C218.19 33.4812 218.08 33.6116 217.969 33.7746C217.969 33.8398 217.969 33.905 217.969 34.0028V34.0028ZM220.513 23.0163C220.402 23.1467 220.292 23.2771 220.181 23.4727L220.513 23.0163ZM219.186 30.7427C218.799 30.7427 218.467 30.7427 218.135 30.7427C218.246 30.9057 218.356 31.0687 218.467 31.2643C218.854 31.1991 218.854 31.1991 219.186 30.7427V30.7427ZM218.246 32.3402C218.08 32.438 217.969 32.5358 217.803 32.6336C218.135 32.6662 218.412 32.7314 218.688 32.7966C219.186 32.7966 219.186 32.4706 219.573 32.4706C219.13 32.4054 218.688 32.3728 218.246 32.3402V32.3402ZM220.513 23.8965C220.623 23.8965 220.734 23.8965 220.9 23.8965H220.513Z" fill="#3C85A1"/>
<path d="M120.431 35.4698L163.449 30.8079L163.726 35.4698H120.431Z" fill="#912B31"/>
<path d="M83.3835 5.18361C83.2729 5.31402 83.2176 5.41182 83.107 5.57483C82.9964 5.57483 82.8859 5.54222 82.7753 5.50962C82.8306 5.37922 82.9412 5.28141 83.0517 5.11841C83.107 5.11841 83.2176 5.15101 83.3835 5.18361Z" fill="#FFF8AD"/>
<path d="M76.527 4.82487C76.527 4.98787 76.5823 5.08567 76.5823 5.18347C76.3059 5.15087 75.9188 5.08566 75.5317 5.05306C75.6423 4.92266 75.7529 4.82487 75.8635 4.66187C76.0847 4.72707 76.3059 4.79227 76.527 4.82487V4.82487Z" fill="#FFF8AD"/>
<path d="M81.5588 8.15027C81.3929 8.37847 81.3929 8.37848 80.7294 8.18288C80.8031 8.11768 80.8584 8.0416 80.8953 7.95467C80.9505 7.92207 81.0058 7.85687 81.0611 7.79166C81.0611 7.72646 81.1164 7.66127 81.1717 7.59607C81.3929 7.27006 81.6141 6.97664 81.8906 6.65063C81.5588 6.55283 81.8353 6.16161 82.167 6.25942C82.3329 6.06381 87.1988 7.20484 81.9458 8.15027C82.167 8.41107 83.7705 9.1935 81.5588 8.63928C81.6141 8.54148 81.7247 8.44369 81.78 8.34588C81.8353 8.28068 81.78 8.24808 81.78 8.18288C81.7062 8.16115 81.6325 8.15027 81.5588 8.15027V8.15027Z" fill="#FFF8AD"/>
<path d="M76.1953 6.78101C76.2506 6.94401 76.2506 7.0744 76.2506 7.1722C76.0294 7.15047 75.8082 7.13961 75.587 7.13961C75.6423 7.00921 75.7529 6.87881 75.8635 6.7158C75.8635 6.6506 75.7529 6.5528 75.6976 6.455C75.6423 6.3898 75.587 6.29198 75.5317 6.16158C75.5317 6.12898 75.587 6.06379 75.6423 5.96598C75.8082 5.96598 75.9741 5.93337 76.14 5.86816C76.1953 5.96597 76.2506 6.09638 76.3059 6.16158C76.3059 6.35719 76.3059 6.5854 76.1953 6.78101V6.78101Z" fill="#FFF8AD"/>
<path d="M76.4164 7.5634C76.4164 7.7916 76.4164 8.01981 76.3059 8.21541C76.14 8.15021 75.9188 8.01982 75.6423 7.92202C75.6976 7.75901 75.7529 7.596 75.7529 7.40039C76.0294 7.46559 76.1953 7.53079 76.4164 7.5634Z" fill="#FFF8AD"/>
<path d="M80.1765 9.42155C79.9 9.81276 79.9 9.81277 79.5682 9.71497C79.6788 9.61716 79.7341 9.48676 79.8447 9.32375C79.8447 9.29115 79.7341 9.16075 79.6788 9.06295C79.7341 9.03035 79.7894 8.96513 79.8447 8.86733C80.0106 8.86733 80.1765 8.83473 80.2871 8.76953C80.3976 8.86733 80.4529 8.99773 80.5082 9.03033C80.84 9.12814 80.5082 9.51935 80.1765 9.42155V9.42155Z" fill="#FFF8AD"/>
<path d="M76.3612 9.81285C76.3059 9.81285 76.1953 9.78024 76.0294 9.74764C75.9741 9.68244 75.9188 9.58463 75.8635 9.45423C75.8635 9.42163 75.9188 9.35642 75.9741 9.29122C76.0294 9.22602 76.0847 9.16083 76.14 9.09562C76.3059 8.90002 76.9694 9.06302 76.8035 9.25863C76.8035 9.48684 76.7482 9.68244 76.6929 9.91065C76.527 10.1063 77.1906 10.2693 77.08 10.4649C77.0247 10.5301 76.9694 10.5953 76.9141 10.6279C77.7988 11.1169 74.4259 11.9971 76.3612 9.81285V9.81285Z" fill="#FFF8AD"/>
<path d="M84.7658 13.3338C84.7658 13.399 84.6553 13.4968 84.6553 13.5294C84.5447 13.5946 84.3235 13.6272 84.1576 13.6272C84.1023 13.5946 83.9917 13.5946 83.8258 13.5294C83.4941 13.4642 83.4941 13.4642 83.8258 13.073C84.1208 13.1599 84.4341 13.2469 84.7658 13.3338Z" fill="#FFF8AD"/>
<path d="M64.8047 8.34585C64.6388 8.50885 63.9753 8.34583 64.1411 8.15023C64.1964 8.05243 64.307 7.88944 64.4176 7.75903C65.0811 7.92204 65.0811 7.92203 64.9706 8.11764C64.8968 8.18284 64.8415 8.25891 64.8047 8.34585Z" fill="#FFF8AD"/>
<path d="M58.1694 7.13953C58.0035 7.30253 57.34 7.13953 57.5059 6.97652C57.5059 6.91132 57.5612 6.84613 57.6165 6.78093C57.7824 6.58532 58.4459 6.74833 58.28 6.94393C58.2247 7.00913 58.1694 7.07433 58.1694 7.13953Z" fill="#FFF8AD"/>
<path d="M61.487 10.6604C61.4317 10.693 61.3764 10.7908 61.3211 10.856C61.2659 10.8234 61.1 10.7908 60.9894 10.7582C60.9894 10.7256 61.0447 10.6604 61.1553 10.5952C61.2106 10.5952 61.3211 10.6278 61.487 10.6604V10.6604Z" fill="#FFF8AD"/>
<path d="M65.6894 12.8774C65.4682 12.8448 65.247 12.7796 65.0259 12.7144C64.9153 12.6492 64.8047 12.5514 64.6941 12.421C64.9706 12.3558 65.1917 12.2254 65.4682 12.1276C65.5788 11.932 66.2423 12.095 66.1317 12.2906C66.1317 12.4862 66.187 12.6492 66.187 12.8122C66.0211 12.8448 65.8 12.8774 65.6894 12.8774V12.8774Z" fill="#FFF8AD"/>
<path d="M77.5776 0C77.5776 0.163005 77.6329 0.423824 77.9094 0.847637C77.7988 1.01064 77.7435 1.10845 77.6329 1.23885C77.5223 1.30405 77.3565 1.33665 77.1906 1.33665C77.08 1.33665 76.9694 1.30405 76.8588 1.27144C76.6929 1.66266 76.527 2.08647 76.3059 2.47768C76.14 2.44508 75.9188 2.37988 75.6423 2.31468C75.9188 1.89087 76.0847 1.40186 76.3059 0.912842C76.3059 0.847641 76.1953 0.74983 76.14 0.619426C76.0847 0.586825 76.0294 0.456425 75.9741 0.358622C75.9741 0.326021 76.0294 0.228207 76.0847 0.163005C76.0478 0.119537 76.011 0.0652019 75.9741 0H77.5776Z" fill="#FFF8AD"/>
<path d="M49.0459 0.293416C48.9906 0.195614 48.9353 0.0978028 48.88 0H50.4282C50.3176 0.130404 50.2624 0.195614 50.2071 0.293416C50.0412 0.358618 49.8753 0.391219 49.7094 0.456421C49.4882 0.391219 49.2671 0.358618 49.0459 0.293416Z" fill="#FFF8AD"/>
<path d="M52.64 0.684632C52.5847 0.61943 52.5294 0.521631 52.4741 0.423828C52.4741 0.391227 52.5294 0.293413 52.5847 0.228211L52.7506 0H54.2988C54.9623 0.456413 55.9576 1.04323 54.3541 1.63005C54.2435 1.66265 54.0776 1.72787 53.9118 1.72787C53.2482 1.56486 52.9165 1.07584 52.64 0.684632V0.684632Z" fill="#FFF8AD"/>
<path d="M49.3223 1.95602C49.2117 2.11902 48.5482 1.95602 48.6587 1.79301C48.714 1.72781 48.7693 1.66261 48.8246 1.59741C48.4929 1.49961 48.7693 1.10839 49.1011 1.2062C49.267 1.2062 49.4882 1.1736 49.5987 1.1084C49.7093 1.141 49.8752 1.1736 49.9305 1.1736C49.9858 1.30401 50.0411 1.4018 50.0964 1.467C49.9858 1.5974 49.9305 1.72782 49.8199 1.82562C49.7093 1.89083 49.4882 1.92341 49.3223 1.95602V1.95602Z" fill="#FFF8AD"/>
<path d="M54.2435 3.39048C54.1882 3.32528 54.1329 3.22747 54.0223 3.09706C54.0223 3.06446 53.9117 2.96666 53.8564 2.83626C53.5247 2.77106 53.8011 2.37984 54.1329 2.44505C54.2435 2.51025 54.4094 2.54286 54.4647 2.54286C54.5752 2.57546 54.7411 2.60805 54.7964 2.60805C55.1835 3.22747 56.2341 3.87949 54.2435 3.39048V3.39048Z" fill="#FFF8AD"/>
<path d="M47.4975 2.83624C47.4423 2.77104 47.387 2.67324 47.3317 2.57544C47.387 2.44504 47.4975 2.34723 47.6081 2.18422C47.774 2.18422 47.9399 2.11903 48.0505 2.08643C48.1611 2.18423 48.2164 2.28203 48.2717 2.34723C48.6034 2.44503 48.2717 2.80365 47.9399 2.73844C47.8293 2.80365 47.6634 2.83624 47.4975 2.83624Z" fill="#FFF8AD"/>
<path d="M39.7011 3.1948C39.5353 3.097 39.3694 2.96659 39.1482 2.83618C39.2588 2.73838 39.3694 2.60797 39.48 2.44497C39.6458 2.44497 39.8117 2.41237 39.9223 2.34717C40.0882 2.37977 40.1988 2.41237 40.2541 2.44497C40.3647 2.54277 40.42 2.64059 40.4752 2.70579C40.42 2.77099 40.3094 2.86879 40.3094 2.90139C40.2541 2.96659 40.1988 3.06438 40.1435 3.09699C40.0329 3.16219 39.867 3.1948 39.7011 3.1948V3.1948Z" fill="#FFF8AD"/>
<path d="M41.8024 5.08584C41.7471 5.02063 41.6918 4.92282 41.6365 4.79242C41.6365 4.75982 41.6918 4.69462 41.7471 4.62942C41.9129 4.59681 42.1341 4.56423 42.2447 4.49902C42.3553 4.53162 42.5212 4.56422 42.5765 4.59682C42.6318 4.69463 42.7424 4.79242 42.7424 4.85763C42.5765 4.98803 42.3553 5.08584 42.1341 5.15104C42.0788 5.15104 41.9129 5.11844 41.8024 5.08584V5.08584Z" fill="#FFF8AD"/>
<path d="M17.8599 3.2276C17.9152 3.09719 17.8599 2.93419 17.8047 2.73858C17.7494 2.73858 17.6388 2.70598 17.4729 2.67337C17.4729 2.60817 17.3623 2.51037 17.307 2.41257C17.3623 2.34737 17.4176 2.28218 17.4729 2.21697C17.6388 2.21697 17.8047 2.15176 17.9152 2.08656C18.0811 1.92356 18.7447 2.08656 18.5788 2.24957C18.6894 2.37997 18.7447 2.47778 18.7999 2.54298C18.7447 2.60818 18.6341 2.67338 18.6341 2.73858C18.5788 2.80378 18.5235 2.86898 18.4682 2.93418C18.8 2.99938 18.5235 3.3906 18.1917 3.2928C18.1364 3.2928 18.0258 3.2602 17.8599 3.2276Z" fill="#FFF8AD"/>
<path d="M6.02707 4.1404C6.02707 4.173 5.97178 4.27082 5.86119 4.33602C5.80589 4.33602 5.6953 4.30341 5.52942 4.27081C5.58471 4.20561 5.64001 4.1404 5.6953 4.0752C5.7506 4.0752 5.91648 4.1078 6.02707 4.1404Z" fill="#FFF8AD"/>
<path d="M11.6117 11.0192C11.7776 11.0192 11.9434 10.954 12.1093 10.9214C12.2752 10.8888 12.4411 10.8562 12.5517 10.791C14.5976 11.3452 13.6576 12.1277 12.6623 12.1929C11.8882 12.2255 11.0587 11.7364 11.6117 11.0192Z" fill="#FFF8AD"/>
<path d="M21.2329 15.0291C21.1776 15.1269 21.1223 15.1921 21.067 15.2247C20.9011 15.1921 20.6799 15.1269 20.4034 15.0617C20.4587 15.0291 20.514 14.9639 20.5693 14.8661C20.6799 14.7031 21.3434 14.8661 21.2329 15.0291Z" fill="#FFF8AD"/>
<path d="M27.3153 1.23893C27.26 1.30413 27.1494 1.36933 27.1494 1.43453C27.26 1.46713 27.4259 1.49974 27.4812 1.49974C27.3706 1.56494 27.1494 1.59753 26.9835 1.59753C26.873 1.66274 26.7071 1.72795 26.5412 1.72795C26.2094 1.59754 25.933 1.43453 25.6565 1.27153C25.7118 1.23892 25.7671 1.17373 25.8224 1.07593C25.933 1.10853 26.0988 1.14113 26.1541 1.17373C26.32 1.17373 26.4859 1.10853 26.6518 1.07593C26.873 1.14113 27.0941 1.17373 27.3153 1.23893V1.23893Z" fill="#FFF8AD"/>
<path d="M27.5364 10.4323C27.3152 10.3671 27.1494 10.3344 26.8729 10.2692C26.8176 10.204 26.7623 10.1063 26.6517 9.97585C26.6517 9.94325 26.5411 9.81285 26.4858 9.71505C26.5411 9.68245 26.5964 9.58463 26.6517 9.51943C26.7623 9.51943 26.9835 9.45423 27.0941 9.42163C27.26 9.45423 27.3705 9.48684 27.4258 9.48684C27.5917 9.51944 27.7023 9.55203 27.7576 9.58464C27.8682 9.61724 28.0341 9.64984 28.0894 9.64984C28.1447 9.78025 28.2553 9.87804 28.2553 9.94324C28.1447 10.0736 28.0894 10.2041 27.9788 10.3019C27.8682 10.3671 27.7023 10.3997 27.5364 10.4323V10.4323Z" fill="#FFF8AD"/>
<path d="M28.0341 21.3211C27.9788 21.2884 27.8682 21.2559 27.7023 21.2233C27.647 20.7668 27.647 20.7668 27.9788 20.8646C28.0341 20.7994 28.0894 20.7342 28.1447 20.669C28.2 20.5386 28.3106 20.4408 28.4212 20.2778C28.587 20.2778 28.7529 20.2452 28.9188 20.18C29.1953 20.017 29.4717 19.854 29.6929 19.6584C29.6929 19.5932 29.7482 19.528 29.8035 19.4628C30.0247 19.365 30.2459 19.2998 30.467 19.1694C30.6882 19.1694 30.9094 19.1368 31.1306 19.1042C31.1859 19.1042 31.2965 19.1042 31.2965 19.039C31.3333 19.0172 31.3702 18.9847 31.407 18.9412C31.1859 18.876 33.9506 17.2785 34.3376 17.1807C34.5588 17.1481 34.7247 17.1155 34.8353 17.0503C35.0012 17.0503 35.2223 16.9851 35.3329 16.9199C35.4435 16.9851 35.6094 17.0177 35.6647 17.0177C35.72 17.1155 35.8306 17.2459 35.8306 17.2785C35.167 17.8327 32.8447 18.9738 31.7388 19.0064C31.6835 19.1042 31.5729 19.1694 31.4623 19.1694C31.3518 19.1911 31.2596 19.2128 31.1859 19.2346C31.1306 19.2672 31.1306 19.3324 31.1306 19.3324C30.9094 19.4954 30.6329 19.6584 30.3565 19.8214C30.08 20.017 29.8588 20.18 29.5823 20.343C29.6376 20.4408 29.6929 20.5386 29.7482 20.6038C29.5823 20.7342 29.3612 20.832 29.14 20.8972C29.0847 20.995 29.0294 21.0602 28.9741 21.0928C28.8635 21.158 28.6976 21.1906 28.5318 21.1906C28.3659 21.2558 28.2 21.3211 28.0341 21.3211V21.3211Z" fill="#FFF8AD"/>
<path d="M25.3247 23.3748C25.2694 23.44 25.2141 23.5052 25.1588 23.5704C25.1035 23.5704 24.9929 23.5378 24.827 23.5052C24.8823 23.4726 24.9376 23.3748 24.9929 23.3096C25.0482 23.3096 25.1588 23.3422 25.3247 23.3748Z" fill="#FFF8AD"/>
<path d="M19.8506 25.2331C19.9059 24.2225 21.4541 24.3203 22.1176 25.5265C22.1729 25.6569 22.2835 25.7547 22.3388 25.8199C21.3988 26.5045 19.8506 25.7221 19.8506 25.2331Z" fill="#FFF8AD"/>
<path d="M5.14233 25.3961C5.14233 25.3635 5.19763 25.2983 5.25292 25.2005C5.30821 25.1679 5.36351 25.1027 5.4188 25.0375C5.4188 24.9723 5.4741 24.9071 5.52939 24.8419C8.18351 24.7441 7.74116 25.8851 6.80116 26.1459C6.24822 26.3089 5.52939 25.9503 5.14233 25.3961Z" fill="#FFF8AD"/>
<path d="M111.307 17.6371C111.307 17.6045 111.362 17.5067 111.418 17.4415C111.583 17.4415 111.805 17.4089 111.915 17.3437C112.302 16.7895 114.625 18.3869 112.689 18.4521C111.03 19.2671 110.478 17.4415 111.307 17.6371V17.6371Z" fill="#FFF8AD"/>
<path d="M118.551 25.3635C118.882 25.4504 119.214 25.5374 119.546 25.6243C119.435 25.7873 119.325 25.9177 119.269 26.0481C117.776 25.3961 117.776 25.3961 117.887 25.2005C117.832 25.2005 117.721 25.1679 117.555 25.1353C117.5 25.1027 117.389 25.0701 117.224 25.0375C117.224 25.0049 117.113 24.8745 117.058 24.7767C117.002 24.7441 116.836 24.7115 116.726 24.6789C116.671 24.6463 116.615 24.5159 116.56 24.4181C116.505 24.3529 116.449 24.2551 116.339 24.1573C116.007 24.0595 116.284 23.6683 116.615 23.7661C116.781 23.7987 116.892 23.8313 116.947 23.8639C117.113 23.8965 117.224 23.9291 117.279 23.9291C117.445 23.9617 117.555 23.9943 117.611 24.0269C117.776 24.0595 117.887 24.0921 117.942 24.0921C118.108 24.1247 118.219 24.1573 118.274 24.1899C118.385 24.2877 118.44 24.3855 118.495 24.4507C118.44 24.5159 118.385 24.6137 118.329 24.6463C118.385 24.7441 118.495 24.8745 118.495 24.9071C118.551 25.1027 118.606 25.2331 118.551 25.3635V25.3635Z" fill="#FFF8AD"/>
<path d="M93.5577 21.2231C93.3734 21.3535 93.189 21.484 93.0047 21.6144C92.7835 21.5818 92.6177 21.5165 92.4518 21.4187C92.7835 21.3861 93.1706 21.2883 93.5577 21.2231Z" fill="#FFF8AD"/>
<path d="M99.5294 29.0799C98.6447 29.2755 98.6447 29.2755 97.9259 29.1777C97.9812 29.0473 98.0918 28.9169 98.2024 28.7539C98.5341 28.8408 98.8659 28.9278 99.1977 29.0147C99.3636 28.9821 99.5847 28.9495 99.6953 28.8843C99.8059 28.9169 99.9718 28.9495 100.027 28.9821C99.9718 29.0473 99.9165 29.1125 99.8612 29.1777C99.8059 29.1451 99.6953 29.1125 99.5294 29.0799Z" fill="#FFF8AD"/>
<path d="M96.9306 28.9171C96.82 29.0475 96.7647 29.1453 96.6541 29.3084C96.5067 29.2649 96.3592 29.2323 96.2118 29.2106C96.3224 29.0801 96.433 28.9823 96.5435 28.8193C96.6541 28.8628 96.7832 28.8954 96.9306 28.9171Z" fill="#FFF8AD"/>
<path d="M95.6035 29.0474C95.1058 29.2756 95.1058 29.2756 94.9399 29.0474C95.1611 29.08 95.3823 29.08 95.6035 29.0474Z" fill="#FFF8AD"/>
<path d="M93.5577 31.2317C93.4471 31.3621 93.3365 31.4599 93.2259 31.6229C93.1706 31.6229 93.06 31.5903 92.8942 31.5251C93.0048 31.4273 93.06 31.3295 93.1706 31.1665C93.2812 31.1665 93.3918 31.1991 93.5577 31.2317V31.2317Z" fill="#FFF8AD"/>
<path d="M91.5671 31.1991C91.5118 31.3295 91.4012 31.4925 91.2906 31.6229C91.0694 31.5903 90.9035 31.5251 90.6271 31.4599C90.6824 31.3621 90.793 31.1991 90.9035 31.0361C91.1247 31.1013 91.3459 31.1339 91.5671 31.1991Z" fill="#FFF8AD"/>
<path d="M90.8482 32.2097C90.793 32.1771 90.6271 32.1445 90.5165 32.1119C90.5165 31.9815 90.5165 31.8511 90.4612 31.6555C90.7929 31.7425 91.1247 31.8294 91.4565 31.9163C91.2906 32.0467 91.0694 32.1119 90.8482 32.2097V32.2097Z" fill="#FFF8AD"/>
<path d="M91.2353 32.7312C91.18 32.7964 91.1247 32.8616 91.0694 32.9268C91.0141 32.9268 90.9036 32.8942 90.7377 32.8616C90.793 32.829 90.8483 32.7312 90.9036 32.666C90.9589 32.666 91.0694 32.6986 91.2353 32.7312Z" fill="#FFF8AD"/>
<path d="M101.188 15.8115C101.133 15.8767 101.078 15.9419 101.078 15.9745C100.801 16.3657 100.801 16.9526 100.856 17.3438C100.248 18.1588 94.9953 21.8427 97.0965 18.4848C97.373 18.061 98.6447 17.7676 98.7553 17.5068C99.1977 17.4742 99.6953 17.3112 99.8612 17.083C100.193 16.594 100.469 16.3657 100.414 15.8115C99.8612 15.6811 99.6953 15.2247 99.4741 14.8987C99.3636 14.8987 99.253 14.8661 99.1424 14.8335C99.0871 14.8987 99.0318 14.9639 98.9765 15.0291C98.8659 15.0617 98.6447 15.1269 98.4788 15.1269C98.3682 15.3225 97.7047 15.1595 97.8706 14.9639C97.5389 14.8661 97.8153 14.5075 98.1471 14.5727C98.2577 14.6053 98.3682 14.6379 98.4788 14.6705C98.6447 14.6705 98.8106 14.6053 98.9212 14.5401C99.5847 14.5075 101.244 13.4969 101.907 13.6599C103.4 13.9859 103.511 15.7137 101.188 15.8115Z" fill="#FFF8AD"/>
<path d="M51.7 24.6789C51.7 24.7115 51.6447 24.8093 51.5341 24.8745C51.3683 24.8419 51.1471 24.7767 50.9259 24.7115C50.9259 24.6789 50.9812 24.6137 51.0365 24.5159C51.2577 24.5811 51.4235 24.6137 51.7 24.6789V24.6789Z" fill="#FFF8AD"/>
<path d="M60.4918 28.7542C60.4918 28.7868 60.4365 28.852 60.3812 28.9172C60.16 28.8846 59.9388 28.8194 59.7177 28.7542C59.7177 28.7216 59.7729 28.6564 59.8282 28.5586C60.0494 28.6238 60.2153 28.689 60.4918 28.7542Z" fill="#FFF8AD"/>
<path d="M69.007 33.8071C69.6152 33.6441 69.6152 33.6441 70.1681 33.8723C70.2234 33.7419 70.334 33.6441 70.4446 33.4811C70.7211 33.5463 70.887 33.6115 71.1081 33.6441C70.9422 33.7745 70.7211 33.8723 70.4999 33.9375C70.2234 33.9701 69.947 34.0027 69.6705 33.9701C69.5968 34.0353 69.5415 34.1114 69.5046 34.1983C69.4493 34.2635 69.394 34.3613 69.3387 34.3939C69.0623 34.9156 67.3481 35.2416 65.9658 35.046C63.0352 34.6222 64.0858 33.5463 65.6893 33.3507C66.7952 33.2203 68.067 34.2635 69.007 33.8071V33.8071Z" fill="#FFF8AD"/>
<path d="M60.8788 34.068C60.7682 34.1332 60.547 34.1658 60.4365 34.1984C58.5012 35.1112 54.2988 34.231 55.0729 32.6335C56.4 29.9929 63.9753 29.9276 60.8788 34.068Z" fill="#FFF8AD"/>
<path d="M53.0824 27.5479C53.0824 27.5153 53.1377 27.45 53.1929 27.3848C53.3588 27.3522 53.58 27.3197 53.6906 27.2545C53.8565 27.2545 54.0224 27.2219 54.1882 27.1567C54.2988 27.1567 54.52 27.124 54.6306 27.0588C54.7412 27.0914 54.9071 27.124 54.9624 27.124C55.1282 26.9284 56.5106 27.2871 56.3447 27.4827C56.4553 27.5153 56.6212 27.5479 56.6765 27.5479C56.7318 27.6783 56.8424 27.7761 56.8424 27.8413C56.9529 27.9391 57.0082 28.0369 57.0635 28.1021C57.1188 28.2325 57.2294 28.3303 57.2294 28.3629C57.34 28.4933 57.3953 28.5911 57.4506 28.6563C57.2294 28.9171 57.0082 29.1779 56.8424 29.4061C54.8518 30.3841 51.6447 29.4713 53.0824 27.5479V27.5479Z" fill="#FFF8AD"/>
<path d="M41.747 32.0792C41.8023 32.014 41.8576 31.9488 41.9129 31.8836C41.9129 31.851 42.0235 31.7532 42.0788 31.688C42.2447 31.5902 42.5211 31.4924 42.687 31.362C42.7976 31.2316 42.8529 31.1338 42.9635 30.9708C43.0741 30.8404 43.1847 30.7426 43.2953 30.5796C44.2906 30.8404 44.2906 30.8404 44.1247 31.036C44.4564 31.1012 44.18 31.4924 43.8482 31.3946C43.7376 31.5576 43.627 31.7206 43.5164 31.8184C43.5164 32.0466 43.5164 32.2748 43.4059 32.4704C43.3506 32.5682 43.2953 32.6334 43.2953 32.666C43.1478 32.8616 43.0004 33.0572 42.8529 33.2529C42.9635 33.2855 43.1294 33.3181 43.1847 33.3181C43.2953 33.3615 43.4243 33.3941 43.5717 33.4159C43.9035 33.5137 43.9035 33.5137 43.627 33.8723C43.0741 33.8397 42.5764 33.8071 42.0788 33.7419C41.9682 33.8723 41.9129 34.0027 41.8023 34.1005C41.6917 34.2635 41.5811 34.3613 41.5259 34.4917C38.0423 36.1544 35.7753 34.8177 37.2682 33.4159C37.8764 32.8942 40.6411 32.6008 41.747 32.0792V32.0792Z" fill="#FFF8AD"/>
<path fill-rule="evenodd" clip-rule="evenodd" d="M60.7129 7.27003C60.7682 7.20483 60.8235 7.13961 60.8788 7.07441C61.0447 7.04181 61.2106 7.00922 61.3765 6.94402C62.2059 6.91142 66.3529 5.60737 66.8506 5.34656C66.9059 5.31396 66.9612 5.24877 67.0165 5.15097C67.7353 5.15097 69.1729 4.69454 69.9471 4.53154C69.9471 4.49894 70.0024 4.40114 70.0576 4.33594C70.0024 4.14034 70.0024 4.14033 70.6659 4.04253C70.7765 3.91212 70.8318 3.81432 70.9977 3.65131C74.7577 4.14032 71.8824 3.97732 71.2188 4.85755C68.4541 6.94401 65.3576 6.22679 61.1 7.79164C61.0447 7.88944 60.9894 7.95463 60.9894 7.98723C60.7682 8.11764 60.5471 8.21545 60.3259 8.28065C60.16 8.41105 59.9388 8.50886 59.7729 8.57407C59.2753 8.37846 58.5012 8.28066 57.7824 8.24806C58.6671 8.11765 59.8282 7.46563 60.7129 7.27003V7.27003ZM72.2141 0.32601C72.1588 0.293409 72.3247 0.163005 72.6012 0H73.9835C73.9282 0.163005 73.8177 0.35861 73.5965 0.652019C75.5318 1.14103 74.1494 4.79234 71.3294 2.77108C70.8318 2.41247 73.0435 1.79307 72.5459 1.07585C72.5459 1.01065 72.6012 0.945432 72.6565 0.88023C72.5459 0.815028 72.4906 0.684636 72.4353 0.586833C72.38 0.521631 72.3247 0.423812 72.2141 0.32601V0.32601ZM59.6071 10.4323C59.7729 9.94329 60.2706 9.42168 60.16 8.93267C60.16 8.80226 59.9941 8.67187 59.7729 8.57407L57.7824 8.24806C57.0635 8.18285 56.4 8.18285 56.0682 8.18285C54.52 8.08505 50.6494 7.10701 50.9812 6.68319C50.8706 6.68319 50.76 6.65061 50.6494 6.61801C49.82 6.1616 49.1012 6.06378 48.8247 5.44436C48.4929 5.35743 48.1612 5.2705 47.8294 5.18356C48.1059 6.87881 46.5576 6.61799 44.6224 6.68319C44.4565 6.7484 44.2906 6.78101 44.1247 6.78101C44.0694 6.78101 43.9588 6.74841 43.7929 6.71581C39.2035 8.93267 32.3471 8.31324 36.2729 14.0184C36.2177 14.0836 36.1624 14.1488 36.1071 14.214C36.0518 14.2792 35.9965 14.3444 35.9965 14.377C36.0518 14.5074 36.1624 14.6052 36.2176 14.6704C36.1071 14.8334 36.0518 14.9312 35.9412 15.0616C35.8859 15.1268 35.8306 15.2247 35.8306 15.2573C35.72 15.3877 35.6094 15.5181 35.5541 15.6159C35.6094 15.7463 35.6647 15.8441 35.72 15.9093C35.8306 15.9419 35.9965 15.9745 36.0518 15.9745C35.9412 16.1375 35.8306 16.2353 35.7753 16.3657C36.0518 16.4309 36.2177 16.4961 36.4388 16.5287C36.5494 16.5613 36.66 16.5939 36.7706 16.6265C36.8812 16.6591 36.9918 16.6917 37.1024 16.6917C37.2129 16.7243 37.3235 16.7569 37.4341 16.7895C37.4894 16.8873 37.5447 16.9851 37.6 17.0503C37.7106 17.0829 37.8765 17.1155 37.9318 17.1481C37.9871 17.2459 38.0977 17.3437 38.0977 17.4089C38.2635 17.4415 38.3741 17.4741 38.4294 17.4741C38.54 17.6045 38.5953 17.7023 38.6506 17.7675C38.54 17.8979 38.3741 18.0609 38.3188 18.1913C38.5953 18.2565 38.7612 18.2891 38.9824 18.3544C39.0929 18.387 39.2588 18.4195 39.3141 18.4195C39.2588 18.5173 39.2035 18.5826 39.1482 18.6152C39.2588 18.713 39.3141 18.8434 39.3694 18.876C39.4247 19.0064 39.48 19.1042 39.5353 19.1694C39.5906 19.2672 39.7012 19.3976 39.8118 19.4628C39.7565 19.528 39.7012 19.5932 39.6459 19.6584C39.7012 19.7562 39.8118 19.854 39.8118 19.9192C39.9224 20.017 39.9777 20.1474 40.0329 20.18C41.0835 21.7448 41.8024 21.9078 43.8482 22.9511C44.2906 23.0597 44.7514 23.1793 45.2306 23.3097C45.3412 23.3423 45.5071 23.3749 45.5624 23.3749C45.6177 23.4727 45.6729 23.6031 45.7282 23.6357C45.8941 23.6683 46.0047 23.7009 46.06 23.7335C46.1153 23.8313 46.2259 23.9617 46.2812 23.9943C46.3918 24.0269 46.5024 24.0595 46.5576 24.0921C46.6129 24.2877 46.6129 24.4507 46.6129 24.5811C46.5576 24.6789 46.5024 24.7441 46.4471 24.7767C46.7235 25.1353 46.5024 25.2657 46.2259 25.6244C46.2812 25.7222 46.3365 25.8526 46.3918 25.8852C45.2859 27.3848 41.5812 26.7002 41.6918 29.0475C41.8024 30.7753 45.2306 30.1233 47.7741 26.7002C47.7741 26.6676 47.8294 26.5698 47.8847 26.5046C47.8847 26.4394 47.7741 26.3416 47.7188 26.2438C47.7741 26.1786 47.8294 26.1134 47.8847 26.0482C47.8294 25.983 47.7741 25.8852 47.6635 25.7548C47.6635 25.7222 47.5529 25.5918 47.4977 25.4939C48.3824 24.2877 49.5435 22.0382 52.5847 22.0056C55.9024 22.0056 59.8282 23.3423 58.4459 25.2331C58.1694 25.2657 57.8929 25.2983 57.6165 25.2657C57.5059 25.3309 57.2847 25.3636 57.1741 25.3636C57.1188 25.4614 57.0635 25.5266 57.0082 25.5592C57.0635 25.657 57.1741 25.7874 57.1741 25.82C57.4506 25.8852 57.6718 25.9504 57.8376 26.0156C58.0035 25.983 58.2247 25.9504 58.3353 25.8852C58.3353 25.8526 58.3906 25.7874 58.5012 25.6896C58.6118 25.7222 58.7224 25.7548 58.7776 25.7874C58.6118 26.0482 58.3906 26.309 58.2247 26.5372C58.1141 26.6024 57.8929 26.635 57.7824 26.6676C57.6718 26.7328 57.6165 26.798 57.6165 26.8306C57.6718 26.961 57.7824 27.0588 57.7824 27.1566C57.8929 27.1892 58.0588 27.2218 58.1141 27.2218C58.1694 27.3522 58.28 27.45 58.28 27.5152C58.3906 27.613 58.4459 27.7434 58.5012 27.776C58.6118 27.8086 58.7224 27.8412 58.8329 27.8738C58.6671 28.0694 60.3259 28.4606 60.4365 28.265C60.6024 28.265 60.8235 28.2324 60.9341 28.1672C61.1 28.1672 61.2659 28.1346 61.4318 28.0694C62.6482 28.3628 62.4824 27.5478 63.3118 28.754C65.8553 29.4061 66.8506 29.2431 69.2835 29.3083C69.3941 29.3409 69.5047 29.3735 69.6153 29.3735C69.7259 29.4061 69.8365 29.4387 69.9471 29.4713C72.9882 30.2211 75.0341 29.1453 76.9141 29.6343C77.08 29.6343 77.3012 29.5691 77.4118 29.5365C77.7435 29.6017 78.0753 29.6777 78.4071 29.7647C78.4624 29.8951 78.5729 29.9929 78.5729 30.0581C78.7388 30.0907 78.8494 30.1233 78.9047 30.1233C79.1812 30.1885 79.4024 30.2537 79.5682 30.2863C79.6788 30.4167 79.7341 30.5145 79.7894 30.5797C81.8353 31.5577 82.9965 30.2537 85.8165 30.9383C85.9824 30.9383 86.2035 30.9057 86.3141 30.8405C86.4247 30.8731 86.5906 30.9057 86.6459 30.9383C87.6965 31.1991 88.6918 30.7753 89.4659 30.9383C89.6318 30.9057 89.7976 30.8731 89.9635 30.8079C90.24 30.8405 90.4612 30.8079 90.7376 30.7753C92.3412 30.7101 94.4424 27.7108 93.9447 27.0262C94 26.961 94.0553 26.8958 94.1106 26.8306C94.0553 26.7654 94 26.6676 93.9447 26.5372C93.3365 25.6896 92.6177 25.1353 92.0094 24.2551C91.8435 24.1899 91.7329 24.0595 91.5118 23.9291C91.4565 23.8965 91.2906 23.8639 91.18 23.8313C91.1247 23.7987 90.9588 23.7661 90.8482 23.7335C90.7929 23.7009 90.7377 23.5705 90.6824 23.4727L90.8482 23.2445V23.2119V23.1793H90.9035V23.1467V23.1141H90.9588V23.0815C91.2353 23.1467 91.4012 23.2119 91.6224 23.2445C91.7882 23.4075 91.9541 23.5379 92.12 23.6031C92.12 23.4727 92.12 23.3097 92.12 23.1141C92.0094 23.1793 91.7882 23.2119 91.6224 23.2445C91.6592 23.1793 91.7145 23.1032 91.7882 23.0163C91.8988 23.0489 92.0647 23.0815 92.12 23.1141C92.0647 23.0489 92.0094 22.9511 91.8988 22.8533C91.8435 22.8207 91.7329 22.7881 91.5671 22.7555C91.5671 22.6903 91.4565 22.5925 91.4012 22.4947C91.5118 22.3643 91.5671 22.2665 91.6776 22.1035C91.7882 22.0057 91.8435 21.8753 91.9541 21.7122C91.2906 21.5492 91.2906 21.5492 91.18 21.7448C91.1247 21.7448 90.9588 21.7122 90.8482 21.6796C90.7929 21.647 90.6271 21.6144 90.5165 21.5818C90.4612 21.5166 90.4059 21.4188 90.3506 21.321C90.3506 21.2884 90.4059 21.1906 90.4612 21.1254C91.1247 20.2778 90.9588 20.506 92.1753 20.2452C91.0141 18.7456 88.5259 18.1913 86.0376 17.9631C84.7659 17.8327 79.6235 18.1261 80.5635 16.8547C80.8953 16.9199 81.2271 16.5613 81.8906 16.4961C81.4482 16.3983 81.0612 16.3005 80.7294 16.1375C80.6741 16.1049 80.6188 15.9745 80.5082 15.8767C80.5082 15.8115 80.3976 15.7137 80.3424 15.6159C80.5635 15.2899 80.7847 14.9964 81.0612 14.6704C81.6141 14.6704 81.6141 14.6704 82.1671 14.2466C81.9459 14.214 81.7247 14.1488 81.5035 14.0836C81.3929 14.2466 81.2824 14.3444 81.1718 14.4748C78.9047 13.888 79.5129 13.6598 78.6835 12.4862C78.6282 12.421 78.5729 12.3232 78.5176 12.1928C78.6282 11.932 78.6835 11.6385 78.7941 11.3125C79.1259 11.4103 79.4024 11.0191 79.0706 10.9539C79.0153 10.8887 78.96 10.7909 78.8494 10.6605C78.7941 10.6605 78.6835 10.6279 78.5176 10.5953C78.4071 10.7909 78.278 10.9757 78.1306 11.1495C77.9094 11.3777 77.7988 11.5733 77.6329 11.769C77.4671 11.7038 77.2459 11.6712 76.9694 11.606C76.5824 12.1602 76.5824 12.1602 76.9141 12.258C76.8588 12.3232 76.7482 12.421 76.7482 12.4536C76.6929 12.5188 76.6376 12.6166 76.5824 12.6492C75.2553 13.2686 70.0577 13.3012 68.7859 12.4862C68.7306 12.4862 68.62 12.4536 68.4541 12.421C68.2882 12.3232 68.1224 12.1928 67.9565 12.0624C67.7906 11.8667 67.6247 11.6386 67.5694 11.5082C67.2929 11.1495 67.0718 10.8887 66.6294 10.5953C66.4082 10.5301 66.1871 10.4975 65.9659 10.4323C65.6894 10.4649 65.4129 10.4975 65.1365 10.4649C64.9153 10.7257 65.1918 10.9213 65.3576 11.1821C65.4682 11.3125 65.5235 11.4103 65.5788 11.4755C65.6894 11.5081 65.8 11.5407 65.9106 11.5407C66.0212 11.5733 66.1318 11.6059 66.2424 11.6385C66.6294 11.8341 67.0165 11.9972 67.4588 12.1602C67.5694 12.2906 67.6247 12.3884 67.6247 12.4536C70.5553 14.1488 67.7906 14.54 64.6388 13.7576C63.3118 13.4316 62.3718 12.4862 61.8741 11.7037C61.7635 11.7037 61.6529 11.6711 61.5424 11.6385C61.4871 11.5407 61.4318 11.4429 61.3765 11.3125C61.3212 11.3125 61.1553 11.2799 61.0447 11.2473C60.9894 11.2147 60.8235 11.1821 60.7129 11.1495C60.6576 11.0843 60.6024 10.9865 60.4918 10.8887C60.3812 10.8453 60.2522 10.8127 60.1047 10.7909C60.0494 10.7583 59.9388 10.7257 59.7729 10.6931C59.7176 10.6279 59.6624 10.5301 59.6071 10.4323V10.4323Z" fill="#FFF8AD"/>
<path d="M179.042 35.4697L143.378 21.4187L124.191 28.5257L68.2882 13.4966L68.3988 13.2358L122.974 24.1572L140.226 16.5937L193.861 26.1784V35.4697H179.042Z" fill="#E7592A"/>
<path d="M179.042 35.4698L143.544 21.4514L124.356 28.5584L68.4541 13.562L68.5647 13.3338C68.6016 13.312 68.62 13.2903 68.62 13.2686L68.8965 13.3338L124.025 27.0914L143.765 20.0495L193.529 35.4698H179.042Z" fill="#D2222E"/>
<path d="M152.335 33.1877L154.215 35.4698H151.616L152.335 33.1877Z" fill="#EC1C24"/>
</svg>
