<svg width="244" height="37" viewBox="0 0 244 37" fill="none" xmlns="http://www.w3.org/2000/svg">
<path d="M0 0H243.405V36.3827H0V0Z" fill="#46BC3C"/>
<path d="M18.2471 0H32.7341L0 21.3862V9.68247L18.2471 0ZM50.9812 0H60.6023L29.0847 36.3827H11.0035L50.9812 0ZM73.9282 0H81.6694L68.5094 36.3827H53.9671L73.9282 0ZM93.2259 0H100.414L103.566 36.3501H90.0188L93.2259 0ZM111.971 0H119.656L139.673 36.3827H125.131L111.971 0ZM132.982 0H142.548L182.526 36.3827H164.5L132.982 0ZM160.574 0H174.951L220.734 24.3529L243.349 36.3501H216.2L208.68 31.4599L160.574 0ZM205.694 0H234.723L243.46 2.64067V14.4096L237.046 11.9645L205.694 0Z" fill="#FAB161"/>
<path d="M83.1624 0L78.8494 8.67185L28.9188 0H83.1624Z" fill="#9DD9D9"/>
<path d="M73.4859 0L72.5459 1.82565L61.9847 0H73.4859Z" fill="#6DCBD4"/>
<path d="M243.405 36.3174L67.5141 1.76044L20.5694 33.2856L0 31.3947V20.18L10.4506 20.506L36.3835 0H243.405V36.3174Z" fill="#A72935"/>
<path d="M243.405 36.3174L67.5141 1.76044L20.5694 33.2856L0 31.3947V27.5804L17.3624 28.917L61.8741 0H86.9776L243.405 20.1148V36.3174Z" fill="#B22830"/>
<path d="M2.70941 0L0 0.489014V0H2.70941Z" fill="#912B31"/>
<path d="M3.9259 30.6122C3.9259 30.4492 4.58944 30.4492 4.58944 30.6122C4.64473 30.6122 4.75532 30.6122 4.86591 30.6122C4.97649 30.6774 5.08708 30.7427 5.19767 30.8079C5.25296 30.8405 5.41885 30.9383 5.52943 31.0035C5.52943 31.0361 5.52943 31.1339 5.52943 31.1991C5.91649 31.1991 5.91649 31.1991 5.91649 31.6229C5.76904 31.6229 5.64002 31.6229 5.52943 31.6229C5.52943 31.7859 4.86591 31.7859 4.86591 31.6229C4.75532 31.6229 4.64473 31.6229 4.58944 31.6229C4.42355 31.5251 4.31297 31.4599 4.25767 31.4273C4.09179 31.3295 3.9812 31.2643 3.9259 31.1991C3.9259 31.0035 3.9259 30.8078 3.9259 30.6122Z" fill="#E7592A"/>
<path d="M3.26231 28.7214C3.26231 28.5584 3.92584 28.5584 3.92584 28.7214C3.98113 28.7866 4.09172 28.8518 4.25761 28.917C4.3129 28.917 4.42349 28.917 4.58937 28.917C4.64466 28.9496 4.75525 29.0474 4.86584 29.1126C4.86584 29.1452 4.86584 29.2104 4.86584 29.3082C5.19761 29.3082 5.19761 29.6668 4.86584 29.6668C4.86584 29.7972 4.86584 29.895 4.86584 30.058C4.86584 30.2536 4.25761 30.2536 4.25761 30.058C4.09172 30.058 3.98113 30.058 3.92584 30.058C3.81525 29.9928 3.64937 29.895 3.59407 29.8624C3.48349 29.7972 3.3729 29.732 3.26231 29.6668C3.15172 29.6016 3.04113 29.5364 2.98584 29.5038C2.98584 29.3082 2.98584 29.1126 2.98584 28.917C3.04113 28.8518 3.15172 28.7866 3.26231 28.7214V28.7214Z" fill="#E7592A"/>
<path d="M15.9247 8.4436C15.98 8.57401 16.1459 8.67181 16.2565 8.83482C16.3118 8.83482 16.4224 8.83482 16.5882 8.83482C16.6435 8.86742 16.7541 8.93261 16.8647 9.03042C16.8647 9.06302 16.8647 9.12822 16.8647 9.19342C16.7541 9.25862 16.6435 9.32384 16.5882 9.38904C16.5882 9.58464 15.9247 9.58464 15.9247 9.38904C15.8141 9.32384 15.6482 9.25862 15.5929 9.19342C15.5929 9.12822 15.5929 9.06302 15.5929 9.03042C15.5929 8.93261 15.5929 8.86742 15.5929 8.83482C15.2612 8.83482 15.2612 8.4436 15.5929 8.4436C15.6482 8.4436 15.8141 8.4436 15.9247 8.4436Z" fill="#E7592A"/>
<path d="M25.0482 5.18339C25.0482 5.15079 25.0482 5.0856 25.0482 4.98779C25.1035 4.98779 25.2141 4.98779 25.38 4.98779C25.38 5.05299 25.38 5.11819 25.38 5.18339C25.3247 5.18339 25.1588 5.18339 25.0482 5.18339Z" fill="#E7592A"/>
<path d="M16.2564 0.619406C16.1458 0.652007 15.9799 0.717221 15.9246 0.815024C15.8141 0.847625 15.6482 0.912827 15.5929 0.978028C13.9341 0.978028 13.8235 0.35861 14.3211 0H15.9246C16.0905 0.130404 16.2564 0.358598 16.2564 0.619406Z" fill="#E7592A"/>
<path d="M9.4553 12.0949C9.4553 11.9971 9.4553 11.9319 9.4553 11.8993C9.28942 11.8993 9.17883 11.8993 9.12354 11.8993C9.17883 11.8015 9.28942 11.7363 9.4553 11.7037C9.51059 11.6385 9.62118 11.5407 9.78707 11.5081C10.0635 11.5407 10.3953 11.6385 10.7271 11.7037C10.7271 11.7363 10.7271 11.8015 10.7271 11.8993C10.6165 11.8993 10.4506 11.8993 10.3953 11.8993C10.2847 11.9319 10.1741 11.9971 10.0635 12.0949C9.84236 12.0949 9.62118 12.0949 9.4553 12.0949V12.0949Z" fill="#E7592A"/>
<path d="M3.59409 4.43359C3.81527 4.43359 3.98115 4.43359 4.25762 4.43359C4.31292 4.46619 4.42351 4.56399 4.58939 4.62919C4.64468 4.66179 4.75527 4.72701 4.86586 4.82481C4.86586 4.85741 4.86586 4.92261 4.86586 4.98781C4.75527 5.05302 4.64468 5.11821 4.58939 5.18341C4.42351 5.18341 4.31292 5.18341 4.25762 5.18341C4.09174 5.18341 3.98115 5.18341 3.92586 5.18341C3.81527 5.18341 3.64939 5.18341 3.59409 5.18341C3.4835 5.11821 3.37292 5.05302 3.26233 4.98781C3.26233 4.85741 3.26233 4.72699 3.26233 4.62919C3.37292 4.56399 3.4835 4.46619 3.59409 4.43359V4.43359Z" fill="#E7592A"/>
<path d="M100.525 36.3827L97.76 0H219.794L209.288 15.8766L164.445 36.3827H100.525Z" fill="#8A6E66"/>
<path d="M172.297 24.1899L141.553 0H147.525L174.674 16.8221L172.297 24.1899Z" fill="#C32A33"/>
<path d="M163.505 13.236L144.484 0H152.667L176.112 12.2905L163.505 13.236Z" fill="#A72A31"/>
<path d="M183.908 11.7037L158.031 0H167.099L196.515 10.7583L183.908 11.7037Z" fill="#9A2B31"/>
<path d="M176.112 12.2905L152.667 0H165.495L178.489 4.92274L176.112 12.2905Z" fill="#CC242E"/>
<path d="M194.138 0L196.294 2.77108L182.692 0H194.138Z" fill="#F27F30"/>
<path d="M197.234 0L196.294 2.77108L194.138 0H197.234Z" fill="#DDDCD9"/>
<path fill-rule="evenodd" clip-rule="evenodd" d="M209.841 17.6045C209.896 17.5393 209.896 17.5067 210.007 17.5719C210.283 17.6371 210.007 17.8653 209.841 17.6045ZM210.449 0H210.836C210.836 0.0434679 210.836 0.0760649 210.836 0.0977989C210.836 0.326006 210.505 0.260808 210.56 0.163005C210.523 0.119537 210.505 0.08692 210.505 0.065186C210.468 0.065186 210.449 0.0434679 210.449 0V0ZM211.832 0H236.216C235.995 0.0978029 235.829 0.130388 235.553 0.065186C235.442 0.0977869 235.387 0.130396 235.332 0.195598C235.332 0.195598 235.313 0.217336 235.276 0.260804C235.203 0.369473 235.111 0.489002 235 0.619406C234.742 0.96715 234.484 1.32576 234.226 1.69523C234.152 1.69523 234.097 1.70611 234.06 1.72785C234.06 1.74958 234.042 1.78218 234.005 1.82565C234.005 1.82565 233.986 1.84738 233.949 1.89085C233.913 1.91259 233.876 1.95604 233.839 2.02124C233.839 2.02124 233.839 2.04298 233.839 2.08645C233.839 2.15165 233.839 2.15165 233.618 2.18425C233.654 2.22772 233.71 2.28205 233.784 2.34725C233.636 2.34725 233.489 2.34725 233.341 2.34725C233.231 2.41245 233.138 2.47767 233.065 2.54287C233.065 2.57547 232.678 2.77108 232.622 2.77108C232.512 2.81455 232.383 2.858 232.235 2.90147C232.18 2.93407 232.125 2.96667 232.069 2.99927C231.572 3.03187 230.023 3.16229 229.305 3.5209C228.918 3.6839 229.028 4.00991 228.973 4.17292C229.12 4.23812 229.268 4.30331 229.415 4.36852C229.36 4.85753 228.973 4.79233 228.586 4.59673C228.42 4.53152 228.475 4.36851 228.199 4.30331C228.162 4.30331 228.125 4.29245 228.088 4.27072C227.941 4.29245 227.793 4.31419 227.646 4.33592C227.609 4.35766 227.591 4.37939 227.591 4.40113C227.701 4.42286 227.812 4.45546 227.922 4.49893C227.812 4.62933 227.812 4.62933 227.701 4.59673C227.701 4.61846 227.683 4.6402 227.646 4.66193C227.812 4.75973 227.812 4.75973 227.701 4.75973C227.701 4.78146 227.701 4.8032 227.701 4.82494C227.738 4.8684 227.775 4.92274 227.812 4.98794C227.738 5.05314 227.664 5.12922 227.591 5.21615C226.706 6.35719 224.052 7.88942 222.338 5.90076C221.895 5.34655 222.393 5.02054 221.508 4.82494C221.434 4.78147 221.361 4.75973 221.287 4.75973C221.176 4.738 221.103 4.71626 221.066 4.69453C221.011 4.69453 220.9 4.72714 220.9 4.72714C220.826 4.72714 220.789 4.71626 220.789 4.69453C220.716 4.69453 220.679 4.68367 220.679 4.66193C220.568 4.66193 220.458 4.66193 220.347 4.66193C220.31 4.66193 220.273 4.66193 220.236 4.66193C220.236 4.66193 220.218 4.68367 220.181 4.72714C220.292 4.75974 220.181 4.89013 220.071 4.85753C220.107 4.79233 220.144 4.74887 220.181 4.72714C220.107 4.7054 220.034 4.68367 219.96 4.66193C219.905 4.66193 219.849 4.66192 219.794 4.69453C219.757 4.67279 219.72 4.66193 219.683 4.66193C219.61 4.66193 219.554 4.67279 219.518 4.69453C219.444 4.67279 219.37 4.66193 219.296 4.66193C218.412 4.40112 218.025 4.49893 218.301 4.72714C218.467 4.82494 218.688 4.89014 218.578 5.05315C218.522 5.54216 218.08 5.50956 217.693 5.54216C217.656 5.5639 217.638 5.58561 217.638 5.60735C217.674 5.62908 217.73 5.63996 217.804 5.63996C217.84 5.63996 217.859 5.63996 217.859 5.63996C217.896 5.61823 217.933 5.60735 217.969 5.60735C218.006 5.60735 218.025 5.60735 218.025 5.60735C218.025 5.60735 218.08 5.60736 218.08 5.63996C218.043 5.63996 218.006 5.65082 217.969 5.67255C217.969 5.67255 217.951 5.67255 217.914 5.67255C217.877 5.69429 217.859 5.70517 217.859 5.70517C217.748 5.68343 217.674 5.68343 217.638 5.70517C217.601 5.70517 217.564 5.70517 217.527 5.70517C217.14 5.63996 217.14 5.63996 217.195 5.57475C217.306 5.59649 217.416 5.62909 217.527 5.67255C217.564 5.65082 217.582 5.63996 217.582 5.63996C217.619 5.63996 217.638 5.62908 217.638 5.60735C217.601 5.58561 217.564 5.57475 217.527 5.57475C217.269 5.50955 217.029 5.45522 216.808 5.41175C216.771 5.36828 216.753 5.33569 216.753 5.31395C216.679 5.29222 216.642 5.28134 216.642 5.28134C216.587 5.18354 215.979 4.14032 216.753 4.33592C216.827 4.31419 216.882 4.30331 216.919 4.30331C217.085 4.0751 217.029 4.1403 216.919 3.9773C216.771 3.93383 216.642 3.90124 216.532 3.8795C216.421 3.85777 216.292 3.84691 216.145 3.84691C216.108 3.84691 216.071 3.83603 216.034 3.8143C215.979 3.8143 215.924 3.84691 215.868 3.84691C215.758 3.82517 215.684 3.8143 215.647 3.8143C215.573 3.79256 215.536 3.7817 215.536 3.7817C214.375 3.7491 212.44 2.64066 212.882 2.18425C212.956 2.18425 213.03 2.18425 213.104 2.18425C213.159 2.11905 213.269 2.05384 213.38 2.02124C213.325 1.95604 213.325 1.92344 213.269 1.92344C213.38 1.79304 213.048 1.53223 212.993 1.43443C212.993 1.39096 212.993 1.36922 212.993 1.36922C212.882 1.30402 212.772 1.24969 212.661 1.20622C212.661 1.11928 212.643 1.03235 212.606 0.945416C212.661 0.912815 212.44 0.554216 212.385 0.489014C212.348 0.46728 212.311 0.456401 212.274 0.456401C212.219 0.325998 212.053 0.1304 211.887 0.0977989C211.85 0.0543309 211.832 0.021734 211.832 0V0ZM208.901 17.0503C209.067 16.9525 209.288 16.9525 209.675 17.0829C209.675 17.0829 209.657 17.1046 209.62 17.1481C209.657 17.1481 209.712 17.159 209.786 17.1807C209.786 17.2024 209.804 17.235 209.841 17.2785C209.952 17.2785 209.786 17.5067 209.675 17.4741C209.343 17.4089 208.348 17.4089 208.901 17.0503V17.0503ZM234.668 1.63005C234.779 1.56485 234.945 1.56484 235.055 1.56484C235.498 1.56484 235.221 1.95606 234.668 1.63005ZM236.88 2.60808C236.88 2.54287 236.88 2.4668 236.88 2.37987C237.101 2.47767 237.101 2.47767 237.212 2.60808C237.101 2.60808 236.991 2.60808 236.88 2.60808ZM233.452 2.54287C233.489 2.54287 233.507 2.52113 233.507 2.47766C233.544 2.4994 233.581 2.51026 233.618 2.51026C233.618 2.53199 233.599 2.55373 233.562 2.57546C233.562 2.57546 233.525 2.5646 233.452 2.54287ZM231.351 3.8143C231.295 3.8143 231.185 3.9121 231.129 3.8795C230.853 3.8143 231.572 3.52089 231.351 3.8143ZM240.972 7.36781C240.935 7.36781 240.898 7.35695 240.861 7.33521C240.714 7.31348 240.585 7.29174 240.474 7.27001C240.437 7.24827 240.4 7.2374 240.363 7.2374C240.308 7.2374 240.253 7.23741 240.198 7.27001C240.124 7.24827 240.05 7.22654 239.976 7.2048C239.903 7.1396 239.811 7.08527 239.7 7.0418C239.663 7.0418 239.626 7.03094 239.589 7.0092C239.516 7.0092 239.479 7.0092 239.479 7.0092C239.405 6.98747 239.368 6.97659 239.368 6.97659C238.926 6.87879 239.479 6.65059 240.032 6.68319C240.695 6.7158 242.52 7.75902 240.972 7.36781V7.36781ZM229.747 4.46631C229.636 4.17291 230.023 4.17292 230.134 4.33592C230.189 4.53153 229.913 4.49892 229.747 4.46631ZM228.309 4.92274C227.646 4.92274 227.978 4.69453 228.199 4.69453C228.309 4.69453 228.309 4.89013 228.309 4.92274ZM211.998 0.847617C212.034 0.869351 212.071 0.88021 212.108 0.88021C212.071 0.923678 212.034 0.967154 211.998 1.01062C212.108 1.04322 212.053 1.17363 211.887 1.17363C211.813 1.19536 211.758 1.22796 211.721 1.27143C211.647 1.27143 211.592 1.2823 211.555 1.30404C211.5 1.43444 211.5 1.43443 211.334 1.49964C211.297 1.49964 211.26 1.51049 211.224 1.53223C211.224 1.55396 211.205 1.58658 211.168 1.63005C211.094 1.58658 211.058 1.5431 211.058 1.49964C211.094 1.4779 211.15 1.46704 211.224 1.46704C211.26 1.44531 211.279 1.44531 211.279 1.46704C211.224 1.33664 211.224 1.33664 211.279 1.07583C211.445 0.847621 211.666 0.61941 211.998 0.847617V0.847617ZM229.249 5.31395C229.028 5.08574 229.305 4.98794 229.471 5.08574C229.692 5.24875 229.36 5.28135 229.249 5.31395ZM212.329 1.17363C212.329 1.15189 212.329 1.13015 212.329 1.10842C212.366 1.10842 212.422 1.1193 212.495 1.14103C212.458 1.16277 212.44 1.18449 212.44 1.20622C212.403 1.20622 212.366 1.19536 212.329 1.17363ZM208.735 0.423808C208.735 0.402074 208.735 0.380336 208.735 0.358603C208.772 0.336869 208.791 0.32601 208.791 0.32601C208.791 0.32601 208.791 0.358595 208.846 0.391195C208.809 0.391195 208.772 0.402074 208.735 0.423808V0.423808ZM229.194 5.60735C228.696 5.73775 228.752 5.47695 228.918 5.41175C229.028 5.37915 229.249 5.54215 229.194 5.60735ZM212.661 1.43443C212.661 1.4127 212.68 1.39096 212.716 1.36922C212.753 1.36922 212.79 1.3801 212.827 1.40184C212.827 1.40184 212.809 1.42357 212.772 1.46704C212.735 1.46704 212.698 1.45616 212.661 1.43443ZM227.867 5.34654C227.922 5.31394 227.922 5.21614 227.978 5.18354C228.365 5.08574 228.365 5.47695 227.867 5.34654ZM212.385 1.43443C212.385 1.4127 212.403 1.39096 212.44 1.36922C212.477 1.36922 212.514 1.3801 212.551 1.40184C212.551 1.42357 212.532 1.44531 212.495 1.46704C212.458 1.46704 212.422 1.45616 212.385 1.43443ZM229.692 6.06377C229.028 6.12897 229.249 5.83557 229.526 5.86817C229.581 5.86817 229.636 6.03117 229.692 6.06377ZM227.48 5.83556C227.425 5.63995 227.756 5.63996 227.812 5.73776C227.812 5.80296 227.591 5.86816 227.48 5.83556ZM220.126 5.02053C220.236 4.85753 220.624 4.92273 220.679 5.02053C220.845 5.24874 220.181 5.05314 220.126 5.02053ZM219.96 5.21615C219.96 5.19442 219.978 5.17268 220.015 5.15095C220.052 5.17268 220.089 5.18354 220.126 5.18354C220.126 5.20527 220.107 5.22701 220.071 5.24875C220.034 5.24875 219.997 5.23789 219.96 5.21615ZM218.744 4.89014C218.799 4.72714 219.02 4.79234 218.965 4.89014C218.909 5.08575 218.688 5.08575 218.744 4.89014ZM219.075 5.31395C219.075 5.18355 219.352 5.18354 219.407 5.28134C219.462 5.37914 219.075 5.57476 219.075 5.31395ZM215.868 4.82494C215.868 4.82494 215.887 4.8032 215.924 4.75973C215.924 4.78146 215.96 4.79232 216.034 4.79232C215.997 4.81406 215.979 4.8358 215.979 4.85753C215.942 4.85753 215.905 4.84667 215.868 4.82494ZM215.481 4.82494C215.481 4.8032 215.481 4.78146 215.481 4.75973C215.518 4.75973 215.573 4.77059 215.647 4.79232C215.61 4.79232 215.592 4.81406 215.592 4.85753C215.555 4.8358 215.518 4.82494 215.481 4.82494ZM216.2 5.31395C216.2 5.31395 216.218 5.29221 216.255 5.24875C216.255 5.27048 216.292 5.28134 216.366 5.28134C216.329 5.30307 216.311 5.32481 216.311 5.34654C216.274 5.34654 216.237 5.33569 216.2 5.31395ZM217.804 5.90076C217.84 5.87903 217.859 5.85729 217.859 5.83556C217.896 5.83556 217.933 5.84644 217.969 5.86817C217.969 5.88991 217.969 5.91162 217.969 5.93336C217.933 5.93336 217.877 5.9225 217.804 5.90076ZM216.753 5.77035C216.679 5.77035 216.605 5.75949 216.532 5.73776C216.587 5.67256 216.587 5.67255 216.808 5.77035C216.845 5.77035 216.863 5.78123 216.863 5.80297C216.9 5.7595 216.937 5.7269 216.974 5.70517C217.048 5.77037 217.14 5.84642 217.251 5.93336C217.435 5.95509 217.619 5.97683 217.804 5.99856C217.73 6.06376 217.674 6.12898 217.638 6.19418C217.14 6.16158 217.029 6.12896 216.642 5.93336C216.605 5.93336 216.569 5.93336 216.532 5.93336C216.532 5.95509 216.532 5.97683 216.532 5.99856C216.495 5.99856 216.476 6.0203 216.476 6.06377C216.476 6.06377 216.495 6.06377 216.532 6.06377C216.532 6.06377 216.55 6.05291 216.587 6.03118C216.624 6.05291 216.642 6.07463 216.642 6.09636C216.605 6.09636 216.587 6.09636 216.587 6.09636C216.513 6.09636 216.458 6.10724 216.421 6.12897C216.421 6.15071 216.403 6.17245 216.366 6.19418C216.255 6.28112 216.126 6.37891 215.979 6.48758C215.924 6.48758 215.868 6.52018 215.868 6.55278C215.831 6.55278 215.813 6.57452 215.813 6.61799C215.776 6.61799 215.758 6.63973 215.758 6.68319C215.684 6.66146 215.647 6.65058 215.647 6.65058C215.592 6.65058 215.481 6.65059 215.481 6.68319C215.371 6.68319 215.26 6.68319 215.205 6.68319C215.168 6.70493 215.149 6.72665 215.149 6.74838C215.26 6.91139 215.205 7.0092 215.094 7.17221C215.039 7.20481 214.928 7.23741 214.873 7.27001C214.486 7.30261 214.486 7.5634 214.431 7.72641C214.32 8.01982 214.099 8.05243 213.546 7.98723C213.509 7.9655 213.472 7.95462 213.435 7.95462C213.398 7.93289 213.362 7.92203 213.325 7.92203C213.325 7.94376 213.306 7.97636 213.269 8.01983C213.122 7.97636 212.993 7.94376 212.882 7.92203C212.919 7.87856 212.938 7.84596 212.938 7.82423C212.864 7.80249 212.79 7.78076 212.716 7.75902C212.68 7.75902 212.643 7.75902 212.606 7.75902C212.772 7.49821 212.44 7.2374 212.772 6.81359C212.772 6.74838 212.716 6.68318 212.716 6.65058C212.753 6.60711 212.79 6.56366 212.827 6.52019C212.882 6.48759 212.938 6.48758 212.993 6.48758C213.03 6.46584 213.085 6.44411 213.159 6.42237C213.196 6.42237 213.233 6.43325 213.269 6.45498C213.325 6.38978 213.656 6.48758 213.656 6.55278C213.656 6.55278 213.693 6.56364 213.767 6.58538C213.767 6.60711 213.785 6.63973 213.822 6.68319C213.896 6.70493 213.97 6.72665 214.044 6.74838C214.08 6.72665 214.099 6.69405 214.099 6.65058C214.173 6.62885 214.228 6.61799 214.265 6.61799C214.338 6.59626 214.394 6.58538 214.431 6.58538C214.467 6.58538 214.504 6.59626 214.541 6.61799C214.596 6.55279 214.707 6.55279 214.762 6.52019C214.725 6.49846 214.689 6.48758 214.652 6.48758C214.652 6.45498 214.596 6.38978 214.596 6.38978C214.56 6.34631 214.541 6.31371 214.541 6.29198C214.504 6.24851 214.486 6.21591 214.486 6.19418C214.449 6.15071 214.412 6.1181 214.375 6.09636C214.043 5.99856 214.983 5.34656 215.758 5.54216C215.831 5.5639 215.905 5.58561 215.979 5.60735C216.016 5.60735 216.053 5.61823 216.089 5.63996C216.089 5.63996 216.145 5.67257 216.145 5.70517C216.145 5.74863 216.163 5.79209 216.2 5.83556C216.2 5.85729 216.182 5.87903 216.145 5.90076C216.182 5.90076 216.237 5.91162 216.311 5.93336C216.366 5.90076 216.421 5.90076 216.532 5.90076C216.532 5.90076 216.55 5.88991 216.587 5.86817C216.624 5.84644 216.679 5.83556 216.753 5.83556C216.753 5.81382 216.753 5.79209 216.753 5.77035V5.77035ZM218.633 6.25937C218.67 6.25937 218.688 6.23765 218.688 6.19418C218.725 6.21591 218.762 6.22677 218.799 6.22677C218.799 6.24851 218.78 6.27025 218.744 6.29198C218.744 6.29198 218.707 6.2811 218.633 6.25937ZM216.642 5.60735C216.679 5.58561 216.698 5.5639 216.698 5.54216C216.771 5.5639 216.845 5.58561 216.919 5.60735C216.919 5.60735 216.9 5.62909 216.863 5.67255C216.827 5.65082 216.753 5.62908 216.642 5.60735ZM214.099 5.11833C214.136 5.0966 214.154 5.07488 214.154 5.05315C214.191 5.05315 214.228 5.06401 214.265 5.08574C214.265 5.10747 214.246 5.12921 214.209 5.15095C214.209 5.15095 214.173 5.14007 214.099 5.11833ZM216.421 6.29198C216.458 6.27025 216.476 6.24851 216.476 6.22677C216.513 6.22677 216.55 6.23763 216.587 6.25937C216.587 6.25937 216.569 6.2811 216.532 6.32457C216.532 6.30284 216.495 6.29198 216.421 6.29198ZM213.822 5.70517C213.822 5.63996 213.822 5.60736 213.822 5.57475C213.896 5.59649 213.97 5.60735 214.044 5.60735C213.97 5.62908 213.896 5.6617 213.822 5.70517ZM216.311 6.42237C216.347 6.40064 216.366 6.37892 216.366 6.35719C216.403 6.35719 216.44 6.36804 216.476 6.38978C216.476 6.41151 216.458 6.43325 216.421 6.45498C216.421 6.45498 216.384 6.44411 216.311 6.42237ZM213.491 6.16157C213.656 5.90076 213.656 5.90076 213.822 5.93336C213.712 6.03116 213.601 6.09638 213.546 6.19418C213.509 6.21591 213.472 6.22677 213.435 6.22677C213.325 6.24851 213.214 6.27025 213.104 6.29198C213.104 6.24851 213.122 6.20504 213.159 6.16157C213.233 6.16157 213.325 6.16157 213.435 6.16157C213.435 6.16157 213.454 6.16157 213.491 6.16157V6.16157ZM213.491 6.35719C213.546 6.29198 213.546 6.29198 214.154 6.35719C214.154 6.40065 214.136 6.44411 214.099 6.48758C213.878 6.44411 213.675 6.40065 213.491 6.35719V6.35719ZM222.614 9.16086C222.614 9.13913 222.633 9.11739 222.669 9.09565C222.706 9.09565 222.743 9.10653 222.78 9.12827C222.78 9.12827 222.762 9.14998 222.725 9.19345C222.688 9.17172 222.651 9.16086 222.614 9.16086ZM216.366 7.72641C216.44 7.74814 216.513 7.76988 216.587 7.79162C216.587 7.79162 216.642 7.85681 216.642 7.88941C216.605 7.86768 216.569 7.85682 216.532 7.85682C216.495 7.83509 216.458 7.82423 216.421 7.82423C216.384 7.80249 216.347 7.79162 216.311 7.79162C216.274 7.79162 216.237 7.78076 216.2 7.75902C216.2 7.78076 216.182 7.80249 216.145 7.82423C216.145 7.84596 216.126 7.86768 216.089 7.88941C215.979 7.86768 215.868 7.84596 215.758 7.82423C215.868 7.69382 215.868 7.69381 215.702 7.62861C215.665 7.67208 215.629 7.72641 215.592 7.79162C215.555 7.76988 215.518 7.75902 215.481 7.75902C215.518 7.71555 215.536 7.69382 215.536 7.69382C215.5 7.67208 215.463 7.66122 215.426 7.66122C215.426 7.68296 215.407 7.70468 215.371 7.72641C215.334 7.70468 215.297 7.69382 215.26 7.69382C215.223 7.67208 215.186 7.66122 215.149 7.66122C215.113 7.61776 215.094 7.58514 215.094 7.5634C214.984 7.5308 214.984 7.27 215.315 7.3026C215.371 7.3026 215.536 7.36781 215.702 7.43301C215.979 7.53082 216.255 7.5634 216.366 7.72641V7.72641ZM210.007 6.68319C210.044 6.68319 210.081 6.68319 210.118 6.68319C210.118 6.68319 210.118 6.69405 210.118 6.71579C210.081 6.71579 210.062 6.72665 210.062 6.74838C210.007 6.74838 209.896 6.78099 209.896 6.81359C209.86 6.83532 209.841 6.85706 209.841 6.87879C209.804 6.90053 209.786 6.92226 209.786 6.944C209.675 7.0418 209.509 6.94399 209.288 6.81359C209.251 6.81359 209.214 6.81359 209.178 6.81359C209.122 6.87879 209.122 6.8788 208.901 6.78099C208.901 6.75926 208.901 6.73752 208.901 6.71579C208.901 6.65059 208.901 6.65059 208.956 6.71579C208.993 6.71579 209.012 6.72665 209.012 6.74838C209.049 6.77011 209.104 6.79185 209.178 6.81359C209.214 6.77012 209.233 6.73752 209.233 6.71579C209.233 6.68319 209.178 6.65059 209.178 6.61799C208.68 6.38978 209.399 6.22678 209.731 6.61799C209.731 6.63972 209.712 6.66146 209.675 6.68319C209.712 6.70493 209.731 6.73753 209.731 6.78099C209.767 6.78099 209.823 6.79185 209.896 6.81359C209.933 6.74838 209.97 6.70493 210.007 6.68319V6.68319ZM210.283 6.97659C210.449 6.91139 210.449 6.91139 210.505 6.97659C210.449 6.97659 210.339 6.97659 210.283 6.97659ZM208.625 6.65058C208.625 6.62885 208.625 6.60711 208.625 6.58538C208.662 6.58538 208.717 6.59626 208.791 6.61799C208.754 6.61799 208.735 6.63973 208.735 6.68319C208.698 6.66146 208.662 6.65058 208.625 6.65058ZM212.053 7.59602C212.164 7.62862 211.942 7.92202 211.832 7.88941C211.832 7.91115 211.813 7.93289 211.776 7.95462C211.721 7.95462 211.666 7.95463 211.611 7.98723C211.574 7.98723 211.537 7.97635 211.5 7.95462C211.426 7.93289 211.353 7.91115 211.279 7.88941C211.279 7.85681 211.224 7.82422 211.224 7.79162C211.187 7.76988 211.168 7.73728 211.168 7.69382C211.058 7.69382 211.168 7.46562 211.279 7.49822C211.721 7.30261 211.832 7.53082 212.053 7.59602V7.59602ZM209.896 7.107C210.007 7.08527 210.099 7.07439 210.173 7.07439C210.394 7.17219 210.394 7.17221 210.339 7.27001C210.191 7.22654 210.062 7.19394 209.952 7.17221C209.896 7.17221 209.896 7.17221 209.896 7.17221C209.731 7.13961 209.731 7.1396 209.841 7.1396C209.878 7.11786 209.896 7.107 209.896 7.107ZM208.514 6.78099C208.514 6.75926 208.533 6.73752 208.569 6.71579C208.569 6.71579 208.606 6.72665 208.68 6.74838C208.643 6.77011 208.625 6.79185 208.625 6.81359C208.588 6.81359 208.551 6.80273 208.514 6.78099ZM209.288 7.0418C209.325 6.99833 209.362 6.95485 209.399 6.91139C209.399 6.94399 209.454 6.9766 209.509 7.0418C209.436 7.0418 209.362 7.05266 209.288 7.07439C209.288 7.07439 209.233 7.0744 209.233 7.107C209.62 7.59602 208.403 7.59601 208.901 6.97659C209.012 6.99833 209.104 7.02006 209.178 7.0418C209.214 7.0418 209.251 7.0418 209.288 7.0418V7.0418ZM210.836 7.49822C210.836 7.47648 210.836 7.46561 210.836 7.46561C210.836 7.46561 210.855 7.45475 210.892 7.43301C210.929 7.45475 210.947 7.47648 210.947 7.49822C210.947 7.54169 210.929 7.59602 210.892 7.66122C210.781 7.62862 210.781 7.62862 210.836 7.49822ZM211.058 8.01983C211.058 7.99809 211.076 7.97635 211.113 7.95462C211.187 7.95462 211.26 7.9655 211.334 7.98723C211.334 8.00897 211.316 8.03069 211.279 8.05242C211.242 8.05242 211.168 8.04156 211.058 8.01983ZM210.56 7.92203C210.56 7.90029 210.56 7.88941 210.56 7.88941C210.56 7.86768 210.578 7.85682 210.615 7.85682C210.615 7.87856 210.634 7.88941 210.671 7.88941C210.634 7.93288 210.597 7.98722 210.56 8.05242C210.523 8.05242 210.486 8.05242 210.449 8.05242C210.413 8.07415 210.376 8.10677 210.339 8.15024C210.302 8.15024 210.265 8.1611 210.228 8.18283C210.191 8.24803 210.136 8.32411 210.062 8.41104C209.952 8.37844 209.952 8.37843 210.228 8.11762C210.228 8.11762 210.283 8.08502 210.283 8.11762C210.357 8.07416 210.413 8.04156 210.449 8.01983C210.449 7.99809 210.468 7.98723 210.505 7.98723C210.542 7.9655 210.56 7.94376 210.56 7.92203V7.92203ZM210.781 8.01983C210.818 7.95462 210.873 7.88943 210.947 7.82423C210.947 7.82423 210.984 7.83509 211.058 7.85682C211.021 7.92202 210.965 7.98722 210.892 8.05242C210.855 8.05242 210.818 8.04156 210.781 8.01983ZM211.666 8.63925C211.555 8.83486 211.224 8.83485 210.892 8.76964C210.284 8.60664 210.449 8.11762 211.113 8.11762C211.15 8.11762 211.187 8.1285 211.224 8.15024C211.297 8.15024 211.389 8.1611 211.5 8.18283C211.776 8.24803 211.776 8.50885 211.666 8.63925ZM209.952 8.01983C210.118 7.75902 210.118 7.75901 210.228 7.79162C210.173 7.88942 210.062 7.95462 210.007 8.05242C209.97 8.07415 209.933 8.08503 209.896 8.08503C209.731 8.47624 209.62 8.44365 209.731 8.31324C208.901 8.31324 209.012 7.98723 209.896 8.01983C209.896 8.01983 209.915 8.01983 209.952 8.01983V8.01983ZM209.952 8.54143C209.989 8.5197 210.007 8.49798 210.007 8.47625C210.044 8.47625 210.081 8.48711 210.118 8.50884C210.118 8.50884 210.099 8.53058 210.062 8.57405C210.062 8.55231 210.025 8.54143 209.952 8.54143ZM210.283 8.86744C210.32 8.86744 210.339 8.84572 210.339 8.80226C210.376 8.80226 210.413 8.81312 210.449 8.83485C210.449 8.85658 210.431 8.87832 210.394 8.90006C210.394 8.90006 210.357 8.88918 210.283 8.86744ZM207.795 8.11762C208.016 8.18283 207.961 8.31323 207.795 8.34584C207.519 8.37844 207.298 8.01982 207.795 8.11762ZM211.002 9.22607C211.002 9.22607 211.058 9.25866 211.058 9.32386C211.058 9.35647 211.058 9.42167 211.113 9.48687C210.836 9.78028 209.896 9.91068 209.786 9.42166C209.731 9.32386 209.841 8.96525 210.56 9.09565C210.597 9.11739 210.671 9.13913 210.781 9.16086C210.818 9.16086 210.855 9.17172 210.892 9.19345C210.929 9.19345 210.965 9.20433 211.002 9.22607ZM210.228 10.8887C210.339 10.8887 210.228 11.0517 210.118 11.0191C209.344 12.0623 208.459 10.2693 209.178 10.4323C209.343 10.4975 210.671 10.2693 210.228 10.8887ZM209.178 11.5081C209.214 11.5299 209.233 11.5625 209.233 11.6059C209.288 11.6385 209.288 11.6711 209.344 11.7037C209.307 11.7255 209.288 11.7472 209.288 11.7689C209.122 12.0297 208.846 11.9972 208.514 11.8993C208.44 11.8993 208.404 11.8885 208.404 11.8667C208.348 11.8341 208.348 11.8015 208.348 11.7689C208.238 11.2147 209.233 11.5081 209.178 11.5081ZM209.288 12.6818C209.344 12.6818 209.344 12.7144 209.344 12.7796C209.344 12.8013 209.325 12.823 209.288 12.8448C209.399 12.8774 209.233 13.1382 209.122 13.1056C209.067 13.1056 209.012 13.1382 208.956 13.1708C208.901 13.1708 208.846 13.1708 208.791 13.2034C208.754 13.1817 208.717 13.1708 208.68 13.1708C207.629 12.91 208.127 12.3557 209.288 12.6818ZM208.956 13.9532C208.92 13.9749 208.901 13.9967 208.901 14.0184C207.795 14.051 208.072 13.5946 208.238 13.6272C208.238 13.5837 208.238 13.5511 208.238 13.5294C208.293 13.5294 208.348 13.4968 208.404 13.4968C209.067 13.6598 209.122 13.9858 208.956 13.9532ZM211.058 16.3005C210.781 16.3005 210.781 16.2027 210.947 16.1375C211.334 16.1049 211.389 16.2679 211.058 16.3005ZM210.56 16.4961C210.56 16.3983 210.781 16.3983 210.836 16.4635C210.892 16.5613 210.671 16.6591 210.56 16.4961Z" fill="#D2222E"/>
<path d="M12.22 8.4436L9.67647 12.0297L14.6529 14.54L8.12824 14.214L5.64 17.8001L4.09177 14.051L0 13.8554V12.8447L3.15177 11.7037L1.65882 7.95459L6.63529 10.4649L12.22 8.4436Z" fill="#76D7DD"/>
<path d="M107.989 11.3451L86.9777 13.2686L83.7153 0.847617L93.06 0H105.059L107.989 11.3451Z" fill="#76D7DD"/>
<path d="M104.893 10.0084L89.2447 11.4429L86.8118 2.18419L102.515 0.749756L104.893 10.0084Z" fill="#DDDCD9"/>
<path d="M100.912 8.28058L92.1753 9.09561L90.793 3.91207L99.5294 3.12964L100.912 8.28058Z" fill="#46BC3C"/>
<path d="M195.876 25.1353L137.044 36.3827H131.016L111 0H182.053L195.876 25.1353Z" fill="#F4811F"/>
<path d="M81.393 22.5272L28.5318 32.6661L11.3906 1.46704L19.0765 0H69.0071L81.393 22.5272Z" fill="#FAAE3C"/>
<path d="M74.0388 20.6364L31.3517 28.7866L17.4729 3.6187L36.2729 0H62.7035L74.0388 20.6364Z" fill="#B99719"/>
<path d="M197.355 23.5825L165.395 29.7115L155 10.8356L185.522 5H187.126L197.355 23.5825Z" fill="#4D4813"/>
<path d="M141.498 1.33663C141.442 1.30403 141.276 1.27143 141.111 1.23883C141.221 0.945424 141.332 0.619414 141.387 0.260804C141.442 0.228203 141.498 0.130396 141.553 0.032593V0H144.262C144.207 0.0652019 144.152 0.130404 144.096 0.163005C143.986 0.35861 143.875 0.489002 143.82 0.619406C143.654 0.684608 143.433 0.749818 143.267 0.749818C143.212 0.81502 143.156 0.912815 143.101 0.945416C142.935 1.04322 142.714 1.07583 142.548 1.07583C142.493 1.17363 142.438 1.27144 142.382 1.30404C142.272 1.36924 142.051 1.43443 141.885 1.43443C141.774 1.40183 141.664 1.36923 141.498 1.33663Z" fill="#F948DD"/>
<path d="M143.875 6.68327C143.765 6.78107 143.709 6.87886 143.709 6.91146C143.599 7.00926 143.544 7.07447 143.544 7.13967C143.378 7.20487 143.156 7.23747 142.991 7.23747C142.935 7.23747 142.769 7.20487 142.604 7.13967C142.659 7.10707 142.714 7.00927 142.769 6.94407C142.825 6.87887 142.88 6.81366 142.935 6.71586C143.101 6.71586 143.322 6.65065 143.488 6.58545C143.599 6.61805 143.765 6.68327 143.82 6.68327H143.875Z" fill="#F948DD"/>
<path d="M101.188 3.71645C101.409 3.71645 101.575 3.68385 101.741 3.61865C101.907 3.65125 102.018 3.68385 102.128 3.71645C102.239 3.74905 102.405 3.78165 102.46 3.81425C102.515 4.00986 102.571 4.17287 102.515 4.33588C101.852 5.2161 100.58 4.59668 101.188 3.71645V3.71645Z" fill="#F948DD"/>
<path d="M92.2859 2.51013C92.2306 2.44492 92.1753 2.31452 92.0647 2.18412C92.1753 2.05371 92.2859 1.92332 92.3965 1.72771C92.5623 1.53211 93.6682 1.7929 93.5023 2.02111C93.4471 2.11891 93.3917 2.21672 93.3365 2.24932C93.2812 2.34712 93.2259 2.41233 93.1706 2.47753C93.06 2.54273 92.8388 2.57534 92.6729 2.60794C92.5623 2.57534 92.4518 2.54273 92.2859 2.51013V2.51013Z" fill="#F948DD"/>
<path d="M132.706 16.2677C132.651 16.3981 132.54 16.5285 132.429 16.7241C132.319 16.6915 132.208 16.6589 132.042 16.6263C132.153 16.4959 132.208 16.3655 132.374 16.1699C132.429 16.2025 132.595 16.2351 132.706 16.2677V16.2677Z" fill="#F948DD"/>
<path d="M124.965 15.8768C125.02 16.0398 125.02 16.1376 125.02 16.2354C124.688 16.2028 124.301 16.1702 123.914 16.105C124.025 15.9746 124.08 15.8442 124.246 15.6812C124.522 15.7464 124.744 15.8115 124.965 15.8768V15.8768Z" fill="#F948DD"/>
<path d="M130.66 19.6584C130.494 19.9192 130.494 19.9192 129.72 19.7562C129.794 19.6693 129.867 19.5714 129.941 19.4628C129.941 19.4302 130.052 19.3324 130.107 19.2672C130.107 19.202 130.218 19.1368 130.273 19.039C130.494 18.6804 130.771 18.3218 131.047 17.9306C130.715 17.8327 130.992 17.4089 131.379 17.5067C131.545 17.2785 137.019 18.5826 131.102 19.691C131.324 20.017 133.203 20.8972 130.715 20.2452C130.771 20.1474 130.881 20.017 130.936 19.8866C130.992 19.854 130.936 19.7888 130.881 19.7236C130.807 19.7019 130.734 19.6801 130.66 19.6584Z" fill="#F948DD"/>
<path d="M124.633 18.1261C124.688 18.2891 124.688 18.4521 124.688 18.5499C124.43 18.5499 124.172 18.5391 123.914 18.5173C124.025 18.3869 124.135 18.1913 124.246 18.0283C124.246 17.9631 124.135 17.8327 124.08 17.7023C124.025 17.6371 123.914 17.5393 123.859 17.4089C123.859 17.3437 123.914 17.2785 124.025 17.1807C124.191 17.1807 124.412 17.1155 124.522 17.0503C124.633 17.1807 124.688 17.3111 124.743 17.3763C124.743 17.6371 124.743 17.8979 124.633 18.1261V18.1261Z" fill="#F948DD"/>
<path d="M124.854 19.0063C124.854 19.2671 124.854 19.5279 124.744 19.7887C124.578 19.6583 124.301 19.5605 124.025 19.4301C124.08 19.2345 124.135 19.0389 124.135 18.8433C124.412 18.9085 124.633 18.9737 124.854 19.0063Z" fill="#F948DD"/>
<path d="M129.167 21.158C128.835 21.5818 128.835 21.5818 128.448 21.5166C128.559 21.3536 128.614 21.2232 128.78 21.0602C128.725 20.995 128.669 20.8646 128.559 20.7342C128.614 20.7016 128.669 20.6038 128.725 20.5386C128.891 20.506 129.112 20.4734 129.278 20.4082C129.333 20.5386 129.444 20.669 129.444 20.7016C129.831 20.7994 129.499 21.2558 129.167 21.158V21.158Z" fill="#F948DD"/>
<path d="M124.799 21.6144C124.744 21.6144 124.578 21.5492 124.467 21.5166C124.412 21.4514 124.301 21.321 124.246 21.2232C124.246 21.158 124.356 21.0928 124.412 20.995C124.412 20.9298 124.467 20.8646 124.578 20.7668C124.744 20.5386 125.462 20.7342 125.296 20.9624C125.296 21.2232 125.296 21.484 125.186 21.7122C125.02 21.9404 125.794 22.136 125.628 22.3316C125.573 22.4294 125.462 22.5272 125.462 22.5598C126.402 23.114 122.642 24.1573 124.799 21.6144V21.6144Z" fill="#F948DD"/>
<path d="M134.309 25.6568C134.254 25.7546 134.199 25.8524 134.143 25.885C134.033 25.9502 133.812 26.0154 133.646 26.0154C133.535 25.9828 133.425 25.9502 133.259 25.9176C132.872 25.8198 132.872 25.8198 133.203 25.396C133.572 25.4829 133.941 25.5699 134.309 25.6568Z" fill="#F948DD"/>
<path d="M111.749 19.8866C111.584 20.1148 110.809 19.9192 110.975 19.691C111.086 19.5606 111.196 19.3976 111.362 19.2346C112.081 19.3976 112.081 19.3976 111.915 19.6258C111.842 19.7128 111.786 19.7997 111.749 19.8866Z" fill="#F948DD"/>
<path d="M104.229 18.5172C104.119 18.7128 103.345 18.5498 103.511 18.3216C103.566 18.289 103.621 18.1912 103.677 18.0934C103.842 17.8652 104.561 18.0608 104.395 18.289C104.34 18.3868 104.285 18.452 104.229 18.5172Z" fill="#F948DD"/>
<path d="M107.989 22.5924C107.934 22.625 107.879 22.7228 107.823 22.8206C107.768 22.788 107.602 22.7554 107.436 22.7228C107.492 22.6902 107.547 22.5924 107.602 22.4946C107.658 22.5272 107.823 22.5598 107.989 22.5924Z" fill="#F948DD"/>
<path d="M112.745 25.1679C112.523 25.1027 112.302 25.0375 111.971 24.9723C111.86 24.9071 111.805 24.7767 111.639 24.6137C111.971 24.5485 112.247 24.4181 112.524 24.2551C112.689 24.0595 113.408 24.2551 113.242 24.4507C113.298 24.6789 113.298 24.8745 113.353 25.0701C113.132 25.1027 112.911 25.1679 112.745 25.1679V25.1679Z" fill="#F948DD"/>
<path d="M123.969 9.29116C123.582 9.19336 127.232 7.36769 125.518 9.68236C126.955 10.041 125.518 9.68237 126.568 11.2472C126.458 11.4428 126.347 11.5732 126.236 11.7036C126.126 11.7688 125.905 11.8014 125.739 11.834C125.628 11.8014 125.518 11.7688 125.352 11.7362C125.186 12.1926 125.02 12.6817 124.744 13.1381C124.522 13.0729 124.301 13.0403 124.025 12.9425C124.301 12.4534 124.522 11.8992 124.744 11.3124C124.744 11.2472 124.633 11.1168 124.578 11.019C124.522 10.9538 124.412 10.8234 124.356 10.693C124.356 10.6604 124.467 10.5626 124.522 10.4648C124.467 10.3996 124.356 10.2692 124.301 10.1388C124.301 10.1062 124.412 10.0084 124.467 9.94318C124.356 9.84538 124.246 9.71496 124.191 9.58456C124.135 9.51936 124.025 9.42157 123.969 9.29116V9.29116Z" fill="#F948DD"/>
<path d="M95.8247 8.67175C95.7694 8.60655 95.6588 8.47615 95.6035 8.34574C95.6035 8.31314 95.7141 8.21535 95.7694 8.15015C95.88 8.18275 96.0459 8.21534 96.1012 8.24795C96.2117 8.34575 96.3223 8.47614 96.3223 8.54134C96.267 8.63914 96.2118 8.73695 96.1565 8.76955C96.1012 8.73695 95.9353 8.70435 95.8247 8.67175Z" fill="#F948DD"/>
<path d="M93.9447 10.5952C93.9447 10.4974 93.8341 10.3669 93.7788 10.2365C94 10.1387 94.2764 10.0409 94.4423 9.91052C94.7741 9.94312 95.1059 9.91053 95.3823 9.87793C95.4376 9.97573 95.5482 10.1061 95.6035 10.1713C95.4376 10.3669 95.327 10.4973 95.2717 10.6277C95.1059 10.6929 94.8847 10.7256 94.6635 10.7908C94.4423 10.7256 94.2212 10.6604 93.9447 10.5952V10.5952Z" fill="#F948DD"/>
<path d="M98.0365 11.0516C97.9812 11.019 97.9259 10.8886 97.8153 10.7582C97.8706 10.7256 97.9259 10.6278 97.9812 10.53C98.1286 10.3126 98.2945 10.0953 98.4788 9.87797C98.6447 9.87797 98.8659 9.81276 98.9765 9.74756C99.1424 9.78016 99.3082 9.81276 99.3635 9.84536C99.7506 10.3996 102.294 11.2798 99.9718 12.1274C99.8612 12.2252 99.64 12.2578 99.4741 12.2578C98.7 12.0622 98.313 11.508 98.0365 11.0516V11.0516Z" fill="#F948DD"/>
<path d="M94.2765 12.5188C94.1659 12.747 93.3917 12.5514 93.5576 12.3232C93.6129 12.2906 93.6682 12.1928 93.7235 12.095C93.3365 12.0298 93.6682 11.5734 94.0553 11.6712C94.2212 11.6712 94.4423 11.606 94.5529 11.5408C94.7188 11.5734 94.8847 11.606 94.94 11.6386C95.0506 11.769 95.1059 11.8994 95.1612 11.9646C95.0506 12.1276 94.94 12.258 94.8294 12.3884C94.7188 12.4536 94.4976 12.5188 94.2765 12.5188V12.5188Z" fill="#F948DD"/>
<path d="M99.8059 14.1813C99.7506 14.1161 99.6953 13.9857 99.5847 13.8879C99.5847 13.8227 99.4741 13.6923 99.3635 13.5619C99.0317 13.4641 99.3635 13.0076 99.6953 13.1054C99.8611 13.138 100.027 13.2033 100.082 13.2033C100.248 13.2359 100.359 13.3011 100.469 13.3011C100.912 13.9857 102.073 14.7681 99.8059 14.1813V14.1813Z" fill="#F948DD"/>
<path d="M92.2306 13.5619C92.1753 13.4967 92.0647 13.3663 92.0094 13.2359C92.12 13.1055 92.1753 12.9751 92.3412 12.8121C92.507 12.7795 92.7282 12.7468 92.8388 12.6816C92.9494 12.812 93.0047 12.9099 93.06 12.9751C93.447 13.0729 93.1153 13.5293 92.7282 13.4315C92.6176 13.4967 92.3965 13.5619 92.2306 13.5619Z" fill="#F948DD"/>
<path d="M83.3835 13.9531C83.2176 13.8553 83.0517 13.7249 82.8306 13.5619C82.9412 13.4315 82.9965 13.3011 83.1623 13.1055C83.3282 13.1055 83.5494 13.0729 83.66 12.9751C83.8259 13.0403 83.9917 13.0729 84.047 13.0729C84.1576 13.2033 84.2129 13.3337 84.2682 13.3989C84.2129 13.4967 84.1576 13.5619 84.1023 13.6271C84.047 13.7249 83.9917 13.7901 83.9364 13.8553C83.8259 13.9205 83.6047 13.9531 83.3835 13.9531V13.9531Z" fill="#F948DD"/>
<path d="M85.8165 16.1374C85.7612 16.0722 85.6506 15.9418 85.5953 15.8114C85.5953 15.7788 85.7059 15.6809 85.7612 15.6157C85.9271 15.6157 86.1483 15.5506 86.2589 15.4854C86.4248 15.518 86.5906 15.5505 86.6459 15.5832C86.7565 15.7136 86.8118 15.8439 86.8671 15.8765C86.6459 16.0396 86.4247 16.1374 86.1483 16.2352C86.093 16.2352 85.9271 16.17 85.8165 16.1374V16.1374Z" fill="#F948DD"/>
<path d="M58.7777 13.9858C58.7777 13.8554 58.7224 13.6598 58.7224 13.4642C58.6671 13.4316 58.5012 13.399 58.3353 13.3664C58.28 13.3012 58.2247 13.1708 58.1141 13.0404C58.1694 13.0078 58.2247 12.9099 58.28 12.8121C58.5012 12.8121 58.6671 12.7795 58.833 12.7143C58.9988 12.4861 59.7177 12.6817 59.5518 12.8773C59.6624 13.0078 59.7177 13.1382 59.773 13.2034C59.7177 13.3012 59.6624 13.3989 59.6071 13.4315C59.5518 13.5294 59.4965 13.5946 59.4412 13.6598C59.8283 13.7576 59.4965 14.1814 59.1647 14.0836C59.0541 14.051 58.9435 14.0184 58.7777 13.9858V13.9858Z" fill="#F948DD"/>
<path d="M45.3964 15.0617C45.3964 15.1269 45.2859 15.1921 45.2306 15.2899C45.1753 15.2573 45.0094 15.2247 44.8435 15.1921C44.8988 15.1595 44.9541 15.0617 45.0094 14.9639C45.12 14.9965 45.2306 15.0291 45.3964 15.0617Z" fill="#F948DD"/>
<path d="M51.6999 22.9836C51.8658 22.9836 52.087 22.951 52.2529 22.8858C52.4188 22.8532 52.6399 22.8206 52.7505 22.7554C55.0729 23.3748 54.0223 24.2876 52.9164 24.3528C52.0317 24.418 51.0917 23.8312 51.6999 22.9836V22.9836Z" fill="#F948DD"/>
<path d="M62.5377 27.6455C62.4824 27.7433 62.4271 27.8085 62.3718 27.8737C62.1506 27.8085 61.9294 27.7433 61.653 27.6781C61.653 27.6455 61.7635 27.5477 61.8188 27.4499C61.9847 27.2217 62.7035 27.4173 62.5377 27.6455Z" fill="#F948DD"/>
<path d="M69.3942 11.7037C69.3389 11.7689 69.2836 11.8667 69.2283 11.8993C69.3942 11.9645 69.56 11.9971 69.6153 11.9971C69.4495 12.0623 69.2836 12.1275 69.0624 12.1275C68.9518 12.1927 68.7306 12.2579 68.5648 12.2579C68.1777 12.1275 67.9012 11.9319 67.5695 11.7689C67.6248 11.7037 67.68 11.6059 67.7353 11.5406C67.9012 11.5733 68.0671 11.6058 68.1224 11.6384C68.2883 11.6384 68.5095 11.5733 68.6753 11.5081C68.9518 11.5733 69.173 11.6385 69.3942 11.7037V11.7037Z" fill="#F948DD"/>
<path d="M69.6706 22.299C69.4494 22.2664 69.2282 22.2012 68.8965 22.1034C68.8965 22.0708 68.7859 21.9404 68.7306 21.81C68.6753 21.7448 68.5647 21.6144 68.5094 21.484C68.5094 21.4514 68.5647 21.3536 68.6753 21.2558C68.8412 21.2558 69.0623 21.2232 69.1729 21.158C69.3388 21.1906 69.5047 21.2232 69.56 21.2232C69.7259 21.2884 69.8365 21.321 69.947 21.321C70.1129 21.3862 70.2235 21.4188 70.3341 21.4188C70.3894 21.5492 70.5 21.6796 70.5 21.7448C70.3894 21.9078 70.2788 22.0382 70.2235 22.2012C70.0576 22.2664 69.8365 22.299 69.6706 22.299V22.299Z" fill="#F948DD"/>
<path d="M70.2788 34.883C70.1682 34.883 70.0024 34.8178 69.8918 34.7852C69.8365 34.2635 69.8365 34.2636 70.2235 34.3614C70.2235 34.2962 70.2788 34.2309 70.3894 34.1331C70.4447 34.0027 70.5553 33.8723 70.6659 33.7093C70.8871 33.6767 71.1082 33.6441 71.2188 33.5789C71.5506 33.3833 71.8271 33.2203 72.1035 32.9595C72.1588 32.9269 72.2141 32.8291 72.2694 32.7313C72.4906 32.6335 72.7671 32.5683 72.9882 32.4053C73.2094 32.4053 73.5412 32.3727 73.7071 32.3401C73.8177 32.3401 73.9282 32.3401 73.9282 32.2749C73.9651 32.2314 74.002 32.188 74.0388 32.1445C73.7624 32.0793 76.9141 30.221 77.3565 30.1232C77.5777 30.0906 77.7988 30.0254 77.9647 29.9602C78.1306 29.9602 78.3518 29.895 78.4624 29.8298C78.6282 29.8624 78.7941 29.9276 78.8494 29.9276C78.96 30.058 79.0153 30.1884 79.0706 30.2536C78.2965 30.8405 75.6424 32.2097 74.4259 32.2423C74.3706 32.3401 74.2047 32.4053 74.0941 32.4379C73.9835 32.4596 73.8729 32.4814 73.7624 32.5031C73.7624 32.5357 73.7071 32.6009 73.7071 32.6009C73.4859 32.7965 73.1541 32.9595 72.8777 33.1551C72.6012 33.3833 72.2694 33.5789 71.993 33.7745C72.0482 33.8723 72.1588 34.0028 72.1588 34.068C71.993 34.231 71.7165 34.3288 71.4953 34.4266C71.44 34.5244 71.3294 34.5896 71.3294 34.6548C71.1635 34.72 70.9424 34.7526 70.7765 34.7526C70.6659 34.8504 70.4447 34.883 70.2788 34.883V34.883Z" fill="#F948DD"/>
<path d="M95.4376 4.8575C95.88 4.23808 95.9906 3.97727 97.2623 4.30328C97.3176 4.40109 97.4282 4.5315 97.4835 4.5967C97.5388 4.7271 97.6494 4.85751 97.6494 4.92271C96.8753 5.99854 96.1564 5.96594 95.4376 4.8575V4.8575Z" fill="#F948DD"/>
<path d="M164.224 30.645C164.279 30.6124 164.334 30.5146 164.389 30.4168C164.611 30.4168 164.776 30.3842 164.942 30.2864C165.385 29.667 167.984 31.5252 165.882 31.5904C163.947 32.5358 163.339 30.4168 164.224 30.645Z" fill="#F948DD"/>
<path d="M144.207 34.7852C143.986 34.9373 143.783 35.0894 143.599 35.2416C143.378 35.1764 143.156 35.1438 142.935 35.0134C143.322 34.9808 143.765 34.883 144.207 34.7852V34.7852Z" fill="#F948DD"/>
<path d="M152.888 28.5259C152.833 28.6237 152.722 28.6889 152.722 28.7541C152.391 29.1779 152.391 29.8626 152.446 30.2864C151.727 31.2318 145.866 35.5025 148.188 31.623C148.52 31.134 149.958 30.808 150.124 30.482C150.621 30.4494 151.119 30.2864 151.34 30.0256C151.727 29.4387 152.004 29.1779 151.948 28.5585C151.34 28.3955 151.119 27.8739 150.898 27.4827C150.787 27.4827 150.677 27.4501 150.511 27.3849C150.455 27.4827 150.4 27.5805 150.345 27.6131C150.234 27.6783 150.013 27.7435 149.792 27.7435C149.626 27.9717 148.907 27.7761 149.073 27.5479C148.686 27.4501 149.018 27.0263 149.405 27.1241C149.515 27.1567 149.681 27.1893 149.737 27.2219C149.958 27.1893 150.179 27.1567 150.289 27.0915C151.064 27.0589 152.888 25.8852 153.662 26.0482C155.377 26.4395 155.487 28.4281 152.888 28.5259V28.5259Z" fill="#F948DD"/>
<path d="M103.842 19.7888C104.838 19.6584 106.165 18.876 107.16 18.6478C107.215 18.6152 107.271 18.5174 107.326 18.4196C107.492 18.4196 107.713 18.387 107.879 18.3218C108.819 18.2892 113.519 16.757 114.072 16.4636C114.127 16.3984 114.182 16.3331 114.238 16.2353C115.122 16.2027 116.726 15.7137 117.555 15.5181C117.555 15.4529 117.611 15.3877 117.721 15.2899C117.611 15.0617 117.611 15.0617 118.385 14.9313C118.495 14.8009 118.606 14.6705 118.717 14.5075C122.974 15.0291 119.767 14.8661 119.048 15.8767C115.897 18.3218 112.358 17.4742 107.602 19.2672C107.547 19.365 107.437 19.4628 107.437 19.4954C107.215 19.6584 106.994 19.7562 106.718 19.854C106.552 19.9844 106.275 20.0822 106.054 20.18L103.842 19.7888ZM120.154 10.628C119.767 10.5302 123.417 8.73712 121.758 11.0192C123.914 11.5734 122.366 15.8115 119.159 13.4969C118.606 13.073 121.094 12.3558 120.486 11.5082C120.541 11.443 120.597 11.3778 120.652 11.28C120.541 11.2148 120.486 11.0844 120.375 10.954C120.32 10.8888 120.265 10.7584 120.154 10.628ZM141.885 36.3827H102.405C101.133 35.9263 99.5294 35.6981 97.9812 35.6981C96.8753 35.6981 96.0459 35.9589 95.3271 36.3827H87.3095C85.5953 35.5025 84.8765 35.1765 83.8259 33.5791C83.7706 33.5138 83.66 33.416 83.6047 33.2856C83.5495 33.2204 83.4389 33.09 83.3836 32.9596C83.4389 32.927 83.4942 32.8292 83.5495 32.7314C83.4389 32.6662 83.3283 32.5358 83.273 32.4054C83.2177 32.3402 83.1071 32.2098 83.0518 32.0794C82.9965 32.0142 82.9412 31.9164 82.8306 31.786C82.8859 31.7208 82.9412 31.6556 82.9965 31.5578C82.9412 31.5252 82.7753 31.4926 82.6095 31.46C82.3883 31.3948 82.1671 31.3622 81.8906 31.2644C81.9459 31.134 82.1118 30.971 82.2224 30.7754C82.1671 30.7102 82.1118 30.6124 82.0012 30.482C81.9459 30.4494 81.78 30.4167 81.6695 30.3841C81.6142 30.3189 81.5036 30.1885 81.4483 30.0581C81.3377 30.0255 81.2271 29.9929 81.0612 29.9603C81.0059 29.8951 80.9506 29.7647 80.84 29.6669C80.7847 29.6343 80.6189 29.6017 80.453 29.5691C80.3977 29.5365 80.2318 29.5039 80.1212 29.4713C80.0106 29.4387 79.9 29.4061 79.7342 29.3735C79.513 29.3083 79.2918 29.2431 78.96 29.1779C79.0706 29.0475 79.1812 28.9171 79.2918 28.7215C79.2365 28.7215 79.0706 28.6889 78.96 28.6563C78.9047 28.5911 78.7942 28.4607 78.7389 28.3303C78.7942 28.1999 78.9047 28.0695 79.0706 27.8739C79.0706 27.8413 79.1259 27.7435 79.2365 27.6783C79.2918 27.5479 79.4024 27.3849 79.513 27.2219C79.4024 27.1567 79.3471 27.0263 79.2365 26.8959C79.2918 26.8307 79.3471 26.7654 79.4024 26.6676C79.4577 26.635 79.513 26.5372 79.5683 26.4394C75.1447 19.854 82.8859 20.6039 88.0836 18.0284C88.1942 18.061 88.36 18.0936 88.4153 18.1262C88.6365 18.0936 88.8577 18.061 88.9683 17.9958C91.18 17.9306 92.9495 18.1914 92.6177 16.2679C92.9863 16.3549 93.3734 16.4527 93.7789 16.5614C94.0553 17.2786 94.8294 17.409 95.7694 17.898C95.9353 17.9306 96.0459 17.9632 96.1565 17.9958C95.7695 18.4848 100.193 19.6258 101.907 19.691C102.294 19.7236 103.068 19.7562 103.842 19.7888C104.672 19.854 105.557 19.9518 106.054 20.18C106.331 20.2779 106.497 20.4409 106.552 20.6039C106.662 21.1255 106.109 21.7775 105.888 22.2991C105.999 22.4295 106.054 22.5599 106.109 22.6251C106.275 22.6577 106.386 22.7229 106.497 22.7229C106.644 22.7664 106.791 22.8099 106.939 22.8533C106.994 22.9511 107.105 23.0815 107.16 23.1467C107.271 23.1793 107.437 23.2445 107.547 23.2445C107.658 23.2771 107.824 23.3423 107.879 23.3423C107.989 23.4727 108.045 23.6031 108.045 23.7009C108.211 23.7335 108.377 23.7662 108.432 23.7988C109.04 24.679 110.091 25.7874 111.584 26.1786C115.178 27.0915 118.329 26.6024 115.012 24.6464C114.957 24.5812 114.901 24.4508 114.791 24.3204C114.293 24.1574 113.851 23.9292 113.408 23.7009C113.298 23.7009 113.187 23.6358 113.021 23.6031C112.966 23.6031 112.8 23.538 112.634 23.5054C112.579 23.4401 112.524 23.3097 112.413 23.2119C112.192 22.8859 111.915 22.6577 112.192 22.3643C112.524 22.3643 112.8 22.3643 113.077 22.3317C113.353 22.3969 113.574 22.4621 113.795 22.4947C114.293 22.8533 114.625 23.1467 114.901 23.5706C115.012 23.7336 115.178 23.9944 115.344 24.19C115.565 24.353 115.731 24.516 115.897 24.6138C116.062 24.6464 116.228 24.679 116.284 24.7116C117.721 25.6244 123.582 25.6244 125.131 24.8746C125.131 24.842 125.186 24.7442 125.241 24.6464C125.297 24.6138 125.352 24.516 125.407 24.4182C125.075 24.3204 125.075 24.3204 125.518 23.6684C125.849 23.7662 126.071 23.7988 126.292 23.864C126.458 23.6357 126.624 23.4402 126.789 23.1467C126.974 22.9294 127.14 22.7121 127.287 22.4947C127.453 22.5273 127.564 22.5925 127.674 22.5925C127.729 22.7229 127.84 22.8533 127.895 22.9185C128.227 23.0163 127.895 23.4401 127.564 23.3423C127.453 23.701 127.398 24.0596 127.232 24.3856C127.342 24.4834 127.398 24.6138 127.453 24.679C128.338 26.0156 127.674 26.309 130.273 26.961C130.384 26.8306 130.494 26.7002 130.605 26.5372C130.937 26.6024 131.158 26.6677 131.379 26.7329C130.771 27.1893 130.771 27.1893 130.107 27.1893C129.831 27.5805 129.554 27.9391 129.333 28.2977C129.388 28.4281 129.499 28.5585 129.554 28.6237C129.609 28.7215 129.72 28.8519 129.72 28.9171C130.162 29.0801 130.605 29.2105 131.047 29.3083C130.273 29.3735 129.997 29.8299 129.609 29.7321C128.504 31.1992 134.309 30.8406 135.747 31.0036C138.567 31.297 141.332 31.9164 142.659 33.6442C141.332 33.9376 141.498 33.6768 140.779 34.6549C140.668 34.7527 140.613 34.8505 140.613 34.8831C140.668 35.0135 140.779 35.1439 140.834 35.2091C140.945 35.2417 141.111 35.2743 141.166 35.3069C141.332 35.3395 141.498 35.3721 141.553 35.4047C141.719 35.1765 141.719 35.1765 142.438 35.3721C142.327 35.5351 142.217 35.6655 142.161 35.7959C141.995 35.9915 141.94 36.1219 141.829 36.2523L141.885 36.3827Z" fill="#F948DD"/>
<path d="M111.749 16.6917C111.694 16.6917 111.583 16.6591 111.528 16.6265C111.583 16.4961 111.639 16.3005 111.694 16.1049C111.694 16.0723 111.749 16.0071 111.749 15.9745V15.9419H113.242C113.242 15.9854 113.224 16.018 113.187 16.0397C113.132 16.1375 113.076 16.2027 113.021 16.3005C112.966 16.3331 112.8 16.3657 112.745 16.3657C112.689 16.3983 112.634 16.4635 112.634 16.4961C112.523 16.5287 112.413 16.5613 112.302 16.5613C112.302 16.5939 112.247 16.6591 112.247 16.6917C112.136 16.7243 112.026 16.7569 111.915 16.7569C111.915 16.7243 111.805 16.7243 111.749 16.6917V16.6917Z" fill="#76D7DD"/>
<path d="M113.076 19.691C113.021 19.7562 112.966 19.7889 112.966 19.8215C112.911 19.8867 112.911 19.9192 112.855 19.9518C112.8 19.9844 112.689 20.017 112.579 20.017C112.524 20.017 112.468 19.9844 112.358 19.9518C112.358 19.9518 112.413 19.8866 112.468 19.854C112.468 19.8214 112.524 19.7563 112.524 19.7237C112.634 19.7237 112.745 19.691 112.855 19.6584C112.911 19.6584 113.021 19.691 113.076 19.691V19.691Z" fill="#76D7DD"/>
<path d="M89.0789 18.0283C89.1895 18.0283 89.3 17.9957 89.4106 17.9631C89.4659 17.9957 89.5765 18.0283 89.6318 18.0283C89.6871 18.0609 89.7977 18.0609 89.7977 18.0935C89.853 18.1913 89.853 18.2891 89.853 18.3869C89.4659 18.876 88.7471 18.55 89.0789 18.0283V18.0283Z" fill="#76D7DD"/>
<path d="M84.1024 17.3436C84.0471 17.311 83.9918 17.2458 83.9918 17.1806C84.0471 17.0828 84.1024 17.0176 84.1577 16.9198C84.213 16.7894 84.8765 16.9524 84.7659 17.0828C84.7659 17.148 84.7106 17.1806 84.7106 17.2132C84.6554 17.2458 84.6001 17.311 84.6001 17.3436C84.4895 17.3762 84.3789 17.4088 84.2683 17.4088C84.2683 17.3762 84.1577 17.3762 84.1024 17.3436V17.3436Z" fill="#76D7DD"/>
<path d="M106.828 25.1028C106.773 25.168 106.718 25.2332 106.607 25.331C106.607 25.331 106.496 25.2984 106.386 25.2984C106.441 25.2006 106.496 25.1354 106.607 25.0376C106.662 25.0376 106.718 25.0702 106.828 25.1028V25.1028Z" fill="#76D7DD"/>
<path d="M102.46 24.8419C102.46 24.9397 102.46 25.0049 102.515 25.0702C102.294 25.0702 102.073 25.0375 101.852 25.0049C101.907 24.9071 101.962 24.8419 102.018 24.7441C102.183 24.7767 102.349 24.8093 102.46 24.8419V24.8419Z" fill="#76D7DD"/>
<path d="M105.667 26.9936C105.556 27.1566 105.556 27.1566 105.114 27.0262C105.151 26.9828 105.188 26.9393 105.225 26.8958C105.28 26.8632 105.28 26.798 105.335 26.7654C105.335 26.7328 105.391 26.7002 105.391 26.635C105.556 26.4394 105.722 26.2438 105.888 26.0156C105.667 25.983 105.833 25.7222 106.054 25.7874C106.165 25.657 109.206 26.4068 105.888 26.9936C105.999 27.1892 107.049 27.6783 105.667 27.3197C105.722 27.2871 105.778 27.1892 105.833 27.124C105.833 27.0914 105.778 27.0588 105.778 27.0262C105.741 27.0262 105.704 27.0154 105.667 26.9936V26.9936Z" fill="#76D7DD"/>
<path d="M102.239 26.1134C102.294 26.2112 102.294 26.309 102.294 26.3742C102.147 26.3525 101.999 26.3416 101.852 26.3416C101.907 26.2764 101.962 26.1786 102.073 26.0808C102.018 26.0482 101.962 25.983 101.907 25.8852C101.907 25.8526 101.852 25.7874 101.797 25.7222C101.852 25.6896 101.852 25.657 101.907 25.5918C102.018 25.5918 102.128 25.5592 102.184 25.5266C102.239 25.5918 102.294 25.657 102.349 25.6896C102.294 25.8526 102.294 25.983 102.239 26.1134V26.1134Z" fill="#76D7DD"/>
<path d="M102.405 26.6349C102.405 26.7653 102.349 26.9283 102.349 27.0587C102.239 26.9935 102.073 26.9283 101.907 26.8631C101.962 26.7653 101.962 26.6349 101.962 26.5371C102.128 26.5697 102.239 26.6023 102.405 26.6349V26.6349Z" fill="#76D7DD"/>
<path d="M104.782 27.8413C104.616 28.0695 104.616 28.0695 104.395 28.0369C104.451 27.9391 104.506 27.8739 104.561 27.7761C104.561 27.7435 104.506 27.6783 104.451 27.6131C104.506 27.5805 104.506 27.5153 104.561 27.4827C104.672 27.4827 104.782 27.4501 104.838 27.4175C104.893 27.4827 104.948 27.5479 104.948 27.5805C105.169 27.6457 105.004 27.8739 104.782 27.8413Z" fill="#76D7DD"/>
<path d="M102.349 28.1019C102.294 28.0693 102.239 28.0693 102.128 28.0367C102.128 28.0041 102.073 27.9389 102.018 27.8737C102.073 27.8411 102.073 27.7759 102.128 27.7433C102.128 27.7107 102.184 27.678 102.239 27.6128C102.294 27.4824 102.737 27.5803 102.626 27.7107C102.626 27.8737 102.626 28.0041 102.571 28.1345C102.46 28.2649 102.902 28.3627 102.792 28.4931C102.792 28.5583 102.736 28.5909 102.736 28.6235C103.234 28.9169 101.133 29.5037 102.349 28.1019V28.1019Z" fill="#76D7DD"/>
<path d="M107.713 30.3515C107.658 30.4167 107.658 30.4493 107.602 30.4819C107.547 30.5145 107.437 30.5471 107.326 30.5471C107.271 30.5471 107.215 30.5145 107.105 30.5145C106.884 30.4493 106.884 30.4493 107.105 30.1885C107.289 30.2537 107.492 30.308 107.713 30.3515V30.3515Z" fill="#76D7DD"/>
<path d="M94.9953 27.1239C94.94 27.2543 94.4977 27.1239 94.6083 27.0261C94.6635 26.9283 94.7188 26.8305 94.7741 26.7327C95.2165 26.8631 95.2165 26.8631 95.1059 26.9609C95.069 27.0261 95.0322 27.0804 94.9953 27.1239V27.1239Z" fill="#76D7DD"/>
<path d="M90.7929 26.3415C90.7376 26.472 90.2953 26.3742 90.4059 26.2438C90.4059 26.2111 90.4612 26.1459 90.4612 26.1133C90.5717 25.9829 91.0141 26.0807 90.9035 26.2111C90.8482 26.2763 90.8482 26.3089 90.7929 26.3415V26.3415Z" fill="#76D7DD"/>
<path d="M92.8941 28.6237C92.8941 28.6563 92.8388 28.7215 92.8388 28.7541C92.7836 28.7541 92.673 28.7215 92.6177 28.7215C92.6177 28.6889 92.673 28.6237 92.673 28.5911C92.7283 28.5911 92.8389 28.6237 92.8941 28.6237Z" fill="#76D7DD"/>
<path d="M95.5483 30.0907C95.4377 30.0581 95.3271 30.0254 95.1613 29.9602C95.106 29.9276 95.0507 29.8624 94.9401 29.7646C95.1612 29.732 95.2718 29.6668 95.4377 29.569C95.5483 29.4712 95.9354 29.569 95.8801 29.6994C95.8801 29.7972 95.8801 29.9276 95.9354 30.0254C95.7695 30.058 95.6589 30.0907 95.5483 30.0907V30.0907Z" fill="#76D7DD"/>
<path d="M101.907 21.1579C101.686 21.0927 103.732 20.0821 102.737 21.3861C103.566 21.5817 102.737 21.3861 103.345 22.2663C103.289 22.3641 103.234 22.4293 103.179 22.5271C103.068 22.5597 102.958 22.5923 102.847 22.5923C102.847 22.5923 102.737 22.5597 102.681 22.5271C102.571 22.7879 102.46 23.0813 102.349 23.3422C102.184 23.3096 102.073 23.2769 101.907 23.2117C102.073 22.9509 102.184 22.6249 102.349 22.2989C102.294 22.2663 102.239 22.2011 102.239 22.1359C102.184 22.1033 102.128 22.0055 102.073 21.9403C102.128 21.9403 102.128 21.8751 102.184 21.8425C102.184 21.7773 102.128 21.7121 102.073 21.6469C102.073 21.6143 102.128 21.5817 102.184 21.5165C102.073 21.4839 102.018 21.4187 102.018 21.3535C101.962 21.2883 101.907 21.2231 101.907 21.1579V21.1579Z" fill="#76D7DD"/>
<path d="M86.0377 20.8319C86.0377 20.7667 85.9824 20.7015 85.9271 20.6363C85.9824 20.6037 85.9824 20.5711 86.0377 20.5059C86.093 20.5385 86.2036 20.5711 86.2589 20.5711C86.3142 20.6363 86.3142 20.7015 86.3695 20.7341C86.3142 20.7993 86.3142 20.8319 86.2589 20.8645C86.2036 20.8645 86.1483 20.8319 86.0377 20.8319V20.8319Z" fill="#76D7DD"/>
<path d="M85.0423 21.9077C84.9871 21.8425 84.9871 21.7773 84.9318 21.7121C85.0424 21.6469 85.2082 21.5817 85.3188 21.5165C85.4847 21.5165 85.6506 21.5165 85.8165 21.4839C85.8718 21.5491 85.9271 21.6143 85.9271 21.6795C85.8718 21.7773 85.8165 21.8425 85.7612 21.9077C85.7059 21.9403 85.54 21.9729 85.4294 22.0055C85.3188 21.9729 85.2082 21.9403 85.0423 21.9077Z" fill="#76D7DD"/>
<path d="M87.3094 22.1685C87.3094 22.1359 87.2541 22.0707 87.1989 21.9729C87.1989 21.9729 87.2542 21.9077 87.3094 21.8751C87.3832 21.7447 87.4569 21.6143 87.5306 21.4839C87.6412 21.4839 87.8071 21.4513 87.8624 21.4187C87.9177 21.4513 88.0283 21.4513 88.0836 21.4839C88.3047 21.8099 89.6871 22.2663 88.4153 22.7554C88.36 22.8206 88.1942 22.8206 88.1389 22.8206C87.6965 22.7228 87.4753 22.4293 87.3094 22.1685Z" fill="#76D7DD"/>
<path d="M85.2082 22.9837C85.1529 23.1141 84.7106 22.9836 84.8211 22.8858C84.8211 22.8532 84.8764 22.7881 84.8764 22.7555C84.7106 22.6903 84.8764 22.462 85.0976 22.4946C85.1529 22.4946 85.3188 22.462 85.3741 22.4294C85.4847 22.462 85.54 22.462 85.5953 22.4946C85.6505 22.5599 85.7058 22.6251 85.7058 22.6577C85.6506 22.7555 85.5953 22.8207 85.54 22.9185C85.4294 22.9511 85.3188 22.9837 85.2082 22.9837V22.9837Z" fill="#76D7DD"/>
<path d="M88.3047 23.929C88.3047 23.8638 88.2495 23.7986 88.1942 23.7334C88.1942 23.7008 88.1389 23.6356 88.0836 23.5704C87.8624 23.5052 88.0283 23.277 88.2495 23.3096C88.36 23.3422 88.4153 23.3422 88.4706 23.3748C88.5259 23.3748 88.6365 23.4074 88.6918 23.4074C88.913 23.7986 89.5765 24.255 88.3047 23.929V23.929Z" fill="#76D7DD"/>
<path d="M84.047 23.5705C84.047 23.5379 83.9917 23.44 83.9364 23.3748C83.9917 23.3096 84.047 23.2444 84.1023 23.1466C84.2129 23.1466 84.3235 23.114 84.4341 23.0488C84.4341 23.1466 84.4893 23.2118 84.5446 23.2444C84.7658 23.3096 84.5446 23.5379 84.3235 23.5052C84.2682 23.5379 84.1576 23.5705 84.047 23.5705Z" fill="#76D7DD"/>
<path d="M79.1258 23.7986C79.0152 23.7334 78.9047 23.6682 78.7941 23.5704C78.8494 23.4726 78.9046 23.4074 78.9599 23.3096C79.0705 23.3096 79.1811 23.277 79.2364 23.2444C79.347 23.277 79.4023 23.277 79.4576 23.3096C79.5129 23.3748 79.5682 23.44 79.5682 23.4726C79.5682 23.5378 79.5129 23.5704 79.5129 23.603C79.4576 23.6356 79.4023 23.7008 79.4023 23.7334C79.347 23.766 79.1811 23.7986 79.1258 23.7986V23.7986Z" fill="#76D7DD"/>
<path d="M80.453 25.0048C80.3977 24.9722 80.3977 24.907 80.3424 24.8418C80.3424 24.8092 80.3977 24.7766 80.3977 24.7114C80.5083 24.7114 80.6189 24.6788 80.7295 24.6462C80.7848 24.6788 80.8954 24.6788 80.9506 24.7114C80.9506 24.7766 81.0059 24.8418 81.0612 24.8745C80.9506 24.9723 80.7848 25.0048 80.6742 25.07C80.6189 25.07 80.5083 25.0374 80.453 25.0048Z" fill="#76D7DD"/>
<path d="M65.2471 23.7986C65.3023 23.7334 65.2471 23.6356 65.2471 23.5052C65.1918 23.5052 65.1365 23.4726 65.0259 23.44C65.0259 23.4074 64.9706 23.3422 64.9153 23.277C64.9153 23.2444 64.9706 23.2118 65.0259 23.1466C65.0812 23.1466 65.247 23.114 65.3023 23.0814C65.4129 22.951 65.8 23.0488 65.7447 23.1792C65.7447 23.2444 65.8 23.3422 65.8553 23.3748C65.8 23.4074 65.7447 23.4726 65.7447 23.4726C65.6894 23.5378 65.6894 23.603 65.6341 23.603C65.8553 23.6682 65.6894 23.8964 65.4682 23.8638C65.4129 23.8638 65.3576 23.8312 65.2471 23.7986V23.7986Z" fill="#76D7DD"/>
<path d="M57.7823 24.418C57.727 24.4506 57.727 24.4832 57.6717 24.5484C57.6164 24.5158 57.5611 24.5158 57.4506 24.4832C57.4506 24.4506 57.5059 24.418 57.5611 24.3528C57.5611 24.3528 57.6717 24.3854 57.7823 24.418Z" fill="#76D7DD"/>
<path d="M61.3211 28.8518C61.3764 28.8518 61.5423 28.8192 61.5976 28.7866C61.7082 28.7866 61.8187 28.754 61.874 28.7214C63.2011 29.08 62.5929 29.6017 61.9846 29.6343C61.487 29.6669 60.934 29.3409 61.3211 28.8518V28.8518Z" fill="#76D7DD"/>
<path d="M67.4035 31.4598C67.3482 31.525 67.2929 31.5902 67.2929 31.5902C67.1824 31.5576 67.0718 31.525 66.9059 31.4924C66.9059 31.4598 66.9059 31.4272 66.9612 31.362C67.0718 31.2316 67.4588 31.362 67.4035 31.4598V31.4598Z" fill="#76D7DD"/>
<path d="M71.2188 22.5271C71.2188 22.5597 71.1635 22.6249 71.1635 22.6249C71.2188 22.6575 71.3294 22.6901 71.3294 22.6901C71.2741 22.7227 71.1635 22.7554 71.0529 22.7554C70.9976 22.788 70.8317 22.8206 70.7765 22.8206C70.5553 22.7554 70.3894 22.6575 70.2235 22.5597C70.2235 22.5271 70.2788 22.4619 70.3341 22.4293C70.3894 22.4619 70.5 22.4619 70.5 22.4619C70.6106 22.4619 70.7212 22.4619 70.8317 22.3967C70.9976 22.4619 71.1082 22.4945 71.2188 22.5271V22.5271Z" fill="#76D7DD"/>
<path d="M71.3847 28.4932C71.2741 28.4606 71.1082 28.428 70.9424 28.3628C70.9424 28.3302 70.8871 28.265 70.8318 28.1998C70.8318 28.1672 70.7765 28.102 70.7212 28.0042C70.7212 28.0042 70.7765 27.939 70.8318 27.9064C70.9424 27.9064 71.053 27.8738 71.1082 27.8086C71.2188 27.8412 71.2741 27.8738 71.3294 27.8738C71.3847 27.9064 71.4953 27.9064 71.5506 27.939C71.6059 27.939 71.7165 27.9716 71.7718 27.9716C71.7718 28.0694 71.8271 28.1346 71.8824 28.1672C71.7718 28.265 71.7165 28.3302 71.6612 28.3954C71.6059 28.4606 71.4953 28.4606 71.3847 28.4932V28.4932Z" fill="#76D7DD"/>
<path d="M71.7164 35.535C71.6611 35.535 71.6058 35.5024 71.4952 35.5024C71.4952 35.1764 71.4952 35.1764 71.6611 35.2416C71.7164 35.209 71.7164 35.1764 71.7717 35.1112C71.827 35.046 71.8823 34.9808 71.9376 34.883C72.0482 34.883 72.1588 34.8504 72.2694 34.8178C72.4352 34.6874 72.6011 34.5896 72.767 34.4592C72.767 34.4266 72.8223 34.394 72.8223 34.3288C72.9882 34.2962 73.0988 34.231 73.2647 34.1332C73.3752 34.1658 73.5411 34.1332 73.6517 34.1006C73.707 34.1006 73.7623 34.1006 73.7623 34.068C73.7992 34.0462 73.8176 34.0245 73.8176 34.0028C73.707 33.9702 75.4764 32.9269 75.6976 32.8617C75.8635 32.8291 75.9741 32.8291 76.0294 32.7639C76.14 32.7639 76.2505 32.7313 76.3611 32.6987C76.4164 32.7313 76.527 32.7639 76.527 32.7639C76.5823 32.8291 76.6376 32.8943 76.6376 32.9269C76.1952 33.2856 74.7576 34.0354 74.0388 34.068C74.0388 34.1006 73.9282 34.1332 73.8729 34.1658C73.7992 34.1658 73.7439 34.1766 73.707 34.1984C73.6517 34.231 73.6517 34.2636 73.6517 34.2636C73.5411 34.3614 73.3752 34.4592 73.1541 34.557C73.0435 34.72 72.8776 34.8178 72.6564 34.9156C72.7117 34.9808 72.767 35.046 72.767 35.0786C72.6564 35.1764 72.5458 35.2416 72.3799 35.2742C72.3799 35.3394 72.3247 35.372 72.3247 35.4046C72.2141 35.4372 72.1035 35.4698 71.9929 35.4698C71.9376 35.5024 71.827 35.535 71.7164 35.535V35.535Z" fill="#76D7DD"/>
<path d="M85.8717 18.6803C86.0929 18.3217 86.2035 18.1913 86.867 18.3543C86.9223 18.4195 86.9776 18.4847 86.9776 18.5173C87.0329 18.6151 87.0882 18.6803 87.0882 18.7129C86.6458 19.3323 86.2588 19.2997 85.8717 18.6803V18.6803Z" fill="#76D7DD"/>
<path d="M124.522 33.1551C124.522 33.1225 124.578 33.0899 124.578 33.0247C124.688 33.0247 124.799 32.9921 124.909 32.9595C125.186 32.6008 126.623 33.6441 125.407 33.6767C124.301 34.2309 124.025 33.0246 124.522 33.1551Z" fill="#76D7DD"/>
<path d="M113.242 35.4697C113.132 35.5567 113.021 35.6436 112.911 35.7305C112.8 35.6979 112.634 35.6653 112.524 35.6327C112.745 35.6001 113.021 35.5349 113.242 35.4697Z" fill="#76D7DD"/>
<path d="M118.108 31.9814C118.108 32.014 118.053 32.0792 118.053 32.0792C117.832 32.34 117.887 32.7312 117.887 32.9594C117.5 33.481 114.182 35.8935 115.509 33.7092C115.675 33.4484 116.449 33.2528 116.56 33.0572C116.836 33.0572 117.168 32.9594 117.279 32.7964C117.5 32.4704 117.666 32.34 117.611 31.9814C117.279 31.8836 117.113 31.5902 117.002 31.3946C116.947 31.3946 116.892 31.362 116.781 31.3294C116.781 31.3946 116.726 31.4272 116.726 31.4598C116.615 31.4924 116.505 31.525 116.394 31.525C116.284 31.6554 115.896 31.5576 116.007 31.4272C115.786 31.362 115.952 31.1338 116.173 31.1664C116.228 31.199 116.339 31.2316 116.394 31.2316C116.449 31.2316 116.615 31.199 116.671 31.1664C117.113 31.1338 118.108 30.4818 118.551 30.5796C119.491 30.8078 119.601 31.9162 118.108 31.9814V31.9814Z" fill="#76D7DD"/>
<path d="M90.5718 27.0589C91.1247 26.9936 91.8989 26.5698 92.4518 26.4394C92.4518 26.4068 92.5071 26.3416 92.5624 26.309C92.6177 26.309 92.7836 26.2764 92.8389 26.2438C93.3918 26.2112 95.9906 25.3636 96.3224 25.2006C96.3777 25.168 96.3777 25.1028 96.433 25.0702C96.8753 25.0376 97.8153 24.7768 98.2577 24.6464C98.313 24.6464 98.313 24.5812 98.3683 24.516C98.313 24.4182 98.313 24.4182 98.7553 24.353C98.8106 24.2552 98.8659 24.19 98.9212 24.0922C101.299 24.3856 99.5294 24.3204 99.0871 24.8746C97.3177 26.2438 95.3824 25.7548 92.673 26.7654C92.673 26.8306 92.6177 26.8632 92.6177 26.8958C92.5071 26.9936 92.3412 27.0262 92.2306 27.0914C92.0647 27.1892 91.9542 27.2218 91.8436 27.287L90.5718 27.0589ZM99.6953 21.9079C99.5294 21.8427 101.575 20.8321 100.58 22.1361C101.797 22.4295 100.912 24.8094 99.1424 23.5053C98.8659 23.2771 100.248 22.8859 99.9165 22.3969C99.9165 22.3643 99.9718 22.3317 99.9718 22.2665C99.9165 22.2339 99.8612 22.1687 99.8612 22.1035C99.8059 22.0383 99.7506 21.9731 99.6953 21.9079V21.9079ZM111.915 36.3827H89.7424C89.0236 36.1219 88.1389 35.9915 87.2541 35.9915C86.6459 35.9915 86.1483 36.1545 85.7612 36.3827H81.2824C80.3424 35.8937 79.9 35.6981 79.2918 34.8179C79.2918 34.7853 79.2365 34.6875 79.1812 34.6223C79.1259 34.5897 79.1259 34.5245 79.0706 34.4592C79.0706 34.4266 79.1259 34.3615 79.1259 34.3289C79.0706 34.2963 79.0153 34.1984 78.96 34.1332C78.96 34.1006 78.9047 34.0354 78.8494 33.9702C78.8494 33.9376 78.7942 33.8724 78.7389 33.7746C78.7942 33.7746 78.7941 33.7094 78.8494 33.6768C78.7941 33.6442 78.7389 33.6442 78.6283 33.6116C78.5177 33.579 78.4071 33.5464 78.1859 33.5138C78.2412 33.416 78.3518 33.3182 78.4071 33.2204C78.4071 33.1878 78.3518 33.1226 78.2965 33.0574C78.2412 33.0574 78.1859 33.0248 78.0753 32.9922C78.0753 32.9596 78.02 32.8944 77.9647 32.8292C77.9094 32.7966 77.8541 32.7966 77.7436 32.764C77.7436 32.7314 77.6883 32.6662 77.633 32.601C77.5777 32.5684 77.5224 32.5684 77.4118 32.5358C77.4118 32.5358 77.3012 32.5032 77.1906 32.4706C77.1906 32.4706 77.08 32.438 77.0247 32.438C76.8589 32.4054 76.7483 32.3728 76.5824 32.3402C76.6377 32.2424 76.693 32.1772 76.7483 32.0794C76.7483 32.0794 76.6377 32.0468 76.5824 32.0142C76.5271 31.9816 76.4718 31.9164 76.4165 31.8512C76.4718 31.786 76.5271 31.6882 76.6377 31.5904C76.6377 31.5904 76.693 31.5252 76.693 31.4926C76.7483 31.3948 76.8036 31.3296 76.9141 31.2318C76.8036 31.1992 76.8036 31.1014 76.7483 31.0361C76.7483 31.0035 76.8036 30.971 76.8036 30.9058C76.8589 30.9058 76.8589 30.8406 76.9141 30.808C74.4259 27.0915 78.7942 27.5153 81.6694 26.0482C81.78 26.0808 81.8353 26.1134 81.8906 26.1134C82.0012 26.1134 82.1118 26.0808 82.2224 26.0482C83.4389 26.0156 84.4342 26.1786 84.2683 25.0702C84.4526 25.1354 84.6553 25.1897 84.8765 25.2332C85.0424 25.657 85.4847 25.7222 86.0377 25.983C86.093 26.0156 86.2036 26.0482 86.2036 26.0482C86.0377 26.309 88.5259 26.961 89.4659 26.9936C89.6871 27.0262 90.1294 27.0262 90.5718 27.0589C91.0141 27.0915 91.5118 27.1566 91.7883 27.287C91.9357 27.3305 92.0279 27.4066 92.0647 27.5153C92.12 27.8087 91.7883 28.1673 91.6777 28.4607H91.733C91.733 28.5585 91.7883 28.6237 91.8436 28.6563C91.8989 28.6563 92.0094 28.6889 92.0094 28.6889C92.12 28.7106 92.2122 28.7323 92.2859 28.7541C92.3412 28.8519 92.3965 28.9171 92.3965 28.9497C92.5071 28.9497 92.5624 28.9823 92.6177 28.9823C92.673 29.0149 92.7836 29.0475 92.8389 29.0475C92.8942 29.1127 92.8942 29.1779 92.9495 29.2431C93.0047 29.2757 93.1153 29.3083 93.1153 29.3083C93.4471 29.7973 94.0553 30.4167 94.8847 30.645C96.9306 31.1666 98.7 30.8732 96.82 29.7647C96.82 29.7321 96.7647 29.6669 96.7094 29.6017C96.433 29.5039 96.1565 29.3735 95.9353 29.2431C95.88 29.2431 95.7695 29.2105 95.7142 29.2105C95.6589 29.1779 95.6036 29.1779 95.493 29.1453C95.493 29.1127 95.4377 29.0475 95.3824 28.9823C95.2718 28.7867 95.1059 28.6889 95.2165 28.4933C95.4377 28.4933 95.5483 28.4933 95.7142 28.4607C95.88 28.5259 96.0459 28.5585 96.1565 28.5911C96.433 28.7867 96.5989 28.9497 96.7647 29.1779C96.82 29.2757 96.9306 29.4061 96.9859 29.5365C97.1518 29.6343 97.2071 29.6995 97.3177 29.7647C97.4283 29.7973 97.4836 29.7973 97.5389 29.8299C98.3683 30.3189 101.631 30.3189 102.515 29.8951C102.515 29.8951 102.571 29.8299 102.571 29.7973C102.626 29.7647 102.626 29.6995 102.681 29.6669C102.46 29.6017 102.46 29.6017 102.736 29.2431C102.902 29.2757 103.013 29.3083 103.179 29.3409C103.234 29.2105 103.345 29.0801 103.455 28.9497C103.529 28.8193 103.621 28.6997 103.732 28.5911C103.787 28.5911 103.898 28.6237 103.953 28.6237C103.953 28.6889 104.008 28.7867 104.064 28.8193C104.285 28.8519 104.064 29.1127 103.842 29.0475C103.842 29.2431 103.787 29.4387 103.677 29.6343C103.732 29.6995 103.787 29.7647 103.787 29.7973C104.34 30.5471 103.953 30.7101 105.391 31.1014C105.446 31.0036 105.501 30.9384 105.612 30.8406C105.778 30.8732 105.888 30.9058 105.999 30.9384C105.667 31.2318 105.667 31.2318 105.335 31.1992C105.169 31.4274 105.004 31.623 104.838 31.8186C104.893 31.9164 104.948 31.9816 105.004 32.0142C105.004 32.0794 105.059 32.1446 105.114 32.1772C105.335 32.275 105.557 32.3402 105.833 32.4054C105.391 32.438 105.225 32.6988 105.004 32.6336C104.395 33.4486 107.658 33.253 108.487 33.3508C110.035 33.5138 111.639 33.8724 112.358 34.8179C111.584 35.0135 111.694 34.8505 111.307 35.4047C111.252 35.4699 111.197 35.5025 111.197 35.5351C111.252 35.6003 111.307 35.6655 111.307 35.6981C111.418 35.7307 111.473 35.7633 111.528 35.7633C111.584 35.7959 111.694 35.7959 111.749 35.8285C111.805 35.6981 111.805 35.6981 112.247 35.7959C112.192 35.8937 112.136 35.9589 112.081 36.0567C111.971 36.1545 111.915 36.2197 111.86 36.2849L111.915 36.3827Z" fill="#76D7DD"/>
</svg>
