<svg width="243" height="36" viewBox="0 0 243 36" fill="none" xmlns="http://www.w3.org/2000/svg">
<path d="M0 0H242.796V35.4699H0V0Z" fill="#0A1D04"/>
<path fill-rule="evenodd" clip-rule="evenodd" d="M61.0447 0H142.548L242.796 18.713V22.3643L115.344 6.6832L61.0447 0ZM221.951 0L242.796 7.79164V12.3558L200.828 0H221.951ZM242.796 27.9064V31.2969L111.196 35.209L101.741 35.4699H0V20.7016L111.196 23.9943L242.796 27.9064Z" fill="#FAB161"/>
<path fill-rule="evenodd" clip-rule="evenodd" d="M237.986 0H238.815L239.036 0.0978188C239.313 0.260824 239.81 0.293413 240.198 0.228211C240.474 0.391215 241.691 0.391211 242.188 0.652019C242.446 0.825891 242.649 0.967177 242.796 1.07585V1.76046C241.635 1.66266 238.981 0.847637 238.373 0.521627C238.262 0.391223 238.152 0.195606 237.986 0V0ZM229.415 3.94473C227.812 4.30334 228.641 2.51029 229.36 2.8689C229.47 2.8689 229.692 2.86889 229.802 2.83629C229.913 2.90149 230.023 2.9341 230.023 2.9667C230.576 2.64069 231.295 4.23814 229.415 3.94473V3.94473ZM228.752 10.4323C228.752 10.3997 228.752 10.2693 228.752 10.1715C228.696 10.1389 228.586 10.1063 228.53 10.0411C228.475 10.0085 228.475 9.87809 228.475 9.78028C228.531 9.74768 228.641 9.71509 228.696 9.64989C228.752 9.61729 228.807 9.58468 228.918 9.51948C228.973 9.48688 229.028 9.42169 229.139 9.38909C229.194 9.35649 229.249 9.29129 229.36 9.22608C229.415 9.22608 229.471 9.16087 229.581 9.09567C229.802 8.96527 230.245 9.22607 230.023 9.35648C230.079 9.45428 230.079 9.55208 230.079 9.61728C230.079 9.71508 230.079 9.8129 230.079 9.8781C230.023 9.94331 229.913 9.97589 229.858 10.0085C229.858 10.1063 229.858 10.2367 229.913 10.2693C229.802 10.3345 229.692 10.3997 229.692 10.3997C229.581 10.4649 229.471 10.5301 229.471 10.5627C229.692 10.6931 229.692 10.6931 228.918 11.5082C228.752 11.4429 228.586 11.3451 228.365 11.2473C228.586 11.0952 228.807 10.9539 229.028 10.8235C228.918 10.7257 228.862 10.5953 228.752 10.4323Z" fill="#9DD9D9"/>
<path d="M195.52 0.88023C195.243 1.01063 195.244 1.01063 194.801 0.717225C194.912 0.673757 195.004 0.630301 195.078 0.586833C195.133 0.554232 195.244 0.521623 195.354 0.456421C195.409 0.42382 195.465 0.391211 195.575 0.32601C195.796 0.21734 196.018 0.10867 196.239 0H198.229C198.782 0.521615 198.893 1.20624 195.852 0.945436C195.796 1.23884 196.626 2.21687 195.188 1.27145C195.299 1.23884 195.465 1.14105 195.575 1.07585C195.631 1.04325 195.631 1.01064 195.631 0.945436C195.594 0.923702 195.557 0.901964 195.52 0.88023Z" fill="#93E9AB"/>
<path d="M193.585 1.59753C193.087 1.85834 193.087 1.85834 192.866 1.69533C193.032 1.63013 193.142 1.56493 193.363 1.46712C193.363 1.40192 193.363 1.30412 193.363 1.20632C193.419 1.17372 193.529 1.14113 193.64 1.07593C193.751 1.10853 193.916 1.10852 194.082 1.10852C194.082 1.20632 194.027 1.30412 194.027 1.36932C194.248 1.49973 193.751 1.72794 193.585 1.59753V1.59753Z" fill="#93E9AB"/>
<path d="M190.212 1.0758C190.156 1.0432 190.101 0.977992 189.991 0.945391C189.991 0.880189 189.991 0.78239 190.046 0.684587C190.046 0.651986 190.156 0.586776 190.267 0.554175C190.322 0.521574 190.433 0.488985 190.488 0.423783C190.765 0.29338 191.152 0.586776 190.931 0.71718C190.765 0.880185 190.599 1.07579 190.433 1.20619C190.156 1.3366 190.599 1.63002 190.322 1.72782C190.267 1.79302 190.156 1.82561 190.101 1.85821C190.488 2.41243 187.171 2.41244 190.212 1.0758V1.0758Z" fill="#93E9AB"/>
<path d="M194.635 5.77049C194.58 5.83569 194.469 5.8683 194.414 5.9009C194.248 5.9335 194.082 5.90089 193.972 5.86829C193.916 5.83569 193.806 5.8031 193.751 5.7379C193.529 5.60749 193.529 5.60749 194.027 5.34668C194.248 5.49882 194.451 5.64008 194.635 5.77049V5.77049Z" fill="#93E9AB"/>
<path d="M179.485 1.17362C179.374 1.07582 179.264 1.01061 179.098 0.880204C179.042 0.815002 179.042 0.717199 179.042 0.554194C179.319 0.586795 179.595 0.55419 179.872 0.488988C180.093 0.391185 180.535 0.652001 180.314 0.782405C180.204 0.945409 180.093 1.07581 179.982 1.20621C179.816 1.20621 179.651 1.20622 179.485 1.17362V1.17362Z" fill="#93E9AB"/>
<path d="M139.949 0.651876C139.894 0.684477 139.784 0.717086 139.673 0.782288C139.618 0.749687 139.562 0.684485 139.452 0.619283C139.507 0.619283 139.618 0.554085 139.728 0.521484C139.728 0.554085 139.839 0.586674 139.949 0.651876Z" fill="#93E9AB"/>
<path d="M134.309 0.945437C135.028 0.130414 136.189 0.55423 135.913 1.66266C135.913 1.79307 135.913 1.89087 135.913 1.92347C134.696 2.28208 133.922 1.30405 134.309 0.945437Z" fill="#93E9AB"/>
<path d="M213.159 15.1595C213.214 15.1269 213.269 15.0617 213.38 15.0291C213.491 15.0617 213.712 15.0617 213.822 15.0291C214.541 14.7031 215.315 16.4961 213.767 16.1049C211.832 16.3983 212.661 14.8009 213.159 15.1595V15.1595Z" fill="#93E9AB"/>
<path d="M213.822 23.0163C214.043 23.1467 214.265 23.288 214.486 23.4401C214.265 23.5379 214.099 23.6357 213.933 23.7009C213.159 22.8533 213.159 22.8533 213.38 22.7229C213.38 22.6903 213.269 22.6577 213.214 22.5925C213.159 22.5599 213.048 22.4947 212.993 22.4621C212.993 22.3969 212.993 22.2991 212.993 22.2013C212.993 22.1687 212.882 22.1035 212.827 22.0383C212.827 22.0057 212.827 21.9079 212.827 21.7775C212.827 21.7449 212.827 21.647 212.882 21.5166C212.661 21.3862 213.159 21.158 213.38 21.2885C213.435 21.3537 213.546 21.3862 213.546 21.4188C213.656 21.484 213.712 21.5493 213.767 21.5493C213.878 21.6145 213.933 21.6797 213.988 21.7123C214.043 21.7449 214.154 21.81 214.209 21.8427C214.265 21.9079 214.375 21.9405 214.431 21.9731C214.375 22.1035 214.375 22.2013 214.375 22.2339C214.265 22.2991 214.209 22.3317 214.154 22.3643C214.099 22.4621 214.099 22.5599 214.099 22.6251C213.988 22.7881 213.933 22.9185 213.822 23.0163V23.0163Z" fill="#93E9AB"/>
<path d="M196.405 14.0835C196.183 14.1487 195.962 14.2139 195.741 14.2791C195.575 14.2139 195.465 14.1161 195.409 14.0183C195.686 14.0509 196.073 14.0509 196.405 14.0835V14.0835Z" fill="#93E9AB"/>
<path d="M196.018 21.7774C195.133 21.7122 195.133 21.7122 194.635 21.4839C194.746 21.4187 194.967 21.3209 195.133 21.2231C195.354 21.3535 195.575 21.484 195.796 21.6144C195.907 21.647 196.128 21.6796 196.239 21.647C196.349 21.7122 196.405 21.7448 196.46 21.7774C196.349 21.8426 196.239 21.8752 196.239 21.9078C196.183 21.8752 196.073 21.81 196.018 21.7774V21.7774Z" fill="#93E9AB"/>
<path d="M193.972 21.0602C193.861 21.1254 193.695 21.1906 193.474 21.2884C193.4 21.245 193.327 21.1906 193.253 21.1254C193.419 21.0602 193.529 20.995 193.751 20.8972C193.824 20.9407 193.898 20.995 193.972 21.0602Z" fill="#93E9AB"/>
<path d="M192.811 20.8645C192.258 20.9297 192.258 20.9297 192.313 20.7341C192.479 20.7993 192.645 20.8319 192.811 20.8645Z" fill="#93E9AB"/>
<path d="M189.714 22.1687C189.548 22.2339 189.382 22.3317 189.216 22.4295C189.161 22.3969 189.106 22.3317 188.995 22.2665C189.161 22.2013 189.272 22.1361 189.493 22.0383C189.548 22.0709 189.603 22.1035 189.714 22.1687V22.1687Z" fill="#93E9AB"/>
<path d="M188.166 21.7122C188 21.7774 187.834 21.8752 187.613 21.973C187.502 21.9078 187.392 21.81 187.226 21.7122C187.336 21.6144 187.558 21.5492 187.723 21.4514C187.889 21.5166 188 21.6144 188.166 21.7122Z" fill="#93E9AB"/>
<path d="M186.894 22.3643C186.839 22.3317 186.784 22.2665 186.673 22.2013C186.784 22.1035 186.839 21.9731 186.949 21.8101C187.171 21.9622 187.392 22.1035 187.613 22.2339C187.337 22.2991 187.115 22.3317 186.894 22.3643V22.3643Z" fill="#93E9AB"/>
<path d="M186.839 22.8859C186.783 22.8859 186.673 22.9511 186.618 22.9837C186.562 22.9511 186.452 22.9185 186.396 22.8533C186.452 22.8207 186.507 22.7881 186.618 22.7229C186.673 22.7555 186.728 22.8207 186.839 22.8859Z" fill="#93E9AB"/>
<path d="M206.247 11.4103C206.136 11.4755 206.026 11.5081 206.026 11.5407C205.528 11.7689 205.141 12.2579 204.92 12.5839C203.869 13.1055 197.179 14.9312 201.105 12.6817C201.602 12.3883 202.819 12.4209 203.151 12.2579C203.538 12.3231 203.98 12.3231 204.256 12.1601C204.92 11.8341 205.252 11.7037 205.584 11.2799C205.252 11.0191 205.362 10.6279 205.418 10.3018C205.362 10.2692 205.307 10.2366 205.196 10.1714C205.086 10.2366 205.031 10.2692 204.975 10.3018C204.809 10.3018 204.644 10.3018 204.533 10.2692C204.256 10.3996 203.869 10.1062 204.091 10.0084C203.869 9.84543 204.367 9.61722 204.588 9.74763C204.644 9.81283 204.754 9.87804 204.809 9.87804C204.92 9.91064 205.086 9.94323 205.252 9.91063C205.805 10.041 207.795 9.58462 208.238 9.84543C209.233 10.4648 208.127 11.8667 206.247 11.4103V11.4103Z" fill="#93E9AB"/>
<path d="M160.353 7.56354C160.298 7.59614 160.187 7.66135 160.132 7.69395C159.966 7.62875 159.855 7.53095 159.689 7.43315C159.745 7.40055 159.855 7.33534 159.911 7.30273C160.076 7.36794 160.187 7.46574 160.353 7.56354Z" fill="#93E9AB"/>
<path d="M164.721 12.8122C164.666 12.8122 164.611 12.8774 164.5 12.9426C164.389 12.8448 164.223 12.747 164.058 12.6492C164.113 12.6166 164.223 12.584 164.334 12.5188C164.445 12.6166 164.555 12.6818 164.721 12.8122Z" fill="#93E9AB"/>
<path d="M168.205 18.7782C168.813 18.7782 168.813 18.7781 169.089 19.0715C169.255 19.0063 169.366 18.9412 169.587 18.8434C169.753 18.9412 169.863 19.039 169.974 19.1042C169.753 19.202 169.532 19.202 169.311 19.2346C169.089 19.1694 168.868 19.1368 168.647 19.0715C168.536 19.115 168.426 19.1585 168.315 19.202C168.26 19.2672 168.149 19.2998 168.094 19.3324C167.486 19.691 165.882 19.5606 164.942 19.1042C162.841 18.1261 164.445 17.4741 165.827 17.6697C166.767 17.8001 167.099 18.9412 168.205 18.7782V18.7782Z" fill="#93E9AB"/>
<path d="M172.131 24.5485C171.854 24.6789 171.467 24.3854 171.688 24.255C171.467 24.1246 171.965 23.8638 172.186 24.0268C172.407 23.8964 172.849 24.1898 172.628 24.2876C172.794 24.4506 172.352 24.6789 172.131 24.5485V24.5485Z" fill="#93E9AB"/>
<path d="M163.615 20.3429C163.449 20.1799 163.892 19.9517 164.113 20.0821C164.223 20.1473 164.279 20.2125 164.334 20.2451C164.555 20.3755 164.058 20.6037 163.836 20.4733C163.836 20.4407 163.726 20.3755 163.615 20.3429V20.3429Z" fill="#93E9AB"/>
<path d="M161.459 17.1808C161.348 17.2134 161.127 17.2134 161.016 17.1808C158.86 17.5068 156.04 15.8442 157.754 14.7357C160.574 12.9101 166.767 14.5401 161.459 17.1808Z" fill="#93E9AB"/>
<path d="M172.186 25.983C172.186 25.9504 172.186 25.82 172.186 25.7222C172.352 25.7548 172.518 25.7548 172.684 25.7548C172.905 25.6244 173.347 25.9178 173.071 26.0156C173.071 26.146 173.071 26.2438 173.071 26.2764C172.905 26.309 172.739 26.309 172.573 26.2764C172.573 26.2438 172.462 26.1786 172.407 26.146C172.352 26.1134 172.241 26.0482 172.186 25.983Z" fill="#93E9AB"/>
<path d="M170.693 25.0049C170.638 24.9723 170.582 24.9397 170.472 24.8745C170.251 24.7441 170.748 24.4833 170.969 24.6137C171.08 24.6789 171.135 24.7441 171.191 24.7767C171.191 24.8745 171.135 24.9723 171.135 25.0375C171.025 25.0375 170.804 25.0375 170.693 25.0049V25.0049Z" fill="#93E9AB"/>
<path d="M161.182 21.5818C161.127 21.5492 161.016 21.4841 160.961 21.4515C161.016 21.4189 161.072 21.3536 161.182 21.321C161.348 21.2558 161.514 21.158 161.68 21.0602C161.735 21.0602 161.846 20.995 161.901 20.9624C161.956 20.9298 162.067 20.8646 162.178 20.832C162.288 20.8646 162.454 20.8646 162.62 20.832C162.73 20.8646 162.952 20.8972 163.062 20.8646C163.228 20.9624 163.394 21.0602 163.505 21.158C163.394 21.2884 163.339 21.4188 163.228 21.5166C163.062 21.5492 162.896 21.5492 162.786 21.5166C162.62 21.5166 162.454 21.5167 162.288 21.4841C162.233 21.5493 162.122 21.5819 162.067 21.6145C161.956 21.6471 161.735 21.6145 161.625 21.5818C161.459 21.6145 161.293 21.6145 161.182 21.5818V21.5818Z" fill="#93E9AB"/>
<path d="M162.509 23.8964C162.509 23.8312 162.565 23.7333 162.565 23.6355C162.62 23.6029 162.675 23.5703 162.786 23.5051C162.952 23.5377 163.118 23.5377 163.228 23.5377C163.505 23.4073 163.947 23.7007 163.671 23.7985C163.56 23.8637 163.505 23.8963 163.449 23.9289C163.284 23.9615 163.118 23.9289 162.952 23.9289C162.841 23.9289 162.675 23.929 162.509 23.8964V23.8964Z" fill="#93E9AB"/>
<path d="M159.745 22.0381C159.689 22.0707 159.579 22.1033 159.524 22.1685C159.358 22.0707 159.247 22.0055 159.081 21.8751C159.136 21.8751 159.192 21.8099 159.302 21.7773C159.468 21.8425 159.579 21.9403 159.745 22.0381Z" fill="#93E9AB"/>
<path d="M161.79 24.5159C161.735 24.5485 161.625 24.5811 161.514 24.6463C161.459 24.6137 161.403 24.5485 161.293 24.5159C161.348 24.4833 161.459 24.4181 161.569 24.3855C161.569 24.4181 161.68 24.4507 161.79 24.5159Z" fill="#93E9AB"/>
<path d="M159.192 22.8207C159.026 22.8859 158.86 22.9838 158.639 23.0816C158.528 22.9838 158.418 22.9186 158.252 22.7881C158.362 22.7229 158.583 22.6251 158.749 22.5273C158.915 22.6251 159.026 22.6903 159.192 22.8207Z" fill="#93E9AB"/>
<path d="M159.524 10.2041C159.579 10.1715 159.689 10.1389 159.745 10.0737C159.911 10.1063 160.076 10.1063 160.242 10.1063C160.353 10.1389 160.519 10.1389 160.685 10.1063C160.795 10.1389 161.016 10.1715 161.127 10.1389C161.238 10.2041 161.293 10.2367 161.348 10.2693C161.569 10.1389 162.454 10.7258 162.233 10.8562C162.288 10.9214 162.399 10.9866 162.454 10.9866C162.454 11.117 162.399 11.2148 162.399 11.2474C162.399 11.3778 162.399 11.4756 162.399 11.5408C162.344 11.6386 162.344 11.7364 162.344 11.8016C162.344 11.8994 162.344 11.9972 162.344 12.0624C161.956 12.2254 161.625 12.3884 161.348 12.5514C159.081 12.8774 157.091 11.4104 159.524 10.2041V10.2041Z" fill="#93E9AB"/>
<path d="M147.414 11.3125C147.414 11.2799 147.525 11.2473 147.635 11.1821C147.691 11.1821 147.801 11.1169 147.856 11.0842C148.133 11.0516 148.409 11.0191 148.631 10.9539C148.796 10.8887 148.907 10.7909 149.128 10.6931C149.239 10.6279 149.405 10.5626 149.571 10.4648C150.234 10.8887 150.234 10.8886 150.013 10.9865C150.179 11.1495 149.736 11.3777 149.515 11.2473C149.294 11.3451 149.128 11.4429 148.962 11.5081C148.796 11.7037 148.631 11.8667 148.465 12.0297C148.354 12.0623 148.244 12.1275 148.188 12.1275C147.967 12.2579 147.727 12.3883 147.469 12.5187C147.58 12.5513 147.635 12.6165 147.691 12.6491C147.764 12.6926 147.856 12.7469 147.967 12.8121C148.133 12.9425 148.133 12.9425 147.691 13.2033C147.248 13.0403 146.861 12.9099 146.529 12.7143C146.364 12.8121 146.198 12.9099 146.032 12.9751C145.866 13.0729 145.7 13.1381 145.589 13.2033C141.664 13.7901 140.668 12.1927 142.88 11.4103C143.709 11.1169 146.087 11.5081 147.414 11.3125V11.3125Z" fill="#93E9AB"/>
<path d="M147.414 17.0178C147.359 16.9852 147.248 16.9526 147.193 16.8874C146.972 16.757 147.469 16.4961 147.635 16.6265C147.691 16.6265 147.801 16.5613 147.912 16.5287C147.856 16.4309 147.856 16.3658 147.801 16.2354C147.967 16.3332 148.133 16.4635 148.354 16.5287C148.465 16.594 148.52 16.6592 148.575 16.6918C148.686 16.7244 148.907 16.7244 149.073 16.7244C149.128 16.7896 149.239 16.8222 149.294 16.8548C149.239 16.9852 149.239 17.083 149.239 17.1156C149.792 17.5068 149.073 17.6372 148.52 17.5068C148.354 17.5068 148.188 17.5068 148.078 17.4742C148.022 17.4416 147.912 17.3764 147.856 17.3438C147.783 17.2786 147.691 17.2242 147.58 17.1808C147.58 17.1482 147.469 17.083 147.359 17.0178H147.414Z" fill="#93E9AB"/>
<path d="M146.861 17.8327C146.861 17.7349 146.861 17.6372 146.861 17.5393C146.917 17.5067 147.027 17.4415 147.138 17.4089C147.248 17.4415 147.414 17.4415 147.635 17.4415C147.691 17.5067 147.801 17.5719 147.801 17.6045C147.801 17.9631 147.359 18.1588 146.861 17.8327V17.8327Z" fill="#93E9AB"/>
<path d="M146.032 18.9737C146.032 18.9411 145.921 18.8759 145.866 18.8433C145.866 18.8107 145.976 18.7455 146.087 18.7129C146.308 18.5825 146.972 19.0063 146.695 19.1367C146.64 19.1693 146.529 19.2345 146.474 19.2671C146.419 19.2345 146.363 19.1693 146.253 19.1041C146.253 19.0715 146.142 19.0389 146.032 18.9737V18.9737Z" fill="#93E9AB"/>
<path d="M154.271 0H177.218C177.273 0.586817 177.494 1.23884 178.102 1.63005C180.093 2.96669 182.636 3.26011 181.42 1.23885C181.42 1.20625 181.42 1.07583 181.475 0.978029C181.199 0.749822 180.978 0.521631 180.812 0.260824C180.756 0.260824 180.701 0.195614 180.591 0.130412L180.425 0H181.973C182.01 0.152138 182.01 0.315143 181.973 0.489014C181.973 0.586817 181.918 0.815036 181.918 1.01064C181.973 1.17365 182.028 1.30405 182.083 1.40186C182.194 1.46706 182.249 1.49965 182.305 1.53225C182.802 2.47768 187.005 3.61871 188.498 3.39051C188.553 3.35791 188.663 3.3253 188.774 3.2601C188.774 3.2601 188.885 3.1949 188.995 3.1623C188.774 2.99929 188.774 2.9993 189.493 2.64069C189.659 2.77109 189.825 2.83628 189.935 2.93409C190.156 2.80368 190.433 2.67329 190.709 2.54289C190.967 2.41249 191.207 2.29294 191.428 2.18427C191.539 2.21687 191.594 2.28208 191.649 2.31468C191.649 2.41248 191.649 2.51028 191.594 2.57548C191.815 2.70589 191.318 2.9667 191.152 2.80369C190.875 3.0319 190.599 3.26011 190.322 3.45571C190.322 3.58612 190.322 3.68392 190.267 3.71652C190.156 4.85755 189.493 4.92276 190.986 5.90078C191.152 5.80298 191.262 5.73778 191.483 5.63998C191.649 5.77038 191.76 5.83557 191.871 5.93338C191.207 6.12898 191.207 6.12899 190.765 5.99858C190.322 6.22679 189.935 6.4224 189.548 6.61801C189.493 6.71581 189.493 6.84621 189.493 6.87881C189.493 6.97662 189.493 7.10702 189.493 7.13962C189.659 7.33522 189.935 7.49822 190.156 7.66122C189.603 7.56342 189.106 7.82423 188.885 7.66122C187.281 8.47625 191.594 9.38907 192.589 9.78029C194.359 10.5301 196.018 11.5082 195.962 12.9752C194.801 12.9426 195.078 12.7796 194.027 13.3338C193.916 13.3664 193.806 13.4316 193.751 13.4316C193.751 13.562 193.751 13.6598 193.751 13.6924C193.806 13.7576 193.916 13.8228 193.972 13.8554C194.027 13.888 194.138 13.9532 194.138 13.9858C194.414 13.8554 194.414 13.8554 194.801 14.1488C194.635 14.2466 194.469 14.3118 194.359 14.377C194.138 14.4748 193.972 14.5726 193.861 14.6378C193.861 14.7356 193.806 14.8334 193.806 14.8986C193.916 14.9638 193.972 14.9964 194.027 15.0291C194.027 15.1269 194.027 15.2573 194.027 15.2899C193.972 15.2573 193.861 15.2246 193.806 15.1594C193.695 15.2029 193.585 15.2464 193.474 15.2899C193.695 15.3225 193.861 15.3225 194.027 15.2899C193.916 15.4529 193.806 15.6159 193.695 15.7137C193.585 15.5833 193.585 15.4529 193.474 15.2899C193.363 15.2247 193.253 15.1269 193.087 15.0291H193.032V15.0616H192.976V15.0943H192.921V15.1268H192.866L192.589 15.2573C192.589 15.3551 192.589 15.4855 192.534 15.5181C192.645 15.5833 192.755 15.6485 192.755 15.6811C192.866 15.7137 192.921 15.7789 192.976 15.8115C193.032 15.9745 193.087 16.1049 193.142 16.2027C193.032 17.0503 193.253 17.6371 193.142 18.4847C193.142 18.5825 193.142 18.6803 193.142 18.7455C193.032 18.7781 192.921 18.8434 192.866 18.8434C192.811 19.528 189.106 21.484 187.779 21.158C187.558 21.1254 187.336 21.0928 187.115 21.0276C186.949 21.0276 186.783 21.0276 186.618 21.0276C186.12 20.7016 185.014 20.832 184.351 20.3756C184.295 20.343 184.24 20.3104 184.129 20.2452C184.019 20.2452 183.798 20.2452 183.687 20.2126C181.862 19.0064 180.093 19.8214 179.042 18.5499C179.042 18.5173 179.042 18.4195 179.098 18.2891C178.932 18.2239 178.821 18.1261 178.655 18.0283C178.6 17.9957 178.545 17.9305 178.434 17.8653C178.434 17.8327 178.489 17.7349 178.489 17.6045C178.268 17.4741 178.047 17.3437 177.826 17.2133C177.715 17.2133 177.549 17.2133 177.383 17.1807C176.167 16.3657 173.789 16.7895 171.854 15.4855C171.799 15.4529 171.743 15.3877 171.633 15.3551C171.578 15.3225 171.522 15.2573 171.412 15.1921C169.532 14.6378 168.647 14.54 166.988 13.4316C167.099 12.258 166.712 12.9752 165.938 12.4536C165.772 12.4862 165.606 12.4862 165.44 12.4536C165.329 12.4536 165.163 12.4536 164.998 12.421C164.776 12.5514 163.726 11.8341 163.947 11.7363C163.892 11.7037 163.836 11.6385 163.726 11.5733C163.726 11.5407 163.781 11.4103 163.781 11.3125C163.781 11.2799 163.781 11.1495 163.781 11.0517C163.781 11.0191 163.671 10.9865 163.615 10.9213C163.671 10.8561 163.671 10.7257 163.671 10.6279C163.726 10.5953 163.836 10.5627 163.892 10.4975C164.058 10.5301 164.223 10.5627 164.389 10.5301C164.666 10.3671 164.998 10.2041 165.329 10.0411C165.274 10.0085 165.219 9.9433 165.108 9.9107C165.053 9.9433 164.942 10.0085 164.887 10.0085C164.776 10.0411 164.555 10.0411 164.445 10.0085C164.334 9.91069 164.168 9.8455 164.002 9.7151C164.002 9.6825 164.058 9.55208 164.058 9.45428C164.113 9.45428 164.168 9.38908 164.279 9.35648C164.445 9.35648 164.611 9.38908 164.721 9.35648C164.942 9.45428 165.163 9.48688 165.385 9.51948C167.818 8.31325 165.551 6.32459 162.841 5.60737C160.408 4.95535 157.975 6.5202 156.427 7.30262C156.427 7.40042 156.372 7.49822 156.372 7.56342C156.372 7.66123 156.372 7.75903 156.372 7.82423C156.261 7.85683 156.151 7.92205 156.095 7.92205C156.095 8.05245 156.095 8.15025 156.095 8.18285C155.985 8.24805 155.874 8.28064 155.819 8.31324C151.506 10.5301 148.299 10.3019 149.405 8.86746C150.842 6.94401 153.331 8.34586 155.266 7.36783C155.266 7.33523 155.266 7.20483 155.321 7.10702C155.763 6.87882 155.985 6.84621 156.04 6.4876C156.095 6.455 156.206 6.42239 156.316 6.35719C156.427 6.25938 156.538 6.09639 156.593 5.96599C156.593 5.93339 156.482 5.86819 156.427 5.80299C156.427 5.77038 156.427 5.67257 156.427 5.54216C156.372 5.50956 156.316 5.47697 156.206 5.41177C156.261 5.34657 156.261 5.24877 156.261 5.15097C156.206 5.11837 156.151 5.05316 156.04 5.02055C155.745 4.82495 155.45 4.62935 155.155 4.43374C154.215 3.1297 153.773 2.8689 153.939 1.33665C153.939 1.30405 153.939 1.20625 153.994 1.07585C153.994 1.04325 153.994 0.945428 153.994 0.815024C154.049 0.815024 154.16 0.749826 154.271 0.717225C154.215 0.619422 154.215 0.521631 154.215 0.423828C154.215 0.358626 154.271 0.260808 154.271 0.163005V0Z" fill="#93E9AB"/>
<path d="M161.182 35.4699L179.263 0H242.796V35.4699H161.182Z" fill="#9DD9D9"/>
<path d="M215.205 0L242.796 4.69455V35.4699H175.835L193.916 0H215.205Z" fill="#8A6E66"/>
<path d="M204.257 4.75977L242.797 11.28V35.4699H188.608L204.257 4.75977Z" fill="#48C3D0"/>
<path d="M213.38 13.3337L242.796 18.3217V35.4698H202.1L213.38 13.3337Z" fill="#4C4813"/>
<path d="M0 17.8654L44.4012 13.9207L50.1518 35.4699H0V17.8654Z" fill="#FFF8AD"/>
<path d="M0 22.7882L37.3788 19.4629L41.6365 35.47H0V22.7882Z" fill="#FECB0B"/>
<path d="M2.81996 35.4699L1.10583 29.0475L28.2 26.635L30.5776 35.4699H2.81996Z" fill="#F4913B"/>
<path fill-rule="evenodd" clip-rule="evenodd" d="M159.546 13.7576C155.233 13.7576 155.233 13.7576 155.233 13.9532C156.339 13.9858 157.445 14.0184 158.606 14.0836C158.882 14.1162 159.214 14.1488 159.601 14.1488V15.3877C159.38 15.3877 159.159 15.3768 158.938 15.3551C158.716 15.029 158.495 14.703 158.329 14.4096C157.297 14.4748 156.265 14.54 155.233 14.6052C155.233 15.0943 155.233 15.5833 155.233 16.1049C154.956 16.1049 154.735 16.1049 154.514 16.1049C154.514 16.3005 154.514 16.3005 155.62 16.3005C155.62 16.4309 155.62 16.5613 155.62 16.7243C155.454 16.7243 155.344 16.7243 155.233 16.7243C154.846 16.7243 154.514 16.7243 154.182 16.7243C154.182 17.2459 154.182 17.7349 154.182 18.2565C154.182 18.3217 154.182 18.3869 154.182 18.4847C154.514 18.4847 154.846 18.4847 155.233 18.4847C155.233 18.3869 155.233 18.3217 155.233 18.2565C155.344 18.2565 155.454 18.2565 155.62 18.2565C155.731 18.2565 155.86 18.2565 156.007 18.2565C156.118 18.2565 156.228 18.2565 156.394 18.2565C156.394 18.2783 156.394 18.3109 156.394 18.3543C156.118 18.387 155.896 18.4195 155.62 18.4847C155.62 18.9086 155.62 18.9086 156.007 18.9086C156.007 19.039 156.007 19.1694 156.007 19.3324C156.228 19.3324 156.449 19.3324 156.726 19.3324C156.726 19.1694 156.726 19.039 156.726 18.9086C156.449 18.9086 156.228 18.9086 156.007 18.9086C156.007 18.8107 156.007 18.7456 156.007 18.6804C156.339 18.6804 156.726 18.6804 157.113 18.6804C157.113 18.55 157.113 18.4522 157.113 18.3543C157.224 18.2457 157.334 18.1479 157.445 18.0609C157.555 18.0609 157.721 18.0609 157.887 18.0609C157.887 17.6915 157.887 17.322 157.887 16.9525C157.721 16.9525 157.555 16.9525 157.445 16.9525C157.058 16.8547 156.726 16.7895 156.394 16.7243C156.228 16.7243 156.118 16.7243 156.007 16.7243C156.062 16.3657 156.173 16.0397 156.284 15.7137C156.781 15.7463 157.279 15.8115 157.887 15.8767C157.887 16.0723 157.887 16.3005 157.887 16.5287C158.329 16.5287 158.827 16.5287 159.325 16.5287C159.325 16.4309 159.325 16.3657 159.325 16.3005C158.938 16.3005 158.606 16.3005 158.274 16.3005C158.274 16.1375 158.274 16.0071 158.274 15.8767C158.716 15.8767 159.159 15.8875 159.601 15.9093L159.546 16.7243C159.472 16.7243 159.398 16.7243 159.325 16.7243C158.938 16.7243 158.606 16.7243 158.274 16.7243C158.274 17.2133 158.329 17.6697 158.385 18.1587C158.661 18.1913 158.993 18.2239 159.325 18.2565C159.398 17.9305 159.491 17.6045 159.601 17.2785V24.9397C159.306 25.0049 159.03 25.0593 158.772 25.1027C158.329 25.1679 157.887 25.2331 157.445 25.3309C157.334 25.1679 157.279 25.0049 157.224 24.8745C156.947 24.8419 156.671 24.8093 156.394 24.8093C156.394 25.0049 156.394 25.2005 156.394 25.4287C156.615 25.4287 156.836 25.4287 157.113 25.4287C157.279 25.5591 157.5 25.6896 157.776 25.8852C158.274 25.657 158.772 25.4939 159.325 25.3309C159.435 25.3309 159.527 25.3309 159.601 25.3309V26.6676C159.38 26.4394 159.214 26.4394 158.44 26.309C158.495 26.5046 158.551 26.7328 158.606 26.961C158.882 26.9284 159.214 26.8958 159.601 26.8632V27.287C159.214 27.287 158.882 27.287 158.606 27.287C158.606 27.45 158.661 27.613 158.716 27.776C159.011 27.7977 159.306 27.8303 159.601 27.8738V29.6017H136.156V28.9823H136.267C137.115 28.917 137.963 28.8519 138.811 28.7867H136.156V7.66122C136.046 8.18284 135.935 8.24805 135.548 8.60666C135.548 9.38908 135.548 10.1715 135.548 10.9539C135.327 10.9539 135.216 10.9539 135.106 10.9539C135.106 10.3019 135.106 9.64989 135.106 9.03047C134.94 8.47625 134.829 7.98723 134.719 7.49822C134.719 7.98723 134.719 8.47625 134.719 9.03047C134.719 10.4975 134.719 11.9971 134.719 13.5294C134.664 13.7576 134.608 14.0184 134.553 14.2792C134.166 12.2254 134.166 12.2254 134 4.72714C134 3.19489 134 1.69525 134 0.228211C134.774 0.163009 135.604 0.13042 136.433 0.0978188C136.931 0.13042 137.539 0.163009 138.092 0.228211C138.092 0.141275 138.11 0.0652019 138.147 0H146.607C146.994 0.032601 147.16 0.0978028 147.602 0.326009C147.879 0.326009 148.155 0.326009 148.542 0.326009C148.708 0.391211 148.874 0.456425 149.095 0.521627C149.316 0.521627 149.538 0.521627 149.814 0.521627C150.091 1.63006 150.091 1.63006 150.035 10.5301C150.146 10.7909 150.312 11.0843 150.422 11.3777C150.533 12.6166 150.644 13.888 150.809 15.1268C151.031 15.1268 151.252 15.1268 151.528 15.1268C151.639 14.8008 151.749 14.4748 151.86 14.1814C151.971 14.1814 152.136 14.1814 152.302 14.1814C154.404 14.1379 156.505 14.1053 158.606 14.0836C158.882 14.1162 159.214 14.1488 159.601 14.1488L159.546 13.7576ZM136.101 3.55351H135.825C135.825 3.71652 135.825 3.87951 135.825 4.07512H136.101V3.55351ZM146.386 8.70446C146.552 8.15024 146.607 7.75904 146.441 7.10702C147.049 6.87882 147.049 6.87882 147.215 6.455C146.662 6.3572 146.441 6.06378 145.667 6.03118C145.667 5.90077 145.667 5.80297 145.667 5.70517C145.833 5.37916 145.999 5.02055 146.22 4.72714C145.944 4.07512 145.667 3.87952 144.948 3.45571C144.838 3.45571 144.727 3.45571 144.616 3.45571C144.395 3.35791 144.285 3.2927 144.174 3.2275C143.676 3.2275 143.179 3.2275 142.736 3.2275C142.349 3.2601 142.073 3.2927 141.796 3.3253C141.299 3.3253 140.801 3.3253 140.304 3.3253C139.751 3.2927 139.253 3.29271 138.7 3.29271C138.589 3.39051 138.479 3.52091 138.424 3.65131C138.202 3.68391 138.036 3.71652 137.871 3.78172C137.705 3.58612 137.594 3.39051 137.484 3.2275C137.207 3.1949 136.931 3.1623 136.709 3.1297C136.654 3.26011 136.599 3.39051 136.544 3.55351H136.101L146.386 8.70446ZM146.275 9.03047C146.275 9.16087 146.275 9.29127 146.275 9.45428C146.275 10.0085 146.275 10.5627 146.275 11.1821C146.331 11.3125 146.386 11.4429 146.441 11.6059C146.939 11.6386 147.492 11.7038 148.045 11.769C147.824 13.0404 147.824 13.0404 147.602 12.7796C147.492 12.8774 147.381 12.9752 147.271 13.1056C147.492 13.888 147.492 13.888 147.271 14.377C147.547 14.703 148.1 15.3551 147.271 15.5833C147.16 15.6811 147.105 15.7789 147.049 15.9093C147.049 16.0397 147.049 16.1701 147.049 16.3331C147.16 16.4635 147.271 16.5939 147.436 16.7569C148.1 17.1481 148.1 17.4741 148.155 18.0609C148.376 18.0609 148.598 18.0609 148.929 18.0609C148.929 18.9738 148.929 19.1042 147.768 19.7888C147.768 19.854 147.768 19.9192 147.768 19.9844C147.989 20.0496 148.211 20.1148 148.487 20.2126C148.542 20.3756 148.598 20.5386 148.708 20.7342C148.708 20.7994 148.708 20.8646 148.708 20.9624C148.542 21.1906 148.432 21.4514 148.321 21.7122C148.321 22.1035 148.321 22.4947 148.321 22.8859C148.321 23.0489 148.321 23.2119 148.321 23.4075C148.321 23.4727 148.321 23.5379 148.321 23.6357C148.321 23.7444 148.321 23.853 148.321 23.9617C148.487 23.9617 148.653 23.9617 148.929 23.9617C149.151 24.1247 149.372 24.3203 149.648 24.5159C149.427 25.2005 149.261 25.9178 149.095 26.635C149.538 26.7002 150.035 26.7654 150.533 26.8632C150.533 26.6676 150.533 26.472 150.533 26.309C150.865 26.2764 151.196 26.2438 151.528 26.2112C151.141 25.6896 151.141 25.6895 151.141 24.9397C151.086 24.4507 151.031 23.9943 150.975 23.5053C150.975 23.4401 150.975 23.3749 150.975 23.3097C151.031 23.1793 151.086 23.0815 151.141 22.9837C151.639 22.7881 151.639 22.7881 151.749 22.3316C151.528 22.2664 151.307 22.2013 151.141 22.1361C151.031 21.8426 150.92 21.5492 150.809 21.2884C150.809 20.919 150.809 20.5603 150.809 20.2126C150.92 19.6258 151.031 19.039 151.141 18.4847C151.307 18.5173 151.473 18.55 151.639 18.6152C151.694 18.4848 151.749 18.3543 151.86 18.2565C151.86 17.9631 151.86 17.6697 151.86 17.4089C151.694 17.5067 151.528 17.6045 151.362 17.7349C151.362 17.3437 151.362 16.9525 151.362 16.5613C150.809 16.5613 150.809 16.5613 150.809 16.7569C150.588 16.7569 150.478 16.7569 150.367 16.7569C150.367 17.1046 150.367 17.4632 150.367 17.8327C150.312 17.2785 150.256 16.7569 150.201 16.2353C150.275 15.8658 150.33 15.4963 150.367 15.1268C150.367 15.0616 150.367 14.9965 150.367 14.9313C150.256 13.4642 150.146 11.9972 150.035 10.5301L146.386 8.70446C146.349 8.81313 146.312 8.9218 146.275 9.03047ZM136.212 7.20482C136.175 7.18309 136.156 7.15049 136.156 7.10702V4.92276C136.193 4.85755 136.212 4.78148 136.212 4.69454C135.88 5.50957 135.825 6.5528 136.212 7.20482ZM134.719 7.30262C134.829 7.30262 134.94 7.30262 135.106 7.30262C135.106 6.94401 135.106 6.5528 135.106 6.22679C134.94 6.22679 134.829 6.22679 134.719 6.22679C134.719 6.5528 134.719 6.94401 134.719 7.30262ZM135.272 19.691C135.235 18.9303 135.18 18.1696 135.106 17.4089C135.106 17.0177 135.106 16.6265 135.106 16.2353C135.216 16.2353 135.327 16.2353 135.493 16.2353C135.493 16.257 135.493 16.2896 135.493 16.3331C135.659 16.5287 135.825 16.7569 136.046 16.9851C135.714 16.9851 135.714 16.9851 135.659 18.5825C135.604 18.8759 135.548 19.202 135.493 19.528C135.382 19.5606 135.327 19.6258 135.272 19.691ZM145.556 19.8866C144.819 19.8431 144.082 19.8105 143.345 19.7888C143.068 19.854 142.902 19.9192 142.736 19.9844C142.792 20.0496 142.847 20.1148 142.902 20.2126C144.451 20.0822 144.451 20.0822 145.556 20.2126C145.556 20.0822 145.556 19.9844 145.556 19.8866ZM140.525 18.4847C140.746 18.4847 140.967 18.4847 141.244 18.4847C142.018 18.4847 142.773 18.4847 143.511 18.4847C143.511 18.3543 143.511 18.2565 143.511 18.1587C141.999 18.2022 140.506 18.2348 139.032 18.2565C139.474 18.3217 140.027 18.3869 140.525 18.4847ZM143.345 19.4302C142.718 19.4084 142.073 19.3758 141.409 19.3324C140.912 19.365 140.414 19.3976 139.972 19.4302C141.022 19.4628 142.184 19.4954 143.345 19.528C143.345 19.5062 143.345 19.4736 143.345 19.4302ZM148.929 3.45571C148.708 3.45571 148.598 3.45571 148.487 3.45571C148.487 4.56414 148.487 5.70518 148.487 6.87881C148.487 7.36783 148.487 7.85683 148.487 8.37845C148.598 8.37845 148.708 8.37845 148.929 8.37845C148.985 8.05244 149.04 7.72644 149.095 7.43303C149.095 7.20483 149.095 6.97662 149.095 6.78101C149.151 6.1942 149.206 5.67258 149.316 5.15097C149.316 4.80322 149.316 4.4446 149.316 4.07512C149.151 4.07512 149.04 4.07512 148.929 4.07512C148.929 3.84691 148.929 3.65132 148.929 3.45571ZM148.764 8.63925C148.708 8.96526 148.653 9.29128 148.598 9.64989C148.708 9.58469 148.929 9.51948 149.095 9.45428C149.095 9.25867 149.095 9.09567 149.095 8.93267C148.985 8.83486 148.819 8.73705 148.764 8.63925ZM149.316 12.91C149.353 12.1493 149.409 11.3886 149.482 10.6279C149.519 11.4538 149.575 12.2797 149.648 13.1056C149.648 13.562 149.648 14.0184 149.648 14.5074C149.593 15.1268 149.538 15.7789 149.482 16.4309C149.427 15.7789 149.372 15.1268 149.316 14.5074C149.316 14.3118 149.316 14.1162 149.316 13.9532C149.151 13.9532 149.04 13.9532 148.929 13.9532C148.929 13.5946 148.929 13.236 148.929 12.91C149.04 12.91 149.151 12.91 149.316 12.91ZM138.092 14.6052C138.424 14.6704 138.811 14.7356 139.198 14.8008C139.364 14.7682 139.529 14.7356 139.806 14.703C139.64 14.5726 139.474 14.4748 139.364 14.377C138.921 14.4422 138.479 14.5074 138.092 14.6052ZM138.479 26.2112C138.313 26.2438 138.202 26.2764 138.092 26.309C138.092 26.3416 138.092 26.3742 138.092 26.4394C138.534 26.4394 139.032 26.4394 139.529 26.4394C140.156 26.4394 140.783 26.4394 141.409 26.4394C140.414 26.3416 139.419 26.2764 138.479 26.2112ZM143.676 27.4826C144.008 27.4826 144.395 27.4826 144.782 27.4826C145.409 27.4826 146.036 27.4826 146.662 27.4826C146.662 27.287 143.676 27.287 143.676 27.4826ZM152.247 14.1814C152.081 14.1814 151.971 14.1814 151.86 14.1814C151.86 14.0184 151.86 13.888 151.86 13.7576C152.855 13.7576 153.851 13.7576 154.901 13.7576C154.901 13.9532 154.901 13.9532 152.247 14.1814ZM156.449 19.8214C156.726 19.854 157.002 19.8866 157.334 19.9192C157.224 19.4954 157.224 19.4954 156.726 19.4302C156.615 19.528 156.505 19.691 156.449 19.8214ZM155.233 20.9624C155.233 20.7668 155.233 20.6038 155.233 20.4408C154.846 20.4408 154.514 20.4408 154.127 20.4408C154.238 20.6038 154.348 20.7668 154.514 20.9624C154.735 20.9624 154.956 20.9624 155.233 20.9624ZM157.445 22.3316C157.334 22.136 157.224 21.973 157.113 21.81C156.892 21.8752 156.671 21.973 156.449 22.0708C156.505 22.136 156.615 22.2338 156.726 22.3316C156.947 22.3316 157.168 22.3316 157.445 22.3316ZM154.901 22.3316C154.735 22.1686 154.569 22.0056 154.404 21.8426C154.293 22.0056 154.182 22.1686 154.127 22.3316C154.348 22.3316 154.625 22.3316 154.901 22.3316ZM153.298 22.3316C153.298 22.1686 153.298 22.0382 153.298 21.9078C153.021 21.8752 152.8 21.8426 152.524 21.8426C152.524 22.0382 152.524 22.2339 152.634 22.4621C152.855 22.3969 153.076 22.3643 153.298 22.3316ZM159.491 23.5379C159.048 23.4727 158.661 23.4401 158.274 23.4075C158.274 23.5379 158.274 23.6683 158.274 23.8639C158.661 23.7335 159.048 23.6357 159.491 23.5379ZM157.279 23.6031C156.947 23.5379 156.671 23.4727 156.394 23.4075C156.394 23.5379 156.394 23.6683 156.394 23.8639C156.671 23.7335 156.947 23.6683 157.279 23.6031ZM155.62 23.7335C155.233 23.5053 155.233 23.5053 154.127 23.4075C154.127 23.5053 154.127 23.6031 154.127 23.7335C154.625 23.7335 155.122 23.7335 155.62 23.7335ZM153.408 23.5053C153.021 23.4727 152.634 23.4401 152.247 23.4075C152.247 23.5705 152.247 23.7335 152.247 23.9617C152.468 23.9617 152.745 23.9617 153.021 23.9617C153.132 23.7661 153.242 23.6357 153.408 23.5053ZM155.399 24.2877C155.067 24.1899 155.067 24.1899 154.127 24.5159C154.569 24.4181 154.956 24.3529 155.399 24.2877ZM155.067 25.3636C155.233 25.3636 155.399 25.3636 155.62 25.3636C155.62 25.2005 155.62 25.0701 155.62 24.9397C155.122 24.9397 154.625 24.9397 154.127 24.9397C154.404 25.2983 154.404 25.2984 155.067 25.3636ZM153.408 25.3636C153.298 24.9397 153.298 24.9397 152.8 24.8419C152.634 25.0049 152.413 25.1679 152.247 25.3636C152.634 25.3636 153.021 25.3636 153.408 25.3636ZM153.629 26.6676C153.353 26.5372 153.076 26.4068 152.8 26.309C152.634 26.472 152.413 26.6676 152.247 26.8632C152.726 26.798 153.187 26.7328 153.629 26.6676ZM154.569 26.4394C154.569 26.5698 154.625 26.7002 154.68 26.8632C154.956 26.8958 155.288 26.9284 155.62 26.961C155.62 26.798 155.62 26.6676 155.62 26.5372C155.233 26.5046 154.901 26.472 154.569 26.4394Z" fill="#3C85A1"/>
<path fill-rule="evenodd" clip-rule="evenodd" d="M97.4329 9.03188C97.7647 9.09709 98.1518 9.1623 98.5388 9.2275C98.4282 9.35791 98.3729 9.4883 98.3176 9.6839C98.5941 9.6839 98.9812 9.6839 99.3129 9.6839C99.0918 9.97731 98.9259 10.2707 98.76 10.5641C98.9812 10.6293 99.2024 10.6945 99.4788 10.7597C99.5341 11.0205 99.5894 11.314 99.6447 11.6074C99.3682 11.7052 99.1471 11.803 98.9259 11.9334C99.0918 12.0312 99.2577 12.129 99.4788 12.2594C99.5341 12.4224 99.5894 12.618 99.7 12.8136C99.2576 12.944 98.7969 13.0744 98.3176 13.2048C98.3176 13.3352 98.3176 13.4656 98.3176 13.6286C98.2071 13.8242 98.0965 14.085 98.0412 14.3132C98.2624 14.3784 98.4835 14.4437 98.76 14.5415C98.76 14.7045 98.76 14.8675 98.76 15.0631C99.0365 15.0957 99.3129 15.1283 99.6447 15.1609C99.571 15.5521 99.5157 15.9433 99.4788 16.3345C99.2577 16.3671 99.0918 16.3997 98.9259 16.4323C99.7 16.9865 100.087 17.2799 99.3129 17.9319C99.5894 18.0949 99.8659 18.3232 100.198 18.5188C100.142 18.747 100.087 18.9752 100.032 19.236C99.3129 19.236 99.3129 19.236 98.9259 19.4642C99.3129 19.6924 99.7553 19.9532 100.198 20.214C100.364 20.1814 100.585 20.1488 100.806 20.1162C100.972 20.1162 101.138 20.1162 101.359 20.1162C101.543 20.1162 101.709 20.1162 101.856 20.1162C102.078 20.1488 102.354 20.1814 102.686 20.214C102.833 20.214 102.999 20.214 103.184 20.214C103.184 20.1162 103.184 20.051 103.184 19.9858C103.184 19.9423 103.184 19.9097 103.184 19.888C103.239 19.2686 103.294 18.6818 103.405 18.0624C103.405 17.8341 103.405 17.6059 103.405 17.4103C103.405 15.476 103.405 13.5417 103.405 11.6074C103.294 10.3685 103.239 9.09709 103.184 7.85826C103.184 7.63005 103.184 7.63005 103.736 7.63005C103.847 7.69525 103.958 7.76046 104.124 7.85826C104.271 7.85826 104.4 7.85826 104.511 7.85826C104.787 8.54288 104.787 8.54287 104.732 10.6619C104.769 11.0531 104.824 11.4444 104.898 11.8356C104.898 12.6832 104.898 13.5417 104.898 14.411C105.008 14.411 105.119 14.411 105.229 14.411C105.229 13.9112 105.229 13.4113 105.229 12.9114C105.229 12.7484 105.229 12.5854 105.229 12.455C105.285 11.64 105.34 10.8249 105.451 10.0099C105.451 9.94471 105.451 9.87952 105.451 9.81432C105.285 9.09709 105.174 8.41248 105.064 7.76046C105.285 7.69526 105.506 7.66265 105.782 7.63005C105.856 7.56485 105.911 7.49965 105.948 7.43445C104.842 7.36925 103.736 7.33664 102.686 7.30404C102.686 7.10843 102.686 7.10844 108.271 7.10844C108.271 7.20624 108.271 7.30405 108.271 7.43445C108.602 7.46705 108.934 7.49965 109.321 7.53225C109.653 7.49965 110.095 7.46705 110.482 7.43445C110.593 7.36925 110.704 7.33664 110.814 7.30404C110.925 7.27144 111.035 7.23884 111.201 7.20624C111.201 7.36924 111.201 7.56485 111.201 7.76046C111.312 8.08647 111.422 8.44506 111.588 8.80367C111.588 9.23835 111.588 9.67303 111.588 10.1077C111.754 9.7491 111.865 9.35789 111.975 9.03188C112.141 9.03188 112.307 9.06449 112.528 9.09709C112.565 9.72738 112.62 10.3577 112.694 10.9879C112.749 13.5634 112.805 16.1715 112.86 18.8122C112.915 15.4543 112.971 12.129 113.081 8.80367C113.192 8.44506 113.302 8.08647 113.413 7.76046C113.413 8.08647 113.413 8.44506 113.413 8.80367C113.413 9.42309 113.413 10.1077 113.413 10.7597C113.524 10.7597 113.689 10.7597 113.855 10.7597C113.855 9.7165 113.855 8.64068 113.855 7.63005C113.468 7.40184 113.468 7.40184 113.413 7.53225C113.026 7.43445 112.694 7.36924 112.362 7.30404C112.362 7.14103 112.362 7.01063 112.362 6.88023C112.196 6.88023 112.086 6.88023 111.975 6.88023C111.975 6.58682 111.975 6.2934 111.975 6.03259C112.749 5.99999 113.634 6 114.464 6C114.574 6.32601 114.74 6.65201 114.906 7.01062C115.072 7.10842 115.238 7.20624 115.514 7.30404C115.735 7.36924 115.956 7.43445 116.233 7.53225C116.399 7.53225 116.565 7.53225 116.786 7.53225C116.786 7.36924 116.786 7.23884 116.786 7.10844C117.671 7.10844 118.5 7.10844 119.44 7.10844C119.44 7.20624 119.44 7.30405 119.44 7.43445C119.661 7.46705 119.882 7.49965 120.159 7.53225C120.233 8.29294 120.288 9.05363 120.325 9.81432C120.325 10.3685 120.325 10.9228 120.325 11.5096C120.38 12.1616 120.435 12.8462 120.546 13.5308C120.546 13.9003 120.546 14.2698 120.546 14.6393C120.546 15.0522 120.546 15.476 120.546 15.9107L120.601 16.0085V22.1049H95.0553V20.377C95.0922 20.3987 95.1474 20.4096 95.2212 20.4096C95.2212 20.1814 95.2212 19.9858 95.2212 19.7902C95.1474 19.7902 95.0922 19.7902 95.0553 19.7902V19.3664C95.0922 19.3664 95.1474 19.3664 95.2212 19.3664C95.1474 19.2795 95.0922 19.2143 95.0553 19.1708V17.8341C95.2212 17.8341 95.2212 17.7363 95.2212 17.4103C95.1474 17.4321 95.0922 17.4429 95.0553 17.4429V9.7817C95.0922 9.60783 95.1474 9.42311 95.2212 9.2275C95.1474 9.2275 95.0737 9.2275 95 9.2275L95.0553 8.41248C95.2396 8.41248 95.4239 8.41248 95.6082 8.41248C95.5529 8.60808 95.5529 8.80368 95.5529 9.03188C96.1059 9.4557 96.1059 9.45571 96.2718 10.2055C96.3823 9.42311 96.4929 8.67328 96.6588 7.95606C96.1059 7.93432 95.5714 7.91259 95.0553 7.89085V6.65202L95.2212 6.78243L96.6588 7.63005C96.7325 7.63005 96.8063 7.63005 96.88 7.63005L97.4329 8.70587C97.82 8.54287 97.82 8.54287 98.5388 8.60808C98.5941 8.34727 98.7047 8.11906 98.8153 7.89085C98.3176 7.82565 97.8753 7.79306 97.4329 7.76046C97.0459 7.49965 97.0459 7.49964 96.88 7.63005L97.4329 8.70587C97.4329 8.80368 97.4329 8.90148 97.4329 9.03188V9.03188ZM95.2212 6.68461C95.1474 6.68461 95.0922 6.67375 95.0553 6.65202L95 6.2608C95.0737 6.2608 95.1474 6.2608 95.2212 6.2608C95.2212 6.39121 95.2212 6.52161 95.2212 6.68461V6.68461ZM96.6588 7.63005L95.2212 6.78243C95.5529 6.81503 95.94 6.88023 96.3271 6.94544C96.4376 7.16278 96.5482 7.39097 96.6588 7.63005ZM98.3176 10.5641C98.2071 10.4011 98.0965 10.2381 97.9859 10.1077L98.3176 10.5641ZM115.68 8.60808C115.569 8.41247 115.514 8.21686 115.459 8.05386C115.459 10.0534 115.459 12.0529 115.459 14.0524C115.514 12.2268 115.569 10.4337 115.68 8.60808V8.60808ZM107.496 9.03188C107.331 9.03188 107.22 9.03188 107.109 9.03188C107.109 9.46656 107.109 9.90124 107.109 10.3359C107.036 11.0749 106.98 11.8247 106.944 12.5854C106.999 14.7045 107.054 16.7909 107.109 18.9426C107.22 18.3232 107.331 17.7363 107.496 17.1821C107.496 15.8998 107.496 14.6175 107.496 13.3352C107.496 11.9008 107.496 10.4663 107.496 9.03188ZM116.952 10.2381C116.915 9.47743 116.86 8.71675 116.786 7.95606C116.675 8.86888 116.565 9.7817 116.454 10.7597C116.62 10.5641 116.786 10.4011 116.952 10.2381ZM109.321 8.60808C109.211 8.60808 109.1 8.60808 108.989 8.60808C109.1 8.90148 109.211 9.2275 109.321 9.55351C109.321 9.2275 109.321 8.90148 109.321 8.60808ZM116.067 11.1836C116.067 11.5965 116.067 12.0203 116.067 12.455C116.178 12.455 116.288 12.455 116.454 12.455C116.454 12.0203 116.454 11.5965 116.454 11.1836C116.288 11.1836 116.178 11.1836 116.067 11.1836ZM113.413 13.9546C113.524 13.9546 113.634 13.9546 113.8 13.9546C113.634 13.5634 113.524 13.1722 113.413 12.781C113.413 13.1722 113.413 13.5634 113.413 13.9546ZM104.898 16.3345C104.732 16.3345 104.566 16.3345 104.455 16.3345C104.455 17.6711 104.455 19.0404 104.455 20.4096C104.566 20.4096 104.732 20.4096 104.898 20.4096C104.898 20.2466 104.898 20.1162 104.898 19.9858C104.898 18.7687 104.898 17.5516 104.898 16.3345ZM115.293 17.0843C115.293 16.4649 115.293 15.8455 115.293 15.2587C115.127 15.6825 115.016 16.1063 114.906 16.5627C114.851 17.2799 114.795 18.0297 114.74 18.8122C114.464 18.9426 114.242 19.073 114.021 19.236C114.021 19.3012 114.021 19.3664 114.021 19.4642C114.058 19.4859 114.113 19.5185 114.187 19.562C114.795 20.3444 114.795 20.3444 115.127 20.3118C115.182 19.236 115.238 18.1276 115.293 17.0843V17.0843ZM108.215 16.1389C108.215 16.6388 108.215 17.1278 108.215 17.6059C108.436 17.4755 108.658 17.3451 108.879 17.2147C108.602 16.1389 108.602 16.1389 108.215 16.1389ZM116.067 17.7363C115.956 17.7363 115.827 17.7363 115.68 17.7363C115.735 18.421 115.846 19.1708 115.901 19.888C115.956 19.1708 116.012 18.421 116.067 17.7363V17.7363ZM110.482 16.1389C110.427 13.8568 110.372 11.6074 110.316 9.35789C110.151 10.4011 110.095 11.4118 110.04 12.455C110.04 13.6612 110.04 14.9001 110.04 16.1389C110.151 16.1389 110.316 16.1389 110.482 16.1389ZM112.362 17.4103C112.362 16.1063 112.362 14.8348 112.362 13.5308C112.196 13.5308 112.086 13.5308 111.92 13.5308C111.865 14.737 111.809 15.9107 111.809 17.1169C111.994 17.2256 112.178 17.3234 112.362 17.4103ZM117.947 13.3352C117.947 14.5523 117.947 15.7694 117.947 16.9865C118.058 16.9865 118.168 16.9865 118.279 16.9865C118.279 15.3239 118.279 13.6612 118.279 12.0312C117.892 12.1942 117.892 12.1942 117.947 13.3352ZM109.708 12.455C109.708 12.2268 109.708 12.0312 109.708 11.8356C109.542 11.8356 109.432 11.8356 109.321 11.8356C109.321 12.5202 109.321 13.2374 109.321 13.9546C109.432 13.9546 109.542 13.9546 109.708 13.9546C109.708 13.433 109.708 12.944 109.708 12.455ZM109.708 15.0631C109.487 15.0631 109.487 15.0631 109.542 16.4323C109.616 15.9759 109.671 15.5195 109.708 15.0631ZM112.694 20.214C112.307 20.214 111.92 20.214 111.588 20.214C111.588 20.3444 111.588 20.4748 111.588 20.6378C111.865 20.6378 112.196 20.6378 112.528 20.6378C112.565 20.6378 112.62 20.6378 112.694 20.6378C112.694 20.4748 112.694 20.3444 112.694 20.214ZM95.7741 20.6378C96.1612 20.6378 96.5482 20.6378 96.9906 20.6378C96.7141 20.214 96.7141 20.214 96.1059 19.9858C95.9953 20.1162 95.8847 20.2466 95.7741 20.4096C95.7741 20.4748 95.7741 20.54 95.7741 20.6378V20.6378ZM98.3176 9.65131C98.2071 9.78171 98.0965 9.91211 97.9859 10.1077L98.3176 9.65131ZM96.9906 17.3777C96.6035 17.3777 96.2718 17.3777 95.94 17.3777C96.0506 17.5407 96.1612 17.7037 96.2718 17.8993C96.6588 17.8341 96.6588 17.8342 96.9906 17.3777V17.3777ZM96.0506 18.9752C95.8847 19.073 95.7741 19.1708 95.6082 19.2686C95.94 19.3012 96.2165 19.3664 96.4929 19.4316C96.9906 19.4316 96.9906 19.1056 97.3776 19.1056C96.9353 19.0404 96.4929 19.0078 96.0506 18.9752V18.9752ZM98.3176 10.5315C98.4282 10.5315 98.5388 10.5315 98.7047 10.5315H98.3176Z" fill="#3C85A1"/>
<path d="M120.431 35.4698L163.449 30.8079L163.726 35.4698H120.431Z" fill="#912B31"/>
<path d="M83.3835 5.18361C83.2729 5.31402 83.2176 5.41182 83.107 5.57483C82.9964 5.57483 82.8859 5.54222 82.7753 5.50962C82.8306 5.37922 82.9412 5.28141 83.0517 5.11841C83.107 5.11841 83.2176 5.15101 83.3835 5.18361Z" fill="#FFF8AD"/>
<path d="M76.527 4.82487C76.527 4.98787 76.5823 5.08567 76.5823 5.18347C76.3059 5.15087 75.9188 5.08566 75.5317 5.05306C75.6423 4.92266 75.7529 4.82487 75.8635 4.66187C76.0847 4.72707 76.3059 4.79227 76.527 4.82487V4.82487Z" fill="#FFF8AD"/>
<path d="M81.5588 8.15027C81.3929 8.37847 81.3929 8.37848 80.7294 8.18288C80.8031 8.11768 80.8584 8.0416 80.8953 7.95467C80.9505 7.92207 81.0058 7.85687 81.0611 7.79166C81.0611 7.72646 81.1164 7.66127 81.1717 7.59607C81.3929 7.27006 81.6141 6.97664 81.8906 6.65063C81.5588 6.55283 81.8353 6.16161 82.167 6.25942C82.3329 6.06381 87.1988 7.20484 81.9458 8.15027C82.167 8.41107 83.7705 9.1935 81.5588 8.63928C81.6141 8.54148 81.7247 8.44369 81.78 8.34588C81.8353 8.28068 81.78 8.24808 81.78 8.18288C81.7062 8.16115 81.6325 8.15027 81.5588 8.15027V8.15027Z" fill="#FFF8AD"/>
<path d="M76.1953 6.78101C76.2506 6.94401 76.2506 7.0744 76.2506 7.1722C76.0294 7.15047 75.8082 7.13961 75.587 7.13961C75.6423 7.00921 75.7529 6.87881 75.8635 6.7158C75.8635 6.6506 75.7529 6.5528 75.6976 6.455C75.6423 6.3898 75.587 6.29198 75.5317 6.16158C75.5317 6.12898 75.587 6.06379 75.6423 5.96598C75.8082 5.96598 75.9741 5.93337 76.14 5.86816C76.1953 5.96597 76.2506 6.09638 76.3059 6.16158C76.3059 6.35719 76.3059 6.5854 76.1953 6.78101V6.78101Z" fill="#FFF8AD"/>
<path d="M76.4164 7.5634C76.4164 7.7916 76.4164 8.01981 76.3059 8.21541C76.14 8.15021 75.9188 8.01982 75.6423 7.92202C75.6976 7.75901 75.7529 7.596 75.7529 7.40039C76.0294 7.46559 76.1953 7.53079 76.4164 7.5634Z" fill="#FFF8AD"/>
<path d="M80.1765 9.42155C79.9 9.81276 79.9 9.81277 79.5682 9.71497C79.6788 9.61716 79.7341 9.48676 79.8447 9.32375C79.8447 9.29115 79.7341 9.16075 79.6788 9.06295C79.7341 9.03035 79.7894 8.96513 79.8447 8.86733C80.0106 8.86733 80.1765 8.83473 80.2871 8.76953C80.3976 8.86733 80.4529 8.99773 80.5082 9.03033C80.84 9.12814 80.5082 9.51935 80.1765 9.42155V9.42155Z" fill="#FFF8AD"/>
<path d="M76.3612 9.81285C76.3059 9.81285 76.1953 9.78024 76.0294 9.74764C75.9741 9.68244 75.9188 9.58463 75.8635 9.45423C75.8635 9.42163 75.9188 9.35642 75.9741 9.29122C76.0294 9.22602 76.0847 9.16083 76.14 9.09562C76.3059 8.90002 76.9694 9.06302 76.8035 9.25863C76.8035 9.48684 76.7482 9.68244 76.6929 9.91065C76.527 10.1063 77.1906 10.2693 77.08 10.4649C77.0247 10.5301 76.9694 10.5953 76.9141 10.6279C77.7988 11.1169 74.4259 11.9971 76.3612 9.81285V9.81285Z" fill="#FFF8AD"/>
<path d="M84.7658 13.3338C84.7658 13.399 84.6553 13.4968 84.6553 13.5294C84.5447 13.5946 84.3235 13.6272 84.1576 13.6272C84.1023 13.5946 83.9917 13.5946 83.8258 13.5294C83.4941 13.4642 83.4941 13.4642 83.8258 13.073C84.1208 13.1599 84.4341 13.2469 84.7658 13.3338Z" fill="#FFF8AD"/>
<path d="M64.8047 8.34585C64.6388 8.50885 63.9753 8.34583 64.1411 8.15023C64.1964 8.05243 64.307 7.88944 64.4176 7.75903C65.0811 7.92204 65.0811 7.92203 64.9706 8.11764C64.8968 8.18284 64.8415 8.25891 64.8047 8.34585Z" fill="#FFF8AD"/>
<path d="M58.1694 7.13953C58.0035 7.30253 57.34 7.13953 57.5059 6.97652C57.5059 6.91132 57.5612 6.84613 57.6165 6.78093C57.7824 6.58532 58.4459 6.74833 58.28 6.94393C58.2247 7.00913 58.1694 7.07433 58.1694 7.13953Z" fill="#FFF8AD"/>
<path d="M61.487 10.6604C61.4317 10.693 61.3764 10.7908 61.3211 10.856C61.2659 10.8234 61.1 10.7908 60.9894 10.7582C60.9894 10.7256 61.0447 10.6604 61.1553 10.5952C61.2106 10.5952 61.3211 10.6278 61.487 10.6604V10.6604Z" fill="#FFF8AD"/>
<path d="M65.6894 12.8774C65.4682 12.8448 65.247 12.7796 65.0259 12.7144C64.9153 12.6492 64.8047 12.5514 64.6941 12.421C64.9706 12.3558 65.1917 12.2254 65.4682 12.1276C65.5788 11.932 66.2423 12.095 66.1317 12.2906C66.1317 12.4862 66.187 12.6492 66.187 12.8122C66.0211 12.8448 65.8 12.8774 65.6894 12.8774V12.8774Z" fill="#FFF8AD"/>
<path d="M77.5776 0C77.5776 0.163005 77.6329 0.423824 77.9094 0.847637C77.7988 1.01064 77.7435 1.10845 77.6329 1.23885C77.5223 1.30405 77.3565 1.33665 77.1906 1.33665C77.08 1.33665 76.9694 1.30405 76.8588 1.27144C76.6929 1.66266 76.527 2.08647 76.3059 2.47768C76.14 2.44508 75.9188 2.37988 75.6423 2.31468C75.9188 1.89087 76.0847 1.40186 76.3059 0.912842C76.3059 0.847641 76.1953 0.74983 76.14 0.619426C76.0847 0.586825 76.0294 0.456425 75.9741 0.358622C75.9741 0.326021 76.0294 0.228207 76.0847 0.163005C76.0478 0.119537 76.011 0.0652019 75.9741 0H77.5776Z" fill="#FFF8AD"/>
<path d="M49.0459 0.293416C48.9906 0.195614 48.9353 0.0978028 48.88 0H50.4282C50.3176 0.130404 50.2624 0.195614 50.2071 0.293416C50.0412 0.358618 49.8753 0.391219 49.7094 0.456421C49.4882 0.391219 49.2671 0.358618 49.0459 0.293416Z" fill="#FFF8AD"/>
<path d="M52.64 0.684632C52.5847 0.61943 52.5294 0.521631 52.4741 0.423828C52.4741 0.391227 52.5294 0.293413 52.5847 0.228211L52.7506 0H54.2988C54.9623 0.456413 55.9576 1.04323 54.3541 1.63005C54.2435 1.66265 54.0776 1.72787 53.9118 1.72787C53.2482 1.56486 52.9165 1.07584 52.64 0.684632V0.684632Z" fill="#FFF8AD"/>
<path d="M49.3223 1.95602C49.2117 2.11902 48.5482 1.95602 48.6587 1.79301C48.714 1.72781 48.7693 1.66261 48.8246 1.59741C48.4929 1.49961 48.7693 1.10839 49.1011 1.2062C49.267 1.2062 49.4882 1.1736 49.5987 1.1084C49.7093 1.141 49.8752 1.1736 49.9305 1.1736C49.9858 1.30401 50.0411 1.4018 50.0964 1.467C49.9858 1.5974 49.9305 1.72782 49.8199 1.82562C49.7093 1.89083 49.4882 1.92341 49.3223 1.95602V1.95602Z" fill="#FFF8AD"/>
<path d="M54.2435 3.39048C54.1882 3.32528 54.1329 3.22747 54.0223 3.09706C54.0223 3.06446 53.9117 2.96666 53.8564 2.83626C53.5247 2.77106 53.8011 2.37984 54.1329 2.44505C54.2435 2.51025 54.4094 2.54286 54.4647 2.54286C54.5752 2.57546 54.7411 2.60805 54.7964 2.60805C55.1835 3.22747 56.2341 3.87949 54.2435 3.39048V3.39048Z" fill="#FFF8AD"/>
<path d="M47.4975 2.83624C47.4423 2.77104 47.387 2.67324 47.3317 2.57544C47.387 2.44504 47.4975 2.34723 47.6081 2.18422C47.774 2.18422 47.9399 2.11903 48.0505 2.08643C48.1611 2.18423 48.2164 2.28203 48.2717 2.34723C48.6034 2.44503 48.2717 2.80365 47.9399 2.73844C47.8293 2.80365 47.6634 2.83624 47.4975 2.83624Z" fill="#FFF8AD"/>
<path d="M39.7011 3.1948C39.5353 3.097 39.3694 2.96659 39.1482 2.83618C39.2588 2.73838 39.3694 2.60797 39.48 2.44497C39.6458 2.44497 39.8117 2.41237 39.9223 2.34717C40.0882 2.37977 40.1988 2.41237 40.2541 2.44497C40.3647 2.54277 40.42 2.64059 40.4752 2.70579C40.42 2.77099 40.3094 2.86879 40.3094 2.90139C40.2541 2.96659 40.1988 3.06438 40.1435 3.09699C40.0329 3.16219 39.867 3.1948 39.7011 3.1948V3.1948Z" fill="#FFF8AD"/>
<path d="M41.8024 5.08584C41.7471 5.02063 41.6918 4.92282 41.6365 4.79242C41.6365 4.75982 41.6918 4.69462 41.7471 4.62942C41.9129 4.59681 42.1341 4.56423 42.2447 4.49902C42.3553 4.53162 42.5212 4.56422 42.5765 4.59682C42.6318 4.69463 42.7424 4.79242 42.7424 4.85763C42.5765 4.98803 42.3553 5.08584 42.1341 5.15104C42.0788 5.15104 41.9129 5.11844 41.8024 5.08584V5.08584Z" fill="#FFF8AD"/>
<path d="M17.8599 3.2276C17.9152 3.09719 17.8599 2.93419 17.8047 2.73858C17.7494 2.73858 17.6388 2.70598 17.4729 2.67337C17.4729 2.60817 17.3623 2.51037 17.307 2.41257C17.3623 2.34737 17.4176 2.28218 17.4729 2.21697C17.6388 2.21697 17.8047 2.15176 17.9152 2.08656C18.0811 1.92356 18.7447 2.08656 18.5788 2.24957C18.6894 2.37997 18.7447 2.47778 18.7999 2.54298C18.7447 2.60818 18.6341 2.67338 18.6341 2.73858C18.5788 2.80378 18.5235 2.86898 18.4682 2.93418C18.8 2.99938 18.5235 3.3906 18.1917 3.2928C18.1364 3.2928 18.0258 3.2602 17.8599 3.2276Z" fill="#FFF8AD"/>
<path d="M6.02707 4.1404C6.02707 4.173 5.97178 4.27082 5.86119 4.33602C5.80589 4.33602 5.6953 4.30341 5.52942 4.27081C5.58471 4.20561 5.64001 4.1404 5.6953 4.0752C5.7506 4.0752 5.91648 4.1078 6.02707 4.1404Z" fill="#FFF8AD"/>
<path d="M11.6117 11.0192C11.7776 11.0192 11.9434 10.954 12.1093 10.9214C12.2752 10.8888 12.4411 10.8562 12.5517 10.791C14.5976 11.3452 13.6576 12.1277 12.6623 12.1929C11.8882 12.2255 11.0587 11.7364 11.6117 11.0192Z" fill="#FFF8AD"/>
<path d="M21.2329 15.0291C21.1776 15.1269 21.1223 15.1921 21.067 15.2247C20.9011 15.1921 20.6799 15.1269 20.4034 15.0617C20.4587 15.0291 20.514 14.9639 20.5693 14.8661C20.6799 14.7031 21.3434 14.8661 21.2329 15.0291Z" fill="#FFF8AD"/>
<path d="M27.3153 1.23893C27.26 1.30413 27.1494 1.36933 27.1494 1.43453C27.26 1.46713 27.4259 1.49974 27.4812 1.49974C27.3706 1.56494 27.1494 1.59753 26.9835 1.59753C26.873 1.66274 26.7071 1.72795 26.5412 1.72795C26.2094 1.59754 25.933 1.43453 25.6565 1.27153C25.7118 1.23892 25.7671 1.17373 25.8224 1.07593C25.933 1.10853 26.0988 1.14113 26.1541 1.17373C26.32 1.17373 26.4859 1.10853 26.6518 1.07593C26.873 1.14113 27.0941 1.17373 27.3153 1.23893V1.23893Z" fill="#FFF8AD"/>
<path d="M27.5364 10.4323C27.3152 10.3671 27.1494 10.3344 26.8729 10.2692C26.8176 10.204 26.7623 10.1063 26.6517 9.97585C26.6517 9.94325 26.5411 9.81285 26.4858 9.71505C26.5411 9.68245 26.5964 9.58463 26.6517 9.51943C26.7623 9.51943 26.9835 9.45423 27.0941 9.42163C27.26 9.45423 27.3705 9.48684 27.4258 9.48684C27.5917 9.51944 27.7023 9.55203 27.7576 9.58464C27.8682 9.61724 28.0341 9.64984 28.0894 9.64984C28.1447 9.78025 28.2553 9.87804 28.2553 9.94324C28.1447 10.0736 28.0894 10.2041 27.9788 10.3019C27.8682 10.3671 27.7023 10.3997 27.5364 10.4323V10.4323Z" fill="#FFF8AD"/>
<path d="M28.0341 21.3211C27.9788 21.2884 27.8682 21.2559 27.7023 21.2233C27.647 20.7668 27.647 20.7668 27.9788 20.8646C28.0341 20.7994 28.0894 20.7342 28.1447 20.669C28.2 20.5386 28.3106 20.4408 28.4212 20.2778C28.587 20.2778 28.7529 20.2452 28.9188 20.18C29.1953 20.017 29.4717 19.854 29.6929 19.6584C29.6929 19.5932 29.7482 19.528 29.8035 19.4628C30.0247 19.365 30.2459 19.2998 30.467 19.1694C30.6882 19.1694 30.9094 19.1368 31.1306 19.1042C31.1859 19.1042 31.2965 19.1042 31.2965 19.039C31.3333 19.0172 31.3702 18.9847 31.407 18.9412C31.1859 18.876 33.9506 17.2785 34.3376 17.1807C34.5588 17.1481 34.7247 17.1155 34.8353 17.0503C35.0012 17.0503 35.2223 16.9851 35.3329 16.9199C35.4435 16.9851 35.6094 17.0177 35.6647 17.0177C35.72 17.1155 35.8306 17.2459 35.8306 17.2785C35.167 17.8327 32.8447 18.9738 31.7388 19.0064C31.6835 19.1042 31.5729 19.1694 31.4623 19.1694C31.3518 19.1911 31.2596 19.2128 31.1859 19.2346C31.1306 19.2672 31.1306 19.3324 31.1306 19.3324C30.9094 19.4954 30.6329 19.6584 30.3565 19.8214C30.08 20.017 29.8588 20.18 29.5823 20.343C29.6376 20.4408 29.6929 20.5386 29.7482 20.6038C29.5823 20.7342 29.3612 20.832 29.14 20.8972C29.0847 20.995 29.0294 21.0602 28.9741 21.0928C28.8635 21.158 28.6976 21.1906 28.5318 21.1906C28.3659 21.2558 28.2 21.3211 28.0341 21.3211V21.3211Z" fill="#FFF8AD"/>
<path d="M25.3247 23.3748C25.2694 23.44 25.2141 23.5052 25.1588 23.5704C25.1035 23.5704 24.9929 23.5378 24.827 23.5052C24.8823 23.4726 24.9376 23.3748 24.9929 23.3096C25.0482 23.3096 25.1588 23.3422 25.3247 23.3748Z" fill="#FFF8AD"/>
<path d="M19.8506 25.2331C19.9059 24.2225 21.4541 24.3203 22.1176 25.5265C22.1729 25.6569 22.2835 25.7547 22.3388 25.8199C21.3988 26.5045 19.8506 25.7221 19.8506 25.2331Z" fill="#FFF8AD"/>
<path d="M5.14233 25.3961C5.14233 25.3635 5.19763 25.2983 5.25292 25.2005C5.30821 25.1679 5.36351 25.1027 5.4188 25.0375C5.4188 24.9723 5.4741 24.9071 5.52939 24.8419C8.18351 24.7441 7.74116 25.8851 6.80116 26.1459C6.24822 26.3089 5.52939 25.9503 5.14233 25.3961Z" fill="#FFF8AD"/>
<path d="M111.307 17.6371C111.307 17.6045 111.362 17.5067 111.418 17.4415C111.583 17.4415 111.805 17.4089 111.915 17.3437C112.302 16.7895 114.625 18.3869 112.689 18.4521C111.03 19.2671 110.478 17.4415 111.307 17.6371V17.6371Z" fill="#FFF8AD"/>
<path d="M118.551 25.3635C118.882 25.4504 119.214 25.5374 119.546 25.6243C119.435 25.7873 119.325 25.9177 119.269 26.0481C117.776 25.3961 117.776 25.3961 117.887 25.2005C117.832 25.2005 117.721 25.1679 117.555 25.1353C117.5 25.1027 117.389 25.0701 117.224 25.0375C117.224 25.0049 117.113 24.8745 117.058 24.7767C117.002 24.7441 116.836 24.7115 116.726 24.6789C116.671 24.6463 116.615 24.5159 116.56 24.4181C116.505 24.3529 116.449 24.2551 116.339 24.1573C116.007 24.0595 116.284 23.6683 116.615 23.7661C116.781 23.7987 116.892 23.8313 116.947 23.8639C117.113 23.8965 117.224 23.9291 117.279 23.9291C117.445 23.9617 117.555 23.9943 117.611 24.0269C117.776 24.0595 117.887 24.0921 117.942 24.0921C118.108 24.1247 118.219 24.1573 118.274 24.1899C118.385 24.2877 118.44 24.3855 118.495 24.4507C118.44 24.5159 118.385 24.6137 118.329 24.6463C118.385 24.7441 118.495 24.8745 118.495 24.9071C118.551 25.1027 118.606 25.2331 118.551 25.3635V25.3635Z" fill="#FFF8AD"/>
<path d="M93.5577 21.2231C93.3734 21.3535 93.189 21.484 93.0047 21.6144C92.7835 21.5818 92.6177 21.5165 92.4518 21.4187C92.7835 21.3861 93.1706 21.2883 93.5577 21.2231Z" fill="#FFF8AD"/>
<path d="M99.5294 29.0799C98.6447 29.2755 98.6447 29.2755 97.9259 29.1777C97.9812 29.0473 98.0918 28.9169 98.2024 28.7539C98.5341 28.8408 98.8659 28.9278 99.1977 29.0147C99.3636 28.9821 99.5847 28.9495 99.6953 28.8843C99.8059 28.9169 99.9718 28.9495 100.027 28.9821C99.9718 29.0473 99.9165 29.1125 99.8612 29.1777C99.8059 29.1451 99.6953 29.1125 99.5294 29.0799Z" fill="#FFF8AD"/>
<path d="M96.9306 28.9171C96.82 29.0475 96.7647 29.1453 96.6541 29.3084C96.5067 29.2649 96.3592 29.2323 96.2118 29.2106C96.3224 29.0801 96.433 28.9823 96.5435 28.8193C96.6541 28.8628 96.7832 28.8954 96.9306 28.9171Z" fill="#FFF8AD"/>
<path d="M95.6035 29.0474C95.1058 29.2756 95.1058 29.2756 94.9399 29.0474C95.1611 29.08 95.3823 29.08 95.6035 29.0474Z" fill="#FFF8AD"/>
<path d="M93.5577 31.2317C93.4471 31.3621 93.3365 31.4599 93.2259 31.6229C93.1706 31.6229 93.06 31.5903 92.8942 31.5251C93.0048 31.4273 93.06 31.3295 93.1706 31.1665C93.2812 31.1665 93.3918 31.1991 93.5577 31.2317V31.2317Z" fill="#FFF8AD"/>
<path d="M91.5671 31.1991C91.5118 31.3295 91.4012 31.4925 91.2906 31.6229C91.0694 31.5903 90.9035 31.5251 90.6271 31.4599C90.6824 31.3621 90.793 31.1991 90.9035 31.0361C91.1247 31.1013 91.3459 31.1339 91.5671 31.1991Z" fill="#FFF8AD"/>
<path d="M90.8482 32.2097C90.793 32.1771 90.6271 32.1445 90.5165 32.1119C90.5165 31.9815 90.5165 31.8511 90.4612 31.6555C90.7929 31.7425 91.1247 31.8294 91.4565 31.9163C91.2906 32.0467 91.0694 32.1119 90.8482 32.2097V32.2097Z" fill="#FFF8AD"/>
<path d="M91.2353 32.7312C91.18 32.7964 91.1247 32.8616 91.0694 32.9268C91.0141 32.9268 90.9036 32.8942 90.7377 32.8616C90.793 32.829 90.8483 32.7312 90.9036 32.666C90.9589 32.666 91.0694 32.6986 91.2353 32.7312Z" fill="#FFF8AD"/>
<path d="M101.188 15.8115C101.133 15.8767 101.078 15.9419 101.078 15.9745C100.801 16.3657 100.801 16.9526 100.856 17.3438C100.248 18.1588 94.9953 21.8427 97.0965 18.4848C97.373 18.061 98.6447 17.7676 98.7553 17.5068C99.1977 17.4742 99.6953 17.3112 99.8612 17.083C100.193 16.594 100.469 16.3657 100.414 15.8115C99.8612 15.6811 99.6953 15.2247 99.4741 14.8987C99.3636 14.8987 99.253 14.8661 99.1424 14.8335C99.0871 14.8987 99.0318 14.9639 98.9765 15.0291C98.8659 15.0617 98.6447 15.1269 98.4788 15.1269C98.3682 15.3225 97.7047 15.1595 97.8706 14.9639C97.5389 14.8661 97.8153 14.5075 98.1471 14.5727C98.2577 14.6053 98.3682 14.6379 98.4788 14.6705C98.6447 14.6705 98.8106 14.6053 98.9212 14.5401C99.5847 14.5075 101.244 13.4969 101.907 13.6599C103.4 13.9859 103.511 15.7137 101.188 15.8115Z" fill="#FFF8AD"/>
<path d="M51.7 24.6789C51.7 24.7115 51.6447 24.8093 51.5341 24.8745C51.3683 24.8419 51.1471 24.7767 50.9259 24.7115C50.9259 24.6789 50.9812 24.6137 51.0365 24.5159C51.2577 24.5811 51.4235 24.6137 51.7 24.6789V24.6789Z" fill="#FFF8AD"/>
<path d="M60.4918 28.7542C60.4918 28.7868 60.4365 28.852 60.3812 28.9172C60.16 28.8846 59.9388 28.8194 59.7177 28.7542C59.7177 28.7216 59.7729 28.6564 59.8282 28.5586C60.0494 28.6238 60.2153 28.689 60.4918 28.7542Z" fill="#FFF8AD"/>
<path d="M69.007 33.8071C69.6152 33.6441 69.6152 33.6441 70.1681 33.8723C70.2234 33.7419 70.334 33.6441 70.4446 33.4811C70.7211 33.5463 70.887 33.6115 71.1081 33.6441C70.9422 33.7745 70.7211 33.8723 70.4999 33.9375C70.2234 33.9701 69.947 34.0027 69.6705 33.9701C69.5968 34.0353 69.5415 34.1114 69.5046 34.1983C69.4493 34.2635 69.394 34.3613 69.3387 34.3939C69.0623 34.9156 67.3481 35.2416 65.9658 35.046C63.0352 34.6222 64.0858 33.5463 65.6893 33.3507C66.7952 33.2203 68.067 34.2635 69.007 33.8071V33.8071Z" fill="#FFF8AD"/>
<path d="M60.8788 34.068C60.7682 34.1332 60.547 34.1658 60.4365 34.1984C58.5012 35.1112 54.2988 34.231 55.0729 32.6335C56.4 29.9929 63.9753 29.9276 60.8788 34.068Z" fill="#FFF8AD"/>
<path d="M53.0824 27.5479C53.0824 27.5153 53.1377 27.45 53.1929 27.3848C53.3588 27.3522 53.58 27.3197 53.6906 27.2545C53.8565 27.2545 54.0224 27.2219 54.1882 27.1567C54.2988 27.1567 54.52 27.124 54.6306 27.0588C54.7412 27.0914 54.9071 27.124 54.9624 27.124C55.1282 26.9284 56.5106 27.2871 56.3447 27.4827C56.4553 27.5153 56.6212 27.5479 56.6765 27.5479C56.7318 27.6783 56.8424 27.7761 56.8424 27.8413C56.9529 27.9391 57.0082 28.0369 57.0635 28.1021C57.1188 28.2325 57.2294 28.3303 57.2294 28.3629C57.34 28.4933 57.3953 28.5911 57.4506 28.6563C57.2294 28.9171 57.0082 29.1779 56.8424 29.4061C54.8518 30.3841 51.6447 29.4713 53.0824 27.5479V27.5479Z" fill="#FFF8AD"/>
<path d="M41.747 32.0792C41.8023 32.014 41.8576 31.9488 41.9129 31.8836C41.9129 31.851 42.0235 31.7532 42.0788 31.688C42.2447 31.5902 42.5211 31.4924 42.687 31.362C42.7976 31.2316 42.8529 31.1338 42.9635 30.9708C43.0741 30.8404 43.1847 30.7426 43.2953 30.5796C44.2906 30.8404 44.2906 30.8404 44.1247 31.036C44.4564 31.1012 44.18 31.4924 43.8482 31.3946C43.7376 31.5576 43.627 31.7206 43.5164 31.8184C43.5164 32.0466 43.5164 32.2748 43.4059 32.4704C43.3506 32.5682 43.2953 32.6334 43.2953 32.666C43.1478 32.8616 43.0004 33.0572 42.8529 33.2529C42.9635 33.2855 43.1294 33.3181 43.1847 33.3181C43.2953 33.3615 43.4243 33.3941 43.5717 33.4159C43.9035 33.5137 43.9035 33.5137 43.627 33.8723C43.0741 33.8397 42.5764 33.8071 42.0788 33.7419C41.9682 33.8723 41.9129 34.0027 41.8023 34.1005C41.6917 34.2635 41.5811 34.3613 41.5259 34.4917C38.0423 36.1544 35.7753 34.8177 37.2682 33.4159C37.8764 32.8942 40.6411 32.6008 41.747 32.0792V32.0792Z" fill="#FFF8AD"/>
<path fill-rule="evenodd" clip-rule="evenodd" d="M60.7129 7.27003C60.7682 7.20483 60.8235 7.13961 60.8788 7.07441C61.0447 7.04181 61.2106 7.00922 61.3765 6.94402C62.2059 6.91142 66.3529 5.60737 66.8506 5.34656C66.9059 5.31396 66.9612 5.24877 67.0165 5.15097C67.7353 5.15097 69.1729 4.69454 69.9471 4.53154C69.9471 4.49894 70.0024 4.40114 70.0576 4.33594C70.0024 4.14034 70.0024 4.14033 70.6659 4.04253C70.7765 3.91212 70.8318 3.81432 70.9977 3.65131C74.7577 4.14032 71.8824 3.97732 71.2188 4.85755C68.4541 6.94401 65.3576 6.22679 61.1 7.79164C61.0447 7.88944 60.9894 7.95463 60.9894 7.98723C60.7682 8.11764 60.5471 8.21545 60.3259 8.28065C60.16 8.41105 59.9388 8.50886 59.7729 8.57407C59.2753 8.37846 58.5012 8.28066 57.7824 8.24806C58.6671 8.11765 59.8282 7.46563 60.7129 7.27003V7.27003ZM72.2141 0.32601C72.1588 0.293409 72.3247 0.163005 72.6012 0H73.9835C73.9282 0.163005 73.8177 0.35861 73.5965 0.652019C75.5318 1.14103 74.1494 4.79234 71.3294 2.77108C70.8318 2.41247 73.0435 1.79307 72.5459 1.07585C72.5459 1.01065 72.6012 0.945432 72.6565 0.88023C72.5459 0.815028 72.4906 0.684636 72.4353 0.586833C72.38 0.521631 72.3247 0.423812 72.2141 0.32601V0.32601ZM59.6071 10.4323C59.7729 9.94329 60.2706 9.42168 60.16 8.93267C60.16 8.80226 59.9941 8.67187 59.7729 8.57407L57.7824 8.24806C57.0635 8.18285 56.4 8.18285 56.0682 8.18285C54.52 8.08505 50.6494 7.10701 50.9812 6.68319C50.8706 6.68319 50.76 6.65061 50.6494 6.61801C49.82 6.1616 49.1012 6.06378 48.8247 5.44436C48.4929 5.35743 48.1612 5.2705 47.8294 5.18356C48.1059 6.87881 46.5576 6.61799 44.6224 6.68319C44.4565 6.7484 44.2906 6.78101 44.1247 6.78101C44.0694 6.78101 43.9588 6.74841 43.7929 6.71581C39.2035 8.93267 32.3471 8.31324 36.2729 14.0184C36.2177 14.0836 36.1624 14.1488 36.1071 14.214C36.0518 14.2792 35.9965 14.3444 35.9965 14.377C36.0518 14.5074 36.1624 14.6052 36.2176 14.6704C36.1071 14.8334 36.0518 14.9312 35.9412 15.0616C35.8859 15.1268 35.8306 15.2247 35.8306 15.2573C35.72 15.3877 35.6094 15.5181 35.5541 15.6159C35.6094 15.7463 35.6647 15.8441 35.72 15.9093C35.8306 15.9419 35.9965 15.9745 36.0518 15.9745C35.9412 16.1375 35.8306 16.2353 35.7753 16.3657C36.0518 16.4309 36.2177 16.4961 36.4388 16.5287C36.5494 16.5613 36.66 16.5939 36.7706 16.6265C36.8812 16.6591 36.9918 16.6917 37.1024 16.6917C37.2129 16.7243 37.3235 16.7569 37.4341 16.7895C37.4894 16.8873 37.5447 16.9851 37.6 17.0503C37.7106 17.0829 37.8765 17.1155 37.9318 17.1481C37.9871 17.2459 38.0977 17.3437 38.0977 17.4089C38.2635 17.4415 38.3741 17.4741 38.4294 17.4741C38.54 17.6045 38.5953 17.7023 38.6506 17.7675C38.54 17.8979 38.3741 18.0609 38.3188 18.1913C38.5953 18.2565 38.7612 18.2891 38.9824 18.3544C39.0929 18.387 39.2588 18.4195 39.3141 18.4195C39.2588 18.5173 39.2035 18.5826 39.1482 18.6152C39.2588 18.713 39.3141 18.8434 39.3694 18.876C39.4247 19.0064 39.48 19.1042 39.5353 19.1694C39.5906 19.2672 39.7012 19.3976 39.8118 19.4628C39.7565 19.528 39.7012 19.5932 39.6459 19.6584C39.7012 19.7562 39.8118 19.854 39.8118 19.9192C39.9224 20.017 39.9777 20.1474 40.0329 20.18C41.0835 21.7448 41.8024 21.9078 43.8482 22.9511C44.2906 23.0597 44.7514 23.1793 45.2306 23.3097C45.3412 23.3423 45.5071 23.3749 45.5624 23.3749C45.6177 23.4727 45.6729 23.6031 45.7282 23.6357C45.8941 23.6683 46.0047 23.7009 46.06 23.7335C46.1153 23.8313 46.2259 23.9617 46.2812 23.9943C46.3918 24.0269 46.5024 24.0595 46.5576 24.0921C46.6129 24.2877 46.6129 24.4507 46.6129 24.5811C46.5576 24.6789 46.5024 24.7441 46.4471 24.7767C46.7235 25.1353 46.5024 25.2657 46.2259 25.6244C46.2812 25.7222 46.3365 25.8526 46.3918 25.8852C45.2859 27.3848 41.5812 26.7002 41.6918 29.0475C41.8024 30.7753 45.2306 30.1233 47.7741 26.7002C47.7741 26.6676 47.8294 26.5698 47.8847 26.5046C47.8847 26.4394 47.7741 26.3416 47.7188 26.2438C47.7741 26.1786 47.8294 26.1134 47.8847 26.0482C47.8294 25.983 47.7741 25.8852 47.6635 25.7548C47.6635 25.7222 47.5529 25.5918 47.4977 25.4939C48.3824 24.2877 49.5435 22.0382 52.5847 22.0056C55.9024 22.0056 59.8282 23.3423 58.4459 25.2331C58.1694 25.2657 57.8929 25.2983 57.6165 25.2657C57.5059 25.3309 57.2847 25.3636 57.1741 25.3636C57.1188 25.4614 57.0635 25.5266 57.0082 25.5592C57.0635 25.657 57.1741 25.7874 57.1741 25.82C57.4506 25.8852 57.6718 25.9504 57.8376 26.0156C58.0035 25.983 58.2247 25.9504 58.3353 25.8852C58.3353 25.8526 58.3906 25.7874 58.5012 25.6896C58.6118 25.7222 58.7224 25.7548 58.7776 25.7874C58.6118 26.0482 58.3906 26.309 58.2247 26.5372C58.1141 26.6024 57.8929 26.635 57.7824 26.6676C57.6718 26.7328 57.6165 26.798 57.6165 26.8306C57.6718 26.961 57.7824 27.0588 57.7824 27.1566C57.8929 27.1892 58.0588 27.2218 58.1141 27.2218C58.1694 27.3522 58.28 27.45 58.28 27.5152C58.3906 27.613 58.4459 27.7434 58.5012 27.776C58.6118 27.8086 58.7224 27.8412 58.8329 27.8738C58.6671 28.0694 60.3259 28.4606 60.4365 28.265C60.6024 28.265 60.8235 28.2324 60.9341 28.1672C61.1 28.1672 61.2659 28.1346 61.4318 28.0694C62.6482 28.3628 62.4824 27.5478 63.3118 28.754C65.8553 29.4061 66.8506 29.2431 69.2835 29.3083C69.3941 29.3409 69.5047 29.3735 69.6153 29.3735C69.7259 29.4061 69.8365 29.4387 69.9471 29.4713C72.9882 30.2211 75.0341 29.1453 76.9141 29.6343C77.08 29.6343 77.3012 29.5691 77.4118 29.5365C77.7435 29.6017 78.0753 29.6777 78.4071 29.7647C78.4624 29.8951 78.5729 29.9929 78.5729 30.0581C78.7388 30.0907 78.8494 30.1233 78.9047 30.1233C79.1812 30.1885 79.4024 30.2537 79.5682 30.2863C79.6788 30.4167 79.7341 30.5145 79.7894 30.5797C81.8353 31.5577 82.9965 30.2537 85.8165 30.9383C85.9824 30.9383 86.2035 30.9057 86.3141 30.8405C86.4247 30.8731 86.5906 30.9057 86.6459 30.9383C87.6965 31.1991 88.6918 30.7753 89.4659 30.9383C89.6318 30.9057 89.7976 30.8731 89.9635 30.8079C90.24 30.8405 90.4612 30.8079 90.7376 30.7753C92.3412 30.7101 94.4424 27.7108 93.9447 27.0262C94 26.961 94.0553 26.8958 94.1106 26.8306C94.0553 26.7654 94 26.6676 93.9447 26.5372C93.3365 25.6896 92.6177 25.1353 92.0094 24.2551C91.8435 24.1899 91.7329 24.0595 91.5118 23.9291C91.4565 23.8965 91.2906 23.8639 91.18 23.8313C91.1247 23.7987 90.9588 23.7661 90.8482 23.7335C90.7929 23.7009 90.7377 23.5705 90.6824 23.4727L90.8482 23.2445V23.2119V23.1793H90.9035V23.1467V23.1141H90.9588V23.0815C91.2353 23.1467 91.4012 23.2119 91.6224 23.2445C91.7882 23.4075 91.9541 23.5379 92.12 23.6031C92.12 23.4727 92.12 23.3097 92.12 23.1141C92.0094 23.1793 91.7882 23.2119 91.6224 23.2445C91.6592 23.1793 91.7145 23.1032 91.7882 23.0163C91.8988 23.0489 92.0647 23.0815 92.12 23.1141C92.0647 23.0489 92.0094 22.9511 91.8988 22.8533C91.8435 22.8207 91.7329 22.7881 91.5671 22.7555C91.5671 22.6903 91.4565 22.5925 91.4012 22.4947C91.5118 22.3643 91.5671 22.2665 91.6776 22.1035C91.7882 22.0057 91.8435 21.8753 91.9541 21.7122C91.2906 21.5492 91.2906 21.5492 91.18 21.7448C91.1247 21.7448 90.9588 21.7122 90.8482 21.6796C90.7929 21.647 90.6271 21.6144 90.5165 21.5818C90.4612 21.5166 90.4059 21.4188 90.3506 21.321C90.3506 21.2884 90.4059 21.1906 90.4612 21.1254C91.1247 20.2778 90.9588 20.506 92.1753 20.2452C91.0141 18.7456 88.5259 18.1913 86.0376 17.9631C84.7659 17.8327 79.6235 18.1261 80.5635 16.8547C80.8953 16.9199 81.2271 16.5613 81.8906 16.4961C81.4482 16.3983 81.0612 16.3005 80.7294 16.1375C80.6741 16.1049 80.6188 15.9745 80.5082 15.8767C80.5082 15.8115 80.3976 15.7137 80.3424 15.6159C80.5635 15.2899 80.7847 14.9964 81.0612 14.6704C81.6141 14.6704 81.6141 14.6704 82.1671 14.2466C81.9459 14.214 81.7247 14.1488 81.5035 14.0836C81.3929 14.2466 81.2824 14.3444 81.1718 14.4748C78.9047 13.888 79.5129 13.6598 78.6835 12.4862C78.6282 12.421 78.5729 12.3232 78.5176 12.1928C78.6282 11.932 78.6835 11.6385 78.7941 11.3125C79.1259 11.4103 79.4024 11.0191 79.0706 10.9539C79.0153 10.8887 78.96 10.7909 78.8494 10.6605C78.7941 10.6605 78.6835 10.6279 78.5176 10.5953C78.4071 10.7909 78.278 10.9757 78.1306 11.1495C77.9094 11.3777 77.7988 11.5733 77.6329 11.769C77.4671 11.7038 77.2459 11.6712 76.9694 11.606C76.5824 12.1602 76.5824 12.1602 76.9141 12.258C76.8588 12.3232 76.7482 12.421 76.7482 12.4536C76.6929 12.5188 76.6376 12.6166 76.5824 12.6492C75.2553 13.2686 70.0577 13.3012 68.7859 12.4862C68.7306 12.4862 68.62 12.4536 68.4541 12.421C68.2882 12.3232 68.1224 12.1928 67.9565 12.0624C67.7906 11.8667 67.6247 11.6386 67.5694 11.5082C67.2929 11.1495 67.0718 10.8887 66.6294 10.5953C66.4082 10.5301 66.1871 10.4975 65.9659 10.4323C65.6894 10.4649 65.4129 10.4975 65.1365 10.4649C64.9153 10.7257 65.1918 10.9213 65.3576 11.1821C65.4682 11.3125 65.5235 11.4103 65.5788 11.4755C65.6894 11.5081 65.8 11.5407 65.9106 11.5407C66.0212 11.5733 66.1318 11.6059 66.2424 11.6385C66.6294 11.8341 67.0165 11.9972 67.4588 12.1602C67.5694 12.2906 67.6247 12.3884 67.6247 12.4536C70.5553 14.1488 67.7906 14.54 64.6388 13.7576C63.3118 13.4316 62.3718 12.4862 61.8741 11.7037C61.7635 11.7037 61.6529 11.6711 61.5424 11.6385C61.4871 11.5407 61.4318 11.4429 61.3765 11.3125C61.3212 11.3125 61.1553 11.2799 61.0447 11.2473C60.9894 11.2147 60.8235 11.1821 60.7129 11.1495C60.6576 11.0843 60.6024 10.9865 60.4918 10.8887C60.3812 10.8453 60.2522 10.8127 60.1047 10.7909C60.0494 10.7583 59.9388 10.7257 59.7729 10.6931C59.7176 10.6279 59.6624 10.5301 59.6071 10.4323V10.4323Z" fill="#FFF8AD"/>
<path d="M179.042 35.4697L143.378 21.4187L124.191 28.5257L68.2882 13.4966L68.3988 13.2358L122.974 24.1572L140.226 16.5937L193.861 26.1784V35.4697H179.042Z" fill="#E7592A"/>
<path d="M179.042 35.4698L143.544 21.4514L124.356 28.5584L68.4541 13.562L68.5647 13.3338C68.6016 13.312 68.62 13.2903 68.62 13.2686L68.8965 13.3338L124.025 27.0914L143.765 20.0495L193.529 35.4698H179.042Z" fill="#D2222E"/>
<path d="M152.335 33.1877L154.215 35.4698H151.616L152.335 33.1877Z" fill="#EC1C24"/>
</svg>
