<svg width="375" height="818" viewBox="0 0 375 818" fill="none" xmlns="http://www.w3.org/2000/svg">
<rect x="23.9857" y="611.827" width="354.535" height="153.809" rx="15" transform="rotate(8.74518 23.9857 611.827)" fill="#D9D9D9"/>
<path d="M32.6602 213.762L32.6602 67.65L207.722 77.8585L207.722 233.207L32.6602 213.762Z" fill="#5A4747" stroke="#371F1F" stroke-width="5"/>
<path d="M13.5005 22.5L222 34.5L285 13.5V711.5L222 765.5C124.974 757.21 73.6976 751.096 13.5005 725.5V22.5Z" fill="#E2D66A"/>
<path d="M222 34.5L13.5005 22.5V725.5C73.6976 751.096 124.974 757.21 222 765.5M222 34.5V765.5M222 34.5L285 13.5V711.5L222 765.5" stroke="black" stroke-width="5"/>
<path d="M22.0005 423.5C84.1986 442.818 125.219 448.903 206.5 453.5M22.0005 453.5C84.1986 472.818 125.219 478.903 206.5 483.5M22.0005 479C84.1986 498.318 125.219 504.403 206.5 509M22.0005 509C84.1986 528.318 125.219 534.403 206.5 539M22.0005 532.5C84.1986 551.818 125.219 557.903 206.5 562.5M22.0005 562.5C84.1986 581.818 125.219 587.903 206.5 592.5M22.0005 592.5C84.1986 611.818 125.219 617.903 206.5 622.5M22.0005 622.5C84.1986 641.818 125.219 647.903 206.5 652.5M22.0005 647C84.1986 666.318 125.219 672.403 206.5 677M22.0005 673.5C84.1986 692.818 125.219 698.903 206.5 703.5M15.5005 694.5C80.6463 716.202 128.417 723.249 222 732L284.5 683" stroke="#220505" stroke-width="10"/>
<path d="M35.5 218.367L35.5 67.7157L202.5 81.5514L202.5 233.267L35.5 218.367Z" fill="#7B5E5E" stroke="black" stroke-width="5"/>
<rect x="36.8122" y="87.189" width="165.617" height="5.65691" transform="rotate(4.72675 36.8122 87.189)" fill="#D9D9D9" fill-opacity="0.39" stroke="#371F1F" stroke-width="5"/>
<rect x="37.7516" y="110.744" width="164.643" height="5.65691" transform="rotate(4.72675 37.7516 110.744)" fill="#D9D9D9" fill-opacity="0.39" stroke="#371F1F" stroke-width="5"/>
<rect x="36.9716" y="136.676" width="164.964" height="5.65691" transform="rotate(4.72675 36.9716 136.676)" fill="#D9D9D9" fill-opacity="0.39" stroke="#371F1F" stroke-width="5"/>
<path d="M40.0548 164.427L200.179 177.667L199.713 183.305L39.5886 170.065L40.0548 164.427Z" fill="#D9D9D9" fill-opacity="0.39" stroke="#371F1F" stroke-width="5"/>
<rect x="38.6729" y="187.053" width="163.774" height="5.65691" transform="rotate(4.72675 38.6729 187.053)" fill="#D9D9D9" fill-opacity="0.39" stroke="#371F1F" stroke-width="5"/>
<path d="M177.432 292.234C176.998 297.114 172.069 302.667 160.943 306.734C150.227 310.651 135.389 312.48 119.037 311.025C102.685 309.57 88.4029 305.151 78.5466 299.404C68.3134 293.437 64.4424 287.101 64.8765 282.221C65.3107 277.341 70.2393 271.788 81.3652 267.721C92.0812 263.804 106.92 261.975 123.271 263.43C139.623 264.885 153.906 269.304 163.762 275.051C173.995 281.018 177.866 287.354 177.432 292.234Z" fill="#D9D9D9" fill-opacity="0.33" stroke="#0C5F5F" stroke-width="10"/>
<path d="M15.0071 19.2659L59.1739 1.50807L282.087 10.7758L220.865 31.4902L15.0071 19.2659Z" fill="#E1DCE7" stroke="black" stroke-width="2"/>
<path d="M227.158 738L280.762 695L280.762 707.5L227.158 755L227.158 738Z" fill="#878787" fill-opacity="0.86"/>
<path d="M18 700.5C95.0214 725.078 131.5 730 216 737.5V762C120.808 753.497 81.4305 747.957 18 725V700.5Z" fill="#D9D9D9"/>
<path d="M232 41L276 23V680L232 710.5V41Z" fill="#0F0E0E" fill-opacity="0.25"/>
</svg>
