<svg width="383" height="807" viewBox="0 0 383 807" fill="none" xmlns="http://www.w3.org/2000/svg">
<path d="M287 654C303.763 654 307.911 701 380 701" stroke="#6C2323" stroke-width="10"/>
<path d="M15 635.479C15 626.639 22.6058 619.716 31.4068 620.546L367.574 652.213C375.828 652.991 381.886 660.317 381.1 668.57L369.409 791.29C368.604 799.736 360.962 805.834 352.549 804.743L28.0722 762.694C20.5957 761.725 15 755.357 15 747.818L15 635.479Z" fill="#0B0A0A" fill-opacity="0.17"/>
<path d="M33.6602 213.762L33.6602 67.65L208.722 77.8585L208.722 233.207L33.6602 213.762Z" fill="#5A4747" stroke="#371F1F" stroke-width="5"/>
<path d="M14.5005 22.5L223 34.5L286 13.5V711.5L223 765.5C125.974 757.21 74.6976 751.096 14.5005 725.5V22.5Z" fill="#E2D66A"/>
<path d="M223 34.5L14.5005 22.5V725.5C74.6976 751.096 125.974 757.21 223 765.5M223 34.5V765.5M223 34.5L286 13.5V711.5L223 765.5" stroke="black" stroke-width="5"/>
<path d="M23.0005 423.5C85.1986 442.818 126.219 448.903 207.5 453.5M23.0005 453.5C85.1986 472.818 126.219 478.903 207.5 483.5M23.0005 479C85.1986 498.318 126.219 504.403 207.5 509M23.0005 509C85.1986 528.318 126.219 534.403 207.5 539M23.0005 532.5C85.1986 551.818 126.219 557.903 207.5 562.5M23.0005 562.5C85.1986 581.818 126.219 587.903 207.5 592.5M23.0005 592.5C85.1986 611.818 126.219 617.903 207.5 622.5M23.0005 622.5C85.1986 641.818 126.219 647.903 207.5 652.5M23.0005 647C85.1986 666.318 126.219 672.403 207.5 677M23.0005 673.5C85.1986 692.818 126.219 698.903 207.5 703.5M16.5005 694.5C81.6463 716.202 129.417 723.249 223 732L285.5 683" stroke="#220505" stroke-width="10"/>
<path d="M36.5 218.367L36.5 67.7157L203.5 81.5514L203.5 233.267L36.5 218.367Z" fill="#7B5E5E" stroke="black" stroke-width="5"/>
<rect x="37.8122" y="87.189" width="165.617" height="5.65691" transform="rotate(4.72675 37.8122 87.189)" fill="#D9D9D9" fill-opacity="0.39" stroke="#371F1F" stroke-width="5"/>
<rect x="38.7516" y="110.744" width="164.643" height="5.65691" transform="rotate(4.72675 38.7516 110.744)" fill="#D9D9D9" fill-opacity="0.39" stroke="#371F1F" stroke-width="5"/>
<rect x="37.9716" y="136.676" width="164.964" height="5.65691" transform="rotate(4.72675 37.9716 136.676)" fill="#D9D9D9" fill-opacity="0.39" stroke="#371F1F" stroke-width="5"/>
<path d="M41.0548 164.427L201.179 177.667L200.713 183.305L40.5886 170.065L41.0548 164.427Z" fill="#D9D9D9" fill-opacity="0.39" stroke="#371F1F" stroke-width="5"/>
<rect x="39.6729" y="187.053" width="163.774" height="5.65691" transform="rotate(4.72675 39.6729 187.053)" fill="#D9D9D9" fill-opacity="0.39" stroke="#371F1F" stroke-width="5"/>
<path d="M178.432 292.234C177.998 297.114 173.069 302.667 161.943 306.734C151.227 310.651 136.389 312.48 120.037 311.025C103.685 309.57 89.4029 305.151 79.5466 299.404C69.3134 293.437 65.4424 287.101 65.8765 282.221C66.3107 277.341 71.2393 271.788 82.3652 267.721C93.0812 263.804 107.92 261.975 124.271 263.43C140.623 264.885 154.906 269.304 164.762 275.051C174.995 281.018 178.866 287.354 178.432 292.234Z" fill="#D9D9D9" fill-opacity="0.33" stroke="#0C5F5F" stroke-width="10"/>
<path d="M16.0071 19.2659L60.1739 1.50807L283.087 10.7758L221.865 31.4902L16.0071 19.2659Z" fill="#E1DCE7" stroke="black" stroke-width="2"/>
<path d="M228.158 738L281.762 695L281.762 707.5L228.158 755L228.158 738Z" fill="#878787" fill-opacity="0.86"/>
<path d="M19 700.5C96.0214 725.078 132.5 730 217 737.5V762C121.808 753.497 82.4305 747.957 19 725V700.5Z" fill="#D9D9D9"/>
<path d="M233 41L277 23V680L233 710.5V41Z" fill="#0F0E0E" fill-opacity="0.25"/>
</svg>
