<svg width="94" height="110" viewBox="0 0 94 110" fill="none" xmlns="http://www.w3.org/2000/svg">
<path d="M90.3162 109.344H3.24122C1.45636 109.344 0 107.946 0 106.233V58.1248C0 35.1902 19.5568 16.4179 43.4499 16.4179H50.1075C74.0006 16.4179 93.5574 35.1902 93.5574 58.1248V106.233C93.5574 107.946 92.101 109.344 90.3162 109.344Z" fill="#FFD908"/>
<path d="M75.4021 32.3523C75.4021 35.1061 74.3947 37.6392 72.7632 39.5522C72.661 39.6713 72.5843 39.8044 72.5332 39.9516C72.4748 40.1128 72.4128 40.2704 72.3471 40.4246C71.6572 42.2009 70.7155 43.8826 69.5548 45.4172C68.9306 46.2791 68.2298 47.0884 67.4633 47.8557C64.2221 51.1561 59.9078 53.6261 55.0022 54.8559C54.4035 55.0101 53.7976 55.1432 53.1844 55.2553C51.4434 55.5706 49.6476 55.7388 47.808 55.7388C46.3078 55.7388 44.8514 55.6337 43.417 55.4235C37.1426 54.488 31.6347 51.5765 27.7584 47.4563C26.094 45.6905 24.7362 43.6934 23.7397 41.5282C23.6229 41.29 23.5134 41.0447 23.4112 40.7925C23.3455 40.6243 23.236 40.4771 23.1046 40.351C21.035 38.3644 19.721 35.5055 19.721 32.3523C19.721 29.3672 20.8927 26.6449 22.7761 24.6794C22.9513 24.4972 23.1302 24.322 23.3127 24.1538C25.1413 22.4931 27.5284 21.4841 30.1346 21.4841H64.9886C66.3464 21.4841 67.6385 21.7679 68.8321 22.2619C70.2447 22.8505 71.5039 23.7544 72.5332 24.9001C72.7157 25.0893 72.8873 25.289 73.0479 25.4992C74.5152 27.3701 75.4021 29.7561 75.4021 32.3523V32.3523Z" fill="#FFE608" fill-opacity="0.92"/>
<path d="M36.4089 21.4841L43.417 55.4235C37.3945 54.7928 31.6347 51.5765 27.7584 47.4563C23.1922 35.6001 26.9919 25.4572 32.226 21.4841H36.4089Z" fill="#FFE608" fill-opacity="0.92"/>
<path d="M72.5332 24.9001C76.0591 30.6916 73.4202 38.1437 69.5548 45.4172C68.9306 46.2791 68.2298 47.0884 67.4633 47.8557C64.2221 51.1561 59.9078 53.6261 55.0021 54.8559C58.3529 45.9427 63.8388 29.8927 61.7145 21.4841H64.9886C66.6421 21.4841 67.1348 21.4841 68.8321 22.2619C70.9454 23.2289 71.6024 23.3865 72.5332 24.9001Z" fill="#FFE608" fill-opacity="0.92"/>
<path d="M75.4021 30.5549C75.4021 33.3088 74.3947 35.8313 72.7632 37.7548C72.661 37.8739 72.5843 38.0071 72.5332 38.1542C72.4748 38.3154 72.4128 38.4731 72.3471 38.6272C71.6572 40.4035 70.7155 42.0748 69.5548 43.6198C68.9306 44.4817 68.2298 45.2911 67.4633 46.0584C64.2221 49.3588 59.9078 51.8288 55.0022 53.0586C54.4035 53.2127 53.7976 53.3459 53.1844 53.458C51.4434 53.7733 49.6476 53.9415 47.808 53.9415C46.3078 53.9415 44.8514 53.8364 43.417 53.6261C37.1426 52.6907 31.6347 49.7792 27.7584 45.6589C26.094 43.8826 24.7362 41.8961 23.7397 39.7308C23.6229 39.4856 23.5134 39.2403 23.4112 38.9951C23.3455 38.8269 23.236 38.6798 23.1046 38.5536C21.035 36.5671 19.721 33.7082 19.721 30.5549C19.721 27.5698 20.8927 24.8475 22.7761 22.882C22.9513 22.6998 23.1302 22.5247 23.3127 22.3565C25.1413 20.6958 27.5284 19.6867 30.1346 19.6867H64.9886C66.3464 19.6867 67.6385 19.96 68.8321 20.4645C70.2447 21.0531 71.5039 21.9571 72.5332 23.0922C72.7157 23.2884 72.8873 23.4916 73.0479 23.7019C74.5152 25.5728 75.4021 27.9587 75.4021 30.5549V30.5549Z" fill="white"/>
<path d="M36.4089 19.6867L43.417 53.6261C37.3945 52.9955 31.6347 49.7792 27.7584 45.6589C23.1922 33.8028 26.9919 23.6598 32.226 19.6867H36.4089Z" fill="#FF2D08"/>
<path d="M72.5332 23.0922C76.0591 28.8837 73.4202 36.3464 69.5548 43.6198C68.9306 44.4817 68.2298 45.2911 67.4633 46.0584C64.2221 49.3588 59.9078 51.8288 55.0021 53.0586C58.3529 44.1349 63.8388 28.0954 61.7145 19.6867H64.9886C66.6421 19.6867 67.1348 19.6867 68.8321 20.4645C70.9454 21.4315 71.6024 21.5892 72.5332 23.0922Z" fill="#FF2D08"/>
<g opacity="0.9">
<path d="M72.0843 23.8911C72.0843 26.1194 71.2192 28.1585 69.7957 29.7036C69.7008 29.8017 69.6314 29.9068 69.5876 30.0189C69.5365 30.152 69.4854 30.2816 69.4343 30.4078C68.8321 31.8372 68.0108 33.1931 67.0034 34.4334C66.4559 35.1271 65.8427 35.7788 65.1857 36.3989C62.3606 39.0582 58.6047 41.0447 54.3232 42.0432C53.8049 42.1624 53.2793 42.2675 52.7464 42.3586C51.2353 42.6213 49.6695 42.758 48.0598 42.758C46.7567 42.758 45.4865 42.6634 44.2492 42.4952C38.7742 41.7384 33.978 39.3945 30.6054 36.0731C29.16 34.6436 27.9664 33.0355 27.1014 31.3012C27.0065 31.105 26.9116 30.9053 26.8167 30.7021C26.7619 30.5654 26.6634 30.4498 26.5539 30.3447C24.7471 28.7366 23.6083 26.4452 23.6083 23.8911C23.6083 21.4841 24.6267 19.2978 26.2692 17.7107C26.4225 17.5636 26.5794 17.4234 26.74 17.2903C28.3278 15.9449 30.4083 15.1356 32.675 15.1356H63.0286C64.2002 15.1356 65.339 15.3563 66.3683 15.7557C67.6057 16.2392 68.7007 16.9645 69.5986 17.8789C69.7519 18.0401 69.8979 18.2012 70.0366 18.3624C71.3178 19.8759 72.0843 21.7994 72.0843 23.8911V23.8911Z" fill="#DD230A"/>
<path d="M38.139 15.1356L44.2492 42.4952C39.0041 41.9907 33.978 39.3945 30.6054 36.0731C26.6305 26.5188 29.9374 18.3308 34.4927 15.1356H38.139Z" fill="#DD230A"/>
<path d="M69.5986 17.8789C72.6646 22.5562 70.3651 28.5579 67.0034 34.4334C66.4559 35.1271 65.8427 35.7788 65.1857 36.3989C62.3606 39.0582 58.6047 41.0447 54.3232 42.0432C57.2469 34.8538 62.0211 21.915 60.1706 15.1356H63.0285C64.463 15.1356 64.901 15.1356 66.3683 15.7557C68.2079 16.5335 68.7773 16.6701 69.5986 17.8789V17.8789Z" fill="#DD230A"/>
</g>
<path d="M72.0843 22.346C72.0843 24.4902 71.2192 26.4557 69.7957 27.9482C69.7008 28.0393 69.6314 28.1444 69.5876 28.2636C69.5365 28.3827 69.4854 28.5053 69.4343 28.6314C68.8321 30.0084 68.0108 31.3117 67.0034 32.5204C66.4559 33.1826 65.8427 33.8133 65.1857 34.4124C62.3606 36.977 58.6047 38.9005 54.3232 39.857C53.8049 39.9761 53.2793 40.0777 52.7464 40.1618C51.2353 40.4141 49.6695 40.5507 48.0598 40.5507C46.7567 40.5507 45.4865 40.4561 44.2492 40.2984C38.7742 39.5627 33.978 37.3029 30.6054 34.0971C29.16 32.7202 27.9664 31.1646 27.1014 29.4933C27.0065 29.2971 26.9116 29.1044 26.8167 28.9152C26.7619 28.7891 26.6634 28.663 26.5539 28.5684C24.7471 27.0233 23.6083 24.8055 23.6083 22.346C23.6083 20.0231 24.6267 17.9104 26.2692 16.3758C26.4225 16.2357 26.5794 16.0991 26.74 15.9659C28.3278 14.6731 30.4083 13.8953 32.675 13.8953H63.0286C64.2002 13.8953 65.339 14.1055 66.3683 14.4944C67.6057 14.9569 68.7007 15.6611 69.5986 16.544C69.7519 16.6912 69.8979 16.8453 70.0366 17.0065C71.3178 18.4675 72.0843 20.3279 72.0843 22.346V22.346Z" fill="#FF2D08"/>
<path d="M38.139 13.8953L44.2492 40.2984C39.0041 39.8044 33.978 37.3029 30.6054 34.0971C26.6305 24.8791 29.9374 16.975 34.4927 13.8953H38.139Z" fill="white"/>
<path d="M69.5986 16.544C72.6646 21.0532 70.3651 26.8446 67.0034 32.5204C66.4559 33.1826 65.8427 33.8133 65.1857 34.4124C62.3606 36.977 58.6047 38.9005 54.3232 39.857C57.2469 32.9199 62.0211 20.433 60.1706 13.8953H63.0285C64.463 13.8953 64.901 13.8953 66.3683 14.4944C68.2079 15.2407 68.7773 15.3773 69.5986 16.544Z" fill="white"/>
<path d="M47.5561 27.8431C43.625 27.8431 40.4057 24.753 40.4057 20.9796V6.86356C40.4057 3.09018 43.625 0 47.5561 0C51.4872 0 54.7065 3.09018 54.7065 6.86356V20.9796C54.7065 24.753 51.4872 27.8431 47.5561 27.8431Z" fill="#F9B373"/>
</svg>
