<svg version="1.2" xmlns="http://www.w3.org/2000/svg" viewBox="0 0 94 110" width="94" height="110">
	<title>body-svg</title>
	<defs>
		<linearGradient id="g1" x1="17" y1="80.1" x2="24.1" y2="79.9" gradientUnits="userSpaceOnUse">
			<stop offset="0" stop-color="#060708"/>
			<stop offset="1" stop-color="#ffd908"/>
		</linearGradient>
		<linearGradient id="g2" x1="72.9" y1="79.9" x2="77.5" y2="79.8" gradientUnits="userSpaceOnUse">
			<stop offset="0" stop-color="#060708"/>
			<stop offset="1" stop-color="#ffd908"/>
		</linearGradient>
	</defs>
	<style>
		.s0 { fill: #ffd908 } 
		.s1 { opacity: .9;fill: #ffe608 } 
		.s2 { fill: url(#g1) } 
		.s3 { fill: url(#g2) } 
		.s4 { fill: #ffffff } 
		.s5 { fill: #ff2d08 } 
		.s6 { fill: #dd230a } 
		.s7 { fill: #f9b373 } 
	</style>
	<path id="Layer" class="s0" d="m90.3 109.3h-87.1c-1.7 0-3.2-1.4-3.2-3.1v-48.1c0-22.9 19.6-41.7 43.4-41.7h6.7c23.9 0 43.5 18.8 43.5 41.7v48.1c0 1.7-1.5 3.1-3.3 3.1z"/>
	<path id="Layer" class="s1" d="m75.4 32.4c0 2.7-1 5.2-2.6 7.2q-0.2 0.1-0.3 0.4-0.1 0.2-0.2 0.4-1 2.7-2.7 5-1 1.3-2.1 2.5c-3.3 3.3-7.6 5.7-12.5 7q-0.9 0.2-1.8 0.4-2.6 0.4-5.4 0.4-2.2 0-4.4-0.3c-6.3-0.9-11.8-3.8-15.6-7.9-1.7-1.8-3.1-3.8-4.1-6q-0.1-0.3-0.3-0.7-0.1-0.3-0.3-0.4c-2.1-2-3.4-4.9-3.4-8 0-3 1.2-5.8 3.1-7.7q0.2-0.3 0.5-0.5c1.8-1.7 4.2-2.7 6.8-2.7h34.9c1.3 0 2.6 0.3 3.8 0.8 1.4 0.6 2.7 1.5 3.7 2.6q0.3 0.3 0.5 0.6c1.5 1.9 2.4 4.3 2.4 6.9z"/>
	<path id="Layer 1" class="s2" d="m20.8 112.3c-1 0.2-3.2-12.4-3.2-12.4 0 0-0.7-2.4-0.6-4.8 1.5-23.7 5.7-45 7.1-47.4"/>
	<path id="Layer 1 copy" class="s3" d="m72.9 47.4c0.9-0.3 3.8 12.2 3.8 12.2 0 0 0.9 2.4 0.8 4.8-0.2 23.9-3.4 45.4-4.6 47.9"/>
	<path id="Layer" class="s1" d="m36.4 21.5l7 33.9c-6-0.6-11.8-3.8-15.6-7.9-4.6-11.9-0.8-22 4.4-26z"/>
	<path id="Layer" class="s1" d="m72.5 24.9c3.6 5.8 0.9 13.2-2.9 20.5q-1 1.3-2.1 2.5c-3.3 3.3-7.6 5.7-12.5 7 3.4-9 8.8-25 6.7-33.4h3.3c1.6 0 2.1 0 3.8 0.8 2.1 0.9 2.8 1.1 3.7 2.6z"/>
	<path id="Layer" class="s4" d="m75.4 30.6c0 2.7-1 5.2-2.6 7.2q-0.2 0.1-0.3 0.4-0.1 0.2-0.2 0.4-1 2.7-2.7 5-1 1.3-2.1 2.5c-3.3 3.3-7.6 5.7-12.5 7q-0.9 0.2-1.8 0.4-2.6 0.4-5.4 0.4-2.2 0-4.4-0.3c-6.3-0.9-11.8-3.8-15.6-7.9q-2.6-2.7-4.1-6-0.1-0.3-0.3-0.7-0.1-0.3-0.3-0.4c-2.1-2-3.4-4.9-3.4-8 0-3 1.2-5.8 3.1-7.7q0.2-0.3 0.5-0.5c1.8-1.7 4.2-2.7 6.8-2.7h34.9q2 0 3.8 0.8c1.4 0.6 2.7 1.5 3.7 2.6q0.3 0.3 0.5 0.6c1.5 1.9 2.4 4.3 2.4 6.9z"/>
	<path id="Layer" class="s5" d="m36.4 19.7l7 33.9c-6-0.6-11.8-3.8-15.6-7.9-4.6-11.9-0.8-22 4.4-26z"/>
	<path id="Layer" class="s5" d="m72.5 23.1c3.6 5.8 0.9 13.2-2.9 20.5q-1 1.3-2.1 2.5c-3.3 3.3-7.6 5.7-12.5 7 3.4-9 8.8-25 6.7-33.4h3.3c1.6 0 2.1 0 3.8 0.8 2.1 0.9 2.8 1.1 3.7 2.6z"/>
	<g id="Layer" style="opacity: .9">
		<path id="Layer" class="s6" d="m72.1 23.9c0 2.2-0.9 4.3-2.3 5.8q-0.1 0.2-0.2 0.3-0.1 0.2-0.2 0.4-0.9 2.2-2.4 4-0.8 1.1-1.8 2c-2.8 2.7-6.6 4.6-10.9 5.6q-0.8 0.2-1.6 0.4-2.2 0.4-4.6 0.4-2 0-3.9-0.3c-5.4-0.8-10.2-3.1-13.6-6.4-1.4-1.5-2.6-3.1-3.5-4.8q-0.1-0.3-0.3-0.6-0.1-0.2-0.2-0.4c-1.9-1.6-3-3.9-3-6.4 0-2.4 1-4.6 2.7-6.2q0.2-0.2 0.4-0.4c1.6-1.4 3.7-2.2 6-2.2h30.3c1.2 0 2.3 0.3 3.4 0.7 1.2 0.4 2.3 1.2 3.2 2.1q0.2 0.2 0.4 0.5c1.3 1.5 2.1 3.4 2.1 5.5z"/>
		<path id="Layer" class="s6" d="m38.1 15.1l6.1 27.4c-5.2-0.5-10.2-3.1-13.6-6.4-4-9.6-0.7-17.8 3.9-21z"/>
		<path id="Layer" class="s6" d="m69.6 17.9c3.1 4.7 0.8 10.7-2.6 16.5q-0.8 1.1-1.8 2c-2.8 2.7-6.6 4.6-10.9 5.6 2.9-7.1 7.7-20.1 5.9-26.9h2.8c1.5 0 1.9 0 3.4 0.7 1.8 0.7 2.4 0.9 3.2 2.1z"/>
	</g>
	<path id="Layer" class="s5" d="m72.1 22.3c0 2.2-0.9 4.2-2.3 5.6q-0.1 0.2-0.2 0.4-0.1 0.1-0.2 0.3-0.9 2.1-2.4 3.9-0.8 1-1.8 1.9c-2.8 2.6-6.6 4.5-10.9 5.5q-0.8 0.1-1.6 0.3-2.2 0.3-4.6 0.4-2-0.1-3.9-0.3c-5.4-0.7-10.2-3-13.6-6.2-1.4-1.4-2.6-2.9-3.5-4.6q-0.1-0.3-0.3-0.6-0.1-0.2-0.2-0.3c-1.9-1.6-3-3.8-3-6.3 0-2.3 1-4.4 2.7-5.9q0.2-0.2 0.4-0.4c1.6-1.3 3.7-2.1 6-2.1h30.3c1.2 0 2.3 0.2 3.4 0.6 1.2 0.5 2.3 1.2 3.2 2q0.2 0.3 0.4 0.5c1.3 1.5 2.1 3.3 2.1 5.3z"/>
	<path id="Layer" class="s4" d="m38.1 13.9l6.1 26.4c-5.2-0.5-10.2-3-13.6-6.2-4-9.2-0.7-17.1 3.9-20.2z"/>
	<path id="Layer" class="s4" d="m69.6 16.5c3.1 4.6 0.8 10.3-2.6 16q-0.8 1-1.8 1.9c-2.8 2.6-6.6 4.5-10.9 5.5 2.9-7 7.7-19.5 5.9-26h2.8c1.5 0 1.9 0 3.4 0.6 1.8 0.7 2.4 0.9 3.2 2z"/>
	<path id="Layer" class="s7" d="m47.6 27.8c-4 0-7.2-3-7.2-6.8v-14.1c0-3.8 3.2-6.9 7.2-6.9 3.9 0 7.1 3.1 7.1 6.9v14.1c0 3.8-3.2 6.8-7.1 6.8z"/>
</svg>