<svg width="110" height="106" viewBox="0 0 110 106" fill="none" xmlns="http://www.w3.org/2000/svg">
<path d="M13.3591 66.7378C13.3591 70.1959 10.4354 73.0128 6.82186 73.0128C3.21929 73.0128 0.295624 70.1959 0.295624 66.7378C0.295624 63.2798 3.21929 60.4629 6.82186 60.4629C10.4354 60.4629 13.3591 63.2798 13.3591 66.7378Z" fill="#FEC388"/>
<path d="M10.512 66.7379C10.512 68.6929 8.85856 70.28 6.82185 70.28C4.78514 70.28 3.13168 68.6929 3.13168 66.7379C3.13168 64.7828 4.78514 63.1957 6.82185 63.1957C8.85856 63.1957 10.512 64.7828 10.512 66.7379Z" fill="#F7AF6F"/>
<path d="M87.6224 66.7378C87.6224 70.1959 84.6987 73.0128 81.0852 73.0128C77.4826 73.0128 74.559 70.1959 74.559 66.7378C74.559 63.2798 77.4826 60.4629 81.0852 60.4629C84.6987 60.4629 87.6224 63.2798 87.6224 66.7378Z" fill="#FEC388"/>
<path d="M84.7863 66.7379C84.7863 68.6929 83.1329 70.28 81.0852 70.28C79.0485 70.28 77.3951 68.6929 77.3951 66.7379C77.3951 64.7828 79.0485 63.1957 81.0852 63.1957C83.1329 63.1957 84.7863 64.7828 84.7863 66.7379Z" fill="#F7AF6F"/>
<path d="M88.3232 48.9851C88.3232 72.3611 68.5474 91.3121 44.1616 91.3121C19.7758 91.3121 0 72.3611 0 48.9851C0 25.609 19.7758 6.65806 44.1616 6.65806C68.5474 6.65806 88.3232 25.609 88.3232 48.9851Z" fill="#4D3217"/>
<path d="M81.0305 66.6958C81.0305 88.3271 64.4083 105.859 43.9207 105.859C23.4222 105.859 6.81093 88.3271 6.81093 66.6958C6.81093 45.0646 23.4222 27.5325 43.9207 27.5325C64.4083 27.5325 81.0305 45.0646 81.0305 66.6958V66.6958Z" fill="#FEC388"/>
<g filter="url(#filter0_d_1_3)">
<path d="M105.515 20.3747C96.0102 20.3431 86.6369 25.1571 81.4028 32.7669C79.388 35.6889 77.8769 39.0524 75.008 41.2071C70.7703 44.3919 64.8134 44.066 59.4589 43.572C51.7281 42.8468 37.3288 40.9653 29.1491 34.9952C28.8315 37.9382 28.7987 40.9128 29.0615 43.8558C26.7291 42.0269 24.3529 40.2086 21.6264 38.9788C18.9108 37.749 15.779 37.1499 12.8663 37.8647C15.998 34.4171 19.9729 31.5792 24.2653 29.498C23.1484 27.2698 22.7323 24.6946 23.247 21.72C25.7217 7.41483 46.1655 -1.22505 59.5684 0.141355C57.3674 1.61287 55.7358 3.82014 54.9912 6.27967C55.4511 5.19705 56.8637 4.58743 58.1339 4.63998C59.5793 4.70305 60.9043 5.36523 62.273 5.8277C66.2588 7.15206 70.8579 6.65806 74.4276 4.51385C73.5735 7.1836 71.8981 9.61159 69.6534 11.3984C82.1364 8.2557 96.2182 11.7768 105.515 20.3747V20.3747Z" fill="#4D3217"/>
</g>
<path d="M93.7764 16.4752C92.8055 16.3841 91.8345 16.293 90.8636 16.2019C87.8852 15.9146 84.9068 15.6308 81.9284 15.3505C80.8115 15.2454 79.6836 15.2559 78.731 14.867C84.3264 10.936 88.4546 15.9706 93.7764 16.4752V16.4752Z" fill="#603A18"/>
<path d="M55.3745 9.02299C56.9294 7.59352 59.4698 8.40285 61.4299 9.2332C63.4009 10.0741 66.0289 10.7468 67.4305 9.18065C65.6347 10.5541 63.8389 11.9275 62.0431 13.3009C61.7365 13.5321 61.4189 13.7739 61.0357 13.8264C60.5648 13.9 60.094 13.6898 59.6669 13.5006C57.4441 12.5441 55.0241 12.0186 52.5932 11.987C54.2028 10.3263 56.1629 8.99145 58.3201 8.08752" fill="#603A18"/>
<path d="M8.31111 30.2443C11.5414 24.621 16.447 19.8912 22.3053 16.78C24.0683 15.8445 26.0064 15.0352 28.0103 15.1718C28.4373 15.2033 28.9629 15.3715 29.0067 15.7814C29.0286 16.0232 28.8425 16.2439 28.6782 16.4436C22.2396 23.5384 12.6364 28.3944 9.09951 37.1709C8.71626 38.1169 7.79645 39.3362 6.9095 38.7791C6.5153 38.5373 6.4058 38.0433 6.35105 37.6019C5.70499 32.3885 9.11047 26.9544 14.2241 25.073" fill="#603A18"/>
<defs>
<filter id="filter0_d_1_3" x="8.86632" y="0" width="100.649" height="51.8862" filterUnits="userSpaceOnUse" color-interpolation-filters="sRGB">
<feFlood flood-opacity="0" result="BackgroundImageFix"/>
<feColorMatrix in="SourceAlpha" type="matrix" values="0 0 0 0 0 0 0 0 0 0 0 0 0 0 0 0 0 0 127 0" result="hardAlpha"/>
<feOffset dy="4"/>
<feGaussianBlur stdDeviation="2"/>
<feComposite in2="hardAlpha" operator="out"/>
<feColorMatrix type="matrix" values="0 0 0 0 0 0 0 0 0 0 0 0 0 0 0 0 0 0 0.25 0"/>
<feBlend mode="normal" in2="BackgroundImageFix" result="effect1_dropShadow_1_3"/>
<feBlend mode="normal" in="SourceGraphic" in2="effect1_dropShadow_1_3" result="shape"/>
</filter>
</defs>
</svg>
