<svg width="95" height="100" viewBox="0 0 95 100" fill="none" xmlns="http://www.w3.org/2000/svg">
<path d="M13.9835 60.7469C13.9835 64.205 11.0598 67.0219 7.44631 67.0219C3.84374 67.0219 0.920074 64.205 0.920074 60.7469C0.920074 57.2889 3.84374 54.472 7.44631 54.472C11.0598 54.472 13.9835 57.2889 13.9835 60.7469Z" fill="#FEC388"/>
<path d="M11.1365 60.7469C11.1365 62.702 9.48301 64.2891 7.4463 64.2891C5.40959 64.2891 3.75613 62.702 3.75613 60.7469C3.75613 58.7919 5.40959 57.2048 7.4463 57.2048C9.48301 57.2048 11.1365 58.7919 11.1365 60.7469Z" fill="#F7AF6F"/>
<path d="M88.2469 60.7469C88.2469 64.205 85.3232 67.0219 81.7097 67.0219C78.1071 67.0219 75.1834 64.205 75.1834 60.7469C75.1834 57.2889 78.1071 54.472 81.7097 54.472C85.3232 54.472 88.2469 57.2889 88.2469 60.7469Z" fill="#FEC388"/>
<path d="M85.4108 60.7469C85.4108 62.702 83.7573 64.2891 81.7097 64.2891C79.673 64.2891 78.0195 62.702 78.0195 60.7469C78.0195 58.7919 79.673 57.2048 81.7097 57.2048C83.7573 57.2048 85.4108 58.7919 85.4108 60.7469Z" fill="#F7AF6F"/>
<path d="M88.9477 42.9942C88.9477 66.3702 69.1719 85.3212 44.7861 85.3212C20.4003 85.3212 0.624451 66.3702 0.624451 42.9942C0.624451 19.6181 20.4003 0.667152 44.7861 0.667152C69.1719 0.667152 88.9477 19.6181 88.9477 42.9942Z" fill="#4D3217"/>
<path d="M81.6549 60.7049C81.6549 82.3361 65.0327 99.8682 44.5452 99.8682C24.0466 99.8682 7.43538 82.3361 7.43538 60.7049C7.43538 39.0737 24.0466 21.5416 44.5452 21.5416C65.0327 21.5416 81.6549 39.0737 81.6549 60.7049V60.7049Z" fill="#FEC388"/>
<path d="M94.4008 10.4842C93.4299 10.3932 92.459 10.3021 91.4881 10.211C88.5097 9.92367 85.5313 9.63988 82.5528 9.35959C81.4359 9.25448 80.3081 9.26499 79.3554 8.87609C84.9509 4.94505 89.0791 9.97973 94.4008 10.4842V10.4842Z" fill="#603A18"/>
<path d="M55.9989 3.03208C57.5539 1.60261 60.0943 2.41194 62.0543 3.2423C64.0253 4.08316 66.6534 4.75585 68.055 3.18974C66.2592 4.56316 64.4633 5.93657 62.6675 7.30998C62.3609 7.54122 62.0434 7.78297 61.6601 7.83552C61.1893 7.9091 60.7184 7.69888 60.2914 7.50969C58.0685 6.5532 55.6485 6.02766 53.2176 5.99613C54.8273 4.33542 56.7873 3.00055 58.9445 2.09662" fill="#603A18"/>
<path d="M8.93556 24.2534C12.1658 18.6301 17.0715 13.9003 22.9297 10.7891C24.6927 9.8536 26.6309 9.04426 28.6347 9.1809C29.0618 9.21244 29.5874 9.38061 29.6312 9.79053C29.6531 10.0323 29.4669 10.253 29.3027 10.4527C22.864 17.5475 13.2608 22.4035 9.72396 31.18C9.34071 32.126 8.4209 33.3453 7.53395 32.7882C7.13975 32.5464 7.03025 32.0524 6.9755 31.611C6.32944 26.3976 9.73492 20.9635 14.8486 19.0821" fill="#603A18"/>
</svg>
