<svg width="125" height="124" viewBox="0 0 125 124" fill="none" xmlns="http://www.w3.org/2000/svg">
<path d="M104.213 57.0905C104.213 84.3345 80.8792 106.421 52.1063 106.421C23.3335 106.421 0 84.3345 0 57.0905C0 29.8465 23.3335 7.75975 52.1063 7.75975C80.8792 7.75975 104.213 29.8465 104.213 57.0905Z" fill="#4D3217"/>
<path d="M95.608 77.7317C95.608 102.942 75.9954 123.375 51.8221 123.375C27.6359 123.375 8.03622 102.942 8.03622 77.7317C8.03622 52.5212 27.6359 32.0882 51.8221 32.0882C75.9954 32.0882 95.608 52.5212 95.608 77.7317Z" fill="#FEC388"/>
<path d="M124.497 23.746C113.283 23.7092 102.223 29.3197 96.0473 38.1887C93.67 41.5942 91.887 45.5142 88.502 48.0255C83.502 51.7372 76.4735 51.3575 70.1556 50.7817C61.0341 49.9365 44.0443 47.7437 34.393 40.7857C34.0184 44.2157 33.9796 47.6825 34.2897 51.1125C31.5377 48.981 28.7341 46.8617 25.517 45.4285C22.3128 43.9952 18.6177 43.297 15.181 44.13C18.8761 40.112 23.5661 36.8045 28.6307 34.379C27.3129 31.782 26.8219 28.7807 27.4292 25.314C30.3491 8.64174 54.4707 -1.42776 70.2848 0.164745C67.6879 1.87974 65.7628 4.45224 64.8842 7.31874C65.4269 6.05699 67.0936 5.34649 68.5923 5.40774C70.2977 5.48125 71.861 6.25299 73.476 6.79199C78.1789 8.33549 83.6053 7.75974 87.8172 5.26074C86.8095 8.37224 84.8327 11.202 82.1841 13.2845C96.9129 9.62174 113.528 13.7255 124.497 23.746Z" fill="#4D3217"/>
<path d="M110.647 19.2012C109.501 19.0951 108.356 18.9889 107.21 18.8827C103.696 18.5479 100.182 18.2172 96.6674 17.8905C95.3496 17.768 94.0188 17.7802 92.8948 17.327C99.4969 12.7455 104.368 18.6132 110.647 19.2012Z" fill="#603A18"/>
<path d="M65.3364 10.516C67.1711 8.84999 70.1685 9.79324 72.4812 10.761C74.8068 11.741 77.9076 12.525 79.5613 10.6997C77.4425 12.3004 75.3236 13.9011 73.2047 15.5017C72.843 15.7712 72.4683 16.053 72.0161 16.1142C71.4605 16.2 70.905 15.955 70.4011 15.7345C67.7783 14.6197 64.923 14.0072 62.0547 13.9705C63.954 12.035 66.2667 10.4792 68.8119 9.42574" fill="#603A18"/>
<path d="M9.80629 35.2487C13.6177 28.695 19.4058 23.1825 26.318 19.5565C28.3982 18.4662 30.685 17.523 33.0494 17.6822C33.5532 17.719 34.1734 17.915 34.2251 18.3927C34.2509 18.6745 34.0313 18.9317 33.8375 19.1645C26.2405 27.4332 14.9097 33.0927 10.7365 43.3215C10.2843 44.424 9.19904 45.845 8.15252 45.1957C7.6874 44.914 7.5582 44.3382 7.4936 43.8237C6.73132 37.7477 10.7494 31.4145 16.7831 29.2217" fill="#603A18"/>
</svg>
