<svg version="1.2" xmlns="http://www.w3.org/2000/svg" viewBox="0 0 2500 2000" width="250" height="200">
	<title>happy-man-character-ai</title>
	<style>
		.s0 { fill: #952d08 } 
		.s1 { fill: #ffd908 } 
		.s2 { fill: #ffbe08 } 
		.s3 { fill: #ff2d08 } 
		.s4 { fill: #ffffff } 
		.s5 { fill: #dd230a } 
		.s6 { fill: #f9b373 } 
		.s7 { fill: #fec388 } 
		.s8 { fill: #f7af6f } 
		.s9 { fill: #4d3217 } 
		.s10 { fill: #603a18 } 
	</style>
	<g id="Layer 1">
		<g id="&lt;Clip Group&gt;">
			<g id="&lt;Group&gt;">
				<g id="&lt;Group&gt;" style="opacity: .2">
					<path id="&lt;Path&gt;" class="s0" d="m1891.9 1388.8v398.4c0 24.7-20 44.8-44.8 44.8h-13.4c-24.7 0-44.8-20.1-44.8-44.8v-398.4c0-24.8 20.1-44.8 44.8-44.8h13.4c24.8 0 44.8 20 44.8 44.8z"/>
					<path id="&lt;Path&gt;" class="s0" d="m1891.9 1603.9v78.5h-103v-78.5z"/>
					<path id="&lt;Path&gt;" class="s0" d="m1891.9 1437.1v78.5h-103v-78.5z"/>
					<path id="&lt;Path&gt;" class="s0" d="m1806.7 1861.4c-2.3 0-4.3-1.9-4.3-4.3v-69.9c0-2.3 2-4.3 4.3-4.3 2.4 0 4.3 2 4.3 4.3v69.9c0 2.4-1.9 4.3-4.3 4.3z"/>
					<path id="&lt;Path&gt;" class="s0" d="m1823.9 1871.2c-2.4 0-4.3-1.9-4.3-4.3v-69.9c0-2.3 1.9-4.3 4.3-4.3 2.3 0 4.3 2 4.3 4.3v69.9c0 2.4-2 4.3-4.3 4.3z"/>
					<path id="&lt;Path&gt;" class="s0" d="m1841.1 1871.2c-2.4 0-4.3-1.9-4.3-4.3v-69.9c0-2.3 1.9-4.3 4.3-4.3 2.3 0 4.2 2 4.2 4.3v69.9c0 2.4-1.9 4.3-4.2 4.3z"/>
					<path id="&lt;Path&gt;" class="s0" d="m1858.2 1871.2c-2.3 0-4.3-1.9-4.3-4.3v-69.9c0-2.3 2-4.3 4.3-4.3 2.4 0 4.3 2 4.3 4.3v69.9c0 2.4-1.9 4.3-4.3 4.3z"/>
					<path id="&lt;Path&gt;" class="s0" d="m1875.4 1861.4c-2.4 0-4.3-1.9-4.3-4.3v-69.9c0-2.3 1.9-4.3 4.3-4.3 2.3 0 4.3 2 4.3 4.3v69.9c0 2.4-2 4.3-4.3 4.3z"/>
				</g>
				<g id="&lt;Group&gt;">
					<path id="&lt;Path&gt;" class="s1" d="m2137.1 2063h-795.2c-16.3 0-29.6-13.3-29.6-29.6v-457.7c0-218.2 178.6-396.8 396.8-396.8h60.8c218.2 0 396.8 178.6 396.8 396.8v457.7c0 16.3-13.3 29.6-29.6 29.6z"/>
					<g id="&lt;Group&gt;">
						<g id="&lt;Group&gt;">
							<path id="&lt;Path&gt;" class="s2" d="m2000.9 1330.5c0 26.2-9.2 50.3-24.1 68.5q-1.4 1.7-2.1 3.8-0.8 2.3-1.7 4.5 0 0 0 0c-6.3 16.9-14.9 32.9-25.5 47.5-5.7 8.2-12.1 15.9-19.1 23.2-29.6 31.4-69 54.9-113.8 66.6q-8.2 2.2-16.6 3.8c-15.9 3-32.3 4.6-49.1 4.6-13.7 0-27-1-40.1-3-57.3-8.9-107.6-36.6-143-75.8-15.2-16.8-27.6-35.8-36.7-56.4q-1.6-3.4-3-7c-0.6-1.6-1.6-3-2.8-4.2-18.9-18.9-30.9-46.1-30.9-76.1 0-28.4 10.7-54.3 27.9-73q2.4-2.6 4.9-5c16.7-15.8 38.5-25.4 62.3-25.4h318.3c12.4 0 24.2 2.7 35.1 7.4 12.9 5.6 24.4 14.2 33.8 25.1q2.5 2.7 4.7 5.7c13.4 17.8 21.5 40.5 21.5 65.2z"/>
							<path id="&lt;Path&gt;" class="s2" d="m1644.8 1227.1l64 322.9c-55-6-107.6-36.6-143-75.8-41.7-112.8-7-209.3 40.8-247.1z"/>
							<path id="&lt;Path&gt;" class="s2" d="m1974.7 1259.6c32.2 55.1 8.1 126-27.2 195.2-5.7 8.2-12.1 15.9-19.1 23.2-29.6 31.4-69 54.9-113.8 66.6 30.6-84.8 80.7-237.5 61.3-317.5h29.9c15.1 0 19.6 0 35.1 7.4 19.3 9.2 25.3 10.7 33.8 25.1z"/>
						</g>
						<g id="&lt;Group&gt;" style="opacity: .2">
							<path id="&lt;Path&gt;" class="s0" d="m1701.3 1424.2v425.2c0 9.8-4.3 19.3-11.9 25.6-46.3 38.2-98.5 6.1-98.5-38.2v-425.1c0-8.7 5.5-20.3 12.2-25.8 30.3-24.9 63-19.7 82-0.7 10 10 16.2 23.8 16.2 39z"/>
							<path id="&lt;Path&gt;" class="s0" d="m1701.3 1551.7v84.1h-110.4v-84.1z"/>
							<path id="&lt;Path&gt;" class="s0" d="m1701.3 1715.9v84.1h-110.4v-84.1z"/>
							<path id="&lt;Path&gt;" class="s0" d="m1612.6 1923.5c-2.5 0-4.6-2.1-4.6-4.6v-74.9c0-2.5 2.1-4.6 4.6-4.6 2.6 0 4.6 2.1 4.6 4.6v74.9c0 2.5-2 4.6-4.6 4.6z"/>
							<path id="&lt;Path&gt;" class="s0" d="m1631 1934c-2.5 0-4.6-2.1-4.6-4.6v-74.9c0-2.5 2.1-4.6 4.6-4.6 2.5 0 4.6 2.1 4.6 4.6v74.9c0 2.5-2.1 4.6-4.6 4.6z"/>
							<path id="&lt;Path&gt;" class="s0" d="m1649.4 1934c-2.5 0-4.6-2.1-4.6-4.6v-74.9c0-2.5 2.1-4.6 4.6-4.6 2.5 0 4.6 2.1 4.6 4.6v74.9c0 2.5-2.1 4.6-4.6 4.6z"/>
							<path id="&lt;Path&gt;" class="s0" d="m1667.8 1934c-2.5 0-4.6-2.1-4.6-4.6v-74.9c0-2.5 2.1-4.6 4.6-4.6 2.5 0 4.6 2.1 4.6 4.6v74.9c0 2.5-2.1 4.6-4.6 4.6z"/>
							<path id="&lt;Path&gt;" class="s0" d="m1686.2 1923.5c-2.5 0-4.6-2.1-4.6-4.6v-74.9c0-2.5 2.1-4.6 4.6-4.6 2.5 0 4.6 2.1 4.6 4.6v74.9c0 2.5-2.1 4.6-4.6 4.6z"/>
						</g>
						<g id="&lt;Group&gt;">
							<path id="&lt;Path&gt;" class="s3" d="m1886.6 1373.7v426.9c0 26.5-21.5 48-48 48h-14.4c-26.5 0-48-21.5-48-48v-426.9c0-26.5 21.5-48 48-48h14.4c26.5 0 48 21.5 48 48z"/>
							<path id="&lt;Path&gt;" class="s4" d="m1886.6 1604.2v84.1h-110.4v-84.1z"/>
							<path id="&lt;Path&gt;" class="s4" d="m1886.6 1425.5v84.1h-110.4v-84.1z"/>
							<path id="&lt;Path&gt;" class="s3" d="m1795.2 1880.1c-2.5 0-4.6-2-4.6-4.6v-74.9c0-2.5 2.1-4.6 4.6-4.6 2.6 0 4.6 2.1 4.6 4.6v74.9c0 2.6-2 4.6-4.6 4.6z"/>
							<path id="&lt;Path&gt;" class="s3" d="m1813.6 1890.6c-2.5 0-4.6-2-4.6-4.6v-74.8c0-2.6 2.1-4.6 4.6-4.6 2.6 0 4.6 2 4.6 4.6v74.8c0 2.6-2 4.6-4.6 4.6z"/>
							<path id="&lt;Path&gt;" class="s3" d="m1832 1890.6c-2.5 0-4.6-2-4.6-4.6v-74.8c0-2.6 2.1-4.6 4.6-4.6 2.6 0 4.6 2 4.6 4.6v74.8c0 2.6-2 4.6-4.6 4.6z"/>
							<path id="&lt;Path&gt;" class="s3" d="m1850.4 1890.6c-2.5 0-4.6-2-4.6-4.6v-74.8c0-2.6 2.1-4.6 4.6-4.6 2.6 0 4.6 2 4.6 4.6v74.8c0 2.6-2 4.6-4.6 4.6z"/>
							<path id="&lt;Path&gt;" class="s3" d="m1868.8 1880.1c-2.5 0-4.6-2-4.6-4.6v-74.9c0-2.5 2.1-4.6 4.6-4.6 2.6 0 4.6 2.1 4.6 4.6v74.9c0 2.6-2 4.6-4.6 4.6z"/>
						</g>
						<g id="&lt;Group&gt;">
							<path id="&lt;Path&gt;" class="s3" d="m1685.5 1420.3v425.1c0 9.9-4.3 19.3-11.9 25.6-46.3 38.2-98.4 6.1-98.4-38.2v-425.1c0-8.6 5.4-20.3 12.1-25.8 30.3-24.8 63.1-19.6 82.1-0.6 10 9.9 16.1 23.7 16.1 39z"/>
							<path id="&lt;Path&gt;" class="s4" d="m1685.5 1547.7v84.1h-110.3v-84.1z"/>
							<path id="&lt;Path&gt;" class="s4" d="m1685.5 1712v84h-110.3v-84z"/>
							<path id="&lt;Path&gt;" class="s3" d="m1596.9 1919.5c-2.6 0-4.6-2-4.6-4.6v-74.8c0-2.6 2-4.6 4.6-4.6 2.5 0 4.6 2 4.6 4.6v74.8c0 2.6-2.1 4.6-4.6 4.6z"/>
							<path id="&lt;Path&gt;" class="s3" d="m1615.2 1930.1c-2.5 0-4.5-2.1-4.5-4.6v-74.9c0-2.6 2-4.6 4.5-4.6 2.6 0 4.6 2 4.6 4.6v74.9c0 2.5-2 4.6-4.6 4.6z"/>
							<path id="&lt;Path&gt;" class="s3" d="m1633.6 1930.1c-2.5 0-4.6-2.1-4.6-4.6v-74.9c0-2.6 2.1-4.6 4.6-4.6 2.6 0 4.6 2 4.6 4.6v74.9c0 2.5-2 4.6-4.6 4.6z"/>
							<path id="&lt;Path&gt;" class="s3" d="m1652 1930.1c-2.5 0-4.6-2.1-4.6-4.6v-74.9c0-2.6 2.1-4.6 4.6-4.6 2.6 0 4.6 2 4.6 4.6v74.9c0 2.5-2 4.6-4.6 4.6z"/>
							<path id="&lt;Path&gt;" class="s3" d="m1670.4 1919.5c-2.5 0-4.6-2-4.6-4.6v-74.8c0-2.6 2.1-4.6 4.6-4.6 2.6 0 4.6 2 4.6 4.6v74.8c0 2.6-2 4.6-4.6 4.6z"/>
						</g>
						<g id="&lt;Group&gt;">
							<path id="&lt;Path&gt;" class="s4" d="m2000.9 1313.4c0 26.2-9.2 50.2-24.1 68.5q-1.4 1.7-2.1 3.8-0.8 2.3-1.7 4.5 0 0 0 0c-6.3 16.9-14.9 32.8-25.5 47.5-5.7 8.2-12.1 15.9-19.1 23.2-29.6 31.4-69 54.9-113.8 66.6q-8.2 2.2-16.6 3.8c-15.9 3-32.3 4.6-49.1 4.6-13.7 0-27-1-40.1-3-57.3-8.9-107.6-36.6-143-75.8-15.2-16.9-27.6-35.8-36.7-56.4q-1.6-3.5-3-7c-0.6-1.6-1.6-3-2.8-4.2-18.9-18.9-30.9-46.1-30.9-76.1 0-28.4 10.7-54.3 27.9-73q2.4-2.6 4.9-5c16.7-15.8 38.5-25.4 62.3-25.4h318.3c12.4 0 24.2 2.6 35.1 7.4 12.9 5.6 24.4 14.2 33.8 25q2.5 2.8 4.7 5.8c13.4 17.8 21.5 40.5 21.5 65.2z"/>
							<path id="&lt;Path&gt;" class="s3" d="m1644.8 1210l64 322.9c-55-6-107.6-36.6-143-75.8-41.7-112.8-7-209.3 40.8-247.1z"/>
							<path id="&lt;Path&gt;" class="s3" d="m1974.7 1242.4c32.2 55.1 8.1 126.1-27.2 195.3-5.7 8.2-12.1 15.9-19.1 23.2-29.6 31.4-69 54.9-113.8 66.6 30.6-84.9 80.7-237.5 61.3-317.5h29.9c15.1 0 19.6 0 35.1 7.4 19.3 9.2 25.3 10.7 33.8 25z"/>
						</g>
						<g id="&lt;Group&gt;" style="opacity: .9">
							<path id="&lt;Path&gt;" class="s5" d="m1970.6 1250c0 21.2-7.9 40.6-20.9 55.3q-1.3 1.4-1.9 3-0.7 1.9-1.4 3.7 0 0 0 0c-5.5 13.6-13 26.5-22.2 38.3-5 6.6-10.6 12.8-16.6 18.7-25.8 25.3-60.1 44.2-99.2 53.7q-7.1 1.7-14.4 3c-13.8 2.5-28.1 3.8-42.8 3.8-11.9 0-23.5-0.9-34.8-2.5-50-7.2-93.8-29.5-124.6-61.1-13.2-13.6-24.1-28.9-32-45.4q-1.3-2.8-2.6-5.7c-0.5-1.3-1.4-2.4-2.4-3.4-16.5-15.3-26.9-37.1-26.9-61.4 0-22.9 9.3-43.7 24.3-58.8q2.1-2.1 4.3-4c14.5-12.8 33.5-20.5 54.2-20.5h277.2c10.7 0 21.1 2.1 30.5 5.9 11.3 4.6 21.3 11.5 29.5 20.2q2.1 2.3 4 4.6c11.7 14.4 18.7 32.7 18.7 52.6z"/>
							<path id="&lt;Path&gt;" class="s5" d="m1660.6 1166.7l55.8 260.3c-47.9-4.8-93.8-29.5-124.6-61.1-36.3-90.9-6.1-168.8 35.5-199.2z"/>
							<path id="&lt;Path&gt;" class="s5" d="m1947.9 1192.8c28 44.5 7 101.6-23.7 157.5-5 6.6-10.6 12.8-16.6 18.7-25.8 25.3-60.1 44.2-99.2 53.7 26.7-68.4 70.3-191.5 53.4-256h26.1c13.1 0 17.1 0 30.5 5.9 16.8 7.4 22 8.7 29.5 20.2z"/>
						</g>
						<g id="&lt;Group&gt;">
							<path id="&lt;Path&gt;" class="s3" d="m1970.6 1235.3c0 20.4-7.9 39.1-20.9 53.3q-1.3 1.3-1.9 3-0.7 1.7-1.4 3.5 0 0 0 0c-5.5 13.1-13 25.5-22.2 37-5 6.3-10.6 12.3-16.6 18-25.8 24.4-60.1 42.7-99.2 51.8q-7.1 1.7-14.4 2.9c-13.8 2.4-28.1 3.7-42.8 3.7-11.9 0-23.5-0.9-34.8-2.4-50-7-93.8-28.5-124.6-59-13.2-13.1-24.1-27.9-32-43.8q-1.3-2.8-2.6-5.5c-0.5-1.2-1.4-2.4-2.4-3.3-16.5-14.7-26.9-35.8-26.9-59.2 0-22.1 9.3-42.2 24.3-56.8q2.1-2 4.3-3.9c14.5-12.3 33.5-19.7 54.2-19.7h277.2c10.7 0 21.1 2 30.5 5.7 11.3 4.4 21.3 11.1 29.5 19.5q2.1 2.1 4 4.4c11.7 13.9 18.7 31.6 18.7 50.8z"/>
							<path id="&lt;Path&gt;" class="s4" d="m1660.6 1154.9l55.8 251.2c-47.9-4.7-93.8-28.5-124.6-59-36.3-87.7-6.1-162.9 35.5-192.2z"/>
							<path id="&lt;Path&gt;" class="s4" d="m1947.9 1180.1c28 42.9 7 98-23.7 152-5 6.3-10.6 12.3-16.6 18-25.8 24.4-60.1 42.7-99.2 51.8 26.7-66 70.3-184.8 53.4-247h26.1c13.1 0 17.1 0 30.5 5.7 16.8 7.1 22 8.4 29.5 19.5z"/>
						</g>
					</g>
				</g>
				<g id="&lt;Group&gt;">
					<path id="&lt;Path&gt;" class="s6" d="m1746.6 1287.6c-35.9 0-65.3-29.4-65.3-65.3v-134.3c0-35.9 29.4-65.3 65.3-65.3 35.9 0 65.3 29.4 65.3 65.3v134.3c0 35.9-29.4 65.3-65.3 65.3z"/>
					<g id="&lt;Group&gt;">
						<g id="&lt;Group&gt;">
							<path id="&lt;Path&gt;" class="s7" d="m1467.4 753.9c0 32.9-26.7 59.7-59.7 59.7-32.9 0-59.6-26.8-59.6-59.7 0-32.9 26.7-59.7 59.6-59.7 33 0 59.7 26.8 59.7 59.7z"/>
							<path id="&lt;Path&gt;" class="s8" d="m1441.4 753.9c0 18.6-15.1 33.7-33.7 33.7-18.6 0-33.7-15.1-33.7-33.7 0-18.6 15.1-33.7 33.7-33.7 18.6 0 33.7 15.1 33.7 33.7z"/>
						</g>
						<g id="&lt;Group&gt;">
							<path id="&lt;Path&gt;" class="s7" d="m2145.6 753.9c0 32.9-26.7 59.7-59.7 59.7-32.9 0-59.6-26.8-59.6-59.7 0-32.9 26.7-59.7 59.6-59.7 33 0 59.7 26.8 59.7 59.7z"/>
							<path id="&lt;Path&gt;" class="s8" d="m2119.7 753.9c0 18.6-15.1 33.7-33.8 33.7-18.6 0-33.7-15.1-33.7-33.7 0-18.6 15.1-33.7 33.7-33.7 18.7 0 33.8 15.1 33.8 33.7z"/>
						</g>
						<g id="&lt;Group&gt;">
							<g id="&lt;Group&gt;">
								<path id="&lt;Path&gt;" class="s9" d="m2152 585c0 222.4-180.6 402.7-403.3 402.7-222.7 0-403.3-180.3-403.3-402.7 0-222.4 180.6-402.7 403.3-402.7 222.7 0 403.3 180.3 403.3 402.7z"/>
								<path id="&lt;Path&gt;" class="s7" d="m2085.4 753.5c0 205.8-151.8 372.6-338.9 372.6-187.2 0-338.9-166.8-338.9-372.6 0-205.8 151.7-372.6 338.9-372.6 187.1 0 338.9 166.8 338.9 372.6z"/>
								<path id="&lt;Path&gt;" class="s9" d="m2309 312.8c-86.8-0.3-172.4 45.5-220.2 117.9-18.4 27.8-32.2 59.8-58.4 80.3-38.7 30.3-93.1 27.2-142 22.5-70.6-6.9-202.1-24.8-276.8-81.6-2.9 28-3.2 56.3-0.8 84.3-21.3-17.4-43-34.7-67.9-46.4-24.8-11.7-53.4-17.4-80-10.6 28.6-32.8 64.9-59.8 104.1-79.6-10.2-21.2-14-45.7-9.3-74 22.6-136.1 209.3-218.3 331.7-205.3-20.1 14-35 35-41.8 58.4 4.2-10.3 17.1-16.1 28.7-15.6 13.2 0.6 25.3 6.9 37.8 11.3 36.4 12.6 78.4 7.9 111-12.5-7.8 25.4-23.1 48.5-43.6 65.5 114-29.9 242.6 3.6 327.5 85.4z"/>
							</g>
							<path id="&lt;Path&gt;" class="s10" d="m2201.8 275.7q-13.3-1.3-26.6-2.6-40.8-4.1-81.6-8.1c-10.2-1-20.5-0.9-29.2-4.6 51.1-37.4 88.8 10.5 137.4 15.3z"/>
							<path id="&lt;Path&gt;" class="s10" d="m1851.1 204.8c14.2-13.6 37.4-5.9 55.3 2 18 8 42 14.4 54.8-0.5q-24.6 19.6-49.2 39.2c-2.8 2.2-5.7 4.5-9.2 5-4.3 0.7-8.6-1.3-12.5-3.1-20.3-9.1-42.4-14.1-64.6-14.4 14.7-15.8 32.6-28.5 52.3-37.1"/>
							<path id="&lt;Path&gt;" class="s10" d="m1421.3 406.7c29.5-53.5 74.3-98.5 127.8-128.1 16.1-8.9 33.8-16.6 52.1-15.3 3.9 0.3 8.7 1.9 9.1 5.8 0.2 2.3-1.5 4.4-3 6.3-58.8 67.5-146.5 113.7-178.8 197.2-3.5 9-11.9 20.6-20 15.3-3.6-2.3-4.6-7-5.1-11.2-5.9-49.6 25.2-101.3 71.9-119.2"/>
						</g>
						<g id="&lt;Group&gt;">
							<path id="&lt;Compound Path&gt;" class="s9" d="m1689.1 734.4c0 27.8-7.8 54-22 73.9-14.9 20.7-34.9 32.1-56.4 32.1-21.6 0-41.6-11.4-56.5-32.1-14.2-19.9-22-46.1-22-73.9h18.1c0 24.1 6.6 46.5 18.6 63.3 11.4 15.9 26.2 24.6 41.8 24.6 15.5 0 30.3-8.7 41.7-24.6 12-16.8 18.6-39.2 18.6-63.3z"/>
						</g>
						<g id="&lt;Group&gt;">
							<path id="&lt;Compound Path&gt;" class="s9" d="m1964 734.4c0 27.8-7.8 54-22 73.9-14.8 20.7-34.9 32.1-56.4 32.1-21.6 0-41.6-11.4-56.4-32.1-14.2-19.9-22.1-46.1-22.1-73.9h18.1c0 24.1 6.6 46.5 18.6 63.3 11.4 15.9 26.2 24.6 41.8 24.6 15.5 0 30.4-8.7 41.7-24.6 12.1-16.8 18.7-39.2 18.7-63.3z"/>
						</g>
					</g>
					<g id="&lt;Group&gt;">
						<path id="&lt;Compound Path&gt;" class="s9" d="m1848 951.5c-18 42.5-60.1 72.4-109.1 72.4-48.9 0-91-29.9-109-72.4h19c16.7 32.7 50.8 55.2 90 55.2 39.3 0 73.4-22.5 90.1-55.2z"/>
					</g>
				</g>
			</g>
		</g>
	</g>
</svg>