<svg width="13" height="61" viewBox="0 0 13 61" fill="none" xmlns="http://www.w3.org/2000/svg">
<path d="M12.8656 6.79098V51.4724C12.8656 52.513 12.3948 53.501 11.5626 54.1632C6.49268 58.1783 0.787689 54.8044 0.787689 50.1481V5.46661C0.787689 4.56268 1.379 3.33292 2.11266 2.75483C5.43053 0.148146 9.02215 0.69471 11.1027 2.69176C12.1977 3.73233 12.8656 5.18283 12.8656 6.79098V6.79098Z" fill="#FF2D08"/>
<path d="M12.8656 20.1817V29.0213H0.787689V20.1817H12.8656Z" fill="white"/>
<path d="M12.8656 37.451V46.2801H0.787689V37.451H12.8656Z" fill="white"/>
<path d="M3.16389 59.261C2.87919 59.261 2.66019 59.0507 2.66019 58.7775V50.9154C2.66019 50.6421 2.87919 50.4319 3.16389 50.4319C3.43764 50.4319 3.66759 50.6421 3.66759 50.9154V58.7775C3.66759 59.0507 3.43764 59.261 3.16389 59.261Z" fill="#FF2D08"/>
<path d="M5.16774 60.3751C4.89399 60.3751 4.67499 60.1544 4.67499 59.8916V52.019C4.67499 51.7457 4.89399 51.5355 5.16774 51.5355C5.45244 51.5355 5.67145 51.7457 5.67145 52.019V59.8916C5.67145 60.1544 5.45244 60.3751 5.16774 60.3751Z" fill="#FF2D08"/>
<path d="M7.18256 60.3751C6.90881 60.3751 6.67886 60.1544 6.67886 59.8916V52.019C6.67886 51.7457 6.90881 51.5355 7.18256 51.5355C7.46727 51.5355 7.68626 51.7457 7.68626 52.019V59.8916C7.68626 60.1544 7.46727 60.3751 7.18256 60.3751Z" fill="#FF2D08"/>
<path d="M9.19736 60.3751C8.92361 60.3751 8.69366 60.1544 8.69366 59.8916V52.019C8.69366 51.7457 8.92361 51.5355 9.19736 51.5355C9.48207 51.5355 9.70107 51.7457 9.70107 52.019V59.8916C9.70107 60.1544 9.48207 60.3751 9.19736 60.3751Z" fill="#FF2D08"/>
<path d="M11.2122 59.261C10.9384 59.261 10.7085 59.0507 10.7085 58.7775V50.9154C10.7085 50.6421 10.9384 50.4319 11.2122 50.4319C11.4969 50.4319 11.7159 50.6421 11.7159 50.9154V58.7775C11.7159 59.0507 11.4969 59.261 11.2122 59.261Z" fill="#FF2D08"/>
</svg>
