<?xml version="1.0" encoding="UTF-8"?>
<svg id="Layer_2" data-name="Layer 2" xmlns="http://www.w3.org/2000/svg" xmlns:xlink="http://www.w3.org/1999/xlink" viewBox="0 0 1071 370">
  <defs>
    <style>
      .cls-1 {
        fill: url(#linear-gradient-2);
      }

      .cls-2 {
        fill: url(#linear-gradient-5);
      }

      .cls-3 {
        fill: url(#linear-gradient-3);
      }

      .cls-4 {
        fill: url(#linear-gradient);
      }

      .cls-5 {
        fill: url(#linear-gradient-4);
      }
    </style>
    <linearGradient id="linear-gradient" x1="535.39" y1="286.5" x2="535.39" y2=".5" gradientTransform="translate(0 0)" gradientUnits="userSpaceOnUse">
      <stop offset=".07" stop-color="#934b03"/>
      <stop offset=".17" stop-color="#a54c03"/>
      <stop offset=".34" stop-color="#bf4e04"/>
      <stop offset=".49" stop-color="#ce4f04"/>
      <stop offset=".61" stop-color="#d45005"/>
      <stop offset=".74" stop-color="#d55205"/>
      <stop offset=".82" stop-color="#d95a08"/>
      <stop offset=".87" stop-color="#e0680e"/>
      <stop offset=".92" stop-color="#ea7b15"/>
      <stop offset=".97" stop-color="#f7931e"/>
    </linearGradient>
    <linearGradient id="linear-gradient-2" x1="535.5" y1="302.5" x2="535.5" y2="287.5" gradientTransform="matrix(1, 0, 0, 1, 0, 0)" xlink:href="#linear-gradient"/>
    <linearGradient id="linear-gradient-3" x1="526.5" y1="303" x2="526.5" y2="329.65" gradientUnits="userSpaceOnUse">
      <stop offset=".07" stop-color="#000"/>
      <stop offset=".32" stop-color="#120700"/>
      <stop offset=".4" stop-color="#4b2918"/>
      <stop offset=".49" stop-color="#864d32"/>
      <stop offset=".57" stop-color="#b56947"/>
      <stop offset=".65" stop-color="#d77e55"/>
      <stop offset=".71" stop-color="#ec8a5e"/>
      <stop offset=".75" stop-color="#f48f62"/>
    </linearGradient>
    <linearGradient id="linear-gradient-4" x1="89.5" y1="329" x2="89.5" y2="370" gradientUnits="userSpaceOnUse">
      <stop offset="0" stop-color="#633823"/>
      <stop offset=".01" stop-color="#7d482e"/>
      <stop offset=".03" stop-color="#9d5a3c"/>
      <stop offset=".05" stop-color="#b86b48"/>
      <stop offset=".08" stop-color="#ce7851"/>
      <stop offset=".11" stop-color="#df8259"/>
      <stop offset=".14" stop-color="#eb895e"/>
      <stop offset=".19" stop-color="#f28d61"/>
      <stop offset=".32" stop-color="#f48f62"/>
    </linearGradient>
    <linearGradient id="linear-gradient-5" x1="967.5" y1="328" x2="967.5" y2="369" xlink:href="#linear-gradient-4"/>
  </defs>
  <g id="Layer_1-2" data-name="Layer 1">
    <g>
      <g>
        <polygon class="cls-4" points="1.23 286.5 278.14 .5 792.63 .5 1069.54 286.5 1.23 286.5"/>
        <path d="M792.42,1l275.94,285H2.41S278.35,1,278.35,1H792.42m.42-1H277.93S.05,287,.05,287H1070.72S792.85,0,792.85,0h0Z"/>
      </g>
      <g>
        <path class="cls-1" d="M1.63,287.5H1069.37c.62,0,1.13,.51,1.13,1.13v12.74c0,.62-.51,1.13-1.13,1.13H1.63c-.62,0-1.13-.51-1.13-1.13v-12.74c0-.62,.51-1.13,1.13-1.13Z"/>
        <path d="M1069.37,288c.35,0,.63,.28,.63,.63v12.74c0,.35-.28,.63-.63,.63H1.63c-.35,0-.63-.28-.63-.63v-12.74c0-.35,.28-.63,.63-.63H1069.37m0-1H1.63c-.9,0-1.63,.73-1.63,1.63v12.74c0,.9,.73,1.63,1.63,1.63H1069.37c.9,0,1.63-.73,1.63-1.63v-12.74c0-.9-.73-1.63-1.63-1.63h0Z"/>
      </g>
      <rect class="cls-3" x="37" y="303" width="979" height="26.65"/>
      <rect class="cls-5" x="64" y="329" width="51" height="41" rx="9.07" ry="9.07"/>
      <rect class="cls-2" x="942" y="328" width="51" height="41" rx="9.07" ry="9.07"/>
    </g>
  </g>
</svg>