<?xml version="1.0" encoding="UTF-8"?>
<svg id="Layer_2" data-name="Layer 2" xmlns="http://www.w3.org/2000/svg" xmlns:xlink="http://www.w3.org/1999/xlink" viewBox="0 0 1071 230">
  <defs>
    <style>
      .cls-1 {
        fill: url(#linear-gradient-2);
      }

      .cls-2 {
        fill: url(#linear-gradient-5);
      }

      .cls-3 {
        fill: url(#linear-gradient-3);
      }

      .cls-4 {
        fill: url(#linear-gradient);
      }

      .cls-5 {
        fill: url(#linear-gradient-4);
      }
    </style>
    <linearGradient id="linear-gradient" x1="535.39" y1="194.79" x2="535.39" y2=".5" gradientTransform="translate(0 0)" gradientUnits="userSpaceOnUse">
      <stop offset=".07" stop-color="#934b03"/>
      <stop offset=".17" stop-color="#a54c03"/>
      <stop offset=".34" stop-color="#bf4e04"/>
      <stop offset=".49" stop-color="#ce4f04"/>
      <stop offset=".61" stop-color="#d45005"/>
      <stop offset=".74" stop-color="#d55205"/>
      <stop offset=".82" stop-color="#d95a08"/>
      <stop offset=".87" stop-color="#e0680e"/>
      <stop offset=".92" stop-color="#ea7b15"/>
      <stop offset=".97" stop-color="#f7931e"/>
    </linearGradient>
    <linearGradient id="linear-gradient-2" x1="535.5" y1="205.68" x2="535.5" y2="195.8" gradientTransform="matrix(1, 0, 0, 1, 0, 0)" xlink:href="#linear-gradient"/>
    <linearGradient id="linear-gradient-3" x1="526.5" y1="206.18" x2="526.5" y2="224.32" gradientUnits="userSpaceOnUse">
      <stop offset=".07" stop-color="#000"/>
      <stop offset=".32" stop-color="#120700"/>
      <stop offset=".4" stop-color="#4b2918"/>
      <stop offset=".49" stop-color="#864d32"/>
      <stop offset=".57" stop-color="#b56947"/>
      <stop offset=".65" stop-color="#d77e55"/>
      <stop offset=".71" stop-color="#ec8a5e"/>
      <stop offset=".75" stop-color="#f48f62"/>
    </linearGradient>
    <linearGradient id="linear-gradient-4" x1="88.55" y1="223.88" x2="88.55" y2="230" gradientUnits="userSpaceOnUse">
      <stop offset="0" stop-color="#633823"/>
      <stop offset=".01" stop-color="#7d482e"/>
      <stop offset=".03" stop-color="#9d5a3c"/>
      <stop offset=".05" stop-color="#b86b48"/>
      <stop offset=".08" stop-color="#ce7851"/>
      <stop offset=".11" stop-color="#df8259"/>
      <stop offset=".14" stop-color="#eb895e"/>
      <stop offset=".19" stop-color="#f28d61"/>
      <stop offset=".32" stop-color="#f48f62"/>
    </linearGradient>
    <linearGradient id="linear-gradient-5" x1="967.55" x2="967.55" xlink:href="#linear-gradient-4"/>
  </defs>
  <g id="Layer_1-2" data-name="Layer 1">
    <g>
      <g>
        <g>
          <polygon class="cls-4" points="1.01 194.8 135.48 .5 935.3 .5 1069.77 194.8 1.01 194.8"/>
          <path d="M935.04,1l133.78,193.3H1.96S135.74,1,135.74,1H935.04m.52-1H135.22S.05,195.3,.05,195.3H1070.72S935.56,0,935.56,0h0Z"/>
        </g>
        <g>
          <path class="cls-1" d="M1.63,195.8H1069.37c.62,0,1.13,.51,1.13,1.13v7.63c0,.62-.51,1.13-1.13,1.13H1.63c-.62,0-1.13-.51-1.13-1.13v-7.63c0-.62,.51-1.13,1.13-1.13Z"/>
          <path d="M1069.37,196.3c.35,0,.63,.28,.63,.63v7.63c0,.35-.28,.63-.63,.63H1.63c-.35,0-.63-.28-.63-.63v-7.63c0-.35,.28-.63,.63-.63H1069.37m0-1H1.63c-.9,0-1.63,.73-1.63,1.63v7.63c0,.9,.73,1.63,1.63,1.63H1069.37c.9,0,1.63-.73,1.63-1.63v-7.63c0-.9-.73-1.63-1.63-1.63h0Z"/>
        </g>
        <rect class="cls-3" x="37" y="206.18" width="979" height="18.13"/>
        <path class="cls-5" d="M110.55,230h-43.84c-1.91,0-3.49-1.05-3.55-2.35l-.06-1.41c-.06-1.31,1.45-2.37,3.37-2.37h44.07c1.91,0,3.47,1.06,3.47,2.37v1.41c0,1.3-1.54,2.35-3.45,2.35Z"/>
      </g>
      <path class="cls-2" d="M989.55,230h-43.84c-1.91,0-3.49-1.05-3.55-2.35l-.06-1.41c-.06-1.31,1.45-2.37,3.37-2.37h44.07c1.91,0,3.47,1.06,3.47,2.37v1.41c0,1.3-1.54,2.35-3.45,2.35Z"/>
    </g>
  </g>
</svg>