<svg version="1.2" xmlns="http://www.w3.org/2000/svg" viewBox="0 0 4000 3000" width="700" height="525">
	<title>drawing291-ai</title>
	<style>
		.s0 { fill: #fecbc5 } 
	</style>
	<g id="woman creation character">
		<g id="&lt;Group&gt;">
			<g id="arms and legs">
				<g id="&lt;Group&gt;">
					<g id="&lt;Group&gt;">
						<path id="&lt;Path&gt; copy" class="s0" d="m2506.2 1220.8c-1.8 1.8-57.3 52.1-91.4 30.7-44.9-39.8 61-112.5 88.7-138.9 15.4-14.6 21.4-3.9 18.3 1.6-5.6 10.2-48.4 50.3-46.5 53.1 0.3 0.4 1.4 0.7 4 0.1 15.5-3.2 22.7 7 11.9 16.3 16.8-6.5 19.8 14.8 5.9 21q0 0 0 0v0.4c0 0 16.9-4 15 6.2-0.5 3.6-4 7.8-5.9 9.5z"/>
					</g>
				</g>
			</g>
		</g>
	</g>
</svg>