<svg width="228" height="163" viewBox="0 0 228 163" fill="none" xmlns="http://www.w3.org/2000/svg">
<path d="M216.997 55H8.15118C0.367555 55 0.367596 68 8.15118 68H216.997C226.945 68 226.557 55.0001 216.997 55Z" stroke="black" stroke-width="3"/>
<path d="M18.2443 55H14.9205L24.5341 28.8182H27.8068L37.4205 55H34.0966L26.2727 32.9602H26.0682L18.2443 55ZM19.4716 44.7727H32.8693V47.5852H19.4716V44.7727ZM48.3988 35.3636V37.9205H38.2227V35.3636H48.3988ZM41.1886 30.6591H44.2056V49.375C44.2056 50.2273 44.3292 50.8665 44.5763 51.2926C44.832 51.7102 45.1559 51.9915 45.5479 52.1364C45.9485 52.2727 46.3704 52.3409 46.8136 52.3409C47.146 52.3409 47.4187 52.3239 47.6317 52.2898C47.8448 52.2472 48.0153 52.2131 48.1431 52.1875L48.7567 54.8977C48.5522 54.9744 48.2667 55.0511 47.9002 55.1278C47.5337 55.2131 47.0692 55.2557 46.5067 55.2557C45.6545 55.2557 44.8192 55.0724 44.0011 54.706C43.1914 54.3395 42.5181 53.7812 41.9812 53.0312C41.4528 52.2812 41.1886 51.3352 41.1886 50.1932V30.6591ZM56.3761 43.1875V55H53.359V28.8182H56.3761V38.4318H56.6317C57.092 37.4176 57.7823 36.6122 58.7028 36.0156C59.6317 35.4105 60.8675 35.108 62.4102 35.108C63.7482 35.108 64.9201 35.3764 65.9258 35.9134C66.9315 36.4418 67.7113 37.2557 68.2653 38.3551C68.8278 39.446 69.109 40.8352 69.109 42.5227V55H66.092V42.7273C66.092 41.1676 65.6871 39.9616 64.8775 39.1094C64.0763 38.2486 62.9641 37.8182 61.5408 37.8182C60.5522 37.8182 59.6658 38.027 58.8817 38.4446C58.1062 38.8622 57.4925 39.4716 57.0408 40.2727C56.5977 41.0739 56.3761 42.0455 56.3761 43.1875ZM77.6456 28.8182V55H74.6286V28.8182H77.6456ZM91.4045 55.4091C89.5124 55.4091 87.8803 54.9915 86.5082 54.1562C85.1445 53.3125 84.092 52.1364 83.3505 50.6278C82.6175 49.1108 82.2511 47.3466 82.2511 45.3352C82.2511 43.3239 82.6175 41.5511 83.3505 40.017C84.092 38.4744 85.1232 37.2727 86.4442 36.4119C87.7738 35.5426 89.3249 35.108 91.0977 35.108C92.1204 35.108 93.1303 35.2784 94.1275 35.6193C95.1246 35.9602 96.0323 36.5142 96.8505 37.2812C97.6687 38.0398 98.3207 39.0455 98.8065 40.2983C99.2923 41.5511 99.5352 43.0937 99.5352 44.9261V46.2045H84.3988V43.5966H96.467C96.467 42.4886 96.2454 41.5 95.8022 40.6307C95.3675 39.7614 94.7454 39.0753 93.9357 38.5724C93.1346 38.0696 92.1886 37.8182 91.0977 37.8182C89.896 37.8182 88.8562 38.1165 87.9783 38.7131C87.109 39.3011 86.44 40.0682 85.9712 41.0142C85.5025 41.9602 85.2681 42.9744 85.2681 44.0568V45.7955C85.2681 47.2784 85.5238 48.5355 86.0352 49.5668C86.555 50.5895 87.2752 51.3693 88.1957 51.9062C89.1161 52.4347 90.1857 52.6989 91.4045 52.6989C92.1971 52.6989 92.913 52.5881 93.5522 52.3665C94.1999 52.1364 94.7582 51.7955 95.2269 51.3438C95.6957 50.8835 96.0579 50.3125 96.3136 49.6307L99.2283 50.4489C98.9215 51.4375 98.4059 52.3068 97.6815 53.0568C96.957 53.7983 96.0621 54.3778 94.9968 54.7955C93.9315 55.2045 92.734 55.4091 91.4045 55.4091ZM112.664 35.3636V37.9205H102.488V35.3636H112.664ZM105.454 30.6591H108.471V49.375C108.471 50.2273 108.595 50.8665 108.842 51.2926C109.098 51.7102 109.422 51.9915 109.814 52.1364C110.214 52.2727 110.636 52.3409 111.079 52.3409C111.412 52.3409 111.684 52.3239 111.897 52.2898C112.11 52.2472 112.281 52.2131 112.409 52.1875L113.022 54.8977C112.818 54.9744 112.532 55.0511 112.166 55.1278C111.799 55.2131 111.335 55.2557 110.772 55.2557C109.92 55.2557 109.085 55.0724 108.267 54.706C107.457 54.3395 106.784 53.7812 106.247 53.0312C105.718 52.2812 105.454 51.3352 105.454 50.1932V30.6591ZM117.203 55V35.3636H120.22V55H117.203ZM118.737 32.0909C118.149 32.0909 117.642 31.8906 117.216 31.4901C116.798 31.0895 116.589 30.608 116.589 30.0455C116.589 29.483 116.798 29.0014 117.216 28.6009C117.642 28.2003 118.149 28 118.737 28C119.325 28 119.828 28.2003 120.245 28.6009C120.672 29.0014 120.885 29.483 120.885 30.0455C120.885 30.608 120.672 31.0895 120.245 31.4901C119.828 31.8906 119.325 32.0909 118.737 32.0909ZM133.723 55.4091C131.882 55.4091 130.297 54.9744 128.967 54.1051C127.638 53.2358 126.615 52.0384 125.899 50.5128C125.183 48.9872 124.825 47.2443 124.825 45.2841C124.825 43.2898 125.192 41.5298 125.925 40.0043C126.666 38.4702 127.697 37.2727 129.018 36.4119C130.348 35.5426 131.899 35.108 133.672 35.108C135.053 35.108 136.297 35.3636 137.405 35.875C138.513 36.3864 139.42 37.1023 140.128 38.0227C140.835 38.9432 141.274 40.017 141.445 41.2443H138.428C138.197 40.3494 137.686 39.5568 136.893 38.8665C136.109 38.1676 135.053 37.8182 133.723 37.8182C132.547 37.8182 131.516 38.125 130.629 38.7386C129.751 39.3437 129.065 40.2003 128.571 41.3082C128.085 42.4077 127.842 43.6989 127.842 45.1818C127.842 46.6989 128.081 48.0199 128.558 49.1449C129.044 50.2699 129.726 51.1435 130.604 51.7656C131.49 52.3878 132.53 52.6989 133.723 52.6989C134.507 52.6989 135.219 52.5625 135.858 52.2898C136.497 52.017 137.038 51.625 137.482 51.1136C137.925 50.6023 138.24 49.9886 138.428 49.2727H141.445C141.274 50.4318 140.852 51.4759 140.179 52.4048C139.514 53.3253 138.632 54.0582 137.533 54.6037C136.442 55.1406 135.172 55.4091 133.723 55.4091ZM159.764 39.7614L157.054 40.5284C156.884 40.0767 156.632 39.6378 156.3 39.2116C155.976 38.777 155.533 38.419 154.97 38.1378C154.408 37.8565 153.688 37.7159 152.81 37.7159C151.608 37.7159 150.607 37.9929 149.805 38.5469C149.013 39.0923 148.616 39.7869 148.616 40.6307C148.616 41.3807 148.889 41.973 149.435 42.4077C149.98 42.8423 150.832 43.2045 151.991 43.4943L154.906 44.2102C156.662 44.6364 157.97 45.2884 158.831 46.1662C159.692 47.0355 160.122 48.1562 160.122 49.5284C160.122 50.6534 159.798 51.6591 159.151 52.5455C158.511 53.4318 157.616 54.1307 156.466 54.642C155.315 55.1534 153.977 55.4091 152.452 55.4091C150.449 55.4091 148.791 54.9744 147.479 54.1051C146.166 53.2358 145.335 51.9659 144.986 50.2955L147.849 49.5795C148.122 50.6364 148.638 51.429 149.396 51.9574C150.163 52.4858 151.165 52.75 152.401 52.75C153.807 52.75 154.923 52.4517 155.75 51.8551C156.585 51.25 157.003 50.5256 157.003 49.6818C157.003 49 156.764 48.429 156.287 47.9688C155.81 47.5 155.077 47.1506 154.088 46.9205L150.815 46.1534C149.017 45.7273 147.696 45.0668 146.852 44.1719C146.017 43.2685 145.599 42.1392 145.599 40.7841C145.599 39.6761 145.911 38.696 146.533 37.8438C147.163 36.9915 148.02 36.3224 149.102 35.8366C150.193 35.3509 151.429 35.108 152.81 35.108C154.753 35.108 156.278 35.5341 157.386 36.3864C158.503 37.2386 159.295 38.3636 159.764 39.7614Z" fill="black"/>
<path d="M210.552 78.45L14.3134 78.0176" stroke="#9BADB0"/>
<path d="M210.313 69V87H14.3135V69H210.313Z" stroke="#374653" stroke-width="3"/>
<path d="M99.7039 83V82.233L102.585 79.0795C102.923 78.7102 103.201 78.3892 103.42 78.1165C103.639 77.8409 103.801 77.5824 103.906 77.3409C104.014 77.0966 104.068 76.8409 104.068 76.5739C104.068 76.267 103.994 76.0014 103.846 75.777C103.701 75.5526 103.502 75.3793 103.249 75.2571C102.997 75.1349 102.712 75.0739 102.397 75.0739C102.062 75.0739 101.769 75.1435 101.519 75.2827C101.272 75.419 101.08 75.6108 100.944 75.858C100.81 76.1051 100.744 76.3949 100.744 76.7273H99.738C99.738 76.2159 99.8559 75.767 100.092 75.3807C100.328 74.9943 100.649 74.6932 101.055 74.4773C101.464 74.2614 101.923 74.1534 102.431 74.1534C102.943 74.1534 103.396 74.2614 103.791 74.4773C104.185 74.6932 104.495 74.9844 104.72 75.3509C104.944 75.7173 105.056 76.125 105.056 76.5739C105.056 76.8949 104.998 77.2088 104.882 77.5156C104.768 77.8196 104.569 78.1591 104.285 78.5341C104.004 78.9062 103.613 79.3608 103.113 79.8977L101.153 81.9943V82.0625H105.21V83H99.7039ZM109.816 83.1193C109.174 83.1193 108.627 82.9446 108.176 82.5952C107.724 82.2429 107.379 81.733 107.14 81.0653C106.901 80.3949 106.782 79.5852 106.782 78.6364C106.782 77.6932 106.901 76.8878 107.14 76.2202C107.382 75.5497 107.728 75.0384 108.18 74.6861C108.634 74.331 109.18 74.1534 109.816 74.1534C110.453 74.1534 110.997 74.331 111.448 74.6861C111.903 75.0384 112.249 75.5497 112.488 76.2202C112.73 76.8878 112.85 77.6932 112.85 78.6364C112.85 79.5852 112.731 80.3949 112.492 81.0653C112.254 81.733 111.908 82.2429 111.457 82.5952C111.005 82.9446 110.458 83.1193 109.816 83.1193ZM109.816 82.1818C110.453 82.1818 110.947 81.875 111.299 81.2614C111.651 80.6477 111.828 79.7727 111.828 78.6364C111.828 77.8807 111.747 77.2372 111.585 76.706C111.426 76.1747 111.195 75.7699 110.894 75.4915C110.596 75.2131 110.237 75.0739 109.816 75.0739C109.185 75.0739 108.693 75.3849 108.337 76.0071C107.982 76.6264 107.805 77.5028 107.805 78.6364C107.805 79.392 107.884 80.0341 108.043 80.5625C108.203 81.0909 108.431 81.4929 108.73 81.7685C109.031 82.044 109.393 82.1818 109.816 82.1818ZM117.538 74.2727V83H116.481V75.3807H116.43L114.299 76.7955V75.7216L116.481 74.2727H117.538ZM122.997 83.1193C122.434 83.1193 121.933 83.0227 121.492 82.8295C121.055 82.6364 120.707 82.3679 120.448 82.0241C120.193 81.6776 120.053 81.2756 120.031 80.8182H121.105C121.127 81.0994 121.224 81.3423 121.394 81.5469C121.565 81.7486 121.788 81.9048 122.063 82.0156C122.339 82.1264 122.644 82.1818 122.98 82.1818C123.355 82.1818 123.687 82.1165 123.977 81.9858C124.266 81.8551 124.494 81.6733 124.658 81.4403C124.823 81.2074 124.906 80.9375 124.906 80.6307C124.906 80.3097 124.826 80.027 124.667 79.7827C124.508 79.5355 124.275 79.3423 123.968 79.2031C123.661 79.0639 123.286 78.9943 122.843 78.9943H122.144V78.0568H122.843C123.19 78.0568 123.494 77.9943 123.755 77.8693C124.019 77.7443 124.225 77.5682 124.373 77.3409C124.524 77.1136 124.599 76.8466 124.599 76.5398C124.599 76.2443 124.533 75.9872 124.403 75.7685C124.272 75.5497 124.087 75.3793 123.849 75.2571C123.613 75.1349 123.335 75.0739 123.014 75.0739C122.712 75.0739 122.428 75.1293 122.161 75.2401C121.897 75.348 121.681 75.5057 121.514 75.7131C121.346 75.9176 121.255 76.1648 121.241 76.4545H120.218C120.235 75.9972 120.373 75.5966 120.632 75.2528C120.89 74.9062 121.228 74.6364 121.646 74.4432C122.066 74.25 122.528 74.1534 123.031 74.1534C123.57 74.1534 124.033 74.2628 124.42 74.4815C124.806 74.6974 125.103 74.983 125.31 75.3381C125.518 75.6932 125.622 76.0767 125.622 76.4886C125.622 76.9801 125.492 77.3991 125.234 77.7457C124.978 78.0923 124.63 78.3324 124.19 78.4659V78.5341C124.741 78.625 125.171 78.8594 125.481 79.2372C125.791 79.6122 125.945 80.0767 125.945 80.6307C125.945 81.1051 125.816 81.5312 125.558 81.9091C125.302 82.2841 124.953 82.5795 124.509 82.7955C124.066 83.0114 123.562 83.1193 122.997 83.1193Z" fill="black"/>
<path d="M219.563 57.6028C221.995 59.0065 222.864 61.8855 221.644 64C220.423 66.1144 217.495 66.8007 215.063 65.3971C212.632 63.9934 211.763 61.1144 212.983 59C214.204 56.8855 217.132 56.1992 219.563 57.6028Z" fill="url(#paint0_radial_130_527)" stroke="#DBD0D0"/>
<rect width="1.14197" height="10.243" transform="matrix(0.00564102 -0.999984 0.995744 0.0921617 212.189 61.6404)" fill="#4F4A4A"/>
<path d="M12.9108 59.89C13.8945 62.5928 12.6533 65.4523 10.2447 66.329C7.83608 67.2056 5.04722 65.813 4.06347 63.1102C3.07972 60.4073 4.32093 57.5478 6.72954 56.6712C9.13815 55.7945 11.927 57.1872 12.9108 59.89Z" fill="url(#paint1_radial_130_527)" stroke="#D0CECE"/>
<rect width="1.17555" height="10.6128" transform="matrix(0.185973 -0.982555 0.966539 0.256521 3.21924 60.7549)" fill="#4F4A4A"/>
<path d="M109.02 132.035L116.512 132.035C114.331 125.966 111.77 125.966 109.02 132.035Z" fill="#EAE6DD" stroke="black" stroke-width="0.5"/>
<ellipse cx="113.003" cy="129.474" rx="1.13793" ry="1.0431" fill="#6E5F5F"/>
<g clip-path="url(#clip0_130_527)">
<path d="M112.813 162.569C104.003 162.569 96.7939 155.692 96.7939 147.286C96.7939 138.88 104.003 132.003 112.813 132.003C121.624 132.003 128.833 138.88 128.833 147.286C128.833 155.692 121.624 162.569 112.813 162.569Z" fill="#ACACAC"/>
<path d="M112.813 160.684C121.1 160.684 127.818 154.275 127.818 146.369C127.818 138.463 121.1 132.054 112.813 132.054C104.526 132.054 97.8086 138.463 97.8086 146.369C97.8086 154.275 104.526 160.684 112.813 160.684Z" fill="#DCD5C2"/>
<path d="M99.5707 148.101C99.5707 140.205 106.299 133.786 114.576 133.786C118.26 133.786 121.624 135.06 124.241 137.148C121.517 134.041 117.406 132.054 112.813 132.054C104.537 132.054 97.8086 138.473 97.8086 146.369C97.8086 150.75 99.8911 154.673 103.148 157.322C100.906 154.826 99.5707 151.616 99.5707 148.101Z" fill="#F4EDDC"/>
<path d="M120.184 132.508C124.311 138.95 124.311 149.376 120.184 155.818C116.057 162.261 109.379 162.261 105.252 155.818" fill="url(#paint2_linear_130_527)" fill-opacity="0.5"/>
<path d="M112.805 162.11C103.995 162.11 96.7859 155.233 96.7859 146.828C96.7859 138.422 103.995 131.545 112.805 131.545C121.616 131.545 128.825 138.422 128.825 146.828C128.825 155.233 121.616 162.11 112.805 162.11ZM112.805 133.481C105.063 133.481 98.815 139.492 98.815 146.828C98.815 154.214 105.116 160.175 112.805 160.175C120.495 160.175 126.796 154.163 126.796 146.828C126.796 139.492 120.548 133.481 112.805 133.481Z" fill="#B0AFAA"/>
<path d="M113.721 136.741C113.721 137.199 113.294 137.963 112.814 137.963C112.333 137.963 111.906 137.199 111.906 136.741C111.906 136.282 112.333 135.875 112.814 135.875C113.294 135.875 113.721 136.282 113.721 136.741Z" fill="#685E46"/>
<path d="M112.814 137.607C113.315 137.607 113.721 137.219 113.721 136.741C113.721 136.262 113.315 135.875 112.814 135.875C112.312 135.875 111.906 136.262 111.906 136.741C111.906 137.219 112.312 137.607 112.814 137.607Z" fill="#8F8775"/>
<path d="M113.454 136.13C113.828 136.486 113.828 136.996 113.454 137.352C113.08 137.709 112.546 137.709 112.173 137.352" fill="white"/>
<path d="M112.92 132.513C112.92 132.564 112.867 132.615 112.813 132.615C112.76 132.615 112.707 132.564 112.707 132.513V131.545C112.707 131.494 112.76 131.443 112.813 131.443C112.867 131.443 112.92 131.494 112.92 131.545V132.513Z" fill="white"/>
<path d="M112.92 161.245C112.92 161.296 112.867 161.346 112.813 161.346C112.76 161.346 112.707 161.296 112.707 161.245V160.277C112.707 160.226 112.76 160.175 112.813 160.175C112.867 160.175 112.92 160.226 112.92 160.277V161.245Z" fill="white"/>
<path d="M123.173 136.69C123.119 136.741 123.066 136.741 123.012 136.69C122.959 136.639 122.959 136.588 123.012 136.537L123.76 135.824C123.813 135.773 123.867 135.773 123.92 135.824C123.974 135.875 123.974 135.926 123.92 135.977L123.173 136.69Z" fill="white"/>
<path d="M101.92 156.965C101.867 157.016 101.813 157.016 101.76 156.965C101.707 156.914 101.707 156.863 101.76 156.812L102.508 156.099C102.561 156.048 102.614 156.048 102.668 156.099C102.721 156.15 102.721 156.201 102.668 156.252L101.92 156.965Z" fill="white"/>
<path d="M127.338 146.522C127.284 146.522 127.231 146.471 127.231 146.42C127.231 146.369 127.284 146.318 127.338 146.318H128.352C128.405 146.318 128.459 146.369 128.459 146.42C128.459 146.471 128.405 146.522 128.352 146.522H127.338Z" fill="white"/>
<path d="M97.2745 146.522C97.2211 146.522 97.1677 146.471 97.1677 146.42C97.1677 146.369 97.2211 146.318 97.2745 146.318H98.2891C98.3425 146.267 98.3959 146.318 98.3959 146.369C98.3959 146.42 98.3425 146.471 98.2891 146.471H97.2745V146.522Z" fill="white"/>
<path d="M123.012 156.303C122.959 156.252 122.959 156.201 123.012 156.15C123.066 156.099 123.119 156.099 123.173 156.15L123.92 156.863C123.974 156.914 123.974 156.965 123.92 157.016C123.867 157.067 123.813 157.067 123.76 157.016L123.012 156.303Z" fill="white"/>
<path d="M101.707 135.977C101.653 135.926 101.653 135.875 101.707 135.824C101.76 135.773 101.813 135.773 101.867 135.824L102.614 136.537C102.668 136.588 102.668 136.639 102.614 136.69C102.561 136.741 102.508 136.741 102.454 136.69L101.707 135.977Z" fill="white"/>
<path d="M105.658 134.347C105.712 134.397 105.658 134.499 105.605 134.499C105.551 134.55 105.445 134.499 105.445 134.448L104.911 133.582C104.857 133.531 104.911 133.43 104.964 133.43C105.017 133.379 105.124 133.43 105.124 133.48L105.658 134.347Z" fill="white"/>
<path d="M120.716 159.207C120.77 159.258 120.716 159.36 120.663 159.36C120.609 159.411 120.503 159.36 120.503 159.309L119.969 158.443C119.915 158.392 119.969 158.29 120.022 158.29C120.075 158.239 120.182 158.29 120.182 158.341L120.716 159.207Z" fill="white"/>
<path d="M116.711 133.022C116.711 133.073 116.605 133.124 116.551 133.124C116.498 133.124 116.444 133.022 116.444 132.971L116.711 132.003C116.711 131.952 116.818 131.901 116.872 131.901C116.925 131.901 116.978 132.003 116.978 132.054L116.711 133.022Z" fill="white"/>
<path d="M108.915 160.735C108.915 160.786 108.808 160.837 108.755 160.837C108.702 160.837 108.648 160.735 108.648 160.684L108.915 159.716C108.915 159.665 109.022 159.614 109.075 159.614C109.129 159.614 109.182 159.716 109.182 159.767L108.915 160.735Z" fill="white"/>
<path d="M125.469 139.543C125.415 139.594 125.308 139.543 125.308 139.492C125.255 139.441 125.308 139.339 125.362 139.339L126.27 138.83C126.323 138.779 126.43 138.83 126.43 138.881C126.483 138.932 126.43 139.033 126.376 139.033L125.469 139.543Z" fill="white"/>
<path d="M99.4103 153.909C99.3569 153.96 99.2501 153.909 99.2501 153.858C99.1967 153.807 99.2501 153.705 99.3035 153.705L100.211 153.195C100.265 153.144 100.372 153.195 100.372 153.246C100.425 153.297 100.372 153.399 100.318 153.399L99.4103 153.909Z" fill="white"/>
<path d="M126.804 150.088C126.75 150.088 126.697 149.986 126.697 149.935C126.697 149.884 126.804 149.833 126.857 149.833L127.872 150.088C127.925 150.088 127.978 150.19 127.978 150.241C127.978 150.292 127.872 150.343 127.818 150.343L126.804 150.088Z" fill="white"/>
<path d="M97.755 142.65C97.7016 142.65 97.6482 142.548 97.6482 142.497C97.6482 142.446 97.755 142.396 97.8084 142.396L98.823 142.65C98.8763 142.65 98.9297 142.752 98.9297 142.803C98.9297 142.854 98.823 142.905 98.7696 142.905L97.755 142.65Z" fill="white"/>
<path d="M100.318 139.339C100.372 139.39 100.425 139.441 100.372 139.492C100.318 139.543 100.265 139.594 100.211 139.543L99.3035 139.033C99.2501 138.983 99.1967 138.932 99.2501 138.881C99.3035 138.83 99.3569 138.779 99.4103 138.83L100.318 139.339Z" fill="white"/>
<path d="M126.376 153.705C126.43 153.756 126.483 153.807 126.43 153.858C126.376 153.909 126.323 153.96 126.27 153.909L125.362 153.399C125.308 153.348 125.255 153.297 125.308 153.246C125.362 153.195 125.415 153.144 125.469 153.195L126.376 153.705Z" fill="white"/>
<path d="M109.182 132.971C109.182 133.022 109.182 133.124 109.075 133.124C109.022 133.124 108.915 133.124 108.915 133.022L108.648 132.054C108.648 132.003 108.648 131.901 108.755 131.901C108.808 131.901 108.915 131.901 108.915 132.003L109.182 132.971Z" fill="white"/>
<path d="M116.978 160.684C116.978 160.735 116.978 160.837 116.872 160.837C116.818 160.837 116.711 160.837 116.711 160.735L116.444 159.767C116.444 159.716 116.444 159.614 116.551 159.614C116.605 159.614 116.711 159.614 116.711 159.716L116.978 160.684Z" fill="white"/>
<path d="M120.182 134.448C120.129 134.499 120.075 134.55 120.022 134.499C119.969 134.448 119.915 134.397 119.969 134.347L120.503 133.48C120.556 133.43 120.609 133.379 120.663 133.43C120.716 133.48 120.77 133.531 120.716 133.582L120.182 134.448Z" fill="white"/>
<path d="M105.124 159.309C105.071 159.36 105.017 159.411 104.964 159.36C104.911 159.309 104.857 159.258 104.911 159.207L105.445 158.341C105.498 158.29 105.551 158.239 105.605 158.29C105.658 158.341 105.712 158.392 105.658 158.443L105.124 159.309Z" fill="white"/>
<path d="M126.857 142.905C126.804 142.905 126.697 142.905 126.697 142.803C126.697 142.752 126.697 142.65 126.804 142.65L127.818 142.396C127.872 142.396 127.978 142.396 127.978 142.497C127.978 142.548 127.978 142.65 127.872 142.65L126.857 142.905Z" fill="white"/>
<path d="M97.8084 150.343C97.755 150.343 97.6482 150.343 97.6482 150.241C97.6482 150.19 97.6482 150.088 97.755 150.088L98.7696 149.833C98.823 149.833 98.9297 149.833 98.9297 149.935C98.9297 149.986 98.9297 150.088 98.823 150.088L97.8084 150.343Z" fill="white"/>
<path d="M108.651 143.879C108.651 140.677 112.945 140.237 114.53 140.749C116.891 141.511 116.891 143.879 116.891 143.879C116.522 149.003 110.348 151.099 111.107 151.515C111.865 151.93 110.737 151.515 112.444 151.515C113.013 151.654 116.269 151.557 116.522 151.515C116.977 151.439 117.597 150.137 117.849 149.568H118.229V153.93H108.651C108.556 152.034 109.125 150.232 110.548 149.379C113.487 147.615 114.91 144.827 114.91 143.879C114.91 141.748 111.686 142.835 111.686 143.404C111.686 145.965 108.651 146.249 108.651 143.879Z" fill="black" fill-opacity="0.71"/>
</g>
<path d="M112.624 124.448H113.382V128.241C113.382 128.451 113.213 128.62 113.003 128.62V128.62C112.794 128.62 112.624 128.451 112.624 128.241V124.448Z" fill="#DBCCCC"/>
<rect x="108.072" y="85" width="10.0517" height="39.4483" rx="3" fill="#6B2B2D"/>
<path d="M109.02 122.641L108.92 122.741V122.955C108.92 123.01 108.965 123.055 109.02 123.055V123.281C108.965 123.281 108.92 123.326 108.92 123.381V123.808C108.92 123.863 108.965 123.908 109.02 123.908V124.135C108.965 124.135 108.92 124.18 108.92 124.235V124.448L109.02 124.548H109.224C109.279 124.548 109.324 124.503 109.324 124.448H109.532C109.532 124.503 109.577 124.548 109.632 124.548H110.04C110.095 124.548 110.14 124.503 110.14 124.448H110.347C110.347 124.503 110.392 124.548 110.447 124.548H110.855C110.91 124.548 110.955 124.503 110.955 124.448H111.163C111.163 124.503 111.208 124.548 111.263 124.548H111.671C111.726 124.548 111.771 124.503 111.771 124.448H111.978C111.978 124.503 112.023 124.548 112.078 124.548H112.486C112.541 124.548 112.586 124.503 112.586 124.448H112.794C112.794 124.503 112.839 124.548 112.894 124.548H113.302C113.357 124.548 113.402 124.503 113.402 124.448H113.609C113.609 124.503 113.654 124.548 113.709 124.548H114.117C114.172 124.548 114.217 124.503 114.217 124.448H114.425C114.425 124.503 114.47 124.548 114.525 124.548H114.933C114.988 124.548 115.033 124.503 115.033 124.448H115.241C115.241 124.503 115.285 124.548 115.341 124.548H115.748C115.804 124.548 115.848 124.503 115.848 124.448H116.056C116.056 124.503 116.101 124.548 116.156 124.548H116.564C116.619 124.548 116.664 124.503 116.664 124.448H116.872C116.872 124.503 116.916 124.548 116.972 124.548H117.175L117.275 124.448V124.235C117.275 124.18 117.231 124.135 117.175 124.135V123.908C117.231 123.908 117.275 123.863 117.275 123.808V123.381C117.275 123.326 117.231 123.281 117.175 123.281V123.055C117.231 123.055 117.275 123.01 117.275 122.955V122.741L117.175 122.641H116.972C116.916 122.641 116.872 122.686 116.872 122.741H116.664C116.664 122.686 116.619 122.641 116.564 122.641H116.156C116.101 122.641 116.056 122.686 116.056 122.741H115.848C115.848 122.686 115.804 122.641 115.748 122.641H115.341C115.285 122.641 115.241 122.686 115.241 122.741H115.033C115.033 122.686 114.988 122.641 114.933 122.641H114.525C114.47 122.641 114.425 122.686 114.425 122.741H114.217C114.217 122.686 114.172 122.641 114.117 122.641H113.709C113.654 122.641 113.609 122.686 113.609 122.741H113.402C113.402 122.686 113.357 122.641 113.302 122.641H112.894C112.839 122.641 112.794 122.686 112.794 122.741H112.586C112.586 122.686 112.541 122.641 112.486 122.641H112.078C112.023 122.641 111.978 122.686 111.978 122.741H111.771C111.771 122.686 111.726 122.641 111.671 122.641H111.263C111.208 122.641 111.163 122.686 111.163 122.741H110.955C110.955 122.686 110.91 122.641 110.855 122.641H110.447C110.392 122.641 110.347 122.686 110.347 122.741H110.14C110.14 122.686 110.095 122.641 110.04 122.641H109.632C109.577 122.641 109.532 122.686 109.532 122.741H109.324C109.324 122.686 109.279 122.641 109.224 122.641H109.02Z" fill="url(#paint3_angular_130_527)" stroke="black" stroke-width="0.2" stroke-miterlimit="1.41421" stroke-linecap="round" stroke-dasharray="0.4 0.4"/>
<g clip-path="url(#clip1_130_527)">
<path d="M207.941 22.3044L195.991 21.5806C195.914 21.5764 195.831 21.5715 195.753 21.5806C189.639 22.2952 187.06 23.7626 186.084 23.8326L180.229 24.1576L177.48 17.3016C177.471 17.2795 177.46 17.2586 177.451 17.2366C177.633 17.0606 177.815 16.8844 178.001 16.704C193.436 1.75202 194.455 0.370203 194.281 0.0511831C194.108 -0.267837 192.949 0.459124 177.371 15.5491C177.116 15.7966 176.865 16.0396 176.617 16.2798C176.252 16.0882 175.834 16.0666 175.436 16.26C174.725 16.6055 174.298 17.5293 174.343 18.4883C161.679 30.8043 160.929 31.9048 161.09 32.2019C161.251 32.4959 162.371 31.7828 174.663 19.9302L176.982 28.4155C177.245 29.3743 177.92 30.079 178.733 30.1265L179.027 30.1433L185.703 30.5305L187.535 43.9397L184.908 53.6433L180.369 61.3974C179.575 62.7602 179.687 64.7392 180.664 65.9138C181.687 67.1449 183.264 67.0372 184.188 65.6732L189.494 57.8351C189.64 57.6174 189.77 57.3575 189.863 57.0764L189.944 56.8344L193.414 46.4137C193.525 46.6113 193.65 46.7991 193.791 46.973L199.196 53.6621L196.893 63.6981C196.522 65.333 197.142 67.1161 198.354 67.7619C199.634 68.4434 201.086 67.6125 201.597 65.9059L205.236 53.7592C205.619 52.476 205.433 50.9547 204.666 49.8986L204.53 49.7109L199.003 42.1004L197.146 28.4988L207.941 27.8453C209 27.7762 209.875 26.6419 209.924 25.2003C209.976 23.6708 209.088 22.3739 207.941 22.3044Z" fill="black"/>
<path d="M191.236 8.67734C188.599 7.5017 185.747 9.39946 184.866 12.9135C183.985 16.4291 185.407 20.2313 188.044 21.4062C190.68 22.5817 193.532 20.6848 194.413 17.17C195.295 13.6544 193.872 9.85284 191.236 8.67734Z" fill="black"/>
</g>
<defs>
<radialGradient id="paint0_radial_130_527" cx="0" cy="0" r="1" gradientUnits="userSpaceOnUse" gradientTransform="translate(217.313 61.5) rotate(77.4047) scale(7.56631 6.87787)">
<stop stop-color="#ABA7A7"/>
<stop offset="0.416667" stop-color="white"/>
</radialGradient>
<radialGradient id="paint1_radial_130_527" cx="0" cy="0" r="1" gradientUnits="userSpaceOnUse" gradientTransform="translate(8.48712 61.5001) rotate(117.854) scale(7.82422 7.10206)">
<stop stop-color="#ABA7A7"/>
<stop offset="0.4375" stop-color="white"/>
</radialGradient>
<linearGradient id="paint2_linear_130_527" x1="111.017" y1="136.992" x2="120.132" y2="154.756" gradientUnits="userSpaceOnUse">
<stop stop-color="white"/>
<stop offset="0.932292" stop-color="#EDEAE3"/>
</linearGradient>
<radialGradient id="paint3_angular_130_527" cx="0" cy="0" r="1" gradientUnits="userSpaceOnUse" gradientTransform="translate(113.098 124.306) rotate(-159.007) scale(4.36748 43.6027)">
<stop stop-color="#ECD8A1"/>
<stop offset="1" stop-color="#ECC456"/>
</radialGradient>
<clipPath id="clip0_130_527">
<rect width="33" height="31.4828" fill="white" transform="translate(96.3135 131.086)"/>
</clipPath>
<clipPath id="clip1_130_527">
<rect width="51" height="68" fill="white" transform="translate(160)"/>
</clipPath>
</defs>
</svg>
