<svg width="226" height="163" viewBox="0 0 226 163" fill="none" xmlns="http://www.w3.org/2000/svg">
<path d="M216.997 55H8.15118C0.367555 55 0.367596 68 8.15118 68H216.997C226.945 68 226.557 55.0001 216.997 55Z" stroke="black" stroke-width="3"/>
<path d="M46.2386 37H43.0682C42.8807 36.0881 42.5526 35.2869 42.0838 34.5966C41.6236 33.9062 41.0611 33.3267 40.3963 32.858C39.7401 32.3807 39.0114 32.0227 38.2102 31.7841C37.4091 31.5455 36.5739 31.4261 35.7045 31.4261C34.1193 31.4261 32.6832 31.8267 31.3963 32.6278C30.1179 33.429 29.0994 34.6094 28.3409 36.169C27.5909 37.7287 27.2159 39.642 27.2159 41.9091C27.2159 44.1761 27.5909 46.0895 28.3409 47.6491C29.0994 49.2088 30.1179 50.3892 31.3963 51.1903C32.6832 51.9915 34.1193 52.392 35.7045 52.392C36.5739 52.392 37.4091 52.2727 38.2102 52.0341C39.0114 51.7955 39.7401 51.4418 40.3963 50.973C41.0611 50.4957 41.6236 49.9119 42.0838 49.2216C42.5526 48.5227 42.8807 47.7216 43.0682 46.8182H46.2386C46 48.1562 45.5653 49.3537 44.9347 50.4105C44.304 51.4673 43.5199 52.3665 42.5824 53.108C41.6449 53.8409 40.5923 54.3991 39.4247 54.7827C38.2656 55.1662 37.0256 55.358 35.7045 55.358C33.4716 55.358 31.4858 54.8125 29.7472 53.7216C28.0085 52.6307 26.6406 51.0795 25.6435 49.0682C24.6463 47.0568 24.1477 44.6705 24.1477 41.9091C24.1477 39.1477 24.6463 36.7614 25.6435 34.75C26.6406 32.7386 28.0085 31.1875 29.7472 30.0966C31.4858 29.0057 33.4716 28.4602 35.7045 28.4602C37.0256 28.4602 38.2656 28.652 39.4247 29.0355C40.5923 29.419 41.6449 29.9815 42.5824 30.723C43.5199 31.456 44.304 32.3509 44.9347 33.4077C45.5653 34.456 46 35.6534 46.2386 37ZM50.9528 55V35.3636H53.8675V38.3295H54.0721C54.43 37.358 55.0778 36.5696 56.0153 35.9645C56.9528 35.3594 58.0096 35.0568 59.1857 35.0568C59.4073 35.0568 59.6843 35.0611 60.0167 35.0696C60.3491 35.0781 60.6005 35.0909 60.771 35.108V38.1761C60.6687 38.1506 60.4343 38.1122 60.0678 38.0611C59.7099 38.0014 59.3306 37.9716 58.93 37.9716C57.9755 37.9716 57.1232 38.1719 56.3732 38.5724C55.6317 38.9645 55.0437 39.5099 54.609 40.2088C54.1829 40.8991 53.9698 41.6875 53.9698 42.5739V55H50.9528ZM64.3473 55V35.3636H67.3643V55H64.3473ZM65.8814 32.0909C65.2933 32.0909 64.7862 31.8906 64.3601 31.4901C63.9425 31.0895 63.7337 30.608 63.7337 30.0455C63.7337 29.483 63.9425 29.0014 64.3601 28.6009C64.7862 28.2003 65.2933 28 65.8814 28C66.4695 28 66.9723 28.2003 67.3899 28.6009C67.8161 29.0014 68.0291 29.483 68.0291 30.0455C68.0291 30.608 67.8161 31.0895 67.3899 31.4901C66.9723 31.8906 66.4695 32.0909 65.8814 32.0909ZM80.8675 55.4091C79.0266 55.4091 77.4414 54.9744 76.1119 54.1051C74.7823 53.2358 73.7596 52.0384 73.0437 50.5128C72.3278 48.9872 71.9698 47.2443 71.9698 45.2841C71.9698 43.2898 72.3363 41.5298 73.0692 40.0043C73.8107 38.4702 74.842 37.2727 76.163 36.4119C77.4925 35.5426 79.0437 35.108 80.8164 35.108C82.1971 35.108 83.4414 35.3636 84.5494 35.875C85.6573 36.3864 86.565 37.1023 87.2724 38.0227C87.9798 38.9432 88.4187 40.017 88.5891 41.2443H85.5721C85.342 40.3494 84.8306 39.5568 84.038 38.8665C83.2539 38.1676 82.1971 37.8182 80.8675 37.8182C79.6914 37.8182 78.6602 38.125 77.7738 38.7386C76.896 39.3437 76.2099 40.2003 75.7156 41.3082C75.2298 42.4077 74.9869 43.6989 74.9869 45.1818C74.9869 46.6989 75.2255 48.0199 75.7028 49.1449C76.1886 50.2699 76.8704 51.1435 77.7482 51.7656C78.6346 52.3878 79.6744 52.6989 80.8675 52.6989C81.6516 52.6989 82.3633 52.5625 83.0025 52.2898C83.6417 52.017 84.1829 51.625 84.6261 51.1136C85.0692 50.6023 85.3846 49.9886 85.5721 49.2727H88.5891C88.4187 50.4318 87.9968 51.4759 87.3235 52.4048C86.6587 53.3253 85.7766 54.0582 84.6772 54.6037C83.5863 55.1406 82.3164 55.4091 80.8675 55.4091ZM95.8121 47.8409L95.761 44.108H96.3746L104.966 35.3636H108.699L99.5451 44.6193H99.2894L95.8121 47.8409ZM92.9996 55V28.8182H96.0167V55H92.9996ZM105.477 55L97.8065 45.2841L99.9542 43.1875L109.312 55H105.477ZM120.006 55.4091C118.114 55.4091 116.482 54.9915 115.11 54.1562C113.746 53.3125 112.694 52.1364 111.952 50.6278C111.219 49.1108 110.853 47.3466 110.853 45.3352C110.853 43.3239 111.219 41.5511 111.952 40.017C112.694 38.4744 113.725 37.2727 115.046 36.4119C116.375 35.5426 117.926 35.108 119.699 35.108C120.722 35.108 121.732 35.2784 122.729 35.6193C123.726 35.9602 124.634 36.5142 125.452 37.2812C126.27 38.0398 126.922 39.0455 127.408 40.2983C127.894 41.5511 128.137 43.0937 128.137 44.9261V46.2045H113V43.5966H125.069C125.069 42.4886 124.847 41.5 124.404 40.6307C123.969 39.7614 123.347 39.0753 122.537 38.5724C121.736 38.0696 120.79 37.8182 119.699 37.8182C118.498 37.8182 117.458 38.1165 116.58 38.7131C115.711 39.3011 115.042 40.0682 114.573 41.0142C114.104 41.9602 113.87 42.9744 113.87 44.0568V45.7955C113.87 47.2784 114.125 48.5355 114.637 49.5668C115.157 50.5895 115.877 51.3693 116.797 51.9062C117.718 52.4347 118.787 52.6989 120.006 52.6989C120.799 52.6989 121.515 52.5881 122.154 52.3665C122.801 52.1364 123.36 51.7955 123.828 51.3438C124.297 50.8835 124.659 50.3125 124.915 49.6307L127.83 50.4489C127.523 51.4375 127.007 52.3068 126.283 53.0568C125.559 53.7983 124.664 54.3778 123.598 54.7955C122.533 55.2045 121.336 55.4091 120.006 55.4091ZM141.266 35.3636V37.9205H131.09V35.3636H141.266ZM134.056 30.6591H137.073V49.375C137.073 50.2273 137.196 50.8665 137.444 51.2926C137.699 51.7102 138.023 51.9915 138.415 52.1364C138.816 52.2727 139.238 52.3409 139.681 52.3409C140.013 52.3409 140.286 52.3239 140.499 52.2898C140.712 52.2472 140.882 52.2131 141.01 52.1875L141.624 54.8977C141.419 54.9744 141.134 55.0511 140.767 55.1278C140.401 55.2131 139.936 55.2557 139.374 55.2557C138.522 55.2557 137.686 55.0724 136.868 54.706C136.059 54.3395 135.385 53.7812 134.848 53.0312C134.32 52.2812 134.056 51.3352 134.056 50.1932V30.6591Z" fill="black"/>
<path d="M210.552 78.45L14.3134 78.0176" stroke="#9BADB0"/>
<path d="M210.313 69V87H14.3135V69H210.313Z" stroke="#374653" stroke-width="3"/>
<path d="M99.7039 83V82.233L102.585 79.0795C102.923 78.7102 103.201 78.3892 103.42 78.1165C103.639 77.8409 103.801 77.5824 103.906 77.3409C104.014 77.0966 104.068 76.8409 104.068 76.5739C104.068 76.267 103.994 76.0014 103.846 75.777C103.701 75.5526 103.502 75.3793 103.249 75.2571C102.997 75.1349 102.712 75.0739 102.397 75.0739C102.062 75.0739 101.769 75.1435 101.519 75.2827C101.272 75.419 101.08 75.6108 100.944 75.858C100.81 76.1051 100.744 76.3949 100.744 76.7273H99.738C99.738 76.2159 99.8559 75.767 100.092 75.3807C100.328 74.9943 100.649 74.6932 101.055 74.4773C101.464 74.2614 101.923 74.1534 102.431 74.1534C102.943 74.1534 103.396 74.2614 103.791 74.4773C104.185 74.6932 104.495 74.9844 104.72 75.3509C104.944 75.7173 105.056 76.125 105.056 76.5739C105.056 76.8949 104.998 77.2088 104.882 77.5156C104.768 77.8196 104.569 78.1591 104.285 78.5341C104.004 78.9062 103.613 79.3608 103.113 79.8977L101.153 81.9943V82.0625H105.21V83H99.7039ZM109.816 83.1193C109.174 83.1193 108.627 82.9446 108.176 82.5952C107.724 82.2429 107.379 81.733 107.14 81.0653C106.901 80.3949 106.782 79.5852 106.782 78.6364C106.782 77.6932 106.901 76.8878 107.14 76.2202C107.382 75.5497 107.728 75.0384 108.18 74.6861C108.634 74.331 109.18 74.1534 109.816 74.1534C110.453 74.1534 110.997 74.331 111.448 74.6861C111.903 75.0384 112.249 75.5497 112.488 76.2202C112.73 76.8878 112.85 77.6932 112.85 78.6364C112.85 79.5852 112.731 80.3949 112.492 81.0653C112.254 81.733 111.908 82.2429 111.457 82.5952C111.005 82.9446 110.458 83.1193 109.816 83.1193ZM109.816 82.1818C110.453 82.1818 110.947 81.875 111.299 81.2614C111.651 80.6477 111.828 79.7727 111.828 78.6364C111.828 77.8807 111.747 77.2372 111.585 76.706C111.426 76.1747 111.195 75.7699 110.894 75.4915C110.596 75.2131 110.237 75.0739 109.816 75.0739C109.185 75.0739 108.693 75.3849 108.337 76.0071C107.982 76.6264 107.805 77.5028 107.805 78.6364C107.805 79.392 107.884 80.0341 108.043 80.5625C108.203 81.0909 108.431 81.4929 108.73 81.7685C109.031 82.044 109.393 82.1818 109.816 82.1818ZM117.538 74.2727V83H116.481V75.3807H116.43L114.299 76.7955V75.7216L116.481 74.2727H117.538ZM122.945 83.1193C122.587 83.1136 122.23 83.0455 121.872 82.9148C121.514 82.7841 121.187 82.5639 120.891 82.2543C120.596 81.9418 120.359 81.5199 120.18 80.9886C120.001 80.4545 119.911 79.7841 119.911 78.9773C119.911 78.2045 119.984 77.5199 120.129 76.9233C120.274 76.3239 120.484 75.8196 120.759 75.4105C121.035 74.9986 121.367 74.6861 121.757 74.473C122.149 74.2599 122.59 74.1534 123.082 74.1534C123.57 74.1534 124.005 74.2514 124.386 74.4474C124.769 74.6406 125.082 74.9105 125.323 75.2571C125.565 75.6037 125.721 76.0028 125.792 76.4545H124.752C124.656 76.0625 124.468 75.7372 124.19 75.4787C123.911 75.2202 123.542 75.0909 123.082 75.0909C122.406 75.0909 121.873 75.3849 121.484 75.973C121.097 76.5611 120.903 77.3864 120.9 78.4489H120.968C121.127 78.2074 121.316 78.0014 121.535 77.831C121.757 77.6577 122.001 77.5241 122.268 77.4304C122.535 77.3366 122.818 77.2898 123.116 77.2898C123.616 77.2898 124.073 77.4148 124.488 77.6648C124.903 77.9119 125.235 78.2543 125.485 78.6918C125.735 79.1264 125.86 79.625 125.86 80.1875C125.86 80.7273 125.739 81.2216 125.498 81.6705C125.257 82.1165 124.917 82.4716 124.48 82.7358C124.045 82.9972 123.533 83.125 122.945 83.1193ZM122.945 82.1818C123.303 82.1818 123.624 82.0923 123.908 81.9134C124.195 81.7344 124.421 81.4943 124.586 81.1932C124.754 80.892 124.837 80.5568 124.837 80.1875C124.837 79.8267 124.757 79.4986 124.595 79.2031C124.435 78.9048 124.215 78.6676 123.934 78.4915C123.656 78.3153 123.337 78.2273 122.98 78.2273C122.71 78.2273 122.458 78.2812 122.225 78.3892C121.992 78.4943 121.788 78.6392 121.612 78.8239C121.438 79.0085 121.302 79.2202 121.203 79.4588C121.103 79.6946 121.053 79.9432 121.053 80.2045C121.053 80.5511 121.134 80.875 121.296 81.1761C121.461 81.4773 121.685 81.7202 121.97 81.9048C122.257 82.0895 122.582 82.1818 122.945 82.1818Z" fill="black"/>
<path d="M215.063 57.6028C217.495 56.1992 220.423 56.8855 221.644 59C222.864 61.1144 221.995 63.9934 219.563 65.3971C217.132 66.8007 214.204 66.1144 212.983 64C211.763 61.8855 212.632 59.0065 215.063 57.6028Z" fill="url(#paint0_radial_130_611)" stroke="#DBD0D0"/>
<rect width="1.14197" height="10.243" transform="matrix(-0.863191 -0.504877 0.577686 -0.816259 214.873 66.0081)" fill="#4F4A4A"/>
<path d="M8.4872 56.7924C11.3635 56.7924 13.626 58.9368 13.626 61.5C13.626 64.0632 11.3635 66.2075 8.4872 66.2075C5.61091 66.2075 3.34839 64.0632 3.34839 61.5C3.34839 58.9368 5.61091 56.7924 8.4872 56.7924Z" fill="url(#paint1_radial_130_611)" stroke="#D0CECE"/>
<rect width="1.17555" height="10.6128" transform="matrix(-0.859693 -0.510811 0.571626 -0.820514 5.98511 66.1953)" fill="#4F4A4A"/>
<path d="M109.02 132.035L116.512 132.035C114.331 125.966 111.77 125.966 109.02 132.035Z" fill="#EAE6DD" stroke="black" stroke-width="0.5"/>
<ellipse cx="113.003" cy="129.474" rx="1.13793" ry="1.0431" fill="#6E5F5F"/>
<g clip-path="url(#clip0_130_611)">
<path d="M112.813 162.569C104.003 162.569 96.7939 155.692 96.7939 147.286C96.7939 138.88 104.003 132.003 112.813 132.003C121.624 132.003 128.833 138.88 128.833 147.286C128.833 155.692 121.624 162.569 112.813 162.569Z" fill="#ACACAC"/>
<path d="M112.813 160.684C121.1 160.684 127.818 154.275 127.818 146.369C127.818 138.463 121.1 132.054 112.813 132.054C104.526 132.054 97.8086 138.463 97.8086 146.369C97.8086 154.275 104.526 160.684 112.813 160.684Z" fill="#DCD5C2"/>
<path d="M99.5707 148.101C99.5707 140.205 106.299 133.786 114.576 133.786C118.26 133.786 121.624 135.06 124.241 137.148C121.517 134.041 117.406 132.054 112.813 132.054C104.537 132.054 97.8086 138.473 97.8086 146.369C97.8086 150.75 99.8911 154.673 103.148 157.322C100.906 154.826 99.5707 151.616 99.5707 148.101Z" fill="#F4EDDC"/>
<path d="M120.184 132.508C124.311 138.95 124.311 149.376 120.184 155.818C116.057 162.261 109.379 162.261 105.252 155.818" fill="url(#paint2_linear_130_611)" fill-opacity="0.5"/>
<path d="M112.805 162.11C103.995 162.11 96.7859 155.233 96.7859 146.828C96.7859 138.422 103.995 131.545 112.805 131.545C121.616 131.545 128.825 138.422 128.825 146.828C128.825 155.233 121.616 162.11 112.805 162.11ZM112.805 133.481C105.063 133.481 98.815 139.492 98.815 146.828C98.815 154.214 105.116 160.175 112.805 160.175C120.495 160.175 126.796 154.163 126.796 146.828C126.796 139.492 120.548 133.481 112.805 133.481Z" fill="#B0AFAA"/>
<path d="M113.721 136.741C113.721 137.199 113.294 137.963 112.814 137.963C112.333 137.963 111.906 137.199 111.906 136.741C111.906 136.282 112.333 135.875 112.814 135.875C113.294 135.875 113.721 136.282 113.721 136.741Z" fill="#685E46"/>
<path d="M112.814 137.607C113.315 137.607 113.721 137.219 113.721 136.741C113.721 136.262 113.315 135.875 112.814 135.875C112.312 135.875 111.906 136.262 111.906 136.741C111.906 137.219 112.312 137.607 112.814 137.607Z" fill="#8F8775"/>
<path d="M113.454 136.13C113.828 136.486 113.828 136.996 113.454 137.352C113.08 137.709 112.546 137.709 112.173 137.352" fill="white"/>
<path d="M112.92 132.513C112.92 132.564 112.867 132.615 112.813 132.615C112.76 132.615 112.707 132.564 112.707 132.513V131.545C112.707 131.494 112.76 131.443 112.813 131.443C112.867 131.443 112.92 131.494 112.92 131.545V132.513Z" fill="white"/>
<path d="M112.92 161.245C112.92 161.296 112.867 161.346 112.813 161.346C112.76 161.346 112.707 161.296 112.707 161.245V160.277C112.707 160.226 112.76 160.175 112.813 160.175C112.867 160.175 112.92 160.226 112.92 160.277V161.245Z" fill="white"/>
<path d="M123.173 136.69C123.119 136.741 123.066 136.741 123.012 136.69C122.959 136.639 122.959 136.588 123.012 136.537L123.76 135.824C123.813 135.773 123.867 135.773 123.92 135.824C123.974 135.875 123.974 135.926 123.92 135.977L123.173 136.69Z" fill="white"/>
<path d="M101.92 156.965C101.867 157.016 101.813 157.016 101.76 156.965C101.707 156.914 101.707 156.863 101.76 156.812L102.508 156.099C102.561 156.048 102.614 156.048 102.668 156.099C102.721 156.15 102.721 156.201 102.668 156.252L101.92 156.965Z" fill="white"/>
<path d="M127.338 146.522C127.284 146.522 127.231 146.471 127.231 146.42C127.231 146.369 127.284 146.318 127.338 146.318H128.352C128.405 146.318 128.459 146.369 128.459 146.42C128.459 146.471 128.405 146.522 128.352 146.522H127.338Z" fill="white"/>
<path d="M97.2745 146.522C97.2211 146.522 97.1677 146.471 97.1677 146.42C97.1677 146.369 97.2211 146.318 97.2745 146.318H98.2891C98.3425 146.267 98.3959 146.318 98.3959 146.369C98.3959 146.42 98.3425 146.471 98.2891 146.471H97.2745V146.522Z" fill="white"/>
<path d="M123.012 156.303C122.959 156.252 122.959 156.201 123.012 156.15C123.066 156.099 123.119 156.099 123.173 156.15L123.92 156.863C123.974 156.914 123.974 156.965 123.92 157.016C123.867 157.067 123.813 157.067 123.76 157.016L123.012 156.303Z" fill="white"/>
<path d="M101.707 135.977C101.653 135.926 101.653 135.875 101.707 135.824C101.76 135.773 101.813 135.773 101.867 135.824L102.614 136.537C102.668 136.588 102.668 136.639 102.614 136.69C102.561 136.741 102.508 136.741 102.454 136.69L101.707 135.977Z" fill="white"/>
<path d="M105.658 134.347C105.712 134.397 105.658 134.499 105.605 134.499C105.551 134.55 105.445 134.499 105.445 134.448L104.911 133.582C104.857 133.531 104.911 133.43 104.964 133.43C105.017 133.379 105.124 133.43 105.124 133.48L105.658 134.347Z" fill="white"/>
<path d="M120.716 159.207C120.77 159.258 120.716 159.36 120.663 159.36C120.609 159.411 120.503 159.36 120.503 159.309L119.969 158.443C119.915 158.392 119.969 158.29 120.022 158.29C120.075 158.239 120.182 158.29 120.182 158.341L120.716 159.207Z" fill="white"/>
<path d="M116.711 133.022C116.711 133.073 116.605 133.124 116.551 133.124C116.498 133.124 116.444 133.022 116.444 132.971L116.711 132.003C116.711 131.952 116.818 131.901 116.872 131.901C116.925 131.901 116.978 132.003 116.978 132.054L116.711 133.022Z" fill="white"/>
<path d="M108.915 160.735C108.915 160.786 108.808 160.837 108.755 160.837C108.702 160.837 108.648 160.735 108.648 160.684L108.915 159.716C108.915 159.665 109.022 159.614 109.075 159.614C109.129 159.614 109.182 159.716 109.182 159.767L108.915 160.735Z" fill="white"/>
<path d="M125.469 139.543C125.415 139.594 125.308 139.543 125.308 139.492C125.255 139.441 125.308 139.339 125.362 139.339L126.27 138.83C126.323 138.779 126.43 138.83 126.43 138.881C126.483 138.932 126.43 139.033 126.376 139.033L125.469 139.543Z" fill="white"/>
<path d="M99.4103 153.909C99.3569 153.96 99.2501 153.909 99.2501 153.858C99.1967 153.807 99.2501 153.705 99.3035 153.705L100.211 153.195C100.265 153.144 100.372 153.195 100.372 153.246C100.425 153.297 100.372 153.399 100.318 153.399L99.4103 153.909Z" fill="white"/>
<path d="M126.804 150.088C126.75 150.088 126.697 149.986 126.697 149.935C126.697 149.884 126.804 149.833 126.857 149.833L127.872 150.088C127.925 150.088 127.978 150.19 127.978 150.241C127.978 150.292 127.872 150.343 127.818 150.343L126.804 150.088Z" fill="white"/>
<path d="M97.755 142.65C97.7016 142.65 97.6482 142.548 97.6482 142.497C97.6482 142.446 97.755 142.396 97.8084 142.396L98.823 142.65C98.8763 142.65 98.9297 142.752 98.9297 142.803C98.9297 142.854 98.823 142.905 98.7696 142.905L97.755 142.65Z" fill="white"/>
<path d="M100.318 139.339C100.372 139.39 100.425 139.441 100.372 139.492C100.318 139.543 100.265 139.594 100.211 139.543L99.3035 139.033C99.2501 138.983 99.1967 138.932 99.2501 138.881C99.3035 138.83 99.3569 138.779 99.4103 138.83L100.318 139.339Z" fill="white"/>
<path d="M126.376 153.705C126.43 153.756 126.483 153.807 126.43 153.858C126.376 153.909 126.323 153.96 126.27 153.909L125.362 153.399C125.308 153.348 125.255 153.297 125.308 153.246C125.362 153.195 125.415 153.144 125.469 153.195L126.376 153.705Z" fill="white"/>
<path d="M109.182 132.971C109.182 133.022 109.182 133.124 109.075 133.124C109.022 133.124 108.915 133.124 108.915 133.022L108.648 132.054C108.648 132.003 108.648 131.901 108.755 131.901C108.808 131.901 108.915 131.901 108.915 132.003L109.182 132.971Z" fill="white"/>
<path d="M116.978 160.684C116.978 160.735 116.978 160.837 116.872 160.837C116.818 160.837 116.711 160.837 116.711 160.735L116.444 159.767C116.444 159.716 116.444 159.614 116.551 159.614C116.605 159.614 116.711 159.614 116.711 159.716L116.978 160.684Z" fill="white"/>
<path d="M120.182 134.448C120.129 134.499 120.075 134.55 120.022 134.499C119.969 134.448 119.915 134.397 119.969 134.347L120.503 133.48C120.556 133.43 120.609 133.379 120.663 133.43C120.716 133.48 120.77 133.531 120.716 133.582L120.182 134.448Z" fill="white"/>
<path d="M105.124 159.309C105.071 159.36 105.017 159.411 104.964 159.36C104.911 159.309 104.857 159.258 104.911 159.207L105.445 158.341C105.498 158.29 105.551 158.239 105.605 158.29C105.658 158.341 105.712 158.392 105.658 158.443L105.124 159.309Z" fill="white"/>
<path d="M126.857 142.905C126.804 142.905 126.697 142.905 126.697 142.803C126.697 142.752 126.697 142.65 126.804 142.65L127.818 142.396C127.872 142.396 127.978 142.396 127.978 142.497C127.978 142.548 127.978 142.65 127.872 142.65L126.857 142.905Z" fill="white"/>
<path d="M97.8084 150.343C97.755 150.343 97.6482 150.343 97.6482 150.241C97.6482 150.19 97.6482 150.088 97.755 150.088L98.7696 149.833C98.823 149.833 98.9297 149.833 98.9297 149.935C98.9297 149.986 98.9297 150.088 98.823 150.088L97.8084 150.343Z" fill="white"/>
<path d="M108.651 143.879C108.651 140.677 112.945 140.237 114.53 140.749C116.891 141.511 116.891 143.879 116.891 143.879C116.522 149.003 110.348 151.099 111.107 151.515C111.865 151.93 110.737 151.515 112.444 151.515C113.013 151.654 116.269 151.557 116.522 151.515C116.977 151.439 117.597 150.137 117.849 149.568H118.229V153.93H108.651C108.556 152.034 109.125 150.232 110.548 149.379C113.487 147.615 114.91 144.827 114.91 143.879C114.91 141.748 111.686 142.835 111.686 143.404C111.686 145.965 108.651 146.249 108.651 143.879Z" fill="black" fill-opacity="0.71"/>
</g>
<path d="M112.624 124.448H113.382V128.241C113.382 128.451 113.213 128.62 113.003 128.62V128.62C112.794 128.62 112.624 128.451 112.624 128.241V124.448Z" fill="#DBCCCC"/>
<rect x="108.072" y="85" width="10.0517" height="39.4483" rx="3" fill="#BB5FBD"/>
<path d="M109.02 122.641L108.92 122.741V122.955C108.92 123.01 108.965 123.055 109.02 123.055V123.281C108.965 123.281 108.92 123.326 108.92 123.381V123.808C108.92 123.863 108.965 123.908 109.02 123.908V124.135C108.965 124.135 108.92 124.18 108.92 124.235V124.448L109.02 124.548H109.224C109.279 124.548 109.324 124.503 109.324 124.448H109.532C109.532 124.503 109.577 124.548 109.632 124.548H110.04C110.095 124.548 110.14 124.503 110.14 124.448H110.347C110.347 124.503 110.392 124.548 110.447 124.548H110.855C110.91 124.548 110.955 124.503 110.955 124.448H111.163C111.163 124.503 111.208 124.548 111.263 124.548H111.671C111.726 124.548 111.771 124.503 111.771 124.448H111.978C111.978 124.503 112.023 124.548 112.078 124.548H112.486C112.541 124.548 112.586 124.503 112.586 124.448H112.794C112.794 124.503 112.839 124.548 112.894 124.548H113.302C113.357 124.548 113.402 124.503 113.402 124.448H113.609C113.609 124.503 113.654 124.548 113.709 124.548H114.117C114.172 124.548 114.217 124.503 114.217 124.448H114.425C114.425 124.503 114.47 124.548 114.525 124.548H114.933C114.988 124.548 115.033 124.503 115.033 124.448H115.241C115.241 124.503 115.285 124.548 115.341 124.548H115.748C115.804 124.548 115.848 124.503 115.848 124.448H116.056C116.056 124.503 116.101 124.548 116.156 124.548H116.564C116.619 124.548 116.664 124.503 116.664 124.448H116.872C116.872 124.503 116.916 124.548 116.972 124.548H117.175L117.275 124.448V124.235C117.275 124.18 117.231 124.135 117.175 124.135V123.908C117.231 123.908 117.275 123.863 117.275 123.808V123.381C117.275 123.326 117.231 123.281 117.175 123.281V123.055C117.231 123.055 117.275 123.01 117.275 122.955V122.741L117.175 122.641H116.972C116.916 122.641 116.872 122.686 116.872 122.741H116.664C116.664 122.686 116.619 122.641 116.564 122.641H116.156C116.101 122.641 116.056 122.686 116.056 122.741H115.848C115.848 122.686 115.804 122.641 115.748 122.641H115.341C115.285 122.641 115.241 122.686 115.241 122.741H115.033C115.033 122.686 114.988 122.641 114.933 122.641H114.525C114.47 122.641 114.425 122.686 114.425 122.741H114.217C114.217 122.686 114.172 122.641 114.117 122.641H113.709C113.654 122.641 113.609 122.686 113.609 122.741H113.402C113.402 122.686 113.357 122.641 113.302 122.641H112.894C112.839 122.641 112.794 122.686 112.794 122.741H112.586C112.586 122.686 112.541 122.641 112.486 122.641H112.078C112.023 122.641 111.978 122.686 111.978 122.741H111.771C111.771 122.686 111.726 122.641 111.671 122.641H111.263C111.208 122.641 111.163 122.686 111.163 122.741H110.955C110.955 122.686 110.91 122.641 110.855 122.641H110.447C110.392 122.641 110.347 122.686 110.347 122.741H110.14C110.14 122.686 110.095 122.641 110.04 122.641H109.632C109.577 122.641 109.532 122.686 109.532 122.741H109.324C109.324 122.686 109.279 122.641 109.224 122.641H109.02Z" fill="url(#paint3_angular_130_611)" stroke="black" stroke-width="0.2" stroke-miterlimit="1.41421" stroke-linecap="round" stroke-dasharray="0.4 0.4"/>
<g clip-path="url(#clip1_130_611)">
<path d="M159.933 0L157.757 1.6758L156.331 1.47132C156.331 1.47132 156.016 3.04808 156.141 2.84486C156.265 2.64166 156.951 2.68929 156.951 2.68929L151.978 5.38302L149.367 6.9077L147.936 7.72115L147.871 9.95704L147 11.3795L147.811 13.7665L149.487 15.3401L150.673 16.8648L152.223 18.2339L153.034 19.3541L156.266 26.7197L156.206 28.0399C156.206 28.0399 156.205 29.6649 156.516 29.7157C156.827 29.7665 157.574 30.7311 157.512 31.0359C157.449 31.3407 157.446 33.5785 157.446 33.5785L158.817 35.7611L159.623 37.5925L162.67 39.6239C162.67 39.6239 165.032 40.2818 165.281 40.2818C165.53 40.2818 166.34 40.2832 166.402 40.4863C166.464 40.6895 166.712 41.8566 166.712 42.0599C166.712 42.2631 167.337 43.3305 167.212 43.5845C167.088 43.8385 166.777 45.3626 166.777 45.3626L161.864 45.9716L157.882 46.2294L157.387 46.785L156.766 46.6828C156.766 46.6828 157.135 45.9208 156.886 45.9716C156.637 46.0224 154.028 45.7214 153.779 45.8738C153.531 46.0262 152.164 46.6828 152.164 46.6828L151.979 47.803L152.784 49.9366C152.784 49.9366 154.091 50.8498 154.34 50.799C154.589 50.7482 155.395 50.799 155.395 50.799C155.395 50.799 155.456 51.7121 155.58 52.0169C155.705 52.3217 155.956 53.0342 156.391 53.2882C156.826 53.5422 159.873 53.9994 159.873 53.9994L162.485 53.795C162.485 53.795 163.171 53.238 162.86 53.0348C162.549 52.8316 161.924 52.3236 161.924 52.3236L164.166 52.4748C164.166 52.4748 163.603 53.0844 164.1 53.186C164.598 53.2876 167.087 53.8972 167.087 53.8972L168.954 53.4927L171.935 53.8483C171.935 53.8483 171.503 53.4406 172 53.2882C172.498 53.1358 172.932 53.2896 173.491 53.4927C174.051 53.6959 174.049 53.238 174.547 53.3904C175.044 53.5428 176.037 53.5416 176.037 53.5416C176.037 53.5416 177.969 53.5949 178.404 53.5949C178.839 53.5949 183.252 53.3415 183.252 53.3415L184.432 52.2747L185.178 50.8523L184.808 50.5456L184.498 49.4298L183.687 48.972L182.882 48.1585L180.765 47.6518L178.774 47.2428C178.774 47.2428 178.154 47.1412 178.154 46.8872C178.154 46.6332 178.529 45.2114 178.529 45.2114L178.714 42.9755L178.279 40.6908L177.719 39.7262L179.275 37.388C179.275 37.388 180.457 35.3566 180.27 35.001C180.084 34.6454 180.39 33.3741 180.39 33.3741L180.825 30.7826C180.825 30.7826 179.835 28.9055 179.835 28.7023C179.835 28.4991 179.085 28.1441 178.774 28.0933C178.463 28.0425 176.162 28.1422 176.162 28.1422C176.162 28.1422 174.798 28.5975 174.612 28.9023C174.425 29.2071 173.427 30.2237 173.241 30.427C173.054 30.6302 172.621 30.427 172.621 30.427L172.37 29.7158L173.426 28.8534C173.426 28.8534 173.12 27.2792 172.871 27.1776C172.622 27.076 171.875 25.1951 171.875 25.1951L171.565 22.7058L171.375 21.0789C171.375 21.0789 171.871 20.2686 172.12 20.0654C172.369 19.8622 172.245 19.4031 172.245 19.4031L173.366 18.8474L173.801 16.7137L173.306 15.4424L172.746 14.6779L171.375 14.2245L169.759 14.1222H168.453L168.888 13.4599L169.013 12.8509L169.389 12.2908L169.824 11.3262L170.569 11.024L170.754 10.5661C170.754 10.5661 170.135 9.70248 170.259 9.49926C170.384 9.29606 170.504 8.68582 170.504 8.68582L173.241 8.58358L171.13 7.26338V6.49883L186.734 10.0549L190.836 10.7661H194.443C194.443 10.7661 195.439 10.3622 195.564 10.1082C195.688 9.85418 195.999 8.17899 195.999 8.17899L195.438 7.56556L170.504 3.14716L169.633 3.6539L168.202 3.70725C168.202 3.70725 168.14 3.35037 168.202 3.14716C168.265 2.94395 167.147 1.87586 167.147 1.87586H166.276L165.591 1.21796L164.845 1.77806L164.285 1.36911L163.73 0.964608L162.86 0.657904L161.989 0.506773L161.363 0.0489256L160.558 0.151164L159.933 2.94758e-05L159.933 0ZM160.123 4.72058C160.372 4.72058 160.618 5.02729 160.618 5.02729C160.618 5.02729 160.31 5.58674 160.123 5.84074C159.937 6.09475 160.248 7.1622 160.248 7.36542C160.248 7.56863 159.813 9.04122 159.813 9.04122L160.559 9.34348L161.054 10.2592L160.929 11.6327L159.563 12.8507L158.132 13.104L155.896 12.5973L153.964 11.4282L152.414 9.49903L153.034 8.89003L155.27 7.36535C155.27 7.36535 157.323 6.14359 157.572 5.88957C157.82 5.63556 158.753 5.27931 158.877 5.07612C159.002 4.87291 159.875 4.72051 160.123 4.72051L160.123 4.72058Z" fill="#141310"/>
</g>
<defs>
<radialGradient id="paint0_radial_130_611" cx="0" cy="0" r="1" gradientUnits="userSpaceOnUse" gradientTransform="translate(217.313 61.5) rotate(17.4047) scale(7.56631 6.87787)">
<stop stop-color="#ABA7A7"/>
<stop offset="0.416667" stop-color="white"/>
</radialGradient>
<radialGradient id="paint1_radial_130_611" cx="0" cy="0" r="1" gradientUnits="userSpaceOnUse" gradientTransform="translate(8.4872 61.5) rotate(47.8539) scale(7.82422 7.10206)">
<stop stop-color="#ABA7A7"/>
<stop offset="0.4375" stop-color="white"/>
</radialGradient>
<linearGradient id="paint2_linear_130_611" x1="111.017" y1="136.992" x2="120.132" y2="154.756" gradientUnits="userSpaceOnUse">
<stop stop-color="white"/>
<stop offset="0.932292" stop-color="#EDEAE3"/>
</linearGradient>
<radialGradient id="paint3_angular_130_611" cx="0" cy="0" r="1" gradientUnits="userSpaceOnUse" gradientTransform="translate(113.098 124.306) rotate(-159.007) scale(4.36748 43.6027)">
<stop stop-color="#ECD8A1"/>
<stop offset="1" stop-color="#ECC456"/>
</radialGradient>
<clipPath id="clip0_130_611">
<rect width="33" height="31.4828" fill="white" transform="translate(96.3135 131.086)"/>
</clipPath>
<clipPath id="clip1_130_611">
<rect width="49" height="54" fill="white" transform="translate(147)"/>
</clipPath>
</defs>
</svg>
