<svg width="259" height="148" viewBox="0 0 259 148" fill="none" xmlns="http://www.w3.org/2000/svg">
<path d="M112.336 13.4719L122.055 14.6619C122.394 15.4821 124.103 19.5194 124.424 20.2419C124.424 20.2419 124.424 20.2419 124.42 20.2419C121.604 21.5679 118.788 22.8895 115.973 24.2155C116.95 24.0455 117.941 23.9605 118.936 23.9605C120.239 23.9605 121.515 24.1092 122.733 24.4025C125.192 24.9975 127.414 25.9494 129.56 26.8716C131.475 27.6919 133.287 28.4696 135.094 28.9158C135.348 28.9796 135.594 29.0348 135.839 29.0816C133.697 24.904 127.936 13.6462 126.798 11.1685C126.263 9.99981 125.527 9.56633 124.482 9.43884L113.068 8.04064C111.493 7.8494 110.051 8.90761 109.846 10.4078C109.65 11.908 110.761 13.2807 112.336 13.4719Z" fill="black"/>
<path d="M107.744 32.9956C108.061 33.2124 108.422 33.3144 108.784 33.3144C108.864 33.3144 108.94 33.3101 109.016 33.2974C109.489 33.2379 109.935 32.9999 110.234 32.6047C111.39 31.0704 113.179 29.8635 115.263 29.2005C116.459 28.8223 117.708 28.6311 118.936 28.6311C123.385 28.6311 127.2 31.164 131.216 32.6216C133.367 33.4036 135.611 33.9816 138.052 33.9816C139.078 33.9816 140.14 33.8796 141.243 33.6459C143.835 33.1019 146.058 31.9289 147.664 30.2842C148.048 29.889 148.396 29.4725 148.704 29.0263C149.248 28.2443 149.021 27.1903 148.199 26.6719C147.896 26.4806 147.557 26.3914 147.218 26.3914C146.638 26.3914 146.071 26.6591 145.727 27.1521C145.589 27.3518 145.437 27.543 145.272 27.7301C144.157 28.9965 142.483 29.906 140.475 30.3267C138.623 30.7135 136.58 30.5987 134.755 30.1483C132.836 29.6723 130.979 28.8776 129.007 28.0318C126.91 27.1351 124.745 26.2044 122.398 25.6349C121.283 25.3629 120.114 25.2312 118.931 25.2312C117.32 25.2312 115.683 25.4819 114.125 25.9749C112.764 26.4084 111.501 27.0118 110.368 27.7726C109.172 28.5758 108.15 29.532 107.329 30.62C107.276 30.6922 107.231 30.7645 107.191 30.841C106.803 31.5762 107.017 32.4984 107.744 32.9956Z" fill="black"/>
<path d="M140.06 25.108C143.538 25.108 146.357 22.4233 146.357 19.1115C146.357 15.7997 143.538 13.115 140.06 13.115C136.583 13.115 133.764 15.7997 133.764 19.1115C133.764 22.4233 136.583 25.108 140.06 25.108Z" fill="black"/>
<rect x="124.711" y="25" width="2.0241" height="3" fill="black"/>
<line x1="110.005" y1="58.5" x2="12.0051" y2="59.5" stroke="#9BADB0"/>
<line x1="241.005" y1="57.5" x2="143.005" y2="58.5" stroke="#9BADB0"/>
<path d="M12 69V49H110.495V69H12Z" stroke="#374653" stroke-width="3"/>
<path d="M241 49V69H141.52V49H241Z" stroke="#374653" stroke-width="3"/>
<path d="M244.282 35H8.77721C2.19345e-05 35 6.77109e-05 48 8.77721 48H244.282C255.5 48 255.062 35.0001 244.282 35Z" stroke="black" stroke-width="3"/>
<path d="M32.4886 15.3636C32.3352 14.0682 31.7131 13.0625 30.6222 12.3466C29.5313 11.6307 28.1932 11.2727 26.608 11.2727C25.4489 11.2727 24.4347 11.4602 23.5653 11.8352C22.7045 12.2102 22.0313 12.7259 21.5455 13.3821C21.0682 14.0384 20.8295 14.7841 20.8295 15.6193C20.8295 16.3182 20.9957 16.919 21.3281 17.4219C21.669 17.9162 22.1037 18.3295 22.6321 18.6619C23.1605 18.9858 23.7145 19.2543 24.294 19.4673C24.8736 19.6719 25.4062 19.8381 25.892 19.9659L28.5511 20.6818C29.233 20.8608 29.9915 21.108 30.8267 21.4233C31.6705 21.7386 32.4759 22.169 33.2429 22.7145C34.0185 23.2514 34.6577 23.9418 35.1605 24.7855C35.6634 25.6293 35.9148 26.6648 35.9148 27.892C35.9148 29.3068 35.544 30.5852 34.8026 31.7273C34.0696 32.8693 32.9957 33.777 31.581 34.4503C30.1747 35.1236 28.4659 35.4602 26.4545 35.4602C24.5795 35.4602 22.956 35.1577 21.5838 34.5526C20.2202 33.9474 19.1463 33.1037 18.3622 32.0213C17.5866 30.9389 17.1477 29.6818 17.0455 28.25H20.3182C20.4034 29.2386 20.7358 30.0568 21.3153 30.7045C21.9034 31.3437 22.6449 31.821 23.5398 32.1364C24.4432 32.4432 25.4148 32.5966 26.4545 32.5966C27.6648 32.5966 28.7514 32.4006 29.7145 32.0085C30.6776 31.608 31.4403 31.054 32.0028 30.3466C32.5653 29.6307 32.8466 28.7955 32.8466 27.8409C32.8466 26.9716 32.6037 26.2642 32.1179 25.7188C31.6321 25.1733 30.9929 24.7301 30.2003 24.3892C29.4077 24.0483 28.5511 23.75 27.6307 23.4943L24.4091 22.5739C22.3636 21.9858 20.7443 21.1463 19.5511 20.0554C18.358 18.9645 17.7614 17.5369 17.7614 15.7727C17.7614 14.3068 18.1577 13.0284 18.9503 11.9375C19.7514 10.8381 20.8253 9.98579 22.1719 9.38068C23.527 8.76704 25.0398 8.46023 26.7102 8.46023C28.3977 8.46023 29.8977 8.76278 31.2102 9.3679C32.5227 9.96449 33.5625 10.7827 34.3295 11.8224C35.1051 12.8622 35.5142 14.0426 35.5568 15.3636H32.4886ZM45.1673 35L39.1843 15.3636H42.3548L46.5991 30.3977H46.8036L50.9968 15.3636H54.2184L58.3604 30.3466H58.565L62.8093 15.3636H65.9798L59.9968 35H57.0309L52.7354 19.9148H52.4286L48.1332 35H45.1673ZM69.9684 35V15.3636H72.9854V35H69.9684ZM71.5025 12.0909C70.9144 12.0909 70.4073 11.8906 69.9812 11.4901C69.5636 11.0895 69.3548 10.608 69.3548 10.0455C69.3548 9.48295 69.5636 9.00142 69.9812 8.60085C70.4073 8.20028 70.9144 8 71.5025 8C72.0906 8 72.5934 8.20028 73.011 8.60085C73.4371 9.00142 73.6502 9.48295 73.6502 10.0455C73.6502 10.608 73.4371 11.0895 73.011 11.4901C72.5934 11.8906 72.0906 12.0909 71.5025 12.0909ZM78.5114 35V15.3636H81.4261V18.4318H81.6818C82.0909 17.3835 82.7514 16.5696 83.6634 15.9901C84.5753 15.402 85.6705 15.108 86.9489 15.108C88.2443 15.108 89.3224 15.402 90.1832 15.9901C91.0526 16.5696 91.7301 17.3835 92.2159 18.4318H92.4205C92.9233 17.4176 93.6776 16.6122 94.6832 16.0156C95.6889 15.4105 96.8949 15.108 98.3011 15.108C100.057 15.108 101.493 15.6577 102.609 16.7571C103.726 17.848 104.284 19.5483 104.284 21.858V35H101.267V21.858C101.267 20.4091 100.871 19.3736 100.078 18.7514C99.2855 18.1293 98.3523 17.8182 97.2784 17.8182C95.8977 17.8182 94.8281 18.2358 94.0696 19.071C93.3111 19.8977 92.9318 20.946 92.9318 22.2159V35H89.8636V21.5511C89.8636 20.4347 89.5014 19.5355 88.777 18.8537C88.0526 18.1634 87.1193 17.8182 85.9773 17.8182C85.1932 17.8182 84.4602 18.027 83.7784 18.4446C83.1051 18.8622 82.5597 19.4418 82.142 20.1832C81.733 20.9162 81.5284 21.7642 81.5284 22.7273V35H78.5114ZM150.3 35V15.3636H153.215V18.4318H153.471C153.88 17.3835 154.54 16.5696 155.452 15.9901C156.364 15.402 157.46 15.108 158.738 15.108C160.033 15.108 161.112 15.402 161.972 15.9901C162.842 16.5696 163.519 17.3835 164.005 18.4318H164.21C164.712 17.4176 165.467 16.6122 166.472 16.0156C167.478 15.4105 168.684 15.108 170.09 15.108C171.846 15.108 173.282 15.6577 174.398 16.7571C175.515 17.848 176.073 19.5483 176.073 21.858V35H173.056V21.858C173.056 20.4091 172.66 19.3736 171.867 18.7514C171.075 18.1293 170.141 17.8182 169.067 17.8182C167.687 17.8182 166.617 18.2358 165.859 19.071C165.1 19.8977 164.721 20.946 164.721 22.2159V35H161.653V21.5511C161.653 20.4347 161.29 19.5355 160.566 18.8537C159.842 18.1634 158.908 17.8182 157.766 17.8182C156.982 17.8182 156.249 18.027 155.567 18.4446C154.894 18.8622 154.349 19.4418 153.931 20.1832C153.522 20.9162 153.317 21.7642 153.317 22.7273V35H150.3ZM181.589 35V15.3636H184.607V35H181.589ZM183.124 12.0909C182.536 12.0909 182.028 11.8906 181.602 11.4901C181.185 11.0895 180.976 10.608 180.976 10.0455C180.976 9.48295 181.185 9.00142 181.602 8.60085C182.028 8.20028 182.536 8 183.124 8C183.712 8 184.214 8.20028 184.632 8.60085C185.058 9.00142 185.271 9.48295 185.271 10.0455C185.271 10.608 185.058 11.0895 184.632 11.4901C184.214 11.8906 183.712 12.0909 183.124 12.0909ZM193.15 23.1875V35H190.132V15.3636H193.047V18.4318H193.303C193.763 17.4347 194.462 16.6335 195.4 16.0284C196.337 15.4148 197.547 15.108 199.03 15.108C200.36 15.108 201.523 15.3807 202.52 15.9261C203.517 16.4631 204.293 17.2812 204.847 18.3807C205.401 19.4716 205.678 20.8523 205.678 22.5227V35H202.661V22.7273C202.661 21.1847 202.26 19.983 201.459 19.1222C200.658 18.2528 199.559 17.8182 198.161 17.8182C197.198 17.8182 196.337 18.027 195.578 18.4446C194.828 18.8622 194.236 19.4716 193.801 20.2727C193.367 21.0739 193.15 22.0455 193.15 23.1875ZM219.117 42.7727C217.66 42.7727 216.407 42.5852 215.359 42.2102C214.31 41.8438 213.437 41.358 212.738 40.7528C212.048 40.1563 211.498 39.517 211.089 38.8352L213.492 37.1477C213.765 37.5057 214.11 37.9148 214.528 38.375C214.945 38.8438 215.516 39.2486 216.241 39.5895C216.974 39.9389 217.933 40.1136 219.117 40.1136C220.702 40.1136 222.011 39.7301 223.042 38.9631C224.073 38.196 224.589 36.9943 224.589 35.358V31.3693H224.333C224.112 31.7273 223.796 32.1705 223.387 32.6989C222.987 33.2188 222.407 33.6832 221.648 34.0923C220.898 34.4929 219.884 34.6932 218.606 34.6932C217.021 34.6932 215.597 34.3182 214.336 33.5682C213.083 32.8182 212.09 31.7273 211.357 30.2955C210.633 28.8636 210.271 27.125 210.271 25.0795C210.271 23.0682 210.624 21.3168 211.332 19.8253C212.039 18.3253 213.023 17.1662 214.285 16.348C215.546 15.5213 217.004 15.108 218.657 15.108C219.935 15.108 220.95 15.321 221.7 15.7472C222.458 16.1648 223.038 16.642 223.438 17.179C223.847 17.7074 224.163 18.142 224.384 18.483H224.691V15.3636H227.606V35.5625C227.606 37.25 227.222 38.6222 226.455 39.679C225.697 40.7443 224.674 41.5241 223.387 42.0185C222.109 42.5213 220.685 42.7727 219.117 42.7727ZM219.015 31.983C220.225 31.983 221.248 31.706 222.083 31.152C222.918 30.598 223.553 29.8011 223.988 28.7614C224.423 27.7216 224.64 26.4773 224.64 25.0284C224.64 23.6136 224.427 22.3651 224.001 21.2827C223.575 20.2003 222.944 19.3523 222.109 18.7386C221.273 18.125 220.242 17.8182 219.015 17.8182C217.737 17.8182 216.671 18.142 215.819 18.7898C214.975 19.4375 214.34 20.3068 213.914 21.3977C213.496 22.4886 213.288 23.6989 213.288 25.0284C213.288 26.392 213.501 27.598 213.927 28.6463C214.362 29.6861 215.001 30.5043 215.844 31.1009C216.697 31.6889 217.754 31.983 219.015 31.983Z" fill="black"/>
<path d="M29.9205 63V56.4545H30.892V57.4432H30.9602C31.0795 57.1193 31.2955 56.8565 31.608 56.6548C31.9205 56.4531 32.2727 56.3523 32.6648 56.3523C32.7386 56.3523 32.831 56.3537 32.9418 56.3565C33.0526 56.3594 33.1364 56.3636 33.1932 56.3693V57.392C33.1591 57.3835 33.081 57.3707 32.9588 57.3537C32.8395 57.3338 32.7131 57.3239 32.5795 57.3239C32.2614 57.3239 31.9773 57.3906 31.7273 57.5241C31.4801 57.6548 31.2841 57.8366 31.1392 58.0696C30.9972 58.2997 30.9261 58.5625 30.9261 58.858V63H29.9205ZM36.9304 63.1364C36.2997 63.1364 35.7557 62.9972 35.2983 62.7188C34.8438 62.4375 34.4929 62.0455 34.2457 61.5426C34.0014 61.0369 33.8793 60.4489 33.8793 59.7784C33.8793 59.108 34.0014 58.517 34.2457 58.0057C34.4929 57.4915 34.8366 57.0909 35.277 56.804C35.7202 56.5142 36.2372 56.3693 36.8281 56.3693C37.169 56.3693 37.5057 56.4261 37.8381 56.5398C38.1705 56.6534 38.473 56.8381 38.7457 57.0938C39.0185 57.3466 39.2358 57.6818 39.3977 58.0994C39.5597 58.517 39.6406 59.0312 39.6406 59.642V60.0682H34.5952V59.1989H38.6179C38.6179 58.8295 38.544 58.5 38.3963 58.2102C38.2514 57.9205 38.044 57.6918 37.7741 57.5241C37.5071 57.3565 37.1918 57.2727 36.8281 57.2727C36.4276 57.2727 36.081 57.3722 35.7884 57.571C35.4986 57.767 35.2756 58.0227 35.1193 58.3381C34.9631 58.6534 34.8849 58.9915 34.8849 59.3523V59.9318C34.8849 60.4261 34.9702 60.8452 35.1406 61.1889C35.3139 61.5298 35.554 61.7898 35.8608 61.9688C36.1676 62.1449 36.5241 62.233 36.9304 62.233C37.1946 62.233 37.4332 62.196 37.6463 62.1222C37.8622 62.0455 38.0483 61.9318 38.2045 61.7812C38.3608 61.6278 38.4815 61.4375 38.5668 61.2102L39.5384 61.483C39.4361 61.8125 39.2642 62.1023 39.0227 62.3523C38.7813 62.5994 38.483 62.7926 38.1278 62.9318C37.7727 63.0682 37.3736 63.1364 36.9304 63.1364ZM42.1761 54.2727V63H41.1705V54.2727H42.1761ZM45.9442 63.1534C45.5295 63.1534 45.1531 63.0753 44.815 62.919C44.4769 62.7599 44.2085 62.5312 44.0096 62.233C43.8107 61.9318 43.7113 61.5682 43.7113 61.142C43.7113 60.767 43.7852 60.4631 43.9329 60.2301C44.0806 59.9943 44.2781 59.8097 44.5252 59.6761C44.7724 59.5426 45.0451 59.4432 45.3434 59.3778C45.6445 59.3097 45.9471 59.2557 46.2511 59.2159C46.6488 59.1648 46.9712 59.1264 47.2184 59.1009C47.4684 59.0724 47.6502 59.0256 47.7638 58.9602C47.8803 58.8949 47.9386 58.7812 47.9386 58.6193V58.5852C47.9386 58.1648 47.8235 57.8381 47.5934 57.6051C47.3661 57.3722 47.021 57.2557 46.5579 57.2557C46.0778 57.2557 45.7013 57.3608 45.4286 57.571C45.1559 57.7812 44.9641 58.0057 44.8533 58.2443L43.8988 57.9034C44.0692 57.5057 44.2965 57.196 44.5806 56.9744C44.8675 56.75 45.18 56.5937 45.5181 56.5057C45.859 56.4148 46.1942 56.3693 46.5238 56.3693C46.734 56.3693 46.9755 56.3949 47.2482 56.446C47.5238 56.4943 47.7894 56.5952 48.0451 56.7486C48.3036 56.902 48.5181 57.1335 48.6886 57.4432C48.859 57.7528 48.9442 58.1676 48.9442 58.6875V63H47.9386V62.1136H47.8874C47.8192 62.2557 47.7056 62.4077 47.5465 62.5696C47.3874 62.7315 47.1758 62.8693 46.9116 62.983C46.6474 63.0966 46.3249 63.1534 45.9442 63.1534ZM46.0977 62.25C46.4954 62.25 46.8306 62.1719 47.1033 62.0156C47.3789 61.8594 47.5863 61.6577 47.7255 61.4105C47.8675 61.1634 47.9386 60.9034 47.9386 60.6307V59.7102C47.896 59.7614 47.8022 59.8082 47.6573 59.8509C47.5153 59.8906 47.3505 59.9261 47.163 59.9574C46.9783 59.9858 46.7979 60.0114 46.6218 60.0341C46.4485 60.054 46.3079 60.071 46.1999 60.0852C45.9386 60.1193 45.6942 60.1747 45.467 60.2514C45.2425 60.3253 45.0607 60.4375 44.9215 60.5881C44.7852 60.7358 44.717 60.9375 44.717 61.1932C44.717 61.5426 44.8462 61.8068 45.1048 61.9858C45.3661 62.1619 45.6971 62.25 46.0977 62.25ZM51.1932 65.4545C51.0227 65.4545 50.8707 65.4403 50.7372 65.4119C50.6037 65.3864 50.5114 65.3608 50.4602 65.3352L50.7159 64.4489C50.9602 64.5114 51.1761 64.5341 51.3636 64.517C51.5511 64.5 51.7173 64.4162 51.8622 64.2656C52.0099 64.1179 52.1449 63.8778 52.267 63.5455L52.4545 63.0341L50.0341 56.4545H51.125L52.9318 61.6705H53L54.8068 56.4545H55.8977L53.1193 63.9545C52.9943 64.2926 52.8395 64.5724 52.6548 64.794C52.4702 65.0185 52.2557 65.1847 52.0114 65.2926C51.7699 65.4006 51.4972 65.4545 51.1932 65.4545ZM67.9979 54.2727L70.2479 57.9034H70.3161L72.5661 54.2727H73.8104L71.0661 58.6364L73.8104 63H72.5661L70.3161 59.4375H70.2479L67.9979 63H66.7536L69.5661 58.6364L66.7536 54.2727H67.9979ZM84.9528 61.2102V60.3409L88.788 54.2727H89.4187V55.6193H88.9925L86.0948 60.2045V60.2727H91.2596V61.2102H84.9528ZM89.0607 63V60.946V60.5412V54.2727H90.0664V63H89.0607Z" fill="black"/>
<path d="M182.557 56.9205L181.653 57.1761C181.597 57.0256 181.513 56.8793 181.402 56.7372C181.294 56.5923 181.146 56.473 180.959 56.3793C180.771 56.2855 180.531 56.2386 180.239 56.2386C179.838 56.2386 179.504 56.331 179.237 56.5156C178.973 56.6974 178.841 56.929 178.841 57.2102C178.841 57.4602 178.932 57.6577 179.114 57.8026C179.295 57.9474 179.58 58.0682 179.966 58.1648L180.938 58.4034C181.523 58.5455 181.959 58.7628 182.246 59.0554C182.533 59.3452 182.676 59.7187 182.676 60.1761C182.676 60.5511 182.568 60.8864 182.352 61.1818C182.139 61.4773 181.841 61.7102 181.457 61.8807C181.074 62.0511 180.628 62.1364 180.119 62.1364C179.452 62.1364 178.899 61.9915 178.462 61.7017C178.024 61.4119 177.747 60.9886 177.631 60.4318L178.585 60.1932C178.676 60.5455 178.848 60.8097 179.101 60.9858C179.357 61.1619 179.69 61.25 180.102 61.25C180.571 61.25 180.943 61.1506 181.219 60.9517C181.497 60.75 181.636 60.5085 181.636 60.2273C181.636 60 181.557 59.8097 181.398 59.6562C181.239 59.5 180.994 59.3835 180.665 59.3068L179.574 59.0511C178.974 58.9091 178.534 58.6889 178.253 58.3906C177.974 58.0895 177.835 57.7131 177.835 57.2614C177.835 56.892 177.939 56.5653 178.146 56.2812C178.357 55.9972 178.642 55.7741 179.003 55.6122C179.366 55.4503 179.778 55.3693 180.239 55.3693C180.886 55.3693 181.395 55.5114 181.764 55.7955C182.136 56.0795 182.401 56.4545 182.557 56.9205ZM184.19 62V55.4545H185.196V62H184.19ZM184.701 54.3636C184.505 54.3636 184.336 54.2969 184.194 54.1634C184.055 54.0298 183.985 53.8693 183.985 53.6818C183.985 53.4943 184.055 53.3338 184.194 53.2003C184.336 53.0668 184.505 53 184.701 53C184.897 53 185.065 53.0668 185.204 53.2003C185.346 53.3338 185.417 53.4943 185.417 53.6818C185.417 53.8693 185.346 54.0298 185.204 54.1634C185.065 54.2969 184.897 54.3636 184.701 54.3636ZM188.043 58.0625V62H187.038V55.4545H188.009V56.4773H188.094C188.248 56.1449 188.481 55.8778 188.793 55.6761C189.106 55.4716 189.509 55.3693 190.004 55.3693C190.447 55.3693 190.835 55.4602 191.167 55.642C191.499 55.821 191.758 56.0938 191.942 56.4602C192.127 56.8239 192.219 57.2841 192.219 57.8409V62H191.214V57.9091C191.214 57.3949 191.08 56.9943 190.813 56.7074C190.546 56.4176 190.18 56.2727 189.714 56.2727C189.393 56.2727 189.106 56.3423 188.853 56.4815C188.603 56.6207 188.406 56.8239 188.261 57.0909C188.116 57.358 188.043 57.6818 188.043 58.0625ZM196.699 64.5909C196.213 64.5909 195.796 64.5284 195.446 64.4034C195.097 64.2812 194.806 64.1193 194.573 63.9176C194.343 63.7188 194.159 63.5057 194.023 63.2784L194.824 62.7159C194.915 62.8352 195.03 62.9716 195.169 63.125C195.309 63.2812 195.499 63.4162 195.74 63.5298C195.985 63.6463 196.304 63.7045 196.699 63.7045C197.228 63.7045 197.664 63.5767 198.007 63.321C198.351 63.0653 198.523 62.6648 198.523 62.1193V60.7898H198.438C198.364 60.9091 198.259 61.0568 198.123 61.233C197.989 61.4062 197.796 61.5611 197.543 61.6974C197.293 61.831 196.955 61.8977 196.529 61.8977C196 61.8977 195.526 61.7727 195.105 61.5227C194.688 61.2727 194.357 60.9091 194.113 60.4318C193.871 59.9545 193.75 59.375 193.75 58.6932C193.75 58.0227 193.868 57.4389 194.104 56.9418C194.34 56.4418 194.668 56.0554 195.088 55.7827C195.509 55.5071 195.995 55.3693 196.546 55.3693C196.972 55.3693 197.31 55.4403 197.56 55.5824C197.813 55.7216 198.006 55.8807 198.14 56.0597C198.276 56.2358 198.381 56.3807 198.455 56.4943H198.557V55.4545H199.529V62.1875C199.529 62.75 199.401 63.2074 199.145 63.5597C198.892 63.9148 198.551 64.1747 198.123 64.3395C197.696 64.5071 197.222 64.5909 196.699 64.5909ZM196.665 60.9943C197.069 60.9943 197.409 60.902 197.688 60.7173C197.966 60.5327 198.178 60.267 198.323 59.9205C198.468 59.5739 198.54 59.1591 198.54 58.6761C198.54 58.2045 198.469 57.7884 198.327 57.4276C198.185 57.0668 197.975 56.7841 197.696 56.5795C197.418 56.375 197.074 56.2727 196.665 56.2727C196.239 56.2727 195.884 56.3807 195.6 56.5966C195.319 56.8125 195.107 57.1023 194.965 57.4659C194.826 57.8295 194.756 58.233 194.756 58.6761C194.756 59.1307 194.827 59.5327 194.969 59.8821C195.114 60.2287 195.327 60.5014 195.608 60.7003C195.892 60.8963 196.245 60.9943 196.665 60.9943ZM202.375 53.2727V62H201.37V53.2727H202.375ZM206.962 62.1364C206.331 62.1364 205.787 61.9972 205.33 61.7188C204.875 61.4375 204.524 61.0455 204.277 60.5426C204.033 60.0369 203.911 59.4489 203.911 58.7784C203.911 58.108 204.033 57.517 204.277 57.0057C204.524 56.4915 204.868 56.0909 205.308 55.804C205.751 55.5142 206.268 55.3693 206.859 55.3693C207.2 55.3693 207.537 55.4261 207.869 55.5398C208.202 55.6534 208.504 55.8381 208.777 56.0938C209.05 56.3466 209.267 56.6818 209.429 57.0994C209.591 57.517 209.672 58.0312 209.672 58.642V59.0682H204.626V58.1989H208.649C208.649 57.8295 208.575 57.5 208.428 57.2102C208.283 56.9205 208.075 56.6918 207.805 56.5241C207.538 56.3565 207.223 56.2727 206.859 56.2727C206.459 56.2727 206.112 56.3722 205.82 56.571C205.53 56.767 205.307 57.0227 205.151 57.3381C204.994 57.6534 204.916 57.9915 204.916 58.3523V58.9318C204.916 59.4261 205.001 59.8452 205.172 60.1889C205.345 60.5298 205.585 60.7898 205.892 60.9688C206.199 61.1449 206.555 61.233 206.962 61.233C207.226 61.233 207.464 61.196 207.678 61.1222C207.893 61.0455 208.08 60.9318 208.236 60.7812C208.392 60.6278 208.513 60.4375 208.598 60.2102L209.57 60.483C209.467 60.8125 209.295 61.1023 209.054 61.3523C208.813 61.5994 208.514 61.7926 208.159 61.9318C207.804 62.0682 207.405 62.1364 206.962 62.1364Z" fill="black"/>
<path d="M21 115L29 115C26.6709 109.667 23.9367 109.667 21 115Z" fill="#ECBE40"/>
<path d="M57 116L65 116C62.6709 110.667 59.9367 110.667 57 116Z" fill="#ECBE40"/>
<path d="M93 115L101 115C98.6709 109.667 95.9367 109.667 93 115Z" fill="#ECBE40"/>
<ellipse cx="25.1954" cy="112.822" rx="1.17241" ry="1.07471" fill="#6E5F5F"/>
<g clip-path="url(#clip0_125_303)">
<path d="M25 146.92C15.9223 146.92 8.49512 139.834 8.49512 131.174C8.49512 122.513 15.9223 115.427 25 115.427C34.0776 115.427 41.5048 122.513 41.5048 131.174C41.5048 139.834 34.0776 146.92 25 146.92Z" fill="#DBAB56"/>
<path d="M25.0001 144.978C33.5381 144.978 40.4596 138.374 40.4596 130.229C40.4596 122.083 33.5381 115.48 25.0001 115.48C16.462 115.48 9.54053 122.083 9.54053 130.229C9.54053 138.374 16.462 144.978 25.0001 144.978Z" fill="#EFB30C"/>
<path d="M11.3561 132.013C11.3561 123.878 18.2881 117.265 26.8156 117.265C30.6117 117.265 34.0777 118.577 36.7735 120.729C33.9677 117.527 29.7315 115.48 25.0001 115.48C16.4726 115.48 9.54053 122.093 9.54053 130.229C9.54053 134.743 11.6862 138.784 15.0421 141.513C12.7315 138.942 11.3561 135.635 11.3561 132.013Z" fill="#E5A300"/>
<path d="M32.5943 115.947C36.8463 122.585 36.8463 133.326 32.5943 139.964C28.3424 146.602 21.4619 146.602 17.21 139.964" fill="url(#paint0_angular_125_303)" fill-opacity="0.17"/>
<path d="M24.9914 146.447C15.9138 146.447 8.48657 139.361 8.48657 130.701C8.48657 122.041 15.9138 114.955 24.9914 114.955C34.0691 114.955 41.4963 122.041 41.4963 130.701C41.4963 139.361 34.0691 146.447 24.9914 146.447ZM24.9914 116.95C17.0141 116.95 10.5772 123.143 10.5772 130.701C10.5772 138.312 17.0691 144.453 24.9914 144.453C32.9138 144.453 39.4057 138.259 39.4057 130.701C39.4057 123.143 32.9688 116.95 24.9914 116.95Z" fill="#F7D27F"/>
<path d="M10.0356 131.751C10.0356 135.74 11.5761 139.361 14.1068 142.091C17.0227 144.505 20.8188 145.975 24.945 145.975C27.7509 145.975 30.3366 145.292 32.6473 144.138C30.7767 144.977 28.6861 145.45 26.4855 145.45C22.1392 145.45 18.178 143.56 15.5373 140.621C12.4564 138.102 10.4758 134.375 10.4758 130.176C10.4758 128.077 10.9709 126.082 11.8512 124.298C10.7509 126.555 10.0356 129.074 10.0356 131.751Z" fill="#EAC06C"/>
<path d="M25.9352 120.309C25.9352 120.781 25.4951 121.568 25 121.568C24.5048 121.568 24.0647 120.781 24.0647 120.309C24.0647 119.836 24.5048 119.417 25 119.417C25.4951 119.417 25.9352 119.836 25.9352 120.309Z" fill="#E5A300"/>
<path d="M25 121.201C25.5165 121.201 25.9352 120.802 25.9352 120.309C25.9352 119.816 25.5165 119.417 25 119.417C24.4834 119.417 24.0647 119.816 24.0647 120.309C24.0647 120.802 24.4834 121.201 25 121.201Z" fill="#F7D27F"/>
<path d="M25.6602 119.679C26.0453 120.046 26.0453 120.571 25.6602 120.939C25.2751 121.306 24.725 121.306 24.3398 120.939" fill="#EFC273"/>
<path d="M25.1102 115.952C25.1102 116.005 25.0552 116.057 25.0002 116.057C24.9452 116.057 24.8901 116.005 24.8901 115.952V114.955C24.8901 114.903 24.9452 114.85 25.0002 114.85C25.0552 114.85 25.1102 114.903 25.1102 114.955V115.952Z" fill="#FFE0A1"/>
<path d="M25.1102 145.555C25.1102 145.607 25.0552 145.66 25.0002 145.66C24.9452 145.66 24.8901 145.607 24.8901 145.555V144.558C24.8901 144.505 24.9452 144.453 25.0002 144.453C25.0552 144.453 25.1102 144.505 25.1102 144.558V145.555Z" fill="#FFE0A1"/>
<path d="M35.6734 120.256C35.6183 120.309 35.5633 120.309 35.5083 120.256C35.4533 120.204 35.4533 120.151 35.5083 120.099L36.2785 119.364C36.3335 119.312 36.3886 119.312 36.4436 119.364C36.4986 119.417 36.4986 119.469 36.4436 119.522L35.6734 120.256Z" fill="#FFE0A1"/>
<path d="M13.7769 141.146C13.7219 141.198 13.6668 141.198 13.6118 141.146C13.5568 141.094 13.5568 141.041 13.6118 140.989L14.382 140.254C14.4371 140.201 14.4921 140.201 14.5471 140.254C14.6021 140.306 14.6021 140.359 14.5471 140.411L13.7769 141.146Z" fill="#FFE0A1"/>
<path d="M39.9645 130.386C39.9095 130.386 39.8545 130.334 39.8545 130.281C39.8545 130.229 39.9095 130.176 39.9645 130.176H41.0098C41.0648 130.176 41.1199 130.229 41.1199 130.281C41.1199 130.334 41.0648 130.386 41.0098 130.386H39.9645Z" fill="#FFE0A1"/>
<path d="M8.9904 130.386C8.93539 130.386 8.88037 130.334 8.88037 130.281C8.88037 130.229 8.93539 130.176 8.9904 130.176H10.0357C10.0907 130.124 10.1457 130.176 10.1457 130.229C10.1457 130.281 10.0907 130.334 10.0357 130.334H8.9904V130.386Z" fill="#FFE0A1"/>
<path d="M35.5083 140.464C35.4533 140.411 35.4533 140.359 35.5083 140.306C35.5633 140.254 35.6183 140.254 35.6734 140.306L36.4436 141.041C36.4986 141.094 36.4986 141.146 36.4436 141.198C36.3886 141.251 36.3335 141.251 36.2785 141.198L35.5083 140.464Z" fill="#FFE0A1"/>
<path d="M13.5566 119.522C13.5016 119.469 13.5016 119.417 13.5566 119.364C13.6117 119.312 13.6667 119.312 13.7217 119.364L14.4919 120.099C14.5469 120.151 14.5469 120.204 14.4919 120.256C14.4369 120.309 14.3819 120.309 14.3269 120.256L13.5566 119.522Z" fill="#FFE0A1"/>
<path d="M17.628 117.842C17.683 117.894 17.628 117.999 17.573 117.999C17.5179 118.052 17.4079 117.999 17.4079 117.947L16.8577 117.054C16.8027 117.002 16.8577 116.897 16.9128 116.897C16.9678 116.844 17.0778 116.897 17.0778 116.949L17.628 117.842Z" fill="#FFE0A1"/>
<path d="M33.1426 143.455C33.1976 143.508 33.1426 143.613 33.0876 143.613C33.0326 143.665 32.9226 143.613 32.9226 143.56L32.3724 142.668C32.3174 142.615 32.3724 142.511 32.4274 142.511C32.4824 142.458 32.5925 142.511 32.5925 142.563L33.1426 143.455Z" fill="#FFE0A1"/>
<path d="M29.0163 116.477C29.0163 116.53 28.9063 116.582 28.8512 116.582C28.7962 116.582 28.7412 116.477 28.7412 116.425L29.0163 115.427C29.0163 115.375 29.1263 115.323 29.1813 115.323C29.2364 115.323 29.2914 115.427 29.2914 115.48L29.0163 116.477Z" fill="#FFE0A1"/>
<path d="M20.9838 145.03C20.9838 145.082 20.8738 145.135 20.8188 145.135C20.7638 145.135 20.7087 145.03 20.7087 144.977L20.9838 143.98C20.9838 143.928 21.0939 143.875 21.1489 143.875C21.2039 143.875 21.2589 143.98 21.2589 144.033L20.9838 145.03Z" fill="#FFE0A1"/>
<path d="M38.0389 123.196C37.9839 123.248 37.8739 123.196 37.8739 123.143C37.8188 123.091 37.8739 122.986 37.9289 122.986L38.8642 122.461C38.9192 122.408 39.0292 122.461 39.0292 122.513C39.0842 122.566 39.0292 122.671 38.9742 122.671L38.0389 123.196Z" fill="#FFE0A1"/>
<path d="M11.191 137.997C11.136 138.049 11.026 137.997 11.026 137.944C10.9709 137.892 11.026 137.787 11.081 137.787L12.0163 137.262C12.0713 137.209 12.1813 137.262 12.1813 137.314C12.2363 137.367 12.1813 137.472 12.1263 137.472L11.191 137.997Z" fill="#FFE0A1"/>
<path d="M39.4145 134.06C39.3595 134.06 39.3044 133.955 39.3044 133.903C39.3044 133.85 39.4145 133.798 39.4695 133.798L40.5148 134.06C40.5698 134.06 40.6248 134.165 40.6248 134.218C40.6248 134.27 40.5148 134.323 40.4598 134.323L39.4145 134.06Z" fill="#FFE0A1"/>
<path d="M9.48552 126.397C9.4305 126.397 9.37549 126.292 9.37549 126.24C9.37549 126.187 9.48552 126.135 9.54054 126.135L10.5858 126.397C10.6409 126.397 10.6959 126.502 10.6959 126.555C10.6959 126.607 10.5858 126.66 10.5308 126.66L9.48552 126.397Z" fill="#FFE0A1"/>
<path d="M12.1263 122.986C12.1813 123.038 12.2363 123.091 12.1813 123.143C12.1263 123.196 12.0713 123.248 12.0163 123.196L11.081 122.671C11.026 122.618 10.9709 122.566 11.026 122.513C11.081 122.461 11.136 122.408 11.191 122.461L12.1263 122.986Z" fill="#FFE0A1"/>
<path d="M38.9742 137.787C39.0292 137.839 39.0842 137.892 39.0292 137.944C38.9742 137.997 38.9192 138.049 38.8642 137.997L37.9289 137.472C37.8739 137.419 37.8188 137.367 37.8739 137.314C37.9289 137.262 37.9839 137.209 38.0389 137.262L38.9742 137.787Z" fill="#FFE0A1"/>
<path d="M21.2589 116.425C21.2589 116.477 21.2589 116.582 21.1489 116.582C21.0939 116.582 20.9838 116.582 20.9838 116.477L20.7087 115.48C20.7087 115.427 20.7087 115.323 20.8188 115.323C20.8738 115.323 20.9838 115.323 20.9838 115.427L21.2589 116.425Z" fill="#FFE0A1"/>
<path d="M29.2914 144.977C29.2914 145.03 29.2914 145.135 29.1813 145.135C29.1263 145.135 29.0163 145.135 29.0163 145.03L28.7412 144.033C28.7412 143.98 28.7412 143.875 28.8512 143.875C28.9063 143.875 29.0163 143.875 29.0163 143.98L29.2914 144.977Z" fill="#FFE0A1"/>
<path d="M32.5925 117.947C32.5374 117.999 32.4824 118.052 32.4274 117.999C32.3724 117.947 32.3174 117.894 32.3724 117.842L32.9226 116.949C32.9776 116.897 33.0326 116.844 33.0876 116.897C33.1426 116.949 33.1976 117.002 33.1426 117.054L32.5925 117.947Z" fill="#FFE0A1"/>
<path d="M17.0778 143.56C17.0228 143.613 16.9678 143.665 16.9128 143.613C16.8577 143.56 16.8027 143.508 16.8577 143.455L17.4079 142.563C17.4629 142.511 17.5179 142.458 17.573 142.511C17.628 142.563 17.683 142.615 17.628 142.668L17.0778 143.56Z" fill="#FFE0A1"/>
<path d="M39.4695 126.66C39.4145 126.66 39.3044 126.66 39.3044 126.555C39.3044 126.502 39.3044 126.397 39.4145 126.397L40.4598 126.135C40.5148 126.135 40.6248 126.135 40.6248 126.24C40.6248 126.292 40.6248 126.397 40.5148 126.397L39.4695 126.66Z" fill="#FFE0A1"/>
<path d="M9.54054 134.323C9.48552 134.323 9.37549 134.323 9.37549 134.218C9.37549 134.165 9.37549 134.06 9.48552 134.06L10.5308 133.798C10.5858 133.798 10.6959 133.798 10.6959 133.903C10.6959 133.955 10.6959 134.06 10.5858 134.06L9.54054 134.323Z" fill="#FFE0A1"/>
<path d="M26.3205 124.035H24.8351C24.67 124.035 24.505 124.088 24.3399 124.14L21.4791 125.61C21.039 125.82 20.8189 126.292 20.9289 126.764L21.259 128.077C21.314 128.392 21.5341 128.654 21.8642 128.759C22.1393 128.864 22.5244 128.864 22.7995 128.706L23.5697 128.339V137.577C23.5697 138.154 24.0648 138.574 24.615 138.574H26.3205C26.9257 138.574 27.3658 138.102 27.3658 137.577V125.032C27.3658 124.508 26.8707 124.035 26.3205 124.035Z" fill="#F5E3BE"/>
</g>
<path d="M24.8047 107.644H25.5863V111.552C25.5863 111.768 25.4113 111.943 25.1955 111.943V111.943C24.9797 111.943 24.8047 111.768 24.8047 111.552V107.644Z" fill="#DBCCCC"/>
<rect x="20.115" y="67" width="10.3563" height="40.6437" rx="3" fill="#4F6B2B"/>
<path d="M21.092 105.785L20.992 105.885V106.105C20.992 106.16 21.0368 106.205 21.092 106.205V106.444C21.0368 106.444 20.992 106.489 20.992 106.544V106.984C20.992 107.039 21.0368 107.084 21.092 107.084V107.324C21.0368 107.324 20.992 107.369 20.992 107.424V107.644L21.092 107.744H21.283C21.3382 107.744 21.383 107.699 21.383 107.644H21.5649C21.5649 107.699 21.6097 107.744 21.6649 107.744H22.0468C22.1021 107.744 22.1468 107.699 22.1468 107.644H22.3288C22.3288 107.699 22.3735 107.744 22.4288 107.744H22.8107C22.8659 107.744 22.9107 107.699 22.9107 107.644H23.0926C23.0926 107.699 23.1374 107.744 23.1926 107.744H23.5745C23.6298 107.744 23.6745 107.699 23.6745 107.644H23.8565C23.8565 107.699 23.9012 107.744 23.9565 107.744H24.3384C24.3936 107.744 24.4384 107.699 24.4384 107.644H24.6203C24.6203 107.699 24.6651 107.744 24.7203 107.744H25.1022C25.1575 107.744 25.2022 107.699 25.2022 107.644H25.3842C25.3842 107.699 25.4289 107.744 25.4842 107.744H25.8661C25.9213 107.744 25.9661 107.699 25.9661 107.644H26.148C26.148 107.699 26.1928 107.744 26.248 107.744H26.6299C26.6851 107.744 26.7299 107.699 26.7299 107.644H26.9118C26.9118 107.699 26.9566 107.744 27.0118 107.744H27.3938C27.449 107.744 27.4938 107.699 27.4938 107.644H27.6757C27.6757 107.699 27.7205 107.744 27.7757 107.744H28.1576C28.2128 107.744 28.2576 107.699 28.2576 107.644H28.4395C28.4395 107.699 28.4843 107.744 28.5395 107.744H28.9215C28.9767 107.744 29.0215 107.699 29.0215 107.644H29.2034C29.2034 107.699 29.2482 107.744 29.3034 107.744H29.4943L29.5943 107.644V107.424C29.5943 107.369 29.5496 107.324 29.4943 107.324V107.084C29.5496 107.084 29.5943 107.039 29.5943 106.984V106.544C29.5943 106.489 29.5496 106.444 29.4943 106.444V106.205C29.5496 106.205 29.5943 106.16 29.5943 106.105V105.885L29.4943 105.785H29.3034C29.2481 105.785 29.2034 105.83 29.2034 105.885H29.0215C29.0215 105.83 28.9767 105.785 28.9215 105.785H28.5395C28.4843 105.785 28.4395 105.83 28.4395 105.885H28.2576C28.2576 105.83 28.2128 105.785 28.1576 105.785H27.7757C27.7205 105.785 27.6757 105.83 27.6757 105.885H27.4938C27.4938 105.83 27.449 105.785 27.3938 105.785H27.0118C26.9566 105.785 26.9118 105.83 26.9118 105.885H26.7299C26.7299 105.83 26.6851 105.785 26.6299 105.785H26.248C26.1928 105.785 26.148 105.83 26.148 105.885H25.9661C25.9661 105.83 25.9213 105.785 25.8661 105.785H25.4842C25.4289 105.785 25.3842 105.83 25.3842 105.885H25.2022C25.2022 105.83 25.1575 105.785 25.1022 105.785H24.7203C24.6651 105.785 24.6203 105.83 24.6203 105.885H24.4384C24.4384 105.83 24.3936 105.785 24.3384 105.785H23.9565C23.9012 105.785 23.8565 105.83 23.8565 105.885H23.6745C23.6745 105.83 23.6298 105.785 23.5745 105.785H23.1926C23.1374 105.785 23.0926 105.83 23.0926 105.885H22.9107C22.9107 105.83 22.8659 105.785 22.8107 105.785H22.4288C22.3735 105.785 22.3288 105.83 22.3288 105.885H22.1468C22.1468 105.83 22.1021 105.785 22.0468 105.785H21.6649C21.6097 105.785 21.5649 105.83 21.5649 105.885H21.383C21.383 105.83 21.3382 105.785 21.283 105.785H21.092Z" fill="url(#paint1_angular_125_303)" stroke="black" stroke-width="0.2" stroke-miterlimit="1.41421" stroke-linecap="round" stroke-dasharray="0.4 0.4"/>
<ellipse cx="61.1954" cy="113.822" rx="1.17241" ry="1.07471" fill="#6E5F5F"/>
<g clip-path="url(#clip1_125_303)">
<path d="M61 147.92C51.9223 147.92 44.4951 140.834 44.4951 132.174C44.4951 123.513 51.9223 116.427 61 116.427C70.0776 116.427 77.5048 123.513 77.5048 132.174C77.5048 140.834 70.0776 147.92 61 147.92Z" fill="#DBAB56"/>
<path d="M61.0001 145.978C69.5381 145.978 76.4596 139.374 76.4596 131.229C76.4596 123.083 69.5381 116.48 61.0001 116.48C52.462 116.48 45.5405 123.083 45.5405 131.229C45.5405 139.374 52.462 145.978 61.0001 145.978Z" fill="#EFB30C"/>
<path d="M47.3561 133.013C47.3561 124.878 54.2881 118.265 62.8156 118.265C66.6117 118.265 70.0777 119.577 72.7735 121.729C69.9677 118.527 65.7315 116.48 61.0001 116.48C52.4726 116.48 45.5405 123.093 45.5405 131.229C45.5405 135.743 47.6862 139.784 51.0421 142.513C48.7315 139.942 47.3561 136.635 47.3561 133.013Z" fill="#E5A300"/>
<path d="M68.5943 116.947C72.8463 123.585 72.8463 134.326 68.5943 140.964C64.3424 147.602 57.4619 147.602 53.21 140.964" fill="url(#paint2_angular_125_303)" fill-opacity="0.17"/>
<path d="M60.9914 147.447C51.9138 147.447 44.4866 140.361 44.4866 131.701C44.4866 123.041 51.9138 115.955 60.9914 115.955C70.0691 115.955 77.4963 123.041 77.4963 131.701C77.4963 140.361 70.0691 147.447 60.9914 147.447ZM60.9914 117.95C53.0141 117.95 46.5772 124.143 46.5772 131.701C46.5772 139.312 53.0691 145.453 60.9914 145.453C68.9138 145.453 75.4057 139.259 75.4057 131.701C75.4057 124.143 68.9688 117.95 60.9914 117.95Z" fill="#F7D27F"/>
<path d="M46.0356 132.751C46.0356 136.74 47.5761 140.361 50.1068 143.091C53.0227 145.505 56.8188 146.975 60.945 146.975C63.7509 146.975 66.3366 146.292 68.6473 145.138C66.7767 145.977 64.6861 146.45 62.4855 146.45C58.1392 146.45 54.178 144.56 51.5373 141.621C48.4564 139.102 46.4758 135.375 46.4758 131.176C46.4758 129.077 46.9709 127.082 47.8512 125.298C46.7509 127.555 46.0356 130.074 46.0356 132.751Z" fill="#EAC06C"/>
<path d="M61.9352 121.309C61.9352 121.781 61.4951 122.568 61 122.568C60.5048 122.568 60.0647 121.781 60.0647 121.309C60.0647 120.836 60.5048 120.417 61 120.417C61.4951 120.417 61.9352 120.836 61.9352 121.309Z" fill="#E5A300"/>
<path d="M61 122.201C61.5165 122.201 61.9352 121.802 61.9352 121.309C61.9352 120.816 61.5165 120.417 61 120.417C60.4834 120.417 60.0647 120.816 60.0647 121.309C60.0647 121.802 60.4834 122.201 61 122.201Z" fill="#F7D27F"/>
<path d="M61.6602 120.679C62.0453 121.046 62.0453 121.571 61.6602 121.939C61.2751 122.306 60.725 122.306 60.3398 121.939" fill="#EFC273"/>
<path d="M61.1102 116.952C61.1102 117.005 61.0552 117.057 61.0002 117.057C60.9452 117.057 60.8901 117.005 60.8901 116.952V115.955C60.8901 115.903 60.9452 115.85 61.0002 115.85C61.0552 115.85 61.1102 115.903 61.1102 115.955V116.952Z" fill="#FFE0A1"/>
<path d="M61.1102 146.555C61.1102 146.607 61.0552 146.66 61.0002 146.66C60.9452 146.66 60.8901 146.607 60.8901 146.555V145.558C60.8901 145.505 60.9452 145.453 61.0002 145.453C61.0552 145.453 61.1102 145.505 61.1102 145.558V146.555Z" fill="#FFE0A1"/>
<path d="M71.6734 121.256C71.6183 121.309 71.5633 121.309 71.5083 121.256C71.4533 121.204 71.4533 121.151 71.5083 121.099L72.2785 120.364C72.3335 120.312 72.3886 120.312 72.4436 120.364C72.4986 120.417 72.4986 120.469 72.4436 120.522L71.6734 121.256Z" fill="#FFE0A1"/>
<path d="M49.7769 142.146C49.7219 142.198 49.6668 142.198 49.6118 142.146C49.5568 142.094 49.5568 142.041 49.6118 141.989L50.382 141.254C50.4371 141.201 50.4921 141.201 50.5471 141.254C50.6021 141.306 50.6021 141.359 50.5471 141.411L49.7769 142.146Z" fill="#FFE0A1"/>
<path d="M75.9645 131.386C75.9095 131.386 75.8545 131.334 75.8545 131.281C75.8545 131.229 75.9095 131.176 75.9645 131.176H77.0098C77.0648 131.176 77.1199 131.229 77.1199 131.281C77.1199 131.334 77.0648 131.386 77.0098 131.386H75.9645Z" fill="#FFE0A1"/>
<path d="M44.9904 131.386C44.9354 131.386 44.8804 131.334 44.8804 131.281C44.8804 131.229 44.9354 131.176 44.9904 131.176H46.0357C46.0907 131.124 46.1457 131.176 46.1457 131.229C46.1457 131.281 46.0907 131.334 46.0357 131.334H44.9904V131.386Z" fill="#FFE0A1"/>
<path d="M71.5083 141.464C71.4533 141.411 71.4533 141.359 71.5083 141.306C71.5633 141.254 71.6183 141.254 71.6734 141.306L72.4436 142.041C72.4986 142.094 72.4986 142.146 72.4436 142.198C72.3886 142.251 72.3335 142.251 72.2785 142.198L71.5083 141.464Z" fill="#FFE0A1"/>
<path d="M49.5566 120.522C49.5016 120.469 49.5016 120.417 49.5566 120.364C49.6117 120.312 49.6667 120.312 49.7217 120.364L50.4919 121.099C50.5469 121.151 50.5469 121.204 50.4919 121.256C50.4369 121.309 50.3819 121.309 50.3269 121.256L49.5566 120.522Z" fill="#FFE0A1"/>
<path d="M53.628 118.842C53.683 118.894 53.628 118.999 53.573 118.999C53.5179 119.052 53.4079 118.999 53.4079 118.947L52.8577 118.054C52.8027 118.002 52.8577 117.897 52.9128 117.897C52.9678 117.844 53.0778 117.897 53.0778 117.949L53.628 118.842Z" fill="#FFE0A1"/>
<path d="M69.1426 144.455C69.1976 144.508 69.1426 144.613 69.0876 144.613C69.0326 144.665 68.9226 144.613 68.9226 144.56L68.3724 143.668C68.3174 143.615 68.3724 143.511 68.4274 143.511C68.4824 143.458 68.5925 143.511 68.5925 143.563L69.1426 144.455Z" fill="#FFE0A1"/>
<path d="M65.0163 117.477C65.0163 117.53 64.9063 117.582 64.8512 117.582C64.7962 117.582 64.7412 117.477 64.7412 117.425L65.0163 116.427C65.0163 116.375 65.1263 116.323 65.1813 116.323C65.2364 116.323 65.2914 116.427 65.2914 116.48L65.0163 117.477Z" fill="#FFE0A1"/>
<path d="M56.9838 146.03C56.9838 146.082 56.8738 146.135 56.8188 146.135C56.7638 146.135 56.7087 146.03 56.7087 145.977L56.9838 144.98C56.9838 144.928 57.0939 144.875 57.1489 144.875C57.2039 144.875 57.2589 144.98 57.2589 145.033L56.9838 146.03Z" fill="#FFE0A1"/>
<path d="M74.0389 124.196C73.9839 124.248 73.8739 124.196 73.8739 124.143C73.8188 124.091 73.8739 123.986 73.9289 123.986L74.8642 123.461C74.9192 123.408 75.0292 123.461 75.0292 123.513C75.0842 123.566 75.0292 123.671 74.9742 123.671L74.0389 124.196Z" fill="#FFE0A1"/>
<path d="M47.191 138.997C47.136 139.049 47.026 138.997 47.026 138.944C46.9709 138.892 47.026 138.787 47.081 138.787L48.0163 138.262C48.0713 138.209 48.1813 138.262 48.1813 138.314C48.2363 138.367 48.1813 138.472 48.1263 138.472L47.191 138.997Z" fill="#FFE0A1"/>
<path d="M75.4145 135.06C75.3595 135.06 75.3044 134.955 75.3044 134.903C75.3044 134.85 75.4145 134.798 75.4695 134.798L76.5148 135.06C76.5698 135.06 76.6248 135.165 76.6248 135.218C76.6248 135.27 76.5148 135.323 76.4598 135.323L75.4145 135.06Z" fill="#FFE0A1"/>
<path d="M45.4855 127.397C45.4305 127.397 45.3755 127.292 45.3755 127.24C45.3755 127.187 45.4855 127.135 45.5405 127.135L46.5858 127.397C46.6409 127.397 46.6959 127.502 46.6959 127.555C46.6959 127.607 46.5858 127.66 46.5308 127.66L45.4855 127.397Z" fill="#FFE0A1"/>
<path d="M48.1263 123.986C48.1813 124.038 48.2363 124.091 48.1813 124.143C48.1263 124.196 48.0713 124.248 48.0163 124.196L47.081 123.671C47.026 123.618 46.9709 123.566 47.026 123.513C47.081 123.461 47.136 123.408 47.191 123.461L48.1263 123.986Z" fill="#FFE0A1"/>
<path d="M74.9742 138.787C75.0292 138.839 75.0842 138.892 75.0292 138.944C74.9742 138.997 74.9192 139.049 74.8642 138.997L73.9289 138.472C73.8739 138.419 73.8188 138.367 73.8739 138.314C73.9289 138.262 73.9839 138.209 74.0389 138.262L74.9742 138.787Z" fill="#FFE0A1"/>
<path d="M57.2589 117.425C57.2589 117.477 57.2589 117.582 57.1489 117.582C57.0939 117.582 56.9838 117.582 56.9838 117.477L56.7087 116.48C56.7087 116.427 56.7087 116.323 56.8188 116.323C56.8738 116.323 56.9838 116.323 56.9838 116.427L57.2589 117.425Z" fill="#FFE0A1"/>
<path d="M65.2914 145.977C65.2914 146.03 65.2914 146.135 65.1813 146.135C65.1263 146.135 65.0163 146.135 65.0163 146.03L64.7412 145.033C64.7412 144.98 64.7412 144.875 64.8512 144.875C64.9063 144.875 65.0163 144.875 65.0163 144.98L65.2914 145.977Z" fill="#FFE0A1"/>
<path d="M68.5925 118.947C68.5374 118.999 68.4824 119.052 68.4274 118.999C68.3724 118.947 68.3174 118.894 68.3724 118.842L68.9226 117.949C68.9776 117.897 69.0326 117.844 69.0876 117.897C69.1426 117.949 69.1976 118.002 69.1426 118.054L68.5925 118.947Z" fill="#FFE0A1"/>
<path d="M53.0778 144.56C53.0228 144.613 52.9678 144.665 52.9128 144.613C52.8577 144.56 52.8027 144.508 52.8577 144.455L53.4079 143.563C53.4629 143.511 53.5179 143.458 53.573 143.511C53.628 143.563 53.683 143.615 53.628 143.668L53.0778 144.56Z" fill="#FFE0A1"/>
<path d="M75.4695 127.66C75.4145 127.66 75.3044 127.66 75.3044 127.555C75.3044 127.502 75.3044 127.397 75.4145 127.397L76.4598 127.135C76.5148 127.135 76.6248 127.135 76.6248 127.24C76.6248 127.292 76.6248 127.397 76.5148 127.397L75.4695 127.66Z" fill="#FFE0A1"/>
<path d="M45.5405 135.323C45.4855 135.323 45.3755 135.323 45.3755 135.218C45.3755 135.165 45.3755 135.06 45.4855 135.06L46.5308 134.798C46.5858 134.798 46.6959 134.798 46.6959 134.903C46.6959 134.955 46.6959 135.06 46.5858 135.06L45.5405 135.323Z" fill="#FFE0A1"/>
<path d="M62.3205 125.035H60.8351C60.67 125.035 60.505 125.088 60.3399 125.14L57.4791 126.61C57.039 126.82 56.8189 127.292 56.9289 127.764L57.259 129.077C57.314 129.392 57.5341 129.654 57.8642 129.759C58.1393 129.864 58.5244 129.864 58.7995 129.706L59.5697 129.339V138.577C59.5697 139.154 60.0648 139.574 60.615 139.574H62.3205C62.9257 139.574 63.3658 139.102 63.3658 138.577V126.032C63.3658 125.508 62.8707 125.035 62.3205 125.035Z" fill="#F5E3BE"/>
</g>
<path d="M60.8047 108.644H61.5863V112.552C61.5863 112.768 61.4113 112.943 61.1955 112.943V112.943C60.9797 112.943 60.8047 112.768 60.8047 112.552V108.644Z" fill="#DBCCCC"/>
<rect x="56.115" y="68" width="10.3563" height="40.6437" rx="3" fill="#4F6B2B"/>
<path d="M57.092 106.785L56.992 106.885V107.105C56.992 107.16 57.0368 107.205 57.092 107.205V107.444C57.0368 107.444 56.992 107.489 56.992 107.544V107.984C56.992 108.039 57.0368 108.084 57.092 108.084V108.324C57.0368 108.324 56.992 108.369 56.992 108.424V108.644L57.092 108.744H57.283C57.3382 108.744 57.383 108.699 57.383 108.644H57.5649C57.5649 108.699 57.6097 108.744 57.6649 108.744H58.0468C58.1021 108.744 58.1468 108.699 58.1468 108.644H58.3288C58.3288 108.699 58.3735 108.744 58.4288 108.744H58.8107C58.8659 108.744 58.9107 108.699 58.9107 108.644H59.0926C59.0926 108.699 59.1374 108.744 59.1926 108.744H59.5745C59.6298 108.744 59.6745 108.699 59.6745 108.644H59.8565C59.8565 108.699 59.9012 108.744 59.9565 108.744H60.3384C60.3936 108.744 60.4384 108.699 60.4384 108.644H60.6203C60.6203 108.699 60.6651 108.744 60.7203 108.744H61.1022C61.1575 108.744 61.2022 108.699 61.2022 108.644H61.3842C61.3842 108.699 61.4289 108.744 61.4842 108.744H61.8661C61.9213 108.744 61.9661 108.699 61.9661 108.644H62.148C62.148 108.699 62.1928 108.744 62.248 108.744H62.6299C62.6851 108.744 62.7299 108.699 62.7299 108.644H62.9118C62.9118 108.699 62.9566 108.744 63.0118 108.744H63.3938C63.449 108.744 63.4938 108.699 63.4938 108.644H63.6757C63.6757 108.699 63.7205 108.744 63.7757 108.744H64.1576C64.2128 108.744 64.2576 108.699 64.2576 108.644H64.4395C64.4395 108.699 64.4843 108.744 64.5395 108.744H64.9215C64.9767 108.744 65.0215 108.699 65.0215 108.644H65.2034C65.2034 108.699 65.2482 108.744 65.3034 108.744H65.4943L65.5943 108.644V108.424C65.5943 108.369 65.5496 108.324 65.4943 108.324V108.084C65.5496 108.084 65.5943 108.039 65.5943 107.984V107.544C65.5943 107.489 65.5496 107.444 65.4943 107.444V107.205C65.5496 107.205 65.5943 107.16 65.5943 107.105V106.885L65.4943 106.785H65.3034C65.2481 106.785 65.2034 106.83 65.2034 106.885H65.0215C65.0215 106.83 64.9767 106.785 64.9215 106.785H64.5395C64.4843 106.785 64.4395 106.83 64.4395 106.885H64.2576C64.2576 106.83 64.2128 106.785 64.1576 106.785H63.7757C63.7205 106.785 63.6757 106.83 63.6757 106.885H63.4938C63.4938 106.83 63.449 106.785 63.3938 106.785H63.0118C62.9566 106.785 62.9118 106.83 62.9118 106.885H62.7299C62.7299 106.83 62.6851 106.785 62.6299 106.785H62.248C62.1928 106.785 62.148 106.83 62.148 106.885H61.9661C61.9661 106.83 61.9213 106.785 61.8661 106.785H61.4842C61.4289 106.785 61.3842 106.83 61.3842 106.885H61.2022C61.2022 106.83 61.1575 106.785 61.1022 106.785H60.7203C60.6651 106.785 60.6203 106.83 60.6203 106.885H60.4384C60.4384 106.83 60.3936 106.785 60.3384 106.785H59.9565C59.9012 106.785 59.8565 106.83 59.8565 106.885H59.6745C59.6745 106.83 59.6298 106.785 59.5745 106.785H59.1926C59.1374 106.785 59.0926 106.83 59.0926 106.885H58.9107C58.9107 106.83 58.8659 106.785 58.8107 106.785H58.4288C58.3735 106.785 58.3288 106.83 58.3288 106.885H58.1468C58.1468 106.83 58.1021 106.785 58.0468 106.785H57.6649C57.6097 106.785 57.5649 106.83 57.5649 106.885H57.383C57.383 106.83 57.3382 106.785 57.283 106.785H57.092Z" fill="url(#paint3_angular_125_303)" stroke="black" stroke-width="0.2" stroke-miterlimit="1.41421" stroke-linecap="round" stroke-dasharray="0.4 0.4"/>
<ellipse cx="97.1954" cy="112.822" rx="1.17241" ry="1.07471" fill="#6E5F5F"/>
<g clip-path="url(#clip2_125_303)">
<path d="M97 146.92C87.9223 146.92 80.4951 139.834 80.4951 131.174C80.4951 122.513 87.9223 115.427 97 115.427C106.078 115.427 113.505 122.513 113.505 131.174C113.505 139.834 106.078 146.92 97 146.92Z" fill="#DBAB56"/>
<path d="M97.0001 144.978C105.538 144.978 112.46 138.374 112.46 130.229C112.46 122.083 105.538 115.48 97.0001 115.48C88.462 115.48 81.5405 122.083 81.5405 130.229C81.5405 138.374 88.462 144.978 97.0001 144.978Z" fill="#EFB30C"/>
<path d="M83.3561 132.013C83.3561 123.878 90.2881 117.265 98.8156 117.265C102.612 117.265 106.078 118.577 108.774 120.729C105.968 117.527 101.731 115.48 97.0001 115.48C88.4726 115.48 81.5405 122.093 81.5405 130.229C81.5405 134.743 83.6862 138.784 87.0421 141.513C84.7315 138.942 83.3561 135.635 83.3561 132.013Z" fill="#E5A300"/>
<path d="M104.594 115.947C108.846 122.585 108.846 133.326 104.594 139.964C100.342 146.602 93.4619 146.602 89.21 139.964" fill="url(#paint4_angular_125_303)" fill-opacity="0.17"/>
<path d="M96.9914 146.447C87.9138 146.447 80.4866 139.361 80.4866 130.701C80.4866 122.041 87.9138 114.955 96.9914 114.955C106.069 114.955 113.496 122.041 113.496 130.701C113.496 139.361 106.069 146.447 96.9914 146.447ZM96.9914 116.95C89.0141 116.95 82.5772 123.143 82.5772 130.701C82.5772 138.312 89.0691 144.453 96.9914 144.453C104.914 144.453 111.406 138.259 111.406 130.701C111.406 123.143 104.969 116.95 96.9914 116.95Z" fill="#F7D27F"/>
<path d="M82.0356 131.751C82.0356 135.74 83.5761 139.361 86.1068 142.091C89.0227 144.505 92.8188 145.975 96.945 145.975C99.7509 145.975 102.337 145.292 104.647 144.138C102.777 144.977 100.686 145.45 98.4855 145.45C94.1392 145.45 90.178 143.56 87.5373 140.621C84.4564 138.102 82.4758 134.375 82.4758 130.176C82.4758 128.077 82.9709 126.082 83.8512 124.298C82.7509 126.555 82.0356 129.074 82.0356 131.751Z" fill="#EAC06C"/>
<path d="M97.9352 120.309C97.9352 120.781 97.4951 121.568 97 121.568C96.5048 121.568 96.0647 120.781 96.0647 120.309C96.0647 119.836 96.5048 119.417 97 119.417C97.4951 119.417 97.9352 119.836 97.9352 120.309Z" fill="#E5A300"/>
<path d="M97 121.201C97.5165 121.201 97.9352 120.802 97.9352 120.309C97.9352 119.816 97.5165 119.417 97 119.417C96.4834 119.417 96.0647 119.816 96.0647 120.309C96.0647 120.802 96.4834 121.201 97 121.201Z" fill="#F7D27F"/>
<path d="M97.6602 119.679C98.0453 120.046 98.0453 120.571 97.6602 120.939C97.2751 121.306 96.725 121.306 96.3398 120.939" fill="#EFC273"/>
<path d="M97.1102 115.952C97.1102 116.005 97.0552 116.057 97.0002 116.057C96.9452 116.057 96.8901 116.005 96.8901 115.952V114.955C96.8901 114.903 96.9452 114.85 97.0002 114.85C97.0552 114.85 97.1102 114.903 97.1102 114.955V115.952Z" fill="#FFE0A1"/>
<path d="M97.1102 145.555C97.1102 145.607 97.0552 145.66 97.0002 145.66C96.9452 145.66 96.8901 145.607 96.8901 145.555V144.558C96.8901 144.505 96.9452 144.453 97.0002 144.453C97.0552 144.453 97.1102 144.505 97.1102 144.558V145.555Z" fill="#FFE0A1"/>
<path d="M107.673 120.256C107.618 120.309 107.563 120.309 107.508 120.256C107.453 120.204 107.453 120.151 107.508 120.099L108.279 119.364C108.334 119.312 108.389 119.312 108.444 119.364C108.499 119.417 108.499 119.469 108.444 119.522L107.673 120.256Z" fill="#FFE0A1"/>
<path d="M85.7769 141.146C85.7219 141.198 85.6668 141.198 85.6118 141.146C85.5568 141.094 85.5568 141.041 85.6118 140.989L86.382 140.254C86.4371 140.201 86.4921 140.201 86.5471 140.254C86.6021 140.306 86.6021 140.359 86.5471 140.411L85.7769 141.146Z" fill="#FFE0A1"/>
<path d="M111.965 130.386C111.91 130.386 111.854 130.334 111.854 130.281C111.854 130.229 111.91 130.176 111.965 130.176H113.01C113.065 130.176 113.12 130.229 113.12 130.281C113.12 130.334 113.065 130.386 113.01 130.386H111.965Z" fill="#FFE0A1"/>
<path d="M80.9904 130.386C80.9354 130.386 80.8804 130.334 80.8804 130.281C80.8804 130.229 80.9354 130.176 80.9904 130.176H82.0357C82.0907 130.124 82.1457 130.176 82.1457 130.229C82.1457 130.281 82.0907 130.334 82.0357 130.334H80.9904V130.386Z" fill="#FFE0A1"/>
<path d="M107.508 140.464C107.453 140.411 107.453 140.359 107.508 140.306C107.563 140.254 107.618 140.254 107.673 140.306L108.444 141.041C108.499 141.094 108.499 141.146 108.444 141.198C108.389 141.251 108.334 141.251 108.279 141.198L107.508 140.464Z" fill="#FFE0A1"/>
<path d="M85.5566 119.522C85.5016 119.469 85.5016 119.417 85.5566 119.364C85.6117 119.312 85.6667 119.312 85.7217 119.364L86.4919 120.099C86.5469 120.151 86.5469 120.204 86.4919 120.256C86.4369 120.309 86.3819 120.309 86.3269 120.256L85.5566 119.522Z" fill="#FFE0A1"/>
<path d="M89.628 117.842C89.683 117.894 89.628 117.999 89.573 117.999C89.5179 118.052 89.4079 117.999 89.4079 117.947L88.8577 117.054C88.8027 117.002 88.8577 116.897 88.9128 116.897C88.9678 116.844 89.0778 116.897 89.0778 116.949L89.628 117.842Z" fill="#FFE0A1"/>
<path d="M105.143 143.455C105.198 143.508 105.143 143.613 105.088 143.613C105.033 143.665 104.923 143.613 104.923 143.56L104.372 142.668C104.317 142.615 104.372 142.511 104.427 142.511C104.482 142.458 104.592 142.511 104.592 142.563L105.143 143.455Z" fill="#FFE0A1"/>
<path d="M101.016 116.477C101.016 116.53 100.906 116.582 100.851 116.582C100.796 116.582 100.741 116.477 100.741 116.425L101.016 115.427C101.016 115.375 101.126 115.323 101.181 115.323C101.236 115.323 101.291 115.427 101.291 115.48L101.016 116.477Z" fill="#FFE0A1"/>
<path d="M92.9838 145.03C92.9838 145.082 92.8738 145.135 92.8188 145.135C92.7638 145.135 92.7087 145.03 92.7087 144.977L92.9838 143.98C92.9838 143.928 93.0939 143.875 93.1489 143.875C93.2039 143.875 93.2589 143.98 93.2589 144.033L92.9838 145.03Z" fill="#FFE0A1"/>
<path d="M110.039 123.196C109.984 123.248 109.874 123.196 109.874 123.143C109.819 123.091 109.874 122.986 109.929 122.986L110.864 122.461C110.919 122.408 111.029 122.461 111.029 122.513C111.084 122.566 111.029 122.671 110.974 122.671L110.039 123.196Z" fill="#FFE0A1"/>
<path d="M83.191 137.997C83.136 138.049 83.026 137.997 83.026 137.944C82.9709 137.892 83.026 137.787 83.081 137.787L84.0163 137.262C84.0713 137.209 84.1813 137.262 84.1813 137.314C84.2363 137.367 84.1813 137.472 84.1263 137.472L83.191 137.997Z" fill="#FFE0A1"/>
<path d="M111.414 134.06C111.359 134.06 111.304 133.955 111.304 133.903C111.304 133.85 111.414 133.798 111.469 133.798L112.515 134.06C112.57 134.06 112.625 134.165 112.625 134.218C112.625 134.27 112.515 134.323 112.46 134.323L111.414 134.06Z" fill="#FFE0A1"/>
<path d="M81.4855 126.397C81.4305 126.397 81.3755 126.292 81.3755 126.24C81.3755 126.187 81.4855 126.135 81.5405 126.135L82.5858 126.397C82.6409 126.397 82.6959 126.502 82.6959 126.555C82.6959 126.607 82.5858 126.66 82.5308 126.66L81.4855 126.397Z" fill="#FFE0A1"/>
<path d="M84.1263 122.986C84.1813 123.038 84.2363 123.091 84.1813 123.143C84.1263 123.196 84.0713 123.248 84.0163 123.196L83.081 122.671C83.026 122.618 82.9709 122.566 83.026 122.513C83.081 122.461 83.136 122.408 83.191 122.461L84.1263 122.986Z" fill="#FFE0A1"/>
<path d="M110.974 137.787C111.029 137.839 111.084 137.892 111.029 137.944C110.974 137.997 110.919 138.049 110.864 137.997L109.929 137.472C109.874 137.419 109.819 137.367 109.874 137.314C109.929 137.262 109.984 137.209 110.039 137.262L110.974 137.787Z" fill="#FFE0A1"/>
<path d="M93.2589 116.425C93.2589 116.477 93.2589 116.582 93.1489 116.582C93.0939 116.582 92.9838 116.582 92.9838 116.477L92.7087 115.48C92.7087 115.427 92.7087 115.323 92.8188 115.323C92.8738 115.323 92.9838 115.323 92.9838 115.427L93.2589 116.425Z" fill="#FFE0A1"/>
<path d="M101.291 144.977C101.291 145.03 101.291 145.135 101.181 145.135C101.126 145.135 101.016 145.135 101.016 145.03L100.741 144.033C100.741 143.98 100.741 143.875 100.851 143.875C100.906 143.875 101.016 143.875 101.016 143.98L101.291 144.977Z" fill="#FFE0A1"/>
<path d="M104.592 117.947C104.537 117.999 104.482 118.052 104.427 117.999C104.372 117.947 104.317 117.894 104.372 117.842L104.923 116.949C104.978 116.897 105.033 116.844 105.088 116.897C105.143 116.949 105.198 117.002 105.143 117.054L104.592 117.947Z" fill="#FFE0A1"/>
<path d="M89.0778 143.56C89.0228 143.613 88.9678 143.665 88.9128 143.613C88.8577 143.56 88.8027 143.508 88.8577 143.455L89.4079 142.563C89.4629 142.511 89.5179 142.458 89.573 142.511C89.628 142.563 89.683 142.615 89.628 142.668L89.0778 143.56Z" fill="#FFE0A1"/>
<path d="M111.469 126.66C111.414 126.66 111.304 126.66 111.304 126.555C111.304 126.502 111.304 126.397 111.414 126.397L112.46 126.135C112.515 126.135 112.625 126.135 112.625 126.24C112.625 126.292 112.625 126.397 112.515 126.397L111.469 126.66Z" fill="#FFE0A1"/>
<path d="M81.5405 134.323C81.4855 134.323 81.3755 134.323 81.3755 134.218C81.3755 134.165 81.3755 134.06 81.4855 134.06L82.5308 133.798C82.5858 133.798 82.6959 133.798 82.6959 133.903C82.6959 133.955 82.6959 134.06 82.5858 134.06L81.5405 134.323Z" fill="#FFE0A1"/>
<path d="M98.3205 124.035H96.8351C96.67 124.035 96.505 124.088 96.3399 124.14L93.4791 125.61C93.039 125.82 92.8189 126.292 92.9289 126.764L93.259 128.077C93.314 128.392 93.5341 128.654 93.8642 128.759C94.1393 128.864 94.5244 128.864 94.7995 128.706L95.5697 128.339V137.577C95.5697 138.154 96.0648 138.574 96.615 138.574H98.3205C98.9257 138.574 99.3658 138.102 99.3658 137.577V125.032C99.3658 124.508 98.8707 124.035 98.3205 124.035Z" fill="#F5E3BE"/>
</g>
<path d="M96.8047 107.644H97.5863V111.552C97.5863 111.768 97.4113 111.943 97.1955 111.943V111.943C96.9797 111.943 96.8047 111.768 96.8047 111.552V107.644Z" fill="#DBCCCC"/>
<rect x="92.115" y="67" width="10.3563" height="40.6437" rx="3" fill="#4F6B2B"/>
<path d="M93.092 105.785L92.992 105.885V106.105C92.992 106.16 93.0368 106.205 93.092 106.205V106.444C93.0368 106.444 92.992 106.489 92.992 106.544V106.984C92.992 107.039 93.0368 107.084 93.092 107.084V107.324C93.0368 107.324 92.992 107.369 92.992 107.424V107.644L93.092 107.744H93.283C93.3382 107.744 93.383 107.699 93.383 107.644H93.5649C93.5649 107.699 93.6097 107.744 93.6649 107.744H94.0468C94.1021 107.744 94.1468 107.699 94.1468 107.644H94.3288C94.3288 107.699 94.3735 107.744 94.4288 107.744H94.8107C94.8659 107.744 94.9107 107.699 94.9107 107.644H95.0926C95.0926 107.699 95.1374 107.744 95.1926 107.744H95.5745C95.6298 107.744 95.6745 107.699 95.6745 107.644H95.8565C95.8565 107.699 95.9012 107.744 95.9565 107.744H96.3384C96.3936 107.744 96.4384 107.699 96.4384 107.644H96.6203C96.6203 107.699 96.6651 107.744 96.7203 107.744H97.1022C97.1575 107.744 97.2022 107.699 97.2022 107.644H97.3842C97.3842 107.699 97.4289 107.744 97.4842 107.744H97.8661C97.9213 107.744 97.9661 107.699 97.9661 107.644H98.148C98.148 107.699 98.1928 107.744 98.248 107.744H98.6299C98.6851 107.744 98.7299 107.699 98.7299 107.644H98.9118C98.9118 107.699 98.9566 107.744 99.0118 107.744H99.3938C99.449 107.744 99.4938 107.699 99.4938 107.644H99.6757C99.6757 107.699 99.7205 107.744 99.7757 107.744H100.158C100.213 107.744 100.258 107.699 100.258 107.644H100.44C100.44 107.699 100.484 107.744 100.54 107.744H100.921C100.977 107.744 101.021 107.699 101.021 107.644H101.203C101.203 107.699 101.248 107.744 101.303 107.744H101.494L101.594 107.644V107.424C101.594 107.369 101.55 107.324 101.494 107.324V107.084C101.55 107.084 101.594 107.039 101.594 106.984V106.544C101.594 106.489 101.55 106.444 101.494 106.444V106.205C101.55 106.205 101.594 106.16 101.594 106.105V105.885L101.494 105.785H101.303C101.248 105.785 101.203 105.83 101.203 105.885H101.021C101.021 105.83 100.977 105.785 100.921 105.785H100.54C100.484 105.785 100.44 105.83 100.44 105.885H100.258C100.258 105.83 100.213 105.785 100.158 105.785H99.7757C99.7205 105.785 99.6757 105.83 99.6757 105.885H99.4938C99.4938 105.83 99.449 105.785 99.3938 105.785H99.0118C98.9566 105.785 98.9118 105.83 98.9118 105.885H98.7299C98.7299 105.83 98.6851 105.785 98.6299 105.785H98.248C98.1928 105.785 98.148 105.83 98.148 105.885H97.9661C97.9661 105.83 97.9213 105.785 97.8661 105.785H97.4842C97.4289 105.785 97.3842 105.83 97.3842 105.885H97.2022C97.2022 105.83 97.1575 105.785 97.1022 105.785H96.7203C96.6651 105.785 96.6203 105.83 96.6203 105.885H96.4384C96.4384 105.83 96.3936 105.785 96.3384 105.785H95.9565C95.9012 105.785 95.8565 105.83 95.8565 105.885H95.6745C95.6745 105.83 95.6298 105.785 95.5745 105.785H95.1926C95.1374 105.785 95.0926 105.83 95.0926 105.885H94.9107C94.9107 105.83 94.8659 105.785 94.8107 105.785H94.4288C94.3735 105.785 94.3288 105.83 94.3288 105.885H94.1468C94.1468 105.83 94.1021 105.785 94.0468 105.785H93.6649C93.6097 105.785 93.5649 105.83 93.5649 105.885H93.383C93.383 105.83 93.3382 105.785 93.283 105.785H93.092Z" fill="url(#paint5_angular_125_303)" stroke="black" stroke-width="0.2" stroke-miterlimit="1.41421" stroke-linecap="round" stroke-dasharray="0.4 0.4"/>
<path d="M157.707 114.035L165.198 114.035C163.017 107.966 160.457 107.966 157.707 114.035Z" fill="#EAE6DD" stroke="black" stroke-width="0.5"/>
<ellipse cx="161.69" cy="111.474" rx="1.13793" ry="1.0431" fill="#6E5F5F"/>
<g clip-path="url(#clip3_125_303)">
<path d="M161.5 144.569C152.689 144.569 145.48 137.692 145.48 129.286C145.48 120.88 152.689 114.003 161.5 114.003C170.311 114.003 177.519 120.88 177.519 129.286C177.519 137.692 170.311 144.569 161.5 144.569Z" fill="#ACACAC"/>
<path d="M161.5 142.684C169.787 142.684 176.505 136.275 176.505 128.369C176.505 120.463 169.787 114.054 161.5 114.054C153.213 114.054 146.495 120.463 146.495 128.369C146.495 136.275 153.213 142.684 161.5 142.684Z" fill="#DCD5C2"/>
<path d="M148.257 130.101C148.257 122.205 154.985 115.786 163.262 115.786C166.947 115.786 170.311 117.06 172.927 119.148C170.204 116.041 166.092 114.054 161.5 114.054C153.223 114.054 146.495 120.473 146.495 128.369C146.495 132.75 148.578 136.673 151.835 139.322C149.592 136.826 148.257 133.616 148.257 130.101Z" fill="#F4EDDC"/>
<path d="M168.871 114.508C172.998 120.95 172.998 131.376 168.871 137.818C164.744 144.261 158.066 144.261 153.939 137.818" fill="url(#paint6_linear_125_303)" fill-opacity="0.5"/>
<path d="M161.492 144.11C152.681 144.11 145.472 137.233 145.472 128.828C145.472 120.422 152.681 113.545 161.492 113.545C170.303 113.545 177.511 120.422 177.511 128.828C177.511 137.233 170.303 144.11 161.492 144.11ZM161.492 115.481C153.749 115.481 147.502 121.492 147.502 128.828C147.502 136.214 153.803 142.175 161.492 142.175C169.181 142.175 175.482 136.163 175.482 128.828C175.482 121.492 169.235 115.481 161.492 115.481Z" fill="#B0AFAA"/>
<path d="M162.408 118.741C162.408 119.199 161.981 119.963 161.5 119.963C161.019 119.963 160.592 119.199 160.592 118.741C160.592 118.282 161.019 117.875 161.5 117.875C161.981 117.875 162.408 118.282 162.408 118.741Z" fill="#685E46"/>
<path d="M161.5 119.607C162.001 119.607 162.408 119.219 162.408 118.741C162.408 118.262 162.001 117.875 161.5 117.875C160.999 117.875 160.592 118.262 160.592 118.741C160.592 119.219 160.999 119.607 161.5 119.607Z" fill="#8F8775"/>
<path d="M162.141 118.13C162.514 118.486 162.514 118.996 162.141 119.352C161.767 119.709 161.233 119.709 160.859 119.352" fill="white"/>
<path d="M161.607 114.513C161.607 114.564 161.553 114.615 161.5 114.615C161.446 114.615 161.393 114.564 161.393 114.513V113.545C161.393 113.494 161.446 113.443 161.5 113.443C161.553 113.443 161.607 113.494 161.607 113.545V114.513Z" fill="white"/>
<path d="M161.607 143.245C161.607 143.296 161.553 143.346 161.5 143.346C161.446 143.346 161.393 143.296 161.393 143.245V142.277C161.393 142.226 161.446 142.175 161.5 142.175C161.553 142.175 161.607 142.226 161.607 142.277V143.245Z" fill="white"/>
<path d="M171.859 118.69C171.806 118.741 171.752 118.741 171.699 118.69C171.646 118.639 171.646 118.588 171.699 118.537L172.447 117.824C172.5 117.773 172.553 117.773 172.607 117.824C172.66 117.875 172.66 117.926 172.607 117.977L171.859 118.69Z" fill="white"/>
<path d="M150.607 138.965C150.553 139.016 150.5 139.016 150.447 138.965C150.393 138.914 150.393 138.863 150.447 138.812L151.194 138.099C151.248 138.048 151.301 138.048 151.354 138.099C151.408 138.15 151.408 138.201 151.354 138.252L150.607 138.965Z" fill="white"/>
<path d="M176.024 128.522C175.971 128.522 175.917 128.471 175.917 128.42C175.917 128.369 175.971 128.318 176.024 128.318H177.039C177.092 128.318 177.145 128.369 177.145 128.42C177.145 128.471 177.092 128.522 177.039 128.522H176.024Z" fill="white"/>
<path d="M145.961 128.522C145.908 128.522 145.854 128.471 145.854 128.42C145.854 128.369 145.908 128.318 145.961 128.318H146.976C147.029 128.267 147.082 128.318 147.082 128.369C147.082 128.42 147.029 128.471 146.976 128.471H145.961V128.522Z" fill="white"/>
<path d="M171.699 138.303C171.646 138.252 171.646 138.201 171.699 138.15C171.752 138.099 171.806 138.099 171.859 138.15L172.607 138.863C172.66 138.914 172.66 138.965 172.607 139.016C172.553 139.067 172.5 139.067 172.447 139.016L171.699 138.303Z" fill="white"/>
<path d="M150.393 117.977C150.34 117.926 150.34 117.875 150.393 117.824C150.446 117.773 150.5 117.773 150.553 117.824L151.301 118.537C151.354 118.588 151.354 118.639 151.301 118.69C151.247 118.741 151.194 118.741 151.141 118.69L150.393 117.977Z" fill="white"/>
<path d="M154.345 116.347C154.398 116.397 154.345 116.499 154.291 116.499C154.238 116.55 154.131 116.499 154.131 116.448L153.597 115.582C153.544 115.531 153.597 115.43 153.65 115.43C153.704 115.379 153.811 115.43 153.811 115.48L154.345 116.347Z" fill="white"/>
<path d="M169.403 141.207C169.456 141.258 169.403 141.36 169.349 141.36C169.296 141.411 169.189 141.36 169.189 141.309L168.655 140.443C168.602 140.392 168.655 140.29 168.709 140.29C168.762 140.239 168.869 140.29 168.869 140.341L169.403 141.207Z" fill="white"/>
<path d="M165.398 115.022C165.398 115.073 165.291 115.124 165.238 115.124C165.184 115.124 165.131 115.022 165.131 114.971L165.398 114.003C165.398 113.952 165.505 113.901 165.558 113.901C165.611 113.901 165.665 114.003 165.665 114.054L165.398 115.022Z" fill="white"/>
<path d="M157.602 142.735C157.602 142.786 157.495 142.837 157.442 142.837C157.388 142.837 157.335 142.735 157.335 142.684L157.602 141.716C157.602 141.665 157.709 141.614 157.762 141.614C157.815 141.614 157.869 141.716 157.869 141.767L157.602 142.735Z" fill="white"/>
<path d="M174.155 121.543C174.102 121.594 173.995 121.543 173.995 121.492C173.942 121.441 173.995 121.339 174.048 121.339L174.956 120.83C175.01 120.779 175.116 120.83 175.116 120.881C175.17 120.932 175.116 121.033 175.063 121.033L174.155 121.543Z" fill="white"/>
<path d="M148.097 135.909C148.043 135.96 147.937 135.909 147.937 135.858C147.883 135.807 147.937 135.705 147.99 135.705L148.898 135.195C148.951 135.144 149.058 135.195 149.058 135.246C149.111 135.297 149.058 135.399 149.005 135.399L148.097 135.909Z" fill="white"/>
<path d="M175.49 132.088C175.437 132.088 175.383 131.986 175.383 131.935C175.383 131.884 175.49 131.833 175.543 131.833L176.558 132.088C176.611 132.088 176.665 132.19 176.665 132.241C176.665 132.292 176.558 132.343 176.505 132.343L175.49 132.088Z" fill="white"/>
<path d="M146.442 124.65C146.388 124.65 146.335 124.548 146.335 124.497C146.335 124.446 146.442 124.396 146.495 124.396L147.509 124.65C147.563 124.65 147.616 124.752 147.616 124.803C147.616 124.854 147.509 124.905 147.456 124.905L146.442 124.65Z" fill="white"/>
<path d="M149.005 121.339C149.058 121.39 149.111 121.441 149.058 121.492C149.005 121.543 148.951 121.594 148.898 121.543L147.99 121.033C147.937 120.983 147.883 120.932 147.937 120.881C147.99 120.83 148.043 120.779 148.097 120.83L149.005 121.339Z" fill="white"/>
<path d="M175.063 135.705C175.116 135.756 175.17 135.807 175.116 135.858C175.063 135.909 175.01 135.96 174.956 135.909L174.048 135.399C173.995 135.348 173.942 135.297 173.995 135.246C174.048 135.195 174.102 135.144 174.155 135.195L175.063 135.705Z" fill="white"/>
<path d="M157.869 114.971C157.869 115.022 157.869 115.124 157.762 115.124C157.709 115.124 157.602 115.124 157.602 115.022L157.335 114.054C157.335 114.003 157.335 113.901 157.442 113.901C157.495 113.901 157.602 113.901 157.602 114.003L157.869 114.971Z" fill="white"/>
<path d="M165.665 142.684C165.665 142.735 165.665 142.837 165.558 142.837C165.505 142.837 165.398 142.837 165.398 142.735L165.131 141.767C165.131 141.716 165.131 141.614 165.238 141.614C165.291 141.614 165.398 141.614 165.398 141.716L165.665 142.684Z" fill="white"/>
<path d="M168.869 116.448C168.815 116.499 168.762 116.55 168.709 116.499C168.655 116.448 168.602 116.397 168.655 116.347L169.189 115.48C169.243 115.43 169.296 115.379 169.349 115.43C169.403 115.48 169.456 115.531 169.403 115.582L168.869 116.448Z" fill="white"/>
<path d="M153.811 141.309C153.757 141.36 153.704 141.411 153.65 141.36C153.597 141.309 153.544 141.258 153.597 141.207L154.131 140.341C154.184 140.29 154.238 140.239 154.291 140.29C154.345 140.341 154.398 140.392 154.345 140.443L153.811 141.309Z" fill="white"/>
<path d="M175.543 124.905C175.49 124.905 175.383 124.905 175.383 124.803C175.383 124.752 175.383 124.65 175.49 124.65L176.505 124.396C176.558 124.396 176.665 124.396 176.665 124.497C176.665 124.548 176.665 124.65 176.558 124.65L175.543 124.905Z" fill="white"/>
<path d="M146.495 132.343C146.442 132.343 146.335 132.343 146.335 132.241C146.335 132.19 146.335 132.088 146.442 132.088L147.456 131.833C147.509 131.833 147.616 131.833 147.616 131.935C147.616 131.986 147.616 132.088 147.509 132.088L146.495 132.343Z" fill="white"/>
<path d="M157.338 125.879C157.338 122.677 161.632 122.237 163.217 122.749C165.578 123.511 165.578 125.879 165.578 125.879C165.208 131.003 159.035 133.099 159.793 133.515C160.552 133.93 159.424 133.515 161.131 133.515C161.7 133.654 164.956 133.557 165.208 133.515C165.664 133.439 166.283 132.137 166.536 131.568H166.915V135.93H157.338C157.243 134.034 157.812 132.232 159.234 131.379C162.174 129.615 163.596 126.827 163.596 125.879C163.596 123.748 160.372 124.835 160.372 125.404C160.372 127.965 157.338 128.249 157.338 125.879Z" fill="black" fill-opacity="0.71"/>
</g>
<path d="M161.31 106.448H162.069V110.241C162.069 110.451 161.899 110.62 161.69 110.62V110.62C161.48 110.62 161.31 110.451 161.31 110.241V106.448Z" fill="#DBCCCC"/>
<rect x="156.759" y="67" width="10.0517" height="39.4483" rx="3" fill="#6B2B2D"/>
<path d="M157.707 104.641L157.607 104.741V104.955C157.607 105.01 157.652 105.055 157.707 105.055V105.281C157.652 105.281 157.607 105.326 157.607 105.381V105.808C157.607 105.863 157.652 105.908 157.707 105.908V106.135C157.652 106.135 157.607 106.18 157.607 106.235V106.448L157.707 106.548H157.911C157.966 106.548 158.011 106.503 158.011 106.448H158.218C158.218 106.503 158.263 106.548 158.318 106.548H158.726C158.781 106.548 158.826 106.503 158.826 106.448H159.034C159.034 106.503 159.079 106.548 159.134 106.548H159.542C159.597 106.548 159.642 106.503 159.642 106.448H159.849C159.849 106.503 159.894 106.548 159.949 106.548H160.357C160.412 106.548 160.457 106.503 160.457 106.448H160.665C160.665 106.503 160.71 106.548 160.765 106.548H161.173C161.228 106.548 161.273 106.503 161.273 106.448H161.48C161.48 106.503 161.525 106.548 161.58 106.548H161.988C162.043 106.548 162.088 106.503 162.088 106.448H162.296C162.296 106.503 162.341 106.548 162.396 106.548H162.804C162.859 106.548 162.904 106.503 162.904 106.448H163.112C163.112 106.503 163.156 106.548 163.212 106.548H163.619C163.675 106.548 163.719 106.503 163.719 106.448H163.927C163.927 106.503 163.972 106.548 164.027 106.548H164.435C164.49 106.548 164.535 106.503 164.535 106.448H164.743C164.743 106.503 164.787 106.548 164.843 106.548H165.25C165.306 106.548 165.35 106.503 165.35 106.448H165.558C165.558 106.503 165.603 106.548 165.658 106.548H165.862L165.962 106.448V106.235C165.962 106.18 165.917 106.135 165.862 106.135V105.908C165.917 105.908 165.962 105.863 165.962 105.808V105.381C165.962 105.326 165.917 105.281 165.862 105.281V105.055C165.917 105.055 165.962 105.01 165.962 104.955V104.741L165.862 104.641H165.658C165.603 104.641 165.558 104.686 165.558 104.741H165.35C165.35 104.686 165.306 104.641 165.25 104.641H164.843C164.787 104.641 164.743 104.686 164.743 104.741H164.535C164.535 104.686 164.49 104.641 164.435 104.641H164.027C163.972 104.641 163.927 104.686 163.927 104.741H163.719C163.719 104.686 163.675 104.641 163.619 104.641H163.212C163.156 104.641 163.112 104.686 163.112 104.741H162.904C162.904 104.686 162.859 104.641 162.804 104.641H162.396C162.341 104.641 162.296 104.686 162.296 104.741H162.088C162.088 104.686 162.043 104.641 161.988 104.641H161.58C161.525 104.641 161.48 104.686 161.48 104.741H161.273C161.273 104.686 161.228 104.641 161.173 104.641H160.765C160.71 104.641 160.665 104.686 160.665 104.741H160.457C160.457 104.686 160.412 104.641 160.357 104.641H159.949C159.894 104.641 159.849 104.686 159.849 104.741H159.642C159.642 104.686 159.597 104.641 159.542 104.641H159.134C159.079 104.641 159.034 104.686 159.034 104.741H158.826C158.826 104.686 158.781 104.641 158.726 104.641H158.318C158.263 104.641 158.218 104.686 158.218 104.741H158.011C158.011 104.686 157.966 104.641 157.911 104.641H157.707Z" fill="url(#paint7_angular_125_303)" stroke="black" stroke-width="0.2" stroke-miterlimit="1.41421" stroke-linecap="round" stroke-dasharray="0.4 0.4"/>
<path d="M208.707 115.035L216.198 115.035C214.017 108.966 211.457 108.966 208.707 115.035Z" fill="#EAE6DD" stroke="black" stroke-width="0.5"/>
<ellipse cx="212.69" cy="112.474" rx="1.13793" ry="1.0431" fill="#6E5F5F"/>
<g clip-path="url(#clip4_125_303)">
<path d="M212.5 145.569C203.689 145.569 196.48 138.692 196.48 130.286C196.48 121.88 203.689 115.003 212.5 115.003C221.311 115.003 228.519 121.88 228.519 130.286C228.519 138.692 221.311 145.569 212.5 145.569Z" fill="#ACACAC"/>
<path d="M212.5 143.684C220.787 143.684 227.505 137.275 227.505 129.369C227.505 121.463 220.787 115.054 212.5 115.054C204.213 115.054 197.495 121.463 197.495 129.369C197.495 137.275 204.213 143.684 212.5 143.684Z" fill="#DCD5C2"/>
<path d="M199.257 131.101C199.257 123.205 205.985 116.786 214.262 116.786C217.947 116.786 221.311 118.06 223.927 120.148C221.204 117.041 217.092 115.054 212.5 115.054C204.223 115.054 197.495 121.473 197.495 129.369C197.495 133.75 199.578 137.673 202.835 140.322C200.592 137.826 199.257 134.616 199.257 131.101Z" fill="#F4EDDC"/>
<path d="M219.871 115.508C223.998 121.95 223.998 132.376 219.871 138.818C215.744 145.261 209.066 145.261 204.939 138.818" fill="url(#paint8_linear_125_303)" fill-opacity="0.5"/>
<path d="M212.492 145.11C203.681 145.11 196.472 138.233 196.472 129.828C196.472 121.422 203.681 114.545 212.492 114.545C221.303 114.545 228.511 121.422 228.511 129.828C228.511 138.233 221.303 145.11 212.492 145.11ZM212.492 116.481C204.749 116.481 198.502 122.492 198.502 129.828C198.502 137.214 204.803 143.175 212.492 143.175C220.181 143.175 226.482 137.163 226.482 129.828C226.482 122.492 220.235 116.481 212.492 116.481Z" fill="#B0AFAA"/>
<path d="M213.408 119.741C213.408 120.199 212.981 120.963 212.5 120.963C212.019 120.963 211.592 120.199 211.592 119.741C211.592 119.282 212.019 118.875 212.5 118.875C212.981 118.875 213.408 119.282 213.408 119.741Z" fill="#685E46"/>
<path d="M212.5 120.607C213.001 120.607 213.408 120.219 213.408 119.741C213.408 119.262 213.001 118.875 212.5 118.875C211.999 118.875 211.592 119.262 211.592 119.741C211.592 120.219 211.999 120.607 212.5 120.607Z" fill="#8F8775"/>
<path d="M213.141 119.13C213.514 119.486 213.514 119.996 213.141 120.352C212.767 120.709 212.233 120.709 211.859 120.352" fill="white"/>
<path d="M212.607 115.513C212.607 115.564 212.553 115.615 212.5 115.615C212.446 115.615 212.393 115.564 212.393 115.513V114.545C212.393 114.494 212.446 114.443 212.5 114.443C212.553 114.443 212.607 114.494 212.607 114.545V115.513Z" fill="white"/>
<path d="M212.607 144.245C212.607 144.296 212.553 144.346 212.5 144.346C212.446 144.346 212.393 144.296 212.393 144.245V143.277C212.393 143.226 212.446 143.175 212.5 143.175C212.553 143.175 212.607 143.226 212.607 143.277V144.245Z" fill="white"/>
<path d="M222.859 119.69C222.806 119.741 222.752 119.741 222.699 119.69C222.646 119.639 222.646 119.588 222.699 119.537L223.447 118.824C223.5 118.773 223.553 118.773 223.607 118.824C223.66 118.875 223.66 118.926 223.607 118.977L222.859 119.69Z" fill="white"/>
<path d="M201.607 139.965C201.553 140.016 201.5 140.016 201.447 139.965C201.393 139.914 201.393 139.863 201.447 139.812L202.194 139.099C202.248 139.048 202.301 139.048 202.354 139.099C202.408 139.15 202.408 139.201 202.354 139.252L201.607 139.965Z" fill="white"/>
<path d="M227.024 129.522C226.971 129.522 226.917 129.471 226.917 129.42C226.917 129.369 226.971 129.318 227.024 129.318H228.039C228.092 129.318 228.145 129.369 228.145 129.42C228.145 129.471 228.092 129.522 228.039 129.522H227.024Z" fill="white"/>
<path d="M196.961 129.522C196.908 129.522 196.854 129.471 196.854 129.42C196.854 129.369 196.908 129.318 196.961 129.318H197.976C198.029 129.267 198.082 129.318 198.082 129.369C198.082 129.42 198.029 129.471 197.976 129.471H196.961V129.522Z" fill="white"/>
<path d="M222.699 139.303C222.646 139.252 222.646 139.201 222.699 139.15C222.752 139.099 222.806 139.099 222.859 139.15L223.607 139.863C223.66 139.914 223.66 139.965 223.607 140.016C223.553 140.067 223.5 140.067 223.447 140.016L222.699 139.303Z" fill="white"/>
<path d="M201.393 118.977C201.34 118.926 201.34 118.875 201.393 118.824C201.446 118.773 201.5 118.773 201.553 118.824L202.301 119.537C202.354 119.588 202.354 119.639 202.301 119.69C202.247 119.741 202.194 119.741 202.141 119.69L201.393 118.977Z" fill="white"/>
<path d="M205.345 117.347C205.398 117.397 205.345 117.499 205.291 117.499C205.238 117.55 205.131 117.499 205.131 117.448L204.597 116.582C204.544 116.531 204.597 116.43 204.65 116.43C204.704 116.379 204.811 116.43 204.811 116.48L205.345 117.347Z" fill="white"/>
<path d="M220.403 142.207C220.456 142.258 220.403 142.36 220.349 142.36C220.296 142.411 220.189 142.36 220.189 142.309L219.655 141.443C219.602 141.392 219.655 141.29 219.709 141.29C219.762 141.239 219.869 141.29 219.869 141.341L220.403 142.207Z" fill="white"/>
<path d="M216.398 116.022C216.398 116.073 216.291 116.124 216.238 116.124C216.184 116.124 216.131 116.022 216.131 115.971L216.398 115.003C216.398 114.952 216.505 114.901 216.558 114.901C216.611 114.901 216.665 115.003 216.665 115.054L216.398 116.022Z" fill="white"/>
<path d="M208.602 143.735C208.602 143.786 208.495 143.837 208.442 143.837C208.388 143.837 208.335 143.735 208.335 143.684L208.602 142.716C208.602 142.665 208.709 142.614 208.762 142.614C208.815 142.614 208.869 142.716 208.869 142.767L208.602 143.735Z" fill="white"/>
<path d="M225.155 122.543C225.102 122.594 224.995 122.543 224.995 122.492C224.942 122.441 224.995 122.339 225.048 122.339L225.956 121.83C226.01 121.779 226.116 121.83 226.116 121.881C226.17 121.932 226.116 122.033 226.063 122.033L225.155 122.543Z" fill="white"/>
<path d="M199.097 136.909C199.043 136.96 198.937 136.909 198.937 136.858C198.883 136.807 198.937 136.705 198.99 136.705L199.898 136.195C199.951 136.144 200.058 136.195 200.058 136.246C200.111 136.297 200.058 136.399 200.005 136.399L199.097 136.909Z" fill="white"/>
<path d="M226.49 133.088C226.437 133.088 226.383 132.986 226.383 132.935C226.383 132.884 226.49 132.833 226.543 132.833L227.558 133.088C227.611 133.088 227.665 133.19 227.665 133.241C227.665 133.292 227.558 133.343 227.505 133.343L226.49 133.088Z" fill="white"/>
<path d="M197.442 125.65C197.388 125.65 197.335 125.548 197.335 125.497C197.335 125.446 197.442 125.396 197.495 125.396L198.509 125.65C198.563 125.65 198.616 125.752 198.616 125.803C198.616 125.854 198.509 125.905 198.456 125.905L197.442 125.65Z" fill="white"/>
<path d="M200.005 122.339C200.058 122.39 200.111 122.441 200.058 122.492C200.005 122.543 199.951 122.594 199.898 122.543L198.99 122.033C198.937 121.983 198.883 121.932 198.937 121.881C198.99 121.83 199.043 121.779 199.097 121.83L200.005 122.339Z" fill="white"/>
<path d="M226.063 136.705C226.116 136.756 226.17 136.807 226.116 136.858C226.063 136.909 226.01 136.96 225.956 136.909L225.048 136.399C224.995 136.348 224.942 136.297 224.995 136.246C225.048 136.195 225.102 136.144 225.155 136.195L226.063 136.705Z" fill="white"/>
<path d="M208.869 115.971C208.869 116.022 208.869 116.124 208.762 116.124C208.709 116.124 208.602 116.124 208.602 116.022L208.335 115.054C208.335 115.003 208.335 114.901 208.442 114.901C208.495 114.901 208.602 114.901 208.602 115.003L208.869 115.971Z" fill="white"/>
<path d="M216.665 143.684C216.665 143.735 216.665 143.837 216.558 143.837C216.505 143.837 216.398 143.837 216.398 143.735L216.131 142.767C216.131 142.716 216.131 142.614 216.238 142.614C216.291 142.614 216.398 142.614 216.398 142.716L216.665 143.684Z" fill="white"/>
<path d="M219.869 117.448C219.815 117.499 219.762 117.55 219.709 117.499C219.655 117.448 219.602 117.397 219.655 117.347L220.189 116.48C220.243 116.43 220.296 116.379 220.349 116.43C220.403 116.48 220.456 116.531 220.403 116.582L219.869 117.448Z" fill="white"/>
<path d="M204.811 142.309C204.757 142.36 204.704 142.411 204.65 142.36C204.597 142.309 204.544 142.258 204.597 142.207L205.131 141.341C205.184 141.29 205.238 141.239 205.291 141.29C205.345 141.341 205.398 141.392 205.345 141.443L204.811 142.309Z" fill="white"/>
<path d="M226.543 125.905C226.49 125.905 226.383 125.905 226.383 125.803C226.383 125.752 226.383 125.65 226.49 125.65L227.505 125.396C227.558 125.396 227.665 125.396 227.665 125.497C227.665 125.548 227.665 125.65 227.558 125.65L226.543 125.905Z" fill="white"/>
<path d="M197.495 133.343C197.442 133.343 197.335 133.343 197.335 133.241C197.335 133.19 197.335 133.088 197.442 133.088L198.456 132.833C198.509 132.833 198.616 132.833 198.616 132.935C198.616 132.986 198.616 133.088 198.509 133.088L197.495 133.343Z" fill="white"/>
<path d="M208.338 126.879C208.338 123.677 212.632 123.237 214.217 123.749C216.578 124.511 216.578 126.879 216.578 126.879C216.208 132.003 210.035 134.099 210.793 134.515C211.552 134.93 210.424 134.515 212.131 134.515C212.7 134.654 215.956 134.557 216.208 134.515C216.664 134.439 217.283 133.137 217.536 132.568H217.915V136.93H208.338C208.243 135.034 208.812 133.232 210.234 132.379C213.174 130.615 214.596 127.827 214.596 126.879C214.596 124.748 211.372 125.835 211.372 126.404C211.372 128.965 208.338 129.249 208.338 126.879Z" fill="black" fill-opacity="0.71"/>
</g>
<path d="M212.31 107.448H213.069V111.241C213.069 111.451 212.899 111.62 212.69 111.62V111.62C212.48 111.62 212.31 111.451 212.31 111.241V107.448Z" fill="#DBCCCC"/>
<rect x="207.759" y="68" width="10.0517" height="39.4483" rx="3" fill="#6B2B2D"/>
<path d="M208.707 105.641L208.607 105.741V105.955C208.607 106.01 208.652 106.055 208.707 106.055V106.281C208.652 106.281 208.607 106.326 208.607 106.381V106.808C208.607 106.863 208.652 106.908 208.707 106.908V107.135C208.652 107.135 208.607 107.18 208.607 107.235V107.448L208.707 107.548H208.911C208.966 107.548 209.011 107.503 209.011 107.448H209.218C209.218 107.503 209.263 107.548 209.318 107.548H209.726C209.781 107.548 209.826 107.503 209.826 107.448H210.034C210.034 107.503 210.079 107.548 210.134 107.548H210.542C210.597 107.548 210.642 107.503 210.642 107.448H210.849C210.849 107.503 210.894 107.548 210.949 107.548H211.357C211.412 107.548 211.457 107.503 211.457 107.448H211.665C211.665 107.503 211.71 107.548 211.765 107.548H212.173C212.228 107.548 212.273 107.503 212.273 107.448H212.48C212.48 107.503 212.525 107.548 212.58 107.548H212.988C213.043 107.548 213.088 107.503 213.088 107.448H213.296C213.296 107.503 213.341 107.548 213.396 107.548H213.804C213.859 107.548 213.904 107.503 213.904 107.448H214.112C214.112 107.503 214.156 107.548 214.212 107.548H214.619C214.675 107.548 214.719 107.503 214.719 107.448H214.927C214.927 107.503 214.972 107.548 215.027 107.548H215.435C215.49 107.548 215.535 107.503 215.535 107.448H215.743C215.743 107.503 215.787 107.548 215.843 107.548H216.25C216.306 107.548 216.35 107.503 216.35 107.448H216.558C216.558 107.503 216.603 107.548 216.658 107.548H216.862L216.962 107.448V107.235C216.962 107.18 216.917 107.135 216.862 107.135V106.908C216.917 106.908 216.962 106.863 216.962 106.808V106.381C216.962 106.326 216.917 106.281 216.862 106.281V106.055C216.917 106.055 216.962 106.01 216.962 105.955V105.741L216.862 105.641H216.658C216.603 105.641 216.558 105.686 216.558 105.741H216.35C216.35 105.686 216.306 105.641 216.25 105.641H215.843C215.787 105.641 215.743 105.686 215.743 105.741H215.535C215.535 105.686 215.49 105.641 215.435 105.641H215.027C214.972 105.641 214.927 105.686 214.927 105.741H214.719C214.719 105.686 214.675 105.641 214.619 105.641H214.212C214.156 105.641 214.112 105.686 214.112 105.741H213.904C213.904 105.686 213.859 105.641 213.804 105.641H213.396C213.341 105.641 213.296 105.686 213.296 105.741H213.088C213.088 105.686 213.043 105.641 212.988 105.641H212.58C212.525 105.641 212.48 105.686 212.48 105.741H212.273C212.273 105.686 212.228 105.641 212.173 105.641H211.765C211.71 105.641 211.665 105.686 211.665 105.741H211.457C211.457 105.686 211.412 105.641 211.357 105.641H210.949C210.894 105.641 210.849 105.686 210.849 105.741H210.642C210.642 105.686 210.597 105.641 210.542 105.641H210.134C210.079 105.641 210.034 105.686 210.034 105.741H209.826C209.826 105.686 209.781 105.641 209.726 105.641H209.318C209.263 105.641 209.218 105.686 209.218 105.741H209.011C209.011 105.686 208.966 105.641 208.911 105.641H208.707Z" fill="url(#paint9_angular_125_303)" stroke="black" stroke-width="0.2" stroke-miterlimit="1.41421" stroke-linecap="round" stroke-dasharray="0.4 0.4"/>
<path d="M248.581 37.8139C250.881 39.4241 251.496 42.368 250.096 44.368C248.695 46.3679 245.718 46.7965 243.419 45.1863C241.119 43.576 240.504 40.6322 241.904 38.6322C243.305 36.6322 246.281 36.2037 248.581 37.8139Z" fill="url(#paint10_radial_125_303)" stroke="#DBD0D0"/>
<rect width="1.14197" height="10.243" transform="matrix(-0.417499 -0.908677 0.9414 -0.337293 241.415 43.7932)" fill="#4F4A4A"/>
<path d="M13.0755 41.4999C13.0755 44.3762 10.9311 46.6387 8.36794 46.6387C5.80475 46.6387 3.6604 44.3762 3.6604 41.4999C3.6604 38.6236 5.80475 36.3611 8.36794 36.3611C10.9311 36.3611 13.0755 38.6236 13.0755 41.4999Z" fill="url(#paint11_radial_125_303)" stroke="#D0CECE"/>
<rect width="1.17555" height="10.6128" transform="matrix(0.510811 -0.859693 0.820514 0.571626 3.67261 38.9978)" fill="#4F4A4A"/>
<defs>
<radialGradient id="paint0_angular_125_303" cx="0" cy="0" r="1" gradientUnits="userSpaceOnUse" gradientTransform="translate(25.2257 128.354) rotate(75.0715) scale(8.05886 10)">
<stop offset="0.214672" stop-color="#BEB5B5"/>
<stop offset="0.448522" stop-color="white"/>
<stop offset="0.932292" stop-color="#FFFDFD"/>
</radialGradient>
<radialGradient id="paint1_angular_125_303" cx="0" cy="0" r="1" gradientUnits="userSpaceOnUse" gradientTransform="translate(25.2932 107.497) rotate(-159.007) scale(4.49982 44.924)">
<stop stop-color="#ECD8A1"/>
<stop offset="1" stop-color="#ECC456"/>
</radialGradient>
<radialGradient id="paint2_angular_125_303" cx="0" cy="0" r="1" gradientUnits="userSpaceOnUse" gradientTransform="translate(61.2257 129.354) rotate(75.0715) scale(8.05886 10)">
<stop offset="0.214672" stop-color="#BEB5B5"/>
<stop offset="0.448522" stop-color="white"/>
<stop offset="0.932292" stop-color="#FFFDFD"/>
</radialGradient>
<radialGradient id="paint3_angular_125_303" cx="0" cy="0" r="1" gradientUnits="userSpaceOnUse" gradientTransform="translate(61.2932 108.497) rotate(-159.007) scale(4.49982 44.924)">
<stop stop-color="#ECD8A1"/>
<stop offset="1" stop-color="#ECC456"/>
</radialGradient>
<radialGradient id="paint4_angular_125_303" cx="0" cy="0" r="1" gradientUnits="userSpaceOnUse" gradientTransform="translate(97.2257 128.354) rotate(75.0715) scale(8.05886 10)">
<stop offset="0.214672" stop-color="#BEB5B5"/>
<stop offset="0.448522" stop-color="white"/>
<stop offset="0.932292" stop-color="#FFFDFD"/>
</radialGradient>
<radialGradient id="paint5_angular_125_303" cx="0" cy="0" r="1" gradientUnits="userSpaceOnUse" gradientTransform="translate(97.2932 107.497) rotate(-159.007) scale(4.49982 44.924)">
<stop stop-color="#ECD8A1"/>
<stop offset="1" stop-color="#ECC456"/>
</radialGradient>
<linearGradient id="paint6_linear_125_303" x1="159.704" y1="118.992" x2="168.819" y2="136.756" gradientUnits="userSpaceOnUse">
<stop stop-color="white"/>
<stop offset="0.932292" stop-color="#EDEAE3"/>
</linearGradient>
<radialGradient id="paint7_angular_125_303" cx="0" cy="0" r="1" gradientUnits="userSpaceOnUse" gradientTransform="translate(161.784 106.306) rotate(-159.007) scale(4.36748 43.6027)">
<stop stop-color="#ECD8A1"/>
<stop offset="1" stop-color="#ECC456"/>
</radialGradient>
<linearGradient id="paint8_linear_125_303" x1="210.704" y1="119.992" x2="219.819" y2="137.756" gradientUnits="userSpaceOnUse">
<stop stop-color="white"/>
<stop offset="0.932292" stop-color="#EDEAE3"/>
</linearGradient>
<radialGradient id="paint9_angular_125_303" cx="0" cy="0" r="1" gradientUnits="userSpaceOnUse" gradientTransform="translate(212.784 107.306) rotate(-159.007) scale(4.36748 43.6027)">
<stop stop-color="#ECD8A1"/>
<stop offset="1" stop-color="#ECC456"/>
</radialGradient>
<radialGradient id="paint10_radial_125_303" cx="0" cy="0" r="1" gradientUnits="userSpaceOnUse" gradientTransform="translate(246 41.5001) rotate(82.4047) scale(7.56631 6.87787)">
<stop stop-color="#ABA7A7"/>
<stop offset="0.416667" stop-color="white"/>
</radialGradient>
<radialGradient id="paint11_radial_125_303" cx="0" cy="0" r="1" gradientUnits="userSpaceOnUse" gradientTransform="translate(8.36794 41.4999) rotate(137.854) scale(7.82422 7.10206)">
<stop stop-color="#ABA7A7"/>
<stop offset="0.676002" stop-color="white"/>
</radialGradient>
<clipPath id="clip0_125_303">
<rect width="34" height="32.4368" fill="white" transform="translate(8 114.483)"/>
</clipPath>
<clipPath id="clip1_125_303">
<rect width="34" height="32.4368" fill="white" transform="translate(44 115.483)"/>
</clipPath>
<clipPath id="clip2_125_303">
<rect width="34" height="32.4368" fill="white" transform="translate(80 114.483)"/>
</clipPath>
<clipPath id="clip3_125_303">
<rect width="33" height="31.4828" fill="white" transform="translate(145 113.086)"/>
</clipPath>
<clipPath id="clip4_125_303">
<rect width="33" height="31.4828" fill="white" transform="translate(196 114.086)"/>
</clipPath>
</defs>
</svg>
