<svg width="226" height="156" viewBox="0 0 226 156" fill="none" xmlns="http://www.w3.org/2000/svg">
<path d="M216.997 48H8.15118C0.367555 48 0.367596 61 8.15118 61H216.997C226.945 61 226.557 48.0001 216.997 48Z" stroke="black" stroke-width="3"/>
<path d="M10.2443 19.8182L18.017 41.858H18.3239L26.0966 19.8182H29.4205L19.8068 46H16.5341L6.92045 19.8182H10.2443ZM39.2386 46.4091C37.4659 46.4091 35.9105 45.9872 34.5724 45.1435C33.2429 44.2997 32.2031 43.1193 31.4531 41.6023C30.7116 40.0852 30.3409 38.3125 30.3409 36.2841C30.3409 34.2386 30.7116 32.4531 31.4531 30.9276C32.2031 29.402 33.2429 28.2173 34.5724 27.3736C35.9105 26.5298 37.4659 26.108 39.2386 26.108C41.0114 26.108 42.5625 26.5298 43.892 27.3736C45.2301 28.2173 46.2699 29.402 47.0114 30.9276C47.7614 32.4531 48.1364 34.2386 48.1364 36.2841C48.1364 38.3125 47.7614 40.0852 47.0114 41.6023C46.2699 43.1193 45.2301 44.2997 43.892 45.1435C42.5625 45.9872 41.0114 46.4091 39.2386 46.4091ZM39.2386 43.6989C40.5852 43.6989 41.6932 43.3537 42.5625 42.6634C43.4318 41.973 44.0753 41.0653 44.4929 39.9403C44.9105 38.8153 45.1193 37.5966 45.1193 36.2841C45.1193 34.9716 44.9105 33.7486 44.4929 32.6151C44.0753 31.4815 43.4318 30.5653 42.5625 29.8665C41.6932 29.1676 40.5852 28.8182 39.2386 28.8182C37.892 28.8182 36.7841 29.1676 35.9148 29.8665C35.0455 30.5653 34.402 31.4815 33.9844 32.6151C33.5668 33.7486 33.358 34.9716 33.358 36.2841C33.358 37.5966 33.5668 38.8153 33.9844 39.9403C34.402 41.0653 35.0455 41.973 35.9148 42.6634C36.7841 43.3537 37.892 43.6989 39.2386 43.6989ZM55.7589 19.8182V46H52.7418V19.8182H55.7589ZM64.3018 19.8182V46H61.2848V19.8182H64.3018ZM78.0607 46.4091C76.1687 46.4091 74.5366 45.9915 73.1644 45.1562C71.8008 44.3125 70.7482 43.1364 70.0067 41.6278C69.2738 40.1108 68.9073 38.3466 68.9073 36.3352C68.9073 34.3239 69.2738 32.5511 70.0067 31.017C70.7482 29.4744 71.7795 28.2727 73.1005 27.4119C74.43 26.5426 75.9812 26.108 77.7539 26.108C78.7766 26.108 79.7866 26.2784 80.7837 26.6193C81.7809 26.9602 82.6886 27.5142 83.5067 28.2812C84.3249 29.0398 84.9769 30.0455 85.4627 31.2983C85.9485 32.5511 86.1914 34.0937 86.1914 35.9261V37.2045H71.055V34.5966H83.1232C83.1232 33.4886 82.9016 32.5 82.4585 31.6307C82.0238 30.7614 81.4016 30.0753 80.592 29.5724C79.7908 29.0696 78.8448 28.8182 77.7539 28.8182C76.5522 28.8182 75.5124 29.1165 74.6346 29.7131C73.7653 30.3011 73.0962 31.0682 72.6275 32.0142C72.1587 32.9602 71.9244 33.9744 71.9244 35.0568V36.7955C71.9244 38.2784 72.18 39.5355 72.6914 40.5668C73.2113 41.5895 73.9315 42.3693 74.8519 42.9062C75.7724 43.4347 76.842 43.6989 78.0607 43.6989C78.8533 43.6989 79.5692 43.5881 80.2085 43.3665C80.8562 43.1364 81.4144 42.7955 81.8832 42.3438C82.3519 41.8835 82.7141 41.3125 82.9698 40.6307L85.8846 41.4489C85.5778 42.4375 85.0621 43.3068 84.3377 44.0568C83.6133 44.7983 82.7184 45.3778 81.6531 45.7955C80.5877 46.2045 79.3903 46.4091 78.0607 46.4091ZM92.1264 53.3636C91.6151 53.3636 91.1591 53.321 90.7585 53.2358C90.358 53.1591 90.081 53.0824 89.9276 53.0057L90.6946 50.3466C91.4276 50.5341 92.0753 50.6023 92.6378 50.5511C93.2003 50.5 93.6989 50.2486 94.1335 49.7969C94.5767 49.3537 94.9815 48.6335 95.348 47.6364L95.9105 46.1023L88.6491 26.3636H91.9219L97.3423 42.0114H97.5469L102.967 26.3636H106.24L97.9048 48.8636C97.5298 49.8778 97.0653 50.7173 96.5114 51.3821C95.9574 52.0554 95.3139 52.554 94.581 52.8778C93.8565 53.2017 93.0384 53.3636 92.1264 53.3636ZM151.131 46V19.8182H154.148V29.483H154.404C154.626 29.142 154.933 28.7074 155.325 28.179C155.725 27.642 156.296 27.1648 157.038 26.7472C157.788 26.321 158.802 26.108 160.08 26.108C161.734 26.108 163.191 26.5213 164.452 27.348C165.714 28.1747 166.698 29.3466 167.406 30.8636C168.113 32.3807 168.467 34.1705 168.467 36.233C168.467 38.3125 168.113 40.1151 167.406 41.6406C166.698 43.1577 165.718 44.3338 164.465 45.169C163.212 45.9957 161.768 46.4091 160.131 46.4091C158.87 46.4091 157.86 46.2003 157.102 45.7827C156.343 45.3565 155.759 44.875 155.35 44.3381C154.941 43.7926 154.626 43.3409 154.404 42.983H154.046V46H151.131ZM154.097 36.1818C154.097 37.6648 154.315 38.973 154.749 40.1065C155.184 41.2315 155.819 42.1136 156.654 42.7528C157.489 43.3835 158.512 43.6989 159.722 43.6989C160.984 43.6989 162.036 43.3665 162.88 42.7017C163.732 42.0284 164.371 41.125 164.798 39.9915C165.232 38.8494 165.45 37.5795 165.45 36.1818C165.45 34.8011 165.237 33.5568 164.81 32.4489C164.393 31.3324 163.758 30.4503 162.906 29.8026C162.062 29.1463 161.001 28.8182 159.722 28.8182C158.495 28.8182 157.464 29.1293 156.629 29.7514C155.793 30.3651 155.163 31.2259 154.737 32.3338C154.31 33.4332 154.097 34.7159 154.097 36.1818ZM178.86 46.4602C177.616 46.4602 176.487 46.2259 175.472 45.7571C174.458 45.2798 173.653 44.5938 173.056 43.6989C172.46 42.7955 172.161 41.7045 172.161 40.4261C172.161 39.3011 172.383 38.3892 172.826 37.6903C173.269 36.983 173.862 36.429 174.603 36.0284C175.344 35.6278 176.163 35.3295 177.058 35.1335C177.961 34.929 178.869 34.767 179.781 34.6477C180.974 34.4943 181.941 34.3793 182.683 34.3026C183.433 34.2173 183.978 34.0767 184.319 33.8807C184.668 33.6847 184.843 33.3437 184.843 32.858V32.7557C184.843 31.4943 184.498 30.5142 183.808 29.8153C183.126 29.1165 182.09 28.767 180.701 28.767C179.261 28.767 178.131 29.0824 177.313 29.7131C176.495 30.3437 175.92 31.017 175.587 31.733L172.724 30.7102C173.235 29.517 173.917 28.5881 174.769 27.9233C175.63 27.25 176.567 26.7812 177.582 26.517C178.604 26.2443 179.61 26.108 180.599 26.108C181.229 26.108 181.954 26.1847 182.772 26.3381C183.599 26.483 184.396 26.7855 185.163 27.2457C185.938 27.706 186.582 28.4006 187.093 29.3295C187.604 30.2585 187.86 31.5028 187.86 33.0625V46H184.843V43.3409H184.69C184.485 43.767 184.144 44.223 183.667 44.7088C183.19 45.1946 182.555 45.608 181.762 45.9489C180.969 46.2898 180.002 46.4602 178.86 46.4602ZM179.32 43.75C180.513 43.75 181.519 43.5156 182.337 43.0469C183.164 42.5781 183.786 41.973 184.204 41.2315C184.63 40.4901 184.843 39.7102 184.843 38.892V36.1307C184.715 36.2841 184.434 36.4247 183.999 36.5526C183.573 36.6719 183.079 36.7784 182.516 36.8722C181.962 36.9574 181.421 37.0341 180.893 37.1023C180.373 37.1619 179.951 37.2131 179.627 37.2557C178.843 37.358 178.11 37.5241 177.428 37.7543C176.755 37.9759 176.21 38.3125 175.792 38.7642C175.383 39.2074 175.178 39.8125 175.178 40.5795C175.178 41.6278 175.566 42.4205 176.342 42.9574C177.126 43.4858 178.119 43.75 179.32 43.75ZM196.384 19.8182V46H193.367V19.8182H196.384ZM204.927 19.8182V46H201.91V19.8182H204.927Z" fill="black"/>
<path d="M210.552 71.45L14.3134 71.0176" stroke="#9BADB0"/>
<path d="M210.313 62V80H14.3135V62H210.313Z" stroke="#374653" stroke-width="3"/>
<path d="M99.7039 76V75.233L102.585 72.0795C102.923 71.7102 103.201 71.3892 103.42 71.1165C103.639 70.8409 103.801 70.5824 103.906 70.3409C104.014 70.0966 104.068 69.8409 104.068 69.5739C104.068 69.267 103.994 69.0014 103.846 68.777C103.701 68.5526 103.502 68.3793 103.249 68.2571C102.997 68.1349 102.712 68.0739 102.397 68.0739C102.062 68.0739 101.769 68.1435 101.519 68.2827C101.272 68.419 101.08 68.6108 100.944 68.858C100.81 69.1051 100.744 69.3949 100.744 69.7273H99.738C99.738 69.2159 99.8559 68.767 100.092 68.3807C100.328 67.9943 100.649 67.6932 101.055 67.4773C101.464 67.2614 101.923 67.1534 102.431 67.1534C102.943 67.1534 103.396 67.2614 103.791 67.4773C104.185 67.6932 104.495 67.9844 104.72 68.3509C104.944 68.7173 105.056 69.125 105.056 69.5739C105.056 69.8949 104.998 70.2088 104.882 70.5156C104.768 70.8196 104.569 71.1591 104.285 71.5341C104.004 71.9062 103.613 72.3608 103.113 72.8977L101.153 74.9943V75.0625H105.21V76H99.7039ZM109.816 76.1193C109.174 76.1193 108.627 75.9446 108.176 75.5952C107.724 75.2429 107.379 74.733 107.14 74.0653C106.901 73.3949 106.782 72.5852 106.782 71.6364C106.782 70.6932 106.901 69.8878 107.14 69.2202C107.382 68.5497 107.728 68.0384 108.18 67.6861C108.634 67.331 109.18 67.1534 109.816 67.1534C110.453 67.1534 110.997 67.331 111.448 67.6861C111.903 68.0384 112.249 68.5497 112.488 69.2202C112.73 69.8878 112.85 70.6932 112.85 71.6364C112.85 72.5852 112.731 73.3949 112.492 74.0653C112.254 74.733 111.908 75.2429 111.457 75.5952C111.005 75.9446 110.458 76.1193 109.816 76.1193ZM109.816 75.1818C110.453 75.1818 110.947 74.875 111.299 74.2614C111.651 73.6477 111.828 72.7727 111.828 71.6364C111.828 70.8807 111.747 70.2372 111.585 69.706C111.426 69.1747 111.195 68.7699 110.894 68.4915C110.596 68.2131 110.237 68.0739 109.816 68.0739C109.185 68.0739 108.693 68.3849 108.337 69.0071C107.982 69.6264 107.805 70.5028 107.805 71.6364C107.805 72.392 107.884 73.0341 108.043 73.5625C108.203 74.0909 108.431 74.4929 108.73 74.7685C109.031 75.044 109.393 75.1818 109.816 75.1818ZM114.47 76V75.233L117.35 72.0795C117.688 71.7102 117.967 71.3892 118.185 71.1165C118.404 70.8409 118.566 70.5824 118.671 70.3409C118.779 70.0966 118.833 69.8409 118.833 69.5739C118.833 69.267 118.759 69.0014 118.612 68.777C118.467 68.5526 118.268 68.3793 118.015 68.2571C117.762 68.1349 117.478 68.0739 117.163 68.0739C116.828 68.0739 116.535 68.1435 116.285 68.2827C116.038 68.419 115.846 68.6108 115.71 68.858C115.576 69.1051 115.509 69.3949 115.509 69.7273H114.504C114.504 69.2159 114.622 68.767 114.857 68.3807C115.093 67.9943 115.414 67.6932 115.82 67.4773C116.23 67.2614 116.688 67.1534 117.197 67.1534C117.708 67.1534 118.161 67.2614 118.556 67.4773C118.951 67.6932 119.261 67.9844 119.485 68.3509C119.71 68.7173 119.822 69.125 119.822 69.5739C119.822 69.8949 119.764 70.2088 119.647 70.5156C119.533 70.8196 119.335 71.1591 119.051 71.5341C118.769 71.9062 118.379 72.3608 117.879 72.8977L115.918 74.9943V75.0625H119.975V76H114.47ZM121.735 76V75.233L124.616 72.0795C124.954 71.7102 125.232 71.3892 125.451 71.1165C125.67 70.8409 125.832 70.5824 125.937 70.3409C126.045 70.0966 126.099 69.8409 126.099 69.5739C126.099 69.267 126.025 69.0014 125.877 68.777C125.732 68.5526 125.533 68.3793 125.281 68.2571C125.028 68.1349 124.744 68.0739 124.428 68.0739C124.093 68.0739 123.801 68.1435 123.551 68.2827C123.303 68.419 123.112 68.6108 122.975 68.858C122.842 69.1051 122.775 69.3949 122.775 69.7273H121.769C121.769 69.2159 121.887 68.767 122.123 68.3807C122.359 67.9943 122.68 67.6932 123.086 67.4773C123.495 67.2614 123.954 67.1534 124.462 67.1534C124.974 67.1534 125.427 67.2614 125.822 67.4773C126.217 67.6932 126.526 67.9844 126.751 68.3509C126.975 68.7173 127.087 69.125 127.087 69.5739C127.087 69.8949 127.029 70.2088 126.913 70.5156C126.799 70.8196 126.6 71.1591 126.316 71.5341C126.035 71.9062 125.644 72.3608 125.144 72.8977L123.184 74.9943V75.0625H127.241V76H121.735Z" fill="black"/>
<path d="M221.211 52.25C222.614 54.6812 221.928 57.6093 219.814 58.8301C217.699 60.0508 214.82 59.1812 213.416 56.75C212.013 54.3187 212.699 51.3906 214.814 50.1698C216.928 48.9491 219.807 49.8187 221.211 52.25Z" fill="url(#paint0_radial_130_325)" stroke="#DBD0D0"/>
<rect width="1.14197" height="10.243" transform="matrix(0.504877 -0.863191 0.816259 0.577686 212.805 52.0596)" fill="#4F4A4A"/>
<path d="M10.8409 50.4231C13.3318 51.8613 14.2191 54.8496 12.9375 57.0694C11.6559 59.2892 8.62429 60.015 6.13335 58.5768C3.64241 57.1387 2.75519 54.1504 4.03678 51.9306C5.31838 49.7108 8.34996 48.985 10.8409 50.4231Z" fill="url(#paint1_radial_130_325)" stroke="#D0CECE"/>
<rect width="1.17555" height="10.6128" transform="matrix(-0.48911 -0.872222 0.9053 -0.424773 3.97266 57.3152)" fill="#4F4A4A"/>
<path d="M109.02 125.035L116.512 125.035C114.331 118.966 111.77 118.966 109.02 125.035Z" fill="#EAE6DD" stroke="black" stroke-width="0.5"/>
<ellipse cx="113.003" cy="122.474" rx="1.13793" ry="1.0431" fill="#6E5F5F"/>
<g clip-path="url(#clip0_130_325)">
<path d="M112.813 155.569C104.003 155.569 96.7939 148.692 96.7939 140.286C96.7939 131.88 104.003 125.003 112.813 125.003C121.624 125.003 128.833 131.88 128.833 140.286C128.833 148.692 121.624 155.569 112.813 155.569Z" fill="#ACACAC"/>
<path d="M112.813 153.684C121.1 153.684 127.818 147.275 127.818 139.369C127.818 131.463 121.1 125.054 112.813 125.054C104.526 125.054 97.8086 131.463 97.8086 139.369C97.8086 147.275 104.526 153.684 112.813 153.684Z" fill="#DCD5C2"/>
<path d="M99.5707 141.101C99.5707 133.205 106.299 126.786 114.576 126.786C118.26 126.786 121.624 128.06 124.241 130.148C121.517 127.041 117.406 125.054 112.813 125.054C104.537 125.054 97.8086 131.473 97.8086 139.369C97.8086 143.75 99.8911 147.673 103.148 150.322C100.906 147.826 99.5707 144.616 99.5707 141.101Z" fill="#F4EDDC"/>
<path d="M120.184 125.508C124.311 131.95 124.311 142.376 120.184 148.818C116.057 155.261 109.379 155.261 105.252 148.818" fill="url(#paint2_linear_130_325)" fill-opacity="0.5"/>
<path d="M112.805 155.11C103.995 155.11 96.7859 148.233 96.7859 139.828C96.7859 131.422 103.995 124.545 112.805 124.545C121.616 124.545 128.825 131.422 128.825 139.828C128.825 148.233 121.616 155.11 112.805 155.11ZM112.805 126.481C105.063 126.481 98.815 132.492 98.815 139.828C98.815 147.214 105.116 153.175 112.805 153.175C120.495 153.175 126.796 147.163 126.796 139.828C126.796 132.492 120.548 126.481 112.805 126.481Z" fill="#B0AFAA"/>
<path d="M113.721 129.741C113.721 130.199 113.294 130.963 112.814 130.963C112.333 130.963 111.906 130.199 111.906 129.741C111.906 129.282 112.333 128.875 112.814 128.875C113.294 128.875 113.721 129.282 113.721 129.741Z" fill="#685E46"/>
<path d="M112.814 130.607C113.315 130.607 113.721 130.219 113.721 129.741C113.721 129.262 113.315 128.875 112.814 128.875C112.312 128.875 111.906 129.262 111.906 129.741C111.906 130.219 112.312 130.607 112.814 130.607Z" fill="#8F8775"/>
<path d="M113.454 129.13C113.828 129.486 113.828 129.996 113.454 130.352C113.08 130.709 112.546 130.709 112.173 130.352" fill="white"/>
<path d="M112.92 125.513C112.92 125.564 112.867 125.615 112.813 125.615C112.76 125.615 112.707 125.564 112.707 125.513V124.545C112.707 124.494 112.76 124.443 112.813 124.443C112.867 124.443 112.92 124.494 112.92 124.545V125.513Z" fill="white"/>
<path d="M112.92 154.245C112.92 154.296 112.867 154.346 112.813 154.346C112.76 154.346 112.707 154.296 112.707 154.245V153.277C112.707 153.226 112.76 153.175 112.813 153.175C112.867 153.175 112.92 153.226 112.92 153.277V154.245Z" fill="white"/>
<path d="M123.173 129.69C123.119 129.741 123.066 129.741 123.012 129.69C122.959 129.639 122.959 129.588 123.012 129.537L123.76 128.824C123.813 128.773 123.867 128.773 123.92 128.824C123.974 128.875 123.974 128.926 123.92 128.977L123.173 129.69Z" fill="white"/>
<path d="M101.92 149.965C101.867 150.016 101.813 150.016 101.76 149.965C101.707 149.914 101.707 149.863 101.76 149.812L102.508 149.099C102.561 149.048 102.614 149.048 102.668 149.099C102.721 149.15 102.721 149.201 102.668 149.252L101.92 149.965Z" fill="white"/>
<path d="M127.338 139.522C127.284 139.522 127.231 139.471 127.231 139.42C127.231 139.369 127.284 139.318 127.338 139.318H128.352C128.405 139.318 128.459 139.369 128.459 139.42C128.459 139.471 128.405 139.522 128.352 139.522H127.338Z" fill="white"/>
<path d="M97.2745 139.522C97.2211 139.522 97.1677 139.471 97.1677 139.42C97.1677 139.369 97.2211 139.318 97.2745 139.318H98.2891C98.3425 139.267 98.3959 139.318 98.3959 139.369C98.3959 139.42 98.3425 139.471 98.2891 139.471H97.2745V139.522Z" fill="white"/>
<path d="M123.012 149.303C122.959 149.252 122.959 149.201 123.012 149.15C123.066 149.099 123.119 149.099 123.173 149.15L123.92 149.863C123.974 149.914 123.974 149.965 123.92 150.016C123.867 150.067 123.813 150.067 123.76 150.016L123.012 149.303Z" fill="white"/>
<path d="M101.707 128.977C101.653 128.926 101.653 128.875 101.707 128.824C101.76 128.773 101.813 128.773 101.867 128.824L102.614 129.537C102.668 129.588 102.668 129.639 102.614 129.69C102.561 129.741 102.508 129.741 102.454 129.69L101.707 128.977Z" fill="white"/>
<path d="M105.658 127.347C105.712 127.397 105.658 127.499 105.605 127.499C105.551 127.55 105.445 127.499 105.445 127.448L104.911 126.582C104.857 126.531 104.911 126.43 104.964 126.43C105.017 126.379 105.124 126.43 105.124 126.48L105.658 127.347Z" fill="white"/>
<path d="M120.716 152.207C120.77 152.258 120.716 152.36 120.663 152.36C120.609 152.411 120.503 152.36 120.503 152.309L119.969 151.443C119.915 151.392 119.969 151.29 120.022 151.29C120.075 151.239 120.182 151.29 120.182 151.341L120.716 152.207Z" fill="white"/>
<path d="M116.711 126.022C116.711 126.073 116.605 126.124 116.551 126.124C116.498 126.124 116.444 126.022 116.444 125.971L116.711 125.003C116.711 124.952 116.818 124.901 116.872 124.901C116.925 124.901 116.978 125.003 116.978 125.054L116.711 126.022Z" fill="white"/>
<path d="M108.915 153.735C108.915 153.786 108.808 153.837 108.755 153.837C108.702 153.837 108.648 153.735 108.648 153.684L108.915 152.716C108.915 152.665 109.022 152.614 109.075 152.614C109.129 152.614 109.182 152.716 109.182 152.767L108.915 153.735Z" fill="white"/>
<path d="M125.469 132.543C125.415 132.594 125.308 132.543 125.308 132.492C125.255 132.441 125.308 132.339 125.362 132.339L126.27 131.83C126.323 131.779 126.43 131.83 126.43 131.881C126.483 131.932 126.43 132.033 126.376 132.033L125.469 132.543Z" fill="white"/>
<path d="M99.4103 146.909C99.3569 146.96 99.2501 146.909 99.2501 146.858C99.1967 146.807 99.2501 146.705 99.3035 146.705L100.211 146.195C100.265 146.144 100.372 146.195 100.372 146.246C100.425 146.297 100.372 146.399 100.318 146.399L99.4103 146.909Z" fill="white"/>
<path d="M126.804 143.088C126.75 143.088 126.697 142.986 126.697 142.935C126.697 142.884 126.804 142.833 126.857 142.833L127.872 143.088C127.925 143.088 127.978 143.19 127.978 143.241C127.978 143.292 127.872 143.343 127.818 143.343L126.804 143.088Z" fill="white"/>
<path d="M97.755 135.65C97.7016 135.65 97.6482 135.548 97.6482 135.497C97.6482 135.446 97.755 135.396 97.8084 135.396L98.823 135.65C98.8763 135.65 98.9297 135.752 98.9297 135.803C98.9297 135.854 98.823 135.905 98.7696 135.905L97.755 135.65Z" fill="white"/>
<path d="M100.318 132.339C100.372 132.39 100.425 132.441 100.372 132.492C100.318 132.543 100.265 132.594 100.211 132.543L99.3035 132.033C99.2501 131.983 99.1967 131.932 99.2501 131.881C99.3035 131.83 99.3569 131.779 99.4103 131.83L100.318 132.339Z" fill="white"/>
<path d="M126.376 146.705C126.43 146.756 126.483 146.807 126.43 146.858C126.376 146.909 126.323 146.96 126.27 146.909L125.362 146.399C125.308 146.348 125.255 146.297 125.308 146.246C125.362 146.195 125.415 146.144 125.469 146.195L126.376 146.705Z" fill="white"/>
<path d="M109.182 125.971C109.182 126.022 109.182 126.124 109.075 126.124C109.022 126.124 108.915 126.124 108.915 126.022L108.648 125.054C108.648 125.003 108.648 124.901 108.755 124.901C108.808 124.901 108.915 124.901 108.915 125.003L109.182 125.971Z" fill="white"/>
<path d="M116.978 153.684C116.978 153.735 116.978 153.837 116.872 153.837C116.818 153.837 116.711 153.837 116.711 153.735L116.444 152.767C116.444 152.716 116.444 152.614 116.551 152.614C116.605 152.614 116.711 152.614 116.711 152.716L116.978 153.684Z" fill="white"/>
<path d="M120.182 127.448C120.129 127.499 120.075 127.55 120.022 127.499C119.969 127.448 119.915 127.397 119.969 127.347L120.503 126.48C120.556 126.43 120.609 126.379 120.663 126.43C120.716 126.48 120.77 126.531 120.716 126.582L120.182 127.448Z" fill="white"/>
<path d="M105.124 152.309C105.071 152.36 105.017 152.411 104.964 152.36C104.911 152.309 104.857 152.258 104.911 152.207L105.445 151.341C105.498 151.29 105.551 151.239 105.605 151.29C105.658 151.341 105.712 151.392 105.658 151.443L105.124 152.309Z" fill="white"/>
<path d="M126.857 135.905C126.804 135.905 126.697 135.905 126.697 135.803C126.697 135.752 126.697 135.65 126.804 135.65L127.818 135.396C127.872 135.396 127.978 135.396 127.978 135.497C127.978 135.548 127.978 135.65 127.872 135.65L126.857 135.905Z" fill="white"/>
<path d="M97.8084 143.343C97.755 143.343 97.6482 143.343 97.6482 143.241C97.6482 143.19 97.6482 143.088 97.755 143.088L98.7696 142.833C98.823 142.833 98.9297 142.833 98.9297 142.935C98.9297 142.986 98.9297 143.088 98.823 143.088L97.8084 143.343Z" fill="white"/>
<path d="M108.651 136.879C108.651 133.677 112.945 133.237 114.53 133.749C116.891 134.511 116.891 136.879 116.891 136.879C116.522 142.003 110.348 144.099 111.107 144.515C111.865 144.93 110.737 144.515 112.444 144.515C113.013 144.654 116.269 144.557 116.522 144.515C116.977 144.439 117.597 143.137 117.849 142.568H118.229V146.93H108.651C108.556 145.034 109.125 143.232 110.548 142.379C113.487 140.615 114.91 137.827 114.91 136.879C114.91 134.748 111.686 135.835 111.686 136.404C111.686 138.965 108.651 139.249 108.651 136.879Z" fill="black" fill-opacity="0.71"/>
</g>
<path d="M112.624 117.448H113.382V121.241C113.382 121.451 113.213 121.62 113.003 121.62V121.62C112.794 121.62 112.624 121.451 112.624 121.241V117.448Z" fill="#DBCCCC"/>
<rect x="108.072" y="78" width="10.0517" height="39.4483" rx="3" fill="#BB5FBD"/>
<path d="M109.02 115.641L108.92 115.741V115.955C108.92 116.01 108.965 116.055 109.02 116.055V116.281C108.965 116.281 108.92 116.326 108.92 116.381V116.808C108.92 116.863 108.965 116.908 109.02 116.908V117.135C108.965 117.135 108.92 117.18 108.92 117.235V117.448L109.02 117.548H109.224C109.279 117.548 109.324 117.503 109.324 117.448H109.532C109.532 117.503 109.577 117.548 109.632 117.548H110.04C110.095 117.548 110.14 117.503 110.14 117.448H110.347C110.347 117.503 110.392 117.548 110.447 117.548H110.855C110.91 117.548 110.955 117.503 110.955 117.448H111.163C111.163 117.503 111.208 117.548 111.263 117.548H111.671C111.726 117.548 111.771 117.503 111.771 117.448H111.978C111.978 117.503 112.023 117.548 112.078 117.548H112.486C112.541 117.548 112.586 117.503 112.586 117.448H112.794C112.794 117.503 112.839 117.548 112.894 117.548H113.302C113.357 117.548 113.402 117.503 113.402 117.448H113.609C113.609 117.503 113.654 117.548 113.709 117.548H114.117C114.172 117.548 114.217 117.503 114.217 117.448H114.425C114.425 117.503 114.47 117.548 114.525 117.548H114.933C114.988 117.548 115.033 117.503 115.033 117.448H115.241C115.241 117.503 115.285 117.548 115.341 117.548H115.748C115.804 117.548 115.848 117.503 115.848 117.448H116.056C116.056 117.503 116.101 117.548 116.156 117.548H116.564C116.619 117.548 116.664 117.503 116.664 117.448H116.872C116.872 117.503 116.916 117.548 116.972 117.548H117.175L117.275 117.448V117.235C117.275 117.18 117.231 117.135 117.175 117.135V116.908C117.231 116.908 117.275 116.863 117.275 116.808V116.381C117.275 116.326 117.231 116.281 117.175 116.281V116.055C117.231 116.055 117.275 116.01 117.275 115.955V115.741L117.175 115.641H116.972C116.916 115.641 116.872 115.686 116.872 115.741H116.664C116.664 115.686 116.619 115.641 116.564 115.641H116.156C116.101 115.641 116.056 115.686 116.056 115.741H115.848C115.848 115.686 115.804 115.641 115.748 115.641H115.341C115.285 115.641 115.241 115.686 115.241 115.741H115.033C115.033 115.686 114.988 115.641 114.933 115.641H114.525C114.47 115.641 114.425 115.686 114.425 115.741H114.217C114.217 115.686 114.172 115.641 114.117 115.641H113.709C113.654 115.641 113.609 115.686 113.609 115.741H113.402C113.402 115.686 113.357 115.641 113.302 115.641H112.894C112.839 115.641 112.794 115.686 112.794 115.741H112.586C112.586 115.686 112.541 115.641 112.486 115.641H112.078C112.023 115.641 111.978 115.686 111.978 115.741H111.771C111.771 115.686 111.726 115.641 111.671 115.641H111.263C111.208 115.641 111.163 115.686 111.163 115.741H110.955C110.955 115.686 110.91 115.641 110.855 115.641H110.447C110.392 115.641 110.347 115.686 110.347 115.741H110.14C110.14 115.686 110.095 115.641 110.04 115.641H109.632C109.577 115.641 109.532 115.686 109.532 115.741H109.324C109.324 115.686 109.279 115.641 109.224 115.641H109.02Z" fill="url(#paint3_angular_130_325)" stroke="black" stroke-width="0.2" stroke-miterlimit="1.41421" stroke-linecap="round" stroke-dasharray="0.4 0.4"/>
<g clip-path="url(#clip1_130_325)">
<path d="M137.788 45.0051C136.56 41.0394 135.437 37.0502 134.515 32.9362C134.487 32.7133 134.464 32.4905 134.419 32.2697C133.532 27.8519 132.646 23.435 131.758 19.0182C134.101 17.6202 136.223 15.3948 137.97 12.955C138.615 12.0539 138.796 10.6367 138.298 9.54266C137.052 6.80854 135.805 4.07229 134.559 1.3371C133.151 -1.75531 129.516 1.07158 130.932 4.17999C131.895 6.28816 132.854 8.39633 133.814 10.5045C132.279 12.3482 130.501 13.9147 128.526 14.5982C128.419 14.6355 128.327 14.6899 128.234 14.7422C127.726 14.7048 127.223 14.7923 126.766 15.0216C126.481 15.1666 126.227 15.3543 125.994 15.5633C125.972 15.5622 125.955 15.5537 125.933 15.5537C122.378 15.4545 119.206 13.9317 116.232 11.3629C113.948 9.39017 111.845 14.2666 114.112 16.2255C117.303 18.9809 120.804 20.6604 124.547 21.0805C124.566 21.1946 124.574 21.3098 124.597 21.4239C125.556 26.2022 126.517 30.9816 127.476 35.762C127.476 35.7631 127.477 35.7642 127.477 35.7652C124.899 38.4844 122.449 41.4627 119.658 43.7767C117.361 45.6844 119.467 50.5566 121.778 48.6393C124.969 45.9947 127.704 42.4918 130.702 39.49C130.864 39.3279 130.994 39.1456 131.11 38.9557C131.262 38.9494 131.414 38.9366 131.562 38.9078C132.162 41.194 132.809 43.4547 133.496 45.7015C131.606 48.5262 129.879 51.5333 128.43 54.8028C127.047 57.9357 130.675 60.7658 132.058 57.6435C133.575 54.2131 135.393 51.142 137.436 48.2458C138.079 47.3351 138.136 46.2645 137.869 45.3592C137.842 45.2408 137.826 45.1267 137.788 45.0051Z" fill="#010002"/>
<path d="M125.922 12.9903C128.03 12.9903 129.738 10.6996 129.738 7.87391C129.738 5.04823 128.03 2.75757 125.922 2.75757C123.815 2.75757 122.107 5.04823 122.107 7.87391C122.107 10.6996 123.815 12.9903 125.922 12.9903Z" fill="#010002"/>
<path d="M115.324 10.6494C117.136 10.6494 118.604 8.68007 118.604 6.25074C118.604 3.82141 117.136 1.85205 115.324 1.85205C113.512 1.85205 112.044 3.82141 112.044 6.25074C112.044 8.68007 113.512 10.6494 115.324 10.6494Z" fill="#010002"/>
</g>
<defs>
<radialGradient id="paint0_radial_130_325" cx="0" cy="0" r="1" gradientUnits="userSpaceOnUse" gradientTransform="translate(217.314 54.5) rotate(107.405) scale(7.56631 6.87787)">
<stop stop-color="#ABA7A7"/>
<stop offset="0.416667" stop-color="white"/>
</radialGradient>
<radialGradient id="paint1_radial_130_325" cx="0" cy="0" r="1" gradientUnits="userSpaceOnUse" gradientTransform="translate(8.48712 54.5) rotate(77.8539) scale(7.82422 7.10206)">
<stop stop-color="#ABA7A7"/>
<stop offset="0.4375" stop-color="white"/>
</radialGradient>
<linearGradient id="paint2_linear_130_325" x1="111.017" y1="129.992" x2="120.132" y2="147.756" gradientUnits="userSpaceOnUse">
<stop stop-color="white"/>
<stop offset="0.932292" stop-color="#EDEAE3"/>
</linearGradient>
<radialGradient id="paint3_angular_130_325" cx="0" cy="0" r="1" gradientUnits="userSpaceOnUse" gradientTransform="translate(113.098 117.306) rotate(-159.007) scale(4.36748 43.6027)">
<stop stop-color="#ECD8A1"/>
<stop offset="1" stop-color="#ECC456"/>
</radialGradient>
<clipPath id="clip0_130_325">
<rect width="33" height="31.4828" fill="white" transform="translate(96.3135 124.086)"/>
</clipPath>
<clipPath id="clip1_130_325">
<rect width="44" height="59" fill="white" transform="translate(103.313)"/>
</clipPath>
</defs>
</svg>
